<?xml version="1.0" encoding="UTF-8" standalone="no"?>
<!DOCTYPE svg PUBLIC "-//W3C//DTD SVG 1.1//EN"
 "http://www.w3.org/Graphics/SVG/1.1/DTD/svg11.dtd">
<!-- Generated by graphviz version 2.43.20190912.0211 (20190912.0211)
 -->
<!-- Title: Classes Pages: 1 -->
<svg width="3509pt" height="1110pt"
 viewBox="0.00 0.00 3509.39 1109.57" xmlns="http://www.w3.org/2000/svg" xmlns:xlink="http://www.w3.org/1999/xlink">
<g id="graph0" class="graph" transform="scale(1 1) rotate(0) translate(4 1105.57)">
<title>Classes</title>
<polygon fill="white" stroke="transparent" points="-4,4 -4,-1105.57 3505.39,-1105.57 3505.39,4 -4,4"/>
<!-- 0.0 -->
<g id="node1" class="node">
<title>0.0</title>
<text text-anchor="middle" x="43" y="-1075.24" font-family="Times,serif" font-size="14.00">0.0 (11.0)</text>
</g>
<!-- 1.1 -->
<g id="node5" class="node">
<title>1.1</title>
<text text-anchor="middle" x="43" y="-993.99" font-family="Times,serif" font-size="14.00">1.1 (16.5)</text>
</g>
<!-- 0.0&#45;&gt;1.1 -->
<!-- CS 190 -->
<g id="node2" class="node">
<title>CS 190</title>
<ellipse fill="none" stroke="darkgreen" cx="224" cy="-1078.94" rx="119.5" ry="22.76"/>
<text text-anchor="start" x="179" y="-1080.74" font-family="Times,serif" font-size="14.00">CS 190 (3.0)</text>
<text text-anchor="start" x="147.5" y="-1069.94" font-family="Times,serif" font-size="10.00">Selected Computer Language</text>
</g>
<!-- SPAN 101 -->
<g id="node3" class="node">
<title>SPAN 101</title>
<ellipse fill="none" stroke="darkgreen" cx="451" cy="-1078.94" rx="89.19" ry="22.76"/>
<text text-anchor="start" x="396" y="-1080.74" font-family="Times,serif" font-size="14.00">SPAN 101 (4.0)</text>
<text text-anchor="start" x="426.5" y="-1069.94" font-family="Times,serif" font-size="10.00">Spanish I</text>
</g>
<!-- TGFE 099 -->
<g id="node4" class="node">
<title>TGFE 099</title>
<ellipse fill="none" stroke="darkgreen" cx="680" cy="-1078.94" rx="122.16" ry="22.76"/>
<text text-anchor="start" x="625" y="-1080.74" font-family="Times,serif" font-size="14.00">TGFE 099 (4.0)</text>
<text text-anchor="start" x="601.5" y="-1069.94" font-family="Times,serif" font-size="10.00">Transfer General Free Elective</text>
</g>
<!-- 1.2 -->
<g id="node13" class="node">
<title>1.2</title>
<text text-anchor="middle" x="43" y="-912.73" font-family="Times,serif" font-size="14.00">1.2 (19.5)</text>
</g>
<!-- 1.1&#45;&gt;1.2 -->
<!-- CHEM 101 -->
<g id="node6" class="node">
<title>CHEM 101</title>
<ellipse fill="none" stroke="darkgreen" cx="236" cy="-997.69" rx="94.09" ry="22.76"/>
<text text-anchor="start" x="177.5" y="-999.49" font-family="Times,serif" font-size="14.00">CHEM 101 (3.5)</text>
<text text-anchor="start" x="184.5" y="-988.69" font-family="Times,serif" font-size="10.00">General Chemistry I</text>
</g>
<!-- CHEM 102 -->
<g id="node14" class="node">
<title>CHEM 102</title>
<ellipse fill="none" stroke="darkgreen" cx="236" cy="-916.43" rx="94.09" ry="22.76"/>
<text text-anchor="start" x="177.5" y="-918.23" font-family="Times,serif" font-size="14.00">CHEM 102 (4.5)</text>
<text text-anchor="start" x="182.5" y="-907.43" font-family="Times,serif" font-size="10.00">General Chemistry II</text>
</g>
<!-- CHEM 101&#45;&gt;CHEM 102 -->
<g id="edge3" class="edge">
<title>CHEM 101&#45;&gt;CHEM 102</title>
<path fill="none" stroke="black" d="M236,-975.03C236,-967.08 236,-957.9 236,-949.25"/>
<polygon fill="black" stroke="black" points="239.5,-949.06 236,-939.06 232.5,-949.06 239.5,-949.06"/>
</g>
<!-- BIO 141 -->
<g id="node22" class="node">
<title>BIO 141</title>
<ellipse fill="none" stroke="darkgreen" cx="358" cy="-835.18" rx="79.81" ry="22.76"/>
<text text-anchor="start" x="309.5" y="-836.98" font-family="Times,serif" font-size="14.00">BIO 141 (4.5)</text>
<text text-anchor="start" x="314" y="-826.18" font-family="Times,serif" font-size="10.00">Essential Biology</text>
</g>
<!-- CHEM 101&#45;&gt;BIO 141 -->
<g id="edge8" class="edge">
<title>CHEM 101&#45;&gt;BIO 141</title>
<path fill="none" stroke="black" d="M287.62,-978.7C306.52,-969.63 326.35,-956.71 339,-939.06 353.73,-918.5 358.06,-889.88 358.94,-868.04"/>
<polygon fill="black" stroke="black" points="362.44,-867.99 359.13,-857.93 355.44,-867.86 362.44,-867.99"/>
</g>
<!-- ENGR 220 -->
<g id="node32" class="node">
<title>ENGR 220</title>
<ellipse fill="none" stroke="darkgreen" cx="466" cy="-753.92" rx="108.79" ry="22.76"/>
<text text-anchor="start" x="409" y="-755.72" font-family="Times,serif" font-size="14.00">ENGR 220 (4.0)</text>
<text text-anchor="start" x="397" y="-744.92" font-family="Times,serif" font-size="10.00">Fundamentals of Materials</text>
</g>
<!-- CHEM 101&#45;&gt;ENGR 220 -->
<g id="edge14" class="edge">
<title>CHEM 101&#45;&gt;ENGR 220</title>
<path fill="none" stroke="black" d="M181.31,-979.18C162.62,-970.27 143.73,-957.35 133,-939.06 122.83,-921.71 123.07,-911.3 133,-893.8 177.99,-814.52 279.43,-780.5 358.62,-765.9"/>
<polygon fill="black" stroke="black" points="359.41,-769.31 368.65,-764.13 358.19,-762.42 359.41,-769.31"/>
</g>
<!-- ENGL 101 -->
<g id="node7" class="node">
<title>ENGL 101</title>
<ellipse fill="none" stroke="darkgreen" cx="1660" cy="-997.69" rx="109.7" ry="22.76"/>
<text text-anchor="start" x="1604" y="-999.49" font-family="Times,serif" font-size="14.00">ENGL 101 (3.0)</text>
<text text-anchor="start" x="1590.5" y="-988.69" font-family="Times,serif" font-size="10.00">Composition and Rhetoric I</text>
</g>
<!-- ENGL 102 -->
<g id="node16" class="node">
<title>ENGL 102</title>
<ellipse fill="none" stroke="darkgreen" cx="1660" cy="-916.43" rx="112.36" ry="22.76"/>
<text text-anchor="start" x="1604" y="-918.23" font-family="Times,serif" font-size="14.00">ENGL 102 (3.0)</text>
<text text-anchor="start" x="1588.5" y="-907.43" font-family="Times,serif" font-size="10.00">Composition and Rhetoric II</text>
</g>
<!-- ENGL 101&#45;&gt;ENGL 102 -->
<g id="edge4" class="edge">
<title>ENGL 101&#45;&gt;ENGL 102</title>
<path fill="none" stroke="black" d="M1660,-975.03C1660,-967.08 1660,-957.9 1660,-949.25"/>
<polygon fill="black" stroke="black" points="1663.5,-949.06 1660,-939.06 1656.5,-949.06 1663.5,-949.06"/>
</g>
<!-- ENGR 100 -->
<g id="node8" class="node">
<title>ENGR 100</title>
<ellipse fill="none" stroke="darkgreen" cx="1895" cy="-997.69" rx="107.46" ry="22.76"/>
<text text-anchor="start" x="1838" y="-999.49" font-family="Times,serif" font-size="14.00">ENGR 100 (1.0)</text>
<text text-anchor="start" x="1827" y="-988.69" font-family="Times,serif" font-size="10.00">Beginning CAD for Design</text>
</g>
<!-- ENGR 101 -->
<g id="node9" class="node">
<title>ENGR 101</title>
<ellipse fill="none" stroke="darkgreen" cx="1186" cy="-997.69" rx="105.22" ry="22.76"/>
<text text-anchor="start" x="1129" y="-999.49" font-family="Times,serif" font-size="14.00">ENGR 101 (2.0)</text>
<text text-anchor="start" x="1119.5" y="-988.69" font-family="Times,serif" font-size="10.00">Engineering Design Lab I</text>
</g>
<!-- ENGR 102 -->
<g id="node17" class="node">
<title>ENGR 102</title>
<ellipse fill="none" stroke="darkgreen" cx="1186" cy="-916.43" rx="107.46" ry="22.76"/>
<text text-anchor="start" x="1129" y="-918.23" font-family="Times,serif" font-size="14.00">ENGR 102 (2.0)</text>
<text text-anchor="start" x="1118" y="-907.43" font-family="Times,serif" font-size="10.00">Engineering Design Lab II</text>
</g>
<!-- ENGR 101&#45;&gt;ENGR 102 -->
<g id="edge5" class="edge">
<title>ENGR 101&#45;&gt;ENGR 102</title>
<path fill="none" stroke="black" d="M1186,-975.03C1186,-967.08 1186,-957.9 1186,-949.25"/>
<polygon fill="black" stroke="black" points="1189.5,-949.06 1186,-939.06 1182.5,-949.06 1189.5,-949.06"/>
</g>
<!-- ENGR 121 -->
<g id="node10" class="node">
<title>ENGR 121</title>
<ellipse fill="none" stroke="darkgreen" cx="1440" cy="-997.69" rx="91.85" ry="22.76"/>
<text text-anchor="start" x="1383" y="-999.49" font-family="Times,serif" font-size="14.00">ENGR 121 (2.0)</text>
<text text-anchor="start" x="1392" y="-988.69" font-family="Times,serif" font-size="10.00">Computation Lab I</text>
</g>
<!-- ENGR 231 -->
<g id="node33" class="node">
<title>ENGR 231</title>
<ellipse fill="none" stroke="darkgreen" cx="1440" cy="-753.92" rx="114.6" ry="22.76"/>
<text text-anchor="start" x="1383" y="-755.72" font-family="Times,serif" font-size="14.00">ENGR 231 (3.0)</text>
<text text-anchor="start" x="1367" y="-744.92" font-family="Times,serif" font-size="10.00">Linear Engineering Systems</text>
</g>
<!-- ENGR 121&#45;&gt;ENGR 231 -->
<g id="edge17" class="edge">
<title>ENGR 121&#45;&gt;ENGR 231</title>
<path fill="none" stroke="black" d="M1440,-974.8C1440,-931.92 1440,-836.67 1440,-786.79"/>
<polygon fill="black" stroke="black" points="1443.5,-786.58 1440,-776.58 1436.5,-786.58 1443.5,-786.58"/>
</g>
<!-- MATH 121 -->
<g id="node11" class="node">
<title>MATH 121</title>
<ellipse fill="none" stroke="darkgreen" cx="587" cy="-997.69" rx="92.76" ry="22.76"/>
<text text-anchor="start" x="529.5" y="-999.49" font-family="Times,serif" font-size="14.00">MATH 121 (4.0)</text>
<text text-anchor="start" x="561.5" y="-988.69" font-family="Times,serif" font-size="10.00">Calculus I</text>
</g>
<!-- MATH 122 -->
<g id="node19" class="node">
<title>MATH 122</title>
<ellipse fill="none" stroke="darkgreen" cx="587" cy="-916.43" rx="92.76" ry="22.76"/>
<text text-anchor="start" x="529.5" y="-918.23" font-family="Times,serif" font-size="14.00">MATH 122 (4.0)</text>
<text text-anchor="start" x="559.5" y="-907.43" font-family="Times,serif" font-size="10.00">Calculus II</text>
</g>
<!-- MATH 121&#45;&gt;MATH 122 -->
<g id="edge6" class="edge">
<title>MATH 121&#45;&gt;MATH 122</title>
<path fill="none" stroke="black" d="M587,-975.03C587,-967.08 587,-957.9 587,-949.25"/>
<polygon fill="black" stroke="black" points="590.5,-949.06 587,-939.06 583.5,-949.06 590.5,-949.06"/>
</g>
<!-- UNIV 101 -->
<g id="node12" class="node">
<title>UNIV 101</title>
<ellipse fill="none" stroke="darkgreen" cx="2115" cy="-997.69" rx="94.51" ry="22.76"/>
<text text-anchor="start" x="2060.5" y="-999.49" font-family="Times,serif" font-size="14.00">UNIV 101 (1.0)</text>
<text text-anchor="start" x="2056" y="-988.69" font-family="Times,serif" font-size="10.00">The Drexel Experience</text>
</g>
<!-- 1.3 -->
<g id="node21" class="node">
<title>1.3</title>
<text text-anchor="middle" x="43" y="-831.48" font-family="Times,serif" font-size="14.00">1.3 (17.5)</text>
</g>
<!-- 1.2&#45;&gt;1.3 -->
<!-- CIVC 101 -->
<g id="node15" class="node">
<title>CIVC 101</title>
<ellipse fill="none" stroke="darkgreen" cx="1897" cy="-916.43" rx="106.55" ry="22.76"/>
<text text-anchor="start" x="1844" y="-918.23" font-family="Times,serif" font-size="14.00">CIVC 101 (1.0)</text>
<text text-anchor="start" x="1829.5" y="-907.43" font-family="Times,serif" font-size="10.00">Intro to Civic Engagement</text>
</g>
<!-- ENGL 103 -->
<g id="node24" class="node">
<title>ENGL 103</title>
<ellipse fill="none" stroke="darkgreen" cx="1660" cy="-835.18" rx="115.02" ry="22.76"/>
<text text-anchor="start" x="1604" y="-836.98" font-family="Times,serif" font-size="14.00">ENGL 103 (3.0)</text>
<text text-anchor="start" x="1586.5" y="-826.18" font-family="Times,serif" font-size="10.00">Composition and Rhetoric III</text>
</g>
<!-- ENGL 102&#45;&gt;ENGL 103 -->
<g id="edge9" class="edge">
<title>ENGL 102&#45;&gt;ENGL 103</title>
<path fill="none" stroke="black" d="M1660,-893.77C1660,-885.82 1660,-876.65 1660,-867.99"/>
<polygon fill="black" stroke="black" points="1663.5,-867.81 1660,-857.81 1656.5,-867.81 1663.5,-867.81"/>
</g>
<!-- ENGR 103 -->
<g id="node25" class="node">
<title>ENGR 103</title>
<ellipse fill="none" stroke="darkgreen" cx="1186" cy="-835.18" rx="110.12" ry="22.76"/>
<text text-anchor="start" x="1129" y="-836.98" font-family="Times,serif" font-size="14.00">ENGR 103 (2.0)</text>
<text text-anchor="start" x="1116" y="-826.18" font-family="Times,serif" font-size="10.00">Engineering Design Lab III</text>
</g>
<!-- ENGR 102&#45;&gt;ENGR 103 -->
<g id="edge10" class="edge">
<title>ENGR 102&#45;&gt;ENGR 103</title>
<path fill="none" stroke="black" d="M1186,-893.77C1186,-885.82 1186,-876.65 1186,-867.99"/>
<polygon fill="black" stroke="black" points="1189.5,-867.81 1186,-857.81 1182.5,-867.81 1189.5,-867.81"/>
</g>
<!-- ENGR 122 -->
<g id="node18" class="node">
<title>ENGR 122</title>
<ellipse fill="none" stroke="darkgreen" cx="2114" cy="-916.43" rx="91.85" ry="22.76"/>
<text text-anchor="start" x="2057" y="-918.23" font-family="Times,serif" font-size="14.00">ENGR 122 (1.0)</text>
<text text-anchor="start" x="2064" y="-907.43" font-family="Times,serif" font-size="10.00">Computation Lab II</text>
</g>
<!-- MATH 200 -->
<g id="node26" class="node">
<title>MATH 200</title>
<ellipse fill="none" stroke="darkgreen" cx="587" cy="-835.18" rx="92.76" ry="22.76"/>
<text text-anchor="start" x="529.5" y="-836.98" font-family="Times,serif" font-size="14.00">MATH 200 (4.0)</text>
<text text-anchor="start" x="532.5" y="-826.18" font-family="Times,serif" font-size="10.00">Multivariate Calculus</text>
</g>
<!-- MATH 122&#45;&gt;MATH 200 -->
<g id="edge11" class="edge">
<title>MATH 122&#45;&gt;MATH 200</title>
<path fill="none" stroke="black" d="M587,-893.77C587,-885.82 587,-876.65 587,-867.99"/>
<polygon fill="black" stroke="black" points="590.5,-867.81 587,-857.81 583.5,-867.81 590.5,-867.81"/>
</g>
<!-- MATH 122&#45;&gt;ENGR 220 -->
<g id="edge15" class="edge">
<title>MATH 122&#45;&gt;ENGR 220</title>
<path fill="none" stroke="black" d="M536.14,-897.47C517.34,-888.37 497.58,-875.44 485,-857.8 470.32,-837.22 465.98,-808.59 465.09,-786.76"/>
<polygon fill="black" stroke="black" points="468.58,-786.59 464.89,-776.66 461.59,-786.72 468.58,-786.59"/>
</g>
<!-- PHYS 201 -->
<g id="node58" class="node">
<title>PHYS 201</title>
<ellipse fill="none" stroke="orange" cx="765" cy="-428.9" rx="111.95" ry="22.76"/>
<text text-anchor="start" x="710" y="-430.7" font-family="Times,serif" font-size="14.00">PHYS 201 (4.0)</text>
<text text-anchor="start" x="694" y="-419.9" font-family="Times,serif" font-size="10.00">Fundamentals of Physics III</text>
</g>
<!-- MATH 122&#45;&gt;PHYS 201 -->
<g id="edge44" class="edge">
<title>MATH 122&#45;&gt;PHYS 201</title>
<path fill="none" stroke="black" d="M632.29,-896.6C651.43,-887.03 672.96,-873.98 689,-857.8 725.81,-820.69 746,-807.2 746,-754.92 746,-754.92 746,-754.92 746,-590.41 746,-545.54 753.41,-494.09 758.98,-461.79"/>
<polygon fill="black" stroke="black" points="762.49,-462.07 760.78,-451.61 755.59,-460.85 762.49,-462.07"/>
</g>
<!-- PHYS 101 -->
<g id="node20" class="node">
<title>PHYS 101</title>
<ellipse fill="none" stroke="darkgreen" cx="844" cy="-916.43" rx="106.55" ry="22.76"/>
<text text-anchor="start" x="789" y="-918.23" font-family="Times,serif" font-size="14.00">PHYS 101 (4.0)</text>
<text text-anchor="start" x="776.5" y="-907.43" font-family="Times,serif" font-size="10.00">Fundamentals of Physics I</text>
</g>
<!-- PHYS 102 -->
<g id="node27" class="node">
<title>PHYS 102</title>
<ellipse fill="none" stroke="darkgreen" cx="884" cy="-835.18" rx="109.7" ry="22.76"/>
<text text-anchor="start" x="829" y="-836.98" font-family="Times,serif" font-size="14.00">PHYS 102 (4.0)</text>
<text text-anchor="start" x="814.5" y="-826.18" font-family="Times,serif" font-size="10.00">Fundamentals of Physics II</text>
</g>
<!-- PHYS 101&#45;&gt;PHYS 102 -->
<g id="edge12" class="edge">
<title>PHYS 101&#45;&gt;PHYS 102</title>
<path fill="none" stroke="black" d="M854.93,-893.77C859.12,-885.47 863.98,-875.84 868.52,-866.85"/>
<polygon fill="black" stroke="black" points="871.7,-868.31 873.08,-857.81 865.45,-865.16 871.7,-868.31"/>
</g>
<!-- PHYS 101&#45;&gt;ENGR 220 -->
<g id="edge16" class="edge">
<title>PHYS 101&#45;&gt;ENGR 220</title>
<path fill="none" stroke="black" d="M815.02,-894.51C777.77,-867.91 714.81,-824.06 689,-812.55 647.24,-793.93 598.3,-780.45 556.93,-771.23"/>
<polygon fill="black" stroke="black" points="557.65,-767.8 547.13,-769.09 556.15,-774.64 557.65,-767.8"/>
</g>
<!-- 2.1 -->
<g id="node28" class="node">
<title>2.1</title>
<text text-anchor="middle" x="43" y="-750.22" font-family="Times,serif" font-size="14.00">2.1 (20.0)</text>
</g>
<!-- 1.3&#45;&gt;2.1 -->
<!-- COOP 101 -->
<g id="node23" class="node">
<title>COOP 101</title>
<ellipse fill="none" stroke="darkgreen" cx="1899" cy="-835.18" rx="105.22" ry="22.76"/>
<text text-anchor="start" x="1849.5" y="-836.98" font-family="Times,serif" font-size="14.00">COOP 101 (0)</text>
<text text-anchor="start" x="1832.5" y="-826.18" font-family="Times,serif" font-size="10.00">Career Mgmt/Profess Dev</text>
</g>
<!-- ECES 301 -->
<g id="node46" class="node">
<title>ECES 301</title>
<ellipse fill="none" stroke="darkgreen" cx="1207" cy="-591.41" rx="91.43" ry="22.76"/>
<text text-anchor="start" x="1151.5" y="-593.21" font-family="Times,serif" font-size="14.00">ECES 301 (4.0)</text>
<text text-anchor="start" x="1150.5" y="-582.41" font-family="Times,serif" font-size="10.00">Signals and Systems I</text>
</g>
<!-- ENGR 103&#45;&gt;ECES 301 -->
<g id="edge32" class="edge">
<title>ENGR 103&#45;&gt;ECES 301</title>
<path fill="none" stroke="black" d="M1187.9,-812.29C1191.63,-769.41 1199.9,-674.16 1204.23,-624.28"/>
<polygon fill="black" stroke="black" points="1207.74,-624.33 1205.12,-614.07 1200.77,-623.73 1207.74,-624.33"/>
</g>
<!-- ECE 303 -->
<g id="node55" class="node">
<title>ECE 303</title>
<ellipse fill="none" stroke="orange" cx="1041" cy="-428.9" rx="82.96" ry="22.76"/>
<text text-anchor="start" x="990.5" y="-430.7" font-family="Times,serif" font-size="14.00">ECE 303 (3.0)</text>
<text text-anchor="start" x="1000" y="-419.9" font-family="Times,serif" font-size="10.00">ECE Laboratory</text>
</g>
<!-- ENGR 103&#45;&gt;ECE 303 -->
<g id="edge41" class="edge">
<title>ENGR 103&#45;&gt;ECE 303</title>
<path fill="none" stroke="black" d="M1162.28,-812.81C1133.27,-784.21 1088,-730.48 1088,-673.67 1088,-673.67 1088,-673.67 1088,-590.41 1088,-543.7 1069.44,-492.32 1055.65,-460.58"/>
<polygon fill="black" stroke="black" points="1058.82,-459.09 1051.55,-451.38 1052.43,-461.94 1058.82,-459.09"/>
</g>
<!-- ECE 201 -->
<g id="node36" class="node">
<title>ECE 201</title>
<ellipse fill="none" stroke="darkgreen" cx="936" cy="-672.67" rx="124.4" ry="22.76"/>
<text text-anchor="start" x="885.5" y="-674.47" font-family="Times,serif" font-size="14.00">ECE 201 (4.0)</text>
<text text-anchor="start" x="856" y="-663.67" font-family="Times,serif" font-size="10.00">Foundations of Electric Circuits</text>
</g>
<!-- PHYS 102&#45;&gt;ECE 201 -->
<g id="edge19" class="edge">
<title>PHYS 102&#45;&gt;ECE 201</title>
<path fill="none" stroke="black" d="M891.01,-812.53C899.97,-784.89 915.53,-736.85 925.8,-705.15"/>
<polygon fill="black" stroke="black" points="929.18,-706.07 928.93,-695.48 922.52,-703.92 929.18,-706.07"/>
</g>
<!-- PHYS 102&#45;&gt;PHYS 201 -->
<g id="edge43" class="edge">
<title>PHYS 102&#45;&gt;PHYS 201</title>
<path fill="none" stroke="black" d="M859.79,-812.9C830.2,-784.41 784,-730.79 784,-673.67 784,-673.67 784,-673.67 784,-590.41 784,-545.54 776.59,-494.09 771.02,-461.79"/>
<polygon fill="black" stroke="black" points="774.41,-460.85 769.22,-451.61 767.51,-462.07 774.41,-460.85"/>
</g>
<!-- 2.2 -->
<g id="node35" class="node">
<title>2.2</title>
<text text-anchor="middle" x="43" y="-668.97" font-family="Times,serif" font-size="14.00">2.2 (16.0)</text>
</g>
<!-- 2.1&#45;&gt;2.2 -->
<!-- ECE 200 -->
<g id="node29" class="node">
<title>ECE 200</title>
<ellipse fill="none" stroke="darkgreen" cx="1790" cy="-753.92" rx="84.71" ry="22.76"/>
<text text-anchor="start" x="1739.5" y="-755.72" font-family="Times,serif" font-size="14.00">ECE 200 (4.0)</text>
<text text-anchor="start" x="1738" y="-744.92" font-family="Times,serif" font-size="10.00">Digital Logic Design</text>
</g>
<!-- MATH 221 -->
<g id="node40" class="node">
<title>MATH 221</title>
<ellipse fill="none" stroke="darkgreen" cx="1729" cy="-672.67" rx="92.76" ry="22.76"/>
<text text-anchor="start" x="1671.5" y="-674.47" font-family="Times,serif" font-size="14.00">MATH 221 (3.0)</text>
<text text-anchor="start" x="1673" y="-663.67" font-family="Times,serif" font-size="10.00">Discrete Mathematics</text>
</g>
<!-- ECE 200&#45;&gt;MATH 221 -->
<g id="edge23" class="edge">
<title>ECE 200&#45;&gt;MATH 221</title>
<path fill="none" stroke="black" d="M1773.65,-731.68C1766.88,-722.89 1758.92,-712.54 1751.61,-703.04"/>
<polygon fill="black" stroke="black" points="1754.26,-700.75 1745.39,-694.96 1748.72,-705.02 1754.26,-700.75"/>
</g>
<!-- ECEC 302 -->
<g id="node44" class="node">
<title>ECEC 302</title>
<ellipse fill="none" stroke="darkgreen" cx="2431" cy="-591.41" rx="98.99" ry="22.76"/>
<text text-anchor="start" x="2375" y="-593.21" font-family="Times,serif" font-size="14.00">ECEC 302 (3.0)</text>
<text text-anchor="start" x="2369" y="-582.41" font-family="Times,serif" font-size="10.00">Digital Systems Projects</text>
</g>
<!-- ECE 200&#45;&gt;ECEC 302 -->
<g id="edge28" class="edge">
<title>ECE 200&#45;&gt;ECEC 302</title>
<path fill="none" stroke="black" d="M1871.84,-747.47C1988.88,-738.93 2197.8,-720.7 2269,-695.29 2317.68,-677.92 2366.85,-643.82 2398.04,-619.65"/>
<polygon fill="black" stroke="black" points="2400.26,-622.36 2405.96,-613.42 2395.94,-616.85 2400.26,-622.36"/>
</g>
<!-- ECE 200&#45;&gt;ECES 301 -->
<g id="edge30" class="edge">
<title>ECE 200&#45;&gt;ECES 301</title>
<path fill="none" stroke="black" d="M1735.34,-736.58C1703.17,-726.24 1662.06,-711.73 1627,-695.29 1591.41,-678.6 1588.04,-663.21 1551,-650.04 1447.72,-613.3 1414.85,-633.64 1307,-614.04 1299.05,-612.59 1290.76,-610.98 1282.52,-609.3"/>
<polygon fill="black" stroke="black" points="1283,-605.83 1272.5,-607.23 1281.58,-612.68 1283,-605.83"/>
</g>
<!-- ECEC 204 -->
<g id="node49" class="node">
<title>ECEC 204</title>
<ellipse fill="none" stroke="darkgreen" cx="1877" cy="-510.16" rx="115.93" ry="22.76"/>
<text text-anchor="start" x="1821" y="-511.96" font-family="Times,serif" font-size="14.00">ECEC 204 (3.0)</text>
<text text-anchor="start" x="1803" y="-501.16" font-family="Times,serif" font-size="10.00">Design with Microcontrollers</text>
</g>
<!-- ECE 200&#45;&gt;ECEC 204 -->
<g id="edge35" class="edge">
<title>ECE 200&#45;&gt;ECEC 204</title>
<path fill="none" stroke="black" d="M1808.03,-731.67C1816.07,-721.28 1825.04,-708.23 1831,-695.29 1854.31,-644.68 1866.9,-580.59 1872.75,-542.91"/>
<polygon fill="black" stroke="black" points="1876.22,-543.42 1874.23,-533.01 1869.29,-542.39 1876.22,-543.42"/>
</g>
<!-- ECE 203 -->
<g id="node30" class="node">
<title>ECE 203</title>
<ellipse fill="none" stroke="darkgreen" cx="2431" cy="-753.92" rx="113.27" ry="22.76"/>
<text text-anchor="start" x="2380.5" y="-755.72" font-family="Times,serif" font-size="14.00">ECE 203 (3.0)</text>
<text text-anchor="start" x="2359" y="-744.92" font-family="Times,serif" font-size="10.00">Programming for Engineers</text>
</g>
<!-- ECEC 201 -->
<g id="node37" class="node">
<title>ECEC 201</title>
<ellipse fill="none" stroke="darkgreen" cx="2131" cy="-672.67" rx="129.3" ry="22.76"/>
<text text-anchor="start" x="2075" y="-674.47" font-family="Times,serif" font-size="14.00">ECEC 201 (3.0)</text>
<text text-anchor="start" x="2047.5" y="-663.67" font-family="Times,serif" font-size="10.00">Adv Programming for Engineers</text>
</g>
<!-- ECE 203&#45;&gt;ECEC 201 -->
<g id="edge20" class="edge">
<title>ECE 203&#45;&gt;ECEC 201</title>
<path fill="none" stroke="black" d="M2364.79,-735.43C2319.03,-723.34 2257.94,-707.2 2209.68,-694.45"/>
<polygon fill="black" stroke="black" points="2210.47,-691.04 2199.9,-691.87 2208.68,-697.81 2210.47,-691.04"/>
</g>
<!-- ECE 203&#45;&gt;ECEC 302 -->
<g id="edge27" class="edge">
<title>ECE 203&#45;&gt;ECEC 302</title>
<path fill="none" stroke="black" d="M2431,-731.27C2431,-703.75 2431,-656.01 2431,-624.31"/>
<polygon fill="black" stroke="black" points="2434.5,-624.23 2431,-614.23 2427.5,-624.23 2434.5,-624.23"/>
</g>
<!-- ECEC 357 -->
<g id="node45" class="node">
<title>ECEC 357</title>
<ellipse fill="none" stroke="darkgreen" cx="2688" cy="-591.41" rx="140.01" ry="22.76"/>
<text text-anchor="start" x="2632" y="-593.21" font-family="Times,serif" font-size="14.00">ECEC 357 (3.0)</text>
<text text-anchor="start" x="2597" y="-582.41" font-family="Times,serif" font-size="10.00">Introduction to Computer Networks</text>
</g>
<!-- ECE 203&#45;&gt;ECEC 357 -->
<g id="edge29" class="edge">
<title>ECE 203&#45;&gt;ECEC 357</title>
<path fill="none" stroke="black" d="M2464.07,-732.27C2510.37,-703.35 2594.53,-650.79 2645.44,-618.99"/>
<polygon fill="black" stroke="black" points="2647.61,-621.76 2654.24,-613.5 2643.9,-615.83 2647.61,-621.76"/>
</g>
<!-- ENGR 201 -->
<g id="node31" class="node">
<title>ENGR 201</title>
<ellipse fill="none" stroke="darkgreen" cx="2830" cy="-753.92" rx="111.03" ry="22.76"/>
<text text-anchor="start" x="2773" y="-755.72" font-family="Times,serif" font-size="14.00">ENGR 201 (3.0)</text>
<text text-anchor="start" x="2759.5" y="-744.92" font-family="Times,serif" font-size="10.00">Eval &amp; Pres of Exper Data I</text>
</g>
<!-- ENGR 202 -->
<g id="node38" class="node">
<title>ENGR 202</title>
<ellipse fill="none" stroke="darkgreen" cx="2830" cy="-672.67" rx="113.69" ry="22.76"/>
<text text-anchor="start" x="2773" y="-674.47" font-family="Times,serif" font-size="14.00">ENGR 202 (3.0)</text>
<text text-anchor="start" x="2757.5" y="-663.67" font-family="Times,serif" font-size="10.00">Eval &amp; Pres of Exper Data II</text>
</g>
<!-- ENGR 201&#45;&gt;ENGR 202 -->
<g id="edge21" class="edge">
<title>ENGR 201&#45;&gt;ENGR 202</title>
<path fill="none" stroke="black" d="M2830,-731.26C2830,-723.31 2830,-714.14 2830,-705.48"/>
<polygon fill="black" stroke="black" points="2833.5,-705.3 2830,-695.3 2826.5,-705.3 2833.5,-705.3"/>
</g>
<!-- ENGR 232 -->
<g id="node39" class="node">
<title>ENGR 232</title>
<ellipse fill="none" stroke="darkgreen" cx="1419" cy="-672.67" rx="123.07" ry="22.76"/>
<text text-anchor="start" x="1362" y="-674.47" font-family="Times,serif" font-size="14.00">ENGR 232 (3.0)</text>
<text text-anchor="start" x="1340" y="-663.67" font-family="Times,serif" font-size="10.00">Dynamic Engineering Systems</text>
</g>
<!-- ENGR 231&#45;&gt;ENGR 232 -->
<g id="edge22" class="edge">
<title>ENGR 231&#45;&gt;ENGR 232</title>
<path fill="none" stroke="black" d="M1434.26,-731.26C1432.13,-723.23 1429.67,-713.94 1427.35,-705.2"/>
<polygon fill="black" stroke="black" points="1430.68,-704.07 1424.73,-695.3 1423.91,-705.86 1430.68,-704.07"/>
</g>
<!-- CS 303 -->
<g id="node61" class="node">
<title>CS 303</title>
<ellipse fill="none" stroke="orange" cx="1809" cy="-347.65" rx="181.95" ry="22.76"/>
<text text-anchor="start" x="1764" y="-349.45" font-family="Times,serif" font-size="14.00">CS 303 (3.0)</text>
<text text-anchor="start" x="1688.5" y="-338.65" font-family="Times,serif" font-size="10.00">Algorithmic Number Theory and Cryptography</text>
</g>
<!-- ENGR 231&#45;&gt;CS 303 -->
<g id="edge48" class="edge">
<title>ENGR 231&#45;&gt;CS 303</title>
<path fill="none" stroke="black" d="M1491.83,-733.68C1512.02,-724.34 1534.27,-711.57 1551,-695.29 1588.46,-658.83 1608,-644.69 1608,-592.41 1608,-592.41 1608,-592.41 1608,-509.16 1608,-441.16 1679.12,-397.26 1736.74,-372.86"/>
<polygon fill="black" stroke="black" points="1738.31,-376 1746.23,-368.96 1735.65,-369.52 1738.31,-376"/>
</g>
<!-- PHIL 111 -->
<g id="node34" class="node">
<title>PHIL 111</title>
<ellipse fill="none" stroke="darkgreen" cx="3045" cy="-753.92" rx="86.03" ry="22.76"/>
<text text-anchor="start" x="2992" y="-755.72" font-family="Times,serif" font-size="14.00">PHIL 111 (3.0)</text>
<text text-anchor="start" x="3002.5" y="-744.92" font-family="Times,serif" font-size="10.00">Symbolic Logic I</text>
</g>
<!-- PHIL 207 -->
<g id="node71" class="node">
<title>PHIL 207</title>
<ellipse fill="none" stroke="orange" cx="3045" cy="-103.88" rx="86.03" ry="22.76"/>
<text text-anchor="start" x="2992" y="-105.68" font-family="Times,serif" font-size="14.00">PHIL 207 (3.0)</text>
<text text-anchor="start" x="3001" y="-94.88" font-family="Times,serif" font-size="10.00">Symbolic Logic II</text>
</g>
<!-- PHIL 111&#45;&gt;PHIL 207 -->
<g id="edge58" class="edge">
<title>PHIL 111&#45;&gt;PHIL 207</title>
<path fill="none" stroke="black" d="M3045,-731.11C3045,-700.24 3045,-642.01 3045,-592.41 3045,-592.41 3045,-592.41 3045,-265.39 3045,-220.83 3045,-169.3 3045,-136.91"/>
<polygon fill="black" stroke="black" points="3048.5,-136.69 3045,-126.69 3041.5,-136.69 3048.5,-136.69"/>
</g>
<!-- 3.1 -->
<g id="node41" class="node">
<title>3.1</title>
<text text-anchor="middle" x="43" y="-587.71" font-family="Times,serif" font-size="14.00">3.1 (17.0)</text>
</g>
<!-- 2.2&#45;&gt;3.1 -->
<!-- ECE 201&#45;&gt;ECES 301 -->
<g id="edge31" class="edge">
<title>ECE 201&#45;&gt;ECES 301</title>
<path fill="none" stroke="black" d="M999.54,-653.08C1041.77,-640.73 1097.15,-624.54 1140.07,-611.99"/>
<polygon fill="black" stroke="black" points="1141.24,-615.29 1149.86,-609.12 1139.27,-608.57 1141.24,-615.29"/>
</g>
<!-- ECE 201&#45;&gt;ECE 303 -->
<g id="edge40" class="edge">
<title>ECE 201&#45;&gt;ECE 303</title>
<path fill="none" stroke="black" d="M945.5,-649.78C964.24,-606.63 1006.02,-510.45 1027.57,-460.83"/>
<polygon fill="black" stroke="black" points="1030.82,-462.13 1031.59,-451.56 1024.4,-459.34 1030.82,-462.13"/>
</g>
<!-- CS 265 -->
<g id="node42" class="node">
<title>CS 265</title>
<ellipse fill="none" stroke="darkgreen" cx="2096" cy="-591.41" rx="179.71" ry="22.76"/>
<text text-anchor="start" x="2051" y="-593.21" font-family="Times,serif" font-size="14.00">CS 265 (3.0)</text>
<text text-anchor="start" x="1977" y="-582.41" font-family="Times,serif" font-size="10.00">Advanced Programming Tools and Techniques</text>
</g>
<!-- ECEC 201&#45;&gt;CS 265 -->
<g id="edge25" class="edge">
<title>ECEC 201&#45;&gt;CS 265</title>
<path fill="none" stroke="black" d="M2121.44,-650.01C2117.81,-641.8 2113.61,-632.28 2109.67,-623.37"/>
<polygon fill="black" stroke="black" points="2112.79,-621.78 2105.55,-614.04 2106.39,-624.6 2112.79,-621.78"/>
</g>
<!-- ECEC 201&#45;&gt;ECEC 204 -->
<g id="edge36" class="edge">
<title>ECEC 201&#45;&gt;ECEC 204</title>
<path fill="none" stroke="black" d="M2037.05,-657.07C1984.55,-647.11 1925.96,-632.41 1907,-614.04 1887.96,-595.6 1880.82,-565.83 1878.23,-543.04"/>
<polygon fill="black" stroke="black" points="1881.7,-542.47 1877.32,-532.82 1874.73,-543.09 1881.7,-542.47"/>
</g>
<!-- ECEC 353 -->
<g id="node51" class="node">
<title>ECEC 353</title>
<ellipse fill="none" stroke="darkgreen" cx="2292" cy="-510.16" rx="94.09" ry="22.76"/>
<text text-anchor="start" x="2236" y="-511.96" font-family="Times,serif" font-size="14.00">ECEC 353 (3.0)</text>
<text text-anchor="start" x="2233.5" y="-501.16" font-family="Times,serif" font-size="10.00">Systems Programming</text>
</g>
<!-- ECEC 201&#45;&gt;ECEC 353 -->
<g id="edge37" class="edge">
<title>ECEC 201&#45;&gt;ECEC 353</title>
<path fill="none" stroke="black" d="M2221.92,-656.39C2246.06,-647.88 2269.65,-634.64 2285,-614.04 2300.05,-593.84 2300.67,-564.76 2298.18,-542.67"/>
<polygon fill="black" stroke="black" points="2301.64,-542.18 2296.8,-532.76 2294.71,-543.15 2301.64,-542.18"/>
</g>
<!-- ECE 361 -->
<g id="node43" class="node">
<title>ECE 361</title>
<ellipse fill="none" stroke="darkgreen" cx="1419" cy="-591.41" rx="102.56" ry="22.76"/>
<text text-anchor="start" x="1368.5" y="-593.21" font-family="Times,serif" font-size="14.00">ECE 361 (4.0)</text>
<text text-anchor="start" x="1354.5" y="-582.41" font-family="Times,serif" font-size="10.00">Probability for Engineers</text>
</g>
<!-- ENGR 232&#45;&gt;ECE 361 -->
<g id="edge26" class="edge">
<title>ENGR 232&#45;&gt;ECE 361</title>
<path fill="none" stroke="black" d="M1419,-650.01C1419,-642.06 1419,-632.88 1419,-624.23"/>
<polygon fill="black" stroke="black" points="1422.5,-624.04 1419,-614.04 1415.5,-624.04 1422.5,-624.04"/>
</g>
<!-- MATH 221&#45;&gt;CS 303 -->
<g id="edge47" class="edge">
<title>MATH 221&#45;&gt;CS 303</title>
<path fill="none" stroke="black" d="M1729.86,-649.77C1731.65,-614.9 1736.94,-544.86 1752,-487.53 1762.07,-449.19 1780.29,-407.4 1793.42,-379.78"/>
<polygon fill="black" stroke="black" points="1796.64,-381.16 1797.83,-370.63 1790.34,-378.11 1796.64,-381.16"/>
</g>
<!-- 3.2 -->
<g id="node47" class="node">
<title>3.2</title>
<text text-anchor="middle" x="43" y="-506.46" font-family="Times,serif" font-size="14.00">3.2 (18.0)</text>
</g>
<!-- 3.1&#45;&gt;3.2 -->
<!-- CS 260 -->
<g id="node48" class="node">
<title>CS 260</title>
<ellipse fill="none" stroke="darkgreen" cx="2093" cy="-510.16" rx="74.91" ry="22.76"/>
<text text-anchor="start" x="2048" y="-511.96" font-family="Times,serif" font-size="14.00">CS 260 (3.0)</text>
<text text-anchor="start" x="2052.5" y="-501.16" font-family="Times,serif" font-size="10.00">Data Structures</text>
</g>
<!-- CS 265&#45;&gt;CS 260 -->
<g id="edge34" class="edge">
<title>CS 265&#45;&gt;CS 260</title>
<path fill="none" stroke="black" d="M2095.18,-568.75C2094.88,-560.8 2094.53,-551.63 2094.2,-542.97"/>
<polygon fill="black" stroke="black" points="2097.69,-542.65 2093.82,-532.79 2090.7,-542.91 2097.69,-542.65"/>
</g>
<!-- ECE 491 -->
<g id="node66" class="node">
<title>ECE 491</title>
<ellipse fill="none" stroke="orange" cx="1415" cy="-266.39" rx="94.51" ry="22.76"/>
<text text-anchor="start" x="1364.5" y="-268.19" font-family="Times,serif" font-size="14.00">ECE 491 (2.0)</text>
<text text-anchor="start" x="1356" y="-257.39" font-family="Times,serif" font-size="10.00">Senior Design Project I</text>
</g>
<!-- ECE 361&#45;&gt;ECE 491 -->
<g id="edge53" class="edge">
<title>ECE 361&#45;&gt;ECE 491</title>
<path fill="none" stroke="black" d="M1405.73,-568.73C1379.27,-522.53 1325.33,-411.55 1360,-325.02 1364.42,-314 1372.06,-303.89 1380.26,-295.32"/>
<polygon fill="black" stroke="black" points="1382.84,-297.69 1387.55,-288.2 1377.95,-292.68 1382.84,-297.69"/>
</g>
<!-- ECEC 355 -->
<g id="node52" class="node">
<title>ECEC 355</title>
<ellipse fill="none" stroke="darkgreen" cx="2535" cy="-510.16" rx="94.51" ry="22.76"/>
<text text-anchor="start" x="2479" y="-511.96" font-family="Times,serif" font-size="14.00">ECEC 355 (3.0)</text>
<text text-anchor="start" x="2476" y="-501.16" font-family="Times,serif" font-size="10.00">Computer Architecture</text>
</g>
<!-- ECEC 302&#45;&gt;ECEC 355 -->
<g id="edge38" class="edge">
<title>ECEC 302&#45;&gt;ECEC 355</title>
<path fill="none" stroke="black" d="M2458.32,-569.59C2470.98,-559.94 2486.18,-548.36 2499.7,-538.06"/>
<polygon fill="black" stroke="black" points="2502.03,-540.69 2507.86,-531.84 2497.78,-535.12 2502.03,-540.69"/>
</g>
<!-- 4.1 -->
<g id="node54" class="node">
<title>4.1</title>
<text text-anchor="middle" x="43" y="-425.2" font-family="Times,serif" font-size="14.00">4.1 (17.0)</text>
</g>
<!-- 3.2&#45;&gt;4.1 -->
<!-- CS 260&#45;&gt;CS 303 -->
<g id="edge46" class="edge">
<title>CS 260&#45;&gt;CS 303</title>
<path fill="none" stroke="black" d="M2059.03,-489.95C2008.29,-461.28 1912.61,-407.2 1855.45,-374.9"/>
<polygon fill="black" stroke="black" points="1857.05,-371.78 1846.62,-369.91 1853.6,-377.88 1857.05,-371.78"/>
</g>
<!-- ECEC I399 -->
<g id="node50" class="node">
<title>ECEC I399</title>
<ellipse fill="none" stroke="darkgreen" cx="3187" cy="-510.16" rx="113.69" ry="22.76"/>
<text text-anchor="start" x="3128.5" y="-511.96" font-family="Times,serif" font-size="14.00">ECEC I399 (3.0)</text>
<text text-anchor="start" x="3114.5" y="-501.16" font-family="Times,serif" font-size="10.00">Vision Processing Hardware</text>
</g>
<!-- CS 370 -->
<g id="node62" class="node">
<title>CS 370</title>
<ellipse fill="none" stroke="orange" cx="2256" cy="-347.65" rx="80.72" ry="22.76"/>
<text text-anchor="start" x="2211" y="-349.45" font-family="Times,serif" font-size="14.00">CS 370 (3.0)</text>
<text text-anchor="start" x="2207" y="-338.65" font-family="Times,serif" font-size="10.00">Operating Systems</text>
</g>
<!-- ECEC 353&#45;&gt;CS 370 -->
<g id="edge49" class="edge">
<title>ECEC 353&#45;&gt;CS 370</title>
<path fill="none" stroke="black" d="M2287.14,-487.51C2280.97,-459.99 2270.26,-412.24 2263.15,-380.55"/>
<polygon fill="black" stroke="black" points="2266.5,-379.46 2260.89,-370.46 2259.67,-380.99 2266.5,-379.46"/>
</g>
<!-- ECEC 412 -->
<g id="node56" class="node">
<title>ECEC 412</title>
<ellipse fill="none" stroke="orange" cx="2668" cy="-428.9" rx="105.22" ry="22.76"/>
<text text-anchor="start" x="2612" y="-430.7" font-family="Times,serif" font-size="14.00">ECEC 412 (3.0)</text>
<text text-anchor="start" x="2601.5" y="-419.9" font-family="Times,serif" font-size="10.00">Modern Processor Design</text>
</g>
<!-- ECEC 355&#45;&gt;ECEC 412 -->
<g id="edge42" class="edge">
<title>ECEC 355&#45;&gt;ECEC 412</title>
<path fill="none" stroke="black" d="M2568.91,-488.95C2585.97,-478.78 2606.84,-466.35 2625.01,-455.52"/>
<polygon fill="black" stroke="black" points="2626.9,-458.47 2633.69,-450.34 2623.31,-452.46 2626.9,-458.47"/>
</g>
<!-- ECEC&#45;T 480 -->
<g id="node64" class="node">
<title>ECEC&#45;T 480</title>
<ellipse fill="none" stroke="orange" cx="2535" cy="-347.65" rx="180.12" ry="22.76"/>
<text text-anchor="start" x="2472.5" y="-349.45" font-family="Times,serif" font-size="14.00">ECEC&#45;T 480 (3.0)</text>
<text text-anchor="start" x="2415.5" y="-338.65" font-family="Times,serif" font-size="10.00">ST: Advanced Topics in Computer Architecture</text>
</g>
<!-- ECEC 355&#45;&gt;ECEC&#45;T 480 -->
<g id="edge50" class="edge">
<title>ECEC 355&#45;&gt;ECEC&#45;T 480</title>
<path fill="none" stroke="black" d="M2535,-487.51C2535,-459.99 2535,-412.24 2535,-380.55"/>
<polygon fill="black" stroke="black" points="2538.5,-380.46 2535,-370.46 2531.5,-380.46 2538.5,-380.46"/>
</g>
<!-- PHIL 315 -->
<g id="node53" class="node">
<title>PHIL 315</title>
<ellipse fill="none" stroke="darkgreen" cx="3405" cy="-510.16" rx="86.03" ry="22.76"/>
<text text-anchor="start" x="3352" y="-511.96" font-family="Times,serif" font-size="14.00">PHIL 315 (3.0)</text>
<text text-anchor="start" x="3355.5" y="-501.16" font-family="Times,serif" font-size="10.00">Engineering Ethics</text>
</g>
<!-- 4.2 -->
<g id="node60" class="node">
<title>4.2</title>
<text text-anchor="middle" x="43" y="-343.95" font-family="Times,serif" font-size="14.00">4.2 (10.0)</text>
</g>
<!-- 4.1&#45;&gt;4.2 -->
<!-- ECON 201 -->
<g id="node57" class="node">
<title>ECON 201</title>
<ellipse fill="none" stroke="orange" cx="3190" cy="-428.9" rx="116.85" ry="22.76"/>
<text text-anchor="start" x="3133" y="-430.7" font-family="Times,serif" font-size="14.00">ECON 201 (4.0)</text>
<text text-anchor="start" x="3115.5" y="-419.9" font-family="Times,serif" font-size="10.00">Principles of Microeconomics</text>
</g>
<!-- PSY 101  -->
<g id="node59" class="node">
<title>PSY 101 </title>
<ellipse fill="none" stroke="orange" cx="3413" cy="-428.9" rx="88.28" ry="22.76"/>
<text text-anchor="start" x="3361.5" y="-430.7" font-family="Times,serif" font-size="14.00">PSY 101 &#160;(3.0)</text>
<text text-anchor="start" x="3358.5" y="-419.9" font-family="Times,serif" font-size="10.00">General Psychology I</text>
</g>
<!-- 5.1 -->
<g id="node65" class="node">
<title>5.1</title>
<text text-anchor="middle" x="43" y="-262.69" font-family="Times,serif" font-size="14.00">5.1 (2.0)</text>
</g>
<!-- 4.2&#45;&gt;5.1 -->
<!-- ECE 391 -->
<g id="node63" class="node">
<title>ECE 391</title>
<ellipse fill="none" stroke="orange" cx="1489" cy="-347.65" rx="120.42" ry="22.76"/>
<text text-anchor="start" x="1438.5" y="-349.45" font-family="Times,serif" font-size="14.00">ECE 391 (1.0)</text>
<text text-anchor="start" x="1412" y="-338.65" font-family="Times,serif" font-size="10.00">Intro to Engr Design Methods</text>
</g>
<!-- ECE 391&#45;&gt;ECE 491 -->
<g id="edge52" class="edge">
<title>ECE 391&#45;&gt;ECE 491</title>
<path fill="none" stroke="black" d="M1468.78,-324.99C1460.47,-316.09 1450.73,-305.66 1441.84,-296.14"/>
<polygon fill="black" stroke="black" points="1444.32,-293.67 1434.94,-288.75 1439.21,-298.45 1444.32,-293.67"/>
</g>
<!-- 5.2 -->
<g id="node67" class="node">
<title>5.2</title>
<text text-anchor="middle" x="43" y="-181.44" font-family="Times,serif" font-size="14.00">5.2 (2.0)</text>
</g>
<!-- 5.1&#45;&gt;5.2 -->
<!-- ECE 492 -->
<g id="node68" class="node">
<title>ECE 492</title>
<ellipse fill="none" stroke="orange" cx="1415" cy="-185.14" rx="96.75" ry="22.76"/>
<text text-anchor="start" x="1364.5" y="-186.94" font-family="Times,serif" font-size="14.00">ECE 492 (2.0)</text>
<text text-anchor="start" x="1354.5" y="-176.14" font-family="Times,serif" font-size="10.00">Senior Design Project II</text>
</g>
<!-- ECE 491&#45;&gt;ECE 492 -->
<g id="edge55" class="edge">
<title>ECE 491&#45;&gt;ECE 492</title>
<path fill="none" stroke="black" d="M1415,-243.74C1415,-235.78 1415,-226.61 1415,-217.95"/>
<polygon fill="black" stroke="black" points="1418.5,-217.77 1415,-207.77 1411.5,-217.77 1418.5,-217.77"/>
</g>
<!-- 5.3 -->
<g id="node69" class="node">
<title>5.3</title>
<text text-anchor="middle" x="43" y="-100.18" font-family="Times,serif" font-size="14.00">5.3 (7.0)</text>
</g>
<!-- 5.2&#45;&gt;5.3 -->
<!-- ECE 493 -->
<g id="node70" class="node">
<title>ECE 493</title>
<ellipse fill="none" stroke="orange" cx="1415" cy="-103.88" rx="99.9" ry="22.76"/>
<text text-anchor="start" x="1364.5" y="-105.68" font-family="Times,serif" font-size="14.00">ECE 493 (4.0)</text>
<text text-anchor="start" x="1352.5" y="-94.88" font-family="Times,serif" font-size="10.00">Senior Design Project III</text>
</g>
<!-- ECE 492&#45;&gt;ECE 493 -->
<g id="edge57" class="edge">
<title>ECE 492&#45;&gt;ECE 493</title>
<path fill="none" stroke="black" d="M1415,-162.48C1415,-154.53 1415,-145.36 1415,-136.7"/>
<polygon fill="black" stroke="black" points="1418.5,-136.51 1415,-126.51 1411.5,-136.51 1418.5,-136.51"/>
</g>
<!-- &#45;1.0 -->
<g id="node72" class="node">
<title>&#45;1.0</title>
<text text-anchor="middle" x="43" y="-18.93" font-family="Times,serif" font-size="14.00">&#45;1.0 (7.0)</text>
</g>
<!-- 5.3&#45;&gt;&#45;1.0 -->
<!-- TEMP GenEd -->
<g id="node73" class="node">
<title>TEMP GenEd</title>
<ellipse fill="none" stroke="red" cx="215" cy="-22.63" rx="113.69" ry="22.76"/>
<text text-anchor="start" x="148" y="-24.43" font-family="Times,serif" font-size="14.00">TEMP GenEd (4.0)</text>
<text text-anchor="start" x="142.5" y="-13.63" font-family="Times,serif" font-size="10.00">General Education Electives</text>
</g>
<!-- TEMP COE -->
<g id="node74" class="node">
<title>TEMP COE</title>
<ellipse fill="none" stroke="red" cx="452" cy="-22.63" rx="105.22" ry="22.76"/>
<text text-anchor="start" x="393" y="-24.43" font-family="Times,serif" font-size="14.00">TEMP COE (3.0)</text>
<text text-anchor="start" x="385.5" y="-13.63" font-family="Times,serif" font-size="10.00">ECE/COE/BMES Electives</text>
</g>
</g>
</svg>
