<?xml version="1.0" encoding="UTF-8" standalone="no"?>
<!DOCTYPE svg PUBLIC "-//W3C//DTD SVG 1.1//EN"
 "http://www.w3.org/Graphics/SVG/1.1/DTD/svg11.dtd">
<!-- Generated by graphviz version 2.40.1 (20161225.0304)
 -->
<!-- Title: Classes Pages: 1 -->
<svg width="2185pt" height="980pt"
 viewBox="0.00 0.00 2185.14 980.00" xmlns="http://www.w3.org/2000/svg" xmlns:xlink="http://www.w3.org/1999/xlink">
<g id="graph0" class="graph" transform="scale(1 1) rotate(0) translate(4 976)">
<title>Classes</title>
<polygon fill="#ffffff" stroke="transparent" points="-4,4 -4,-976 2181.1442,-976 2181.1442,4 -4,4"/>
<!-- 0.0 -->
<g id="node1" class="node">
<title>0.0</title>
<text text-anchor="middle" x="37.5" y="-950.3" font-family="Times,serif" font-size="14.00" fill="#000000">0.0 (11.0)</text>
</g>
<!-- 1.1 -->
<g id="node5" class="node">
<title>1.1</title>
<text text-anchor="middle" x="37.5" y="-878.3" font-family="Times,serif" font-size="14.00" fill="#000000">1.1 (16.5)</text>
</g>
<!-- 0.0&#45;&gt;1.1 -->
<!-- CS 190 -->
<g id="node2" class="node">
<title>CS 190</title>
<ellipse fill="none" stroke="#006400" cx="147.5" cy="-954" rx="56.59" ry="18"/>
<text text-anchor="middle" x="147.5" y="-950.3" font-family="Times,serif" font-size="14.00" fill="#000000">CS 190 (3.0)</text>
</g>
<!-- SPAN 101 -->
<g id="node3" class="node">
<title>SPAN 101</title>
<ellipse fill="none" stroke="#006400" cx="290.5" cy="-954" rx="68.4888" ry="18"/>
<text text-anchor="middle" x="290.5" y="-950.3" font-family="Times,serif" font-size="14.00" fill="#000000">SPAN 101 (4.0)</text>
</g>
<!-- TGFE 099 -->
<g id="node4" class="node">
<title>TGFE 099</title>
<ellipse fill="none" stroke="#006400" cx="444.5" cy="-954" rx="67.6881" ry="18"/>
<text text-anchor="middle" x="444.5" y="-950.3" font-family="Times,serif" font-size="14.00" fill="#000000">TGFE 099 (4.0)</text>
</g>
<!-- 1.2 -->
<g id="node13" class="node">
<title>1.2</title>
<text text-anchor="middle" x="37.5" y="-806.3" font-family="Times,serif" font-size="14.00" fill="#000000">1.2 (19.5)</text>
</g>
<!-- 1.1&#45;&gt;1.2 -->
<!-- CHEM 101 -->
<g id="node6" class="node">
<title>CHEM 101</title>
<ellipse fill="none" stroke="#006400" cx="261.5" cy="-882" rx="71.4873" ry="18"/>
<text text-anchor="middle" x="261.5" y="-878.3" font-family="Times,serif" font-size="14.00" fill="#000000">CHEM 101 (3.5)</text>
</g>
<!-- CHEM 102 -->
<g id="node14" class="node">
<title>CHEM 102</title>
<ellipse fill="none" stroke="#006400" cx="162.5" cy="-810" rx="71.4873" ry="18"/>
<text text-anchor="middle" x="162.5" y="-806.3" font-family="Times,serif" font-size="14.00" fill="#000000">CHEM 102 (4.5)</text>
</g>
<!-- CHEM 101&#45;&gt;CHEM 102 -->
<g id="edge3" class="edge">
<title>CHEM 101&#45;&gt;CHEM 102</title>
<path fill="none" stroke="#000000" d="M238.0384,-864.937C225.0641,-855.5012 208.7535,-843.6389 194.6119,-833.3541"/>
<polygon fill="#000000" stroke="#000000" points="196.2823,-830.2412 186.1363,-827.19 192.1651,-835.9024 196.2823,-830.2412"/>
</g>
<!-- BIO 141 -->
<g id="node22" class="node">
<title>BIO 141</title>
<ellipse fill="none" stroke="#006400" cx="261.5" cy="-738" rx="61.1893" ry="18"/>
<text text-anchor="middle" x="261.5" y="-734.3" font-family="Times,serif" font-size="14.00" fill="#000000">BIO 141 (4.5)</text>
</g>
<!-- CHEM 101&#45;&gt;BIO 141 -->
<g id="edge8" class="edge">
<title>CHEM 101&#45;&gt;BIO 141</title>
<path fill="none" stroke="#000000" d="M261.5,-863.7623C261.5,-839.201 261.5,-795.2474 261.5,-766.3541"/>
<polygon fill="#000000" stroke="#000000" points="265.0001,-766.0896 261.5,-756.0896 258.0001,-766.0897 265.0001,-766.0896"/>
</g>
<!-- ENGR 220 -->
<g id="node32" class="node">
<title>ENGR 220</title>
<ellipse fill="none" stroke="#006400" cx="388.5" cy="-666" rx="69.5877" ry="18"/>
<text text-anchor="middle" x="388.5" y="-662.3" font-family="Times,serif" font-size="14.00" fill="#000000">ENGR 220 (4.0)</text>
</g>
<!-- CHEM 101&#45;&gt;ENGR 220 -->
<g id="edge14" class="edge">
<title>CHEM 101&#45;&gt;ENGR 220</title>
<path fill="none" stroke="#000000" d="M272.1095,-863.9555C294.4835,-825.9021 346.5947,-737.272 372.8255,-692.659"/>
<polygon fill="#000000" stroke="#000000" points="375.9586,-694.2356 378.01,-683.8413 369.9244,-690.6877 375.9586,-694.2356"/>
</g>
<!-- ENGL 101 -->
<g id="node7" class="node">
<title>ENGL 101</title>
<ellipse fill="none" stroke="#006400" cx="1093.5" cy="-882" rx="69.5877" ry="18"/>
<text text-anchor="middle" x="1093.5" y="-878.3" font-family="Times,serif" font-size="14.00" fill="#000000">ENGL 101 (3.0)</text>
</g>
<!-- ENGL 102 -->
<g id="node16" class="node">
<title>ENGL 102</title>
<ellipse fill="none" stroke="#006400" cx="1093.5" cy="-810" rx="69.5877" ry="18"/>
<text text-anchor="middle" x="1093.5" y="-806.3" font-family="Times,serif" font-size="14.00" fill="#000000">ENGL 102 (3.0)</text>
</g>
<!-- ENGL 101&#45;&gt;ENGL 102 -->
<g id="edge4" class="edge">
<title>ENGL 101&#45;&gt;ENGL 102</title>
<path fill="none" stroke="#000000" d="M1093.5,-863.8314C1093.5,-856.131 1093.5,-846.9743 1093.5,-838.4166"/>
<polygon fill="#000000" stroke="#000000" points="1097.0001,-838.4132 1093.5,-828.4133 1090.0001,-838.4133 1097.0001,-838.4132"/>
</g>
<!-- ENGR 100 -->
<g id="node8" class="node">
<title>ENGR 100</title>
<ellipse fill="none" stroke="#006400" cx="1341.5" cy="-882" rx="69.5877" ry="18"/>
<text text-anchor="middle" x="1341.5" y="-878.3" font-family="Times,serif" font-size="14.00" fill="#000000">ENGR 100 (1.0)</text>
</g>
<!-- ENGR 101 -->
<g id="node9" class="node">
<title>ENGR 101</title>
<ellipse fill="none" stroke="#006400" cx="878.5" cy="-882" rx="69.5877" ry="18"/>
<text text-anchor="middle" x="878.5" y="-878.3" font-family="Times,serif" font-size="14.00" fill="#000000">ENGR 101 (2.0)</text>
</g>
<!-- ENGR 102 -->
<g id="node17" class="node">
<title>ENGR 102</title>
<ellipse fill="none" stroke="#006400" cx="878.5" cy="-810" rx="69.5877" ry="18"/>
<text text-anchor="middle" x="878.5" y="-806.3" font-family="Times,serif" font-size="14.00" fill="#000000">ENGR 102 (2.0)</text>
</g>
<!-- ENGR 101&#45;&gt;ENGR 102 -->
<g id="edge5" class="edge">
<title>ENGR 101&#45;&gt;ENGR 102</title>
<path fill="none" stroke="#000000" d="M878.5,-863.8314C878.5,-856.131 878.5,-846.9743 878.5,-838.4166"/>
<polygon fill="#000000" stroke="#000000" points="882.0001,-838.4132 878.5,-828.4133 875.0001,-838.4133 882.0001,-838.4132"/>
</g>
<!-- ENGR 121 -->
<g id="node10" class="node">
<title>ENGR 121</title>
<ellipse fill="none" stroke="#006400" cx="1613.5" cy="-882" rx="69.5877" ry="18"/>
<text text-anchor="middle" x="1613.5" y="-878.3" font-family="Times,serif" font-size="14.00" fill="#000000">ENGR 121 (2.0)</text>
</g>
<!-- ENGR 231 -->
<g id="node33" class="node">
<title>ENGR 231</title>
<ellipse fill="none" stroke="#006400" cx="1613.5" cy="-666" rx="69.5877" ry="18"/>
<text text-anchor="middle" x="1613.5" y="-662.3" font-family="Times,serif" font-size="14.00" fill="#000000">ENGR 231 (3.0)</text>
</g>
<!-- ENGR 121&#45;&gt;ENGR 231 -->
<g id="edge17" class="edge">
<title>ENGR 121&#45;&gt;ENGR 231</title>
<path fill="none" stroke="#000000" d="M1613.5,-863.9555C1613.5,-826.3938 1613.5,-739.5541 1613.5,-694.4103"/>
<polygon fill="#000000" stroke="#000000" points="1617.0001,-694.145 1613.5,-684.1451 1610.0001,-694.1451 1617.0001,-694.145"/>
</g>
<!-- MATH 121 -->
<g id="node11" class="node">
<title>MATH 121</title>
<ellipse fill="none" stroke="#006400" cx="488.5" cy="-882" rx="72.2875" ry="18"/>
<text text-anchor="middle" x="488.5" y="-878.3" font-family="Times,serif" font-size="14.00" fill="#000000">MATH 121 (4.0)</text>
</g>
<!-- MATH 122 -->
<g id="node19" class="node">
<title>MATH 122</title>
<ellipse fill="none" stroke="#006400" cx="488.5" cy="-810" rx="72.2875" ry="18"/>
<text text-anchor="middle" x="488.5" y="-806.3" font-family="Times,serif" font-size="14.00" fill="#000000">MATH 122 (4.0)</text>
</g>
<!-- MATH 121&#45;&gt;MATH 122 -->
<g id="edge6" class="edge">
<title>MATH 121&#45;&gt;MATH 122</title>
<path fill="none" stroke="#000000" d="M488.5,-863.8314C488.5,-856.131 488.5,-846.9743 488.5,-838.4166"/>
<polygon fill="#000000" stroke="#000000" points="492.0001,-838.4132 488.5,-828.4133 485.0001,-838.4133 492.0001,-838.4132"/>
</g>
<!-- UNIV 101 -->
<g id="node12" class="node">
<title>UNIV 101</title>
<ellipse fill="none" stroke="#006400" cx="1768.5" cy="-882" rx="67.6881" ry="18"/>
<text text-anchor="middle" x="1768.5" y="-878.3" font-family="Times,serif" font-size="14.00" fill="#000000">UNIV 101 (1.0)</text>
</g>
<!-- 1.3 -->
<g id="node21" class="node">
<title>1.3</title>
<text text-anchor="middle" x="37.5" y="-734.3" font-family="Times,serif" font-size="14.00" fill="#000000">1.3 (17.5)</text>
</g>
<!-- 1.2&#45;&gt;1.3 -->
<!-- CIVC 101 -->
<g id="node15" class="node">
<title>CIVC 101</title>
<ellipse fill="none" stroke="#006400" cx="1708.5" cy="-810" rx="66.8882" ry="18"/>
<text text-anchor="middle" x="1708.5" y="-806.3" font-family="Times,serif" font-size="14.00" fill="#000000">CIVC 101 (1.0)</text>
</g>
<!-- ENGL 103 -->
<g id="node24" class="node">
<title>ENGL 103</title>
<ellipse fill="none" stroke="#006400" cx="1093.5" cy="-738" rx="69.5877" ry="18"/>
<text text-anchor="middle" x="1093.5" y="-734.3" font-family="Times,serif" font-size="14.00" fill="#000000">ENGL 103 (3.0)</text>
</g>
<!-- ENGL 102&#45;&gt;ENGL 103 -->
<g id="edge9" class="edge">
<title>ENGL 102&#45;&gt;ENGL 103</title>
<path fill="none" stroke="#000000" d="M1093.5,-791.8314C1093.5,-784.131 1093.5,-774.9743 1093.5,-766.4166"/>
<polygon fill="#000000" stroke="#000000" points="1097.0001,-766.4132 1093.5,-756.4133 1090.0001,-766.4133 1097.0001,-766.4132"/>
</g>
<!-- ENGR 103 -->
<g id="node25" class="node">
<title>ENGR 103</title>
<ellipse fill="none" stroke="#006400" cx="878.5" cy="-738" rx="69.5877" ry="18"/>
<text text-anchor="middle" x="878.5" y="-734.3" font-family="Times,serif" font-size="14.00" fill="#000000">ENGR 103 (2.0)</text>
</g>
<!-- ENGR 102&#45;&gt;ENGR 103 -->
<g id="edge10" class="edge">
<title>ENGR 102&#45;&gt;ENGR 103</title>
<path fill="none" stroke="#000000" d="M878.5,-791.8314C878.5,-784.131 878.5,-774.9743 878.5,-766.4166"/>
<polygon fill="#000000" stroke="#000000" points="882.0001,-766.4132 878.5,-756.4133 875.0001,-766.4133 882.0001,-766.4132"/>
</g>
<!-- ENGR 122 -->
<g id="node18" class="node">
<title>ENGR 122</title>
<ellipse fill="none" stroke="#006400" cx="1862.5" cy="-810" rx="69.5877" ry="18"/>
<text text-anchor="middle" x="1862.5" y="-806.3" font-family="Times,serif" font-size="14.00" fill="#000000">ENGR 122 (1.0)</text>
</g>
<!-- MATH 200 -->
<g id="node26" class="node">
<title>MATH 200</title>
<ellipse fill="none" stroke="#006400" cx="488.5" cy="-738" rx="72.2875" ry="18"/>
<text text-anchor="middle" x="488.5" y="-734.3" font-family="Times,serif" font-size="14.00" fill="#000000">MATH 200 (4.0)</text>
</g>
<!-- MATH 122&#45;&gt;MATH 200 -->
<g id="edge11" class="edge">
<title>MATH 122&#45;&gt;MATH 200</title>
<path fill="none" stroke="#000000" d="M488.5,-791.8314C488.5,-784.131 488.5,-774.9743 488.5,-766.4166"/>
<polygon fill="#000000" stroke="#000000" points="492.0001,-766.4132 488.5,-756.4133 485.0001,-766.4133 492.0001,-766.4132"/>
</g>
<!-- MATH 122&#45;&gt;ENGR 220 -->
<g id="edge15" class="edge">
<title>MATH 122&#45;&gt;ENGR 220</title>
<path fill="none" stroke="#000000" d="M453.0146,-794.2362C436.7687,-785.2741 418.6854,-772.5112 407.5,-756 395.1637,-737.7898 390.6019,-713.1223 389.0199,-694.2172"/>
<polygon fill="#000000" stroke="#000000" points="392.5062,-693.8847 388.4067,-684.1152 385.5191,-694.3089 392.5062,-693.8847"/>
</g>
<!-- PHYS 201 -->
<g id="node53" class="node">
<title>PHYS 201</title>
<ellipse fill="none" stroke="#ffa500" cx="629.5" cy="-450" rx="68.4888" ry="18"/>
<text text-anchor="middle" x="629.5" y="-446.3" font-family="Times,serif" font-size="14.00" fill="#000000">PHYS 201 (4.0)</text>
</g>
<!-- MATH 122&#45;&gt;PHYS 201 -->
<g id="edge40" class="edge">
<title>MATH 122&#45;&gt;PHYS 201</title>
<path fill="none" stroke="#000000" d="M523.9854,-794.2362C540.2313,-785.2741 558.3146,-772.5112 569.5,-756 592.4289,-722.1537 588.5,-706.8816 588.5,-666 588.5,-666 588.5,-666 588.5,-594 588.5,-552.1463 604.7196,-505.9754 616.7556,-477.4754"/>
<polygon fill="#000000" stroke="#000000" points="620.025,-478.7337 620.805,-468.1676 613.6061,-475.9412 620.025,-478.7337"/>
</g>
<!-- PHYS 101 -->
<g id="node20" class="node">
<title>PHYS 101</title>
<ellipse fill="none" stroke="#006400" cx="684.5" cy="-810" rx="68.4888" ry="18"/>
<text text-anchor="middle" x="684.5" y="-806.3" font-family="Times,serif" font-size="14.00" fill="#000000">PHYS 101 (4.0)</text>
</g>
<!-- PHYS 102 -->
<g id="node27" class="node">
<title>PHYS 102</title>
<ellipse fill="none" stroke="#006400" cx="722.5" cy="-738" rx="68.4888" ry="18"/>
<text text-anchor="middle" x="722.5" y="-734.3" font-family="Times,serif" font-size="14.00" fill="#000000">PHYS 102 (4.0)</text>
</g>
<!-- PHYS 101&#45;&gt;PHYS 102 -->
<g id="edge12" class="edge">
<title>PHYS 101&#45;&gt;PHYS 102</title>
<path fill="none" stroke="#000000" d="M694.089,-791.8314C698.397,-783.6688 703.5686,-773.87 708.3119,-764.8827"/>
<polygon fill="#000000" stroke="#000000" points="711.4734,-766.3909 713.0457,-755.9134 705.2827,-763.1236 711.4734,-766.3909"/>
</g>
<!-- PHYS 101&#45;&gt;ENGR 220 -->
<g id="edge16" class="edge">
<title>PHYS 101&#45;&gt;ENGR 220</title>
<path fill="none" stroke="#000000" d="M666.4891,-792.339C645.0401,-772.2035 607.3382,-739.5545 569.5,-720 533.1521,-701.2157 489.24,-687.9144 453.771,-679.2136"/>
<polygon fill="#000000" stroke="#000000" points="454.5437,-675.7998 444.0042,-676.8808 452.9174,-682.6083 454.5437,-675.7998"/>
</g>
<!-- 2.1 -->
<g id="node28" class="node">
<title>2.1</title>
<text text-anchor="middle" x="37.5" y="-662.3" font-family="Times,serif" font-size="14.00" fill="#000000">2.1 (20.0)</text>
</g>
<!-- 1.3&#45;&gt;2.1 -->
<!-- COOP 101 -->
<g id="node23" class="node">
<title>COOP 101</title>
<ellipse fill="none" stroke="#006400" cx="1703.5" cy="-738" rx="62.2891" ry="18"/>
<text text-anchor="middle" x="1703.5" y="-734.3" font-family="Times,serif" font-size="14.00" fill="#000000">COOP 101 (0)</text>
</g>
<!-- ECES 301 -->
<g id="node46" class="node">
<title>ECES 301</title>
<ellipse fill="none" stroke="#0000ff" cx="914.5" cy="-522" rx="67.6881" ry="18"/>
<text text-anchor="middle" x="914.5" y="-518.3" font-family="Times,serif" font-size="14.00" fill="#000000">ECES 301 (4.0)</text>
</g>
<!-- ENGR 103&#45;&gt;ECES 301 -->
<g id="edge31" class="edge">
<title>ENGR 103&#45;&gt;ECES 301</title>
<path fill="none" stroke="#000000" d="M881.5074,-719.9555C887.7809,-682.3144 902.3022,-595.1867 909.8126,-550.1246"/>
<polygon fill="#000000" stroke="#000000" points="913.2841,-550.5844 911.4758,-540.1451 906.3794,-549.4336 913.2841,-550.5844"/>
</g>
<!-- ECE 303 -->
<g id="node49" class="node">
<title>ECE 303</title>
<ellipse fill="none" stroke="#ffa500" cx="795.5" cy="-450" rx="62.2891" ry="18"/>
<text text-anchor="middle" x="795.5" y="-446.3" font-family="Times,serif" font-size="14.00" fill="#000000">ECE 303 (3.0)</text>
</g>
<!-- ENGR 103&#45;&gt;ECE 303 -->
<g id="edge35" class="edge">
<title>ENGR 103&#45;&gt;ECE 303</title>
<path fill="none" stroke="#000000" d="M873.308,-719.9843C859.2466,-671.1929 820.3532,-536.2377 803.4809,-477.6927"/>
<polygon fill="#000000" stroke="#000000" points="806.8225,-476.6485 800.6901,-468.0089 800.0962,-478.5871 806.8225,-476.6485"/>
</g>
<!-- ECE 201 -->
<g id="node36" class="node">
<title>ECE 201</title>
<ellipse fill="none" stroke="#006400" cx="728.5" cy="-594" rx="62.2891" ry="18"/>
<text text-anchor="middle" x="728.5" y="-590.3" font-family="Times,serif" font-size="14.00" fill="#000000">ECE 201 (4.0)</text>
</g>
<!-- PHYS 102&#45;&gt;ECE 201 -->
<g id="edge19" class="edge">
<title>PHYS 102&#45;&gt;ECE 201</title>
<path fill="none" stroke="#000000" d="M723.2599,-719.7623C724.2833,-695.201 726.1147,-651.2474 727.3186,-622.3541"/>
<polygon fill="#000000" stroke="#000000" points="730.8268,-622.2267 727.7463,-612.0896 723.8329,-621.9352 730.8268,-622.2267"/>
</g>
<!-- PHYS 102&#45;&gt;PHYS 201 -->
<g id="edge39" class="edge">
<title>PHYS 102&#45;&gt;PHYS 201</title>
<path fill="none" stroke="#000000" d="M710.9585,-719.9969C696.2557,-696.221 671.1231,-652.6044 657.5,-612 642.3286,-566.7808 635.033,-511.5674 631.7957,-478.6759"/>
<polygon fill="#000000" stroke="#000000" points="635.2537,-478.0592 630.8479,-468.4239 628.2834,-478.7036 635.2537,-478.0592"/>
</g>
<!-- 2.2 -->
<g id="node35" class="node">
<title>2.2</title>
<text text-anchor="middle" x="37.5" y="-590.3" font-family="Times,serif" font-size="14.00" fill="#000000">2.2 (16.0)</text>
</g>
<!-- 2.1&#45;&gt;2.2 -->
<!-- ECE 200 -->
<g id="node29" class="node">
<title>ECE 200</title>
<ellipse fill="none" stroke="#006400" cx="1066.5" cy="-666" rx="62.2891" ry="18"/>
<text text-anchor="middle" x="1066.5" y="-662.3" font-family="Times,serif" font-size="14.00" fill="#000000">ECE 200 (4.0)</text>
</g>
<!-- MATH 221 -->
<g id="node40" class="node">
<title>MATH 221</title>
<ellipse fill="none" stroke="#006400" cx="1016.5" cy="-594" rx="72.2875" ry="18"/>
<text text-anchor="middle" x="1016.5" y="-590.3" font-family="Times,serif" font-size="14.00" fill="#000000">MATH 221 (3.0)</text>
</g>
<!-- ECE 200&#45;&gt;MATH 221 -->
<g id="edge23" class="edge">
<title>ECE 200&#45;&gt;MATH 221</title>
<path fill="none" stroke="#000000" d="M1054.1404,-648.2022C1048.2509,-639.7214 1041.0913,-629.4115 1034.6039,-620.0696"/>
<polygon fill="#000000" stroke="#000000" points="1037.4695,-618.0599 1028.8907,-611.8425 1031.7199,-622.0527 1037.4695,-618.0599"/>
</g>
<!-- ECEC 302 -->
<g id="node44" class="node">
<title>ECEC 302</title>
<ellipse fill="none" stroke="#0000ff" cx="1095.5" cy="-522" rx="68.4888" ry="18"/>
<text text-anchor="middle" x="1095.5" y="-518.3" font-family="Times,serif" font-size="14.00" fill="#000000">ECEC 302 (3.0)</text>
</g>
<!-- ECE 200&#45;&gt;ECEC 302 -->
<g id="edge27" class="edge">
<title>ECE 200&#45;&gt;ECEC 302</title>
<path fill="none" stroke="#000000" d="M1079.9719,-648.0653C1086.6655,-638.0261 1094.0466,-624.9519 1097.5,-612 1102.8602,-591.8964 1102.1048,-568.3635 1100.1447,-550.4043"/>
<polygon fill="#000000" stroke="#000000" points="1103.5907,-549.7586 1098.8507,-540.2832 1096.6472,-550.6464 1103.5907,-549.7586"/>
</g>
<!-- ECE 200&#45;&gt;ECES 301 -->
<g id="edge29" class="edge">
<title>ECE 200&#45;&gt;ECES 301</title>
<path fill="none" stroke="#000000" d="M1013.6883,-656.2722C986.6086,-648.637 955.2561,-635.2413 935.5,-612 920.9452,-594.8776 916.0307,-569.5506 914.5645,-550.1223"/>
<polygon fill="#000000" stroke="#000000" points="918.055,-549.8401 914.0654,-540.0252 911.0635,-550.1858 918.055,-549.8401"/>
</g>
<!-- ECEC 204 -->
<g id="node50" class="node">
<title>ECEC 204</title>
<ellipse fill="none" stroke="#ffa500" cx="1191.5" cy="-450" rx="68.4888" ry="18"/>
<text text-anchor="middle" x="1191.5" y="-446.3" font-family="Times,serif" font-size="14.00" fill="#000000">ECEC 204 (3.0)</text>
</g>
<!-- ECE 200&#45;&gt;ECEC 204 -->
<g id="edge36" class="edge">
<title>ECE 200&#45;&gt;ECEC 204</title>
<path fill="none" stroke="#000000" d="M1086.4395,-648.5526C1110.8161,-626.0293 1151.4199,-584.4204 1172.5,-540 1181.7718,-520.4623 1186.551,-496.4103 1188.9961,-478.0873"/>
<polygon fill="#000000" stroke="#000000" points="1192.4858,-478.3798 1190.1824,-468.0384 1185.5341,-477.5591 1192.4858,-478.3798"/>
</g>
<!-- ECE 203 -->
<g id="node30" class="node">
<title>ECE 203</title>
<ellipse fill="none" stroke="#006400" cx="1334.5" cy="-666" rx="62.2891" ry="18"/>
<text text-anchor="middle" x="1334.5" y="-662.3" font-family="Times,serif" font-size="14.00" fill="#000000">ECE 203 (3.0)</text>
</g>
<!-- ECEC 201 -->
<g id="node37" class="node">
<title>ECEC 201</title>
<ellipse fill="none" stroke="#006400" cx="1334.5" cy="-594" rx="68.4888" ry="18"/>
<text text-anchor="middle" x="1334.5" y="-590.3" font-family="Times,serif" font-size="14.00" fill="#000000">ECEC 201 (3.0)</text>
</g>
<!-- ECE 203&#45;&gt;ECEC 201 -->
<g id="edge20" class="edge">
<title>ECE 203&#45;&gt;ECEC 201</title>
<path fill="none" stroke="#000000" d="M1334.5,-647.8314C1334.5,-640.131 1334.5,-630.9743 1334.5,-622.4166"/>
<polygon fill="#000000" stroke="#000000" points="1338.0001,-622.4132 1334.5,-612.4133 1331.0001,-622.4133 1338.0001,-622.4132"/>
</g>
<!-- ECE 203&#45;&gt;ECEC 302 -->
<g id="edge26" class="edge">
<title>ECE 203&#45;&gt;ECEC 302</title>
<path fill="none" stroke="#000000" d="M1307.5482,-649.7613C1264.4509,-623.7947 1179.9736,-572.8962 1131.6691,-543.7922"/>
<polygon fill="#000000" stroke="#000000" points="1133.4604,-540.7853 1123.0886,-538.6224 1129.8478,-546.7812 1133.4604,-540.7853"/>
</g>
<!-- ECEC 357 -->
<g id="node45" class="node">
<title>ECEC 357</title>
<ellipse fill="none" stroke="#0000ff" cx="1515.5" cy="-522" rx="68.4888" ry="18"/>
<text text-anchor="middle" x="1515.5" y="-518.3" font-family="Times,serif" font-size="14.00" fill="#000000">ECEC 357 (3.0)</text>
</g>
<!-- ECE 203&#45;&gt;ECEC 357 -->
<g id="edge28" class="edge">
<title>ECE 203&#45;&gt;ECEC 357</title>
<path fill="none" stroke="#000000" d="M1359.584,-649.3589C1374.8675,-638.9879 1394.6351,-625.156 1411.5,-612 1438.7114,-590.7728 1468.3475,-564.8264 1488.9964,-546.256"/>
<polygon fill="#000000" stroke="#000000" points="1491.3727,-548.826 1496.4465,-539.525 1486.68,-543.6319 1491.3727,-548.826"/>
</g>
<!-- ENGR 201 -->
<g id="node31" class="node">
<title>ENGR 201</title>
<ellipse fill="none" stroke="#006400" cx="1770.5" cy="-666" rx="69.5877" ry="18"/>
<text text-anchor="middle" x="1770.5" y="-662.3" font-family="Times,serif" font-size="14.00" fill="#000000">ENGR 201 (3.0)</text>
</g>
<!-- ENGR 202 -->
<g id="node38" class="node">
<title>ENGR 202</title>
<ellipse fill="none" stroke="#006400" cx="1770.5" cy="-594" rx="69.5877" ry="18"/>
<text text-anchor="middle" x="1770.5" y="-590.3" font-family="Times,serif" font-size="14.00" fill="#000000">ENGR 202 (3.0)</text>
</g>
<!-- ENGR 201&#45;&gt;ENGR 202 -->
<g id="edge21" class="edge">
<title>ENGR 201&#45;&gt;ENGR 202</title>
<path fill="none" stroke="#000000" d="M1770.5,-647.8314C1770.5,-640.131 1770.5,-630.9743 1770.5,-622.4166"/>
<polygon fill="#000000" stroke="#000000" points="1774.0001,-622.4132 1770.5,-612.4133 1767.0001,-622.4133 1774.0001,-622.4132"/>
</g>
<!-- ENGR 232 -->
<g id="node39" class="node">
<title>ENGR 232</title>
<ellipse fill="none" stroke="#006400" cx="1613.5" cy="-594" rx="69.5877" ry="18"/>
<text text-anchor="middle" x="1613.5" y="-590.3" font-family="Times,serif" font-size="14.00" fill="#000000">ENGR 232 (3.0)</text>
</g>
<!-- ENGR 231&#45;&gt;ENGR 232 -->
<g id="edge22" class="edge">
<title>ENGR 231&#45;&gt;ENGR 232</title>
<path fill="none" stroke="#000000" d="M1613.5,-647.8314C1613.5,-640.131 1613.5,-630.9743 1613.5,-622.4166"/>
<polygon fill="#000000" stroke="#000000" points="1617.0001,-622.4132 1613.5,-612.4133 1610.0001,-622.4133 1617.0001,-622.4132"/>
</g>
<!-- PHIL 111 -->
<g id="node34" class="node">
<title>PHIL 111</title>
<ellipse fill="none" stroke="#006400" cx="1923.5" cy="-666" rx="65.7887" ry="18"/>
<text text-anchor="middle" x="1923.5" y="-662.3" font-family="Times,serif" font-size="14.00" fill="#000000">PHIL 111 (3.0)</text>
</g>
<!-- PHIL 207 -->
<g id="node59" class="node">
<title>PHIL 207</title>
<ellipse fill="none" stroke="#ffa500" cx="1923.5" cy="-378" rx="65.7887" ry="18"/>
<text text-anchor="middle" x="1923.5" y="-374.3" font-family="Times,serif" font-size="14.00" fill="#000000">PHIL 207 (3.0)</text>
</g>
<!-- PHIL 111&#45;&gt;PHIL 207 -->
<g id="edge46" class="edge">
<title>PHIL 111&#45;&gt;PHIL 207</title>
<path fill="none" stroke="#000000" d="M1923.5,-647.9843C1923.5,-599.2939 1923.5,-464.7961 1923.5,-406.0573"/>
<polygon fill="#000000" stroke="#000000" points="1927.0001,-406.0088 1923.5,-396.0089 1920.0001,-406.0089 1927.0001,-406.0088"/>
</g>
<!-- 3.1 -->
<g id="node41" class="node">
<title>3.1</title>
<text text-anchor="middle" x="37.5" y="-518.3" font-family="Times,serif" font-size="14.00" fill="#000000">3.1 (17.0)</text>
</g>
<!-- 2.2&#45;&gt;3.1 -->
<!-- ECE 201&#45;&gt;ECES 301 -->
<g id="edge30" class="edge">
<title>ECE 201&#45;&gt;ECES 301</title>
<path fill="none" stroke="#000000" d="M766.1399,-579.4297C795.0961,-568.2209 835.31,-552.6542 866.5667,-540.5548"/>
<polygon fill="#000000" stroke="#000000" points="867.895,-543.7938 875.9572,-536.9198 865.368,-537.2658 867.895,-543.7938"/>
</g>
<!-- ECE 201&#45;&gt;ECE 303 -->
<g id="edge34" class="edge">
<title>ECE 201&#45;&gt;ECE 303</title>
<path fill="none" stroke="#000000" d="M736.8501,-576.0535C748.3851,-551.2618 769.2952,-506.3207 782.7803,-477.3378"/>
<polygon fill="#000000" stroke="#000000" points="785.9994,-478.7159 787.0446,-468.1727 779.6527,-475.7629 785.9994,-478.7159"/>
</g>
<!-- CS 265 -->
<g id="node42" class="node">
<title>CS 265</title>
<ellipse fill="none" stroke="#0000ff" cx="1334.5" cy="-522" rx="56.59" ry="18"/>
<text text-anchor="middle" x="1334.5" y="-518.3" font-family="Times,serif" font-size="14.00" fill="#000000">CS 265 (3.0)</text>
</g>
<!-- ECEC 201&#45;&gt;CS 265 -->
<g id="edge25" class="edge">
<title>ECEC 201&#45;&gt;CS 265</title>
<path fill="none" stroke="#000000" d="M1334.5,-575.8314C1334.5,-568.131 1334.5,-558.9743 1334.5,-550.4166"/>
<polygon fill="#000000" stroke="#000000" points="1338.0001,-550.4132 1334.5,-540.4133 1331.0001,-550.4133 1338.0001,-550.4132"/>
</g>
<!-- ECEC 201&#45;&gt;ECEC 204 -->
<g id="edge37" class="edge">
<title>ECEC 201&#45;&gt;ECEC 204</title>
<path fill="none" stroke="#000000" d="M1311.6597,-576.9388C1298.5463,-566.7518 1282.0463,-553.2518 1268.5,-540 1247.7223,-519.6741 1226.4143,-494.3555 1211.4961,-475.7546"/>
<polygon fill="#000000" stroke="#000000" points="1214.0769,-473.3764 1205.1164,-467.723 1208.5956,-477.7303 1214.0769,-473.3764"/>
</g>
<!-- ECEC 353 -->
<g id="node57" class="node">
<title>ECEC 353</title>
<ellipse fill="none" stroke="#ffa500" cx="1419.5" cy="-378" rx="68.4888" ry="18"/>
<text text-anchor="middle" x="1419.5" y="-374.3" font-family="Times,serif" font-size="14.00" fill="#000000">ECEC 353 (3.0)</text>
</g>
<!-- ECEC 201&#45;&gt;ECEC 353 -->
<g id="edge44" class="edge">
<title>ECEC 201&#45;&gt;ECEC 353</title>
<path fill="none" stroke="#000000" d="M1363.3662,-577.6661C1376.9333,-568.4224 1391.9684,-555.5832 1400.5,-540 1423.5692,-497.8632 1424.4076,-440.4342 1422.348,-406.4829"/>
<polygon fill="#000000" stroke="#000000" points="1425.8257,-406.0504 1421.602,-396.3339 1418.8446,-406.5636 1425.8257,-406.0504"/>
</g>
<!-- 3.2 -->
<g id="node47" class="node">
<title>3.2</title>
<text text-anchor="middle" x="37.5" y="-446.3" font-family="Times,serif" font-size="14.00" fill="#000000">3.2 (19.0)</text>
</g>
<!-- 3.1&#45;&gt;3.2 -->
<!-- CS 260 -->
<g id="node48" class="node">
<title>CS 260</title>
<ellipse fill="none" stroke="#ffa500" cx="1334.5" cy="-450" rx="56.59" ry="18"/>
<text text-anchor="middle" x="1334.5" y="-446.3" font-family="Times,serif" font-size="14.00" fill="#000000">CS 260 (3.0)</text>
</g>
<!-- CS 265&#45;&gt;CS 260 -->
<g id="edge33" class="edge">
<title>CS 265&#45;&gt;CS 260</title>
<path fill="none" stroke="#000000" d="M1334.5,-503.8314C1334.5,-496.131 1334.5,-486.9743 1334.5,-478.4166"/>
<polygon fill="#000000" stroke="#000000" points="1338.0001,-478.4132 1334.5,-468.4133 1331.0001,-478.4133 1338.0001,-478.4132"/>
</g>
<!-- ECE 361 -->
<g id="node43" class="node">
<title>ECE 361</title>
<ellipse fill="none" stroke="#0000ff" cx="2017.5" cy="-522" rx="62.2891" ry="18"/>
<text text-anchor="middle" x="2017.5" y="-518.3" font-family="Times,serif" font-size="14.00" fill="#000000">ECE 361 (4.0)</text>
</g>
<!-- ECE 491 -->
<g id="node65" class="node">
<title>ECE 491</title>
<ellipse fill="none" stroke="#ffa500" cx="2062.5" cy="-234" rx="62.2891" ry="18"/>
<text text-anchor="middle" x="2062.5" y="-230.3" font-family="Times,serif" font-size="14.00" fill="#000000">ECE 491 (2.0)</text>
</g>
<!-- ECE 361&#45;&gt;ECE 491 -->
<g id="edge53" class="edge">
<title>ECE 361&#45;&gt;ECE 491</title>
<path fill="none" stroke="#000000" d="M2019.1012,-503.9499C2021.8775,-473.9547 2028.1022,-411.9973 2036.5,-360 2041.9531,-326.2357 2050.1849,-287.7834 2055.9203,-262.3314"/>
<polygon fill="#000000" stroke="#000000" points="2059.4035,-262.7983 2058.2101,-252.2708 2052.578,-261.2447 2059.4035,-262.7983"/>
</g>
<!-- ECEC 355 -->
<g id="node51" class="node">
<title>ECEC 355</title>
<ellipse fill="none" stroke="#ffa500" cx="1037.5" cy="-450" rx="68.4888" ry="18"/>
<text text-anchor="middle" x="1037.5" y="-446.3" font-family="Times,serif" font-size="14.00" fill="#000000">ECEC 355 (3.0)</text>
</g>
<!-- ECEC 302&#45;&gt;ECEC 355 -->
<g id="edge38" class="edge">
<title>ECEC 302&#45;&gt;ECEC 355</title>
<path fill="none" stroke="#000000" d="M1081.1629,-504.2022C1074.2614,-495.6348 1065.8563,-485.2009 1058.2704,-475.7839"/>
<polygon fill="#000000" stroke="#000000" points="1060.8721,-473.4344 1051.8732,-467.8425 1055.4208,-477.8258 1060.8721,-473.4344"/>
</g>
<!-- 4.1 -->
<g id="node54" class="node">
<title>4.1</title>
<text text-anchor="middle" x="37.5" y="-374.3" font-family="Times,serif" font-size="14.00" fill="#000000">4.1 (13.0)</text>
</g>
<!-- 3.2&#45;&gt;4.1 -->
<!-- CS 361 -->
<g id="node55" class="node">
<title>CS 361</title>
<ellipse fill="none" stroke="#ffa500" cx="1199.5" cy="-378" rx="56.59" ry="18"/>
<text text-anchor="middle" x="1199.5" y="-374.3" font-family="Times,serif" font-size="14.00" fill="#000000">CS 361 (3.0)</text>
</g>
<!-- CS 260&#45;&gt;CS 361 -->
<g id="edge42" class="edge">
<title>CS 260&#45;&gt;CS 361</title>
<path fill="none" stroke="#000000" d="M1305.207,-434.3771C1285.3935,-423.8099 1259.0312,-409.75 1237.5901,-398.3147"/>
<polygon fill="#000000" stroke="#000000" points="1239.2064,-395.2101 1228.7358,-393.5924 1235.9123,-401.3866 1239.2064,-395.2101"/>
</g>
<!-- ECEC 355&#45;&gt;CS 361 -->
<g id="edge43" class="edge">
<title>ECEC 355&#45;&gt;CS 361</title>
<path fill="none" stroke="#000000" d="M1072.6516,-434.3771C1097.4325,-423.3633 1130.7503,-408.5554 1157.021,-396.8796"/>
<polygon fill="#000000" stroke="#000000" points="1158.6354,-399.9922 1166.352,-392.7325 1155.7923,-393.5956 1158.6354,-399.9922"/>
</g>
<!-- ECEC 413 -->
<g id="node58" class="node">
<title>ECEC 413</title>
<ellipse fill="none" stroke="#ffa500" cx="979.5" cy="-378" rx="68.4888" ry="18"/>
<text text-anchor="middle" x="979.5" y="-374.3" font-family="Times,serif" font-size="14.00" fill="#000000">ECEC 413 (3.0)</text>
</g>
<!-- ECEC 355&#45;&gt;ECEC 413 -->
<g id="edge45" class="edge">
<title>ECEC 355&#45;&gt;ECEC 413</title>
<path fill="none" stroke="#000000" d="M1023.1629,-432.2022C1016.2614,-423.6348 1007.8563,-413.2009 1000.2704,-403.7839"/>
<polygon fill="#000000" stroke="#000000" points="1002.8721,-401.4344 993.8732,-395.8425 997.4208,-405.8258 1002.8721,-401.4344"/>
</g>
<!-- ECEC 414 -->
<g id="node63" class="node">
<title>ECEC 414</title>
<ellipse fill="none" stroke="#ffa500" cx="1075.5" cy="-306" rx="68.4888" ry="18"/>
<text text-anchor="middle" x="1075.5" y="-302.3" font-family="Times,serif" font-size="14.00" fill="#000000">ECEC 414 (3.0)</text>
</g>
<!-- ECEC 355&#45;&gt;ECEC 414 -->
<g id="edge50" class="edge">
<title>ECEC 355&#45;&gt;ECEC 414</title>
<path fill="none" stroke="#000000" d="M1044.6089,-431.6955C1048.4659,-421.3278 1053.1214,-408.058 1056.5,-396 1062.2358,-375.5291 1067.1442,-352.0109 1070.5345,-334.1505"/>
<polygon fill="#000000" stroke="#000000" points="1074.0168,-334.5672 1072.3966,-324.097 1067.1339,-333.2923 1074.0168,-334.5672"/>
</g>
<!-- PHIL 315 -->
<g id="node52" class="node">
<title>PHIL 315</title>
<ellipse fill="none" stroke="#ffa500" cx="2111.5" cy="-450" rx="65.7887" ry="18"/>
<text text-anchor="middle" x="2111.5" y="-446.3" font-family="Times,serif" font-size="14.00" fill="#000000">PHIL 315 (3.0)</text>
</g>
<!-- 4.2 -->
<g id="node60" class="node">
<title>4.2</title>
<text text-anchor="middle" x="37.5" y="-302.3" font-family="Times,serif" font-size="14.00" fill="#000000">4.2 (9.0)</text>
</g>
<!-- 4.1&#45;&gt;4.2 -->
<!-- ECE 391 -->
<g id="node56" class="node">
<title>ECE 391</title>
<ellipse fill="none" stroke="#ffa500" cx="2107.5" cy="-378" rx="62.2891" ry="18"/>
<text text-anchor="middle" x="2107.5" y="-374.3" font-family="Times,serif" font-size="14.00" fill="#000000">ECE 391 (1.0)</text>
</g>
<!-- ECE 391&#45;&gt;ECE 491 -->
<g id="edge52" class="edge">
<title>ECE 391&#45;&gt;ECE 491</title>
<path fill="none" stroke="#000000" d="M2101.8917,-360.0535C2094.2117,-335.4774 2080.344,-291.1008 2071.2804,-262.0974"/>
<polygon fill="#000000" stroke="#000000" points="2074.5025,-260.6735 2068.179,-252.1727 2067.8211,-262.7615 2074.5025,-260.6735"/>
</g>
<!-- CS 370 -->
<g id="node61" class="node">
<title>CS 370</title>
<ellipse fill="none" stroke="#ffa500" cx="1484.5" cy="-306" rx="56.59" ry="18"/>
<text text-anchor="middle" x="1484.5" y="-302.3" font-family="Times,serif" font-size="14.00" fill="#000000">CS 370 (3.0)</text>
</g>
<!-- ECEC 353&#45;&gt;CS 370 -->
<g id="edge48" class="edge">
<title>ECEC 353&#45;&gt;CS 370</title>
<path fill="none" stroke="#000000" d="M1435.5674,-360.2022C1443.5768,-351.3303 1453.3931,-340.4569 1462.1258,-330.7837"/>
<polygon fill="#000000" stroke="#000000" points="1464.7386,-333.1127 1468.8417,-323.3446 1459.5427,-328.4219 1464.7386,-333.1127"/>
</g>
<!-- CS 377 -->
<g id="node62" class="node">
<title>CS 377</title>
<ellipse fill="none" stroke="#ffa500" cx="1353.5" cy="-306" rx="56.59" ry="18"/>
<text text-anchor="middle" x="1353.5" y="-302.3" font-family="Times,serif" font-size="14.00" fill="#000000">CS 377 (3.0)</text>
</g>
<!-- ECEC 353&#45;&gt;CS 377 -->
<g id="edge49" class="edge">
<title>ECEC 353&#45;&gt;CS 377</title>
<path fill="none" stroke="#000000" d="M1403.1854,-360.2022C1395.0528,-351.3303 1385.0855,-340.4569 1376.2184,-330.7837"/>
<polygon fill="#000000" stroke="#000000" points="1378.7365,-328.3511 1369.3992,-323.3446 1373.5764,-333.0812 1378.7365,-328.3511"/>
</g>
<!-- 5.1 -->
<g id="node64" class="node">
<title>5.1</title>
<text text-anchor="middle" x="37.5" y="-230.3" font-family="Times,serif" font-size="14.00" fill="#000000">5.1 (2.0)</text>
</g>
<!-- 4.2&#45;&gt;5.1 -->
<!-- 5.2 -->
<g id="node66" class="node">
<title>5.2</title>
<text text-anchor="middle" x="37.5" y="-158.3" font-family="Times,serif" font-size="14.00" fill="#000000">5.2 (2.0)</text>
</g>
<!-- 5.1&#45;&gt;5.2 -->
<!-- ECE 492 -->
<g id="node67" class="node">
<title>ECE 492</title>
<ellipse fill="none" stroke="#ffa500" cx="2062.5" cy="-162" rx="62.2891" ry="18"/>
<text text-anchor="middle" x="2062.5" y="-158.3" font-family="Times,serif" font-size="14.00" fill="#000000">ECE 492 (2.0)</text>
</g>
<!-- ECE 491&#45;&gt;ECE 492 -->
<g id="edge55" class="edge">
<title>ECE 491&#45;&gt;ECE 492</title>
<path fill="none" stroke="#000000" d="M2062.5,-215.8314C2062.5,-208.131 2062.5,-198.9743 2062.5,-190.4166"/>
<polygon fill="#000000" stroke="#000000" points="2066.0001,-190.4132 2062.5,-180.4133 2059.0001,-190.4133 2066.0001,-190.4132"/>
</g>
<!-- 5.3 -->
<g id="node68" class="node">
<title>5.3</title>
<text text-anchor="middle" x="37.5" y="-86.3" font-family="Times,serif" font-size="14.00" fill="#000000">5.3 (4.0)</text>
</g>
<!-- 5.2&#45;&gt;5.3 -->
<!-- ECE 493 -->
<g id="node69" class="node">
<title>ECE 493</title>
<ellipse fill="none" stroke="#ffa500" cx="2062.5" cy="-90" rx="62.2891" ry="18"/>
<text text-anchor="middle" x="2062.5" y="-86.3" font-family="Times,serif" font-size="14.00" fill="#000000">ECE 493 (4.0)</text>
</g>
<!-- ECE 492&#45;&gt;ECE 493 -->
<g id="edge57" class="edge">
<title>ECE 492&#45;&gt;ECE 493</title>
<path fill="none" stroke="#000000" d="M2062.5,-143.8314C2062.5,-136.131 2062.5,-126.9743 2062.5,-118.4166"/>
<polygon fill="#000000" stroke="#000000" points="2066.0001,-118.4132 2062.5,-108.4133 2059.0001,-118.4133 2066.0001,-118.4132"/>
</g>
<!-- &#45;1.0 -->
<g id="node70" class="node">
<title>&#45;1.0</title>
<text text-anchor="middle" x="37.5" y="-14.3" font-family="Times,serif" font-size="14.00" fill="#000000">&#45;1.0 (17.0)</text>
</g>
<!-- 5.3&#45;&gt;&#45;1.0 -->
<!-- TEMP GenEd -->
<g id="node71" class="node">
<title>TEMP GenEd</title>
<ellipse fill="none" stroke="#ff0000" cx="174.5" cy="-18" rx="81.4863" ry="18"/>
<text text-anchor="middle" x="174.5" y="-14.3" font-family="Times,serif" font-size="14.00" fill="#000000">TEMP GenEd (8.0)</text>
</g>
<!-- TEMP ECEC 400 -->
<g id="node72" class="node">
<title>TEMP ECEC 400</title>
<ellipse fill="none" stroke="#ff0000" cx="368.5" cy="-18" rx="94.7833" ry="18"/>
<text text-anchor="middle" x="368.5" y="-14.3" font-family="Times,serif" font-size="14.00" fill="#000000">TEMP ECEC 400 (3.0)</text>
</g>
<!-- TEMP COE -->
<g id="node73" class="node">
<title>TEMP COE</title>
<ellipse fill="none" stroke="#ff0000" cx="555.5" cy="-18" rx="74.187" ry="18"/>
<text text-anchor="middle" x="555.5" y="-14.3" font-family="Times,serif" font-size="14.00" fill="#000000">TEMP COE (6.0)</text>
</g>
</g>
</svg>
