<?xml version="1.0" encoding="UTF-8" standalone="no"?>
<!DOCTYPE svg PUBLIC "-//W3C//DTD SVG 1.1//EN"
 "http://www.w3.org/Graphics/SVG/1.1/DTD/svg11.dtd">
<!-- Generated by graphviz version 2.40.1 (20161225.0304)
 -->
<!-- Title: Classes Pages: 1 -->
<svg width="2542pt" height="980pt"
 viewBox="0.00 0.00 2541.59 980.00" xmlns="http://www.w3.org/2000/svg" xmlns:xlink="http://www.w3.org/1999/xlink">
<g id="graph0" class="graph" transform="scale(1 1) rotate(0) translate(4 976)">
<title>Classes</title>
<polygon fill="#ffffff" stroke="transparent" points="-4,4 -4,-976 2537.5928,-976 2537.5928,4 -4,4"/>
<!-- 0.0 -->
<g id="node1" class="node">
<title>0.0</title>
<text text-anchor="middle" x="45" y="-950.3" font-family="Times,serif" font-size="14.00" fill="#000000">0.0 (11.0)</text>
</g>
<!-- 1.1 -->
<g id="node5" class="node">
<title>1.1</title>
<text text-anchor="middle" x="45" y="-878.3" font-family="Times,serif" font-size="14.00" fill="#000000">1.1 (16.5)</text>
</g>
<!-- 0.0&#45;&gt;1.1 -->
<!-- CS 190 -->
<g id="node2" class="node">
<title>CS 190</title>
<ellipse fill="none" stroke="#006400" cx="176" cy="-954" rx="69.5877" ry="18"/>
<text text-anchor="middle" x="176" y="-950.3" font-family="Times,serif" font-size="14.00" fill="#000000">CS 190 (3.0)</text>
</g>
<!-- SPAN 101 -->
<g id="node3" class="node">
<title>SPAN 101</title>
<ellipse fill="none" stroke="#006400" cx="346" cy="-954" rx="82.5854" ry="18"/>
<text text-anchor="middle" x="346" y="-950.3" font-family="Times,serif" font-size="14.00" fill="#000000">SPAN 101 (4.0)</text>
</g>
<!-- TGFE 099 -->
<g id="node4" class="node">
<title>TGFE 099</title>
<ellipse fill="none" stroke="#006400" cx="529" cy="-954" rx="82.5854" ry="18"/>
<text text-anchor="middle" x="529" y="-950.3" font-family="Times,serif" font-size="14.00" fill="#000000">TGFE 099 (4.0)</text>
</g>
<!-- 1.2 -->
<g id="node13" class="node">
<title>1.2</title>
<text text-anchor="middle" x="45" y="-806.3" font-family="Times,serif" font-size="14.00" fill="#000000">1.2 (19.5)</text>
</g>
<!-- 1.1&#45;&gt;1.2 -->
<!-- CHEM 101 -->
<g id="node6" class="node">
<title>CHEM 101</title>
<ellipse fill="none" stroke="#006400" cx="308" cy="-882" rx="87.1846" ry="18"/>
<text text-anchor="middle" x="308" y="-878.3" font-family="Times,serif" font-size="14.00" fill="#000000">CHEM 101 (3.5)</text>
</g>
<!-- CHEM 102 -->
<g id="node14" class="node">
<title>CHEM 102</title>
<ellipse fill="none" stroke="#006400" cx="193" cy="-810" rx="87.1846" ry="18"/>
<text text-anchor="middle" x="193" y="-806.3" font-family="Times,serif" font-size="14.00" fill="#000000">CHEM 102 (4.5)</text>
</g>
<!-- CHEM 101&#45;&gt;CHEM 102 -->
<g id="edge3" class="edge">
<title>CHEM 101&#45;&gt;CHEM 102</title>
<path fill="none" stroke="#000000" d="M280.4546,-864.7542C265.0925,-855.1362 245.7727,-843.0403 229.2015,-832.6653"/>
<polygon fill="#000000" stroke="#000000" points="230.6538,-829.4452 220.3206,-827.1051 226.9391,-835.3783 230.6538,-829.4452"/>
</g>
<!-- BIO 141 -->
<g id="node22" class="node">
<title>BIO 141</title>
<ellipse fill="none" stroke="#006400" cx="308" cy="-738" rx="74.187" ry="18"/>
<text text-anchor="middle" x="308" y="-734.3" font-family="Times,serif" font-size="14.00" fill="#000000">BIO 141 (4.5)</text>
</g>
<!-- CHEM 101&#45;&gt;BIO 141 -->
<g id="edge8" class="edge">
<title>CHEM 101&#45;&gt;BIO 141</title>
<path fill="none" stroke="#000000" d="M308,-863.7623C308,-839.201 308,-795.2474 308,-766.3541"/>
<polygon fill="#000000" stroke="#000000" points="311.5001,-766.0896 308,-756.0896 304.5001,-766.0897 311.5001,-766.0896"/>
</g>
<!-- ENGR 220 -->
<g id="node32" class="node">
<title>ENGR 220</title>
<ellipse fill="none" stroke="#006400" cx="448" cy="-666" rx="85.2851" ry="18"/>
<text text-anchor="middle" x="448" y="-662.3" font-family="Times,serif" font-size="14.00" fill="#000000">ENGR 220 (4.0)</text>
</g>
<!-- CHEM 101&#45;&gt;ENGR 220 -->
<g id="edge14" class="edge">
<title>CHEM 101&#45;&gt;ENGR 220</title>
<path fill="none" stroke="#000000" d="M319.9218,-864.1218C336.1351,-839.7582 365.9848,-794.7257 391,-756 404.6733,-734.8326 419.9381,-710.703 431.2272,-692.7604"/>
<polygon fill="#000000" stroke="#000000" points="434.3813,-694.3192 436.7388,-683.99 428.4544,-690.5946 434.3813,-694.3192"/>
</g>
<!-- ENGL 101 -->
<g id="node7" class="node">
<title>ENGL 101</title>
<ellipse fill="none" stroke="#006400" cx="1295" cy="-882" rx="84.485" ry="18"/>
<text text-anchor="middle" x="1295" y="-878.3" font-family="Times,serif" font-size="14.00" fill="#000000">ENGL 101 (3.0)</text>
</g>
<!-- ENGL 102 -->
<g id="node16" class="node">
<title>ENGL 102</title>
<ellipse fill="none" stroke="#006400" cx="1295" cy="-810" rx="84.485" ry="18"/>
<text text-anchor="middle" x="1295" y="-806.3" font-family="Times,serif" font-size="14.00" fill="#000000">ENGL 102 (3.0)</text>
</g>
<!-- ENGL 101&#45;&gt;ENGL 102 -->
<g id="edge4" class="edge">
<title>ENGL 101&#45;&gt;ENGL 102</title>
<path fill="none" stroke="#000000" d="M1295,-863.8314C1295,-856.131 1295,-846.9743 1295,-838.4166"/>
<polygon fill="#000000" stroke="#000000" points="1298.5001,-838.4132 1295,-828.4133 1291.5001,-838.4133 1298.5001,-838.4132"/>
</g>
<!-- ENGR 100 -->
<g id="node8" class="node">
<title>ENGR 100</title>
<ellipse fill="none" stroke="#006400" cx="1611" cy="-882" rx="85.2851" ry="18"/>
<text text-anchor="middle" x="1611" y="-878.3" font-family="Times,serif" font-size="14.00" fill="#000000">ENGR 100 (1.0)</text>
</g>
<!-- ENGR 101 -->
<g id="node9" class="node">
<title>ENGR 101</title>
<ellipse fill="none" stroke="#006400" cx="1011" cy="-882" rx="85.2851" ry="18"/>
<text text-anchor="middle" x="1011" y="-878.3" font-family="Times,serif" font-size="14.00" fill="#000000">ENGR 101 (2.0)</text>
</g>
<!-- ENGR 102 -->
<g id="node17" class="node">
<title>ENGR 102</title>
<ellipse fill="none" stroke="#006400" cx="1011" cy="-810" rx="85.2851" ry="18"/>
<text text-anchor="middle" x="1011" y="-806.3" font-family="Times,serif" font-size="14.00" fill="#000000">ENGR 102 (2.0)</text>
</g>
<!-- ENGR 101&#45;&gt;ENGR 102 -->
<g id="edge5" class="edge">
<title>ENGR 101&#45;&gt;ENGR 102</title>
<path fill="none" stroke="#000000" d="M1011,-863.8314C1011,-856.131 1011,-846.9743 1011,-838.4166"/>
<polygon fill="#000000" stroke="#000000" points="1014.5001,-838.4132 1011,-828.4133 1007.5001,-838.4133 1014.5001,-838.4132"/>
</g>
<!-- ENGR 121 -->
<g id="node10" class="node">
<title>ENGR 121</title>
<ellipse fill="none" stroke="#006400" cx="1863" cy="-882" rx="85.2851" ry="18"/>
<text text-anchor="middle" x="1863" y="-878.3" font-family="Times,serif" font-size="14.00" fill="#000000">ENGR 121 (2.0)</text>
</g>
<!-- ENGR 231 -->
<g id="node33" class="node">
<title>ENGR 231</title>
<ellipse fill="none" stroke="#006400" cx="1863" cy="-666" rx="85.2851" ry="18"/>
<text text-anchor="middle" x="1863" y="-662.3" font-family="Times,serif" font-size="14.00" fill="#000000">ENGR 231 (3.0)</text>
</g>
<!-- ENGR 121&#45;&gt;ENGR 231 -->
<g id="edge17" class="edge">
<title>ENGR 121&#45;&gt;ENGR 231</title>
<path fill="none" stroke="#000000" d="M1863,-863.9555C1863,-826.3938 1863,-739.5541 1863,-694.4103"/>
<polygon fill="#000000" stroke="#000000" points="1866.5001,-694.145 1863,-684.1451 1859.5001,-694.1451 1866.5001,-694.145"/>
</g>
<!-- MATH 121 -->
<g id="node11" class="node">
<title>MATH 121</title>
<ellipse fill="none" stroke="#006400" cx="562" cy="-882" rx="85.5853" ry="18"/>
<text text-anchor="middle" x="562" y="-878.3" font-family="Times,serif" font-size="14.00" fill="#000000">MATH 121 (4.0)</text>
</g>
<!-- MATH 122 -->
<g id="node19" class="node">
<title>MATH 122</title>
<ellipse fill="none" stroke="#006400" cx="562" cy="-810" rx="85.5853" ry="18"/>
<text text-anchor="middle" x="562" y="-806.3" font-family="Times,serif" font-size="14.00" fill="#000000">MATH 122 (4.0)</text>
</g>
<!-- MATH 121&#45;&gt;MATH 122 -->
<g id="edge6" class="edge">
<title>MATH 121&#45;&gt;MATH 122</title>
<path fill="none" stroke="#000000" d="M562,-863.8314C562,-856.131 562,-846.9743 562,-838.4166"/>
<polygon fill="#000000" stroke="#000000" points="565.5001,-838.4132 562,-828.4133 558.5001,-838.4133 565.5001,-838.4132"/>
</g>
<!-- UNIV 101 -->
<g id="node12" class="node">
<title>UNIV 101</title>
<ellipse fill="none" stroke="#006400" cx="2049" cy="-882" rx="82.5854" ry="18"/>
<text text-anchor="middle" x="2049" y="-878.3" font-family="Times,serif" font-size="14.00" fill="#000000">UNIV 101 (1.0)</text>
</g>
<!-- 1.3 -->
<g id="node21" class="node">
<title>1.3</title>
<text text-anchor="middle" x="45" y="-734.3" font-family="Times,serif" font-size="14.00" fill="#000000">1.3 (17.5)</text>
</g>
<!-- 1.2&#45;&gt;1.3 -->
<!-- CIVC 101 -->
<g id="node15" class="node">
<title>CIVC 101</title>
<ellipse fill="none" stroke="#006400" cx="1972" cy="-810" rx="81.4863" ry="18"/>
<text text-anchor="middle" x="1972" y="-806.3" font-family="Times,serif" font-size="14.00" fill="#000000">CIVC 101 (1.0)</text>
</g>
<!-- ENGL 103 -->
<g id="node24" class="node">
<title>ENGL 103</title>
<ellipse fill="none" stroke="#006400" cx="1295" cy="-738" rx="84.485" ry="18"/>
<text text-anchor="middle" x="1295" y="-734.3" font-family="Times,serif" font-size="14.00" fill="#000000">ENGL 103 (3.0)</text>
</g>
<!-- ENGL 102&#45;&gt;ENGL 103 -->
<g id="edge9" class="edge">
<title>ENGL 102&#45;&gt;ENGL 103</title>
<path fill="none" stroke="#000000" d="M1295,-791.8314C1295,-784.131 1295,-774.9743 1295,-766.4166"/>
<polygon fill="#000000" stroke="#000000" points="1298.5001,-766.4132 1295,-756.4133 1291.5001,-766.4133 1298.5001,-766.4132"/>
</g>
<!-- ENGR 103 -->
<g id="node25" class="node">
<title>ENGR 103</title>
<ellipse fill="none" stroke="#006400" cx="1011" cy="-738" rx="85.2851" ry="18"/>
<text text-anchor="middle" x="1011" y="-734.3" font-family="Times,serif" font-size="14.00" fill="#000000">ENGR 103 (2.0)</text>
</g>
<!-- ENGR 102&#45;&gt;ENGR 103 -->
<g id="edge10" class="edge">
<title>ENGR 102&#45;&gt;ENGR 103</title>
<path fill="none" stroke="#000000" d="M1011,-791.8314C1011,-784.131 1011,-774.9743 1011,-766.4166"/>
<polygon fill="#000000" stroke="#000000" points="1014.5001,-766.4132 1011,-756.4133 1007.5001,-766.4133 1014.5001,-766.4132"/>
</g>
<!-- ENGR 122 -->
<g id="node18" class="node">
<title>ENGR 122</title>
<ellipse fill="none" stroke="#006400" cx="2156" cy="-810" rx="85.2851" ry="18"/>
<text text-anchor="middle" x="2156" y="-806.3" font-family="Times,serif" font-size="14.00" fill="#000000">ENGR 122 (1.0)</text>
</g>
<!-- MATH 200 -->
<g id="node26" class="node">
<title>MATH 200</title>
<ellipse fill="none" stroke="#006400" cx="562" cy="-738" rx="85.5853" ry="18"/>
<text text-anchor="middle" x="562" y="-734.3" font-family="Times,serif" font-size="14.00" fill="#000000">MATH 200 (4.0)</text>
</g>
<!-- MATH 122&#45;&gt;MATH 200 -->
<g id="edge11" class="edge">
<title>MATH 122&#45;&gt;MATH 200</title>
<path fill="none" stroke="#000000" d="M562,-791.8314C562,-784.131 562,-774.9743 562,-766.4166"/>
<polygon fill="#000000" stroke="#000000" points="565.5001,-766.4132 562,-756.4133 558.5001,-766.4133 565.5001,-766.4132"/>
</g>
<!-- MATH 122&#45;&gt;ENGR 220 -->
<g id="edge15" class="edge">
<title>MATH 122&#45;&gt;ENGR 220</title>
<path fill="none" stroke="#000000" d="M518.0272,-794.4789C499.6388,-785.8595 479.647,-773.3097 467,-756 454.024,-738.24 449.5109,-713.5382 448.1103,-694.5054"/>
<polygon fill="#000000" stroke="#000000" points="451.5967,-694.1396 447.6116,-684.3228 444.6051,-694.4821 451.5967,-694.1396"/>
</g>
<!-- PHYS 201 -->
<g id="node53" class="node">
<title>PHYS 201</title>
<ellipse fill="none" stroke="#ffa500" cx="695" cy="-450" rx="83.3857" ry="18"/>
<text text-anchor="middle" x="695" y="-446.3" font-family="Times,serif" font-size="14.00" fill="#000000">PHYS 201 (4.0)</text>
</g>
<!-- MATH 122&#45;&gt;PHYS 201 -->
<g id="edge40" class="edge">
<title>MATH 122&#45;&gt;PHYS 201</title>
<path fill="none" stroke="#000000" d="M605.9728,-794.4789C624.3612,-785.8595 644.353,-773.3097 657,-756 681.1178,-722.9903 676,-706.8816 676,-666 676,-666 676,-666 676,-594 676,-553.5282 683.468,-507.2037 689.04,-478.2725"/>
<polygon fill="#000000" stroke="#000000" points="692.5483,-478.5746 691.0632,-468.0844 685.6823,-477.2111 692.5483,-478.5746"/>
</g>
<!-- PHYS 101 -->
<g id="node20" class="node">
<title>PHYS 101</title>
<ellipse fill="none" stroke="#006400" cx="787" cy="-810" rx="83.3857" ry="18"/>
<text text-anchor="middle" x="787" y="-806.3" font-family="Times,serif" font-size="14.00" fill="#000000">PHYS 101 (4.0)</text>
</g>
<!-- PHYS 102 -->
<g id="node27" class="node">
<title>PHYS 102</title>
<ellipse fill="none" stroke="#006400" cx="825" cy="-738" rx="83.3857" ry="18"/>
<text text-anchor="middle" x="825" y="-734.3" font-family="Times,serif" font-size="14.00" fill="#000000">PHYS 102 (4.0)</text>
</g>
<!-- PHYS 101&#45;&gt;PHYS 102 -->
<g id="edge12" class="edge">
<title>PHYS 101&#45;&gt;PHYS 102</title>
<path fill="none" stroke="#000000" d="M796.589,-791.8314C800.897,-783.6688 806.0686,-773.87 810.8119,-764.8827"/>
<polygon fill="#000000" stroke="#000000" points="813.9734,-766.3909 815.5457,-755.9134 807.7827,-763.1236 813.9734,-766.3909"/>
</g>
<!-- PHYS 101&#45;&gt;ENGR 220 -->
<g id="edge16" class="edge">
<title>PHYS 101&#45;&gt;ENGR 220</title>
<path fill="none" stroke="#000000" d="M766.3421,-792.2101C741.8158,-771.9535 698.9338,-739.1909 657,-720 615.287,-700.9102 565.6806,-687.7301 525.2662,-679.1726"/>
<polygon fill="#000000" stroke="#000000" points="525.9677,-675.7437 515.4665,-677.1495 524.5523,-682.5991 525.9677,-675.7437"/>
</g>
<!-- 2.1 -->
<g id="node28" class="node">
<title>2.1</title>
<text text-anchor="middle" x="45" y="-662.3" font-family="Times,serif" font-size="14.00" fill="#000000">2.1 (20.0)</text>
</g>
<!-- 1.3&#45;&gt;2.1 -->
<!-- COOP 101 -->
<g id="node23" class="node">
<title>COOP 101</title>
<ellipse fill="none" stroke="#006400" cx="1967" cy="-738" rx="76.0865" ry="18"/>
<text text-anchor="middle" x="1967" y="-734.3" font-family="Times,serif" font-size="14.00" fill="#000000">COOP 101 (0)</text>
</g>
<!-- ECES 301 -->
<g id="node46" class="node">
<title>ECES 301</title>
<ellipse fill="none" stroke="#0000ff" cx="1047" cy="-522" rx="83.3857" ry="18"/>
<text text-anchor="middle" x="1047" y="-518.3" font-family="Times,serif" font-size="14.00" fill="#000000">ECES 301 (4.0)</text>
</g>
<!-- ENGR 103&#45;&gt;ECES 301 -->
<g id="edge31" class="edge">
<title>ENGR 103&#45;&gt;ECES 301</title>
<path fill="none" stroke="#000000" d="M1014.0074,-719.9555C1020.2809,-682.3144 1034.8022,-595.1867 1042.3126,-550.1246"/>
<polygon fill="#000000" stroke="#000000" points="1045.7841,-550.5844 1043.9758,-540.1451 1038.8794,-549.4336 1045.7841,-550.5844"/>
</g>
<!-- ECE 303 -->
<g id="node49" class="node">
<title>ECE 303</title>
<ellipse fill="none" stroke="#ffa500" cx="882" cy="-450" rx="76.8869" ry="18"/>
<text text-anchor="middle" x="882" y="-446.3" font-family="Times,serif" font-size="14.00" fill="#000000">ECE 303 (3.0)</text>
</g>
<!-- ENGR 103&#45;&gt;ECE 303 -->
<g id="edge35" class="edge">
<title>ENGR 103&#45;&gt;ECE 303</title>
<path fill="none" stroke="#000000" d="M1002.9305,-719.9843C981.0307,-671.0919 920.3768,-535.6785 894.2416,-477.33"/>
<polygon fill="#000000" stroke="#000000" points="897.3486,-475.7044 890.0665,-468.0089 890.9602,-478.566 897.3486,-475.7044"/>
</g>
<!-- ECE 201 -->
<g id="node36" class="node">
<title>ECE 201</title>
<ellipse fill="none" stroke="#006400" cx="831" cy="-594" rx="76.8869" ry="18"/>
<text text-anchor="middle" x="831" y="-590.3" font-family="Times,serif" font-size="14.00" fill="#000000">ECE 201 (4.0)</text>
</g>
<!-- PHYS 102&#45;&gt;ECE 201 -->
<g id="edge19" class="edge">
<title>PHYS 102&#45;&gt;ECE 201</title>
<path fill="none" stroke="#000000" d="M825.7599,-719.7623C826.7833,-695.201 828.6147,-651.2474 829.8186,-622.3541"/>
<polygon fill="#000000" stroke="#000000" points="833.3268,-622.2267 830.2463,-612.0896 826.3329,-621.9352 833.3268,-622.2267"/>
</g>
<!-- PHYS 102&#45;&gt;PHYS 201 -->
<g id="edge39" class="edge">
<title>PHYS 102&#45;&gt;PHYS 201</title>
<path fill="none" stroke="#000000" d="M811.4513,-720.0985C794.0652,-696.4323 763.899,-652.9342 745,-612 724.1811,-566.9073 709.0842,-510.8768 701.2111,-477.9182"/>
<polygon fill="#000000" stroke="#000000" points="704.5939,-477.0127 698.9107,-468.0712 697.7775,-478.6053 704.5939,-477.0127"/>
</g>
<!-- 2.2 -->
<g id="node35" class="node">
<title>2.2</title>
<text text-anchor="middle" x="45" y="-590.3" font-family="Times,serif" font-size="14.00" fill="#000000">2.2 (16.0)</text>
</g>
<!-- 2.1&#45;&gt;2.2 -->
<!-- ECE 200 -->
<g id="node29" class="node">
<title>ECE 200</title>
<ellipse fill="none" stroke="#006400" cx="1220" cy="-666" rx="76.8869" ry="18"/>
<text text-anchor="middle" x="1220" y="-662.3" font-family="Times,serif" font-size="14.00" fill="#000000">ECE 200 (4.0)</text>
</g>
<!-- MATH 221 -->
<g id="node40" class="node">
<title>MATH 221</title>
<ellipse fill="none" stroke="#006400" cx="1163" cy="-594" rx="85.5853" ry="18"/>
<text text-anchor="middle" x="1163" y="-590.3" font-family="Times,serif" font-size="14.00" fill="#000000">MATH 221 (3.0)</text>
</g>
<!-- ECE 200&#45;&gt;MATH 221 -->
<g id="edge23" class="edge">
<title>ECE 200&#45;&gt;MATH 221</title>
<path fill="none" stroke="#000000" d="M1205.9101,-648.2022C1199.1276,-639.6348 1190.8674,-629.2009 1183.4123,-619.7839"/>
<polygon fill="#000000" stroke="#000000" points="1186.0766,-617.5106 1177.1253,-611.8425 1180.5882,-621.8555 1186.0766,-617.5106"/>
</g>
<!-- ECEC 302 -->
<g id="node44" class="node">
<title>ECEC 302</title>
<ellipse fill="none" stroke="#0000ff" cx="1257" cy="-522" rx="83.6854" ry="18"/>
<text text-anchor="middle" x="1257" y="-518.3" font-family="Times,serif" font-size="14.00" fill="#000000">ECEC 302 (3.0)</text>
</g>
<!-- ECE 200&#45;&gt;ECEC 302 -->
<g id="edge27" class="edge">
<title>ECE 200&#45;&gt;ECEC 302</title>
<path fill="none" stroke="#000000" d="M1236.8653,-648.0624C1244.9507,-638.2224 1253.7788,-625.3334 1258,-612 1264.3474,-591.9504 1263.7445,-568.1071 1261.7447,-550.0004"/>
<polygon fill="#000000" stroke="#000000" points="1265.214,-549.5367 1260.4479,-540.0744 1258.273,-550.4436 1265.214,-549.5367"/>
</g>
<!-- ECE 200&#45;&gt;ECES 301 -->
<g id="edge29" class="edge">
<title>ECE 200&#45;&gt;ECES 301</title>
<path fill="none" stroke="#000000" d="M1153.1525,-657.0413C1123.1727,-649.6949 1089.7408,-636.3261 1068,-612 1053.0248,-595.244 1048.1499,-569.8825 1046.8059,-550.3477"/>
<polygon fill="#000000" stroke="#000000" points="1050.2958,-550.0311 1046.3807,-540.1862 1043.3019,-550.3238 1050.2958,-550.0311"/>
</g>
<!-- ECEC 204 -->
<g id="node50" class="node">
<title>ECEC 204</title>
<ellipse fill="none" stroke="#ffa500" cx="1369" cy="-450" rx="83.6854" ry="18"/>
<text text-anchor="middle" x="1369" y="-446.3" font-family="Times,serif" font-size="14.00" fill="#000000">ECEC 204 (3.0)</text>
</g>
<!-- ECE 200&#45;&gt;ECEC 204 -->
<g id="edge36" class="edge">
<title>ECE 200&#45;&gt;ECEC 204</title>
<path fill="none" stroke="#000000" d="M1245.1477,-648.9224C1275.031,-627.2265 1324.0946,-586.9121 1350,-540 1360.4541,-521.0686 1365.1648,-496.9814 1367.283,-478.4908"/>
<polygon fill="#000000" stroke="#000000" points="1370.7866,-478.6196 1368.2545,-468.3318 1363.8184,-477.9532 1370.7866,-478.6196"/>
</g>
<!-- ECE 203 -->
<g id="node30" class="node">
<title>ECE 203</title>
<ellipse fill="none" stroke="#006400" cx="1540" cy="-666" rx="76.8869" ry="18"/>
<text text-anchor="middle" x="1540" y="-662.3" font-family="Times,serif" font-size="14.00" fill="#000000">ECE 203 (3.0)</text>
</g>
<!-- ECEC 201 -->
<g id="node37" class="node">
<title>ECEC 201</title>
<ellipse fill="none" stroke="#006400" cx="1540" cy="-594" rx="83.6854" ry="18"/>
<text text-anchor="middle" x="1540" y="-590.3" font-family="Times,serif" font-size="14.00" fill="#000000">ECEC 201 (3.0)</text>
</g>
<!-- ECE 203&#45;&gt;ECEC 201 -->
<g id="edge20" class="edge">
<title>ECE 203&#45;&gt;ECEC 201</title>
<path fill="none" stroke="#000000" d="M1540,-647.8314C1540,-640.131 1540,-630.9743 1540,-622.4166"/>
<polygon fill="#000000" stroke="#000000" points="1543.5001,-622.4132 1540,-612.4133 1536.5001,-622.4133 1543.5001,-622.4132"/>
</g>
<!-- ECE 203&#45;&gt;ECEC 302 -->
<g id="edge26" class="edge">
<title>ECE 203&#45;&gt;ECEC 302</title>
<path fill="none" stroke="#000000" d="M1507.8118,-649.6216C1456.35,-623.436 1355.5667,-572.1541 1298.6716,-543.2039"/>
<polygon fill="#000000" stroke="#000000" points="1300.0936,-540.0005 1289.5937,-538.5848 1296.919,-546.2393 1300.0936,-540.0005"/>
</g>
<!-- ECEC 357 -->
<g id="node45" class="node">
<title>ECEC 357</title>
<ellipse fill="none" stroke="#0000ff" cx="1750" cy="-522" rx="83.6854" ry="18"/>
<text text-anchor="middle" x="1750" y="-518.3" font-family="Times,serif" font-size="14.00" fill="#000000">ECEC 357 (3.0)</text>
</g>
<!-- ECE 203&#45;&gt;ECEC 357 -->
<g id="edge28" class="edge">
<title>ECE 203&#45;&gt;ECEC 357</title>
<path fill="none" stroke="#000000" d="M1570.7619,-649.4594C1589.1766,-639.2353 1612.8439,-625.5214 1633,-612 1664.0848,-591.1473 1697.7859,-564.7917 1720.9986,-546.001"/>
<polygon fill="#000000" stroke="#000000" points="1723.5067,-548.4724 1729.0519,-539.4446 1719.0872,-543.0439 1723.5067,-548.4724"/>
</g>
<!-- ENGR 201 -->
<g id="node31" class="node">
<title>ENGR 201</title>
<ellipse fill="none" stroke="#006400" cx="2051" cy="-666" rx="85.2851" ry="18"/>
<text text-anchor="middle" x="2051" y="-662.3" font-family="Times,serif" font-size="14.00" fill="#000000">ENGR 201 (3.0)</text>
</g>
<!-- ENGR 202 -->
<g id="node38" class="node">
<title>ENGR 202</title>
<ellipse fill="none" stroke="#006400" cx="2051" cy="-594" rx="85.2851" ry="18"/>
<text text-anchor="middle" x="2051" y="-590.3" font-family="Times,serif" font-size="14.00" fill="#000000">ENGR 202 (3.0)</text>
</g>
<!-- ENGR 201&#45;&gt;ENGR 202 -->
<g id="edge21" class="edge">
<title>ENGR 201&#45;&gt;ENGR 202</title>
<path fill="none" stroke="#000000" d="M2051,-647.8314C2051,-640.131 2051,-630.9743 2051,-622.4166"/>
<polygon fill="#000000" stroke="#000000" points="2054.5001,-622.4132 2051,-612.4133 2047.5001,-622.4133 2054.5001,-622.4132"/>
</g>
<!-- ENGR 232 -->
<g id="node39" class="node">
<title>ENGR 232</title>
<ellipse fill="none" stroke="#006400" cx="1863" cy="-594" rx="85.2851" ry="18"/>
<text text-anchor="middle" x="1863" y="-590.3" font-family="Times,serif" font-size="14.00" fill="#000000">ENGR 232 (3.0)</text>
</g>
<!-- ENGR 231&#45;&gt;ENGR 232 -->
<g id="edge22" class="edge">
<title>ENGR 231&#45;&gt;ENGR 232</title>
<path fill="none" stroke="#000000" d="M1863,-647.8314C1863,-640.131 1863,-630.9743 1863,-622.4166"/>
<polygon fill="#000000" stroke="#000000" points="1866.5001,-622.4132 1863,-612.4133 1859.5001,-622.4133 1866.5001,-622.4132"/>
</g>
<!-- PHIL 111 -->
<g id="node34" class="node">
<title>PHIL 111</title>
<ellipse fill="none" stroke="#006400" cx="2235" cy="-666" rx="80.6858" ry="18"/>
<text text-anchor="middle" x="2235" y="-662.3" font-family="Times,serif" font-size="14.00" fill="#000000">PHIL 111 (3.0)</text>
</g>
<!-- PHIL 207 -->
<g id="node59" class="node">
<title>PHIL 207</title>
<ellipse fill="none" stroke="#ffa500" cx="2235" cy="-378" rx="80.6858" ry="18"/>
<text text-anchor="middle" x="2235" y="-374.3" font-family="Times,serif" font-size="14.00" fill="#000000">PHIL 207 (3.0)</text>
</g>
<!-- PHIL 111&#45;&gt;PHIL 207 -->
<g id="edge46" class="edge">
<title>PHIL 111&#45;&gt;PHIL 207</title>
<path fill="none" stroke="#000000" d="M2235,-647.9843C2235,-599.2939 2235,-464.7961 2235,-406.0573"/>
<polygon fill="#000000" stroke="#000000" points="2238.5001,-406.0088 2235,-396.0089 2231.5001,-406.0089 2238.5001,-406.0088"/>
</g>
<!-- 3.1 -->
<g id="node41" class="node">
<title>3.1</title>
<text text-anchor="middle" x="45" y="-518.3" font-family="Times,serif" font-size="14.00" fill="#000000">3.1 (17.0)</text>
</g>
<!-- 2.2&#45;&gt;3.1 -->
<!-- ECE 201&#45;&gt;ECES 301 -->
<g id="edge30" class="edge">
<title>ECE 201&#45;&gt;ECES 301</title>
<path fill="none" stroke="#000000" d="M875.232,-579.256C908.8519,-568.0494 955.3162,-552.5613 991.4424,-540.5192"/>
<polygon fill="#000000" stroke="#000000" points="992.9584,-543.7033 1001.3384,-537.2205 990.7448,-537.0625 992.9584,-543.7033"/>
</g>
<!-- ECE 201&#45;&gt;ECE 303 -->
<g id="edge34" class="edge">
<title>ECE 201&#45;&gt;ECE 303</title>
<path fill="none" stroke="#000000" d="M837.3561,-576.0535C846.0983,-551.3696 861.9148,-506.7111 872.1837,-477.7167"/>
<polygon fill="#000000" stroke="#000000" points="875.5245,-478.7675 875.5638,-468.1727 868.9261,-476.4305 875.5245,-478.7675"/>
</g>
<!-- CS 265 -->
<g id="node42" class="node">
<title>CS 265</title>
<ellipse fill="none" stroke="#0000ff" cx="1540" cy="-522" rx="69.5877" ry="18"/>
<text text-anchor="middle" x="1540" y="-518.3" font-family="Times,serif" font-size="14.00" fill="#000000">CS 265 (3.0)</text>
</g>
<!-- ECEC 201&#45;&gt;CS 265 -->
<g id="edge25" class="edge">
<title>ECEC 201&#45;&gt;CS 265</title>
<path fill="none" stroke="#000000" d="M1540,-575.8314C1540,-568.131 1540,-558.9743 1540,-550.4166"/>
<polygon fill="#000000" stroke="#000000" points="1543.5001,-550.4132 1540,-540.4133 1536.5001,-550.4133 1543.5001,-550.4132"/>
</g>
<!-- ECEC 201&#45;&gt;ECEC 204 -->
<g id="edge37" class="edge">
<title>ECEC 201&#45;&gt;ECEC 204</title>
<path fill="none" stroke="#000000" d="M1512.4634,-576.877C1496.8826,-566.7758 1477.3125,-553.3813 1461,-540 1436.3612,-519.7885 1410.6202,-494.1625 1392.6529,-475.4286"/>
<polygon fill="#000000" stroke="#000000" points="1394.8815,-472.6931 1385.4545,-467.8577 1389.8085,-477.5165 1394.8815,-472.6931"/>
</g>
<!-- ECEC 353 -->
<g id="node57" class="node">
<title>ECEC 353</title>
<ellipse fill="none" stroke="#ffa500" cx="1638" cy="-378" rx="83.6854" ry="18"/>
<text text-anchor="middle" x="1638" y="-374.3" font-family="Times,serif" font-size="14.00" fill="#000000">ECEC 353 (3.0)</text>
</g>
<!-- ECEC 201&#45;&gt;ECEC 353 -->
<g id="edge44" class="edge">
<title>ECEC 201&#45;&gt;ECEC 353</title>
<path fill="none" stroke="#000000" d="M1576.4983,-577.7784C1592.166,-568.9049 1609.1123,-556.3475 1619,-540 1643.9941,-498.6769 1644.1191,-440.5156 1641.4174,-406.2901"/>
<polygon fill="#000000" stroke="#000000" points="1644.8781,-405.7043 1640.4688,-396.0706 1637.9081,-406.3513 1644.8781,-405.7043"/>
</g>
<!-- 3.2 -->
<g id="node47" class="node">
<title>3.2</title>
<text text-anchor="middle" x="45" y="-446.3" font-family="Times,serif" font-size="14.00" fill="#000000">3.2 (19.0)</text>
</g>
<!-- 3.1&#45;&gt;3.2 -->
<!-- CS 260 -->
<g id="node48" class="node">
<title>CS 260</title>
<ellipse fill="none" stroke="#ffa500" cx="1540" cy="-450" rx="69.5877" ry="18"/>
<text text-anchor="middle" x="1540" y="-446.3" font-family="Times,serif" font-size="14.00" fill="#000000">CS 260 (3.0)</text>
</g>
<!-- CS 265&#45;&gt;CS 260 -->
<g id="edge33" class="edge">
<title>CS 265&#45;&gt;CS 260</title>
<path fill="none" stroke="#000000" d="M1540,-503.8314C1540,-496.131 1540,-486.9743 1540,-478.4166"/>
<polygon fill="#000000" stroke="#000000" points="1543.5001,-478.4132 1540,-468.4133 1536.5001,-478.4133 1543.5001,-478.4132"/>
</g>
<!-- ECE 361 -->
<g id="node43" class="node">
<title>ECE 361</title>
<ellipse fill="none" stroke="#0000ff" cx="2344" cy="-522" rx="76.8869" ry="18"/>
<text text-anchor="middle" x="2344" y="-518.3" font-family="Times,serif" font-size="14.00" fill="#000000">ECE 361 (4.0)</text>
</g>
<!-- ECE 491 -->
<g id="node65" class="node">
<title>ECE 491</title>
<ellipse fill="none" stroke="#ffa500" cx="2396" cy="-234" rx="76.8869" ry="18"/>
<text text-anchor="middle" x="2396" y="-230.3" font-family="Times,serif" font-size="14.00" fill="#000000">ECE 491 (2.0)</text>
</g>
<!-- ECE 361&#45;&gt;ECE 491 -->
<g id="edge53" class="edge">
<title>ECE 361&#45;&gt;ECE 491</title>
<path fill="none" stroke="#000000" d="M2345.2948,-503.8963C2347.6305,-473.8239 2353.2362,-411.7582 2363,-360 2369.4473,-325.8224 2380.0597,-287.2303 2387.5048,-261.8657"/>
<polygon fill="#000000" stroke="#000000" points="2390.8892,-262.7638 2390.3826,-252.1811 2384.1791,-260.7699 2390.8892,-262.7638"/>
</g>
<!-- ECEC 355 -->
<g id="node51" class="node">
<title>ECEC 355</title>
<ellipse fill="none" stroke="#ffa500" cx="1183" cy="-450" rx="83.6854" ry="18"/>
<text text-anchor="middle" x="1183" y="-446.3" font-family="Times,serif" font-size="14.00" fill="#000000">ECEC 355 (3.0)</text>
</g>
<!-- ECEC 302&#45;&gt;ECEC 355 -->
<g id="edge38" class="edge">
<title>ECEC 302&#45;&gt;ECEC 355</title>
<path fill="none" stroke="#000000" d="M1238.7079,-504.2022C1229.5674,-495.3088 1218.3599,-484.4042 1208.4,-474.7135"/>
<polygon fill="#000000" stroke="#000000" points="1210.6898,-472.0581 1201.0817,-467.593 1205.8083,-477.0752 1210.6898,-472.0581"/>
</g>
<!-- 4.1 -->
<g id="node54" class="node">
<title>4.1</title>
<text text-anchor="middle" x="45" y="-374.3" font-family="Times,serif" font-size="14.00" fill="#000000">4.1 (13.0)</text>
</g>
<!-- 3.2&#45;&gt;4.1 -->
<!-- CS 361 -->
<g id="node55" class="node">
<title>CS 361</title>
<ellipse fill="none" stroke="#ffa500" cx="1374" cy="-378" rx="69.5877" ry="18"/>
<text text-anchor="middle" x="1374" y="-374.3" font-family="Times,serif" font-size="14.00" fill="#000000">CS 361 (3.0)</text>
</g>
<!-- CS 260&#45;&gt;CS 361 -->
<g id="edge42" class="edge">
<title>CS 260&#45;&gt;CS 361</title>
<path fill="none" stroke="#000000" d="M1503.9805,-434.3771C1479.0972,-423.5843 1445.8139,-409.1482 1419.157,-397.5862"/>
<polygon fill="#000000" stroke="#000000" points="1420.2307,-394.2369 1409.6637,-393.4686 1417.4452,-400.6588 1420.2307,-394.2369"/>
</g>
<!-- ECEC 355&#45;&gt;CS 361 -->
<g id="edge43" class="edge">
<title>ECEC 355&#45;&gt;CS 361</title>
<path fill="none" stroke="#000000" d="M1224.9158,-434.1993C1254.3451,-423.1055 1293.8119,-408.228 1324.7455,-396.5672"/>
<polygon fill="#000000" stroke="#000000" points="1326.3428,-399.7055 1334.4654,-392.9031 1323.8736,-393.1555 1326.3428,-399.7055"/>
</g>
<!-- ECEC 413 -->
<g id="node58" class="node">
<title>ECEC 413</title>
<ellipse fill="none" stroke="#ffa500" cx="1127" cy="-378" rx="83.6854" ry="18"/>
<text text-anchor="middle" x="1127" y="-374.3" font-family="Times,serif" font-size="14.00" fill="#000000">ECEC 413 (3.0)</text>
</g>
<!-- ECEC 355&#45;&gt;ECEC 413 -->
<g id="edge45" class="edge">
<title>ECEC 355&#45;&gt;ECEC 413</title>
<path fill="none" stroke="#000000" d="M1169.1573,-432.2022C1162.4938,-423.6348 1154.3785,-413.2009 1147.0541,-403.7839"/>
<polygon fill="#000000" stroke="#000000" points="1149.7797,-401.5873 1140.8775,-395.8425 1144.2542,-405.8849 1149.7797,-401.5873"/>
</g>
<!-- ECEC 414 -->
<g id="node63" class="node">
<title>ECEC 414</title>
<ellipse fill="none" stroke="#ffa500" cx="1239" cy="-306" rx="83.6854" ry="18"/>
<text text-anchor="middle" x="1239" y="-302.3" font-family="Times,serif" font-size="14.00" fill="#000000">ECEC 414 (3.0)</text>
</g>
<!-- ECEC 355&#45;&gt;ECEC 414 -->
<g id="edge50" class="edge">
<title>ECEC 355&#45;&gt;ECEC 414</title>
<path fill="none" stroke="#000000" d="M1197.9445,-432.0682C1205.6013,-422.0298 1214.4554,-408.9555 1220,-396 1228.4563,-376.2409 1233.2726,-352.3827 1235.9389,-334.1965"/>
<polygon fill="#000000" stroke="#000000" points="1239.4169,-334.5934 1237.2717,-324.218 1232.4785,-333.6666 1239.4169,-334.5934"/>
</g>
<!-- PHIL 315 -->
<g id="node52" class="node">
<title>PHIL 315</title>
<ellipse fill="none" stroke="#ffa500" cx="2453" cy="-450" rx="80.6858" ry="18"/>
<text text-anchor="middle" x="2453" y="-446.3" font-family="Times,serif" font-size="14.00" fill="#000000">PHIL 315 (3.0)</text>
</g>
<!-- 4.2 -->
<g id="node60" class="node">
<title>4.2</title>
<text text-anchor="middle" x="45" y="-302.3" font-family="Times,serif" font-size="14.00" fill="#000000">4.2 (9.0)</text>
</g>
<!-- 4.1&#45;&gt;4.2 -->
<!-- ECE 391 -->
<g id="node56" class="node">
<title>ECE 391</title>
<ellipse fill="none" stroke="#ffa500" cx="2449" cy="-378" rx="76.8869" ry="18"/>
<text text-anchor="middle" x="2449" y="-374.3" font-family="Times,serif" font-size="14.00" fill="#000000">ECE 391 (1.0)</text>
</g>
<!-- ECE 391&#45;&gt;ECE 491 -->
<g id="edge52" class="edge">
<title>ECE 391&#45;&gt;ECE 491</title>
<path fill="none" stroke="#000000" d="M2442.3947,-360.0535C2433.3096,-335.3696 2416.8728,-290.7111 2406.2013,-261.7167"/>
<polygon fill="#000000" stroke="#000000" points="2409.4273,-260.3483 2402.6886,-252.1727 2402.8581,-262.7662 2409.4273,-260.3483"/>
</g>
<!-- CS 370 -->
<g id="node61" class="node">
<title>CS 370</title>
<ellipse fill="none" stroke="#ffa500" cx="1717" cy="-306" rx="69.5877" ry="18"/>
<text text-anchor="middle" x="1717" y="-302.3" font-family="Times,serif" font-size="14.00" fill="#000000">CS 370 (3.0)</text>
</g>
<!-- ECEC 353&#45;&gt;CS 370 -->
<g id="edge48" class="edge">
<title>ECEC 353&#45;&gt;CS 370</title>
<path fill="none" stroke="#000000" d="M1657.5281,-360.2022C1667.4553,-351.1546 1679.6665,-340.0255 1690.4357,-330.2105"/>
<polygon fill="#000000" stroke="#000000" points="1692.9358,-332.6675 1697.9691,-323.3446 1688.2206,-327.4938 1692.9358,-332.6675"/>
</g>
<!-- CS 377 -->
<g id="node62" class="node">
<title>CS 377</title>
<ellipse fill="none" stroke="#ffa500" cx="1560" cy="-306" rx="69.5877" ry="18"/>
<text text-anchor="middle" x="1560" y="-302.3" font-family="Times,serif" font-size="14.00" fill="#000000">CS 377 (3.0)</text>
</g>
<!-- ECEC 353&#45;&gt;CS 377 -->
<g id="edge49" class="edge">
<title>ECEC 353&#45;&gt;CS 377</title>
<path fill="none" stroke="#000000" d="M1618.7191,-360.2022C1608.9175,-351.1546 1596.8609,-340.0255 1586.2281,-330.2105"/>
<polygon fill="#000000" stroke="#000000" points="1588.512,-327.5556 1578.79,-323.3446 1583.764,-332.6992 1588.512,-327.5556"/>
</g>
<!-- 5.1 -->
<g id="node64" class="node">
<title>5.1</title>
<text text-anchor="middle" x="45" y="-230.3" font-family="Times,serif" font-size="14.00" fill="#000000">5.1 (2.0)</text>
</g>
<!-- 4.2&#45;&gt;5.1 -->
<!-- 5.2 -->
<g id="node66" class="node">
<title>5.2</title>
<text text-anchor="middle" x="45" y="-158.3" font-family="Times,serif" font-size="14.00" fill="#000000">5.2 (2.0)</text>
</g>
<!-- 5.1&#45;&gt;5.2 -->
<!-- ECE 492 -->
<g id="node67" class="node">
<title>ECE 492</title>
<ellipse fill="none" stroke="#ffa500" cx="2396" cy="-162" rx="76.8869" ry="18"/>
<text text-anchor="middle" x="2396" y="-158.3" font-family="Times,serif" font-size="14.00" fill="#000000">ECE 492 (2.0)</text>
</g>
<!-- ECE 491&#45;&gt;ECE 492 -->
<g id="edge55" class="edge">
<title>ECE 491&#45;&gt;ECE 492</title>
<path fill="none" stroke="#000000" d="M2396,-215.8314C2396,-208.131 2396,-198.9743 2396,-190.4166"/>
<polygon fill="#000000" stroke="#000000" points="2399.5001,-190.4132 2396,-180.4133 2392.5001,-190.4133 2399.5001,-190.4132"/>
</g>
<!-- 5.3 -->
<g id="node68" class="node">
<title>5.3</title>
<text text-anchor="middle" x="45" y="-86.3" font-family="Times,serif" font-size="14.00" fill="#000000">5.3 (4.0)</text>
</g>
<!-- 5.2&#45;&gt;5.3 -->
<!-- ECE 493 -->
<g id="node69" class="node">
<title>ECE 493</title>
<ellipse fill="none" stroke="#ffa500" cx="2396" cy="-90" rx="76.8869" ry="18"/>
<text text-anchor="middle" x="2396" y="-86.3" font-family="Times,serif" font-size="14.00" fill="#000000">ECE 493 (4.0)</text>
</g>
<!-- ECE 492&#45;&gt;ECE 493 -->
<g id="edge57" class="edge">
<title>ECE 492&#45;&gt;ECE 493</title>
<path fill="none" stroke="#000000" d="M2396,-143.8314C2396,-136.131 2396,-126.9743 2396,-118.4166"/>
<polygon fill="#000000" stroke="#000000" points="2399.5001,-118.4132 2396,-108.4133 2392.5001,-118.4133 2399.5001,-118.4132"/>
</g>
<!-- &#45;1.0 -->
<g id="node70" class="node">
<title>&#45;1.0</title>
<text text-anchor="middle" x="45" y="-14.3" font-family="Times,serif" font-size="14.00" fill="#000000">&#45;1.0 (17.0)</text>
</g>
<!-- 5.3&#45;&gt;&#45;1.0 -->
<!-- TEMP GenEd -->
<g id="node71" class="node">
<title>TEMP GenEd</title>
<ellipse fill="none" stroke="#ff0000" cx="206" cy="-18" rx="98.2828" ry="18"/>
<text text-anchor="middle" x="206" y="-14.3" font-family="Times,serif" font-size="14.00" fill="#000000">TEMP GenEd (8.0)</text>
</g>
<!-- TEMP ECEC 400 -->
<g id="node72" class="node">
<title>TEMP ECEC 400</title>
<ellipse fill="none" stroke="#ff0000" cx="438" cy="-18" rx="115.8798" ry="18"/>
<text text-anchor="middle" x="438" y="-14.3" font-family="Times,serif" font-size="14.00" fill="#000000">TEMP ECEC 400 (3.0)</text>
</g>
<!-- TEMP COE -->
<g id="node73" class="node">
<title>TEMP COE</title>
<ellipse fill="none" stroke="#ff0000" cx="661" cy="-18" rx="89.0842" ry="18"/>
<text text-anchor="middle" x="661" y="-14.3" font-family="Times,serif" font-size="14.00" fill="#000000">TEMP COE (6.0)</text>
</g>
</g>
</svg>
