<?xml version="1.0" encoding="UTF-8" standalone="no"?>
<!DOCTYPE svg PUBLIC "-//W3C//DTD SVG 1.1//EN"
 "http://www.w3.org/Graphics/SVG/1.1/DTD/svg11.dtd">
<!-- Generated by graphviz version 2.40.1 (20161225.0304)
 -->
<!-- Title: Classes Pages: 1 -->
<svg width="2068pt" height="1268pt"
 viewBox="0.00 0.00 2067.54 1268.00" xmlns="http://www.w3.org/2000/svg" xmlns:xlink="http://www.w3.org/1999/xlink">
<g id="graph0" class="graph" transform="scale(1 1) rotate(0) translate(4 1264)">
<title>Classes</title>
<polygon fill="#ffffff" stroke="transparent" points="-4,4 -4,-1264 2063.542,-1264 2063.542,4 -4,4"/>
<!-- freshman 1 (16.5) -->
<g id="node1" class="node">
<title>freshman 1 (16.5)</title>
<text text-anchor="middle" x="72" y="-1238.3" font-family="Times,serif" font-size="14.00" fill="#000000">freshman 1 (16.5)</text>
</g>
<!-- freshman 2 (19.5) -->
<g id="node2" class="node">
<title>freshman 2 (19.5)</title>
<text text-anchor="middle" x="72" y="-1166.3" font-family="Times,serif" font-size="14.00" fill="#000000">freshman 2 (19.5)</text>
</g>
<!-- freshman 1 (16.5)&#45;&gt;freshman 2 (19.5) -->
<g id="edge1" class="edge">
<title>freshman 1 (16.5)&#45;&gt;freshman 2 (19.5)</title>
<path fill="none" stroke="#000000" d="M72,-1223.8314C72,-1216.131 72,-1206.9743 72,-1198.4166"/>
<polygon fill="#000000" stroke="#000000" points="75.5001,-1198.4132 72,-1188.4133 68.5001,-1198.4133 75.5001,-1198.4132"/>
</g>
<!-- freshman 3 (17.5) -->
<g id="node3" class="node">
<title>freshman 3 (17.5)</title>
<text text-anchor="middle" x="72" y="-1094.3" font-family="Times,serif" font-size="14.00" fill="#000000">freshman 3 (17.5)</text>
</g>
<!-- freshman 2 (19.5)&#45;&gt;freshman 3 (17.5) -->
<g id="edge2" class="edge">
<title>freshman 2 (19.5)&#45;&gt;freshman 3 (17.5)</title>
<path fill="none" stroke="#000000" d="M72,-1151.8314C72,-1144.131 72,-1134.9743 72,-1126.4166"/>
<polygon fill="#000000" stroke="#000000" points="75.5001,-1126.4132 72,-1116.4133 68.5001,-1126.4133 75.5001,-1126.4132"/>
</g>
<!-- sophomore 1 (20) -->
<g id="node4" class="node">
<title>sophomore 1 (20)</title>
<text text-anchor="middle" x="72" y="-1022.3" font-family="Times,serif" font-size="14.00" fill="#000000">sophomore 1 (20)</text>
</g>
<!-- freshman 3 (17.5)&#45;&gt;sophomore 1 (20) -->
<g id="edge3" class="edge">
<title>freshman 3 (17.5)&#45;&gt;sophomore 1 (20)</title>
<path fill="none" stroke="#000000" d="M72,-1079.8314C72,-1072.131 72,-1062.9743 72,-1054.4166"/>
<polygon fill="#000000" stroke="#000000" points="75.5001,-1054.4132 72,-1044.4133 68.5001,-1054.4133 75.5001,-1054.4132"/>
</g>
<!-- sophomore 2 (20) -->
<g id="node5" class="node">
<title>sophomore 2 (20)</title>
<text text-anchor="middle" x="72" y="-950.3" font-family="Times,serif" font-size="14.00" fill="#000000">sophomore 2 (20)</text>
</g>
<!-- sophomore 1 (20)&#45;&gt;sophomore 2 (20) -->
<g id="edge4" class="edge">
<title>sophomore 1 (20)&#45;&gt;sophomore 2 (20)</title>
<path fill="none" stroke="#000000" d="M72,-1007.8314C72,-1000.131 72,-990.9743 72,-982.4166"/>
<polygon fill="#000000" stroke="#000000" points="75.5001,-982.4132 72,-972.4133 68.5001,-982.4133 75.5001,-982.4132"/>
</g>
<!-- COOP 1 -->
<g id="node6" class="node">
<title>COOP 1</title>
<text text-anchor="middle" x="72" y="-878.3" font-family="Times,serif" font-size="14.00" fill="#000000">COOP 1</text>
</g>
<!-- sophomore 2 (20)&#45;&gt;COOP 1 -->
<g id="edge5" class="edge">
<title>sophomore 2 (20)&#45;&gt;COOP 1</title>
<path fill="none" stroke="#000000" d="M72,-935.8314C72,-928.131 72,-918.9743 72,-910.4166"/>
<polygon fill="#000000" stroke="#000000" points="75.5001,-910.4132 72,-900.4133 68.5001,-910.4133 75.5001,-910.4132"/>
</g>
<!-- COOP 2 -->
<g id="node7" class="node">
<title>COOP 2</title>
<text text-anchor="middle" x="72" y="-806.3" font-family="Times,serif" font-size="14.00" fill="#000000">COOP 2</text>
</g>
<!-- COOP 1&#45;&gt;COOP 2 -->
<g id="edge6" class="edge">
<title>COOP 1&#45;&gt;COOP 2</title>
<path fill="none" stroke="#000000" d="M72,-863.8314C72,-856.131 72,-846.9743 72,-838.4166"/>
<polygon fill="#000000" stroke="#000000" points="75.5001,-838.4132 72,-828.4133 68.5001,-838.4133 75.5001,-838.4132"/>
</g>
<!-- pre&#45;junior 1 -->
<g id="node8" class="node">
<title>pre&#45;junior 1</title>
<text text-anchor="middle" x="72" y="-734.3" font-family="Times,serif" font-size="14.00" fill="#000000">pre&#45;junior 1</text>
</g>
<!-- COOP 2&#45;&gt;pre&#45;junior 1 -->
<g id="edge7" class="edge">
<title>COOP 2&#45;&gt;pre&#45;junior 1</title>
<path fill="none" stroke="#000000" d="M72,-791.8314C72,-784.131 72,-774.9743 72,-766.4166"/>
<polygon fill="#000000" stroke="#000000" points="75.5001,-766.4132 72,-756.4133 68.5001,-766.4133 75.5001,-766.4132"/>
</g>
<!-- pre&#45;junior 2 -->
<g id="node9" class="node">
<title>pre&#45;junior 2</title>
<text text-anchor="middle" x="72" y="-662.3" font-family="Times,serif" font-size="14.00" fill="#000000">pre&#45;junior 2</text>
</g>
<!-- pre&#45;junior 1&#45;&gt;pre&#45;junior 2 -->
<g id="edge8" class="edge">
<title>pre&#45;junior 1&#45;&gt;pre&#45;junior 2</title>
<path fill="none" stroke="#000000" d="M72,-719.8314C72,-712.131 72,-702.9743 72,-694.4166"/>
<polygon fill="#000000" stroke="#000000" points="75.5001,-694.4132 72,-684.4133 68.5001,-694.4133 75.5001,-694.4132"/>
</g>
<!-- COOP 3 -->
<g id="node10" class="node">
<title>COOP 3</title>
<text text-anchor="middle" x="72" y="-590.3" font-family="Times,serif" font-size="14.00" fill="#000000">COOP 3</text>
</g>
<!-- pre&#45;junior 2&#45;&gt;COOP 3 -->
<g id="edge9" class="edge">
<title>pre&#45;junior 2&#45;&gt;COOP 3</title>
<path fill="none" stroke="#000000" d="M72,-647.8314C72,-640.131 72,-630.9743 72,-622.4166"/>
<polygon fill="#000000" stroke="#000000" points="75.5001,-622.4132 72,-612.4133 68.5001,-622.4133 75.5001,-622.4132"/>
</g>
<!-- COOP 4 -->
<g id="node11" class="node">
<title>COOP 4</title>
<text text-anchor="middle" x="72" y="-518.3" font-family="Times,serif" font-size="14.00" fill="#000000">COOP 4</text>
</g>
<!-- COOP 3&#45;&gt;COOP 4 -->
<g id="edge10" class="edge">
<title>COOP 3&#45;&gt;COOP 4</title>
<path fill="none" stroke="#000000" d="M72,-575.8314C72,-568.131 72,-558.9743 72,-550.4166"/>
<polygon fill="#000000" stroke="#000000" points="75.5001,-550.4132 72,-540.4133 68.5001,-550.4133 75.5001,-550.4132"/>
</g>
<!-- junior 1 -->
<g id="node12" class="node">
<title>junior 1</title>
<text text-anchor="middle" x="72" y="-446.3" font-family="Times,serif" font-size="14.00" fill="#000000">junior 1</text>
</g>
<!-- COOP 4&#45;&gt;junior 1 -->
<g id="edge11" class="edge">
<title>COOP 4&#45;&gt;junior 1</title>
<path fill="none" stroke="#000000" d="M72,-503.8314C72,-496.131 72,-486.9743 72,-478.4166"/>
<polygon fill="#000000" stroke="#000000" points="75.5001,-478.4132 72,-468.4133 68.5001,-478.4133 75.5001,-478.4132"/>
</g>
<!-- junior 2 -->
<g id="node13" class="node">
<title>junior 2</title>
<text text-anchor="middle" x="72" y="-374.3" font-family="Times,serif" font-size="14.00" fill="#000000">junior 2</text>
</g>
<!-- junior 1&#45;&gt;junior 2 -->
<g id="edge12" class="edge">
<title>junior 1&#45;&gt;junior 2</title>
<path fill="none" stroke="#000000" d="M72,-431.8314C72,-424.131 72,-414.9743 72,-406.4166"/>
<polygon fill="#000000" stroke="#000000" points="75.5001,-406.4132 72,-396.4133 68.5001,-406.4133 75.5001,-406.4132"/>
</g>
<!-- COOP 5 -->
<g id="node14" class="node">
<title>COOP 5</title>
<text text-anchor="middle" x="72" y="-302.3" font-family="Times,serif" font-size="14.00" fill="#000000">COOP 5</text>
</g>
<!-- junior 2&#45;&gt;COOP 5 -->
<g id="edge13" class="edge">
<title>junior 2&#45;&gt;COOP 5</title>
<path fill="none" stroke="#000000" d="M72,-359.8314C72,-352.131 72,-342.9743 72,-334.4166"/>
<polygon fill="#000000" stroke="#000000" points="75.5001,-334.4132 72,-324.4133 68.5001,-334.4133 75.5001,-334.4132"/>
</g>
<!-- COOP 6 -->
<g id="node15" class="node">
<title>COOP 6</title>
<text text-anchor="middle" x="72" y="-230.3" font-family="Times,serif" font-size="14.00" fill="#000000">COOP 6</text>
</g>
<!-- COOP 5&#45;&gt;COOP 6 -->
<g id="edge14" class="edge">
<title>COOP 5&#45;&gt;COOP 6</title>
<path fill="none" stroke="#000000" d="M72,-287.8314C72,-280.131 72,-270.9743 72,-262.4166"/>
<polygon fill="#000000" stroke="#000000" points="75.5001,-262.4132 72,-252.4133 68.5001,-262.4133 75.5001,-262.4132"/>
</g>
<!-- senior 1 -->
<g id="node16" class="node">
<title>senior 1</title>
<text text-anchor="middle" x="72" y="-158.3" font-family="Times,serif" font-size="14.00" fill="#000000">senior 1</text>
</g>
<!-- COOP 6&#45;&gt;senior 1 -->
<g id="edge15" class="edge">
<title>COOP 6&#45;&gt;senior 1</title>
<path fill="none" stroke="#000000" d="M72,-215.8314C72,-208.131 72,-198.9743 72,-190.4166"/>
<polygon fill="#000000" stroke="#000000" points="75.5001,-190.4132 72,-180.4133 68.5001,-190.4133 75.5001,-190.4132"/>
</g>
<!-- senior 2 -->
<g id="node17" class="node">
<title>senior 2</title>
<text text-anchor="middle" x="72" y="-86.3" font-family="Times,serif" font-size="14.00" fill="#000000">senior 2</text>
</g>
<!-- senior 1&#45;&gt;senior 2 -->
<g id="edge16" class="edge">
<title>senior 1&#45;&gt;senior 2</title>
<path fill="none" stroke="#000000" d="M72,-143.8314C72,-136.131 72,-126.9743 72,-118.4166"/>
<polygon fill="#000000" stroke="#000000" points="75.5001,-118.4132 72,-108.4133 68.5001,-118.4133 75.5001,-118.4132"/>
</g>
<!-- senior 3 -->
<g id="node18" class="node">
<title>senior 3</title>
<text text-anchor="middle" x="72" y="-14.3" font-family="Times,serif" font-size="14.00" fill="#000000">senior 3</text>
</g>
<!-- senior 2&#45;&gt;senior 3 -->
<g id="edge17" class="edge">
<title>senior 2&#45;&gt;senior 3</title>
<path fill="none" stroke="#000000" d="M72,-71.8314C72,-64.131 72,-54.9743 72,-46.4166"/>
<polygon fill="#000000" stroke="#000000" points="75.5001,-46.4132 72,-36.4133 68.5001,-46.4133 75.5001,-46.4132"/>
</g>
<!-- UNIV 101 -->
<g id="node19" class="node">
<title>UNIV 101</title>
<ellipse fill="none" stroke="#00ff00" cx="220" cy="-1242" rx="57.6901" ry="18"/>
<text text-anchor="middle" x="220" y="-1238.3" font-family="Times,serif" font-size="14.00" fill="#000000">UNIV 101</text>
</g>
<!-- ENGL 101 -->
<g id="node20" class="node">
<title>ENGL 101</title>
<ellipse fill="none" stroke="#00ff00" cx="356" cy="-1242" rx="59.5901" ry="18"/>
<text text-anchor="middle" x="356" y="-1238.3" font-family="Times,serif" font-size="14.00" fill="#000000">ENGL 101</text>
</g>
<!-- ENGL 102 -->
<g id="node30" class="node">
<title>ENGL 102</title>
<ellipse fill="none" stroke="#00ff00" cx="356" cy="-1170" rx="59.5901" ry="18"/>
<text text-anchor="middle" x="356" y="-1166.3" font-family="Times,serif" font-size="14.00" fill="#000000">ENGL 102</text>
</g>
<!-- ENGL 101&#45;&gt;ENGL 102 -->
<g id="edge18" class="edge">
<title>ENGL 101&#45;&gt;ENGL 102</title>
<path fill="none" stroke="#000000" d="M356,-1223.8314C356,-1216.131 356,-1206.9743 356,-1198.4166"/>
<polygon fill="#000000" stroke="#000000" points="359.5001,-1198.4132 356,-1188.4133 352.5001,-1198.4133 359.5001,-1198.4132"/>
</g>
<!-- ENGR 100 -->
<g id="node21" class="node">
<title>ENGR 100</title>
<ellipse fill="none" stroke="#00ff00" cx="494" cy="-1242" rx="60.3893" ry="18"/>
<text text-anchor="middle" x="494" y="-1238.3" font-family="Times,serif" font-size="14.00" fill="#000000">ENGR 100</text>
</g>
<!-- CHEM 101 -->
<g id="node22" class="node">
<title>CHEM 101</title>
<ellipse fill="none" stroke="#00ff00" cx="956" cy="-1242" rx="63.0888" ry="18"/>
<text text-anchor="middle" x="956" y="-1238.3" font-family="Times,serif" font-size="14.00" fill="#000000">CHEM 101</text>
</g>
<!-- CHEM 102 -->
<g id="node31" class="node">
<title>CHEM 102</title>
<ellipse fill="none" stroke="#00ff00" cx="956" cy="-1170" rx="63.0888" ry="18"/>
<text text-anchor="middle" x="956" y="-1166.3" font-family="Times,serif" font-size="14.00" fill="#000000">CHEM 102</text>
</g>
<!-- CHEM 101&#45;&gt;CHEM 102 -->
<g id="edge21" class="edge">
<title>CHEM 101&#45;&gt;CHEM 102</title>
<path fill="none" stroke="#000000" d="M956,-1223.8314C956,-1216.131 956,-1206.9743 956,-1198.4166"/>
<polygon fill="#000000" stroke="#000000" points="959.5001,-1198.4132 956,-1188.4133 952.5001,-1198.4133 959.5001,-1198.4132"/>
</g>
<!-- ENGR 101 -->
<g id="node23" class="node">
<title>ENGR 101</title>
<ellipse fill="none" stroke="#00ff00" cx="1249" cy="-1242" rx="60.3893" ry="18"/>
<text text-anchor="middle" x="1249" y="-1238.3" font-family="Times,serif" font-size="14.00" fill="#000000">ENGR 101</text>
</g>
<!-- ENGR 102 -->
<g id="node32" class="node">
<title>ENGR 102</title>
<ellipse fill="none" stroke="#00ff00" cx="1249" cy="-1170" rx="60.3893" ry="18"/>
<text text-anchor="middle" x="1249" y="-1166.3" font-family="Times,serif" font-size="14.00" fill="#000000">ENGR 102</text>
</g>
<!-- ENGR 101&#45;&gt;ENGR 102 -->
<g id="edge28" class="edge">
<title>ENGR 101&#45;&gt;ENGR 102</title>
<path fill="none" stroke="#000000" d="M1249,-1223.8314C1249,-1216.131 1249,-1206.9743 1249,-1198.4166"/>
<polygon fill="#000000" stroke="#000000" points="1252.5001,-1198.4132 1249,-1188.4133 1245.5001,-1198.4133 1252.5001,-1198.4132"/>
</g>
<!-- ENGR 121 -->
<g id="node24" class="node">
<title>ENGR 121</title>
<ellipse fill="none" stroke="#00ff00" cx="633" cy="-1242" rx="60.3893" ry="18"/>
<text text-anchor="middle" x="633" y="-1238.3" font-family="Times,serif" font-size="14.00" fill="#000000">ENGR 121</text>
</g>
<!-- ENGR 231 -->
<g id="node44" class="node">
<title>ENGR 231</title>
<ellipse fill="none" stroke="#ffa500" cx="742" cy="-1026" rx="60.3893" ry="18"/>
<text text-anchor="middle" x="742" y="-1022.3" font-family="Times,serif" font-size="14.00" fill="#000000">ENGR 231</text>
</g>
<!-- ENGR 121&#45;&gt;ENGR 231 -->
<g id="edge39" class="edge">
<title>ENGR 121&#45;&gt;ENGR 231</title>
<path fill="none" stroke="#000000" d="M633.34,-1223.9313C634.7337,-1192.2755 641.2849,-1125.8047 671,-1080 679.3546,-1067.1217 691.8843,-1056.1203 704.1032,-1047.4732"/>
<polygon fill="#000000" stroke="#000000" points="706.103,-1050.3463 712.4577,-1041.8687 702.2033,-1044.5332 706.103,-1050.3463"/>
</g>
<!-- ENGR 232 -->
<g id="node51" class="node">
<title>ENGR 232</title>
<ellipse fill="none" stroke="#000000" cx="729" cy="-954" rx="60.3893" ry="18"/>
<text text-anchor="middle" x="729" y="-950.3" font-family="Times,serif" font-size="14.00" fill="#000000">ENGR 232</text>
</g>
<!-- ENGR 121&#45;&gt;ENGR 232 -->
<g id="edge41" class="edge">
<title>ENGR 121&#45;&gt;ENGR 232</title>
<path fill="none" stroke="#000000" d="M631.6874,-1223.9792C629.5423,-1182.4807 629.2499,-1078.3457 673,-1008 679.9099,-996.8895 689.6094,-986.4551 698.9977,-977.776"/>
<polygon fill="#000000" stroke="#000000" points="701.5733,-980.1704 706.7425,-970.9221 696.9343,-974.9283 701.5733,-980.1704"/>
</g>
<!-- MATH 121 -->
<g id="node25" class="node">
<title>MATH 121</title>
<ellipse fill="none" stroke="#00ff00" cx="813" cy="-1242" rx="61.99" ry="18"/>
<text text-anchor="middle" x="813" y="-1238.3" font-family="Times,serif" font-size="14.00" fill="#000000">MATH 121</text>
</g>
<!-- MATH 122 -->
<g id="node34" class="node">
<title>MATH 122</title>
<ellipse fill="none" stroke="#00ff00" cx="813" cy="-1170" rx="61.99" ry="18"/>
<text text-anchor="middle" x="813" y="-1166.3" font-family="Times,serif" font-size="14.00" fill="#000000">MATH 122</text>
</g>
<!-- MATH 121&#45;&gt;MATH 122 -->
<g id="edge25" class="edge">
<title>MATH 121&#45;&gt;MATH 122</title>
<path fill="none" stroke="#000000" d="M813,-1223.8314C813,-1216.131 813,-1206.9743 813,-1198.4166"/>
<polygon fill="#000000" stroke="#000000" points="816.5001,-1198.4132 813,-1188.4133 809.5001,-1198.4133 816.5001,-1198.4132"/>
</g>
<!-- CS 190 -->
<g id="node26" class="node">
<title>CS 190</title>
<polygon fill="none" stroke="#00ff00" points="1391,-1260 1327.6562,-1242 1391,-1224 1454.3438,-1242 1391,-1260"/>
<text text-anchor="middle" x="1391" y="-1238.3" font-family="Times,serif" font-size="14.00" fill="#000000">CS 190</text>
</g>
<!-- TGFE 099 -->
<g id="node27" class="node">
<title>TGFE 099</title>
<polygon fill="none" stroke="#00ff00" points="1554,-1260 1472.3895,-1242 1554,-1224 1635.6105,-1242 1554,-1260"/>
<text text-anchor="middle" x="1554" y="-1238.3" font-family="Times,serif" font-size="14.00" fill="#000000">TGFE 099</text>
</g>
<!-- SPAN 101 -->
<g id="node28" class="node">
<title>SPAN 101</title>
<polygon fill="none" stroke="#00ff00" points="1787.5876,-1242 1754.2938,-1260 1687.7062,-1260 1654.4124,-1242 1687.7062,-1224 1754.2938,-1224 1787.5876,-1242"/>
<text text-anchor="middle" x="1721" y="-1238.3" font-family="Times,serif" font-size="14.00" fill="#000000">SPAN 101</text>
</g>
<!-- CIVC 101 -->
<g id="node29" class="node">
<title>CIVC 101</title>
<ellipse fill="none" stroke="#00ff00" cx="1384" cy="-1170" rx="56.59" ry="18"/>
<text text-anchor="middle" x="1384" y="-1166.3" font-family="Times,serif" font-size="14.00" fill="#000000">CIVC 101</text>
</g>
<!-- ENGL 103 -->
<g id="node36" class="node">
<title>ENGL 103</title>
<ellipse fill="none" stroke="#00ff00" cx="356" cy="-1098" rx="59.5901" ry="18"/>
<text text-anchor="middle" x="356" y="-1094.3" font-family="Times,serif" font-size="14.00" fill="#000000">ENGL 103</text>
</g>
<!-- ENGL 102&#45;&gt;ENGL 103 -->
<g id="edge19" class="edge">
<title>ENGL 102&#45;&gt;ENGL 103</title>
<path fill="none" stroke="#000000" d="M356,-1151.8314C356,-1144.131 356,-1134.9743 356,-1126.4166"/>
<polygon fill="#000000" stroke="#000000" points="359.5001,-1126.4132 356,-1116.4133 352.5001,-1126.4133 359.5001,-1126.4132"/>
</g>
<!-- ENGR 220 -->
<g id="node43" class="node">
<title>ENGR 220</title>
<ellipse fill="none" stroke="#ffa500" cx="893" cy="-1026" rx="60.3893" ry="18"/>
<text text-anchor="middle" x="893" y="-1022.3" font-family="Times,serif" font-size="14.00" fill="#000000">ENGR 220</text>
</g>
<!-- CHEM 102&#45;&gt;ENGR 220 -->
<g id="edge36" class="edge">
<title>CHEM 102&#45;&gt;ENGR 220</title>
<path fill="none" stroke="#000000" d="M947.958,-1152.0185C943.2774,-1141.5247 937.2774,-1128.0247 932,-1116 922.7612,-1094.9491 912.4209,-1071.0721 904.71,-1053.2037"/>
<polygon fill="#000000" stroke="#000000" points="907.8939,-1051.748 900.7205,-1043.9511 901.466,-1054.5197 907.8939,-1051.748"/>
</g>
<!-- ENGR 103 -->
<g id="node37" class="node">
<title>ENGR 103</title>
<ellipse fill="none" stroke="#00ff00" cx="1249" cy="-1098" rx="60.3893" ry="18"/>
<text text-anchor="middle" x="1249" y="-1094.3" font-family="Times,serif" font-size="14.00" fill="#000000">ENGR 103</text>
</g>
<!-- ENGR 102&#45;&gt;ENGR 103 -->
<g id="edge29" class="edge">
<title>ENGR 102&#45;&gt;ENGR 103</title>
<path fill="none" stroke="#000000" d="M1249,-1151.8314C1249,-1144.131 1249,-1134.9743 1249,-1126.4166"/>
<polygon fill="#000000" stroke="#000000" points="1252.5001,-1126.4132 1249,-1116.4133 1245.5001,-1126.4133 1252.5001,-1126.4132"/>
</g>
<!-- ENGR 122 -->
<g id="node33" class="node">
<title>ENGR 122</title>
<ellipse fill="none" stroke="#00ff00" cx="1519" cy="-1170" rx="60.3893" ry="18"/>
<text text-anchor="middle" x="1519" y="-1166.3" font-family="Times,serif" font-size="14.00" fill="#000000">ENGR 122</text>
</g>
<!-- MATH 200 -->
<g id="node41" class="node">
<title>MATH 200</title>
<ellipse fill="none" stroke="#00ff00" cx="742" cy="-1098" rx="61.99" ry="18"/>
<text text-anchor="middle" x="742" y="-1094.3" font-family="Times,serif" font-size="14.00" fill="#000000">MATH 200</text>
</g>
<!-- MATH 122&#45;&gt;MATH 200 -->
<g id="edge26" class="edge">
<title>MATH 122&#45;&gt;MATH 200</title>
<path fill="none" stroke="#000000" d="M795.8129,-1152.5708C786.9828,-1143.6164 776.0711,-1132.551 766.3867,-1122.7302"/>
<polygon fill="#000000" stroke="#000000" points="768.7885,-1120.1811 759.2749,-1115.5182 763.8043,-1125.0961 768.7885,-1120.1811"/>
</g>
<!-- ENGR 201 -->
<g id="node42" class="node">
<title>ENGR 201</title>
<ellipse fill="none" stroke="#ffa500" cx="1161" cy="-1026" rx="60.3893" ry="18"/>
<text text-anchor="middle" x="1161" y="-1022.3" font-family="Times,serif" font-size="14.00" fill="#000000">ENGR 201</text>
</g>
<!-- MATH 122&#45;&gt;ENGR 201 -->
<g id="edge32" class="edge">
<title>MATH 122&#45;&gt;ENGR 201</title>
<path fill="none" stroke="#000000" d="M858.7028,-1157.8241C867.089,-1155.758 875.7865,-1153.7257 884,-1152 978.8156,-1132.0784 1017.2614,-1168.0161 1099,-1116 1122.3538,-1101.1383 1139.2257,-1073.9852 1149.4188,-1053.3773"/>
<polygon fill="#000000" stroke="#000000" points="1152.6681,-1054.6922 1153.7583,-1044.1535 1146.3341,-1051.7121 1152.6681,-1054.6922"/>
</g>
<!-- MATH 122&#45;&gt;ENGR 220 -->
<g id="edge37" class="edge">
<title>MATH 122&#45;&gt;ENGR 220</title>
<path fill="none" stroke="#000000" d="M822.9703,-1152.0535C836.8033,-1127.154 861.928,-1081.9295 878.0219,-1052.9606"/>
<polygon fill="#000000" stroke="#000000" points="881.1071,-1054.6141 882.904,-1044.1727 874.988,-1051.2145 881.1071,-1054.6141"/>
</g>
<!-- MATH 122&#45;&gt;ENGR 231 -->
<g id="edge40" class="edge">
<title>MATH 122&#45;&gt;ENGR 231</title>
<path fill="none" stroke="#000000" d="M817.4792,-1152.0312C821.2198,-1133.0658 824.3133,-1102.8181 813,-1080 806.2928,-1066.4721 794.3958,-1055.4158 782.2351,-1046.9106"/>
<polygon fill="#000000" stroke="#000000" points="784.1224,-1043.9629 773.8345,-1041.431 780.298,-1049.8259 784.1224,-1043.9629"/>
</g>
<!-- PHYS 101 -->
<g id="node35" class="node">
<title>PHYS 101</title>
<ellipse fill="none" stroke="#00ff00" cx="1096" cy="-1170" rx="58.4896" ry="18"/>
<text text-anchor="middle" x="1096" y="-1166.3" font-family="Times,serif" font-size="14.00" fill="#000000">PHYS 101</text>
</g>
<!-- PHYS 102 -->
<g id="node40" class="node">
<title>PHYS 102</title>
<ellipse fill="none" stroke="#00ff00" cx="1032" cy="-1098" rx="58.4896" ry="18"/>
<text text-anchor="middle" x="1032" y="-1094.3" font-family="Times,serif" font-size="14.00" fill="#000000">PHYS 102</text>
</g>
<!-- PHYS 101&#45;&gt;PHYS 102 -->
<g id="edge22" class="edge">
<title>PHYS 101&#45;&gt;PHYS 102</title>
<path fill="none" stroke="#000000" d="M1080.5074,-1152.5708C1072.6259,-1143.7041 1062.9047,-1132.7678 1054.2394,-1123.0194"/>
<polygon fill="#000000" stroke="#000000" points="1056.8314,-1120.6671 1047.5718,-1115.5182 1051.5995,-1125.3176 1056.8314,-1120.6671"/>
</g>
<!-- PHYS 101&#45;&gt;ENGR 201 -->
<g id="edge33" class="edge">
<title>PHYS 101&#45;&gt;ENGR 201</title>
<path fill="none" stroke="#000000" d="M1111.0198,-1152.501C1119.0706,-1142.3853 1128.618,-1129.0992 1135,-1116 1144.5871,-1096.3222 1151.2799,-1072.4598 1155.4719,-1054.2513"/>
<polygon fill="#000000" stroke="#000000" points="1158.94,-1054.7747 1157.654,-1044.2582 1152.1011,-1053.2813 1158.94,-1054.7747"/>
</g>
<!-- PHYS 101&#45;&gt;ENGR 220 -->
<g id="edge38" class="edge">
<title>PHYS 101&#45;&gt;ENGR 220</title>
<path fill="none" stroke="#000000" d="M1052.1581,-1158.0779C1025.2516,-1149.3356 991.0751,-1135.5572 965,-1116 952.5091,-1106.6314 928.4898,-1075.2382 911.6401,-1052.1553"/>
<polygon fill="#000000" stroke="#000000" points="914.2732,-1049.824 905.5723,-1043.7787 908.6042,-1053.9304 914.2732,-1049.824"/>
</g>
<!-- ENGR 103&#45;&gt;ENGR 201 -->
<g id="edge34" class="edge">
<title>ENGR 103&#45;&gt;ENGR 201</title>
<path fill="none" stroke="#000000" d="M1228.1452,-1080.937C1216.638,-1071.522 1202.1781,-1059.6912 1189.627,-1049.4221"/>
<polygon fill="#000000" stroke="#000000" points="1191.661,-1046.5641 1181.7051,-1042.9405 1187.2283,-1051.9818 1191.661,-1046.5641"/>
</g>
<!-- ECE 200 -->
<g id="node46" class="node">
<title>ECE 200</title>
<ellipse fill="none" stroke="#ffa500" cx="1448" cy="-1026" rx="51.9908" ry="18"/>
<text text-anchor="middle" x="1448" y="-1022.3" font-family="Times,serif" font-size="14.00" fill="#000000">ECE 200</text>
</g>
<!-- ENGR 103&#45;&gt;ECE 200 -->
<g id="edge30" class="edge">
<title>ENGR 103&#45;&gt;ECE 200</title>
<path fill="none" stroke="#000000" d="M1287.8416,-1083.9468C1320.7197,-1072.0512 1367.8865,-1054.9858 1402.5214,-1042.4546"/>
<polygon fill="#000000" stroke="#000000" points="1403.7229,-1045.742 1411.9356,-1039.0484 1401.3413,-1039.1595 1403.7229,-1045.742"/>
</g>
<!-- ECEL 301 -->
<g id="node56" class="node">
<title>ECEL 301</title>
<ellipse fill="none" stroke="#000000" cx="1249" cy="-738" rx="58.4896" ry="18"/>
<text text-anchor="middle" x="1249" y="-734.3" font-family="Times,serif" font-size="14.00" fill="#000000">ECEL 301</text>
</g>
<!-- ENGR 103&#45;&gt;ECEL 301 -->
<g id="edge64" class="edge">
<title>ENGR 103&#45;&gt;ECEL 301</title>
<path fill="none" stroke="#000000" d="M1249,-1079.8146C1249,-1052.4983 1249,-999.25 1249,-954 1249,-954 1249,-954 1249,-882 1249,-841.876 1249,-795.4631 1249,-766.4177"/>
<polygon fill="#000000" stroke="#000000" points="1252.5001,-766.1853 1249,-756.1854 1245.5001,-766.1854 1252.5001,-766.1853"/>
</g>
<!-- BIO 141 -->
<g id="node38" class="node">
<title>BIO 141</title>
<ellipse fill="none" stroke="#00ff00" cx="1377" cy="-1098" rx="50.0912" ry="18"/>
<text text-anchor="middle" x="1377" y="-1094.3" font-family="Times,serif" font-size="14.00" fill="#000000">BIO 141</text>
</g>
<!-- COOP 101 -->
<g id="node39" class="node">
<title>COOP 101</title>
<ellipse fill="none" stroke="#00ff00" cx="1505" cy="-1098" rx="60.3893" ry="18"/>
<text text-anchor="middle" x="1505" y="-1094.3" font-family="Times,serif" font-size="14.00" fill="#000000">COOP 101</text>
</g>
<!-- ECE 201 -->
<g id="node48" class="node">
<title>ECE 201</title>
<ellipse fill="none" stroke="#000000" cx="1031" cy="-954" rx="51.9908" ry="18"/>
<text text-anchor="middle" x="1031" y="-950.3" font-family="Times,serif" font-size="14.00" fill="#000000">ECE 201</text>
</g>
<!-- PHYS 102&#45;&gt;ECE 201 -->
<g id="edge24" class="edge">
<title>PHYS 102&#45;&gt;ECE 201</title>
<path fill="none" stroke="#000000" d="M1031.8733,-1079.7623C1031.7028,-1055.201 1031.3976,-1011.2474 1031.1969,-982.3541"/>
<polygon fill="#000000" stroke="#000000" points="1034.6951,-982.065 1031.1256,-972.0896 1027.6952,-982.1137 1034.6951,-982.065"/>
</g>
<!-- PHYS 201 -->
<g id="node52" class="node">
<title>PHYS 201</title>
<ellipse fill="none" stroke="#000000" cx="903" cy="-954" rx="58.4896" ry="18"/>
<text text-anchor="middle" x="903" y="-950.3" font-family="Times,serif" font-size="14.00" fill="#000000">PHYS 201</text>
</g>
<!-- PHYS 102&#45;&gt;PHYS 201 -->
<g id="edge23" class="edge">
<title>PHYS 102&#45;&gt;PHYS 201</title>
<path fill="none" stroke="#000000" d="M1019.6615,-1080.3846C1006.278,-1061.7143 983.8828,-1031.7107 962,-1008 952.3192,-997.5106 940.8997,-986.7381 930.6989,-977.6012"/>
<polygon fill="#000000" stroke="#000000" points="932.997,-974.9613 923.1847,-970.9648 928.3631,-980.208 932.997,-974.9613"/>
</g>
<!-- MATH 200&#45;&gt;ENGR 231 -->
<g id="edge27" class="edge">
<title>MATH 200&#45;&gt;ENGR 231</title>
<path fill="none" stroke="#000000" d="M742,-1079.8314C742,-1072.131 742,-1062.9743 742,-1054.4166"/>
<polygon fill="#000000" stroke="#000000" points="745.5001,-1054.4132 742,-1044.4133 738.5001,-1054.4133 745.5001,-1054.4132"/>
</g>
<!-- ENGR 202 -->
<g id="node50" class="node">
<title>ENGR 202</title>
<ellipse fill="none" stroke="#000000" cx="1161" cy="-954" rx="60.3893" ry="18"/>
<text text-anchor="middle" x="1161" y="-950.3" font-family="Times,serif" font-size="14.00" fill="#000000">ENGR 202</text>
</g>
<!-- ENGR 201&#45;&gt;ENGR 202 -->
<g id="edge35" class="edge">
<title>ENGR 201&#45;&gt;ENGR 202</title>
<path fill="none" stroke="#000000" d="M1161,-1007.8314C1161,-1000.131 1161,-990.9743 1161,-982.4166"/>
<polygon fill="#000000" stroke="#000000" points="1164.5001,-982.4132 1161,-972.4133 1157.5001,-982.4133 1164.5001,-982.4132"/>
</g>
<!-- ENGR 231&#45;&gt;ENGR 232 -->
<g id="edge42" class="edge">
<title>ENGR 231&#45;&gt;ENGR 232</title>
<path fill="none" stroke="#000000" d="M738.7196,-1007.8314C737.3292,-1000.131 735.6759,-990.9743 734.1308,-982.4166"/>
<polygon fill="#000000" stroke="#000000" points="737.5458,-981.6322 732.3246,-972.4133 730.6572,-982.8761 737.5458,-981.6322"/>
</g>
<!-- ECE 361 -->
<g id="node57" class="node">
<title>ECE 361</title>
<ellipse fill="none" stroke="#000000" cx="1069" cy="-738" rx="51.9908" ry="18"/>
<text text-anchor="middle" x="1069" y="-734.3" font-family="Times,serif" font-size="14.00" fill="#000000">ECE 361</text>
</g>
<!-- ENGR 231&#45;&gt;ECE 361 -->
<g id="edge47" class="edge">
<title>ENGR 231&#45;&gt;ECE 361</title>
<path fill="none" stroke="#000000" d="M759.939,-1008.714C785.0456,-984.5383 828.4511,-942.8105 836,-936 908.1696,-870.8903 996.299,-797.627 1040.6372,-761.1826"/>
<polygon fill="#000000" stroke="#000000" points="1042.884,-763.8664 1048.3928,-754.8163 1038.4427,-758.4558 1042.884,-763.8664"/>
</g>
<!-- ECE 203 -->
<g id="node45" class="node">
<title>ECE 203</title>
<ellipse fill="none" stroke="#ffa500" cx="1744" cy="-1026" rx="51.9908" ry="18"/>
<text text-anchor="middle" x="1744" y="-1022.3" font-family="Times,serif" font-size="14.00" fill="#000000">ECE 203</text>
</g>
<!-- ECEC 301 -->
<g id="node49" class="node">
<title>ECEC 301</title>
<ellipse fill="none" stroke="#000000" cx="1893" cy="-954" rx="59.5901" ry="18"/>
<text text-anchor="middle" x="1893" y="-950.3" font-family="Times,serif" font-size="14.00" fill="#000000">ECEC 301</text>
</g>
<!-- ECE 203&#45;&gt;ECEC 301 -->
<g id="edge43" class="edge">
<title>ECE 203&#45;&gt;ECEC 301</title>
<path fill="none" stroke="#000000" d="M1774.5119,-1011.256C1796.9341,-1000.4211 1827.6386,-985.584 1852.1728,-973.7286"/>
<polygon fill="#000000" stroke="#000000" points="1853.7624,-976.8477 1861.2435,-969.3454 1850.7168,-970.545 1853.7624,-976.8477"/>
</g>
<!-- ECEC 302 -->
<g id="node55" class="node">
<title>ECEC 302</title>
<ellipse fill="none" stroke="#000000" cx="1650" cy="-738" rx="59.5901" ry="18"/>
<text text-anchor="middle" x="1650" y="-734.3" font-family="Times,serif" font-size="14.00" fill="#000000">ECEC 302</text>
</g>
<!-- ECE 203&#45;&gt;ECEC 302 -->
<g id="edge53" class="edge">
<title>ECE 203&#45;&gt;ECEC 302</title>
<path fill="none" stroke="#000000" d="M1738.1199,-1007.9843C1722.1949,-959.1929 1678.147,-824.2377 1659.0386,-765.6927"/>
<polygon fill="#000000" stroke="#000000" points="1662.308,-764.4293 1655.8779,-756.0089 1655.6535,-766.6013 1662.308,-764.4293"/>
</g>
<!-- ECEC 357 -->
<g id="node59" class="node">
<title>ECEC 357</title>
<ellipse fill="none" stroke="#000000" cx="1788" cy="-738" rx="59.5901" ry="18"/>
<text text-anchor="middle" x="1788" y="-734.3" font-family="Times,serif" font-size="14.00" fill="#000000">ECEC 357</text>
</g>
<!-- ECE 203&#45;&gt;ECEC 357 -->
<g id="edge63" class="edge">
<title>ECE 203&#45;&gt;ECEC 357</title>
<path fill="none" stroke="#000000" d="M1746.7524,-1007.9843C1754.1912,-959.2939 1774.7395,-824.7961 1783.7135,-766.0573"/>
<polygon fill="#000000" stroke="#000000" points="1787.1982,-766.4228 1785.2486,-756.0089 1780.2785,-765.3656 1787.1982,-766.4228"/>
</g>
<!-- ECEC 304 -->
<g id="node60" class="node">
<title>ECEC 304</title>
<ellipse fill="none" stroke="#000000" cx="1493" cy="-666" rx="59.5901" ry="18"/>
<text text-anchor="middle" x="1493" y="-662.3" font-family="Times,serif" font-size="14.00" fill="#000000">ECEC 304</text>
</g>
<!-- ECE 203&#45;&gt;ECEC 304 -->
<g id="edge55" class="edge">
<title>ECE 203&#45;&gt;ECEC 304</title>
<path fill="none" stroke="#000000" d="M1731.5529,-1008.1475C1690.5725,-949.3709 1559.7266,-761.7034 1511.2736,-692.2092"/>
<polygon fill="#000000" stroke="#000000" points="1514.1127,-690.1615 1505.5223,-683.9602 1508.3706,-694.165 1514.1127,-690.1615"/>
</g>
<!-- MATH 221 -->
<g id="node53" class="node">
<title>MATH 221</title>
<ellipse fill="none" stroke="#000000" cx="1339" cy="-954" rx="61.99" ry="18"/>
<text text-anchor="middle" x="1339" y="-950.3" font-family="Times,serif" font-size="14.00" fill="#000000">MATH 221</text>
</g>
<!-- ECE 200&#45;&gt;MATH 221 -->
<g id="edge31" class="edge">
<title>ECE 200&#45;&gt;MATH 221</title>
<path fill="none" stroke="#000000" d="M1423.8094,-1010.0209C1408.8861,-1000.1633 1389.5172,-987.3692 1373.0576,-976.4967"/>
<polygon fill="#000000" stroke="#000000" points="1374.5324,-973.2763 1364.2593,-970.6851 1370.6742,-979.1171 1374.5324,-973.2763"/>
</g>
<!-- ECE 200&#45;&gt;ECEC 302 -->
<g id="edge54" class="edge">
<title>ECE 200&#45;&gt;ECEC 302</title>
<path fill="none" stroke="#000000" d="M1473.7477,-1010.2215C1488.247,-1000.4619 1505.997,-986.9619 1519,-972 1576.19,-906.1943 1619.8068,-811.4542 1639.1071,-765.3204"/>
<polygon fill="#000000" stroke="#000000" points="1642.3818,-766.5599 1642.9585,-755.9808 1635.9104,-763.8912 1642.3818,-766.5599"/>
</g>
<!-- ECE 200&#45;&gt;ECEL 301 -->
<g id="edge65" class="edge">
<title>ECE 200&#45;&gt;ECEL 301</title>
<path fill="none" stroke="#000000" d="M1442.1167,-1008.0339C1435.6105,-989.3359 1424.1526,-959.551 1410,-936 1369.265,-868.2138 1307.0613,-798.6941 1273.1323,-762.8145"/>
<polygon fill="#000000" stroke="#000000" points="1275.3728,-760.0921 1265.9408,-755.2663 1270.3047,-764.9207 1275.3728,-760.0921"/>
</g>
<!-- ECE 200&#45;&gt;ECEC 304 -->
<g id="edge56" class="edge">
<title>ECE 200&#45;&gt;ECEC 304</title>
<path fill="none" stroke="#000000" d="M1451.9368,-1007.9156C1457.502,-980.7281 1467,-927.6422 1467,-882 1467,-882 1467,-882 1467,-810 1467,-769.0476 1477.3096,-722.5715 1484.9448,-693.7668"/>
<polygon fill="#000000" stroke="#000000" points="1488.3547,-694.5658 1487.6128,-683.997 1481.602,-692.7217 1488.3547,-694.5658"/>
</g>
<!-- ECEC 355 -->
<g id="node61" class="node">
<title>ECEC 355</title>
<ellipse fill="none" stroke="#000000" cx="1637" cy="-666" rx="59.5901" ry="18"/>
<text text-anchor="middle" x="1637" y="-662.3" font-family="Times,serif" font-size="14.00" fill="#000000">ECEC 355</text>
</g>
<!-- ECE 200&#45;&gt;ECEC 355 -->
<g id="edge58" class="edge">
<title>ECE 200&#45;&gt;ECEC 355</title>
<path fill="none" stroke="#000000" d="M1460.0882,-1008.2577C1476.8201,-981.9272 1505,-930.3972 1505,-882 1505,-882 1505,-882 1505,-810 1505,-754.584 1558.7774,-711.2439 1597.6819,-687.1407"/>
<polygon fill="#000000" stroke="#000000" points="1599.9434,-689.8654 1606.7165,-681.7183 1596.3411,-683.8635 1599.9434,-689.8654"/>
</g>
<!-- PHIL 111 -->
<g id="node47" class="node">
<title>PHIL 111</title>
<polygon fill="none" stroke="#ffa500" points="2059.5841,-1026 2027.292,-1044 1962.708,-1044 1930.4159,-1026 1962.708,-1008 2027.292,-1008 2059.5841,-1026"/>
<text text-anchor="middle" x="1995" y="-1022.3" font-family="Times,serif" font-size="14.00" fill="#000000">PHIL 111</text>
</g>
<!-- PHIL 207 -->
<g id="node54" class="node">
<title>PHIL 207</title>
<polygon fill="none" stroke="#000000" points="2059.5841,-882 2027.292,-900 1962.708,-900 1930.4159,-882 1962.708,-864 2027.292,-864 2059.5841,-882"/>
<text text-anchor="middle" x="1995" y="-878.3" font-family="Times,serif" font-size="14.00" fill="#000000">PHIL 207</text>
</g>
<!-- PHIL 111&#45;&gt;PHIL 207 -->
<g id="edge20" class="edge">
<title>PHIL 111&#45;&gt;PHIL 207</title>
<path fill="none" stroke="#000000" d="M1995,-1007.7623C1995,-983.201 1995,-939.2474 1995,-910.3541"/>
<polygon fill="#000000" stroke="#000000" points="1998.5001,-910.0896 1995,-900.0896 1991.5001,-910.0897 1998.5001,-910.0896"/>
</g>
<!-- ECE 201&#45;&gt;ECEL 301 -->
<g id="edge66" class="edge">
<title>ECE 201&#45;&gt;ECEL 301</title>
<path fill="none" stroke="#000000" d="M1048.4713,-936.6889C1087.0577,-898.4566 1179.6508,-806.713 1224.2134,-762.5592"/>
<polygon fill="#000000" stroke="#000000" points="1226.8053,-764.9182 1231.4454,-755.3935 1221.8784,-759.9457 1226.8053,-764.9182"/>
</g>
<!-- ECES 301 -->
<g id="node63" class="node">
<title>ECES 301</title>
<ellipse fill="none" stroke="#000000" cx="919" cy="-666" rx="58.4896" ry="18"/>
<text text-anchor="middle" x="919" y="-662.3" font-family="Times,serif" font-size="14.00" fill="#000000">ECES 301</text>
</g>
<!-- ECE 201&#45;&gt;ECES 301 -->
<g id="edge69" class="edge">
<title>ECE 201&#45;&gt;ECES 301</title>
<path fill="none" stroke="#000000" d="M1023.9939,-935.9843C1004.9802,-887.0919 952.3194,-751.6785 929.6284,-693.33"/>
<polygon fill="#000000" stroke="#000000" points="932.89,-692.0603 926.0035,-684.0089 926.366,-694.5975 932.89,-692.0603"/>
</g>
<!-- CS 265 -->
<g id="node58" class="node">
<title>CS 265</title>
<ellipse fill="none" stroke="#000000" cx="1911" cy="-738" rx="44.6926" ry="18"/>
<text text-anchor="middle" x="1911" y="-734.3" font-family="Times,serif" font-size="14.00" fill="#000000">CS 265</text>
</g>
<!-- ECEC 301&#45;&gt;CS 265 -->
<g id="edge44" class="edge">
<title>ECEC 301&#45;&gt;CS 265</title>
<path fill="none" stroke="#000000" d="M1894.5037,-935.9555C1897.6405,-898.3144 1904.9011,-811.1867 1908.6563,-766.1246"/>
<polygon fill="#000000" stroke="#000000" points="1912.1453,-766.4012 1909.4879,-756.1451 1905.1695,-765.8198 1912.1453,-766.4012"/>
</g>
<!-- ENGR 202&#45;&gt;ECE 361 -->
<g id="edge48" class="edge">
<title>ENGR 202&#45;&gt;ECE 361</title>
<path fill="none" stroke="#000000" d="M1153.3144,-935.9555C1137.1743,-898.0613 1099.6721,-810.0128 1080.5943,-765.2213"/>
<polygon fill="#000000" stroke="#000000" points="1083.7378,-763.67 1076.5991,-755.8413 1077.2976,-766.413 1083.7378,-763.67"/>
</g>
<!-- ENGR 232&#45;&gt;ECES 301 -->
<g id="edge70" class="edge">
<title>ENGR 232&#45;&gt;ECES 301</title>
<path fill="none" stroke="#000000" d="M735.0821,-936.0313C746.0052,-905.092 770.8379,-840.4223 803,-792 828.9411,-752.9439 866.9366,-714.196 892.2939,-690.1951"/>
<polygon fill="#000000" stroke="#000000" points="894.8203,-692.6244 899.7303,-683.236 890.0373,-687.5134 894.8203,-692.6244"/>
</g>
<!-- ECEC 302&#45;&gt;ECEC 355 -->
<g id="edge59" class="edge">
<title>ECEC 302&#45;&gt;ECEC 355</title>
<path fill="none" stroke="#000000" d="M1646.7196,-719.8314C1645.3292,-712.131 1643.6759,-702.9743 1642.1308,-694.4166"/>
<polygon fill="#000000" stroke="#000000" points="1645.5458,-693.6322 1640.3246,-684.4133 1638.6572,-694.8761 1645.5458,-693.6322"/>
</g>
<!-- ECEL 302 -->
<g id="node62" class="node">
<title>ECEL 302</title>
<ellipse fill="none" stroke="#000000" cx="1249" cy="-666" rx="58.4896" ry="18"/>
<text text-anchor="middle" x="1249" y="-662.3" font-family="Times,serif" font-size="14.00" fill="#000000">ECEL 302</text>
</g>
<!-- ECEL 301&#45;&gt;ECEL 302 -->
<g id="edge67" class="edge">
<title>ECEL 301&#45;&gt;ECEL 302</title>
<path fill="none" stroke="#000000" d="M1249,-719.8314C1249,-712.131 1249,-702.9743 1249,-694.4166"/>
<polygon fill="#000000" stroke="#000000" points="1252.5001,-694.4132 1249,-684.4133 1245.5001,-694.4133 1252.5001,-694.4132"/>
</g>
<!-- ECE 491 -->
<g id="node72" class="node">
<title>ECE 491</title>
<ellipse fill="none" stroke="#000000" cx="1109" cy="-162" rx="51.9908" ry="18"/>
<text text-anchor="middle" x="1109" y="-158.3" font-family="Times,serif" font-size="14.00" fill="#000000">ECE 491</text>
</g>
<!-- ECE 361&#45;&gt;ECE 491 -->
<g id="edge49" class="edge">
<title>ECE 361&#45;&gt;ECE 491</title>
<path fill="none" stroke="#000000" d="M1069,-719.8146C1069,-692.4983 1069,-639.25 1069,-594 1069,-594 1069,-594 1069,-306 1069,-264.2219 1084.824,-218.0316 1096.5664,-189.5067"/>
<polygon fill="#000000" stroke="#000000" points="1099.8354,-190.7629 1100.517,-180.19 1093.3908,-188.0301 1099.8354,-190.7629"/>
</g>
<!-- CS 260 -->
<g id="node64" class="node">
<title>CS 260</title>
<ellipse fill="none" stroke="#000000" cx="1849" cy="-666" rx="44.6926" ry="18"/>
<text text-anchor="middle" x="1849" y="-662.3" font-family="Times,serif" font-size="14.00" fill="#000000">CS 260</text>
</g>
<!-- CS 265&#45;&gt;CS 260 -->
<g id="edge45" class="edge">
<title>CS 265&#45;&gt;CS 260</title>
<path fill="none" stroke="#000000" d="M1896.3069,-720.937C1888.6213,-712.0119 1879.0665,-700.9159 1870.5599,-691.0373"/>
<polygon fill="#000000" stroke="#000000" points="1873.1958,-688.7345 1864.0184,-683.4407 1867.8914,-693.3022 1873.1958,-688.7345"/>
</g>
<!-- ECEC 353 -->
<g id="node65" class="node">
<title>ECEC 353</title>
<ellipse fill="none" stroke="#000000" cx="1972" cy="-666" rx="59.5901" ry="18"/>
<text text-anchor="middle" x="1972" y="-662.3" font-family="Times,serif" font-size="14.00" fill="#000000">ECEC 353</text>
</g>
<!-- CS 265&#45;&gt;ECEC 353 -->
<g id="edge57" class="edge">
<title>CS 265&#45;&gt;ECEC 353</title>
<path fill="none" stroke="#000000" d="M1925.4561,-720.937C1932.8878,-712.1652 1942.096,-701.2965 1950.3555,-691.5476"/>
<polygon fill="#000000" stroke="#000000" points="1953.2168,-693.5848 1957.0106,-683.6924 1947.8759,-689.0598 1953.2168,-693.5848"/>
</g>
<!-- ECEC 413 -->
<g id="node68" class="node">
<title>ECEC 413</title>
<polygon fill="none" stroke="#000000" points="1609,-468 1517,-468 1517,-432 1609,-432 1609,-468"/>
<text text-anchor="middle" x="1563" y="-446.3" font-family="Times,serif" font-size="14.00" fill="#000000">ECEC 413</text>
</g>
<!-- ECEC 355&#45;&gt;ECEC 413 -->
<g id="edge60" class="edge">
<title>ECEC 355&#45;&gt;ECEC 413</title>
<path fill="none" stroke="#000000" d="M1630.8181,-647.9555C1617.8953,-610.235 1587.9472,-522.8188 1572.5377,-477.8399"/>
<polygon fill="#000000" stroke="#000000" points="1575.7685,-476.4709 1569.2164,-468.1451 1569.1464,-478.7397 1575.7685,-476.4709"/>
</g>
<!-- ECEC 457 -->
<g id="node71" class="node">
<title>ECEC 457</title>
<polygon fill="none" stroke="#000000" points="1683,-396 1591,-396 1591,-360 1683,-360 1683,-396"/>
<text text-anchor="middle" x="1637" y="-374.3" font-family="Times,serif" font-size="14.00" fill="#000000">ECEC 457</text>
</g>
<!-- ECEC 355&#45;&gt;ECEC 457 -->
<g id="edge61" class="edge">
<title>ECEC 355&#45;&gt;ECEC 457</title>
<path fill="none" stroke="#000000" d="M1637,-647.9843C1637,-599.2939 1637,-464.7961 1637,-406.0573"/>
<polygon fill="#000000" stroke="#000000" points="1640.5001,-406.0088 1637,-396.0089 1633.5001,-406.0089 1640.5001,-406.0088"/>
</g>
<!-- ECEC 432 -->
<g id="node73" class="node">
<title>ECEC 432</title>
<polygon fill="none" stroke="#000000" points="1757,-180 1665,-180 1665,-144 1757,-144 1757,-180"/>
<text text-anchor="middle" x="1711" y="-158.3" font-family="Times,serif" font-size="14.00" fill="#000000">ECEC 432</text>
</g>
<!-- ECEC 355&#45;&gt;ECEC 432 -->
<g id="edge62" class="edge">
<title>ECEC 355&#45;&gt;ECEC 432</title>
<path fill="none" stroke="#000000" d="M1653.0569,-648.4095C1674.8209,-622.669 1711,-572.313 1711,-522 1711,-522 1711,-522 1711,-306 1711,-265.876 1711,-219.4631 1711,-190.4177"/>
<polygon fill="#000000" stroke="#000000" points="1714.5001,-190.1853 1711,-180.1854 1707.5001,-190.1854 1714.5001,-190.1853"/>
</g>
<!-- ECEL 303 -->
<g id="node66" class="node">
<title>ECEL 303</title>
<ellipse fill="none" stroke="#000000" cx="1249" cy="-450" rx="58.4896" ry="18"/>
<text text-anchor="middle" x="1249" y="-446.3" font-family="Times,serif" font-size="14.00" fill="#000000">ECEL 303</text>
</g>
<!-- ECEL 302&#45;&gt;ECEL 303 -->
<g id="edge68" class="edge">
<title>ECEL 302&#45;&gt;ECEL 303</title>
<path fill="none" stroke="#000000" d="M1249,-647.9555C1249,-610.3938 1249,-523.5541 1249,-478.4103"/>
<polygon fill="#000000" stroke="#000000" points="1252.5001,-478.145 1249,-468.1451 1245.5001,-478.1451 1252.5001,-478.145"/>
</g>
<!-- CS 361 -->
<g id="node70" class="node">
<title>CS 361</title>
<polygon fill="none" stroke="#000000" points="1883.5,-396 1814.5,-396 1814.5,-360 1883.5,-360 1883.5,-396"/>
<text text-anchor="middle" x="1849" y="-374.3" font-family="Times,serif" font-size="14.00" fill="#000000">CS 361</text>
</g>
<!-- CS 260&#45;&gt;CS 361 -->
<g id="edge46" class="edge">
<title>CS 260&#45;&gt;CS 361</title>
<path fill="none" stroke="#000000" d="M1849,-647.9843C1849,-599.2939 1849,-464.7961 1849,-406.0573"/>
<polygon fill="#000000" stroke="#000000" points="1852.5001,-406.0088 1849,-396.0089 1845.5001,-406.0089 1852.5001,-406.0088"/>
</g>
<!-- PHIL 315 -->
<g id="node67" class="node">
<title>PHIL 315</title>
<ellipse fill="none" stroke="#000000" cx="1933" cy="-450" rx="55.7903" ry="18"/>
<text text-anchor="middle" x="1933" y="-446.3" font-family="Times,serif" font-size="14.00" fill="#000000">PHIL 315</text>
</g>
<!-- ECE 391 -->
<g id="node69" class="node">
<title>ECE 391</title>
<ellipse fill="none" stroke="#000000" cx="1149" cy="-378" rx="51.9908" ry="18"/>
<text text-anchor="middle" x="1149" y="-374.3" font-family="Times,serif" font-size="14.00" fill="#000000">ECE 391</text>
</g>
<!-- ECE 391&#45;&gt;ECE 491 -->
<g id="edge50" class="edge">
<title>ECE 391&#45;&gt;ECE 491</title>
<path fill="none" stroke="#000000" d="M1145.6584,-359.9555C1138.6878,-322.3144 1122.5531,-235.1867 1114.2083,-190.1246"/>
<polygon fill="#000000" stroke="#000000" points="1117.6227,-189.3405 1112.3602,-180.1451 1110.7397,-190.6152 1117.6227,-189.3405"/>
</g>
<!-- ECE 492 -->
<g id="node74" class="node">
<title>ECE 492</title>
<ellipse fill="none" stroke="#000000" cx="1109" cy="-90" rx="51.9908" ry="18"/>
<text text-anchor="middle" x="1109" y="-86.3" font-family="Times,serif" font-size="14.00" fill="#000000">ECE 492</text>
</g>
<!-- ECE 491&#45;&gt;ECE 492 -->
<g id="edge51" class="edge">
<title>ECE 491&#45;&gt;ECE 492</title>
<path fill="none" stroke="#000000" d="M1109,-143.8314C1109,-136.131 1109,-126.9743 1109,-118.4166"/>
<polygon fill="#000000" stroke="#000000" points="1112.5001,-118.4132 1109,-108.4133 1105.5001,-118.4133 1112.5001,-118.4132"/>
</g>
<!-- ECE 493 -->
<g id="node75" class="node">
<title>ECE 493</title>
<ellipse fill="none" stroke="#000000" cx="1109" cy="-18" rx="51.9908" ry="18"/>
<text text-anchor="middle" x="1109" y="-14.3" font-family="Times,serif" font-size="14.00" fill="#000000">ECE 493</text>
</g>
<!-- ECE 492&#45;&gt;ECE 493 -->
<g id="edge52" class="edge">
<title>ECE 492&#45;&gt;ECE 493</title>
<path fill="none" stroke="#000000" d="M1109,-71.8314C1109,-64.131 1109,-54.9743 1109,-46.4166"/>
<polygon fill="#000000" stroke="#000000" points="1112.5001,-46.4132 1109,-36.4133 1105.5001,-46.4133 1112.5001,-46.4132"/>
</g>
</g>
</svg>
