<?xml version="1.0" encoding="UTF-8" standalone="no"?>
<!DOCTYPE svg PUBLIC "-//W3C//DTD SVG 1.1//EN"
 "http://www.w3.org/Graphics/SVG/1.1/DTD/svg11.dtd">
<!-- Generated by graphviz version 2.38.0 (20140413.2041)
 -->
<!-- Title: Classes Pages: 1 -->
<svg width="2035pt" height="1268pt"
 viewBox="0.00 0.00 2034.79 1268.00" xmlns="http://www.w3.org/2000/svg" xmlns:xlink="http://www.w3.org/1999/xlink">
<g id="graph0" class="graph" transform="scale(1 1) rotate(0) translate(4 1264)">
<title>Classes</title>
<polygon fill="white" stroke="none" points="-4,4 -4,-1264 2030.79,-1264 2030.79,4 -4,4"/>
<!-- freshman 1 (16.5) -->
<g id="node1" class="node"><title>freshman 1 (16.5)</title>
<text text-anchor="middle" x="59.5" y="-1238.3" font-family="Times,serif" font-size="14.00">freshman 1 (16.5)</text>
</g>
<!-- freshman 2 (19.5) -->
<g id="node2" class="node"><title>freshman 2 (19.5)</title>
<text text-anchor="middle" x="59.5" y="-1166.3" font-family="Times,serif" font-size="14.00">freshman 2 (19.5)</text>
</g>
<!-- freshman 1 (16.5)&#45;&gt;freshman 2 (19.5) -->
<g id="edge1" class="edge"><title>freshman 1 (16.5)&#45;&gt;freshman 2 (19.5)</title>
<path fill="none" stroke="black" d="M59.5,-1223.7C59.5,-1215.98 59.5,-1206.71 59.5,-1198.11"/>
<polygon fill="black" stroke="black" points="63.0001,-1198.1 59.5,-1188.1 56.0001,-1198.1 63.0001,-1198.1"/>
</g>
<!-- freshman 3 (17.5) -->
<g id="node3" class="node"><title>freshman 3 (17.5)</title>
<text text-anchor="middle" x="59.5" y="-1094.3" font-family="Times,serif" font-size="14.00">freshman 3 (17.5)</text>
</g>
<!-- freshman 2 (19.5)&#45;&gt;freshman 3 (17.5) -->
<g id="edge2" class="edge"><title>freshman 2 (19.5)&#45;&gt;freshman 3 (17.5)</title>
<path fill="none" stroke="black" d="M59.5,-1151.7C59.5,-1143.98 59.5,-1134.71 59.5,-1126.11"/>
<polygon fill="black" stroke="black" points="63.0001,-1126.1 59.5,-1116.1 56.0001,-1126.1 63.0001,-1126.1"/>
</g>
<!-- sophomore 1 (20) -->
<g id="node4" class="node"><title>sophomore 1 (20)</title>
<text text-anchor="middle" x="59.5" y="-1022.3" font-family="Times,serif" font-size="14.00">sophomore 1 (20)</text>
</g>
<!-- freshman 3 (17.5)&#45;&gt;sophomore 1 (20) -->
<g id="edge3" class="edge"><title>freshman 3 (17.5)&#45;&gt;sophomore 1 (20)</title>
<path fill="none" stroke="black" d="M59.5,-1079.7C59.5,-1071.98 59.5,-1062.71 59.5,-1054.11"/>
<polygon fill="black" stroke="black" points="63.0001,-1054.1 59.5,-1044.1 56.0001,-1054.1 63.0001,-1054.1"/>
</g>
<!-- sophomore 2 -->
<g id="node5" class="node"><title>sophomore 2</title>
<text text-anchor="middle" x="59.5" y="-950.3" font-family="Times,serif" font-size="14.00">sophomore 2</text>
</g>
<!-- sophomore 1 (20)&#45;&gt;sophomore 2 -->
<g id="edge4" class="edge"><title>sophomore 1 (20)&#45;&gt;sophomore 2</title>
<path fill="none" stroke="black" d="M59.5,-1007.7C59.5,-999.983 59.5,-990.712 59.5,-982.112"/>
<polygon fill="black" stroke="black" points="63.0001,-982.104 59.5,-972.104 56.0001,-982.104 63.0001,-982.104"/>
</g>
<!-- COOP 1 -->
<g id="node6" class="node"><title>COOP 1</title>
<text text-anchor="middle" x="59.5" y="-878.3" font-family="Times,serif" font-size="14.00">COOP 1</text>
</g>
<!-- sophomore 2&#45;&gt;COOP 1 -->
<g id="edge5" class="edge"><title>sophomore 2&#45;&gt;COOP 1</title>
<path fill="none" stroke="black" d="M59.5,-935.697C59.5,-927.983 59.5,-918.712 59.5,-910.112"/>
<polygon fill="black" stroke="black" points="63.0001,-910.104 59.5,-900.104 56.0001,-910.104 63.0001,-910.104"/>
</g>
<!-- COOP 2 -->
<g id="node7" class="node"><title>COOP 2</title>
<text text-anchor="middle" x="59.5" y="-806.3" font-family="Times,serif" font-size="14.00">COOP 2</text>
</g>
<!-- COOP 1&#45;&gt;COOP 2 -->
<g id="edge6" class="edge"><title>COOP 1&#45;&gt;COOP 2</title>
<path fill="none" stroke="black" d="M59.5,-863.697C59.5,-855.983 59.5,-846.712 59.5,-838.112"/>
<polygon fill="black" stroke="black" points="63.0001,-838.104 59.5,-828.104 56.0001,-838.104 63.0001,-838.104"/>
</g>
<!-- pre&#45;junior 1 -->
<g id="node8" class="node"><title>pre&#45;junior 1</title>
<text text-anchor="middle" x="59.5" y="-734.3" font-family="Times,serif" font-size="14.00">pre&#45;junior 1</text>
</g>
<!-- COOP 2&#45;&gt;pre&#45;junior 1 -->
<g id="edge7" class="edge"><title>COOP 2&#45;&gt;pre&#45;junior 1</title>
<path fill="none" stroke="black" d="M59.5,-791.697C59.5,-783.983 59.5,-774.712 59.5,-766.112"/>
<polygon fill="black" stroke="black" points="63.0001,-766.104 59.5,-756.104 56.0001,-766.104 63.0001,-766.104"/>
</g>
<!-- pre&#45;junior 2 -->
<g id="node9" class="node"><title>pre&#45;junior 2</title>
<text text-anchor="middle" x="59.5" y="-662.3" font-family="Times,serif" font-size="14.00">pre&#45;junior 2</text>
</g>
<!-- pre&#45;junior 1&#45;&gt;pre&#45;junior 2 -->
<g id="edge8" class="edge"><title>pre&#45;junior 1&#45;&gt;pre&#45;junior 2</title>
<path fill="none" stroke="black" d="M59.5,-719.697C59.5,-711.983 59.5,-702.712 59.5,-694.112"/>
<polygon fill="black" stroke="black" points="63.0001,-694.104 59.5,-684.104 56.0001,-694.104 63.0001,-694.104"/>
</g>
<!-- COOP 3 -->
<g id="node10" class="node"><title>COOP 3</title>
<text text-anchor="middle" x="59.5" y="-590.3" font-family="Times,serif" font-size="14.00">COOP 3</text>
</g>
<!-- pre&#45;junior 2&#45;&gt;COOP 3 -->
<g id="edge9" class="edge"><title>pre&#45;junior 2&#45;&gt;COOP 3</title>
<path fill="none" stroke="black" d="M59.5,-647.697C59.5,-639.983 59.5,-630.712 59.5,-622.112"/>
<polygon fill="black" stroke="black" points="63.0001,-622.104 59.5,-612.104 56.0001,-622.104 63.0001,-622.104"/>
</g>
<!-- COOP 4 -->
<g id="node11" class="node"><title>COOP 4</title>
<text text-anchor="middle" x="59.5" y="-518.3" font-family="Times,serif" font-size="14.00">COOP 4</text>
</g>
<!-- COOP 3&#45;&gt;COOP 4 -->
<g id="edge10" class="edge"><title>COOP 3&#45;&gt;COOP 4</title>
<path fill="none" stroke="black" d="M59.5,-575.697C59.5,-567.983 59.5,-558.712 59.5,-550.112"/>
<polygon fill="black" stroke="black" points="63.0001,-550.104 59.5,-540.104 56.0001,-550.104 63.0001,-550.104"/>
</g>
<!-- junior 1 -->
<g id="node12" class="node"><title>junior 1</title>
<text text-anchor="middle" x="59.5" y="-446.3" font-family="Times,serif" font-size="14.00">junior 1</text>
</g>
<!-- COOP 4&#45;&gt;junior 1 -->
<g id="edge11" class="edge"><title>COOP 4&#45;&gt;junior 1</title>
<path fill="none" stroke="black" d="M59.5,-503.697C59.5,-495.983 59.5,-486.712 59.5,-478.112"/>
<polygon fill="black" stroke="black" points="63.0001,-478.104 59.5,-468.104 56.0001,-478.104 63.0001,-478.104"/>
</g>
<!-- junior 2 -->
<g id="node13" class="node"><title>junior 2</title>
<text text-anchor="middle" x="59.5" y="-374.3" font-family="Times,serif" font-size="14.00">junior 2</text>
</g>
<!-- junior 1&#45;&gt;junior 2 -->
<g id="edge12" class="edge"><title>junior 1&#45;&gt;junior 2</title>
<path fill="none" stroke="black" d="M59.5,-431.697C59.5,-423.983 59.5,-414.712 59.5,-406.112"/>
<polygon fill="black" stroke="black" points="63.0001,-406.104 59.5,-396.104 56.0001,-406.104 63.0001,-406.104"/>
</g>
<!-- COOP 5 -->
<g id="node14" class="node"><title>COOP 5</title>
<text text-anchor="middle" x="59.5" y="-302.3" font-family="Times,serif" font-size="14.00">COOP 5</text>
</g>
<!-- junior 2&#45;&gt;COOP 5 -->
<g id="edge13" class="edge"><title>junior 2&#45;&gt;COOP 5</title>
<path fill="none" stroke="black" d="M59.5,-359.697C59.5,-351.983 59.5,-342.712 59.5,-334.112"/>
<polygon fill="black" stroke="black" points="63.0001,-334.104 59.5,-324.104 56.0001,-334.104 63.0001,-334.104"/>
</g>
<!-- COOP 6 -->
<g id="node15" class="node"><title>COOP 6</title>
<text text-anchor="middle" x="59.5" y="-230.3" font-family="Times,serif" font-size="14.00">COOP 6</text>
</g>
<!-- COOP 5&#45;&gt;COOP 6 -->
<g id="edge14" class="edge"><title>COOP 5&#45;&gt;COOP 6</title>
<path fill="none" stroke="black" d="M59.5,-287.697C59.5,-279.983 59.5,-270.712 59.5,-262.112"/>
<polygon fill="black" stroke="black" points="63.0001,-262.104 59.5,-252.104 56.0001,-262.104 63.0001,-262.104"/>
</g>
<!-- senior 1 -->
<g id="node16" class="node"><title>senior 1</title>
<text text-anchor="middle" x="59.5" y="-158.3" font-family="Times,serif" font-size="14.00">senior 1</text>
</g>
<!-- COOP 6&#45;&gt;senior 1 -->
<g id="edge15" class="edge"><title>COOP 6&#45;&gt;senior 1</title>
<path fill="none" stroke="black" d="M59.5,-215.697C59.5,-207.983 59.5,-198.712 59.5,-190.112"/>
<polygon fill="black" stroke="black" points="63.0001,-190.104 59.5,-180.104 56.0001,-190.104 63.0001,-190.104"/>
</g>
<!-- senior 2 -->
<g id="node17" class="node"><title>senior 2</title>
<text text-anchor="middle" x="59.5" y="-86.3" font-family="Times,serif" font-size="14.00">senior 2</text>
</g>
<!-- senior 1&#45;&gt;senior 2 -->
<g id="edge16" class="edge"><title>senior 1&#45;&gt;senior 2</title>
<path fill="none" stroke="black" d="M59.5,-143.697C59.5,-135.983 59.5,-126.712 59.5,-118.112"/>
<polygon fill="black" stroke="black" points="63.0001,-118.104 59.5,-108.104 56.0001,-118.104 63.0001,-118.104"/>
</g>
<!-- senior 3 -->
<g id="node18" class="node"><title>senior 3</title>
<text text-anchor="middle" x="59.5" y="-14.3" font-family="Times,serif" font-size="14.00">senior 3</text>
</g>
<!-- senior 2&#45;&gt;senior 3 -->
<g id="edge17" class="edge"><title>senior 2&#45;&gt;senior 3</title>
<path fill="none" stroke="black" d="M59.5,-71.6966C59.5,-63.9827 59.5,-54.7125 59.5,-46.1124"/>
<polygon fill="black" stroke="black" points="63.0001,-46.1043 59.5,-36.1043 56.0001,-46.1044 63.0001,-46.1043"/>
</g>
<!-- UNIV 101 -->
<g id="node19" class="node"><title>UNIV 101</title>
<ellipse fill="none" stroke="green" cx="186.5" cy="-1242" rx="50.0912" ry="18"/>
<text text-anchor="middle" x="186.5" y="-1238.3" font-family="Times,serif" font-size="14.00">UNIV 101</text>
</g>
<!-- ENGL 101 -->
<g id="node20" class="node"><title>ENGL 101</title>
<ellipse fill="none" stroke="green" cx="306.5" cy="-1242" rx="51.9908" ry="18"/>
<text text-anchor="middle" x="306.5" y="-1238.3" font-family="Times,serif" font-size="14.00">ENGL 101</text>
</g>
<!-- ENGL 102 -->
<g id="node30" class="node"><title>ENGL 102</title>
<ellipse fill="none" stroke="green" cx="306.5" cy="-1170" rx="51.9908" ry="18"/>
<text text-anchor="middle" x="306.5" y="-1166.3" font-family="Times,serif" font-size="14.00">ENGL 102</text>
</g>
<!-- ENGL 101&#45;&gt;ENGL 102 -->
<g id="edge18" class="edge"><title>ENGL 101&#45;&gt;ENGL 102</title>
<path fill="none" stroke="black" d="M306.5,-1223.7C306.5,-1215.98 306.5,-1206.71 306.5,-1198.11"/>
<polygon fill="black" stroke="black" points="310,-1198.1 306.5,-1188.1 303,-1198.1 310,-1198.1"/>
</g>
<!-- ENGR 100 -->
<g id="node21" class="node"><title>ENGR 100</title>
<ellipse fill="none" stroke="green" cx="429.5" cy="-1242" rx="52.7911" ry="18"/>
<text text-anchor="middle" x="429.5" y="-1238.3" font-family="Times,serif" font-size="14.00">ENGR 100</text>
</g>
<!-- CHEM 101 -->
<g id="node22" class="node"><title>CHEM 101</title>
<ellipse fill="none" stroke="green" cx="819.5" cy="-1242" rx="53.8905" ry="18"/>
<text text-anchor="middle" x="819.5" y="-1238.3" font-family="Times,serif" font-size="14.00">CHEM 101</text>
</g>
<!-- CHEM 102 -->
<g id="node31" class="node"><title>CHEM 102</title>
<ellipse fill="none" stroke="green" cx="819.5" cy="-1170" rx="53.8905" ry="18"/>
<text text-anchor="middle" x="819.5" y="-1166.3" font-family="Times,serif" font-size="14.00">CHEM 102</text>
</g>
<!-- CHEM 101&#45;&gt;CHEM 102 -->
<g id="edge23" class="edge"><title>CHEM 101&#45;&gt;CHEM 102</title>
<path fill="none" stroke="black" d="M819.5,-1223.7C819.5,-1215.98 819.5,-1206.71 819.5,-1198.11"/>
<polygon fill="black" stroke="black" points="823,-1198.1 819.5,-1188.1 816,-1198.1 823,-1198.1"/>
</g>
<!-- ENGR 101 -->
<g id="node23" class="node"><title>ENGR 101</title>
<ellipse fill="none" stroke="green" cx="1135.5" cy="-1242" rx="51.9908" ry="18"/>
<text text-anchor="middle" x="1135.5" y="-1238.3" font-family="Times,serif" font-size="14.00">ENGR 101</text>
</g>
<!-- ENGR 102 -->
<g id="node32" class="node"><title>ENGR 102</title>
<ellipse fill="none" stroke="green" cx="1135.5" cy="-1170" rx="51.9908" ry="18"/>
<text text-anchor="middle" x="1135.5" y="-1166.3" font-family="Times,serif" font-size="14.00">ENGR 102</text>
</g>
<!-- ENGR 101&#45;&gt;ENGR 102 -->
<g id="edge30" class="edge"><title>ENGR 101&#45;&gt;ENGR 102</title>
<path fill="none" stroke="black" d="M1135.5,-1223.7C1135.5,-1215.98 1135.5,-1206.71 1135.5,-1198.11"/>
<polygon fill="black" stroke="black" points="1139,-1198.1 1135.5,-1188.1 1132,-1198.1 1139,-1198.1"/>
</g>
<!-- ENGR 121 -->
<g id="node24" class="node"><title>ENGR 121</title>
<ellipse fill="none" stroke="green" cx="552.5" cy="-1242" rx="51.9908" ry="18"/>
<text text-anchor="middle" x="552.5" y="-1238.3" font-family="Times,serif" font-size="14.00">ENGR 121</text>
</g>
<!-- ENGR 231 -->
<g id="node44" class="node"><title>ENGR 231</title>
<ellipse fill="none" stroke="orange" cx="643.5" cy="-1026" rx="51.9908" ry="18"/>
<text text-anchor="middle" x="643.5" y="-1022.3" font-family="Times,serif" font-size="14.00">ENGR 231</text>
</g>
<!-- ENGR 121&#45;&gt;ENGR 231 -->
<g id="edge41" class="edge"><title>ENGR 121&#45;&gt;ENGR 231</title>
<path fill="none" stroke="black" d="M559.793,-1223.85C575.673,-1186.5 613.466,-1097.63 632.355,-1053.21"/>
<polygon fill="black" stroke="black" points="635.606,-1054.51 636.298,-1043.94 629.164,-1051.77 635.606,-1054.51"/>
</g>
<!-- ENGR 232 -->
<g id="node51" class="node"><title>ENGR 232</title>
<ellipse fill="none" stroke="black" cx="643.5" cy="-954" rx="51.9908" ry="18"/>
<text text-anchor="middle" x="643.5" y="-950.3" font-family="Times,serif" font-size="14.00">ENGR 232</text>
</g>
<!-- ENGR 121&#45;&gt;ENGR 232 -->
<g id="edge43" class="edge"><title>ENGR 121&#45;&gt;ENGR 232</title>
<path fill="none" stroke="black" d="M550.749,-1223.97C547.41,-1183.71 543.599,-1080.62 582.5,-1008 589.151,-995.583 599.969,-984.753 610.661,-976.176"/>
<polygon fill="black" stroke="black" points="612.876,-978.889 618.742,-970.066 608.655,-973.305 612.876,-978.889"/>
</g>
<!-- MATH 121 -->
<g id="node25" class="node"><title>MATH 121</title>
<ellipse fill="none" stroke="green" cx="693.5" cy="-1242" rx="53.8905" ry="18"/>
<text text-anchor="middle" x="693.5" y="-1238.3" font-family="Times,serif" font-size="14.00">MATH 121</text>
</g>
<!-- MATH 122 -->
<g id="node34" class="node"><title>MATH 122</title>
<ellipse fill="none" stroke="green" cx="693.5" cy="-1170" rx="53.8905" ry="18"/>
<text text-anchor="middle" x="693.5" y="-1166.3" font-family="Times,serif" font-size="14.00">MATH 122</text>
</g>
<!-- MATH 121&#45;&gt;MATH 122 -->
<g id="edge27" class="edge"><title>MATH 121&#45;&gt;MATH 122</title>
<path fill="none" stroke="black" d="M693.5,-1223.7C693.5,-1215.98 693.5,-1206.71 693.5,-1198.11"/>
<polygon fill="black" stroke="black" points="697,-1198.1 693.5,-1188.1 690,-1198.1 697,-1198.1"/>
</g>
<!-- CS 190 -->
<g id="node26" class="node"><title>CS 190</title>
<polygon fill="none" stroke="green" points="1259.5,-1260 1205.04,-1242 1259.5,-1224 1313.96,-1242 1259.5,-1260"/>
<text text-anchor="middle" x="1259.5" y="-1238.3" font-family="Times,serif" font-size="14.00">CS 190</text>
</g>
<!-- TGFE 099 -->
<g id="node27" class="node"><title>TGFE 099</title>
<polygon fill="none" stroke="green" points="1405.5,-1260 1331.93,-1242 1405.5,-1224 1479.07,-1242 1405.5,-1260"/>
<text text-anchor="middle" x="1405.5" y="-1238.3" font-family="Times,serif" font-size="14.00">TGFE 099</text>
</g>
<!-- SPAN 101 -->
<g id="node28" class="node"><title>SPAN 101</title>
<polygon fill="none" stroke="green" points="1614.08,-1242 1584.79,-1260 1526.21,-1260 1496.92,-1242 1526.21,-1224 1584.79,-1224 1614.08,-1242"/>
<text text-anchor="middle" x="1555.5" y="-1238.3" font-family="Times,serif" font-size="14.00">SPAN 101</text>
</g>
<!-- CIVC 101 -->
<g id="node29" class="node"><title>CIVC 101</title>
<ellipse fill="none" stroke="green" cx="1254.5" cy="-1170" rx="48.9926" ry="18"/>
<text text-anchor="middle" x="1254.5" y="-1166.3" font-family="Times,serif" font-size="14.00">CIVC 101</text>
</g>
<!-- ENGL 103 -->
<g id="node36" class="node"><title>ENGL 103</title>
<ellipse fill="none" stroke="green" cx="306.5" cy="-1098" rx="51.9908" ry="18"/>
<text text-anchor="middle" x="306.5" y="-1094.3" font-family="Times,serif" font-size="14.00">ENGL 103</text>
</g>
<!-- ENGL 102&#45;&gt;ENGL 103 -->
<g id="edge19" class="edge"><title>ENGL 102&#45;&gt;ENGL 103</title>
<path fill="none" stroke="black" d="M306.5,-1151.7C306.5,-1143.98 306.5,-1134.71 306.5,-1126.11"/>
<polygon fill="black" stroke="black" points="310,-1126.1 306.5,-1116.1 303,-1126.1 310,-1126.1"/>
</g>
<!-- ENGR 220 -->
<g id="node43" class="node"><title>ENGR 220</title>
<ellipse fill="none" stroke="orange" cx="767.5" cy="-1026" rx="51.9908" ry="18"/>
<text text-anchor="middle" x="767.5" y="-1022.3" font-family="Times,serif" font-size="14.00">ENGR 220</text>
</g>
<!-- CHEM 102&#45;&gt;ENGR 220 -->
<g id="edge38" class="edge"><title>CHEM 102&#45;&gt;ENGR 220</title>
<path fill="none" stroke="black" d="M814.83,-1152.06C809.699,-1134 800.925,-1104.66 791.5,-1080 788.094,-1071.09 783.935,-1061.54 780.041,-1053.03"/>
<polygon fill="black" stroke="black" points="783.211,-1051.55 775.812,-1043.96 776.867,-1054.51 783.211,-1051.55"/>
</g>
<!-- ENGR 103 -->
<g id="node37" class="node"><title>ENGR 103</title>
<ellipse fill="none" stroke="green" cx="1135.5" cy="-1098" rx="51.9908" ry="18"/>
<text text-anchor="middle" x="1135.5" y="-1094.3" font-family="Times,serif" font-size="14.00">ENGR 103</text>
</g>
<!-- ENGR 102&#45;&gt;ENGR 103 -->
<g id="edge31" class="edge"><title>ENGR 102&#45;&gt;ENGR 103</title>
<path fill="none" stroke="black" d="M1135.5,-1151.7C1135.5,-1143.98 1135.5,-1134.71 1135.5,-1126.11"/>
<polygon fill="black" stroke="black" points="1139,-1126.1 1135.5,-1116.1 1132,-1126.1 1139,-1126.1"/>
</g>
<!-- ENGR 122 -->
<g id="node33" class="node"><title>ENGR 122</title>
<ellipse fill="none" stroke="green" cx="1373.5" cy="-1170" rx="51.9908" ry="18"/>
<text text-anchor="middle" x="1373.5" y="-1166.3" font-family="Times,serif" font-size="14.00">ENGR 122</text>
</g>
<!-- MATH 200 -->
<g id="node41" class="node"><title>MATH 200</title>
<ellipse fill="none" stroke="green" cx="694.5" cy="-1098" rx="55.4913" ry="18"/>
<text text-anchor="middle" x="694.5" y="-1094.3" font-family="Times,serif" font-size="14.00">MATH 200</text>
</g>
<!-- MATH 122&#45;&gt;MATH 200 -->
<g id="edge28" class="edge"><title>MATH 122&#45;&gt;MATH 200</title>
<path fill="none" stroke="black" d="M693.747,-1151.7C693.857,-1143.98 693.99,-1134.71 694.113,-1126.11"/>
<polygon fill="black" stroke="black" points="697.612,-1126.15 694.256,-1116.1 690.613,-1126.05 697.612,-1126.15"/>
</g>
<!-- ENGR 201 -->
<g id="node42" class="node"><title>ENGR 201</title>
<ellipse fill="none" stroke="orange" cx="1055.5" cy="-1026" rx="51.9908" ry="18"/>
<text text-anchor="middle" x="1055.5" y="-1022.3" font-family="Times,serif" font-size="14.00">ENGR 201</text>
</g>
<!-- MATH 122&#45;&gt;ENGR 201 -->
<g id="edge34" class="edge"><title>MATH 122&#45;&gt;ENGR 201</title>
<path fill="none" stroke="black" d="M732.988,-1157.59C740.744,-1155.57 748.848,-1153.6 756.5,-1152 862.948,-1129.8 907.213,-1175.08 998.5,-1116 1010.62,-1108.16 1029.37,-1076.34 1042.02,-1052.98"/>
<polygon fill="black" stroke="black" points="1045.25,-1054.36 1046.87,-1043.89 1039.08,-1051.06 1045.25,-1054.36"/>
</g>
<!-- MATH 122&#45;&gt;ENGR 220 -->
<g id="edge39" class="edge"><title>MATH 122&#45;&gt;ENGR 220</title>
<path fill="none" stroke="black" d="M720.366,-1154.16C734.175,-1145.04 749.874,-1132.03 758.5,-1116 768.652,-1097.14 770.477,-1072.77 770.001,-1054.3"/>
<polygon fill="black" stroke="black" points="773.491,-1054 769.501,-1044.19 766.5,-1054.35 773.491,-1054"/>
</g>
<!-- MATH 122&#45;&gt;ENGR 231 -->
<g id="edge42" class="edge"><title>MATH 122&#45;&gt;ENGR 231</title>
<path fill="none" stroke="black" d="M666.816,-1154.29C653.237,-1145.21 638.04,-1132.2 630.5,-1116 621.325,-1096.29 625.974,-1071.7 632.125,-1053.36"/>
<polygon fill="black" stroke="black" points="635.442,-1054.48 635.618,-1043.89 628.874,-1052.06 635.442,-1054.48"/>
</g>
<!-- PHYS 101 -->
<g id="node35" class="node"><title>PHYS 101</title>
<ellipse fill="none" stroke="green" cx="941.5" cy="-1170" rx="50.0912" ry="18"/>
<text text-anchor="middle" x="941.5" y="-1166.3" font-family="Times,serif" font-size="14.00">PHYS 101</text>
</g>
<!-- PHYS 102 -->
<g id="node40" class="node"><title>PHYS 102</title>
<ellipse fill="none" stroke="green" cx="939.5" cy="-1098" rx="50.0912" ry="18"/>
<text text-anchor="middle" x="939.5" y="-1094.3" font-family="Times,serif" font-size="14.00">PHYS 102</text>
</g>
<!-- PHYS 101&#45;&gt;PHYS 102 -->
<g id="edge24" class="edge"><title>PHYS 101&#45;&gt;PHYS 102</title>
<path fill="none" stroke="black" d="M941.006,-1151.7C940.785,-1143.98 940.52,-1134.71 940.275,-1126.11"/>
<polygon fill="black" stroke="black" points="943.773,-1126 939.989,-1116.1 936.776,-1126.2 943.773,-1126"/>
</g>
<!-- PHYS 101&#45;&gt;ENGR 201 -->
<g id="edge35" class="edge"><title>PHYS 101&#45;&gt;ENGR 201</title>
<path fill="none" stroke="black" d="M975.507,-1156.55C994.583,-1147.92 1017.33,-1134.61 1031.5,-1116 1045.1,-1098.15 1051,-1073.14 1053.56,-1054.18"/>
<polygon fill="black" stroke="black" points="1057.06,-1054.41 1054.69,-1044.08 1050.1,-1053.63 1057.06,-1054.41"/>
</g>
<!-- PHYS 101&#45;&gt;ENGR 220 -->
<g id="edge40" class="edge"><title>PHYS 101&#45;&gt;ENGR 220</title>
<path fill="none" stroke="black" d="M922.214,-1153.26C891.25,-1127.99 830.338,-1078.28 794.881,-1049.35"/>
<polygon fill="black" stroke="black" points="796.833,-1046.42 786.872,-1042.81 792.407,-1051.84 796.833,-1046.42"/>
</g>
<!-- ENGR 103&#45;&gt;ENGR 201 -->
<g id="edge36" class="edge"><title>ENGR 103&#45;&gt;ENGR 201</title>
<path fill="none" stroke="black" d="M1117.35,-1081.12C1106.78,-1071.87 1093.29,-1060.07 1081.6,-1049.84"/>
<polygon fill="black" stroke="black" points="1083.69,-1047.01 1073.86,-1043.06 1079.08,-1052.28 1083.69,-1047.01"/>
</g>
<!-- ECE 200 -->
<g id="node46" class="node"><title>ECE 200</title>
<ellipse fill="none" stroke="orange" cx="1296.5" cy="-1026" rx="45.4919" ry="18"/>
<text text-anchor="middle" x="1296.5" y="-1022.3" font-family="Times,serif" font-size="14.00">ECE 200</text>
</g>
<!-- ENGR 103&#45;&gt;ECE 200 -->
<g id="edge32" class="edge"><title>ENGR 103&#45;&gt;ECE 200</title>
<path fill="none" stroke="black" d="M1166.54,-1083.5C1192.45,-1072.24 1229.53,-1056.12 1257.45,-1043.98"/>
<polygon fill="black" stroke="black" points="1259.14,-1047.06 1266.91,-1039.86 1256.35,-1040.64 1259.14,-1047.06"/>
</g>
<!-- ECEL 301 -->
<g id="node55" class="node"><title>ECEL 301</title>
<ellipse fill="none" stroke="black" cx="1135.5" cy="-738" rx="50.0912" ry="18"/>
<text text-anchor="middle" x="1135.5" y="-734.3" font-family="Times,serif" font-size="14.00">ECEL 301</text>
</g>
<!-- ENGR 103&#45;&gt;ECEL 301 -->
<g id="edge66" class="edge"><title>ENGR 103&#45;&gt;ECEL 301</title>
<path fill="none" stroke="black" d="M1135.5,-1079.95C1135.5,-1053.29 1135.5,-1000.11 1135.5,-955 1135.5,-955 1135.5,-955 1135.5,-881 1135.5,-840.996 1135.5,-794.653 1135.5,-766.08"/>
<polygon fill="black" stroke="black" points="1139,-766.049 1135.5,-756.049 1132,-766.049 1139,-766.049"/>
</g>
<!-- BIO 141 -->
<g id="node38" class="node"><title>BIO 141</title>
<ellipse fill="none" stroke="green" cx="1248.5" cy="-1098" rx="42.7926" ry="18"/>
<text text-anchor="middle" x="1248.5" y="-1094.3" font-family="Times,serif" font-size="14.00">BIO 141</text>
</g>
<!-- COOP 101 -->
<g id="node39" class="node"><title>COOP 101</title>
<ellipse fill="none" stroke="green" cx="1361.5" cy="-1098" rx="51.9908" ry="18"/>
<text text-anchor="middle" x="1361.5" y="-1094.3" font-family="Times,serif" font-size="14.00">COOP 101</text>
</g>
<!-- ECE 201 -->
<g id="node48" class="node"><title>ECE 201</title>
<ellipse fill="none" stroke="black" cx="940.5" cy="-954" rx="44.6926" ry="18"/>
<text text-anchor="middle" x="940.5" y="-950.3" font-family="Times,serif" font-size="14.00">ECE 201</text>
</g>
<!-- PHYS 102&#45;&gt;ECE 201 -->
<g id="edge26" class="edge"><title>PHYS 102&#45;&gt;ECE 201</title>
<path fill="none" stroke="black" d="M939.621,-1079.87C939.791,-1055.67 940.104,-1011.21 940.307,-982.393"/>
<polygon fill="black" stroke="black" points="943.808,-982.214 940.379,-972.189 936.809,-982.164 943.808,-982.214"/>
</g>
<!-- PHYS 201 -->
<g id="node67" class="node"><title>PHYS 201</title>
<ellipse fill="none" stroke="black" cx="827.5" cy="-450" rx="50.0912" ry="18"/>
<text text-anchor="middle" x="827.5" y="-446.3" font-family="Times,serif" font-size="14.00">PHYS 201</text>
</g>
<!-- PHYS 102&#45;&gt;PHYS 201 -->
<g id="edge25" class="edge"><title>PHYS 102&#45;&gt;PHYS 201</title>
<path fill="none" stroke="black" d="M930.951,-1080.04C919.349,-1056.39 898.672,-1011.91 886.5,-972 846.219,-839.938 827.5,-805.069 827.5,-667 827.5,-667 827.5,-667 827.5,-593 827.5,-552.996 827.5,-506.653 827.5,-478.08"/>
<polygon fill="black" stroke="black" points="831,-478.049 827.5,-468.049 824,-478.049 831,-478.049"/>
</g>
<!-- MATH 200&#45;&gt;ENGR 231 -->
<g id="edge29" class="edge"><title>MATH 200&#45;&gt;ENGR 231</title>
<path fill="none" stroke="black" d="M682.414,-1080.41C676.28,-1071.99 668.698,-1061.58 661.861,-1052.2"/>
<polygon fill="black" stroke="black" points="664.571,-1049.98 655.854,-1043.96 658.914,-1054.1 664.571,-1049.98"/>
</g>
<!-- ENGR 202 -->
<g id="node50" class="node"><title>ENGR 202</title>
<ellipse fill="none" stroke="black" cx="1055.5" cy="-954" rx="51.9908" ry="18"/>
<text text-anchor="middle" x="1055.5" y="-950.3" font-family="Times,serif" font-size="14.00">ENGR 202</text>
</g>
<!-- ENGR 201&#45;&gt;ENGR 202 -->
<g id="edge37" class="edge"><title>ENGR 201&#45;&gt;ENGR 202</title>
<path fill="none" stroke="black" d="M1055.5,-1007.7C1055.5,-999.983 1055.5,-990.712 1055.5,-982.112"/>
<polygon fill="black" stroke="black" points="1059,-982.104 1055.5,-972.104 1052,-982.104 1059,-982.104"/>
</g>
<!-- ENGR 231&#45;&gt;ENGR 232 -->
<g id="edge44" class="edge"><title>ENGR 231&#45;&gt;ENGR 232</title>
<path fill="none" stroke="black" d="M643.5,-1007.7C643.5,-999.983 643.5,-990.712 643.5,-982.112"/>
<polygon fill="black" stroke="black" points="647,-982.104 643.5,-972.104 640,-982.104 647,-982.104"/>
</g>
<!-- ECE 361 -->
<g id="node56" class="node"><title>ECE 361</title>
<ellipse fill="none" stroke="black" cx="1002.5" cy="-738" rx="44.6926" ry="18"/>
<text text-anchor="middle" x="1002.5" y="-734.3" font-family="Times,serif" font-size="14.00">ECE 361</text>
</g>
<!-- ENGR 231&#45;&gt;ECE 361 -->
<g id="edge49" class="edge"><title>ENGR 231&#45;&gt;ECE 361</title>
<path fill="none" stroke="black" d="M663.313,-1009.22C723.768,-961.054 905.963,-815.907 975.306,-760.665"/>
<polygon fill="black" stroke="black" points="977.546,-763.355 983.187,-754.386 973.184,-757.88 977.546,-763.355"/>
</g>
<!-- ECE 203 -->
<g id="node45" class="node"><title>ECE 203</title>
<ellipse fill="none" stroke="orange" cx="1554.5" cy="-1026" rx="44.6926" ry="18"/>
<text text-anchor="middle" x="1554.5" y="-1022.3" font-family="Times,serif" font-size="14.00">ECE 203</text>
</g>
<!-- ECEC 301 -->
<g id="node49" class="node"><title>ECEC 301</title>
<ellipse fill="none" stroke="black" cx="1653.5" cy="-954" rx="51.1914" ry="18"/>
<text text-anchor="middle" x="1653.5" y="-950.3" font-family="Times,serif" font-size="14.00">ECEC 301</text>
</g>
<!-- ECE 203&#45;&gt;ECEC 301 -->
<g id="edge45" class="edge"><title>ECE 203&#45;&gt;ECEC 301</title>
<path fill="none" stroke="black" d="M1575.98,-1009.81C1589.9,-999.972 1608.22,-987.019 1623.55,-976.175"/>
<polygon fill="black" stroke="black" points="1625.57,-979.032 1631.72,-970.401 1621.53,-973.317 1625.57,-979.032"/>
</g>
<!-- ECEC 302 -->
<g id="node54" class="node"><title>ECEC 302</title>
<ellipse fill="none" stroke="black" cx="1416.5" cy="-738" rx="51.1914" ry="18"/>
<text text-anchor="middle" x="1416.5" y="-734.3" font-family="Times,serif" font-size="14.00">ECEC 302</text>
</g>
<!-- ECE 203&#45;&gt;ECEC 302 -->
<g id="edge55" class="edge"><title>ECE 203&#45;&gt;ECEC 302</title>
<path fill="none" stroke="black" d="M1543.21,-1008.16C1536.54,-997.905 1528.13,-984.432 1521.5,-972 1482.65,-899.186 1444.82,-809.172 1427.04,-765.397"/>
<polygon fill="black" stroke="black" points="1430.25,-763.999 1423.26,-756.038 1423.76,-766.621 1430.25,-763.999"/>
</g>
<!-- ECEC 304 -->
<g id="node59" class="node"><title>ECEC 304</title>
<ellipse fill="none" stroke="black" cx="1494.5" cy="-666" rx="51.9908" ry="18"/>
<text text-anchor="middle" x="1494.5" y="-662.3" font-family="Times,serif" font-size="14.00">ECEC 304</text>
</g>
<!-- ECE 203&#45;&gt;ECEC 304 -->
<g id="edge57" class="edge"><title>ECE 203&#45;&gt;ECEC 304</title>
<path fill="none" stroke="black" d="M1550.75,-1008.05C1545.21,-981.521 1535.5,-928.517 1535.5,-883 1535.5,-883 1535.5,-883 1535.5,-809 1535.5,-767.407 1519.06,-721.556 1507,-693.514"/>
<polygon fill="black" stroke="black" points="1510.05,-691.752 1502.8,-684.029 1503.65,-694.59 1510.05,-691.752"/>
</g>
<!-- ECEC 357 -->
<g id="node65" class="node"><title>ECEC 357</title>
<ellipse fill="none" stroke="black" cx="1574.5" cy="-450" rx="51.1914" ry="18"/>
<text text-anchor="middle" x="1574.5" y="-446.3" font-family="Times,serif" font-size="14.00">ECEC 357</text>
</g>
<!-- ECE 203&#45;&gt;ECEC 357 -->
<g id="edge65" class="edge"><title>ECE 203&#45;&gt;ECEC 357</title>
<path fill="none" stroke="black" d="M1558.45,-1008.06C1564.28,-981.546 1574.5,-928.56 1574.5,-883 1574.5,-883 1574.5,-883 1574.5,-593 1574.5,-552.996 1574.5,-506.653 1574.5,-478.08"/>
<polygon fill="black" stroke="black" points="1578,-478.049 1574.5,-468.049 1571,-478.049 1578,-478.049"/>
</g>
<!-- MATH 221 -->
<g id="node52" class="node"><title>MATH 221</title>
<ellipse fill="none" stroke="black" cx="1255.5" cy="-954" rx="53.8905" ry="18"/>
<text text-anchor="middle" x="1255.5" y="-950.3" font-family="Times,serif" font-size="14.00">MATH 221</text>
</g>
<!-- ECE 200&#45;&gt;MATH 221 -->
<g id="edge33" class="edge"><title>ECE 200&#45;&gt;MATH 221</title>
<path fill="none" stroke="black" d="M1286.78,-1008.41C1281.95,-1000.16 1276.01,-990.009 1270.6,-980.777"/>
<polygon fill="black" stroke="black" points="1273.51,-978.816 1265.43,-971.956 1267.47,-982.354 1273.51,-978.816"/>
</g>
<!-- ECE 200&#45;&gt;ECEC 302 -->
<g id="edge56" class="edge"><title>ECE 200&#45;&gt;ECEC 302</title>
<path fill="none" stroke="black" d="M1316.94,-1009.88C1328.62,-1000.24 1342.67,-986.804 1351.5,-972 1391.74,-904.558 1407.88,-811.313 1413.65,-765.952"/>
<polygon fill="black" stroke="black" points="1417.13,-766.35 1414.85,-756.004 1410.18,-765.515 1417.13,-766.35"/>
</g>
<!-- ECE 200&#45;&gt;ECEL 301 -->
<g id="edge67" class="edge"><title>ECE 200&#45;&gt;ECEL 301</title>
<path fill="none" stroke="black" d="M1260.1,-1015.08C1237.42,-1007.06 1209.42,-993.495 1192.5,-972 1141.62,-907.376 1169.56,-871.767 1149.5,-792 1147.38,-783.564 1144.99,-774.395 1142.79,-766.092"/>
<polygon fill="black" stroke="black" points="1146.1,-764.921 1140.14,-756.159 1139.34,-766.723 1146.1,-764.921"/>
</g>
<!-- ECE 200&#45;&gt;ECEC 304 -->
<g id="edge58" class="edge"><title>ECE 200&#45;&gt;ECEC 304</title>
<path fill="none" stroke="black" d="M1324.16,-1011.39C1340.75,-1002.13 1361.31,-988.552 1375.5,-972 1448.48,-886.861 1479.65,-751.808 1490.11,-694.337"/>
<polygon fill="black" stroke="black" points="1493.6,-694.68 1491.88,-684.226 1486.71,-693.473 1493.6,-694.68"/>
</g>
<!-- ECEC 355 -->
<g id="node60" class="node"><title>ECEC 355</title>
<ellipse fill="none" stroke="black" cx="1356.5" cy="-666" rx="51.9908" ry="18"/>
<text text-anchor="middle" x="1356.5" y="-662.3" font-family="Times,serif" font-size="14.00">ECEC 355</text>
</g>
<!-- ECE 200&#45;&gt;ECEC 355 -->
<g id="edge60" class="edge"><title>ECE 200&#45;&gt;ECEC 355</title>
<path fill="none" stroke="black" d="M1304.8,-1007.97C1316.78,-981.77 1337.5,-929.701 1337.5,-883 1337.5,-883 1337.5,-883 1337.5,-809 1337.5,-768.86 1345.05,-722.897 1350.63,-694.405"/>
<polygon fill="black" stroke="black" points="1354.11,-694.883 1352.66,-684.388 1347.24,-693.498 1354.11,-694.883"/>
</g>
<!-- PHIL 111 -->
<g id="node47" class="node"><title>PHIL 111</title>
<polygon fill="none" stroke="orange" points="1831.57,-1026 1804.54,-1044 1750.46,-1044 1723.43,-1026 1750.46,-1008 1804.54,-1008 1831.57,-1026"/>
<text text-anchor="middle" x="1777.5" y="-1022.3" font-family="Times,serif" font-size="14.00">PHIL 111</text>
</g>
<!-- PHIL 207 -->
<g id="node53" class="node"><title>PHIL 207</title>
<polygon fill="none" stroke="black" points="1832.07,-954 1804.79,-972 1750.21,-972 1722.93,-954 1750.21,-936 1804.79,-936 1832.07,-954"/>
<text text-anchor="middle" x="1777.5" y="-950.3" font-family="Times,serif" font-size="14.00">PHIL 207</text>
</g>
<!-- PHIL 111&#45;&gt;PHIL 207 -->
<g id="edge20" class="edge"><title>PHIL 111&#45;&gt;PHIL 207</title>
<path fill="none" stroke="black" d="M1777.5,-1007.7C1777.5,-999.983 1777.5,-990.712 1777.5,-982.112"/>
<polygon fill="black" stroke="black" points="1781,-982.104 1777.5,-972.104 1774,-982.104 1781,-982.104"/>
</g>
<!-- ECE 201&#45;&gt;ECEL 301 -->
<g id="edge68" class="edge"><title>ECE 201&#45;&gt;ECEL 301</title>
<path fill="none" stroke="black" d="M955.157,-936.915C989.177,-899.58 1073.65,-806.88 1113.73,-762.893"/>
<polygon fill="black" stroke="black" points="1116.52,-765.02 1120.67,-755.271 1111.35,-760.306 1116.52,-765.02"/>
</g>
<!-- ECES 301 -->
<g id="node62" class="node"><title>ECES 301</title>
<ellipse fill="none" stroke="black" cx="905.5" cy="-666" rx="50.0912" ry="18"/>
<text text-anchor="middle" x="905.5" y="-662.3" font-family="Times,serif" font-size="14.00">ECES 301</text>
</g>
<!-- ECE 201&#45;&gt;ECES 301 -->
<g id="edge71" class="edge"><title>ECE 201&#45;&gt;ECES 301</title>
<path fill="none" stroke="black" d="M938.415,-935.966C932.569,-888.192 915.978,-752.623 908.837,-694.266"/>
<polygon fill="black" stroke="black" points="912.307,-693.807 907.618,-684.306 905.359,-694.658 912.307,-693.807"/>
</g>
<!-- CS 265 -->
<g id="node57" class="node"><title>CS 265</title>
<ellipse fill="none" stroke="black" cx="1653.5" cy="-738" rx="38.1938" ry="18"/>
<text text-anchor="middle" x="1653.5" y="-734.3" font-family="Times,serif" font-size="14.00">CS 265</text>
</g>
<!-- ECEC 301&#45;&gt;CS 265 -->
<g id="edge46" class="edge"><title>ECEC 301&#45;&gt;CS 265</title>
<path fill="none" stroke="black" d="M1653.5,-935.849C1653.5,-898.832 1653.5,-811.181 1653.5,-766.386"/>
<polygon fill="black" stroke="black" points="1657,-766.232 1653.5,-756.232 1650,-766.232 1657,-766.232"/>
</g>
<!-- ENGR 202&#45;&gt;ECE 361 -->
<g id="edge50" class="edge"><title>ENGR 202&#45;&gt;ECE 361</title>
<path fill="none" stroke="black" d="M1051.25,-935.849C1042.04,-898.662 1020.18,-810.374 1009.13,-765.772"/>
<polygon fill="black" stroke="black" points="1012.5,-764.801 1006.69,-755.935 1005.7,-766.484 1012.5,-764.801"/>
</g>
<!-- ENGR 232&#45;&gt;ECES 301 -->
<g id="edge72" class="edge"><title>ENGR 232&#45;&gt;ECES 301</title>
<path fill="none" stroke="black" d="M658.719,-936.387C702.959,-888.095 831.668,-747.595 883.496,-691.02"/>
<polygon fill="black" stroke="black" points="886.392,-693.04 890.566,-683.302 881.23,-688.312 886.392,-693.04"/>
</g>
<!-- PHIL 395 -->
<g id="node58" class="node"><title>PHIL 395</title>
<polygon fill="none" stroke="black" points="1833.07,-738 1805.29,-756 1749.71,-756 1721.93,-738 1749.71,-720 1805.29,-720 1833.07,-738"/>
<text text-anchor="middle" x="1777.5" y="-734.3" font-family="Times,serif" font-size="14.00">PHIL 395</text>
</g>
<!-- PHIL 207&#45;&gt;PHIL 395 -->
<g id="edge21" class="edge"><title>PHIL 207&#45;&gt;PHIL 395</title>
<path fill="none" stroke="black" d="M1777.5,-935.849C1777.5,-898.832 1777.5,-811.181 1777.5,-766.386"/>
<polygon fill="black" stroke="black" points="1781,-766.232 1777.5,-756.232 1774,-766.232 1781,-766.232"/>
</g>
<!-- ECEC 302&#45;&gt;ECEC 355 -->
<g id="edge61" class="edge"><title>ECEC 302&#45;&gt;ECEC 355</title>
<path fill="none" stroke="black" d="M1402.28,-720.411C1394.81,-711.693 1385.51,-700.845 1377.25,-691.208"/>
<polygon fill="black" stroke="black" points="1379.78,-688.785 1370.62,-683.47 1374.47,-693.34 1379.78,-688.785"/>
</g>
<!-- ECEL 302 -->
<g id="node61" class="node"><title>ECEL 302</title>
<ellipse fill="none" stroke="black" cx="1135.5" cy="-666" rx="50.0912" ry="18"/>
<text text-anchor="middle" x="1135.5" y="-662.3" font-family="Times,serif" font-size="14.00">ECEL 302</text>
</g>
<!-- ECEL 301&#45;&gt;ECEL 302 -->
<g id="edge69" class="edge"><title>ECEL 301&#45;&gt;ECEL 302</title>
<path fill="none" stroke="black" d="M1135.5,-719.697C1135.5,-711.983 1135.5,-702.712 1135.5,-694.112"/>
<polygon fill="black" stroke="black" points="1139,-694.104 1135.5,-684.104 1132,-694.104 1139,-694.104"/>
</g>
<!-- ECE 491 -->
<g id="node75" class="node"><title>ECE 491</title>
<ellipse fill="none" stroke="black" cx="965.5" cy="-162" rx="46.2923" ry="18"/>
<text text-anchor="middle" x="965.5" y="-158.3" font-family="Times,serif" font-size="14.00">ECE 491</text>
</g>
<!-- ECE 361&#45;&gt;ECE 491 -->
<g id="edge51" class="edge"><title>ECE 361&#45;&gt;ECE 491</title>
<path fill="none" stroke="black" d="M1002.5,-719.951C1002.5,-693.292 1002.5,-640.115 1002.5,-595 1002.5,-595 1002.5,-595 1002.5,-305 1002.5,-263.705 987.666,-217.774 976.783,-189.634"/>
<polygon fill="black" stroke="black" points="979.942,-188.106 972.988,-180.113 973.44,-190.698 979.942,-188.106"/>
</g>
<!-- CS 260 -->
<g id="node63" class="node"><title>CS 260</title>
<ellipse fill="none" stroke="black" cx="1761.5" cy="-666" rx="38.1938" ry="18"/>
<text text-anchor="middle" x="1761.5" y="-662.3" font-family="Times,serif" font-size="14.00">CS 260</text>
</g>
<!-- CS 265&#45;&gt;CS 260 -->
<g id="edge47" class="edge"><title>CS 265&#45;&gt;CS 260</title>
<path fill="none" stroke="black" d="M1675.1,-723.003C1691.14,-712.606 1713.23,-698.286 1731.06,-686.729"/>
<polygon fill="black" stroke="black" points="1733.45,-689.349 1739.94,-680.973 1729.65,-683.475 1733.45,-689.349"/>
</g>
<!-- ECEC 353 -->
<g id="node64" class="node"><title>ECEC 353</title>
<ellipse fill="none" stroke="black" cx="1653.5" cy="-666" rx="51.1914" ry="18"/>
<text text-anchor="middle" x="1653.5" y="-662.3" font-family="Times,serif" font-size="14.00">ECEC 353</text>
</g>
<!-- CS 265&#45;&gt;ECEC 353 -->
<g id="edge59" class="edge"><title>CS 265&#45;&gt;ECEC 353</title>
<path fill="none" stroke="black" d="M1653.5,-719.697C1653.5,-711.983 1653.5,-702.712 1653.5,-694.112"/>
<polygon fill="black" stroke="black" points="1657,-694.104 1653.5,-684.104 1650,-694.104 1657,-694.104"/>
</g>
<!-- ECEC 413 -->
<g id="node69" class="node"><title>ECEC 413</title>
<polygon fill="none" stroke="black" points="1396.5,-468 1316.5,-468 1316.5,-432 1396.5,-432 1396.5,-468"/>
<text text-anchor="middle" x="1356.5" y="-446.3" font-family="Times,serif" font-size="14.00">ECEC 413</text>
</g>
<!-- ECEC 355&#45;&gt;ECEC 413 -->
<g id="edge62" class="edge"><title>ECEC 355&#45;&gt;ECEC 413</title>
<path fill="none" stroke="black" d="M1356.5,-647.849C1356.5,-610.832 1356.5,-523.181 1356.5,-478.386"/>
<polygon fill="black" stroke="black" points="1360,-478.232 1356.5,-468.232 1353,-478.232 1360,-478.232"/>
</g>
<!-- ECEC 457 -->
<g id="node73" class="node"><title>ECEC 457</title>
<polygon fill="none" stroke="black" points="1464.5,-396 1384.5,-396 1384.5,-360 1464.5,-360 1464.5,-396"/>
<text text-anchor="middle" x="1424.5" y="-374.3" font-family="Times,serif" font-size="14.00">ECEC 457</text>
</g>
<!-- ECEC 355&#45;&gt;ECEC 457 -->
<g id="edge63" class="edge"><title>ECEC 355&#45;&gt;ECEC 457</title>
<path fill="none" stroke="black" d="M1361.13,-647.837C1363.9,-637.472 1367.46,-623.993 1370.5,-612 1386.69,-548.157 1390.85,-532.212 1405.5,-468 1410.22,-447.335 1415.21,-423.887 1418.89,-406.248"/>
<polygon fill="black" stroke="black" points="1422.39,-406.596 1421,-396.093 1415.54,-405.172 1422.39,-406.596"/>
</g>
<!-- ECEC 432 -->
<g id="node76" class="node"><title>ECEC 432</title>
<polygon fill="none" stroke="black" points="1328.5,-180 1248.5,-180 1248.5,-144 1328.5,-144 1328.5,-180"/>
<text text-anchor="middle" x="1288.5" y="-158.3" font-family="Times,serif" font-size="14.00">ECEC 432</text>
</g>
<!-- ECEC 355&#45;&gt;ECEC 432 -->
<g id="edge64" class="edge"><title>ECEC 355&#45;&gt;ECEC 432</title>
<path fill="none" stroke="black" d="M1342.41,-648.317C1322.49,-622.973 1288.5,-572.474 1288.5,-523 1288.5,-523 1288.5,-523 1288.5,-305 1288.5,-264.996 1288.5,-218.653 1288.5,-190.08"/>
<polygon fill="black" stroke="black" points="1292,-190.049 1288.5,-180.049 1285,-190.049 1292,-190.049"/>
</g>
<!-- ECEL 303 -->
<g id="node66" class="node"><title>ECEL 303</title>
<ellipse fill="none" stroke="black" cx="1135.5" cy="-450" rx="50.0912" ry="18"/>
<text text-anchor="middle" x="1135.5" y="-446.3" font-family="Times,serif" font-size="14.00">ECEL 303</text>
</g>
<!-- ECEL 302&#45;&gt;ECEL 303 -->
<g id="edge70" class="edge"><title>ECEL 302&#45;&gt;ECEL 303</title>
<path fill="none" stroke="black" d="M1135.5,-647.849C1135.5,-610.832 1135.5,-523.181 1135.5,-478.386"/>
<polygon fill="black" stroke="black" points="1139,-478.232 1135.5,-468.232 1132,-478.232 1139,-478.232"/>
</g>
<!-- CS 361 -->
<g id="node72" class="node"><title>CS 361</title>
<polygon fill="none" stroke="black" points="1791,-396 1732,-396 1732,-360 1791,-360 1791,-396"/>
<text text-anchor="middle" x="1761.5" y="-374.3" font-family="Times,serif" font-size="14.00">CS 361</text>
</g>
<!-- CS 260&#45;&gt;CS 361 -->
<g id="edge48" class="edge"><title>CS 260&#45;&gt;CS 361</title>
<path fill="none" stroke="black" d="M1761.5,-647.966C1761.5,-600.291 1761.5,-465.185 1761.5,-406.63"/>
<polygon fill="black" stroke="black" points="1765,-406.306 1761.5,-396.306 1758,-406.306 1765,-406.306"/>
</g>
<!-- PHIL 315 -->
<g id="node68" class="node"><title>PHIL 315</title>
<ellipse fill="none" stroke="black" cx="1836.5" cy="-450" rx="47.3916" ry="18"/>
<text text-anchor="middle" x="1836.5" y="-446.3" font-family="Times,serif" font-size="14.00">PHIL 315</text>
</g>
<!-- ECON 548 -->
<g id="node70" class="node"><title>ECON 548</title>
<polygon fill="none" stroke="black" points="2026.58,-450 1995.54,-468 1933.46,-468 1902.42,-450 1933.46,-432 1995.54,-432 2026.58,-450"/>
<text text-anchor="middle" x="1964.5" y="-446.3" font-family="Times,serif" font-size="14.00">ECON 548</text>
</g>
<!-- ECON 610 -->
<g id="node74" class="node"><title>ECON 610</title>
<polygon fill="none" stroke="black" points="2026.08,-378 1995.29,-396 1933.71,-396 1902.92,-378 1933.71,-360 1995.29,-360 2026.08,-378"/>
<text text-anchor="middle" x="1964.5" y="-374.3" font-family="Times,serif" font-size="14.00">ECON 610</text>
</g>
<!-- ECON 548&#45;&gt;ECON 610 -->
<g id="edge22" class="edge"><title>ECON 548&#45;&gt;ECON 610</title>
<path fill="none" stroke="black" d="M1964.5,-431.697C1964.5,-423.983 1964.5,-414.712 1964.5,-406.112"/>
<polygon fill="black" stroke="black" points="1968,-406.104 1964.5,-396.104 1961,-406.104 1968,-406.104"/>
</g>
<!-- ECE 391 -->
<g id="node71" class="node"><title>ECE 391</title>
<ellipse fill="none" stroke="black" cx="929.5" cy="-378" rx="44.6926" ry="18"/>
<text text-anchor="middle" x="929.5" y="-374.3" font-family="Times,serif" font-size="14.00">ECE 391</text>
</g>
<!-- ECE 391&#45;&gt;ECE 491 -->
<g id="edge52" class="edge"><title>ECE 391&#45;&gt;ECE 491</title>
<path fill="none" stroke="black" d="M932.385,-359.849C938.626,-322.753 953.42,-234.81 960.941,-190.103"/>
<polygon fill="black" stroke="black" points="964.394,-190.675 962.601,-180.232 957.491,-189.513 964.394,-190.675"/>
</g>
<!-- ECE 492 -->
<g id="node77" class="node"><title>ECE 492</title>
<ellipse fill="none" stroke="black" cx="965.5" cy="-90" rx="46.2923" ry="18"/>
<text text-anchor="middle" x="965.5" y="-86.3" font-family="Times,serif" font-size="14.00">ECE 492</text>
</g>
<!-- ECE 491&#45;&gt;ECE 492 -->
<g id="edge53" class="edge"><title>ECE 491&#45;&gt;ECE 492</title>
<path fill="none" stroke="black" d="M965.5,-143.697C965.5,-135.983 965.5,-126.712 965.5,-118.112"/>
<polygon fill="black" stroke="black" points="969,-118.104 965.5,-108.104 962,-118.104 969,-118.104"/>
</g>
<!-- ECE 493 -->
<g id="node78" class="node"><title>ECE 493</title>
<ellipse fill="none" stroke="black" cx="965.5" cy="-18" rx="46.2923" ry="18"/>
<text text-anchor="middle" x="965.5" y="-14.3" font-family="Times,serif" font-size="14.00">ECE 493</text>
</g>
<!-- ECE 492&#45;&gt;ECE 493 -->
<g id="edge54" class="edge"><title>ECE 492&#45;&gt;ECE 493</title>
<path fill="none" stroke="black" d="M965.5,-71.6966C965.5,-63.9827 965.5,-54.7125 965.5,-46.1124"/>
<polygon fill="black" stroke="black" points="969,-46.1043 965.5,-36.1043 962,-46.1044 969,-46.1043"/>
</g>
</g>
</svg>
