<?xml version="1.0" encoding="UTF-8" standalone="no"?>
<!DOCTYPE svg PUBLIC "-//W3C//DTD SVG 1.1//EN"
 "http://www.w3.org/Graphics/SVG/1.1/DTD/svg11.dtd">
<!-- Generated by graphviz version 2.40.1 (20161225.0304)
 -->
<!-- Title: Classes Pages: 1 -->
<svg width="3446pt" height="1110pt"
 viewBox="0.00 0.00 3445.68 1109.57" xmlns="http://www.w3.org/2000/svg" xmlns:xlink="http://www.w3.org/1999/xlink">
<g id="graph0" class="graph" transform="scale(1 1) rotate(0) translate(4 1105.5677)">
<title>Classes</title>
<polygon fill="#ffffff" stroke="transparent" points="-4,4 -4,-1105.5677 3441.6812,-1105.5677 3441.6812,4 -4,4"/>
<!-- 0.0 -->
<g id="node1" class="node">
<title>0.0</title>
<text text-anchor="middle" x="43" y="-1075.2403" font-family="Times,serif" font-size="14.00" fill="#000000">0.0 (11.0)</text>
</g>
<!-- 1.1 -->
<g id="node5" class="node">
<title>1.1</title>
<text text-anchor="middle" x="43" y="-993.9854" font-family="Times,serif" font-size="14.00" fill="#000000">1.1 (16.5)</text>
</g>
<!-- 0.0&#45;&gt;1.1 -->
<!-- CS 190 -->
<g id="node2" class="node">
<title>CS 190</title>
<ellipse fill="none" stroke="#006400" cx="219" cy="-1078.9403" rx="115.0173" ry="22.7556"/>
<text text-anchor="start" x="173.5" y="-1080.7403" font-family="Times,serif" font-size="14.00" fill="#000000">CS 190 (3.0)</text>
<text text-anchor="start" x="145.5" y="-1069.9403" font-family="Times,serif" font-size="10.00" fill="#000000">Selected Computer Language</text>
</g>
<!-- SPAN 101 -->
<g id="node3" class="node">
<title>SPAN 101</title>
<ellipse fill="none" stroke="#006400" cx="442" cy="-1078.9403" rx="89.6056" ry="22.7556"/>
<text text-anchor="start" x="386.5" y="-1080.7403" font-family="Times,serif" font-size="14.00" fill="#000000">SPAN 101 (4.0)</text>
<text text-anchor="start" x="419" y="-1069.9403" font-family="Times,serif" font-size="10.00" fill="#000000">Spanish I</text>
</g>
<!-- TGFE 099 -->
<g id="node4" class="node">
<title>TGFE 099</title>
<ellipse fill="none" stroke="#006400" cx="670" cy="-1078.9403" rx="120.4167" ry="22.7556"/>
<text text-anchor="start" x="614.5" y="-1080.7403" font-family="Times,serif" font-size="14.00" fill="#000000">TGFE 099 (4.0)</text>
<text text-anchor="start" x="593" y="-1069.9403" font-family="Times,serif" font-size="10.00" fill="#000000">Transfer General Free Elective</text>
</g>
<!-- 1.2 -->
<g id="node13" class="node">
<title>1.2</title>
<text text-anchor="middle" x="43" y="-912.7306" font-family="Times,serif" font-size="14.00" fill="#000000">1.2 (19.5)</text>
</g>
<!-- 1.1&#45;&gt;1.2 -->
<!-- CHEM 101 -->
<g id="node6" class="node">
<title>CHEM 101</title>
<ellipse fill="none" stroke="#006400" cx="322" cy="-997.6854" rx="94.5053" ry="22.7556"/>
<text text-anchor="start" x="263" y="-999.4854" font-family="Times,serif" font-size="14.00" fill="#000000">CHEM 101 (3.5)</text>
<text text-anchor="start" x="272" y="-988.6854" font-family="Times,serif" font-size="10.00" fill="#000000">General Chemistry I</text>
</g>
<!-- CHEM 102 -->
<g id="node14" class="node">
<title>CHEM 102</title>
<ellipse fill="none" stroke="#006400" cx="199" cy="-916.4306" rx="94.5053" ry="22.7556"/>
<text text-anchor="start" x="140" y="-918.2306" font-family="Times,serif" font-size="14.00" fill="#000000">CHEM 102 (4.5)</text>
<text text-anchor="start" x="147.5" y="-907.4306" font-family="Times,serif" font-size="10.00" fill="#000000">General Chemistry II</text>
</g>
<!-- CHEM 101&#45;&gt;CHEM 102 -->
<g id="edge3" class="edge">
<title>CHEM 101&#45;&gt;CHEM 102</title>
<path fill="none" stroke="#000000" d="M289.6832,-976.3367C274.5491,-966.339 256.3457,-954.3136 240.2322,-943.6689"/>
<polygon fill="#000000" stroke="#000000" points="241.801,-940.5106 231.528,-937.9189 237.9426,-946.3512 241.801,-940.5106"/>
</g>
<!-- BIO 141 -->
<g id="node22" class="node">
<title>BIO 141</title>
<ellipse fill="none" stroke="#006400" cx="322" cy="-835.1758" rx="80.7205" ry="22.7556"/>
<text text-anchor="start" x="273" y="-836.9758" font-family="Times,serif" font-size="14.00" fill="#000000">BIO 141 (4.5)</text>
<text text-anchor="start" x="279.5" y="-826.1758" font-family="Times,serif" font-size="10.00" fill="#000000">Essential Biology</text>
</g>
<!-- CHEM 101&#45;&gt;BIO 141 -->
<g id="edge8" class="edge">
<title>CHEM 101&#45;&gt;BIO 141</title>
<path fill="none" stroke="#000000" d="M322,-974.7464C322,-946.9199 322,-899.8079 322,-868.1076"/>
<polygon fill="#000000" stroke="#000000" points="325.5001,-867.998 322,-857.9981 318.5001,-867.9981 325.5001,-867.998"/>
</g>
<!-- ENGR 220 -->
<g id="node32" class="node">
<title>ENGR 220</title>
<ellipse fill="none" stroke="#006400" cx="624" cy="-753.9209" rx="105.218" ry="22.7556"/>
<text text-anchor="start" x="566.5" y="-755.7209" font-family="Times,serif" font-size="14.00" fill="#000000">ENGR 220 (4.0)</text>
<text text-anchor="start" x="557.5" y="-744.9209" font-family="Times,serif" font-size="10.00" fill="#000000">Fundamentals of Materials</text>
</g>
<!-- CHEM 101&#45;&gt;ENGR 220 -->
<g id="edge14" class="edge">
<title>CHEM 101&#45;&gt;ENGR 220</title>
<path fill="none" stroke="#000000" d="M345.7242,-975.6212C384.5397,-939.9014 464.5621,-867.8382 537,-812.5483 551.0279,-801.8412 566.8998,-790.8407 581.2103,-781.3028"/>
<polygon fill="#000000" stroke="#000000" points="583.4746,-784.0017 589.8884,-775.5687 579.6156,-778.1614 583.4746,-784.0017"/>
</g>
<!-- ENGL 101 -->
<g id="node7" class="node">
<title>ENGL 101</title>
<ellipse fill="none" stroke="#006400" cx="1510" cy="-997.6854" rx="106.5467" ry="22.7556"/>
<text text-anchor="start" x="1453" y="-999.4854" font-family="Times,serif" font-size="14.00" fill="#000000">ENGL 101 (3.0)</text>
<text text-anchor="start" x="1442.5" y="-988.6854" font-family="Times,serif" font-size="10.00" fill="#000000">Composition and Rhetoric I</text>
</g>
<!-- ENGL 102 -->
<g id="node16" class="node">
<title>ENGL 102</title>
<ellipse fill="none" stroke="#006400" cx="1510" cy="-916.4306" rx="109.7032" ry="22.7556"/>
<text text-anchor="start" x="1453" y="-918.2306" font-family="Times,serif" font-size="14.00" fill="#000000">ENGL 102 (3.0)</text>
<text text-anchor="start" x="1440.5" y="-907.4306" font-family="Times,serif" font-size="10.00" fill="#000000">Composition and Rhetoric II</text>
</g>
<!-- ENGL 101&#45;&gt;ENGL 102 -->
<g id="edge4" class="edge">
<title>ENGL 101&#45;&gt;ENGL 102</title>
<path fill="none" stroke="#000000" d="M1510,-975.0514C1510,-967.1059 1510,-958.0098 1510,-949.3913"/>
<polygon fill="#000000" stroke="#000000" points="1513.5001,-949.225 1510,-939.225 1506.5001,-949.2251 1513.5001,-949.225"/>
</g>
<!-- ENGR 100 -->
<g id="node8" class="node">
<title>ENGR 100</title>
<ellipse fill="none" stroke="#006400" cx="2019" cy="-997.6854" rx="102.561" ry="22.7556"/>
<text text-anchor="start" x="1961.5" y="-999.4854" font-family="Times,serif" font-size="14.00" fill="#000000">ENGR 100 (1.0)</text>
<text text-anchor="start" x="1954.5" y="-988.6854" font-family="Times,serif" font-size="10.00" fill="#000000">Beginning CAD for Design</text>
</g>
<!-- ENGR 101 -->
<g id="node9" class="node">
<title>ENGR 101</title>
<ellipse fill="none" stroke="#006400" cx="1136" cy="-997.6854" rx="99.9045" ry="22.7556"/>
<text text-anchor="start" x="1078.5" y="-999.4854" font-family="Times,serif" font-size="14.00" fill="#000000">ENGR 101 (2.0)</text>
<text text-anchor="start" x="1073.5" y="-988.6854" font-family="Times,serif" font-size="10.00" fill="#000000">Engineering Design Lab I</text>
</g>
<!-- ENGR 102 -->
<g id="node17" class="node">
<title>ENGR 102</title>
<ellipse fill="none" stroke="#006400" cx="1136" cy="-916.4306" rx="102.561" ry="22.7556"/>
<text text-anchor="start" x="1078.5" y="-918.2306" font-family="Times,serif" font-size="14.00" fill="#000000">ENGR 102 (2.0)</text>
<text text-anchor="start" x="1071.5" y="-907.4306" font-family="Times,serif" font-size="10.00" fill="#000000">Engineering Design Lab II</text>
</g>
<!-- ENGR 101&#45;&gt;ENGR 102 -->
<g id="edge5" class="edge">
<title>ENGR 101&#45;&gt;ENGR 102</title>
<path fill="none" stroke="#000000" d="M1136,-975.0514C1136,-967.1059 1136,-958.0098 1136,-949.3913"/>
<polygon fill="#000000" stroke="#000000" points="1139.5001,-949.225 1136,-939.225 1132.5001,-949.2251 1139.5001,-949.225"/>
</g>
<!-- ENGR 121 -->
<g id="node10" class="node">
<title>ENGR 121</title>
<ellipse fill="none" stroke="#006400" cx="2373" cy="-997.6854" rx="92.7622" ry="22.7556"/>
<text text-anchor="start" x="2315.5" y="-999.4854" font-family="Times,serif" font-size="14.00" fill="#000000">ENGR 121 (2.0)</text>
<text text-anchor="start" x="2327" y="-988.6854" font-family="Times,serif" font-size="10.00" fill="#000000">Computation Lab I</text>
</g>
<!-- ENGR 231 -->
<g id="node33" class="node">
<title>ENGR 231</title>
<ellipse fill="none" stroke="#006400" cx="2373" cy="-753.9209" rx="109.7032" ry="22.7556"/>
<text text-anchor="start" x="2315.5" y="-755.7209" font-family="Times,serif" font-size="14.00" fill="#000000">ENGR 231 (3.0)</text>
<text text-anchor="start" x="2303.5" y="-744.9209" font-family="Times,serif" font-size="10.00" fill="#000000">Linear Engineering Systems</text>
</g>
<!-- ENGR 121&#45;&gt;ENGR 231 -->
<g id="edge17" class="edge">
<title>ENGR 121&#45;&gt;ENGR 231</title>
<path fill="none" stroke="#000000" d="M2373,-974.7527C2373,-931.3587 2373,-837.0989 2373,-786.913"/>
<polygon fill="#000000" stroke="#000000" points="2376.5001,-786.6151 2373,-776.6152 2369.5001,-786.6152 2376.5001,-786.6151"/>
</g>
<!-- MATH 121 -->
<g id="node11" class="node">
<title>MATH 121</title>
<ellipse fill="none" stroke="#006400" cx="552" cy="-997.6854" rx="92.7622" ry="22.7556"/>
<text text-anchor="start" x="494.5" y="-999.4854" font-family="Times,serif" font-size="14.00" fill="#000000">MATH 121 (4.0)</text>
<text text-anchor="start" x="527.5" y="-988.6854" font-family="Times,serif" font-size="10.00" fill="#000000">Calculus I</text>
</g>
<!-- MATH 122 -->
<g id="node19" class="node">
<title>MATH 122</title>
<ellipse fill="none" stroke="#006400" cx="552" cy="-916.4306" rx="92.7622" ry="22.7556"/>
<text text-anchor="start" x="494.5" y="-918.2306" font-family="Times,serif" font-size="14.00" fill="#000000">MATH 122 (4.0)</text>
<text text-anchor="start" x="525.5" y="-907.4306" font-family="Times,serif" font-size="10.00" fill="#000000">Calculus II</text>
</g>
<!-- MATH 121&#45;&gt;MATH 122 -->
<g id="edge6" class="edge">
<title>MATH 121&#45;&gt;MATH 122</title>
<path fill="none" stroke="#000000" d="M552,-975.0514C552,-967.1059 552,-958.0098 552,-949.3913"/>
<polygon fill="#000000" stroke="#000000" points="555.5001,-949.225 552,-939.225 548.5001,-949.2251 555.5001,-949.225"/>
</g>
<!-- UNIV 101 -->
<g id="node12" class="node">
<title>UNIV 101</title>
<ellipse fill="none" stroke="#006400" cx="2574" cy="-997.6854" rx="90.5193" ry="22.7556"/>
<text text-anchor="start" x="2518.5" y="-999.4854" font-family="Times,serif" font-size="14.00" fill="#000000">UNIV 101 (1.0)</text>
<text text-anchor="start" x="2518" y="-988.6854" font-family="Times,serif" font-size="10.00" fill="#000000">The Drexel Experience</text>
</g>
<!-- 1.3 -->
<g id="node21" class="node">
<title>1.3</title>
<text text-anchor="middle" x="43" y="-831.4758" font-family="Times,serif" font-size="14.00" fill="#000000">1.3 (17.5)</text>
</g>
<!-- 1.2&#45;&gt;1.3 -->
<!-- CIVC 101 -->
<g id="node15" class="node">
<title>CIVC 101</title>
<ellipse fill="none" stroke="#006400" cx="2504" cy="-916.4306" rx="102.561" ry="22.7556"/>
<text text-anchor="start" x="2449.5" y="-918.2306" font-family="Times,serif" font-size="14.00" fill="#000000">CIVC 101 (1.0)</text>
<text text-anchor="start" x="2439.5" y="-907.4306" font-family="Times,serif" font-size="10.00" fill="#000000">Intro to Civic Engagement</text>
</g>
<!-- ENGL 103 -->
<g id="node24" class="node">
<title>ENGL 103</title>
<ellipse fill="none" stroke="#006400" cx="1510" cy="-835.1758" rx="111.9462" ry="22.7556"/>
<text text-anchor="start" x="1453" y="-836.9758" font-family="Times,serif" font-size="14.00" fill="#000000">ENGL 103 (3.0)</text>
<text text-anchor="start" x="1439" y="-826.1758" font-family="Times,serif" font-size="10.00" fill="#000000">Composition and Rhetoric III</text>
</g>
<!-- ENGL 102&#45;&gt;ENGL 103 -->
<g id="edge9" class="edge">
<title>ENGL 102&#45;&gt;ENGL 103</title>
<path fill="none" stroke="#000000" d="M1510,-893.7966C1510,-885.8511 1510,-876.755 1510,-868.1365"/>
<polygon fill="#000000" stroke="#000000" points="1513.5001,-867.9702 1510,-857.9702 1506.5001,-867.9702 1513.5001,-867.9702"/>
</g>
<!-- ENGR 103 -->
<g id="node25" class="node">
<title>ENGR 103</title>
<ellipse fill="none" stroke="#006400" cx="1136" cy="-835.1758" rx="105.218" ry="22.7556"/>
<text text-anchor="start" x="1078.5" y="-836.9758" font-family="Times,serif" font-size="14.00" fill="#000000">ENGR 103 (2.0)</text>
<text text-anchor="start" x="1069.5" y="-826.1758" font-family="Times,serif" font-size="10.00" fill="#000000">Engineering Design Lab III</text>
</g>
<!-- ENGR 102&#45;&gt;ENGR 103 -->
<g id="edge10" class="edge">
<title>ENGR 102&#45;&gt;ENGR 103</title>
<path fill="none" stroke="#000000" d="M1136,-893.7966C1136,-885.8511 1136,-876.755 1136,-868.1365"/>
<polygon fill="#000000" stroke="#000000" points="1139.5001,-867.9702 1136,-857.9702 1132.5001,-867.9702 1139.5001,-867.9702"/>
</g>
<!-- ENGR 122 -->
<g id="node18" class="node">
<title>ENGR 122</title>
<ellipse fill="none" stroke="#006400" cx="2717" cy="-916.4306" rx="92.7622" ry="22.7556"/>
<text text-anchor="start" x="2659.5" y="-918.2306" font-family="Times,serif" font-size="14.00" fill="#000000">ENGR 122 (1.0)</text>
<text text-anchor="start" x="2669" y="-907.4306" font-family="Times,serif" font-size="10.00" fill="#000000">Computation Lab II</text>
</g>
<!-- MATH 200 -->
<g id="node26" class="node">
<title>MATH 200</title>
<ellipse fill="none" stroke="#006400" cx="651" cy="-835.1758" rx="92.7622" ry="22.7556"/>
<text text-anchor="start" x="593.5" y="-836.9758" font-family="Times,serif" font-size="14.00" fill="#000000">MATH 200 (4.0)</text>
<text text-anchor="start" x="598" y="-826.1758" font-family="Times,serif" font-size="10.00" fill="#000000">Multivariate Calculus</text>
</g>
<!-- MATH 122&#45;&gt;MATH 200 -->
<g id="edge11" class="edge">
<title>MATH 122&#45;&gt;MATH 200</title>
<path fill="none" stroke="#000000" d="M578.5302,-894.6558C590.1821,-885.0924 604.016,-873.7382 616.4582,-863.5262"/>
<polygon fill="#000000" stroke="#000000" points="618.8873,-866.0604 624.3966,-857.0107 614.4462,-860.6496 618.8873,-866.0604"/>
</g>
<!-- MATH 122&#45;&gt;ENGR 220 -->
<g id="edge15" class="edge">
<title>MATH 122&#45;&gt;ENGR 220</title>
<path fill="none" stroke="#000000" d="M545.5251,-893.6808C540.5774,-871.7375 536.5065,-838.1722 549,-812.5483 555.0027,-800.237 564.979,-789.7526 575.727,-781.2024"/>
<polygon fill="#000000" stroke="#000000" points="578.0907,-783.8072 584.0435,-775.0428 573.9244,-778.1821 578.0907,-783.8072"/>
</g>
<!-- PHYS 201 -->
<g id="node66" class="node">
<title>PHYS 201</title>
<ellipse fill="none" stroke="#ffa500" cx="624" cy="-347.6468" rx="108.375" ry="22.7556"/>
<text text-anchor="start" x="568" y="-349.4468" font-family="Times,serif" font-size="14.00" fill="#000000">PHYS 201 (4.0)</text>
<text text-anchor="start" x="555.5" y="-338.6468" font-family="Times,serif" font-size="10.00" fill="#000000">Fundamentals of Physics III</text>
</g>
<!-- MATH 122&#45;&gt;PHYS 201 -->
<g id="edge52" class="edge">
<title>MATH 122&#45;&gt;PHYS 201</title>
<path fill="none" stroke="#000000" d="M537.6982,-894.0181C519.6684,-863.5579 491,-806.8089 491,-753.9209 491,-753.9209 491,-753.9209 491,-510.1564 491,-452.3667 541.9911,-403.8374 580.8273,-375.2567"/>
<polygon fill="#000000" stroke="#000000" points="583.3082,-377.7852 589.403,-369.1189 579.2341,-372.0929 583.3082,-377.7852"/>
</g>
<!-- PHYS 101 -->
<g id="node20" class="node">
<title>PHYS 101</title>
<ellipse fill="none" stroke="#006400" cx="847" cy="-916.4306" rx="103.4757" ry="22.7556"/>
<text text-anchor="start" x="791" y="-918.2306" font-family="Times,serif" font-size="14.00" fill="#000000">PHYS 101 (4.0)</text>
<text text-anchor="start" x="782" y="-907.4306" font-family="Times,serif" font-size="10.00" fill="#000000">Fundamentals of Physics I</text>
</g>
<!-- PHYS 102 -->
<g id="node27" class="node">
<title>PHYS 102</title>
<ellipse fill="none" stroke="#006400" cx="905" cy="-835.1758" rx="105.218" ry="22.7556"/>
<text text-anchor="start" x="849" y="-836.9758" font-family="Times,serif" font-size="14.00" fill="#000000">PHYS 102 (4.0)</text>
<text text-anchor="start" x="838.5" y="-826.1758" font-family="Times,serif" font-size="10.00" fill="#000000">Fundamentals of Physics II</text>
</g>
<!-- PHYS 101&#45;&gt;PHYS 102 -->
<g id="edge12" class="edge">
<title>PHYS 101&#45;&gt;PHYS 102</title>
<path fill="none" stroke="#000000" d="M863.1562,-893.7966C869.3154,-885.168 876.4431,-875.1824 883.0509,-865.9253"/>
<polygon fill="#000000" stroke="#000000" points="885.9693,-867.861 888.9304,-857.6884 880.2719,-863.7941 885.9693,-867.861"/>
</g>
<!-- PHYS 101&#45;&gt;ENGR 220 -->
<g id="edge16" class="edge">
<title>PHYS 101&#45;&gt;ENGR 220</title>
<path fill="none" stroke="#000000" d="M825.1179,-894.1966C814.6296,-883.3698 801.9881,-870.0697 791,-857.8032 773.4762,-838.2406 773.9169,-828.4311 753,-812.5483 734.0561,-798.1637 711.0196,-786.2816 689.6845,-777.0636"/>
<polygon fill="#000000" stroke="#000000" points="690.919,-773.7861 680.3434,-773.1469 688.2122,-780.2416 690.919,-773.7861"/>
</g>
<!-- 2.1 -->
<g id="node28" class="node">
<title>2.1</title>
<text text-anchor="middle" x="43" y="-750.2209" font-family="Times,serif" font-size="14.00" fill="#000000">2.1 (20.0)</text>
</g>
<!-- 1.3&#45;&gt;2.1 -->
<!-- COOP 101 -->
<g id="node23" class="node">
<title>COOP 101</title>
<ellipse fill="none" stroke="#006400" cx="2504" cy="-835.1758" rx="102.561" ry="22.7556"/>
<text text-anchor="start" x="2453.5" y="-836.9758" font-family="Times,serif" font-size="14.00" fill="#000000">COOP 101 (0)</text>
<text text-anchor="start" x="2439.5" y="-826.1758" font-family="Times,serif" font-size="10.00" fill="#000000">Career Mgmt/Profess Dev</text>
</g>
<!-- ECES 301 -->
<g id="node46" class="node">
<title>ECES 301</title>
<ellipse fill="none" stroke="#006400" cx="1176" cy="-591.4113" rx="90.5193" ry="22.7556"/>
<text text-anchor="start" x="1120" y="-593.2113" font-family="Times,serif" font-size="14.00" fill="#000000">ECES 301 (4.0)</text>
<text text-anchor="start" x="1121.5" y="-582.4113" font-family="Times,serif" font-size="10.00" fill="#000000">Signals and Systems I</text>
</g>
<!-- ENGR 103&#45;&gt;ECES 301 -->
<g id="edge31" class="edge">
<title>ENGR 103&#45;&gt;ECES 301</title>
<path fill="none" stroke="#000000" d="M1139.7631,-812.243C1146.8987,-768.758 1162.416,-674.1938 1170.6379,-624.0883"/>
<polygon fill="#000000" stroke="#000000" points="1174.1105,-624.5403 1172.276,-614.1055 1167.2029,-623.4068 1174.1105,-624.5403"/>
</g>
<!-- ECE 303 -->
<g id="node58" class="node">
<title>ECE 303</title>
<ellipse fill="none" stroke="#ffa500" cx="1038" cy="-428.9016" rx="83.3772" ry="22.7556"/>
<text text-anchor="start" x="987" y="-430.7016" font-family="Times,serif" font-size="14.00" fill="#000000">ECE 303 (3.0)</text>
<text text-anchor="start" x="998.5" y="-419.9016" font-family="Times,serif" font-size="10.00" fill="#000000">ECE Laboratory</text>
</g>
<!-- ENGR 103&#45;&gt;ECE 303 -->
<g id="edge44" class="edge">
<title>ENGR 103&#45;&gt;ECE 303</title>
<path fill="none" stroke="#000000" d="M1117.0775,-812.8953C1093.7061,-783.0286 1057,-727.4076 1057,-672.6661 1057,-672.6661 1057,-672.6661 1057,-591.4113 1057,-546.1714 1049.6463,-494.3237 1044.0887,-461.5995"/>
<polygon fill="#000000" stroke="#000000" points="1047.5248,-460.9295 1042.359,-451.6793 1040.6288,-462.1319 1047.5248,-460.9295"/>
</g>
<!-- ECE 201 -->
<g id="node36" class="node">
<title>ECE 201</title>
<ellipse fill="none" stroke="#006400" cx="907" cy="-672.6661" rx="121.7449" ry="22.7556"/>
<text text-anchor="start" x="856" y="-674.4661" font-family="Times,serif" font-size="14.00" fill="#000000">ECE 201 (4.0)</text>
<text text-anchor="start" x="829" y="-663.6661" font-family="Times,serif" font-size="10.00" fill="#000000">Foundations of Electric Circuits</text>
</g>
<!-- PHYS 102&#45;&gt;ECE 201 -->
<g id="edge19" class="edge">
<title>PHYS 102&#45;&gt;ECE 201</title>
<path fill="none" stroke="#000000" d="M905.2823,-812.2368C905.6248,-784.4102 906.2046,-737.2983 906.5947,-705.598"/>
<polygon fill="#000000" stroke="#000000" points="910.0957,-705.5307 906.7191,-695.4884 903.0962,-705.4445 910.0957,-705.5307"/>
</g>
<!-- PHYS 102&#45;&gt;PHYS 201 -->
<g id="edge51" class="edge">
<title>PHYS 102&#45;&gt;PHYS 201</title>
<path fill="none" stroke="#000000" d="M865.3387,-813.971C821.4993,-787.3224 757,-737.1569 757,-672.6661 757,-672.6661 757,-672.6661 757,-510.1564 757,-452.3667 706.0089,-403.8374 667.1727,-375.2567"/>
<polygon fill="#000000" stroke="#000000" points="668.7659,-372.0929 658.597,-369.1189 664.6918,-377.7852 668.7659,-372.0929"/>
</g>
<!-- 2.2 -->
<g id="node35" class="node">
<title>2.2</title>
<text text-anchor="middle" x="43" y="-668.9661" font-family="Times,serif" font-size="14.00" fill="#000000">2.2 (16.0)</text>
</g>
<!-- 2.1&#45;&gt;2.2 -->
<!-- ECE 200 -->
<g id="node29" class="node">
<title>ECE 200</title>
<ellipse fill="none" stroke="#006400" cx="1357" cy="-753.9209" rx="83.3772" ry="22.7556"/>
<text text-anchor="start" x="1306" y="-755.7209" font-family="Times,serif" font-size="14.00" fill="#000000">ECE 200 (4.0)</text>
<text text-anchor="start" x="1307" y="-744.9209" font-family="Times,serif" font-size="10.00" fill="#000000">Digital Logic Design</text>
</g>
<!-- MATH 221 -->
<g id="node40" class="node">
<title>MATH 221</title>
<ellipse fill="none" stroke="#006400" cx="1297" cy="-672.6661" rx="92.7622" ry="22.7556"/>
<text text-anchor="start" x="1239.5" y="-674.4661" font-family="Times,serif" font-size="14.00" fill="#000000">MATH 221 (3.0)</text>
<text text-anchor="start" x="1242.5" y="-663.6661" font-family="Times,serif" font-size="10.00" fill="#000000">Discrete Mathematics</text>
</g>
<!-- ECE 200&#45;&gt;MATH 221 -->
<g id="edge23" class="edge">
<title>ECE 200&#45;&gt;MATH 221</title>
<path fill="none" stroke="#000000" d="M1340.6047,-731.7177C1334.1104,-722.9228 1326.537,-712.6664 1319.5413,-703.1925"/>
<polygon fill="#000000" stroke="#000000" points="1322.3397,-701.0903 1313.5839,-695.1248 1316.7086,-705.2484 1322.3397,-701.0903"/>
</g>
<!-- ECEC 302 -->
<g id="node44" class="node">
<title>ECEC 302</title>
<ellipse fill="none" stroke="#006400" cx="1543" cy="-591.4113" rx="96.7474" ry="22.7556"/>
<text text-anchor="start" x="1486.5" y="-593.2113" font-family="Times,serif" font-size="14.00" fill="#000000">ECEC 302 (3.0)</text>
<text text-anchor="start" x="1482.5" y="-582.4113" font-family="Times,serif" font-size="10.00" fill="#000000">Digital Systems Projects</text>
</g>
<!-- ECE 200&#45;&gt;ECEC 302 -->
<g id="edge27" class="edge">
<title>ECE 200&#45;&gt;ECEC 302</title>
<path fill="none" stroke="#000000" d="M1385.6108,-732.5079C1399.8015,-721.649 1417.0581,-708.0816 1432,-695.2935 1460.3412,-671.0375 1491.222,-641.9006 1513.1996,-620.6656"/>
<polygon fill="#000000" stroke="#000000" points="1515.8412,-622.9794 1520.5833,-613.5051 1510.968,-617.9543 1515.8412,-622.9794"/>
</g>
<!-- ECE 200&#45;&gt;ECES 301 -->
<g id="edge29" class="edge">
<title>ECE 200&#45;&gt;ECES 301</title>
<path fill="none" stroke="#000000" d="M1282.2626,-743.6306C1250.9535,-735.5419 1216.8312,-721.0953 1195,-695.2935 1178.5403,-675.8401 1174.3527,-646.8892 1173.9634,-624.4878"/>
<polygon fill="#000000" stroke="#000000" points="1177.4638,-624.4243 1174.0306,-614.4012 1170.464,-624.3776 1177.4638,-624.4243"/>
</g>
<!-- ECEC 204 -->
<g id="node49" class="node">
<title>ECEC 204</title>
<ellipse fill="none" stroke="#006400" cx="1647" cy="-510.1564" rx="112.36" ry="22.7556"/>
<text text-anchor="start" x="1590.5" y="-511.9564" font-family="Times,serif" font-size="14.00" fill="#000000">ECEC 204 (3.0)</text>
<text text-anchor="start" x="1575.5" y="-501.1564" font-family="Times,serif" font-size="10.00" fill="#000000">Design with Microcontrollers</text>
</g>
<!-- ECE 200&#45;&gt;ECEC 204 -->
<g id="edge34" class="edge">
<title>ECE 200&#45;&gt;ECEC 204</title>
<path fill="none" stroke="#000000" d="M1375.6213,-731.6417C1383.688,-721.1313 1392.7053,-708.1041 1399,-695.2935 1424.8907,-642.6026 1395.0832,-609.889 1437,-568.7838 1453.9997,-552.1133 1505.0038,-537.6693 1552.4868,-527.2892"/>
<polygon fill="#000000" stroke="#000000" points="1553.5054,-530.6506 1562.5522,-525.1365 1552.0414,-523.8054 1553.5054,-530.6506"/>
</g>
<!-- ECE 203 -->
<g id="node30" class="node">
<title>ECE 203</title>
<ellipse fill="none" stroke="#006400" cx="1866" cy="-753.9209" rx="108.375" ry="22.7556"/>
<text text-anchor="start" x="1815" y="-755.7209" font-family="Times,serif" font-size="14.00" fill="#000000">ECE 203 (3.0)</text>
<text text-anchor="start" x="1797.5" y="-744.9209" font-family="Times,serif" font-size="10.00" fill="#000000">Programming for Engineers</text>
</g>
<!-- ECEC 201 -->
<g id="node37" class="node">
<title>ECEC 201</title>
<ellipse fill="none" stroke="#006400" cx="1866" cy="-672.6661" rx="123.0732" ry="22.7556"/>
<text text-anchor="start" x="1809.5" y="-674.4661" font-family="Times,serif" font-size="14.00" fill="#000000">ECEC 201 (3.0)</text>
<text text-anchor="start" x="1787" y="-663.6661" font-family="Times,serif" font-size="10.00" fill="#000000">Adv Programming for Engineers</text>
</g>
<!-- ECE 203&#45;&gt;ECEC 201 -->
<g id="edge20" class="edge">
<title>ECE 203&#45;&gt;ECEC 201</title>
<path fill="none" stroke="#000000" d="M1866,-731.2869C1866,-723.3414 1866,-714.2453 1866,-705.6268"/>
<polygon fill="#000000" stroke="#000000" points="1869.5001,-705.4605 1866,-695.4605 1862.5001,-705.4606 1869.5001,-705.4605"/>
</g>
<!-- ECE 203&#45;&gt;ECEC 302 -->
<g id="edge26" class="edge">
<title>ECE 203&#45;&gt;ECEC 302</title>
<path fill="none" stroke="#000000" d="M1817.6057,-733.5329C1792.447,-722.6562 1761.3259,-708.766 1734,-695.2935 1683.381,-670.3368 1626.7387,-639.0972 1588.3749,-617.4263"/>
<polygon fill="#000000" stroke="#000000" points="1589.9393,-614.2899 1579.5131,-612.4069 1586.4894,-620.3808 1589.9393,-614.2899"/>
</g>
<!-- ECEC 357 -->
<g id="node45" class="node">
<title>ECEC 357</title>
<ellipse fill="none" stroke="#006400" cx="2228" cy="-591.4113" rx="135.5294" ry="22.7556"/>
<text text-anchor="start" x="2171.5" y="-593.2113" font-family="Times,serif" font-size="14.00" fill="#000000">ECEC 357 (3.0)</text>
<text text-anchor="start" x="2140" y="-582.4113" font-family="Times,serif" font-size="10.00" fill="#000000">Introduction to Computer Networks</text>
</g>
<!-- ECE 203&#45;&gt;ECEC 357 -->
<g id="edge28" class="edge">
<title>ECE 203&#45;&gt;ECEC 357</title>
<path fill="none" stroke="#000000" d="M1912.459,-733.3712C1937.7665,-722.1559 1969.623,-708.0036 1998,-695.2935 2057.2941,-668.7357 2125.0658,-638.0905 2171.6001,-617.0034"/>
<polygon fill="#000000" stroke="#000000" points="2173.2425,-620.1018 2180.9057,-612.7857 2170.3527,-613.7261 2173.2425,-620.1018"/>
</g>
<!-- ENGR 201 -->
<g id="node31" class="node">
<title>ENGR 201</title>
<ellipse fill="none" stroke="#006400" cx="2618" cy="-753.9209" rx="107.4605" ry="22.7556"/>
<text text-anchor="start" x="2560.5" y="-755.7209" font-family="Times,serif" font-size="14.00" fill="#000000">ENGR 201 (3.0)</text>
<text text-anchor="start" x="2550" y="-744.9209" font-family="Times,serif" font-size="10.00" fill="#000000">Eval &amp; Pres of Exper Data I</text>
</g>
<!-- ENGR 202 -->
<g id="node38" class="node">
<title>ENGR 202</title>
<ellipse fill="none" stroke="#006400" cx="2618" cy="-672.6661" rx="110.1176" ry="22.7556"/>
<text text-anchor="start" x="2560.5" y="-674.4661" font-family="Times,serif" font-size="14.00" fill="#000000">ENGR 202 (3.0)</text>
<text text-anchor="start" x="2548" y="-663.6661" font-family="Times,serif" font-size="10.00" fill="#000000">Eval &amp; Pres of Exper Data II</text>
</g>
<!-- ENGR 201&#45;&gt;ENGR 202 -->
<g id="edge21" class="edge">
<title>ENGR 201&#45;&gt;ENGR 202</title>
<path fill="none" stroke="#000000" d="M2618,-731.2869C2618,-723.3414 2618,-714.2453 2618,-705.6268"/>
<polygon fill="#000000" stroke="#000000" points="2621.5001,-705.4605 2618,-695.4605 2614.5001,-705.4606 2621.5001,-705.4605"/>
</g>
<!-- ENGR 232 -->
<g id="node39" class="node">
<title>ENGR 232</title>
<ellipse fill="none" stroke="#006400" cx="2373" cy="-672.6661" rx="116.8455" ry="22.7556"/>
<text text-anchor="start" x="2315.5" y="-674.4661" font-family="Times,serif" font-size="14.00" fill="#000000">ENGR 232 (3.0)</text>
<text text-anchor="start" x="2298.5" y="-663.6661" font-family="Times,serif" font-size="10.00" fill="#000000">Dynamic Engineering Systems</text>
</g>
<!-- ENGR 231&#45;&gt;ENGR 232 -->
<g id="edge22" class="edge">
<title>ENGR 231&#45;&gt;ENGR 232</title>
<path fill="none" stroke="#000000" d="M2373,-731.2869C2373,-723.3414 2373,-714.2453 2373,-705.6268"/>
<polygon fill="#000000" stroke="#000000" points="2376.5001,-705.4605 2373,-695.4605 2369.5001,-705.4606 2376.5001,-705.4605"/>
</g>
<!-- PHIL 111 -->
<g id="node34" class="node">
<title>PHIL 111</title>
<ellipse fill="none" stroke="#006400" cx="2831" cy="-753.9209" rx="87.8629" ry="22.7556"/>
<text text-anchor="start" x="2777" y="-755.7209" font-family="Times,serif" font-size="14.00" fill="#000000">PHIL 111 (3.0)</text>
<text text-anchor="start" x="2790" y="-744.9209" font-family="Times,serif" font-size="10.00" fill="#000000">Symbolic Logic I</text>
</g>
<!-- PHIL 207 -->
<g id="node73" class="node">
<title>PHIL 207</title>
<ellipse fill="none" stroke="#ffa500" cx="2831" cy="-103.8823" rx="87.8629" ry="22.7556"/>
<text text-anchor="start" x="2777" y="-105.6823" font-family="Times,serif" font-size="14.00" fill="#000000">PHIL 207 (3.0)</text>
<text text-anchor="start" x="2788.5" y="-94.8823" font-family="Times,serif" font-size="10.00" fill="#000000">Symbolic Logic II</text>
</g>
<!-- PHIL 111&#45;&gt;PHIL 207 -->
<g id="edge60" class="edge">
<title>PHIL 111&#45;&gt;PHIL 207</title>
<path fill="none" stroke="#000000" d="M2831,-731.045C2831,-699.588 2831,-641.2081 2831,-591.4113 2831,-591.4113 2831,-591.4113 2831,-266.3919 2831,-221.6526 2831,-169.9851 2831,-137.1386"/>
<polygon fill="#000000" stroke="#000000" points="2834.5001,-136.7581 2831,-126.7581 2827.5001,-136.7582 2834.5001,-136.7581"/>
</g>
<!-- 3.1 -->
<g id="node41" class="node">
<title>3.1</title>
<text text-anchor="middle" x="43" y="-587.7113" font-family="Times,serif" font-size="14.00" fill="#000000">3.1 (17.0)</text>
</g>
<!-- 2.2&#45;&gt;3.1 -->
<!-- ECE 201&#45;&gt;ECES 301 -->
<g id="edge30" class="edge">
<title>ECE 201&#45;&gt;ECES 301</title>
<path fill="none" stroke="#000000" d="M971.0904,-653.3068C1012.4671,-640.8084 1066.2246,-624.5703 1108.296,-611.8621"/>
<polygon fill="#000000" stroke="#000000" points="1109.3426,-615.2022 1117.9034,-608.9601 1107.3185,-608.5012 1109.3426,-615.2022"/>
</g>
<!-- ECE 201&#45;&gt;ECE 303 -->
<g id="edge43" class="edge">
<title>ECE 201&#45;&gt;ECE 303</title>
<path fill="none" stroke="#000000" d="M919.3242,-649.7333C942.8398,-605.9754 994.1513,-510.4951 1020.9434,-460.6405"/>
<polygon fill="#000000" stroke="#000000" points="1024.1532,-462.0613 1025.804,-451.5958 1017.9872,-458.7476 1024.1532,-462.0613"/>
</g>
<!-- CS 265 -->
<g id="node42" class="node">
<title>CS 265</title>
<ellipse fill="none" stroke="#006400" cx="1866" cy="-591.4113" rx="170.3255" ry="22.7556"/>
<text text-anchor="start" x="1820.5" y="-593.2113" font-family="Times,serif" font-size="14.00" fill="#000000">CS 265 (3.0)</text>
<text text-anchor="start" x="1753.5" y="-582.4113" font-family="Times,serif" font-size="10.00" fill="#000000">Advanced Programming Tools and Techniques</text>
</g>
<!-- ECEC 201&#45;&gt;CS 265 -->
<g id="edge25" class="edge">
<title>ECEC 201&#45;&gt;CS 265</title>
<path fill="none" stroke="#000000" d="M1866,-650.0321C1866,-642.0866 1866,-632.9905 1866,-624.372"/>
<polygon fill="#000000" stroke="#000000" points="1869.5001,-624.2057 1866,-614.2057 1862.5001,-624.2057 1869.5001,-624.2057"/>
</g>
<!-- ECEC 201&#45;&gt;ECEC 204 -->
<g id="edge35" class="edge">
<title>ECEC 201&#45;&gt;ECEC 204</title>
<path fill="none" stroke="#000000" d="M1771.2326,-658.1975C1741.2622,-649.5972 1709.9943,-635.8883 1687,-614.0387 1667.3185,-595.3369 1657.1923,-565.8773 1652.0612,-543.0989"/>
<polygon fill="#000000" stroke="#000000" points="1655.4636,-542.2666 1650.0387,-533.166 1648.6043,-543.6633 1655.4636,-542.2666"/>
</g>
<!-- ECEC 353 -->
<g id="node51" class="node">
<title>ECEC 353</title>
<ellipse fill="none" stroke="#006400" cx="2076" cy="-510.1564" rx="91.4341" ry="22.7556"/>
<text text-anchor="start" x="2019.5" y="-511.9564" font-family="Times,serif" font-size="14.00" fill="#000000">ECEC 353 (3.0)</text>
<text text-anchor="start" x="2020" y="-501.1564" font-family="Times,serif" font-size="10.00" fill="#000000">Systems Programming</text>
</g>
<!-- ECEC 201&#45;&gt;ECEC 353 -->
<g id="edge36" class="edge">
<title>ECEC 201&#45;&gt;ECEC 353</title>
<path fill="none" stroke="#000000" d="M1943.1057,-654.9795C1984.5958,-644.0326 2030.2277,-629.2079 2045,-614.0387 2063.3637,-595.1815 2070.915,-565.925 2073.987,-543.2591"/>
<polygon fill="#000000" stroke="#000000" points="2077.4951,-543.3822 2075.1346,-533.0537 2070.539,-542.5999 2077.4951,-543.3822"/>
</g>
<!-- 3.2 -->
<g id="node47" class="node">
<title>3.2</title>
<text text-anchor="middle" x="43" y="-506.4564" font-family="Times,serif" font-size="14.00" fill="#000000">3.2 (18.0)</text>
</g>
<!-- 3.1&#45;&gt;3.2 -->
<!-- CS 260 -->
<g id="node48" class="node">
<title>CS 260</title>
<ellipse fill="none" stroke="#006400" cx="1853" cy="-510.1564" rx="75.8212" ry="22.7556"/>
<text text-anchor="start" x="1807.5" y="-511.9564" font-family="Times,serif" font-size="14.00" fill="#000000">CS 260 (3.0)</text>
<text text-anchor="start" x="1813.5" y="-501.1564" font-family="Times,serif" font-size="10.00" fill="#000000">Data Structures</text>
</g>
<!-- CS 265&#45;&gt;CS 260 -->
<g id="edge33" class="edge">
<title>CS 265&#45;&gt;CS 260</title>
<path fill="none" stroke="#000000" d="M1862.3788,-568.7773C1861.0936,-560.7445 1859.6203,-551.5356 1858.228,-542.8332"/>
<polygon fill="#000000" stroke="#000000" points="1861.6828,-542.2723 1856.6469,-532.9509 1854.7707,-543.3782 1861.6828,-542.2723"/>
</g>
<!-- CS 350 [WI] -->
<g id="node62" class="node">
<title>CS 350 [WI]</title>
<ellipse fill="none" stroke="#ffa500" cx="1930" cy="-347.6468" rx="101.2327" ry="22.7556"/>
<text text-anchor="start" x="1866.5" y="-349.4468" font-family="Times,serif" font-size="14.00" fill="#000000">CS 350 [WI] (3.0)</text>
<text text-anchor="start" x="1889" y="-338.6468" font-family="Times,serif" font-size="10.00" fill="#000000">Software Design</text>
</g>
<!-- CS 265&#45;&gt;CS 350 [WI] -->
<g id="edge48" class="edge">
<title>CS 265&#45;&gt;CS 350 [WI]</title>
<path fill="none" stroke="#000000" d="M1905.535,-569.1317C1918.3292,-559.7157 1931.0107,-547.4883 1938,-532.7838 1961.3912,-483.5722 1950.3304,-418.4427 1940.1652,-379.9968"/>
<polygon fill="#000000" stroke="#000000" points="1943.5368,-379.0573 1937.4867,-370.3597 1936.7925,-380.9318 1943.5368,-379.0573"/>
</g>
<!-- ECE 361 -->
<g id="node43" class="node">
<title>ECE 361</title>
<ellipse fill="none" stroke="#006400" cx="2996" cy="-591.4113" rx="98.9899" ry="22.7556"/>
<text text-anchor="start" x="2945" y="-593.2113" font-family="Times,serif" font-size="14.00" fill="#000000">ECE 361 (4.0)</text>
<text text-anchor="start" x="2934" y="-582.4113" font-family="Times,serif" font-size="10.00" fill="#000000">Probability for Engineers</text>
</g>
<!-- ECE 491 -->
<g id="node68" class="node">
<title>ECE 491</title>
<ellipse fill="none" stroke="#ffa500" cx="3086" cy="-266.3919" rx="92.7622" ry="22.7556"/>
<text text-anchor="start" x="3035" y="-268.1919" font-family="Times,serif" font-size="14.00" fill="#000000">ECE 491 (2.0)</text>
<text text-anchor="start" x="3028.5" y="-257.3919" font-family="Times,serif" font-size="10.00" fill="#000000">Senior Design Project I</text>
</g>
<!-- ECE 361&#45;&gt;ECE 491 -->
<g id="edge55" class="edge">
<title>ECE 361&#45;&gt;ECE 491</title>
<path fill="none" stroke="#000000" d="M2995.6849,-568.6723C2995.7782,-533.2317 2998.3202,-463.0013 3015,-406.2742 3026.596,-366.8369 3049.1996,-325.2771 3065.7995,-297.8071"/>
<polygon fill="#000000" stroke="#000000" points="3068.9238,-299.4078 3071.1743,-289.0548 3062.9587,-295.7447 3068.9238,-299.4078"/>
</g>
<!-- ECEC 355 -->
<g id="node52" class="node">
<title>ECEC 355</title>
<ellipse fill="none" stroke="#006400" cx="1425" cy="-510.1564" rx="91.4341" ry="22.7556"/>
<text text-anchor="start" x="1368.5" y="-511.9564" font-family="Times,serif" font-size="14.00" fill="#000000">ECEC 355 (3.0)</text>
<text text-anchor="start" x="1368.5" y="-501.1564" font-family="Times,serif" font-size="10.00" fill="#000000">Computer Architecture</text>
</g>
<!-- ECEC 302&#45;&gt;ECEC 355 -->
<g id="edge37" class="edge">
<title>ECEC 302&#45;&gt;ECEC 355</title>
<path fill="none" stroke="#000000" d="M1511.688,-569.8498C1497.1705,-559.853 1479.7605,-547.8645 1464.3641,-537.2626"/>
<polygon fill="#000000" stroke="#000000" points="1466.2701,-534.3255 1456.0489,-531.5367 1462.3001,-540.0909 1466.2701,-534.3255"/>
</g>
<!-- 4.1 -->
<g id="node54" class="node">
<title>4.1</title>
<text text-anchor="middle" x="43" y="-425.2016" font-family="Times,serif" font-size="14.00" fill="#000000">4.1 (16.0)</text>
</g>
<!-- 3.2&#45;&gt;4.1 -->
<!-- CS 361 -->
<g id="node55" class="node">
<title>CS 361</title>
<ellipse fill="none" stroke="#ffa500" cx="1791" cy="-428.9016" rx="100.3184" ry="22.7556"/>
<text text-anchor="start" x="1745.5" y="-430.7016" font-family="Times,serif" font-size="14.00" fill="#000000">CS 361 (3.0)</text>
<text text-anchor="start" x="1728" y="-419.9016" font-family="Times,serif" font-size="10.00" fill="#000000">Concurrent Programming</text>
</g>
<!-- CS 260&#45;&gt;CS 361 -->
<g id="edge39" class="edge">
<title>CS 260&#45;&gt;CS 361</title>
<path fill="none" stroke="#000000" d="M1836.0582,-487.9532C1829.3474,-479.1583 1821.5215,-468.9019 1814.2926,-459.428"/>
<polygon fill="#000000" stroke="#000000" points="1816.9854,-457.1872 1808.1367,-451.3603 1811.4203,-461.4335 1816.9854,-457.1872"/>
</g>
<!-- CS 260&#45;&gt;CS 350 [WI] -->
<g id="edge47" class="edge">
<title>CS 260&#45;&gt;CS 350 [WI]</title>
<path fill="none" stroke="#000000" d="M1874.0201,-488.2383C1883.0839,-477.8007 1893.153,-464.7307 1900,-451.529 1911.661,-429.0454 1919.3635,-401.4059 1924.041,-380.2905"/>
<polygon fill="#000000" stroke="#000000" points="1927.467,-381.0061 1926.0983,-370.5 1920.6166,-379.5665 1927.467,-381.0061"/>
</g>
<!-- ECEC I399 -->
<g id="node50" class="node">
<title>ECEC I399</title>
<ellipse fill="none" stroke="#006400" cx="3134" cy="-510.1564" rx="110.1176" ry="22.7556"/>
<text text-anchor="start" x="3074.5" y="-511.9564" font-family="Times,serif" font-size="14.00" fill="#000000">ECEC I399 (3.0)</text>
<text text-anchor="start" x="3064" y="-501.1564" font-family="Times,serif" font-size="10.00" fill="#000000">Vision Processing Hardware</text>
</g>
<!-- CS 370 -->
<g id="node56" class="node">
<title>CS 370</title>
<ellipse fill="none" stroke="#ffa500" cx="2239" cy="-428.9016" rx="77.5641" ry="22.7556"/>
<text text-anchor="start" x="2193.5" y="-430.7016" font-family="Times,serif" font-size="14.00" fill="#000000">CS 370 (3.0)</text>
<text text-anchor="start" x="2192" y="-419.9016" font-family="Times,serif" font-size="10.00" fill="#000000">Operating Systems</text>
</g>
<!-- ECEC 353&#45;&gt;CS 370 -->
<g id="edge41" class="edge">
<title>ECEC 353&#45;&gt;CS 370</title>
<path fill="none" stroke="#000000" d="M2116.7113,-489.862C2139.1044,-478.6992 2167.0327,-464.777 2190.5441,-453.0567"/>
<polygon fill="#000000" stroke="#000000" points="2192.2621,-456.1111 2199.6502,-448.5173 2189.1391,-449.8463 2192.2621,-456.1111"/>
</g>
<!-- CS 377 -->
<g id="node57" class="node">
<title>CS 377</title>
<ellipse fill="none" stroke="#ffa500" cx="2068" cy="-428.9016" rx="75.8212" ry="22.7556"/>
<text text-anchor="start" x="2022.5" y="-430.7016" font-family="Times,serif" font-size="14.00" fill="#000000">CS 377 (3.0)</text>
<text text-anchor="start" x="2023.5" y="-419.9016" font-family="Times,serif" font-size="10.00" fill="#000000">Software Security</text>
</g>
<!-- ECEC 353&#45;&gt;CS 377 -->
<g id="edge42" class="edge">
<title>ECEC 353&#45;&gt;CS 377</title>
<path fill="none" stroke="#000000" d="M2073.7716,-487.5224C2072.9893,-479.5769 2072.0937,-470.4808 2071.2452,-461.8623"/>
<polygon fill="#000000" stroke="#000000" points="2074.7073,-461.3049 2070.2442,-451.696 2067.741,-461.9909 2074.7073,-461.3049"/>
</g>
<!-- ECEC 355&#45;&gt;CS 361 -->
<g id="edge40" class="edge">
<title>ECEC 355&#45;&gt;CS 361</title>
<path fill="none" stroke="#000000" d="M1492.9054,-494.9173C1503.9656,-492.4426 1515.3006,-489.911 1526,-487.529 1587.3562,-473.869 1656.7269,-458.5254 1709.0982,-446.9621"/>
<polygon fill="#000000" stroke="#000000" points="1709.9951,-450.3485 1719.0055,-444.775 1708.4861,-443.5131 1709.9951,-450.3485"/>
</g>
<!-- ECEC 412 -->
<g id="node60" class="node">
<title>ECEC 412</title>
<ellipse fill="none" stroke="#ffa500" cx="1284" cy="-428.9016" rx="101.6471" ry="22.7556"/>
<text text-anchor="start" x="1227.5" y="-430.7016" font-family="Times,serif" font-size="14.00" fill="#000000">ECEC 412 (3.0)</text>
<text text-anchor="start" x="1220" y="-419.9016" font-family="Times,serif" font-size="10.00" fill="#000000">Modern Processor Design</text>
</g>
<!-- ECEC 355&#45;&gt;ECEC 412 -->
<g id="edge45" class="edge">
<title>ECEC 355&#45;&gt;ECEC 412</title>
<path fill="none" stroke="#000000" d="M1388.689,-489.2313C1370.6562,-478.8394 1348.6858,-466.1784 1329.5368,-455.1433"/>
<polygon fill="#000000" stroke="#000000" points="1331.0899,-451.9988 1320.678,-450.0382 1327.5947,-458.0638 1331.0899,-451.9988"/>
</g>
<!-- ECEC 413 -->
<g id="node63" class="node">
<title>ECEC 413</title>
<ellipse fill="none" stroke="#ffa500" cx="1403" cy="-347.6468" rx="148.4848" ry="22.7556"/>
<text text-anchor="start" x="1346.5" y="-349.4468" font-family="Times,serif" font-size="14.00" fill="#000000">ECEC 413 (3.0)</text>
<text text-anchor="start" x="1306" y="-338.6468" font-family="Times,serif" font-size="10.00" fill="#000000">Intro to Parallel Computer Architecture</text>
</g>
<!-- ECEC 355&#45;&gt;ECEC 413 -->
<g id="edge49" class="edge">
<title>ECEC 355&#45;&gt;ECEC 413</title>
<path fill="none" stroke="#000000" d="M1421.8946,-487.2174C1418.1275,-459.3909 1411.7497,-412.2789 1407.4582,-380.5786"/>
<polygon fill="#000000" stroke="#000000" points="1410.8996,-379.9091 1406.0896,-370.4691 1403.9629,-380.8482 1410.8996,-379.9091"/>
</g>
<!-- ECEC 414 -->
<g id="node64" class="node">
<title>ECEC 414</title>
<ellipse fill="none" stroke="#ffa500" cx="1685" cy="-347.6468" rx="115.0173" ry="22.7556"/>
<text text-anchor="start" x="1628.5" y="-349.4468" font-family="Times,serif" font-size="14.00" fill="#000000">ECEC 414 (3.0)</text>
<text text-anchor="start" x="1611.5" y="-338.6468" font-family="Times,serif" font-size="10.00" fill="#000000">High Performance Computing</text>
</g>
<!-- ECEC 355&#45;&gt;ECEC 414 -->
<g id="edge50" class="edge">
<title>ECEC 355&#45;&gt;ECEC 414</title>
<path fill="none" stroke="#000000" d="M1458.7239,-489.0777C1505.4834,-459.8513 1590.0499,-406.9941 1641.5069,-374.8316"/>
<polygon fill="#000000" stroke="#000000" points="1643.4665,-377.7342 1650.0913,-369.466 1639.7564,-371.7983 1643.4665,-377.7342"/>
</g>
<!-- PHIL 315 -->
<g id="node53" class="node">
<title>PHIL 315</title>
<ellipse fill="none" stroke="#006400" cx="3350" cy="-510.1564" rx="87.8629" ry="22.7556"/>
<text text-anchor="start" x="3296" y="-511.9564" font-family="Times,serif" font-size="14.00" fill="#000000">PHIL 315 (3.0)</text>
<text text-anchor="start" x="3303.5" y="-501.1564" font-family="Times,serif" font-size="10.00" fill="#000000">Engineering Ethics</text>
</g>
<!-- 4.2 -->
<g id="node61" class="node">
<title>4.2</title>
<text text-anchor="middle" x="43" y="-343.9468" font-family="Times,serif" font-size="14.00" fill="#000000">4.2 (17.0)</text>
</g>
<!-- 4.1&#45;&gt;4.2 -->
<!-- ECE 391 -->
<g id="node59" class="node">
<title>ECE 391</title>
<ellipse fill="none" stroke="#ffa500" cx="3139" cy="-428.9016" rx="114.6026" ry="22.7556"/>
<text text-anchor="start" x="3088" y="-430.7016" font-family="Times,serif" font-size="14.00" fill="#000000">ECE 391 (1.0)</text>
<text text-anchor="start" x="3066" y="-419.9016" font-family="Times,serif" font-size="10.00" fill="#000000">Intro to Engr Design Methods</text>
</g>
<!-- ECE 391&#45;&gt;ECE 491 -->
<g id="edge54" class="edge">
<title>ECE 391&#45;&gt;ECE 491</title>
<path fill="none" stroke="#000000" d="M3131.6306,-406.3053C3122.5193,-378.3681 3106.9475,-330.6215 3096.5657,-298.7886"/>
<polygon fill="#000000" stroke="#000000" points="3099.8203,-297.4796 3093.3921,-289.0576 3093.1652,-299.6501 3099.8203,-297.4796"/>
</g>
<!-- 5.1 -->
<g id="node67" class="node">
<title>5.1</title>
<text text-anchor="middle" x="43" y="-262.6919" font-family="Times,serif" font-size="14.00" fill="#000000">5.1 (2.0)</text>
</g>
<!-- 4.2&#45;&gt;5.1 -->
<!-- ECON 201 -->
<g id="node65" class="node">
<title>ECON 201</title>
<ellipse fill="none" stroke="#ffa500" cx="3281" cy="-347.6468" rx="113.6886" ry="22.7556"/>
<text text-anchor="start" x="3223" y="-349.4468" font-family="Times,serif" font-size="14.00" fill="#000000">ECON 201 (4.0)</text>
<text text-anchor="start" x="3208.5" y="-338.6468" font-family="Times,serif" font-size="10.00" fill="#000000">Principles of Microeconomics</text>
</g>
<!-- 5.2 -->
<g id="node69" class="node">
<title>5.2</title>
<text text-anchor="middle" x="43" y="-181.4371" font-family="Times,serif" font-size="14.00" fill="#000000">5.2 (2.0)</text>
</g>
<!-- 5.1&#45;&gt;5.2 -->
<!-- ECE 492 -->
<g id="node70" class="node">
<title>ECE 492</title>
<ellipse fill="none" stroke="#ffa500" cx="3086" cy="-185.1371" rx="94.5053" ry="22.7556"/>
<text text-anchor="start" x="3035" y="-186.9371" font-family="Times,serif" font-size="14.00" fill="#000000">ECE 492 (2.0)</text>
<text text-anchor="start" x="3027" y="-176.1371" font-family="Times,serif" font-size="10.00" fill="#000000">Senior Design Project II</text>
</g>
<!-- ECE 491&#45;&gt;ECE 492 -->
<g id="edge57" class="edge">
<title>ECE 491&#45;&gt;ECE 492</title>
<path fill="none" stroke="#000000" d="M3086,-243.7579C3086,-235.8124 3086,-226.7163 3086,-218.0978"/>
<polygon fill="#000000" stroke="#000000" points="3089.5001,-217.9315 3086,-207.9315 3082.5001,-217.9316 3089.5001,-217.9315"/>
</g>
<!-- 5.3 -->
<g id="node71" class="node">
<title>5.3</title>
<text text-anchor="middle" x="43" y="-100.1823" font-family="Times,serif" font-size="14.00" fill="#000000">5.3 (7.0)</text>
</g>
<!-- 5.2&#45;&gt;5.3 -->
<!-- ECE 493 -->
<g id="node72" class="node">
<title>ECE 493</title>
<ellipse fill="none" stroke="#ffa500" cx="3086" cy="-103.8823" rx="97.6615" ry="22.7556"/>
<text text-anchor="start" x="3035" y="-105.6823" font-family="Times,serif" font-size="14.00" fill="#000000">ECE 493 (4.0)</text>
<text text-anchor="start" x="3025" y="-94.8823" font-family="Times,serif" font-size="10.00" fill="#000000">Senior Design Project III</text>
</g>
<!-- ECE 492&#45;&gt;ECE 493 -->
<g id="edge59" class="edge">
<title>ECE 492&#45;&gt;ECE 493</title>
<path fill="none" stroke="#000000" d="M3086,-162.5031C3086,-154.5576 3086,-145.4615 3086,-136.843"/>
<polygon fill="#000000" stroke="#000000" points="3089.5001,-136.6767 3086,-126.6767 3082.5001,-136.6767 3089.5001,-136.6767"/>
</g>
<!-- &#45;1.0 -->
<g id="node74" class="node">
<title>&#45;1.0</title>
<text text-anchor="middle" x="43" y="-18.9274" font-family="Times,serif" font-size="14.00" fill="#000000">&#45;1.0 (7.0)</text>
</g>
<!-- 5.3&#45;&gt;&#45;1.0 -->
<!-- TEMP GenEd -->
<g id="node75" class="node">
<title>TEMP GenEd</title>
<ellipse fill="none" stroke="#ff0000" cx="211" cy="-22.6274" rx="109.7032" ry="22.7556"/>
<text text-anchor="start" x="143.5" y="-24.4274" font-family="Times,serif" font-size="14.00" fill="#000000">TEMP GenEd (4.0)</text>
<text text-anchor="start" x="141.5" y="-13.6274" font-family="Times,serif" font-size="10.00" fill="#000000">General Education Electives</text>
</g>
<!-- TEMP COE -->
<g id="node76" class="node">
<title>TEMP COE</title>
<ellipse fill="none" stroke="#ff0000" cx="440" cy="-22.6274" rx="101.6471" ry="22.7556"/>
<text text-anchor="start" x="379.5" y="-24.4274" font-family="Times,serif" font-size="14.00" fill="#000000">TEMP COE (3.0)</text>
<text text-anchor="start" x="376" y="-13.6274" font-family="Times,serif" font-size="10.00" fill="#000000">ECE/COE/BMES Electives</text>
</g>
</g>
</svg>
