<?xml version="1.0" encoding="UTF-8" standalone="no"?>
<!DOCTYPE svg PUBLIC "-//W3C//DTD SVG 1.1//EN"
 "http://www.w3.org/Graphics/SVG/1.1/DTD/svg11.dtd">
<!-- Generated by graphviz version 2.40.1 (20161225.0304)
 -->
<!-- Title: Classes Pages: 1 -->
<svg width="3456pt" height="1110pt"
 viewBox="0.00 0.00 3455.68 1109.57" xmlns="http://www.w3.org/2000/svg" xmlns:xlink="http://www.w3.org/1999/xlink">
<g id="graph0" class="graph" transform="scale(1 1) rotate(0) translate(4 1105.5677)">
<title>Classes</title>
<polygon fill="#ffffff" stroke="transparent" points="-4,4 -4,-1105.5677 3451.6812,-1105.5677 3451.6812,4 -4,4"/>
<!-- 0.0 -->
<g id="node1" class="node">
<title>0.0</title>
<text text-anchor="middle" x="45" y="-1075.2403" font-family="Times,serif" font-size="14.00" fill="#000000">0.0 (11.0)</text>
</g>
<!-- 1.1 -->
<g id="node5" class="node">
<title>1.1</title>
<text text-anchor="middle" x="45" y="-993.9854" font-family="Times,serif" font-size="14.00" fill="#000000">1.1 (16.5)</text>
</g>
<!-- 0.0&#45;&gt;1.1 -->
<!-- CS 190 -->
<g id="node2" class="node">
<title>CS 190</title>
<ellipse fill="none" stroke="#006400" cx="221" cy="-1078.9403" rx="115.0173" ry="22.7556"/>
<text text-anchor="start" x="175.5" y="-1080.7403" font-family="Times,serif" font-size="14.00" fill="#000000">CS 190 (3.0)</text>
<text text-anchor="start" x="147.5" y="-1069.9403" font-family="Times,serif" font-size="10.00" fill="#000000">Selected Computer Language</text>
</g>
<!-- SPAN 101 -->
<g id="node3" class="node">
<title>SPAN 101</title>
<ellipse fill="none" stroke="#006400" cx="444" cy="-1078.9403" rx="89.6056" ry="22.7556"/>
<text text-anchor="start" x="388.5" y="-1080.7403" font-family="Times,serif" font-size="14.00" fill="#000000">SPAN 101 (4.0)</text>
<text text-anchor="start" x="421" y="-1069.9403" font-family="Times,serif" font-size="10.00" fill="#000000">Spanish I</text>
</g>
<!-- TGFE 099 -->
<g id="node4" class="node">
<title>TGFE 099</title>
<ellipse fill="none" stroke="#006400" cx="672" cy="-1078.9403" rx="120.4167" ry="22.7556"/>
<text text-anchor="start" x="616.5" y="-1080.7403" font-family="Times,serif" font-size="14.00" fill="#000000">TGFE 099 (4.0)</text>
<text text-anchor="start" x="595" y="-1069.9403" font-family="Times,serif" font-size="10.00" fill="#000000">Transfer General Free Elective</text>
</g>
<!-- 1.2 -->
<g id="node13" class="node">
<title>1.2</title>
<text text-anchor="middle" x="45" y="-912.7306" font-family="Times,serif" font-size="14.00" fill="#000000">1.2 (19.5)</text>
</g>
<!-- 1.1&#45;&gt;1.2 -->
<!-- CHEM 101 -->
<g id="node6" class="node">
<title>CHEM 101</title>
<ellipse fill="none" stroke="#006400" cx="324" cy="-997.6854" rx="94.5053" ry="22.7556"/>
<text text-anchor="start" x="265" y="-999.4854" font-family="Times,serif" font-size="14.00" fill="#000000">CHEM 101 (3.5)</text>
<text text-anchor="start" x="274" y="-988.6854" font-family="Times,serif" font-size="10.00" fill="#000000">General Chemistry I</text>
</g>
<!-- CHEM 102 -->
<g id="node14" class="node">
<title>CHEM 102</title>
<ellipse fill="none" stroke="#006400" cx="201" cy="-916.4306" rx="94.5053" ry="22.7556"/>
<text text-anchor="start" x="142" y="-918.2306" font-family="Times,serif" font-size="14.00" fill="#000000">CHEM 102 (4.5)</text>
<text text-anchor="start" x="149.5" y="-907.4306" font-family="Times,serif" font-size="10.00" fill="#000000">General Chemistry II</text>
</g>
<!-- CHEM 101&#45;&gt;CHEM 102 -->
<g id="edge3" class="edge">
<title>CHEM 101&#45;&gt;CHEM 102</title>
<path fill="none" stroke="#000000" d="M291.6832,-976.3367C276.5491,-966.339 258.3457,-954.3136 242.2322,-943.6689"/>
<polygon fill="#000000" stroke="#000000" points="243.801,-940.5106 233.528,-937.9189 239.9426,-946.3512 243.801,-940.5106"/>
</g>
<!-- BIO 141 -->
<g id="node22" class="node">
<title>BIO 141</title>
<ellipse fill="none" stroke="#006400" cx="324" cy="-835.1758" rx="80.7205" ry="22.7556"/>
<text text-anchor="start" x="275" y="-836.9758" font-family="Times,serif" font-size="14.00" fill="#000000">BIO 141 (4.5)</text>
<text text-anchor="start" x="281.5" y="-826.1758" font-family="Times,serif" font-size="10.00" fill="#000000">Essential Biology</text>
</g>
<!-- CHEM 101&#45;&gt;BIO 141 -->
<g id="edge8" class="edge">
<title>CHEM 101&#45;&gt;BIO 141</title>
<path fill="none" stroke="#000000" d="M324,-974.7464C324,-946.9199 324,-899.8079 324,-868.1076"/>
<polygon fill="#000000" stroke="#000000" points="327.5001,-867.998 324,-857.9981 320.5001,-867.9981 327.5001,-867.998"/>
</g>
<!-- ENGR 220 -->
<g id="node32" class="node">
<title>ENGR 220</title>
<ellipse fill="none" stroke="#006400" cx="626" cy="-753.9209" rx="105.218" ry="22.7556"/>
<text text-anchor="start" x="568.5" y="-755.7209" font-family="Times,serif" font-size="14.00" fill="#000000">ENGR 220 (4.0)</text>
<text text-anchor="start" x="559.5" y="-744.9209" font-family="Times,serif" font-size="10.00" fill="#000000">Fundamentals of Materials</text>
</g>
<!-- CHEM 101&#45;&gt;ENGR 220 -->
<g id="edge14" class="edge">
<title>CHEM 101&#45;&gt;ENGR 220</title>
<path fill="none" stroke="#000000" d="M347.7242,-975.6212C386.5397,-939.9014 466.5621,-867.8382 539,-812.5483 553.0279,-801.8412 568.8998,-790.8407 583.2103,-781.3028"/>
<polygon fill="#000000" stroke="#000000" points="585.4746,-784.0017 591.8884,-775.5687 581.6156,-778.1614 585.4746,-784.0017"/>
</g>
<!-- ENGL 101 -->
<g id="node7" class="node">
<title>ENGL 101</title>
<ellipse fill="none" stroke="#006400" cx="1512" cy="-997.6854" rx="106.5467" ry="22.7556"/>
<text text-anchor="start" x="1455" y="-999.4854" font-family="Times,serif" font-size="14.00" fill="#000000">ENGL 101 (3.0)</text>
<text text-anchor="start" x="1444.5" y="-988.6854" font-family="Times,serif" font-size="10.00" fill="#000000">Composition and Rhetoric I</text>
</g>
<!-- ENGL 102 -->
<g id="node16" class="node">
<title>ENGL 102</title>
<ellipse fill="none" stroke="#006400" cx="1512" cy="-916.4306" rx="109.7032" ry="22.7556"/>
<text text-anchor="start" x="1455" y="-918.2306" font-family="Times,serif" font-size="14.00" fill="#000000">ENGL 102 (3.0)</text>
<text text-anchor="start" x="1442.5" y="-907.4306" font-family="Times,serif" font-size="10.00" fill="#000000">Composition and Rhetoric II</text>
</g>
<!-- ENGL 101&#45;&gt;ENGL 102 -->
<g id="edge4" class="edge">
<title>ENGL 101&#45;&gt;ENGL 102</title>
<path fill="none" stroke="#000000" d="M1512,-975.0514C1512,-967.1059 1512,-958.0098 1512,-949.3913"/>
<polygon fill="#000000" stroke="#000000" points="1515.5001,-949.225 1512,-939.225 1508.5001,-949.2251 1515.5001,-949.225"/>
</g>
<!-- ENGR 100 -->
<g id="node8" class="node">
<title>ENGR 100</title>
<ellipse fill="none" stroke="#006400" cx="2021" cy="-997.6854" rx="102.561" ry="22.7556"/>
<text text-anchor="start" x="1963.5" y="-999.4854" font-family="Times,serif" font-size="14.00" fill="#000000">ENGR 100 (1.0)</text>
<text text-anchor="start" x="1956.5" y="-988.6854" font-family="Times,serif" font-size="10.00" fill="#000000">Beginning CAD for Design</text>
</g>
<!-- ENGR 101 -->
<g id="node9" class="node">
<title>ENGR 101</title>
<ellipse fill="none" stroke="#006400" cx="1137" cy="-997.6854" rx="99.9045" ry="22.7556"/>
<text text-anchor="start" x="1079.5" y="-999.4854" font-family="Times,serif" font-size="14.00" fill="#000000">ENGR 101 (2.0)</text>
<text text-anchor="start" x="1074.5" y="-988.6854" font-family="Times,serif" font-size="10.00" fill="#000000">Engineering Design Lab I</text>
</g>
<!-- ENGR 102 -->
<g id="node17" class="node">
<title>ENGR 102</title>
<ellipse fill="none" stroke="#006400" cx="1137" cy="-916.4306" rx="102.561" ry="22.7556"/>
<text text-anchor="start" x="1079.5" y="-918.2306" font-family="Times,serif" font-size="14.00" fill="#000000">ENGR 102 (2.0)</text>
<text text-anchor="start" x="1072.5" y="-907.4306" font-family="Times,serif" font-size="10.00" fill="#000000">Engineering Design Lab II</text>
</g>
<!-- ENGR 101&#45;&gt;ENGR 102 -->
<g id="edge5" class="edge">
<title>ENGR 101&#45;&gt;ENGR 102</title>
<path fill="none" stroke="#000000" d="M1137,-975.0514C1137,-967.1059 1137,-958.0098 1137,-949.3913"/>
<polygon fill="#000000" stroke="#000000" points="1140.5001,-949.225 1137,-939.225 1133.5001,-949.2251 1140.5001,-949.225"/>
</g>
<!-- ENGR 121 -->
<g id="node10" class="node">
<title>ENGR 121</title>
<ellipse fill="none" stroke="#006400" cx="2375" cy="-997.6854" rx="92.7622" ry="22.7556"/>
<text text-anchor="start" x="2317.5" y="-999.4854" font-family="Times,serif" font-size="14.00" fill="#000000">ENGR 121 (2.0)</text>
<text text-anchor="start" x="2329" y="-988.6854" font-family="Times,serif" font-size="10.00" fill="#000000">Computation Lab I</text>
</g>
<!-- ENGR 231 -->
<g id="node33" class="node">
<title>ENGR 231</title>
<ellipse fill="none" stroke="#006400" cx="2375" cy="-753.9209" rx="109.7032" ry="22.7556"/>
<text text-anchor="start" x="2317.5" y="-755.7209" font-family="Times,serif" font-size="14.00" fill="#000000">ENGR 231 (3.0)</text>
<text text-anchor="start" x="2305.5" y="-744.9209" font-family="Times,serif" font-size="10.00" fill="#000000">Linear Engineering Systems</text>
</g>
<!-- ENGR 121&#45;&gt;ENGR 231 -->
<g id="edge17" class="edge">
<title>ENGR 121&#45;&gt;ENGR 231</title>
<path fill="none" stroke="#000000" d="M2375,-974.7527C2375,-931.3587 2375,-837.0989 2375,-786.913"/>
<polygon fill="#000000" stroke="#000000" points="2378.5001,-786.6151 2375,-776.6152 2371.5001,-786.6152 2378.5001,-786.6151"/>
</g>
<!-- MATH 121 -->
<g id="node11" class="node">
<title>MATH 121</title>
<ellipse fill="none" stroke="#006400" cx="554" cy="-997.6854" rx="93.1765" ry="22.7556"/>
<text text-anchor="start" x="496" y="-999.4854" font-family="Times,serif" font-size="14.00" fill="#000000">MATH 121 (4.0)</text>
<text text-anchor="start" x="529.5" y="-988.6854" font-family="Times,serif" font-size="10.00" fill="#000000">Calculus I</text>
</g>
<!-- MATH 122 -->
<g id="node19" class="node">
<title>MATH 122</title>
<ellipse fill="none" stroke="#006400" cx="554" cy="-916.4306" rx="93.1765" ry="22.7556"/>
<text text-anchor="start" x="496" y="-918.2306" font-family="Times,serif" font-size="14.00" fill="#000000">MATH 122 (4.0)</text>
<text text-anchor="start" x="527.5" y="-907.4306" font-family="Times,serif" font-size="10.00" fill="#000000">Calculus II</text>
</g>
<!-- MATH 121&#45;&gt;MATH 122 -->
<g id="edge6" class="edge">
<title>MATH 121&#45;&gt;MATH 122</title>
<path fill="none" stroke="#000000" d="M554,-975.0514C554,-967.1059 554,-958.0098 554,-949.3913"/>
<polygon fill="#000000" stroke="#000000" points="557.5001,-949.225 554,-939.225 550.5001,-949.2251 557.5001,-949.225"/>
</g>
<!-- UNIV 101 -->
<g id="node12" class="node">
<title>UNIV 101</title>
<ellipse fill="none" stroke="#006400" cx="2576" cy="-997.6854" rx="90.5193" ry="22.7556"/>
<text text-anchor="start" x="2520.5" y="-999.4854" font-family="Times,serif" font-size="14.00" fill="#000000">UNIV 101 (1.0)</text>
<text text-anchor="start" x="2520" y="-988.6854" font-family="Times,serif" font-size="10.00" fill="#000000">The Drexel Experience</text>
</g>
<!-- 1.3 -->
<g id="node21" class="node">
<title>1.3</title>
<text text-anchor="middle" x="45" y="-831.4758" font-family="Times,serif" font-size="14.00" fill="#000000">1.3 (17.5)</text>
</g>
<!-- 1.2&#45;&gt;1.3 -->
<!-- CIVC 101 -->
<g id="node15" class="node">
<title>CIVC 101</title>
<ellipse fill="none" stroke="#006400" cx="2506" cy="-916.4306" rx="102.561" ry="22.7556"/>
<text text-anchor="start" x="2451.5" y="-918.2306" font-family="Times,serif" font-size="14.00" fill="#000000">CIVC 101 (1.0)</text>
<text text-anchor="start" x="2441.5" y="-907.4306" font-family="Times,serif" font-size="10.00" fill="#000000">Intro to Civic Engagement</text>
</g>
<!-- ENGL 103 -->
<g id="node24" class="node">
<title>ENGL 103</title>
<ellipse fill="none" stroke="#006400" cx="1512" cy="-835.1758" rx="111.9462" ry="22.7556"/>
<text text-anchor="start" x="1455" y="-836.9758" font-family="Times,serif" font-size="14.00" fill="#000000">ENGL 103 (3.0)</text>
<text text-anchor="start" x="1441" y="-826.1758" font-family="Times,serif" font-size="10.00" fill="#000000">Composition and Rhetoric III</text>
</g>
<!-- ENGL 102&#45;&gt;ENGL 103 -->
<g id="edge9" class="edge">
<title>ENGL 102&#45;&gt;ENGL 103</title>
<path fill="none" stroke="#000000" d="M1512,-893.7966C1512,-885.8511 1512,-876.755 1512,-868.1365"/>
<polygon fill="#000000" stroke="#000000" points="1515.5001,-867.9702 1512,-857.9702 1508.5001,-867.9702 1515.5001,-867.9702"/>
</g>
<!-- ENGR 103 -->
<g id="node25" class="node">
<title>ENGR 103</title>
<ellipse fill="none" stroke="#006400" cx="1137" cy="-835.1758" rx="105.218" ry="22.7556"/>
<text text-anchor="start" x="1079.5" y="-836.9758" font-family="Times,serif" font-size="14.00" fill="#000000">ENGR 103 (2.0)</text>
<text text-anchor="start" x="1070.5" y="-826.1758" font-family="Times,serif" font-size="10.00" fill="#000000">Engineering Design Lab III</text>
</g>
<!-- ENGR 102&#45;&gt;ENGR 103 -->
<g id="edge10" class="edge">
<title>ENGR 102&#45;&gt;ENGR 103</title>
<path fill="none" stroke="#000000" d="M1137,-893.7966C1137,-885.8511 1137,-876.755 1137,-868.1365"/>
<polygon fill="#000000" stroke="#000000" points="1140.5001,-867.9702 1137,-857.9702 1133.5001,-867.9702 1140.5001,-867.9702"/>
</g>
<!-- ENGR 122 -->
<g id="node18" class="node">
<title>ENGR 122</title>
<ellipse fill="none" stroke="#006400" cx="2719" cy="-916.4306" rx="92.7622" ry="22.7556"/>
<text text-anchor="start" x="2661.5" y="-918.2306" font-family="Times,serif" font-size="14.00" fill="#000000">ENGR 122 (1.0)</text>
<text text-anchor="start" x="2671" y="-907.4306" font-family="Times,serif" font-size="10.00" fill="#000000">Computation Lab II</text>
</g>
<!-- MATH 200 -->
<g id="node26" class="node">
<title>MATH 200</title>
<ellipse fill="none" stroke="#006400" cx="653" cy="-835.1758" rx="93.1765" ry="22.7556"/>
<text text-anchor="start" x="595" y="-836.9758" font-family="Times,serif" font-size="14.00" fill="#000000">MATH 200 (4.0)</text>
<text text-anchor="start" x="600" y="-826.1758" font-family="Times,serif" font-size="10.00" fill="#000000">Multivariate Calculus</text>
</g>
<!-- MATH 122&#45;&gt;MATH 200 -->
<g id="edge11" class="edge">
<title>MATH 122&#45;&gt;MATH 200</title>
<path fill="none" stroke="#000000" d="M580.5302,-894.6558C592.1821,-885.0924 606.016,-873.7382 618.4582,-863.5262"/>
<polygon fill="#000000" stroke="#000000" points="620.8873,-866.0604 626.3966,-857.0107 616.4462,-860.6496 620.8873,-866.0604"/>
</g>
<!-- MATH 122&#45;&gt;ENGR 220 -->
<g id="edge15" class="edge">
<title>MATH 122&#45;&gt;ENGR 220</title>
<path fill="none" stroke="#000000" d="M547.5251,-893.6808C542.5774,-871.7375 538.5065,-838.1722 551,-812.5483 557.0027,-800.237 566.979,-789.7526 577.727,-781.2024"/>
<polygon fill="#000000" stroke="#000000" points="580.0907,-783.8072 586.0435,-775.0428 575.9244,-778.1821 580.0907,-783.8072"/>
</g>
<!-- PHYS 201 -->
<g id="node65" class="node">
<title>PHYS 201</title>
<ellipse fill="none" stroke="#ffa500" cx="626" cy="-347.6468" rx="108.375" ry="22.7556"/>
<text text-anchor="start" x="570" y="-349.4468" font-family="Times,serif" font-size="14.00" fill="#000000">PHYS 201 (4.0)</text>
<text text-anchor="start" x="557.5" y="-338.6468" font-family="Times,serif" font-size="10.00" fill="#000000">Fundamentals of Physics III</text>
</g>
<!-- MATH 122&#45;&gt;PHYS 201 -->
<g id="edge52" class="edge">
<title>MATH 122&#45;&gt;PHYS 201</title>
<path fill="none" stroke="#000000" d="M539.6982,-894.0181C521.6684,-863.5579 493,-806.8089 493,-753.9209 493,-753.9209 493,-753.9209 493,-510.1564 493,-452.3667 543.9911,-403.8374 582.8273,-375.2567"/>
<polygon fill="#000000" stroke="#000000" points="585.3082,-377.7852 591.403,-369.1189 581.2341,-372.0929 585.3082,-377.7852"/>
</g>
<!-- PHYS 101 -->
<g id="node20" class="node">
<title>PHYS 101</title>
<ellipse fill="none" stroke="#006400" cx="850" cy="-916.4306" rx="103.4757" ry="22.7556"/>
<text text-anchor="start" x="794" y="-918.2306" font-family="Times,serif" font-size="14.00" fill="#000000">PHYS 101 (4.0)</text>
<text text-anchor="start" x="785" y="-907.4306" font-family="Times,serif" font-size="10.00" fill="#000000">Fundamentals of Physics I</text>
</g>
<!-- PHYS 102 -->
<g id="node27" class="node">
<title>PHYS 102</title>
<ellipse fill="none" stroke="#006400" cx="907" cy="-835.1758" rx="105.218" ry="22.7556"/>
<text text-anchor="start" x="851" y="-836.9758" font-family="Times,serif" font-size="14.00" fill="#000000">PHYS 102 (4.0)</text>
<text text-anchor="start" x="840.5" y="-826.1758" font-family="Times,serif" font-size="10.00" fill="#000000">Fundamentals of Physics II</text>
</g>
<!-- PHYS 101&#45;&gt;PHYS 102 -->
<g id="edge12" class="edge">
<title>PHYS 101&#45;&gt;PHYS 102</title>
<path fill="none" stroke="#000000" d="M865.8777,-893.7966C871.9306,-885.168 878.9354,-875.1824 885.4293,-865.9253"/>
<polygon fill="#000000" stroke="#000000" points="888.3299,-867.885 891.2075,-857.6884 882.5993,-863.8649 888.3299,-867.885"/>
</g>
<!-- PHYS 101&#45;&gt;ENGR 220 -->
<g id="edge16" class="edge">
<title>PHYS 101&#45;&gt;ENGR 220</title>
<path fill="none" stroke="#000000" d="M827.6851,-894.246C816.9999,-883.4305 804.1368,-870.1256 793,-857.8032 775.3899,-838.3183 775.9169,-828.4311 755,-812.5483 736.0561,-798.1637 713.0196,-786.2816 691.6845,-777.0636"/>
<polygon fill="#000000" stroke="#000000" points="692.919,-773.7861 682.3434,-773.1469 690.2122,-780.2416 692.919,-773.7861"/>
</g>
<!-- 2.1 -->
<g id="node28" class="node">
<title>2.1</title>
<text text-anchor="middle" x="45" y="-750.2209" font-family="Times,serif" font-size="14.00" fill="#000000">2.1 (20.0)</text>
</g>
<!-- 1.3&#45;&gt;2.1 -->
<!-- COOP 101 -->
<g id="node23" class="node">
<title>COOP 101</title>
<ellipse fill="none" stroke="#006400" cx="2506" cy="-835.1758" rx="102.561" ry="22.7556"/>
<text text-anchor="start" x="2455.5" y="-836.9758" font-family="Times,serif" font-size="14.00" fill="#000000">COOP 101 (0)</text>
<text text-anchor="start" x="2441.5" y="-826.1758" font-family="Times,serif" font-size="10.00" fill="#000000">Career Mgmt/Profess Dev</text>
</g>
<!-- ECES 301 -->
<g id="node46" class="node">
<title>ECES 301</title>
<ellipse fill="none" stroke="#006400" cx="1176" cy="-591.4113" rx="90.5193" ry="22.7556"/>
<text text-anchor="start" x="1120" y="-593.2113" font-family="Times,serif" font-size="14.00" fill="#000000">ECES 301 (4.0)</text>
<text text-anchor="start" x="1121.5" y="-582.4113" font-family="Times,serif" font-size="10.00" fill="#000000">Signals and Systems I</text>
</g>
<!-- ENGR 103&#45;&gt;ECES 301 -->
<g id="edge31" class="edge">
<title>ENGR 103&#45;&gt;ECES 301</title>
<path fill="none" stroke="#000000" d="M1140.669,-812.243C1147.6262,-768.758 1162.7556,-674.1938 1170.772,-624.0883"/>
<polygon fill="#000000" stroke="#000000" points="1174.2453,-624.5329 1172.3691,-614.1055 1167.3332,-623.427 1174.2453,-624.5329"/>
</g>
<!-- ECE 303 -->
<g id="node58" class="node">
<title>ECE 303</title>
<ellipse fill="none" stroke="#ffa500" cx="1010" cy="-428.9016" rx="83.3772" ry="22.7556"/>
<text text-anchor="start" x="959" y="-430.7016" font-family="Times,serif" font-size="14.00" fill="#000000">ECE 303 (3.0)</text>
<text text-anchor="start" x="970.5" y="-419.9016" font-family="Times,serif" font-size="10.00" fill="#000000">ECE Laboratory</text>
</g>
<!-- ENGR 103&#45;&gt;ECE 303 -->
<g id="edge44" class="edge">
<title>ENGR 103&#45;&gt;ECE 303</title>
<path fill="none" stroke="#000000" d="M1117.6342,-812.6787C1093.958,-782.7949 1057,-727.3835 1057,-672.6661 1057,-672.6661 1057,-672.6661 1057,-591.4113 1057,-544.5665 1038.7552,-493.0105 1025.0003,-460.7984"/>
<polygon fill="#000000" stroke="#000000" points="1028.1221,-459.202 1020.9009,-451.4493 1021.7113,-462.0131 1028.1221,-459.202"/>
</g>
<!-- ECE 201 -->
<g id="node36" class="node">
<title>ECE 201</title>
<ellipse fill="none" stroke="#006400" cx="908" cy="-672.6661" rx="120.8306" ry="22.7556"/>
<text text-anchor="start" x="857" y="-674.4661" font-family="Times,serif" font-size="14.00" fill="#000000">ECE 201 (4.0)</text>
<text text-anchor="start" x="830.5" y="-663.6661" font-family="Times,serif" font-size="10.00" fill="#000000">Foundations of Electric Circuits</text>
</g>
<!-- PHYS 102&#45;&gt;ECE 201 -->
<g id="edge19" class="edge">
<title>PHYS 102&#45;&gt;ECE 201</title>
<path fill="none" stroke="#000000" d="M907.1412,-812.2368C907.3124,-784.4102 907.6023,-737.2983 907.7974,-705.598"/>
<polygon fill="#000000" stroke="#000000" points="911.2979,-705.5098 907.8596,-695.4884 904.298,-705.4666 911.2979,-705.5098"/>
</g>
<!-- PHYS 102&#45;&gt;PHYS 201 -->
<g id="edge51" class="edge">
<title>PHYS 102&#45;&gt;PHYS 201</title>
<path fill="none" stroke="#000000" d="M867.3387,-813.971C823.4993,-787.3224 759,-737.1569 759,-672.6661 759,-672.6661 759,-672.6661 759,-510.1564 759,-452.3667 708.0089,-403.8374 669.1727,-375.2567"/>
<polygon fill="#000000" stroke="#000000" points="670.7659,-372.0929 660.597,-369.1189 666.6918,-377.7852 670.7659,-372.0929"/>
</g>
<!-- 2.2 -->
<g id="node35" class="node">
<title>2.2</title>
<text text-anchor="middle" x="45" y="-668.9661" font-family="Times,serif" font-size="14.00" fill="#000000">2.2 (16.0)</text>
</g>
<!-- 2.1&#45;&gt;2.2 -->
<!-- ECE 200 -->
<g id="node29" class="node">
<title>ECE 200</title>
<ellipse fill="none" stroke="#006400" cx="1357" cy="-753.9209" rx="83.3772" ry="22.7556"/>
<text text-anchor="start" x="1306" y="-755.7209" font-family="Times,serif" font-size="14.00" fill="#000000">ECE 200 (4.0)</text>
<text text-anchor="start" x="1307" y="-744.9209" font-family="Times,serif" font-size="10.00" fill="#000000">Digital Logic Design</text>
</g>
<!-- MATH 221 -->
<g id="node40" class="node">
<title>MATH 221</title>
<ellipse fill="none" stroke="#006400" cx="1297" cy="-672.6661" rx="93.1765" ry="22.7556"/>
<text text-anchor="start" x="1239" y="-674.4661" font-family="Times,serif" font-size="14.00" fill="#000000">MATH 221 (3.0)</text>
<text text-anchor="start" x="1242.5" y="-663.6661" font-family="Times,serif" font-size="10.00" fill="#000000">Discrete Mathematics</text>
</g>
<!-- ECE 200&#45;&gt;MATH 221 -->
<g id="edge23" class="edge">
<title>ECE 200&#45;&gt;MATH 221</title>
<path fill="none" stroke="#000000" d="M1340.6047,-731.7177C1334.1104,-722.9228 1326.537,-712.6664 1319.5413,-703.1925"/>
<polygon fill="#000000" stroke="#000000" points="1322.3397,-701.0903 1313.5839,-695.1248 1316.7086,-705.2484 1322.3397,-701.0903"/>
</g>
<!-- ECEC 302 -->
<g id="node44" class="node">
<title>ECEC 302</title>
<ellipse fill="none" stroke="#006400" cx="1543" cy="-591.4113" rx="96.7474" ry="22.7556"/>
<text text-anchor="start" x="1486.5" y="-593.2113" font-family="Times,serif" font-size="14.00" fill="#000000">ECEC 302 (3.0)</text>
<text text-anchor="start" x="1482.5" y="-582.4113" font-family="Times,serif" font-size="10.00" fill="#000000">Digital Systems Projects</text>
</g>
<!-- ECE 200&#45;&gt;ECEC 302 -->
<g id="edge27" class="edge">
<title>ECE 200&#45;&gt;ECEC 302</title>
<path fill="none" stroke="#000000" d="M1385.6108,-732.5079C1399.8015,-721.649 1417.0581,-708.0816 1432,-695.2935 1460.3412,-671.0375 1491.222,-641.9006 1513.1996,-620.6656"/>
<polygon fill="#000000" stroke="#000000" points="1515.8412,-622.9794 1520.5833,-613.5051 1510.968,-617.9543 1515.8412,-622.9794"/>
</g>
<!-- ECE 200&#45;&gt;ECES 301 -->
<g id="edge29" class="edge">
<title>ECE 200&#45;&gt;ECES 301</title>
<path fill="none" stroke="#000000" d="M1282.2626,-743.6306C1250.9535,-735.5419 1216.8312,-721.0953 1195,-695.2935 1178.5403,-675.8401 1174.3527,-646.8892 1173.9634,-624.4878"/>
<polygon fill="#000000" stroke="#000000" points="1177.4638,-624.4243 1174.0306,-614.4012 1170.464,-624.3776 1177.4638,-624.4243"/>
</g>
<!-- ECEC 204 -->
<g id="node49" class="node">
<title>ECEC 204</title>
<ellipse fill="none" stroke="#0000ff" cx="1649" cy="-510.1564" rx="112.36" ry="22.7556"/>
<text text-anchor="start" x="1592.5" y="-511.9564" font-family="Times,serif" font-size="14.00" fill="#000000">ECEC 204 (3.0)</text>
<text text-anchor="start" x="1577.5" y="-501.1564" font-family="Times,serif" font-size="10.00" fill="#000000">Design with Microcontrollers</text>
</g>
<!-- ECE 200&#45;&gt;ECEC 204 -->
<g id="edge34" class="edge">
<title>ECE 200&#45;&gt;ECEC 204</title>
<path fill="none" stroke="#000000" d="M1375.6213,-731.6417C1383.688,-721.1313 1392.7053,-708.1041 1399,-695.2935 1424.8907,-642.6026 1395.033,-609.8377 1437,-568.7838 1454.2383,-551.9206 1506.068,-537.4266 1554.1616,-527.0687"/>
<polygon fill="#000000" stroke="#000000" points="1554.9728,-530.4747 1564.0359,-524.9873 1553.529,-523.6252 1554.9728,-530.4747"/>
</g>
<!-- ECE 203 -->
<g id="node30" class="node">
<title>ECE 203</title>
<ellipse fill="none" stroke="#006400" cx="1867" cy="-753.9209" rx="108.375" ry="22.7556"/>
<text text-anchor="start" x="1816" y="-755.7209" font-family="Times,serif" font-size="14.00" fill="#000000">ECE 203 (3.0)</text>
<text text-anchor="start" x="1798.5" y="-744.9209" font-family="Times,serif" font-size="10.00" fill="#000000">Programming for Engineers</text>
</g>
<!-- ECEC 201 -->
<g id="node37" class="node">
<title>ECEC 201</title>
<ellipse fill="none" stroke="#006400" cx="1867" cy="-672.6661" rx="123.0732" ry="22.7556"/>
<text text-anchor="start" x="1810.5" y="-674.4661" font-family="Times,serif" font-size="14.00" fill="#000000">ECEC 201 (3.0)</text>
<text text-anchor="start" x="1788" y="-663.6661" font-family="Times,serif" font-size="10.00" fill="#000000">Adv Programming for Engineers</text>
</g>
<!-- ECE 203&#45;&gt;ECEC 201 -->
<g id="edge20" class="edge">
<title>ECE 203&#45;&gt;ECEC 201</title>
<path fill="none" stroke="#000000" d="M1867,-731.2869C1867,-723.3414 1867,-714.2453 1867,-705.6268"/>
<polygon fill="#000000" stroke="#000000" points="1870.5001,-705.4605 1867,-695.4605 1863.5001,-705.4606 1870.5001,-705.4605"/>
</g>
<!-- ECE 203&#45;&gt;ECEC 302 -->
<g id="edge26" class="edge">
<title>ECE 203&#45;&gt;ECEC 302</title>
<path fill="none" stroke="#000000" d="M1818.9281,-733.6423C1793.7187,-722.7391 1762.4531,-708.7914 1735,-695.2935 1684.149,-670.2915 1627.2046,-639.0595 1588.6296,-617.4028"/>
<polygon fill="#000000" stroke="#000000" points="1590.15,-614.2422 1579.7189,-612.387 1586.7163,-620.3422 1590.15,-614.2422"/>
</g>
<!-- ECEC 357 -->
<g id="node45" class="node">
<title>ECEC 357</title>
<ellipse fill="none" stroke="#006400" cx="2230" cy="-591.4113" rx="135.5294" ry="22.7556"/>
<text text-anchor="start" x="2173.5" y="-593.2113" font-family="Times,serif" font-size="14.00" fill="#000000">ECEC 357 (3.0)</text>
<text text-anchor="start" x="2142" y="-582.4113" font-family="Times,serif" font-size="10.00" fill="#000000">Introduction to Computer Networks</text>
</g>
<!-- ECE 203&#45;&gt;ECEC 357 -->
<g id="edge28" class="edge">
<title>ECE 203&#45;&gt;ECEC 357</title>
<path fill="none" stroke="#000000" d="M1913.4508,-733.3528C1938.7558,-722.1321 1970.6127,-707.9805 1999,-695.2935 2058.5299,-668.6881 2126.5998,-638.0504 2173.3432,-616.9782"/>
<polygon fill="#000000" stroke="#000000" points="2175.0131,-620.0646 2182.6908,-612.7636 2172.1359,-613.6833 2175.0131,-620.0646"/>
</g>
<!-- ENGR 201 -->
<g id="node31" class="node">
<title>ENGR 201</title>
<ellipse fill="none" stroke="#006400" cx="2620" cy="-753.9209" rx="107.4605" ry="22.7556"/>
<text text-anchor="start" x="2562.5" y="-755.7209" font-family="Times,serif" font-size="14.00" fill="#000000">ENGR 201 (3.0)</text>
<text text-anchor="start" x="2552" y="-744.9209" font-family="Times,serif" font-size="10.00" fill="#000000">Eval &amp; Pres of Exper Data I</text>
</g>
<!-- ENGR 202 -->
<g id="node38" class="node">
<title>ENGR 202</title>
<ellipse fill="none" stroke="#006400" cx="2620" cy="-672.6661" rx="110.1176" ry="22.7556"/>
<text text-anchor="start" x="2562.5" y="-674.4661" font-family="Times,serif" font-size="14.00" fill="#000000">ENGR 202 (3.0)</text>
<text text-anchor="start" x="2550" y="-663.6661" font-family="Times,serif" font-size="10.00" fill="#000000">Eval &amp; Pres of Exper Data II</text>
</g>
<!-- ENGR 201&#45;&gt;ENGR 202 -->
<g id="edge21" class="edge">
<title>ENGR 201&#45;&gt;ENGR 202</title>
<path fill="none" stroke="#000000" d="M2620,-731.2869C2620,-723.3414 2620,-714.2453 2620,-705.6268"/>
<polygon fill="#000000" stroke="#000000" points="2623.5001,-705.4605 2620,-695.4605 2616.5001,-705.4606 2623.5001,-705.4605"/>
</g>
<!-- ENGR 232 -->
<g id="node39" class="node">
<title>ENGR 232</title>
<ellipse fill="none" stroke="#006400" cx="2375" cy="-672.6661" rx="116.8455" ry="22.7556"/>
<text text-anchor="start" x="2317.5" y="-674.4661" font-family="Times,serif" font-size="14.00" fill="#000000">ENGR 232 (3.0)</text>
<text text-anchor="start" x="2300.5" y="-663.6661" font-family="Times,serif" font-size="10.00" fill="#000000">Dynamic Engineering Systems</text>
</g>
<!-- ENGR 231&#45;&gt;ENGR 232 -->
<g id="edge22" class="edge">
<title>ENGR 231&#45;&gt;ENGR 232</title>
<path fill="none" stroke="#000000" d="M2375,-731.2869C2375,-723.3414 2375,-714.2453 2375,-705.6268"/>
<polygon fill="#000000" stroke="#000000" points="2378.5001,-705.4605 2375,-695.4605 2371.5001,-705.4606 2378.5001,-705.4605"/>
</g>
<!-- PHIL 111 -->
<g id="node34" class="node">
<title>PHIL 111</title>
<ellipse fill="none" stroke="#006400" cx="2833" cy="-753.9209" rx="87.8629" ry="22.7556"/>
<text text-anchor="start" x="2779" y="-755.7209" font-family="Times,serif" font-size="14.00" fill="#000000">PHIL 111 (3.0)</text>
<text text-anchor="start" x="2792" y="-744.9209" font-family="Times,serif" font-size="10.00" fill="#000000">Symbolic Logic I</text>
</g>
<!-- PHIL 207 -->
<g id="node72" class="node">
<title>PHIL 207</title>
<ellipse fill="none" stroke="#ffa500" cx="2833" cy="-103.8823" rx="87.8629" ry="22.7556"/>
<text text-anchor="start" x="2779" y="-105.6823" font-family="Times,serif" font-size="14.00" fill="#000000">PHIL 207 (3.0)</text>
<text text-anchor="start" x="2790.5" y="-94.8823" font-family="Times,serif" font-size="10.00" fill="#000000">Symbolic Logic II</text>
</g>
<!-- PHIL 111&#45;&gt;PHIL 207 -->
<g id="edge60" class="edge">
<title>PHIL 111&#45;&gt;PHIL 207</title>
<path fill="none" stroke="#000000" d="M2833,-731.045C2833,-699.588 2833,-641.2081 2833,-591.4113 2833,-591.4113 2833,-591.4113 2833,-266.3919 2833,-221.6526 2833,-169.9851 2833,-137.1386"/>
<polygon fill="#000000" stroke="#000000" points="2836.5001,-136.7581 2833,-126.7581 2829.5001,-136.7582 2836.5001,-136.7581"/>
</g>
<!-- 3.1 -->
<g id="node41" class="node">
<title>3.1</title>
<text text-anchor="middle" x="45" y="-587.7113" font-family="Times,serif" font-size="14.00" fill="#000000">3.1 (17.0)</text>
</g>
<!-- 2.2&#45;&gt;3.1 -->
<!-- ECE 201&#45;&gt;ECES 301 -->
<g id="edge30" class="edge">
<title>ECE 201&#45;&gt;ECES 301</title>
<path fill="none" stroke="#000000" d="M971.5123,-653.4098C1012.726,-640.9143 1066.3759,-624.6481 1108.3816,-611.9124"/>
<polygon fill="#000000" stroke="#000000" points="1109.4201,-615.255 1117.9744,-609.004 1107.389,-608.5561 1109.4201,-615.255"/>
</g>
<!-- ECE 201&#45;&gt;ECE 303 -->
<g id="edge43" class="edge">
<title>ECE 201&#45;&gt;ECE 303</title>
<path fill="none" stroke="#000000" d="M917.5959,-649.7333C935.8677,-606.0664 975.6923,-510.8919 996.5889,-460.952"/>
<polygon fill="#000000" stroke="#000000" points="999.8725,-462.1718 1000.5039,-451.5958 993.415,-459.4698 999.8725,-462.1718"/>
</g>
<!-- CS 265 -->
<g id="node42" class="node">
<title>CS 265</title>
<ellipse fill="none" stroke="#006400" cx="1867" cy="-591.4113" rx="171.2398" ry="22.7556"/>
<text text-anchor="start" x="1821.5" y="-593.2113" font-family="Times,serif" font-size="14.00" fill="#000000">CS 265 (3.0)</text>
<text text-anchor="start" x="1754" y="-582.4113" font-family="Times,serif" font-size="10.00" fill="#000000">Advanced Programming Tools and Techniques</text>
</g>
<!-- ECEC 201&#45;&gt;CS 265 -->
<g id="edge25" class="edge">
<title>ECEC 201&#45;&gt;CS 265</title>
<path fill="none" stroke="#000000" d="M1867,-650.0321C1867,-642.0866 1867,-632.9905 1867,-624.372"/>
<polygon fill="#000000" stroke="#000000" points="1870.5001,-624.2057 1867,-614.2057 1863.5001,-624.2057 1870.5001,-624.2057"/>
</g>
<!-- ECEC 201&#45;&gt;ECEC 204 -->
<g id="edge35" class="edge">
<title>ECEC 201&#45;&gt;ECEC 204</title>
<path fill="none" stroke="#000000" d="M1771.0282,-658.395C1741.0179,-649.8097 1709.8242,-636.0598 1687,-614.0387 1667.5849,-595.3066 1658.035,-565.85 1653.3697,-543.0804"/>
<polygon fill="#000000" stroke="#000000" points="1656.7957,-542.358 1651.552,-533.1518 1649.9101,-543.6187 1656.7957,-542.358"/>
</g>
<!-- ECEC 353 -->
<g id="node50" class="node">
<title>ECEC 353</title>
<ellipse fill="none" stroke="#0000ff" cx="2078" cy="-510.1564" rx="91.4341" ry="22.7556"/>
<text text-anchor="start" x="2021.5" y="-511.9564" font-family="Times,serif" font-size="14.00" fill="#000000">ECEC 353 (3.0)</text>
<text text-anchor="start" x="2022" y="-501.1564" font-family="Times,serif" font-size="10.00" fill="#000000">Systems Programming</text>
</g>
<!-- ECEC 201&#45;&gt;ECEC 353 -->
<g id="edge36" class="edge">
<title>ECEC 201&#45;&gt;ECEC 353</title>
<path fill="none" stroke="#000000" d="M1944.5332,-655.0266C1986.2539,-644.0962 2032.1406,-629.2723 2047,-614.0387 2065.3792,-595.1966 2072.9291,-565.9387 2075.9966,-543.2685"/>
<polygon fill="#000000" stroke="#000000" points="2079.5049,-543.3887 2077.1419,-533.0607 2072.5486,-542.6081 2079.5049,-543.3887"/>
</g>
<!-- 3.2 -->
<g id="node47" class="node">
<title>3.2</title>
<text text-anchor="middle" x="45" y="-506.4564" font-family="Times,serif" font-size="14.00" fill="#000000">3.2 (19.0)</text>
</g>
<!-- 3.1&#45;&gt;3.2 -->
<!-- CS 260 -->
<g id="node48" class="node">
<title>CS 260</title>
<ellipse fill="none" stroke="#0000ff" cx="1855" cy="-510.1564" rx="75.8212" ry="22.7556"/>
<text text-anchor="start" x="1809.5" y="-511.9564" font-family="Times,serif" font-size="14.00" fill="#000000">CS 260 (3.0)</text>
<text text-anchor="start" x="1815.5" y="-501.1564" font-family="Times,serif" font-size="10.00" fill="#000000">Data Structures</text>
</g>
<!-- CS 265&#45;&gt;CS 260 -->
<g id="edge33" class="edge">
<title>CS 265&#45;&gt;CS 260</title>
<path fill="none" stroke="#000000" d="M1863.6573,-568.7773C1862.4839,-560.8318 1861.1406,-551.7356 1859.8678,-543.1172"/>
<polygon fill="#000000" stroke="#000000" points="1863.2899,-542.3322 1858.3664,-532.9509 1856.365,-543.3549 1863.2899,-542.3322"/>
</g>
<!-- CS 350 [WI] -->
<g id="node62" class="node">
<title>CS 350 [WI]</title>
<ellipse fill="none" stroke="#ffa500" cx="1933" cy="-347.6468" rx="101.2327" ry="22.7556"/>
<text text-anchor="start" x="1869.5" y="-349.4468" font-family="Times,serif" font-size="14.00" fill="#000000">CS 350 [WI] (3.0)</text>
<text text-anchor="start" x="1892" y="-338.6468" font-family="Times,serif" font-size="10.00" fill="#000000">Software Design</text>
</g>
<!-- CS 265&#45;&gt;CS 350 [WI] -->
<g id="edge48" class="edge">
<title>CS 265&#45;&gt;CS 350 [WI]</title>
<path fill="none" stroke="#000000" d="M1907.0716,-569.2409C1920.0422,-559.8359 1932.9022,-547.5876 1940,-532.7838 1963.4516,-483.8711 1952.9671,-419.0578 1943.081,-380.5204"/>
<polygon fill="#000000" stroke="#000000" points="1946.3283,-379.121 1940.3373,-370.3827 1939.5714,-380.9498 1946.3283,-379.121"/>
</g>
<!-- ECE 361 -->
<g id="node43" class="node">
<title>ECE 361</title>
<ellipse fill="none" stroke="#006400" cx="2998" cy="-591.4113" rx="98.9899" ry="22.7556"/>
<text text-anchor="start" x="2947" y="-593.2113" font-family="Times,serif" font-size="14.00" fill="#000000">ECE 361 (4.0)</text>
<text text-anchor="start" x="2936" y="-582.4113" font-family="Times,serif" font-size="10.00" fill="#000000">Probability for Engineers</text>
</g>
<!-- ECE 491 -->
<g id="node67" class="node">
<title>ECE 491</title>
<ellipse fill="none" stroke="#ffa500" cx="3036" cy="-266.3919" rx="92.7622" ry="22.7556"/>
<text text-anchor="start" x="2985" y="-268.1919" font-family="Times,serif" font-size="14.00" fill="#000000">ECE 491 (2.0)</text>
<text text-anchor="start" x="2978.5" y="-257.3919" font-family="Times,serif" font-size="10.00" fill="#000000">Senior Design Project I</text>
</g>
<!-- ECE 361&#45;&gt;ECE 491 -->
<g id="edge55" class="edge">
<title>ECE 361&#45;&gt;ECE 491</title>
<path fill="none" stroke="#000000" d="M3000.1002,-568.5832C3003.373,-533.6063 3010.0399,-464.6663 3017,-406.2742 3021.3726,-369.5898 3027.1836,-327.6064 3031.2228,-299.2841"/>
<polygon fill="#000000" stroke="#000000" points="3034.7228,-299.5332 3032.6775,-289.1377 3027.7937,-298.5398 3034.7228,-299.5332"/>
</g>
<!-- ECEC 355 -->
<g id="node51" class="node">
<title>ECEC 355</title>
<ellipse fill="none" stroke="#0000ff" cx="1427" cy="-510.1564" rx="91.4341" ry="22.7556"/>
<text text-anchor="start" x="1370.5" y="-511.9564" font-family="Times,serif" font-size="14.00" fill="#000000">ECEC 355 (3.0)</text>
<text text-anchor="start" x="1370.5" y="-501.1564" font-family="Times,serif" font-size="10.00" fill="#000000">Computer Architecture</text>
</g>
<!-- ECEC 302&#45;&gt;ECEC 355 -->
<g id="edge37" class="edge">
<title>ECEC 302&#45;&gt;ECEC 355</title>
<path fill="none" stroke="#000000" d="M1512.2187,-569.8498C1498.0794,-559.9456 1481.149,-548.0863 1466.1179,-537.5574"/>
<polygon fill="#000000" stroke="#000000" points="1467.7212,-534.4073 1457.5227,-531.5367 1463.7051,-540.1407 1467.7212,-534.4073"/>
</g>
<!-- 4.1 -->
<g id="node54" class="node">
<title>4.1</title>
<text text-anchor="middle" x="45" y="-425.2016" font-family="Times,serif" font-size="14.00" fill="#000000">4.1 (16.0)</text>
</g>
<!-- 3.2&#45;&gt;4.1 -->
<!-- CS 361 -->
<g id="node55" class="node">
<title>CS 361</title>
<ellipse fill="none" stroke="#ffa500" cx="1793" cy="-428.9016" rx="100.3184" ry="22.7556"/>
<text text-anchor="start" x="1747.5" y="-430.7016" font-family="Times,serif" font-size="14.00" fill="#000000">CS 361 (3.0)</text>
<text text-anchor="start" x="1730" y="-419.9016" font-family="Times,serif" font-size="10.00" fill="#000000">Concurrent Programming</text>
</g>
<!-- CS 260&#45;&gt;CS 361 -->
<g id="edge39" class="edge">
<title>CS 260&#45;&gt;CS 361</title>
<path fill="none" stroke="#000000" d="M1838.0582,-487.9532C1831.3474,-479.1583 1823.5215,-468.9019 1816.2926,-459.428"/>
<polygon fill="#000000" stroke="#000000" points="1818.9854,-457.1872 1810.1367,-451.3603 1813.4203,-461.4335 1818.9854,-457.1872"/>
</g>
<!-- CS 260&#45;&gt;CS 350 [WI] -->
<g id="edge47" class="edge">
<title>CS 260&#45;&gt;CS 350 [WI]</title>
<path fill="none" stroke="#000000" d="M1875.9662,-488.2101C1885.0191,-477.7669 1895.0946,-464.7003 1902,-451.529 1913.7911,-429.0388 1921.7643,-401.3997 1926.6688,-380.2861"/>
<polygon fill="#000000" stroke="#000000" points="1930.0918,-381.0164 1928.8332,-370.4966 1923.2569,-379.5052 1930.0918,-381.0164"/>
</g>
<!-- CS 370 -->
<g id="node56" class="node">
<title>CS 370</title>
<ellipse fill="none" stroke="#ffa500" cx="2242" cy="-428.9016" rx="77.5641" ry="22.7556"/>
<text text-anchor="start" x="2196.5" y="-430.7016" font-family="Times,serif" font-size="14.00" fill="#000000">CS 370 (3.0)</text>
<text text-anchor="start" x="2195" y="-419.9016" font-family="Times,serif" font-size="10.00" fill="#000000">Operating Systems</text>
</g>
<!-- ECEC 353&#45;&gt;CS 370 -->
<g id="edge41" class="edge">
<title>ECEC 353&#45;&gt;CS 370</title>
<path fill="none" stroke="#000000" d="M2118.9611,-489.862C2141.4915,-478.6992 2169.5911,-464.777 2193.2468,-453.0567"/>
<polygon fill="#000000" stroke="#000000" points="2195.0022,-456.0931 2202.4088,-448.5173 2191.8945,-449.8207 2195.0022,-456.0931"/>
</g>
<!-- CS 377 -->
<g id="node57" class="node">
<title>CS 377</title>
<ellipse fill="none" stroke="#ffa500" cx="2071" cy="-428.9016" rx="75.8212" ry="22.7556"/>
<text text-anchor="start" x="2025.5" y="-430.7016" font-family="Times,serif" font-size="14.00" fill="#000000">CS 377 (3.0)</text>
<text text-anchor="start" x="2026.5" y="-419.9016" font-family="Times,serif" font-size="10.00" fill="#000000">Software Security</text>
</g>
<!-- ECEC 353&#45;&gt;CS 377 -->
<g id="edge42" class="edge">
<title>ECEC 353&#45;&gt;CS 377</title>
<path fill="none" stroke="#000000" d="M2076.0501,-487.5224C2075.3656,-479.5769 2074.582,-470.4808 2073.8395,-461.8623"/>
<polygon fill="#000000" stroke="#000000" points="2077.3092,-461.3587 2072.9637,-451.696 2070.335,-461.9596 2077.3092,-461.3587"/>
</g>
<!-- ECEC 355&#45;&gt;CS 361 -->
<g id="edge40" class="edge">
<title>ECEC 355&#45;&gt;CS 361</title>
<path fill="none" stroke="#000000" d="M1494.9054,-494.9173C1505.9656,-492.4426 1517.3006,-489.911 1528,-487.529 1589.3562,-473.869 1658.7269,-458.5254 1711.0982,-446.9621"/>
<polygon fill="#000000" stroke="#000000" points="1711.9951,-450.3485 1721.0055,-444.775 1710.4861,-443.5131 1711.9951,-450.3485"/>
</g>
<!-- ECEC 412 -->
<g id="node60" class="node">
<title>ECEC 412</title>
<ellipse fill="none" stroke="#ffa500" cx="1285" cy="-428.9016" rx="101.6471" ry="22.7556"/>
<text text-anchor="start" x="1228.5" y="-430.7016" font-family="Times,serif" font-size="14.00" fill="#000000">ECEC 412 (3.0)</text>
<text text-anchor="start" x="1221" y="-419.9016" font-family="Times,serif" font-size="10.00" fill="#000000">Modern Processor Design</text>
</g>
<!-- ECEC 355&#45;&gt;ECEC 412 -->
<g id="edge45" class="edge">
<title>ECEC 355&#45;&gt;ECEC 412</title>
<path fill="none" stroke="#000000" d="M1390.4315,-489.2313C1372.2708,-478.8394 1350.1446,-466.1784 1330.8598,-455.1433"/>
<polygon fill="#000000" stroke="#000000" points="1332.3559,-451.967 1321.9381,-450.0382 1328.8793,-458.0426 1332.3559,-451.967"/>
</g>
<!-- ECEC 413 -->
<g id="node63" class="node">
<title>ECEC 413</title>
<ellipse fill="none" stroke="#ffa500" cx="1405" cy="-347.6468" rx="147.5709" ry="22.7556"/>
<text text-anchor="start" x="1348.5" y="-349.4468" font-family="Times,serif" font-size="14.00" fill="#000000">ECEC 413 (3.0)</text>
<text text-anchor="start" x="1308.5" y="-338.6468" font-family="Times,serif" font-size="10.00" fill="#000000">Intro to Parallel Computer Architecture</text>
</g>
<!-- ECEC 355&#45;&gt;ECEC 413 -->
<g id="edge49" class="edge">
<title>ECEC 355&#45;&gt;ECEC 413</title>
<path fill="none" stroke="#000000" d="M1423.8946,-487.2174C1420.1275,-459.3909 1413.7497,-412.2789 1409.4582,-380.5786"/>
<polygon fill="#000000" stroke="#000000" points="1412.8996,-379.9091 1408.0896,-370.4691 1405.9629,-380.8482 1412.8996,-379.9091"/>
</g>
<!-- ECEC 414 -->
<g id="node64" class="node">
<title>ECEC 414</title>
<ellipse fill="none" stroke="#ffa500" cx="1685" cy="-347.6468" rx="114.6026" ry="22.7556"/>
<text text-anchor="start" x="1628.5" y="-349.4468" font-family="Times,serif" font-size="14.00" fill="#000000">ECEC 414 (3.0)</text>
<text text-anchor="start" x="1612" y="-338.6468" font-family="Times,serif" font-size="10.00" fill="#000000">High Performance Computing</text>
</g>
<!-- ECEC 355&#45;&gt;ECEC 414 -->
<g id="edge50" class="edge">
<title>ECEC 355&#45;&gt;ECEC 414</title>
<path fill="none" stroke="#000000" d="M1460.4645,-489.0777C1506.8643,-459.8513 1590.7803,-406.9941 1641.8415,-374.8316"/>
<polygon fill="#000000" stroke="#000000" points="1643.7639,-377.7572 1650.3598,-369.466 1640.0331,-371.8342 1643.7639,-377.7572"/>
</g>
<!-- ECON 201 -->
<g id="node52" class="node">
<title>ECON 201</title>
<ellipse fill="none" stroke="#0000ff" cx="3140" cy="-510.1564" rx="113.6886" ry="22.7556"/>
<text text-anchor="start" x="3082" y="-511.9564" font-family="Times,serif" font-size="14.00" fill="#000000">ECON 201 (4.0)</text>
<text text-anchor="start" x="3067.5" y="-501.1564" font-family="Times,serif" font-size="10.00" fill="#000000">Principles of Microeconomics</text>
</g>
<!-- PHIL 315 -->
<g id="node53" class="node">
<title>PHIL 315</title>
<ellipse fill="none" stroke="#0000ff" cx="3360" cy="-510.1564" rx="87.8629" ry="22.7556"/>
<text text-anchor="start" x="3306" y="-511.9564" font-family="Times,serif" font-size="14.00" fill="#000000">PHIL 315 (3.0)</text>
<text text-anchor="start" x="3313.5" y="-501.1564" font-family="Times,serif" font-size="10.00" fill="#000000">Engineering Ethics</text>
</g>
<!-- 4.2 -->
<g id="node61" class="node">
<title>4.2</title>
<text text-anchor="middle" x="45" y="-343.9468" font-family="Times,serif" font-size="14.00" fill="#000000">4.2 (13.0)</text>
</g>
<!-- 4.1&#45;&gt;4.2 -->
<!-- ECE 391 -->
<g id="node59" class="node">
<title>ECE 391</title>
<ellipse fill="none" stroke="#ffa500" cx="3141" cy="-428.9016" rx="114.6026" ry="22.7556"/>
<text text-anchor="start" x="3090" y="-430.7016" font-family="Times,serif" font-size="14.00" fill="#000000">ECE 391 (1.0)</text>
<text text-anchor="start" x="3068" y="-419.9016" font-family="Times,serif" font-size="10.00" fill="#000000">Intro to Engr Design Methods</text>
</g>
<!-- ECE 391&#45;&gt;ECE 491 -->
<g id="edge54" class="edge">
<title>ECE 391&#45;&gt;ECE 491</title>
<path fill="none" stroke="#000000" d="M3126.4002,-406.3053C3108.0636,-377.9256 3076.5192,-329.1039 3055.9624,-297.2879"/>
<polygon fill="#000000" stroke="#000000" points="3058.8425,-295.2962 3050.4758,-288.7963 3052.963,-299.095 3058.8425,-295.2962"/>
</g>
<!-- 5.1 -->
<g id="node66" class="node">
<title>5.1</title>
<text text-anchor="middle" x="45" y="-262.6919" font-family="Times,serif" font-size="14.00" fill="#000000">5.1 (2.0)</text>
</g>
<!-- 4.2&#45;&gt;5.1 -->
<!-- 5.2 -->
<g id="node68" class="node">
<title>5.2</title>
<text text-anchor="middle" x="45" y="-181.4371" font-family="Times,serif" font-size="14.00" fill="#000000">5.2 (2.0)</text>
</g>
<!-- 5.1&#45;&gt;5.2 -->
<!-- ECE 492 -->
<g id="node69" class="node">
<title>ECE 492</title>
<ellipse fill="none" stroke="#ffa500" cx="3036" cy="-185.1371" rx="94.5053" ry="22.7556"/>
<text text-anchor="start" x="2985" y="-186.9371" font-family="Times,serif" font-size="14.00" fill="#000000">ECE 492 (2.0)</text>
<text text-anchor="start" x="2977" y="-176.1371" font-family="Times,serif" font-size="10.00" fill="#000000">Senior Design Project II</text>
</g>
<!-- ECE 491&#45;&gt;ECE 492 -->
<g id="edge57" class="edge">
<title>ECE 491&#45;&gt;ECE 492</title>
<path fill="none" stroke="#000000" d="M3036,-243.7579C3036,-235.8124 3036,-226.7163 3036,-218.0978"/>
<polygon fill="#000000" stroke="#000000" points="3039.5001,-217.9315 3036,-207.9315 3032.5001,-217.9316 3039.5001,-217.9315"/>
</g>
<!-- 5.3 -->
<g id="node70" class="node">
<title>5.3</title>
<text text-anchor="middle" x="45" y="-100.1823" font-family="Times,serif" font-size="14.00" fill="#000000">5.3 (7.0)</text>
</g>
<!-- 5.2&#45;&gt;5.3 -->
<!-- ECE 493 -->
<g id="node71" class="node">
<title>ECE 493</title>
<ellipse fill="none" stroke="#ffa500" cx="3036" cy="-103.8823" rx="97.6615" ry="22.7556"/>
<text text-anchor="start" x="2985" y="-105.6823" font-family="Times,serif" font-size="14.00" fill="#000000">ECE 493 (4.0)</text>
<text text-anchor="start" x="2975" y="-94.8823" font-family="Times,serif" font-size="10.00" fill="#000000">Senior Design Project III</text>
</g>
<!-- ECE 492&#45;&gt;ECE 493 -->
<g id="edge59" class="edge">
<title>ECE 492&#45;&gt;ECE 493</title>
<path fill="none" stroke="#000000" d="M3036,-162.5031C3036,-154.5576 3036,-145.4615 3036,-136.843"/>
<polygon fill="#000000" stroke="#000000" points="3039.5001,-136.6767 3036,-126.6767 3032.5001,-136.6767 3039.5001,-136.6767"/>
</g>
<!-- &#45;1.0 -->
<g id="node73" class="node">
<title>&#45;1.0</title>
<text text-anchor="middle" x="45" y="-18.9274" font-family="Times,serif" font-size="14.00" fill="#000000">&#45;1.0 (10.0)</text>
</g>
<!-- 5.3&#45;&gt;&#45;1.0 -->
<!-- TEMP GenEd -->
<g id="node74" class="node">
<title>TEMP GenEd</title>
<ellipse fill="none" stroke="#ff0000" cx="218" cy="-22.6274" rx="109.7032" ry="22.7556"/>
<text text-anchor="start" x="150.5" y="-24.4274" font-family="Times,serif" font-size="14.00" fill="#000000">TEMP GenEd (4.0)</text>
<text text-anchor="start" x="148.5" y="-13.6274" font-family="Times,serif" font-size="10.00" fill="#000000">General Education Electives</text>
</g>
<!-- TEMP COE -->
<g id="node75" class="node">
<title>TEMP COE</title>
<ellipse fill="none" stroke="#ff0000" cx="447" cy="-22.6274" rx="101.6471" ry="22.7556"/>
<text text-anchor="start" x="386.5" y="-24.4274" font-family="Times,serif" font-size="14.00" fill="#000000">TEMP COE (6.0)</text>
<text text-anchor="start" x="383" y="-13.6274" font-family="Times,serif" font-size="10.00" fill="#000000">ECE/COE/BMES Electives</text>
</g>
</g>
</svg>
