<?xml version="1.0" encoding="UTF-8" standalone="no"?>
<!DOCTYPE svg PUBLIC "-//W3C//DTD SVG 1.1//EN"
 "http://www.w3.org/Graphics/SVG/1.1/DTD/svg11.dtd">
<!-- Generated by graphviz version 2.40.1 (20161225.0304)
 -->
<!-- Title: Classes Pages: 1 -->
<svg width="3112pt" height="1110pt"
 viewBox="0.00 0.00 3111.55 1109.57" xmlns="http://www.w3.org/2000/svg" xmlns:xlink="http://www.w3.org/1999/xlink">
<g id="graph0" class="graph" transform="scale(1 1) rotate(0) translate(4 1105.5677)">
<title>Classes</title>
<polygon fill="#ffffff" stroke="transparent" points="-4,4 -4,-1105.5677 3107.5513,-1105.5677 3107.5513,4 -4,4"/>
<!-- 0.0 -->
<g id="node1" class="node">
<title>0.0</title>
<text text-anchor="middle" x="45" y="-1075.2403" font-family="Times,serif" font-size="14.00" fill="#000000">0.0 (11.0)</text>
</g>
<!-- 1.1 -->
<g id="node5" class="node">
<title>1.1</title>
<text text-anchor="middle" x="45" y="-993.9854" font-family="Times,serif" font-size="14.00" fill="#000000">1.1 (16.5)</text>
</g>
<!-- 0.0&#45;&gt;1.1 -->
<!-- CS 190 -->
<g id="node2" class="node">
<title>CS 190</title>
<ellipse fill="none" stroke="#006400" cx="221" cy="-1078.9403" rx="115.0173" ry="22.7556"/>
<text text-anchor="start" x="175.5" y="-1080.7403" font-family="Times,serif" font-size="14.00" fill="#000000">CS 190 (3.0)</text>
<text text-anchor="start" x="147.5" y="-1069.9403" font-family="Times,serif" font-size="10.00" fill="#000000">Selected Computer Language</text>
</g>
<!-- SPAN 101 -->
<g id="node3" class="node">
<title>SPAN 101</title>
<ellipse fill="none" stroke="#006400" cx="444" cy="-1078.9403" rx="89.6056" ry="22.7556"/>
<text text-anchor="start" x="388.5" y="-1080.7403" font-family="Times,serif" font-size="14.00" fill="#000000">SPAN 101 (4.0)</text>
<text text-anchor="start" x="421" y="-1069.9403" font-family="Times,serif" font-size="10.00" fill="#000000">Spanish I</text>
</g>
<!-- TGFE 099 -->
<g id="node4" class="node">
<title>TGFE 099</title>
<ellipse fill="none" stroke="#006400" cx="672" cy="-1078.9403" rx="120.4167" ry="22.7556"/>
<text text-anchor="start" x="616.5" y="-1080.7403" font-family="Times,serif" font-size="14.00" fill="#000000">TGFE 099 (4.0)</text>
<text text-anchor="start" x="595" y="-1069.9403" font-family="Times,serif" font-size="10.00" fill="#000000">Transfer General Free Elective</text>
</g>
<!-- 1.2 -->
<g id="node13" class="node">
<title>1.2</title>
<text text-anchor="middle" x="45" y="-912.7306" font-family="Times,serif" font-size="14.00" fill="#000000">1.2 (19.5)</text>
</g>
<!-- 1.1&#45;&gt;1.2 -->
<!-- CHEM 101 -->
<g id="node6" class="node">
<title>CHEM 101</title>
<ellipse fill="none" stroke="#006400" cx="324" cy="-997.6854" rx="94.5053" ry="22.7556"/>
<text text-anchor="start" x="265" y="-999.4854" font-family="Times,serif" font-size="14.00" fill="#000000">CHEM 101 (3.5)</text>
<text text-anchor="start" x="274" y="-988.6854" font-family="Times,serif" font-size="10.00" fill="#000000">General Chemistry I</text>
</g>
<!-- CHEM 102 -->
<g id="node14" class="node">
<title>CHEM 102</title>
<ellipse fill="none" stroke="#006400" cx="201" cy="-916.4306" rx="94.5053" ry="22.7556"/>
<text text-anchor="start" x="142" y="-918.2306" font-family="Times,serif" font-size="14.00" fill="#000000">CHEM 102 (4.5)</text>
<text text-anchor="start" x="149.5" y="-907.4306" font-family="Times,serif" font-size="10.00" fill="#000000">General Chemistry II</text>
</g>
<!-- CHEM 101&#45;&gt;CHEM 102 -->
<g id="edge3" class="edge">
<title>CHEM 101&#45;&gt;CHEM 102</title>
<path fill="none" stroke="#000000" d="M291.6832,-976.3367C276.5491,-966.339 258.3457,-954.3136 242.2322,-943.6689"/>
<polygon fill="#000000" stroke="#000000" points="243.801,-940.5106 233.528,-937.9189 239.9426,-946.3512 243.801,-940.5106"/>
</g>
<!-- BIO 141 -->
<g id="node22" class="node">
<title>BIO 141</title>
<ellipse fill="none" stroke="#006400" cx="324" cy="-835.1758" rx="80.7205" ry="22.7556"/>
<text text-anchor="start" x="275" y="-836.9758" font-family="Times,serif" font-size="14.00" fill="#000000">BIO 141 (4.5)</text>
<text text-anchor="start" x="281.5" y="-826.1758" font-family="Times,serif" font-size="10.00" fill="#000000">Essential Biology</text>
</g>
<!-- CHEM 101&#45;&gt;BIO 141 -->
<g id="edge8" class="edge">
<title>CHEM 101&#45;&gt;BIO 141</title>
<path fill="none" stroke="#000000" d="M324,-974.7464C324,-946.9199 324,-899.8079 324,-868.1076"/>
<polygon fill="#000000" stroke="#000000" points="327.5001,-867.998 324,-857.9981 320.5001,-867.9981 327.5001,-867.998"/>
</g>
<!-- ENGR 220 -->
<g id="node32" class="node">
<title>ENGR 220</title>
<ellipse fill="none" stroke="#006400" cx="471" cy="-753.9209" rx="105.218" ry="22.7556"/>
<text text-anchor="start" x="413.5" y="-755.7209" font-family="Times,serif" font-size="14.00" fill="#000000">ENGR 220 (4.0)</text>
<text text-anchor="start" x="404.5" y="-744.9209" font-family="Times,serif" font-size="10.00" fill="#000000">Fundamentals of Materials</text>
</g>
<!-- CHEM 101&#45;&gt;ENGR 220 -->
<g id="edge14" class="edge">
<title>CHEM 101&#45;&gt;ENGR 220</title>
<path fill="none" stroke="#000000" d="M339.1471,-975.216C357.445,-947.8329 388.8958,-899.9905 414,-857.8032 428.2313,-833.8876 443.3391,-806.2387 454.4229,-785.4807"/>
<polygon fill="#000000" stroke="#000000" points="457.6114,-786.9392 459.2147,-776.4663 451.4304,-783.6535 457.6114,-786.9392"/>
</g>
<!-- ENGL 101 -->
<g id="node7" class="node">
<title>ENGL 101</title>
<ellipse fill="none" stroke="#006400" cx="1466" cy="-997.6854" rx="106.5467" ry="22.7556"/>
<text text-anchor="start" x="1409" y="-999.4854" font-family="Times,serif" font-size="14.00" fill="#000000">ENGL 101 (3.0)</text>
<text text-anchor="start" x="1398.5" y="-988.6854" font-family="Times,serif" font-size="10.00" fill="#000000">Composition and Rhetoric I</text>
</g>
<!-- ENGL 102 -->
<g id="node16" class="node">
<title>ENGL 102</title>
<ellipse fill="none" stroke="#006400" cx="1466" cy="-916.4306" rx="109.7032" ry="22.7556"/>
<text text-anchor="start" x="1409" y="-918.2306" font-family="Times,serif" font-size="14.00" fill="#000000">ENGL 102 (3.0)</text>
<text text-anchor="start" x="1396.5" y="-907.4306" font-family="Times,serif" font-size="10.00" fill="#000000">Composition and Rhetoric II</text>
</g>
<!-- ENGL 101&#45;&gt;ENGL 102 -->
<g id="edge4" class="edge">
<title>ENGL 101&#45;&gt;ENGL 102</title>
<path fill="none" stroke="#000000" d="M1466,-975.0514C1466,-967.1059 1466,-958.0098 1466,-949.3913"/>
<polygon fill="#000000" stroke="#000000" points="1469.5001,-949.225 1466,-939.225 1462.5001,-949.2251 1469.5001,-949.225"/>
</g>
<!-- ENGR 100 -->
<g id="node8" class="node">
<title>ENGR 100</title>
<ellipse fill="none" stroke="#006400" cx="1821" cy="-997.6854" rx="102.561" ry="22.7556"/>
<text text-anchor="start" x="1763.5" y="-999.4854" font-family="Times,serif" font-size="14.00" fill="#000000">ENGR 100 (1.0)</text>
<text text-anchor="start" x="1756.5" y="-988.6854" font-family="Times,serif" font-size="10.00" fill="#000000">Beginning CAD for Design</text>
</g>
<!-- ENGR 101 -->
<g id="node9" class="node">
<title>ENGR 101</title>
<ellipse fill="none" stroke="#006400" cx="1121" cy="-997.6854" rx="99.9045" ry="22.7556"/>
<text text-anchor="start" x="1063.5" y="-999.4854" font-family="Times,serif" font-size="14.00" fill="#000000">ENGR 101 (2.0)</text>
<text text-anchor="start" x="1058.5" y="-988.6854" font-family="Times,serif" font-size="10.00" fill="#000000">Engineering Design Lab I</text>
</g>
<!-- ENGR 102 -->
<g id="node17" class="node">
<title>ENGR 102</title>
<ellipse fill="none" stroke="#006400" cx="1121" cy="-916.4306" rx="102.561" ry="22.7556"/>
<text text-anchor="start" x="1063.5" y="-918.2306" font-family="Times,serif" font-size="14.00" fill="#000000">ENGR 102 (2.0)</text>
<text text-anchor="start" x="1056.5" y="-907.4306" font-family="Times,serif" font-size="10.00" fill="#000000">Engineering Design Lab II</text>
</g>
<!-- ENGR 101&#45;&gt;ENGR 102 -->
<g id="edge5" class="edge">
<title>ENGR 101&#45;&gt;ENGR 102</title>
<path fill="none" stroke="#000000" d="M1121,-975.0514C1121,-967.1059 1121,-958.0098 1121,-949.3913"/>
<polygon fill="#000000" stroke="#000000" points="1124.5001,-949.225 1121,-939.225 1117.5001,-949.2251 1124.5001,-949.225"/>
</g>
<!-- ENGR 121 -->
<g id="node10" class="node">
<title>ENGR 121</title>
<ellipse fill="none" stroke="#006400" cx="2261" cy="-997.6854" rx="92.7622" ry="22.7556"/>
<text text-anchor="start" x="2203.5" y="-999.4854" font-family="Times,serif" font-size="14.00" fill="#000000">ENGR 121 (2.0)</text>
<text text-anchor="start" x="2215" y="-988.6854" font-family="Times,serif" font-size="10.00" fill="#000000">Computation Lab I</text>
</g>
<!-- ENGR 231 -->
<g id="node33" class="node">
<title>ENGR 231</title>
<ellipse fill="none" stroke="#006400" cx="2261" cy="-753.9209" rx="109.7032" ry="22.7556"/>
<text text-anchor="start" x="2203.5" y="-755.7209" font-family="Times,serif" font-size="14.00" fill="#000000">ENGR 231 (3.0)</text>
<text text-anchor="start" x="2191.5" y="-744.9209" font-family="Times,serif" font-size="10.00" fill="#000000">Linear Engineering Systems</text>
</g>
<!-- ENGR 121&#45;&gt;ENGR 231 -->
<g id="edge17" class="edge">
<title>ENGR 121&#45;&gt;ENGR 231</title>
<path fill="none" stroke="#000000" d="M2261,-974.7527C2261,-931.3587 2261,-837.0989 2261,-786.913"/>
<polygon fill="#000000" stroke="#000000" points="2264.5001,-786.6151 2261,-776.6152 2257.5001,-786.6152 2264.5001,-786.6151"/>
</g>
<!-- MATH 121 -->
<g id="node11" class="node">
<title>MATH 121</title>
<ellipse fill="none" stroke="#006400" cx="592" cy="-997.6854" rx="93.1765" ry="22.7556"/>
<text text-anchor="start" x="534" y="-999.4854" font-family="Times,serif" font-size="14.00" fill="#000000">MATH 121 (4.0)</text>
<text text-anchor="start" x="567.5" y="-988.6854" font-family="Times,serif" font-size="10.00" fill="#000000">Calculus I</text>
</g>
<!-- MATH 122 -->
<g id="node19" class="node">
<title>MATH 122</title>
<ellipse fill="none" stroke="#006400" cx="592" cy="-916.4306" rx="93.1765" ry="22.7556"/>
<text text-anchor="start" x="534" y="-918.2306" font-family="Times,serif" font-size="14.00" fill="#000000">MATH 122 (4.0)</text>
<text text-anchor="start" x="565.5" y="-907.4306" font-family="Times,serif" font-size="10.00" fill="#000000">Calculus II</text>
</g>
<!-- MATH 121&#45;&gt;MATH 122 -->
<g id="edge6" class="edge">
<title>MATH 121&#45;&gt;MATH 122</title>
<path fill="none" stroke="#000000" d="M592,-975.0514C592,-967.1059 592,-958.0098 592,-949.3913"/>
<polygon fill="#000000" stroke="#000000" points="595.5001,-949.225 592,-939.225 588.5001,-949.2251 595.5001,-949.225"/>
</g>
<!-- UNIV 101 -->
<g id="node12" class="node">
<title>UNIV 101</title>
<ellipse fill="none" stroke="#006400" cx="2462" cy="-997.6854" rx="90.5193" ry="22.7556"/>
<text text-anchor="start" x="2406.5" y="-999.4854" font-family="Times,serif" font-size="14.00" fill="#000000">UNIV 101 (1.0)</text>
<text text-anchor="start" x="2406" y="-988.6854" font-family="Times,serif" font-size="10.00" fill="#000000">The Drexel Experience</text>
</g>
<!-- 1.3 -->
<g id="node21" class="node">
<title>1.3</title>
<text text-anchor="middle" x="45" y="-831.4758" font-family="Times,serif" font-size="14.00" fill="#000000">1.3 (17.5)</text>
</g>
<!-- 1.2&#45;&gt;1.3 -->
<!-- CIVC 101 -->
<g id="node15" class="node">
<title>CIVC 101</title>
<ellipse fill="none" stroke="#006400" cx="2392" cy="-916.4306" rx="102.561" ry="22.7556"/>
<text text-anchor="start" x="2337.5" y="-918.2306" font-family="Times,serif" font-size="14.00" fill="#000000">CIVC 101 (1.0)</text>
<text text-anchor="start" x="2327.5" y="-907.4306" font-family="Times,serif" font-size="10.00" fill="#000000">Intro to Civic Engagement</text>
</g>
<!-- ENGL 103 -->
<g id="node24" class="node">
<title>ENGL 103</title>
<ellipse fill="none" stroke="#006400" cx="1466" cy="-835.1758" rx="111.9462" ry="22.7556"/>
<text text-anchor="start" x="1409" y="-836.9758" font-family="Times,serif" font-size="14.00" fill="#000000">ENGL 103 (3.0)</text>
<text text-anchor="start" x="1395" y="-826.1758" font-family="Times,serif" font-size="10.00" fill="#000000">Composition and Rhetoric III</text>
</g>
<!-- ENGL 102&#45;&gt;ENGL 103 -->
<g id="edge9" class="edge">
<title>ENGL 102&#45;&gt;ENGL 103</title>
<path fill="none" stroke="#000000" d="M1466,-893.7966C1466,-885.8511 1466,-876.755 1466,-868.1365"/>
<polygon fill="#000000" stroke="#000000" points="1469.5001,-867.9702 1466,-857.9702 1462.5001,-867.9702 1469.5001,-867.9702"/>
</g>
<!-- ENGR 103 -->
<g id="node25" class="node">
<title>ENGR 103</title>
<ellipse fill="none" stroke="#006400" cx="1121" cy="-835.1758" rx="105.218" ry="22.7556"/>
<text text-anchor="start" x="1063.5" y="-836.9758" font-family="Times,serif" font-size="14.00" fill="#000000">ENGR 103 (2.0)</text>
<text text-anchor="start" x="1054.5" y="-826.1758" font-family="Times,serif" font-size="10.00" fill="#000000">Engineering Design Lab III</text>
</g>
<!-- ENGR 102&#45;&gt;ENGR 103 -->
<g id="edge10" class="edge">
<title>ENGR 102&#45;&gt;ENGR 103</title>
<path fill="none" stroke="#000000" d="M1121,-893.7966C1121,-885.8511 1121,-876.755 1121,-868.1365"/>
<polygon fill="#000000" stroke="#000000" points="1124.5001,-867.9702 1121,-857.9702 1117.5001,-867.9702 1124.5001,-867.9702"/>
</g>
<!-- ENGR 122 -->
<g id="node18" class="node">
<title>ENGR 122</title>
<ellipse fill="none" stroke="#006400" cx="2605" cy="-916.4306" rx="92.7622" ry="22.7556"/>
<text text-anchor="start" x="2547.5" y="-918.2306" font-family="Times,serif" font-size="14.00" fill="#000000">ENGR 122 (1.0)</text>
<text text-anchor="start" x="2557" y="-907.4306" font-family="Times,serif" font-size="10.00" fill="#000000">Computation Lab II</text>
</g>
<!-- MATH 200 -->
<g id="node26" class="node">
<title>MATH 200</title>
<ellipse fill="none" stroke="#006400" cx="592" cy="-835.1758" rx="93.1765" ry="22.7556"/>
<text text-anchor="start" x="534" y="-836.9758" font-family="Times,serif" font-size="14.00" fill="#000000">MATH 200 (4.0)</text>
<text text-anchor="start" x="539" y="-826.1758" font-family="Times,serif" font-size="10.00" fill="#000000">Multivariate Calculus</text>
</g>
<!-- MATH 122&#45;&gt;MATH 200 -->
<g id="edge11" class="edge">
<title>MATH 122&#45;&gt;MATH 200</title>
<path fill="none" stroke="#000000" d="M592,-893.7966C592,-885.8511 592,-876.755 592,-868.1365"/>
<polygon fill="#000000" stroke="#000000" points="595.5001,-867.9702 592,-857.9702 588.5001,-867.9702 595.5001,-867.9702"/>
</g>
<!-- MATH 122&#45;&gt;ENGR 220 -->
<g id="edge15" class="edge">
<title>MATH 122&#45;&gt;ENGR 220</title>
<path fill="none" stroke="#000000" d="M540.3171,-897.5839C521.7566,-888.3301 502.3739,-875.3198 490,-857.8032 475.4548,-837.2128 471.0531,-808.7724 470.0946,-786.8546"/>
<polygon fill="#000000" stroke="#000000" points="473.59,-786.6027 469.8713,-776.6819 466.5917,-786.7563 473.59,-786.6027"/>
</g>
<!-- PHYS 201 -->
<g id="node63" class="node">
<title>PHYS 201</title>
<ellipse fill="none" stroke="#ffa500" cx="732" cy="-347.6468" rx="108.375" ry="22.7556"/>
<text text-anchor="start" x="676" y="-349.4468" font-family="Times,serif" font-size="14.00" fill="#000000">PHYS 201 (4.0)</text>
<text text-anchor="start" x="663.5" y="-338.6468" font-family="Times,serif" font-size="10.00" fill="#000000">Fundamentals of Physics III</text>
</g>
<!-- MATH 122&#45;&gt;PHYS 201 -->
<g id="edge50" class="edge">
<title>MATH 122&#45;&gt;PHYS 201</title>
<path fill="none" stroke="#000000" d="M643.6829,-897.5839C662.2434,-888.3301 681.6261,-875.3198 694,-857.8032 721.0805,-819.4677 713,-800.8567 713,-753.9209 713,-753.9209 713,-753.9209 713,-510.1564 713,-464.9165 720.3537,-413.0688 725.9113,-380.3447"/>
<polygon fill="#000000" stroke="#000000" points="729.3712,-380.8771 727.641,-370.4245 722.4752,-379.6746 729.3712,-380.8771"/>
</g>
<!-- PHYS 101 -->
<g id="node20" class="node">
<title>PHYS 101</title>
<ellipse fill="none" stroke="#006400" cx="846" cy="-916.4306" rx="103.4757" ry="22.7556"/>
<text text-anchor="start" x="790" y="-918.2306" font-family="Times,serif" font-size="14.00" fill="#000000">PHYS 101 (4.0)</text>
<text text-anchor="start" x="781" y="-907.4306" font-family="Times,serif" font-size="10.00" fill="#000000">Fundamentals of Physics I</text>
</g>
<!-- PHYS 102 -->
<g id="node27" class="node">
<title>PHYS 102</title>
<ellipse fill="none" stroke="#006400" cx="884" cy="-835.1758" rx="105.218" ry="22.7556"/>
<text text-anchor="start" x="828" y="-836.9758" font-family="Times,serif" font-size="14.00" fill="#000000">PHYS 102 (4.0)</text>
<text text-anchor="start" x="817.5" y="-826.1758" font-family="Times,serif" font-size="10.00" fill="#000000">Fundamentals of Physics II</text>
</g>
<!-- PHYS 101&#45;&gt;PHYS 102 -->
<g id="edge12" class="edge">
<title>PHYS 101&#45;&gt;PHYS 102</title>
<path fill="none" stroke="#000000" d="M856.5851,-893.7966C860.4234,-885.5892 864.8359,-876.154 868.9833,-867.2857"/>
<polygon fill="#000000" stroke="#000000" points="872.274,-868.5113 873.3399,-857.9702 865.9331,-865.5458 872.274,-868.5113"/>
</g>
<!-- PHYS 101&#45;&gt;ENGR 220 -->
<g id="edge16" class="edge">
<title>PHYS 101&#45;&gt;ENGR 220</title>
<path fill="none" stroke="#000000" d="M816.6753,-894.6062C780.0745,-867.6865 719.2233,-824.0646 694,-812.5483 652.4496,-793.5777 603.6371,-779.871 562.2906,-770.5046"/>
<polygon fill="#000000" stroke="#000000" points="563.0183,-767.0811 552.498,-768.3352 561.5042,-773.9154 563.0183,-767.0811"/>
</g>
<!-- 2.1 -->
<g id="node28" class="node">
<title>2.1</title>
<text text-anchor="middle" x="45" y="-750.2209" font-family="Times,serif" font-size="14.00" fill="#000000">2.1 (20.0)</text>
</g>
<!-- 1.3&#45;&gt;2.1 -->
<!-- COOP 101 -->
<g id="node23" class="node">
<title>COOP 101</title>
<ellipse fill="none" stroke="#006400" cx="2392" cy="-835.1758" rx="102.561" ry="22.7556"/>
<text text-anchor="start" x="2341.5" y="-836.9758" font-family="Times,serif" font-size="14.00" fill="#000000">COOP 101 (0)</text>
<text text-anchor="start" x="2327.5" y="-826.1758" font-family="Times,serif" font-size="10.00" fill="#000000">Career Mgmt/Profess Dev</text>
</g>
<!-- ECES 301 -->
<g id="node46" class="node">
<title>ECES 301</title>
<ellipse fill="none" stroke="#0000ff" cx="1168" cy="-591.4113" rx="90.5193" ry="22.7556"/>
<text text-anchor="start" x="1112" y="-593.2113" font-family="Times,serif" font-size="14.00" fill="#000000">ECES 301 (4.0)</text>
<text text-anchor="start" x="1113.5" y="-582.4113" font-family="Times,serif" font-size="10.00" fill="#000000">Signals and Systems I</text>
</g>
<!-- ENGR 103&#45;&gt;ECES 301 -->
<g id="edge31" class="edge">
<title>ENGR 103&#45;&gt;ECES 301</title>
<path fill="none" stroke="#000000" d="M1125.4216,-812.243C1133.8059,-768.758 1152.0388,-674.1938 1161.6996,-624.0883"/>
<polygon fill="#000000" stroke="#000000" points="1165.1677,-624.5873 1163.6243,-614.1055 1158.2943,-623.262 1165.1677,-624.5873"/>
</g>
<!-- ECE 303 -->
<g id="node49" class="node">
<title>ECE 303</title>
<ellipse fill="none" stroke="#ffa500" cx="1002" cy="-510.1564" rx="83.3772" ry="22.7556"/>
<text text-anchor="start" x="951" y="-511.9564" font-family="Times,serif" font-size="14.00" fill="#000000">ECE 303 (3.0)</text>
<text text-anchor="start" x="962.5" y="-501.1564" font-family="Times,serif" font-size="10.00" fill="#000000">ECE Laboratory</text>
</g>
<!-- ENGR 103&#45;&gt;ECE 303 -->
<g id="edge35" class="edge">
<title>ENGR 103&#45;&gt;ECE 303</title>
<path fill="none" stroke="#000000" d="M1112.7266,-812.5791C1092.0211,-756.027 1037.906,-608.2248 1013.8374,-542.4875"/>
<polygon fill="#000000" stroke="#000000" points="1017.1017,-541.2229 1010.3769,-533.0359 1010.5285,-543.6297 1017.1017,-541.2229"/>
</g>
<!-- ECE 201 -->
<g id="node36" class="node">
<title>ECE 201</title>
<ellipse fill="none" stroke="#006400" cx="900" cy="-672.6661" rx="120.8306" ry="22.7556"/>
<text text-anchor="start" x="849" y="-674.4661" font-family="Times,serif" font-size="14.00" fill="#000000">ECE 201 (4.0)</text>
<text text-anchor="start" x="822.5" y="-663.6661" font-family="Times,serif" font-size="10.00" fill="#000000">Foundations of Electric Circuits</text>
</g>
<!-- PHYS 102&#45;&gt;ECE 201 -->
<g id="edge19" class="edge">
<title>PHYS 102&#45;&gt;ECE 201</title>
<path fill="none" stroke="#000000" d="M886.2585,-812.2368C888.9982,-784.4102 893.6366,-737.2983 896.7577,-705.598"/>
<polygon fill="#000000" stroke="#000000" points="900.2563,-705.7832 897.753,-695.4884 893.2899,-705.0973 900.2563,-705.7832"/>
</g>
<!-- PHYS 102&#45;&gt;PHYS 201 -->
<g id="edge49" class="edge">
<title>PHYS 102&#45;&gt;PHYS 201</title>
<path fill="none" stroke="#000000" d="M849.403,-813.7036C809.9957,-786.2728 751,-734.8264 751,-672.6661 751,-672.6661 751,-672.6661 751,-510.1564 751,-464.9165 743.6463,-413.0688 738.0887,-380.3447"/>
<polygon fill="#000000" stroke="#000000" points="741.5248,-379.6746 736.359,-370.4245 734.6288,-380.8771 741.5248,-379.6746"/>
</g>
<!-- 2.2 -->
<g id="node35" class="node">
<title>2.2</title>
<text text-anchor="middle" x="45" y="-668.9661" font-family="Times,serif" font-size="14.00" fill="#000000">2.2 (16.0)</text>
</g>
<!-- 2.1&#45;&gt;2.2 -->
<!-- ECE 200 -->
<g id="node29" class="node">
<title>ECE 200</title>
<ellipse fill="none" stroke="#006400" cx="1350" cy="-753.9209" rx="83.3772" ry="22.7556"/>
<text text-anchor="start" x="1299" y="-755.7209" font-family="Times,serif" font-size="14.00" fill="#000000">ECE 200 (4.0)</text>
<text text-anchor="start" x="1300" y="-744.9209" font-family="Times,serif" font-size="10.00" fill="#000000">Digital Logic Design</text>
</g>
<!-- MATH 221 -->
<g id="node40" class="node">
<title>MATH 221</title>
<ellipse fill="none" stroke="#006400" cx="1289" cy="-672.6661" rx="93.1765" ry="22.7556"/>
<text text-anchor="start" x="1231" y="-674.4661" font-family="Times,serif" font-size="14.00" fill="#000000">MATH 221 (3.0)</text>
<text text-anchor="start" x="1234.5" y="-663.6661" font-family="Times,serif" font-size="10.00" fill="#000000">Discrete Mathematics</text>
</g>
<!-- ECE 200&#45;&gt;MATH 221 -->
<g id="edge23" class="edge">
<title>ECE 200&#45;&gt;MATH 221</title>
<path fill="none" stroke="#000000" d="M1333.3315,-731.7177C1326.7289,-722.9228 1319.0292,-712.6664 1311.917,-703.1925"/>
<polygon fill="#000000" stroke="#000000" points="1314.6631,-701.0207 1305.8603,-695.1248 1309.065,-705.2234 1314.6631,-701.0207"/>
</g>
<!-- ECEC 302 -->
<g id="node44" class="node">
<title>ECEC 302</title>
<ellipse fill="none" stroke="#0000ff" cx="1391" cy="-591.4113" rx="96.7474" ry="22.7556"/>
<text text-anchor="start" x="1334.5" y="-593.2113" font-family="Times,serif" font-size="14.00" fill="#000000">ECEC 302 (3.0)</text>
<text text-anchor="start" x="1330.5" y="-582.4113" font-family="Times,serif" font-size="10.00" fill="#000000">Digital Systems Projects</text>
</g>
<!-- ECE 200&#45;&gt;ECEC 302 -->
<g id="edge27" class="edge">
<title>ECE 200&#45;&gt;ECEC 302</title>
<path fill="none" stroke="#000000" d="M1370.3568,-731.734C1378.4508,-721.4419 1386.8208,-708.5617 1391,-695.2935 1398.2308,-672.3369 1397.9227,-645.0844 1395.9708,-624.2535"/>
<polygon fill="#000000" stroke="#000000" points="1399.4478,-623.8513 1394.8692,-614.2969 1392.4903,-624.6212 1399.4478,-623.8513"/>
</g>
<!-- ECE 200&#45;&gt;ECES 301 -->
<g id="edge29" class="edge">
<title>ECE 200&#45;&gt;ECES 301</title>
<path fill="none" stroke="#000000" d="M1288.3127,-738.6082C1248.0859,-727.3793 1200.6133,-711.3508 1187,-695.2935 1170.5212,-675.8563 1166.3353,-646.904 1165.9515,-624.498"/>
<polygon fill="#000000" stroke="#000000" points="1169.4519,-624.433 1166.0215,-614.4089 1162.4521,-624.3844 1169.4519,-624.433"/>
</g>
<!-- ECEC 204 -->
<g id="node50" class="node">
<title>ECEC 204</title>
<ellipse fill="none" stroke="#ffa500" cx="1550" cy="-510.1564" rx="112.36" ry="22.7556"/>
<text text-anchor="start" x="1493.5" y="-511.9564" font-family="Times,serif" font-size="14.00" fill="#000000">ECEC 204 (3.0)</text>
<text text-anchor="start" x="1478.5" y="-501.1564" font-family="Times,serif" font-size="10.00" fill="#000000">Design with Microcontrollers</text>
</g>
<!-- ECE 200&#45;&gt;ECEC 204 -->
<g id="edge36" class="edge">
<title>ECE 200&#45;&gt;ECEC 204</title>
<path fill="none" stroke="#000000" d="M1377.6223,-732.5135C1409.3607,-706.8938 1461.6084,-661.4755 1497,-614.0387 1513.5889,-591.8039 1527.6027,-563.6122 1537.0459,-542.2093"/>
<polygon fill="#000000" stroke="#000000" points="1540.3146,-543.4679 1541.0558,-532.899 1533.8855,-540.6989 1540.3146,-543.4679"/>
</g>
<!-- ECE 203 -->
<g id="node30" class="node">
<title>ECE 203</title>
<ellipse fill="none" stroke="#006400" cx="1753" cy="-753.9209" rx="108.375" ry="22.7556"/>
<text text-anchor="start" x="1702" y="-755.7209" font-family="Times,serif" font-size="14.00" fill="#000000">ECE 203 (3.0)</text>
<text text-anchor="start" x="1684.5" y="-744.9209" font-family="Times,serif" font-size="10.00" fill="#000000">Programming for Engineers</text>
</g>
<!-- ECEC 201 -->
<g id="node37" class="node">
<title>ECEC 201</title>
<ellipse fill="none" stroke="#006400" cx="1753" cy="-672.6661" rx="123.0732" ry="22.7556"/>
<text text-anchor="start" x="1696.5" y="-674.4661" font-family="Times,serif" font-size="14.00" fill="#000000">ECEC 201 (3.0)</text>
<text text-anchor="start" x="1674" y="-663.6661" font-family="Times,serif" font-size="10.00" fill="#000000">Adv Programming for Engineers</text>
</g>
<!-- ECE 203&#45;&gt;ECEC 201 -->
<g id="edge20" class="edge">
<title>ECE 203&#45;&gt;ECEC 201</title>
<path fill="none" stroke="#000000" d="M1753,-731.2869C1753,-723.3414 1753,-714.2453 1753,-705.6268"/>
<polygon fill="#000000" stroke="#000000" points="1756.5001,-705.4605 1753,-695.4605 1749.5001,-705.4606 1756.5001,-705.4605"/>
</g>
<!-- ECE 203&#45;&gt;ECEC 302 -->
<g id="edge26" class="edge">
<title>ECE 203&#45;&gt;ECEC 302</title>
<path fill="none" stroke="#000000" d="M1706.541,-733.3712C1681.2335,-722.1559 1649.377,-708.0036 1621,-695.2935 1560.5836,-668.2331 1491.3657,-636.9289 1444.7806,-615.8164"/>
<polygon fill="#000000" stroke="#000000" points="1446.0379,-612.5436 1435.4849,-611.6027 1443.1478,-618.9192 1446.0379,-612.5436"/>
</g>
<!-- ECEC 357 -->
<g id="node45" class="node">
<title>ECEC 357</title>
<ellipse fill="none" stroke="#0000ff" cx="2116" cy="-591.4113" rx="135.5294" ry="22.7556"/>
<text text-anchor="start" x="2059.5" y="-593.2113" font-family="Times,serif" font-size="14.00" fill="#000000">ECEC 357 (3.0)</text>
<text text-anchor="start" x="2028" y="-582.4113" font-family="Times,serif" font-size="10.00" fill="#000000">Introduction to Computer Networks</text>
</g>
<!-- ECE 203&#45;&gt;ECEC 357 -->
<g id="edge28" class="edge">
<title>ECE 203&#45;&gt;ECEC 357</title>
<path fill="none" stroke="#000000" d="M1799.4508,-733.3528C1824.7558,-722.1321 1856.6127,-707.9805 1885,-695.2935 1944.5299,-668.6881 2012.5998,-638.0504 2059.3432,-616.9782"/>
<polygon fill="#000000" stroke="#000000" points="2061.0131,-620.0646 2068.6908,-612.7636 2058.1359,-613.6833 2061.0131,-620.0646"/>
</g>
<!-- ENGR 201 -->
<g id="node31" class="node">
<title>ENGR 201</title>
<ellipse fill="none" stroke="#006400" cx="2506" cy="-753.9209" rx="107.4605" ry="22.7556"/>
<text text-anchor="start" x="2448.5" y="-755.7209" font-family="Times,serif" font-size="14.00" fill="#000000">ENGR 201 (3.0)</text>
<text text-anchor="start" x="2438" y="-744.9209" font-family="Times,serif" font-size="10.00" fill="#000000">Eval &amp; Pres of Exper Data I</text>
</g>
<!-- ENGR 202 -->
<g id="node38" class="node">
<title>ENGR 202</title>
<ellipse fill="none" stroke="#006400" cx="2506" cy="-672.6661" rx="110.1176" ry="22.7556"/>
<text text-anchor="start" x="2448.5" y="-674.4661" font-family="Times,serif" font-size="14.00" fill="#000000">ENGR 202 (3.0)</text>
<text text-anchor="start" x="2436" y="-663.6661" font-family="Times,serif" font-size="10.00" fill="#000000">Eval &amp; Pres of Exper Data II</text>
</g>
<!-- ENGR 201&#45;&gt;ENGR 202 -->
<g id="edge21" class="edge">
<title>ENGR 201&#45;&gt;ENGR 202</title>
<path fill="none" stroke="#000000" d="M2506,-731.2869C2506,-723.3414 2506,-714.2453 2506,-705.6268"/>
<polygon fill="#000000" stroke="#000000" points="2509.5001,-705.4605 2506,-695.4605 2502.5001,-705.4606 2509.5001,-705.4605"/>
</g>
<!-- ENGR 232 -->
<g id="node39" class="node">
<title>ENGR 232</title>
<ellipse fill="none" stroke="#006400" cx="2261" cy="-672.6661" rx="116.8455" ry="22.7556"/>
<text text-anchor="start" x="2203.5" y="-674.4661" font-family="Times,serif" font-size="14.00" fill="#000000">ENGR 232 (3.0)</text>
<text text-anchor="start" x="2186.5" y="-663.6661" font-family="Times,serif" font-size="10.00" fill="#000000">Dynamic Engineering Systems</text>
</g>
<!-- ENGR 231&#45;&gt;ENGR 232 -->
<g id="edge22" class="edge">
<title>ENGR 231&#45;&gt;ENGR 232</title>
<path fill="none" stroke="#000000" d="M2261,-731.2869C2261,-723.3414 2261,-714.2453 2261,-705.6268"/>
<polygon fill="#000000" stroke="#000000" points="2264.5001,-705.4605 2261,-695.4605 2257.5001,-705.4606 2264.5001,-705.4605"/>
</g>
<!-- PHIL 111 -->
<g id="node34" class="node">
<title>PHIL 111</title>
<ellipse fill="none" stroke="#006400" cx="2719" cy="-753.9209" rx="87.8629" ry="22.7556"/>
<text text-anchor="start" x="2665" y="-755.7209" font-family="Times,serif" font-size="14.00" fill="#000000">PHIL 111 (3.0)</text>
<text text-anchor="start" x="2678" y="-744.9209" font-family="Times,serif" font-size="10.00" fill="#000000">Symbolic Logic I</text>
</g>
<!-- PHIL 207 -->
<g id="node60" class="node">
<title>PHIL 207</title>
<ellipse fill="none" stroke="#ffa500" cx="2719" cy="-428.9016" rx="87.8629" ry="22.7556"/>
<text text-anchor="start" x="2665" y="-430.7016" font-family="Times,serif" font-size="14.00" fill="#000000">PHIL 207 (3.0)</text>
<text text-anchor="start" x="2676.5" y="-419.9016" font-family="Times,serif" font-size="10.00" fill="#000000">Symbolic Logic II</text>
</g>
<!-- PHIL 111&#45;&gt;PHIL 207 -->
<g id="edge46" class="edge">
<title>PHIL 111&#45;&gt;PHIL 207</title>
<path fill="none" stroke="#000000" d="M2719,-731.0662C2719,-674.5369 2719,-527.9762 2719,-461.9754"/>
<polygon fill="#000000" stroke="#000000" points="2722.5001,-461.731 2719,-451.7311 2715.5001,-461.7311 2722.5001,-461.731"/>
</g>
<!-- 3.1 -->
<g id="node41" class="node">
<title>3.1</title>
<text text-anchor="middle" x="45" y="-587.7113" font-family="Times,serif" font-size="14.00" fill="#000000">3.1 (17.0)</text>
</g>
<!-- 2.2&#45;&gt;3.1 -->
<!-- ECE 201&#45;&gt;ECES 301 -->
<g id="edge30" class="edge">
<title>ECE 201&#45;&gt;ECES 301</title>
<path fill="none" stroke="#000000" d="M963.5123,-653.4098C1004.726,-640.9143 1058.3759,-624.6481 1100.3816,-611.9124"/>
<polygon fill="#000000" stroke="#000000" points="1101.4201,-615.255 1109.9744,-609.004 1099.389,-608.5561 1101.4201,-615.255"/>
</g>
<!-- ECE 201&#45;&gt;ECE 303 -->
<g id="edge34" class="edge">
<title>ECE 201&#45;&gt;ECE 303</title>
<path fill="none" stroke="#000000" d="M914.1827,-650.0698C931.9954,-621.6901 962.6385,-572.8684 982.608,-541.0524"/>
<polygon fill="#000000" stroke="#000000" points="985.5861,-542.8913 987.9378,-532.5608 979.6571,-539.17 985.5861,-542.8913"/>
</g>
<!-- CS 265 -->
<g id="node42" class="node">
<title>CS 265</title>
<ellipse fill="none" stroke="#0000ff" cx="1753" cy="-591.4113" rx="171.2398" ry="22.7556"/>
<text text-anchor="start" x="1707.5" y="-593.2113" font-family="Times,serif" font-size="14.00" fill="#000000">CS 265 (3.0)</text>
<text text-anchor="start" x="1640" y="-582.4113" font-family="Times,serif" font-size="10.00" fill="#000000">Advanced Programming Tools and Techniques</text>
</g>
<!-- ECEC 201&#45;&gt;CS 265 -->
<g id="edge25" class="edge">
<title>ECEC 201&#45;&gt;CS 265</title>
<path fill="none" stroke="#000000" d="M1753,-650.0321C1753,-642.0866 1753,-632.9905 1753,-624.372"/>
<polygon fill="#000000" stroke="#000000" points="1756.5001,-624.2057 1753,-614.2057 1749.5001,-624.2057 1756.5001,-624.2057"/>
</g>
<!-- ECEC 201&#45;&gt;ECEC 204 -->
<g id="edge37" class="edge">
<title>ECEC 201&#45;&gt;ECEC 204</title>
<path fill="none" stroke="#000000" d="M1674.087,-655.161C1632.487,-644.3869 1587.1902,-629.6764 1573,-614.0387 1555.6401,-594.9079 1550.3834,-565.6768 1549.1869,-543.0902"/>
<polygon fill="#000000" stroke="#000000" points="1552.6806,-542.8197 1548.892,-532.9255 1545.6835,-543.0228 1552.6806,-542.8197"/>
</g>
<!-- ECEC 353 -->
<g id="node51" class="node">
<title>ECEC 353</title>
<ellipse fill="none" stroke="#ffa500" cx="1952" cy="-510.1564" rx="91.4341" ry="22.7556"/>
<text text-anchor="start" x="1895.5" y="-511.9564" font-family="Times,serif" font-size="14.00" fill="#000000">ECEC 353 (3.0)</text>
<text text-anchor="start" x="1896" y="-501.1564" font-family="Times,serif" font-size="10.00" fill="#000000">Systems Programming</text>
</g>
<!-- ECEC 201&#45;&gt;ECEC 353 -->
<g id="edge38" class="edge">
<title>ECEC 201&#45;&gt;ECEC 353</title>
<path fill="none" stroke="#000000" d="M1832.6167,-655.2291C1874.1556,-644.5311 1919.1556,-629.8742 1933,-614.0387 1949.8765,-594.735 1953.9842,-565.5198 1954.2376,-542.9834"/>
<polygon fill="#000000" stroke="#000000" points="1957.7356,-542.7972 1954.1034,-532.8445 1950.7362,-542.8899 1957.7356,-542.7972"/>
</g>
<!-- 3.2 -->
<g id="node47" class="node">
<title>3.2</title>
<text text-anchor="middle" x="45" y="-506.4564" font-family="Times,serif" font-size="14.00" fill="#000000">3.2 (18.0)</text>
</g>
<!-- 3.1&#45;&gt;3.2 -->
<!-- CS 260 -->
<g id="node48" class="node">
<title>CS 260</title>
<ellipse fill="none" stroke="#ffa500" cx="1756" cy="-510.1564" rx="75.8212" ry="22.7556"/>
<text text-anchor="start" x="1710.5" y="-511.9564" font-family="Times,serif" font-size="14.00" fill="#000000">CS 260 (3.0)</text>
<text text-anchor="start" x="1716.5" y="-501.1564" font-family="Times,serif" font-size="10.00" fill="#000000">Data Structures</text>
</g>
<!-- CS 265&#45;&gt;CS 260 -->
<g id="edge33" class="edge">
<title>CS 265&#45;&gt;CS 260</title>
<path fill="none" stroke="#000000" d="M1753.8357,-568.7773C1754.129,-560.8318 1754.4649,-551.7356 1754.7831,-543.1172"/>
<polygon fill="#000000" stroke="#000000" points="1758.287,-543.0732 1755.1584,-532.9509 1751.2917,-542.8149 1758.287,-543.0732"/>
</g>
<!-- ECE 361 -->
<g id="node43" class="node">
<title>ECE 361</title>
<ellipse fill="none" stroke="#0000ff" cx="2846" cy="-591.4113" rx="98.9899" ry="22.7556"/>
<text text-anchor="start" x="2795" y="-593.2113" font-family="Times,serif" font-size="14.00" fill="#000000">ECE 361 (4.0)</text>
<text text-anchor="start" x="2784" y="-582.4113" font-family="Times,serif" font-size="10.00" fill="#000000">Probability for Engineers</text>
</g>
<!-- ECE 491 -->
<g id="node65" class="node">
<title>ECE 491</title>
<ellipse fill="none" stroke="#ffa500" cx="2917" cy="-266.3919" rx="92.7622" ry="22.7556"/>
<text text-anchor="start" x="2866" y="-268.1919" font-family="Times,serif" font-size="14.00" fill="#000000">ECE 491 (2.0)</text>
<text text-anchor="start" x="2859.5" y="-257.3919" font-family="Times,serif" font-size="10.00" fill="#000000">Senior Design Project I</text>
</g>
<!-- ECE 361&#45;&gt;ECE 491 -->
<g id="edge53" class="edge">
<title>ECE 361&#45;&gt;ECE 491</title>
<path fill="none" stroke="#000000" d="M2846.4878,-568.5922C2847.6547,-533.3386 2851.6091,-463.7006 2865,-406.2742 2873.8947,-368.1296 2890.418,-326.2555 2902.4582,-298.3587"/>
<polygon fill="#000000" stroke="#000000" points="2905.7059,-299.6674 2906.5102,-289.1032 2899.2935,-296.8601 2905.7059,-299.6674"/>
</g>
<!-- ECEC 355 -->
<g id="node52" class="node">
<title>ECEC 355</title>
<ellipse fill="none" stroke="#ffa500" cx="1328" cy="-510.1564" rx="91.4341" ry="22.7556"/>
<text text-anchor="start" x="1271.5" y="-511.9564" font-family="Times,serif" font-size="14.00" fill="#000000">ECEC 355 (3.0)</text>
<text text-anchor="start" x="1271.5" y="-501.1564" font-family="Times,serif" font-size="10.00" fill="#000000">Computer Architecture</text>
</g>
<!-- ECEC 302&#45;&gt;ECEC 355 -->
<g id="edge39" class="edge">
<title>ECEC 302&#45;&gt;ECEC 355</title>
<path fill="none" stroke="#000000" d="M1373.451,-568.7773C1366.6363,-559.988 1358.73,-549.7907 1351.4409,-540.3895"/>
<polygon fill="#000000" stroke="#000000" points="1354.1306,-538.1465 1345.2372,-532.3882 1348.5986,-542.4357 1354.1306,-538.1465"/>
</g>
<!-- 4.1 -->
<g id="node54" class="node">
<title>4.1</title>
<text text-anchor="middle" x="45" y="-425.2016" font-family="Times,serif" font-size="14.00" fill="#000000">4.1 (16.0)</text>
</g>
<!-- 3.2&#45;&gt;4.1 -->
<!-- CS 361 -->
<g id="node55" class="node">
<title>CS 361</title>
<ellipse fill="none" stroke="#ffa500" cx="1626" cy="-428.9016" rx="100.3184" ry="22.7556"/>
<text text-anchor="start" x="1580.5" y="-430.7016" font-family="Times,serif" font-size="14.00" fill="#000000">CS 361 (3.0)</text>
<text text-anchor="start" x="1563" y="-419.9016" font-family="Times,serif" font-size="10.00" fill="#000000">Concurrent Programming</text>
</g>
<!-- CS 260&#45;&gt;CS 361 -->
<g id="edge41" class="edge">
<title>CS 260&#45;&gt;CS 361</title>
<path fill="none" stroke="#000000" d="M1723.1955,-489.6524C1706.7981,-479.4034 1686.7435,-466.8686 1669.1188,-455.8525"/>
<polygon fill="#000000" stroke="#000000" points="1670.4909,-452.5826 1660.156,-450.2503 1666.7807,-458.5185 1670.4909,-452.5826"/>
</g>
<!-- CS 370 -->
<g id="node56" class="node">
<title>CS 370</title>
<ellipse fill="none" stroke="#ffa500" cx="2024" cy="-428.9016" rx="77.5641" ry="22.7556"/>
<text text-anchor="start" x="1978.5" y="-430.7016" font-family="Times,serif" font-size="14.00" fill="#000000">CS 370 (3.0)</text>
<text text-anchor="start" x="1977" y="-419.9016" font-family="Times,serif" font-size="10.00" fill="#000000">Operating Systems</text>
</g>
<!-- ECEC 353&#45;&gt;CS 370 -->
<g id="edge43" class="edge">
<title>ECEC 353&#45;&gt;CS 370</title>
<path fill="none" stroke="#000000" d="M1971.6743,-487.9532C1979.6906,-478.9064 1989.0772,-468.3134 1997.6698,-458.6162"/>
<polygon fill="#000000" stroke="#000000" points="2000.337,-460.8837 2004.3495,-451.078 1995.0979,-456.2412 2000.337,-460.8837"/>
</g>
<!-- CS 377 -->
<g id="node57" class="node">
<title>CS 377</title>
<ellipse fill="none" stroke="#ffa500" cx="1853" cy="-428.9016" rx="75.8212" ry="22.7556"/>
<text text-anchor="start" x="1807.5" y="-430.7016" font-family="Times,serif" font-size="14.00" fill="#000000">CS 377 (3.0)</text>
<text text-anchor="start" x="1808.5" y="-419.9016" font-family="Times,serif" font-size="10.00" fill="#000000">Software Security</text>
</g>
<!-- ECEC 353&#45;&gt;CS 377 -->
<g id="edge44" class="edge">
<title>ECEC 353&#45;&gt;CS 377</title>
<path fill="none" stroke="#000000" d="M1925.4698,-488.3816C1913.6299,-478.664 1899.5372,-467.0973 1886.9409,-456.7588"/>
<polygon fill="#000000" stroke="#000000" points="1888.8685,-453.8129 1878.9181,-450.174 1884.4274,-459.2238 1888.8685,-453.8129"/>
</g>
<!-- ECEC 355&#45;&gt;CS 361 -->
<g id="edge42" class="edge">
<title>ECEC 355&#45;&gt;CS 361</title>
<path fill="none" stroke="#000000" d="M1389.3845,-493.4189C1436.5856,-480.5487 1501.9804,-462.7177 1552.0617,-449.0621"/>
<polygon fill="#000000" stroke="#000000" points="1553.1368,-452.3969 1561.8638,-446.3894 1551.2953,-445.6434 1553.1368,-452.3969"/>
</g>
<!-- ECEC 413 -->
<g id="node59" class="node">
<title>ECEC 413</title>
<ellipse fill="none" stroke="#ffa500" cx="1255" cy="-428.9016" rx="147.5709" ry="22.7556"/>
<text text-anchor="start" x="1198.5" y="-430.7016" font-family="Times,serif" font-size="14.00" fill="#000000">ECEC 413 (3.0)</text>
<text text-anchor="start" x="1158.5" y="-419.9016" font-family="Times,serif" font-size="10.00" fill="#000000">Intro to Parallel Computer Architecture</text>
</g>
<!-- ECEC 355&#45;&gt;ECEC 413 -->
<g id="edge45" class="edge">
<title>ECEC 355&#45;&gt;ECEC 413</title>
<path fill="none" stroke="#000000" d="M1308.0524,-487.9532C1299.9914,-478.9806 1290.5638,-468.4869 1281.9102,-458.8548"/>
<polygon fill="#000000" stroke="#000000" points="1284.4638,-456.4601 1275.1771,-451.3603 1279.2566,-461.1383 1284.4638,-456.4601"/>
</g>
<!-- ECEC 414 -->
<g id="node62" class="node">
<title>ECEC 414</title>
<ellipse fill="none" stroke="#ffa500" cx="1431" cy="-347.6468" rx="114.6026" ry="22.7556"/>
<text text-anchor="start" x="1374.5" y="-349.4468" font-family="Times,serif" font-size="14.00" fill="#000000">ECEC 414 (3.0)</text>
<text text-anchor="start" x="1358" y="-338.6468" font-family="Times,serif" font-size="10.00" fill="#000000">High Performance Computing</text>
</g>
<!-- ECEC 355&#45;&gt;ECEC 414 -->
<g id="edge48" class="edge">
<title>ECEC 355&#45;&gt;ECEC 414</title>
<path fill="none" stroke="#000000" d="M1369.7883,-489.9626C1385.3501,-480.4059 1401.7125,-467.5374 1412,-451.529 1425.5437,-430.4535 1430.0424,-402.281 1431.2931,-380.5919"/>
<polygon fill="#000000" stroke="#000000" points="1434.7934,-380.6492 1431.6717,-370.5248 1427.7983,-380.3862 1434.7934,-380.6492"/>
</g>
<!-- PHIL 315 -->
<g id="node53" class="node">
<title>PHIL 315</title>
<ellipse fill="none" stroke="#ffa500" cx="2962" cy="-510.1564" rx="87.8629" ry="22.7556"/>
<text text-anchor="start" x="2908" y="-511.9564" font-family="Times,serif" font-size="14.00" fill="#000000">PHIL 315 (3.0)</text>
<text text-anchor="start" x="2915.5" y="-501.1564" font-family="Times,serif" font-size="10.00" fill="#000000">Engineering Ethics</text>
</g>
<!-- 4.2 -->
<g id="node61" class="node">
<title>4.2</title>
<text text-anchor="middle" x="45" y="-343.9468" font-family="Times,serif" font-size="14.00" fill="#000000">4.2 (7.0)</text>
</g>
<!-- 4.1&#45;&gt;4.2 -->
<!-- ECE 391 -->
<g id="node58" class="node">
<title>ECE 391</title>
<ellipse fill="none" stroke="#ffa500" cx="2989" cy="-428.9016" rx="114.6026" ry="22.7556"/>
<text text-anchor="start" x="2938" y="-430.7016" font-family="Times,serif" font-size="14.00" fill="#000000">ECE 391 (1.0)</text>
<text text-anchor="start" x="2916" y="-419.9016" font-family="Times,serif" font-size="10.00" fill="#000000">Intro to Engr Design Methods</text>
</g>
<!-- ECE 391&#45;&gt;ECE 491 -->
<g id="edge52" class="edge">
<title>ECE 391&#45;&gt;ECE 491</title>
<path fill="none" stroke="#000000" d="M2978.9887,-406.3053C2966.5575,-378.2472 2945.2736,-330.2077 2931.1706,-298.376"/>
<polygon fill="#000000" stroke="#000000" points="2934.2929,-296.7827 2927.0421,-289.0576 2927.8929,-299.6183 2934.2929,-296.7827"/>
</g>
<!-- 5.1 -->
<g id="node64" class="node">
<title>5.1</title>
<text text-anchor="middle" x="45" y="-262.6919" font-family="Times,serif" font-size="14.00" fill="#000000">5.1 (2.0)</text>
</g>
<!-- 4.2&#45;&gt;5.1 -->
<!-- 5.2 -->
<g id="node66" class="node">
<title>5.2</title>
<text text-anchor="middle" x="45" y="-181.4371" font-family="Times,serif" font-size="14.00" fill="#000000">5.2 (2.0)</text>
</g>
<!-- 5.1&#45;&gt;5.2 -->
<!-- ECE 492 -->
<g id="node67" class="node">
<title>ECE 492</title>
<ellipse fill="none" stroke="#ffa500" cx="2917" cy="-185.1371" rx="94.5053" ry="22.7556"/>
<text text-anchor="start" x="2866" y="-186.9371" font-family="Times,serif" font-size="14.00" fill="#000000">ECE 492 (2.0)</text>
<text text-anchor="start" x="2858" y="-176.1371" font-family="Times,serif" font-size="10.00" fill="#000000">Senior Design Project II</text>
</g>
<!-- ECE 491&#45;&gt;ECE 492 -->
<g id="edge55" class="edge">
<title>ECE 491&#45;&gt;ECE 492</title>
<path fill="none" stroke="#000000" d="M2917,-243.7579C2917,-235.8124 2917,-226.7163 2917,-218.0978"/>
<polygon fill="#000000" stroke="#000000" points="2920.5001,-217.9315 2917,-207.9315 2913.5001,-217.9316 2920.5001,-217.9315"/>
</g>
<!-- 5.3 -->
<g id="node68" class="node">
<title>5.3</title>
<text text-anchor="middle" x="45" y="-100.1823" font-family="Times,serif" font-size="14.00" fill="#000000">5.3 (4.0)</text>
</g>
<!-- 5.2&#45;&gt;5.3 -->
<!-- ECE 493 -->
<g id="node69" class="node">
<title>ECE 493</title>
<ellipse fill="none" stroke="#ffa500" cx="2917" cy="-103.8823" rx="97.6615" ry="22.7556"/>
<text text-anchor="start" x="2866" y="-105.6823" font-family="Times,serif" font-size="14.00" fill="#000000">ECE 493 (4.0)</text>
<text text-anchor="start" x="2856" y="-94.8823" font-family="Times,serif" font-size="10.00" fill="#000000">Senior Design Project III</text>
</g>
<!-- ECE 492&#45;&gt;ECE 493 -->
<g id="edge57" class="edge">
<title>ECE 492&#45;&gt;ECE 493</title>
<path fill="none" stroke="#000000" d="M2917,-162.5031C2917,-154.5576 2917,-145.4615 2917,-136.843"/>
<polygon fill="#000000" stroke="#000000" points="2920.5001,-136.6767 2917,-126.6767 2913.5001,-136.6767 2920.5001,-136.6767"/>
</g>
<!-- &#45;1.0 -->
<g id="node70" class="node">
<title>&#45;1.0</title>
<text text-anchor="middle" x="45" y="-18.9274" font-family="Times,serif" font-size="14.00" fill="#000000">&#45;1.0 (17.0)</text>
</g>
<!-- 5.3&#45;&gt;&#45;1.0 -->
<!-- TEMP GenEd -->
<g id="node71" class="node">
<title>TEMP GenEd</title>
<ellipse fill="none" stroke="#ff0000" cx="218" cy="-22.6274" rx="109.7032" ry="22.7556"/>
<text text-anchor="start" x="150.5" y="-24.4274" font-family="Times,serif" font-size="14.00" fill="#000000">TEMP GenEd (8.0)</text>
<text text-anchor="start" x="148.5" y="-13.6274" font-family="Times,serif" font-size="10.00" fill="#000000">General Education Electives</text>
</g>
<!-- TEMP ECEC 400 -->
<g id="node72" class="node">
<title>TEMP ECEC 400</title>
<ellipse fill="none" stroke="#ff0000" cx="471" cy="-22.6274" rx="125.7302" ry="22.7556"/>
<text text-anchor="start" x="390" y="-24.4274" font-family="Times,serif" font-size="14.00" fill="#000000">TEMP ECEC 400 (3.0)</text>
<text text-anchor="start" x="407.5" y="-13.6274" font-family="Times,serif" font-size="10.00" fill="#000000">ECEC 400 Level Electives</text>
</g>
<!-- TEMP COE -->
<g id="node73" class="node">
<title>TEMP COE</title>
<ellipse fill="none" stroke="#ff0000" cx="717" cy="-22.6274" rx="101.6471" ry="22.7556"/>
<text text-anchor="start" x="656.5" y="-24.4274" font-family="Times,serif" font-size="14.00" fill="#000000">TEMP COE (6.0)</text>
<text text-anchor="start" x="653" y="-13.6274" font-family="Times,serif" font-size="10.00" fill="#000000">ECE/COE/BMES Electives</text>
</g>
</g>
</svg>
