<?xml version="1.0" encoding="UTF-8" standalone="no"?>
<!DOCTYPE svg PUBLIC "-//W3C//DTD SVG 1.1//EN"
 "http://www.w3.org/Graphics/SVG/1.1/DTD/svg11.dtd">
<!-- Generated by graphviz version 2.40.1 (20161225.0304)
 -->
<!-- Title: Classes Pages: 1 -->
<svg width="2135pt" height="1268pt"
 viewBox="0.00 0.00 2134.54 1268.00" xmlns="http://www.w3.org/2000/svg" xmlns:xlink="http://www.w3.org/1999/xlink">
<g id="graph0" class="graph" transform="scale(1 1) rotate(0) translate(4 1264)">
<title>Classes</title>
<polygon fill="#ffffff" stroke="transparent" points="-4,4 -4,-1264 2130.542,-1264 2130.542,4 -4,4"/>
<!-- freshman 1 (16.5) -->
<g id="node1" class="node">
<title>freshman 1 (16.5)</title>
<text text-anchor="middle" x="72" y="-1238.3" font-family="Times,serif" font-size="14.00" fill="#000000">freshman 1 (16.5)</text>
</g>
<!-- freshman 2 (19.5) -->
<g id="node2" class="node">
<title>freshman 2 (19.5)</title>
<text text-anchor="middle" x="72" y="-1166.3" font-family="Times,serif" font-size="14.00" fill="#000000">freshman 2 (19.5)</text>
</g>
<!-- freshman 1 (16.5)&#45;&gt;freshman 2 (19.5) -->
<g id="edge1" class="edge">
<title>freshman 1 (16.5)&#45;&gt;freshman 2 (19.5)</title>
<path fill="none" stroke="#000000" d="M72,-1223.8314C72,-1216.131 72,-1206.9743 72,-1198.4166"/>
<polygon fill="#000000" stroke="#000000" points="75.5001,-1198.4132 72,-1188.4133 68.5001,-1198.4133 75.5001,-1198.4132"/>
</g>
<!-- freshman 3 (17.5) -->
<g id="node3" class="node">
<title>freshman 3 (17.5)</title>
<text text-anchor="middle" x="72" y="-1094.3" font-family="Times,serif" font-size="14.00" fill="#000000">freshman 3 (17.5)</text>
</g>
<!-- freshman 2 (19.5)&#45;&gt;freshman 3 (17.5) -->
<g id="edge2" class="edge">
<title>freshman 2 (19.5)&#45;&gt;freshman 3 (17.5)</title>
<path fill="none" stroke="#000000" d="M72,-1151.8314C72,-1144.131 72,-1134.9743 72,-1126.4166"/>
<polygon fill="#000000" stroke="#000000" points="75.5001,-1126.4132 72,-1116.4133 68.5001,-1126.4133 75.5001,-1126.4132"/>
</g>
<!-- sophomore 1 (20) -->
<g id="node4" class="node">
<title>sophomore 1 (20)</title>
<text text-anchor="middle" x="72" y="-1022.3" font-family="Times,serif" font-size="14.00" fill="#000000">sophomore 1 (20)</text>
</g>
<!-- freshman 3 (17.5)&#45;&gt;sophomore 1 (20) -->
<g id="edge3" class="edge">
<title>freshman 3 (17.5)&#45;&gt;sophomore 1 (20)</title>
<path fill="none" stroke="#000000" d="M72,-1079.8314C72,-1072.131 72,-1062.9743 72,-1054.4166"/>
<polygon fill="#000000" stroke="#000000" points="75.5001,-1054.4132 72,-1044.4133 68.5001,-1054.4133 75.5001,-1054.4132"/>
</g>
<!-- sophomore 2 (20) -->
<g id="node5" class="node">
<title>sophomore 2 (20)</title>
<text text-anchor="middle" x="72" y="-950.3" font-family="Times,serif" font-size="14.00" fill="#000000">sophomore 2 (20)</text>
</g>
<!-- sophomore 1 (20)&#45;&gt;sophomore 2 (20) -->
<g id="edge4" class="edge">
<title>sophomore 1 (20)&#45;&gt;sophomore 2 (20)</title>
<path fill="none" stroke="#000000" d="M72,-1007.8314C72,-1000.131 72,-990.9743 72,-982.4166"/>
<polygon fill="#000000" stroke="#000000" points="75.5001,-982.4132 72,-972.4133 68.5001,-982.4133 75.5001,-982.4132"/>
</g>
<!-- COOP 1 -->
<g id="node6" class="node">
<title>COOP 1</title>
<text text-anchor="middle" x="72" y="-878.3" font-family="Times,serif" font-size="14.00" fill="#000000">COOP 1</text>
</g>
<!-- sophomore 2 (20)&#45;&gt;COOP 1 -->
<g id="edge5" class="edge">
<title>sophomore 2 (20)&#45;&gt;COOP 1</title>
<path fill="none" stroke="#000000" d="M72,-935.8314C72,-928.131 72,-918.9743 72,-910.4166"/>
<polygon fill="#000000" stroke="#000000" points="75.5001,-910.4132 72,-900.4133 68.5001,-910.4133 75.5001,-910.4132"/>
</g>
<!-- COOP 2 -->
<g id="node7" class="node">
<title>COOP 2</title>
<text text-anchor="middle" x="72" y="-806.3" font-family="Times,serif" font-size="14.00" fill="#000000">COOP 2</text>
</g>
<!-- COOP 1&#45;&gt;COOP 2 -->
<g id="edge6" class="edge">
<title>COOP 1&#45;&gt;COOP 2</title>
<path fill="none" stroke="#000000" d="M72,-863.8314C72,-856.131 72,-846.9743 72,-838.4166"/>
<polygon fill="#000000" stroke="#000000" points="75.5001,-838.4132 72,-828.4133 68.5001,-838.4133 75.5001,-838.4132"/>
</g>
<!-- pre&#45;junior 1 -->
<g id="node8" class="node">
<title>pre&#45;junior 1</title>
<text text-anchor="middle" x="72" y="-734.3" font-family="Times,serif" font-size="14.00" fill="#000000">pre&#45;junior 1</text>
</g>
<!-- COOP 2&#45;&gt;pre&#45;junior 1 -->
<g id="edge7" class="edge">
<title>COOP 2&#45;&gt;pre&#45;junior 1</title>
<path fill="none" stroke="#000000" d="M72,-791.8314C72,-784.131 72,-774.9743 72,-766.4166"/>
<polygon fill="#000000" stroke="#000000" points="75.5001,-766.4132 72,-756.4133 68.5001,-766.4133 75.5001,-766.4132"/>
</g>
<!-- pre&#45;junior 2 -->
<g id="node9" class="node">
<title>pre&#45;junior 2</title>
<text text-anchor="middle" x="72" y="-662.3" font-family="Times,serif" font-size="14.00" fill="#000000">pre&#45;junior 2</text>
</g>
<!-- pre&#45;junior 1&#45;&gt;pre&#45;junior 2 -->
<g id="edge8" class="edge">
<title>pre&#45;junior 1&#45;&gt;pre&#45;junior 2</title>
<path fill="none" stroke="#000000" d="M72,-719.8314C72,-712.131 72,-702.9743 72,-694.4166"/>
<polygon fill="#000000" stroke="#000000" points="75.5001,-694.4132 72,-684.4133 68.5001,-694.4133 75.5001,-694.4132"/>
</g>
<!-- COOP 3 -->
<g id="node10" class="node">
<title>COOP 3</title>
<text text-anchor="middle" x="72" y="-590.3" font-family="Times,serif" font-size="14.00" fill="#000000">COOP 3</text>
</g>
<!-- pre&#45;junior 2&#45;&gt;COOP 3 -->
<g id="edge9" class="edge">
<title>pre&#45;junior 2&#45;&gt;COOP 3</title>
<path fill="none" stroke="#000000" d="M72,-647.8314C72,-640.131 72,-630.9743 72,-622.4166"/>
<polygon fill="#000000" stroke="#000000" points="75.5001,-622.4132 72,-612.4133 68.5001,-622.4133 75.5001,-622.4132"/>
</g>
<!-- COOP 4 -->
<g id="node11" class="node">
<title>COOP 4</title>
<text text-anchor="middle" x="72" y="-518.3" font-family="Times,serif" font-size="14.00" fill="#000000">COOP 4</text>
</g>
<!-- COOP 3&#45;&gt;COOP 4 -->
<g id="edge10" class="edge">
<title>COOP 3&#45;&gt;COOP 4</title>
<path fill="none" stroke="#000000" d="M72,-575.8314C72,-568.131 72,-558.9743 72,-550.4166"/>
<polygon fill="#000000" stroke="#000000" points="75.5001,-550.4132 72,-540.4133 68.5001,-550.4133 75.5001,-550.4132"/>
</g>
<!-- junior 1 -->
<g id="node12" class="node">
<title>junior 1</title>
<text text-anchor="middle" x="72" y="-446.3" font-family="Times,serif" font-size="14.00" fill="#000000">junior 1</text>
</g>
<!-- COOP 4&#45;&gt;junior 1 -->
<g id="edge11" class="edge">
<title>COOP 4&#45;&gt;junior 1</title>
<path fill="none" stroke="#000000" d="M72,-503.8314C72,-496.131 72,-486.9743 72,-478.4166"/>
<polygon fill="#000000" stroke="#000000" points="75.5001,-478.4132 72,-468.4133 68.5001,-478.4133 75.5001,-478.4132"/>
</g>
<!-- junior 2 -->
<g id="node13" class="node">
<title>junior 2</title>
<text text-anchor="middle" x="72" y="-374.3" font-family="Times,serif" font-size="14.00" fill="#000000">junior 2</text>
</g>
<!-- junior 1&#45;&gt;junior 2 -->
<g id="edge12" class="edge">
<title>junior 1&#45;&gt;junior 2</title>
<path fill="none" stroke="#000000" d="M72,-431.8314C72,-424.131 72,-414.9743 72,-406.4166"/>
<polygon fill="#000000" stroke="#000000" points="75.5001,-406.4132 72,-396.4133 68.5001,-406.4133 75.5001,-406.4132"/>
</g>
<!-- COOP 5 -->
<g id="node14" class="node">
<title>COOP 5</title>
<text text-anchor="middle" x="72" y="-302.3" font-family="Times,serif" font-size="14.00" fill="#000000">COOP 5</text>
</g>
<!-- junior 2&#45;&gt;COOP 5 -->
<g id="edge13" class="edge">
<title>junior 2&#45;&gt;COOP 5</title>
<path fill="none" stroke="#000000" d="M72,-359.8314C72,-352.131 72,-342.9743 72,-334.4166"/>
<polygon fill="#000000" stroke="#000000" points="75.5001,-334.4132 72,-324.4133 68.5001,-334.4133 75.5001,-334.4132"/>
</g>
<!-- COOP 6 -->
<g id="node15" class="node">
<title>COOP 6</title>
<text text-anchor="middle" x="72" y="-230.3" font-family="Times,serif" font-size="14.00" fill="#000000">COOP 6</text>
</g>
<!-- COOP 5&#45;&gt;COOP 6 -->
<g id="edge14" class="edge">
<title>COOP 5&#45;&gt;COOP 6</title>
<path fill="none" stroke="#000000" d="M72,-287.8314C72,-280.131 72,-270.9743 72,-262.4166"/>
<polygon fill="#000000" stroke="#000000" points="75.5001,-262.4132 72,-252.4133 68.5001,-262.4133 75.5001,-262.4132"/>
</g>
<!-- senior 1 -->
<g id="node16" class="node">
<title>senior 1</title>
<text text-anchor="middle" x="72" y="-158.3" font-family="Times,serif" font-size="14.00" fill="#000000">senior 1</text>
</g>
<!-- COOP 6&#45;&gt;senior 1 -->
<g id="edge15" class="edge">
<title>COOP 6&#45;&gt;senior 1</title>
<path fill="none" stroke="#000000" d="M72,-215.8314C72,-208.131 72,-198.9743 72,-190.4166"/>
<polygon fill="#000000" stroke="#000000" points="75.5001,-190.4132 72,-180.4133 68.5001,-190.4133 75.5001,-190.4132"/>
</g>
<!-- senior 2 -->
<g id="node17" class="node">
<title>senior 2</title>
<text text-anchor="middle" x="72" y="-86.3" font-family="Times,serif" font-size="14.00" fill="#000000">senior 2</text>
</g>
<!-- senior 1&#45;&gt;senior 2 -->
<g id="edge16" class="edge">
<title>senior 1&#45;&gt;senior 2</title>
<path fill="none" stroke="#000000" d="M72,-143.8314C72,-136.131 72,-126.9743 72,-118.4166"/>
<polygon fill="#000000" stroke="#000000" points="75.5001,-118.4132 72,-108.4133 68.5001,-118.4133 75.5001,-118.4132"/>
</g>
<!-- senior 3 -->
<g id="node18" class="node">
<title>senior 3</title>
<text text-anchor="middle" x="72" y="-14.3" font-family="Times,serif" font-size="14.00" fill="#000000">senior 3</text>
</g>
<!-- senior 2&#45;&gt;senior 3 -->
<g id="edge17" class="edge">
<title>senior 2&#45;&gt;senior 3</title>
<path fill="none" stroke="#000000" d="M72,-71.8314C72,-64.131 72,-54.9743 72,-46.4166"/>
<polygon fill="#000000" stroke="#000000" points="75.5001,-46.4132 72,-36.4133 68.5001,-46.4133 75.5001,-46.4132"/>
</g>
<!-- UNIV 101 -->
<g id="node19" class="node">
<title>UNIV 101</title>
<ellipse fill="none" stroke="#00ff00" cx="220" cy="-1242" rx="57.6901" ry="18"/>
<text text-anchor="middle" x="220" y="-1238.3" font-family="Times,serif" font-size="14.00" fill="#000000">UNIV 101</text>
</g>
<!-- ENGL 101 -->
<g id="node20" class="node">
<title>ENGL 101</title>
<ellipse fill="none" stroke="#00ff00" cx="356" cy="-1242" rx="59.5901" ry="18"/>
<text text-anchor="middle" x="356" y="-1238.3" font-family="Times,serif" font-size="14.00" fill="#000000">ENGL 101</text>
</g>
<!-- ENGL 102 -->
<g id="node30" class="node">
<title>ENGL 102</title>
<ellipse fill="none" stroke="#00ff00" cx="356" cy="-1170" rx="59.5901" ry="18"/>
<text text-anchor="middle" x="356" y="-1166.3" font-family="Times,serif" font-size="14.00" fill="#000000">ENGL 102</text>
</g>
<!-- ENGL 101&#45;&gt;ENGL 102 -->
<g id="edge18" class="edge">
<title>ENGL 101&#45;&gt;ENGL 102</title>
<path fill="none" stroke="#000000" d="M356,-1223.8314C356,-1216.131 356,-1206.9743 356,-1198.4166"/>
<polygon fill="#000000" stroke="#000000" points="359.5001,-1198.4132 356,-1188.4133 352.5001,-1198.4133 359.5001,-1198.4132"/>
</g>
<!-- ENGR 100 -->
<g id="node21" class="node">
<title>ENGR 100</title>
<ellipse fill="none" stroke="#00ff00" cx="494" cy="-1242" rx="60.3893" ry="18"/>
<text text-anchor="middle" x="494" y="-1238.3" font-family="Times,serif" font-size="14.00" fill="#000000">ENGR 100</text>
</g>
<!-- CHEM 101 -->
<g id="node22" class="node">
<title>CHEM 101</title>
<ellipse fill="none" stroke="#00ff00" cx="778" cy="-1242" rx="63.0888" ry="18"/>
<text text-anchor="middle" x="778" y="-1238.3" font-family="Times,serif" font-size="14.00" fill="#000000">CHEM 101</text>
</g>
<!-- CHEM 102 -->
<g id="node31" class="node">
<title>CHEM 102</title>
<ellipse fill="none" stroke="#00ff00" cx="778" cy="-1170" rx="63.0888" ry="18"/>
<text text-anchor="middle" x="778" y="-1166.3" font-family="Times,serif" font-size="14.00" fill="#000000">CHEM 102</text>
</g>
<!-- CHEM 101&#45;&gt;CHEM 102 -->
<g id="edge21" class="edge">
<title>CHEM 101&#45;&gt;CHEM 102</title>
<path fill="none" stroke="#000000" d="M778,-1223.8314C778,-1216.131 778,-1206.9743 778,-1198.4166"/>
<polygon fill="#000000" stroke="#000000" points="781.5001,-1198.4132 778,-1188.4133 774.5001,-1198.4133 781.5001,-1198.4132"/>
</g>
<!-- ENGR 101 -->
<g id="node23" class="node">
<title>ENGR 101</title>
<ellipse fill="none" stroke="#00ff00" cx="1273" cy="-1242" rx="60.3893" ry="18"/>
<text text-anchor="middle" x="1273" y="-1238.3" font-family="Times,serif" font-size="14.00" fill="#000000">ENGR 101</text>
</g>
<!-- ENGR 102 -->
<g id="node32" class="node">
<title>ENGR 102</title>
<ellipse fill="none" stroke="#00ff00" cx="1273" cy="-1170" rx="60.3893" ry="18"/>
<text text-anchor="middle" x="1273" y="-1166.3" font-family="Times,serif" font-size="14.00" fill="#000000">ENGR 102</text>
</g>
<!-- ENGR 101&#45;&gt;ENGR 102 -->
<g id="edge28" class="edge">
<title>ENGR 101&#45;&gt;ENGR 102</title>
<path fill="none" stroke="#000000" d="M1273,-1223.8314C1273,-1216.131 1273,-1206.9743 1273,-1198.4166"/>
<polygon fill="#000000" stroke="#000000" points="1276.5001,-1198.4132 1273,-1188.4133 1269.5001,-1198.4133 1276.5001,-1198.4132"/>
</g>
<!-- ENGR 121 -->
<g id="node24" class="node">
<title>ENGR 121</title>
<ellipse fill="none" stroke="#00ff00" cx="633" cy="-1242" rx="60.3893" ry="18"/>
<text text-anchor="middle" x="633" y="-1238.3" font-family="Times,serif" font-size="14.00" fill="#000000">ENGR 121</text>
</g>
<!-- ENGR 231 -->
<g id="node44" class="node">
<title>ENGR 231</title>
<ellipse fill="none" stroke="#ffa500" cx="859" cy="-1026" rx="60.3893" ry="18"/>
<text text-anchor="middle" x="859" y="-1022.3" font-family="Times,serif" font-size="14.00" fill="#000000">ENGR 231</text>
</g>
<!-- ENGR 121&#45;&gt;ENGR 231 -->
<g id="edge39" class="edge">
<title>ENGR 121&#45;&gt;ENGR 231</title>
<path fill="none" stroke="#000000" d="M645.7559,-1224.2119C659.62,-1205.3974 682.898,-1175.2746 706,-1152 745.0533,-1112.6548 795.5462,-1072.9303 827.6142,-1048.8858"/>
<polygon fill="#000000" stroke="#000000" points="829.8194,-1051.6075 835.7484,-1042.827 825.6379,-1045.9937 829.8194,-1051.6075"/>
</g>
<!-- ENGR 232 -->
<g id="node51" class="node">
<title>ENGR 232</title>
<ellipse fill="none" stroke="#000000" cx="849" cy="-954" rx="60.3893" ry="18"/>
<text text-anchor="middle" x="849" y="-950.3" font-family="Times,serif" font-size="14.00" fill="#000000">ENGR 232</text>
</g>
<!-- ENGR 121&#45;&gt;ENGR 232 -->
<g id="edge41" class="edge">
<title>ENGR 121&#45;&gt;ENGR 232</title>
<path fill="none" stroke="#000000" d="M628.143,-1223.9452C617.7682,-1180.9979 598.4383,-1071.5999 651,-1008 668.0237,-987.4013 733.0756,-972.4023 784.0281,-963.5128"/>
<polygon fill="#000000" stroke="#000000" points="784.7398,-966.9421 794.0122,-961.8165 783.5672,-960.041 784.7398,-966.9421"/>
</g>
<!-- MATH 121 -->
<g id="node25" class="node">
<title>MATH 121</title>
<ellipse fill="none" stroke="#00ff00" cx="921" cy="-1242" rx="61.99" ry="18"/>
<text text-anchor="middle" x="921" y="-1238.3" font-family="Times,serif" font-size="14.00" fill="#000000">MATH 121</text>
</g>
<!-- MATH 122 -->
<g id="node34" class="node">
<title>MATH 122</title>
<ellipse fill="none" stroke="#00ff00" cx="921" cy="-1170" rx="61.99" ry="18"/>
<text text-anchor="middle" x="921" y="-1166.3" font-family="Times,serif" font-size="14.00" fill="#000000">MATH 122</text>
</g>
<!-- MATH 121&#45;&gt;MATH 122 -->
<g id="edge25" class="edge">
<title>MATH 121&#45;&gt;MATH 122</title>
<path fill="none" stroke="#000000" d="M921,-1223.8314C921,-1216.131 921,-1206.9743 921,-1198.4166"/>
<polygon fill="#000000" stroke="#000000" points="924.5001,-1198.4132 921,-1188.4133 917.5001,-1198.4133 924.5001,-1198.4132"/>
</g>
<!-- CS 190 -->
<g id="node26" class="node">
<title>CS 190</title>
<polygon fill="none" stroke="#00ff00" points="1415,-1260 1351.6562,-1242 1415,-1224 1478.3438,-1242 1415,-1260"/>
<text text-anchor="middle" x="1415" y="-1238.3" font-family="Times,serif" font-size="14.00" fill="#000000">CS 190</text>
</g>
<!-- TGFE 099 -->
<g id="node27" class="node">
<title>TGFE 099</title>
<polygon fill="none" stroke="#00ff00" points="1578,-1260 1496.3895,-1242 1578,-1224 1659.6105,-1242 1578,-1260"/>
<text text-anchor="middle" x="1578" y="-1238.3" font-family="Times,serif" font-size="14.00" fill="#000000">TGFE 099</text>
</g>
<!-- SPAN 101 -->
<g id="node28" class="node">
<title>SPAN 101</title>
<polygon fill="none" stroke="#00ff00" points="1811.5876,-1242 1778.2938,-1260 1711.7062,-1260 1678.4124,-1242 1711.7062,-1224 1778.2938,-1224 1811.5876,-1242"/>
<text text-anchor="middle" x="1745" y="-1238.3" font-family="Times,serif" font-size="14.00" fill="#000000">SPAN 101</text>
</g>
<!-- CIVC 101 -->
<g id="node29" class="node">
<title>CIVC 101</title>
<ellipse fill="none" stroke="#00ff00" cx="1408" cy="-1170" rx="56.59" ry="18"/>
<text text-anchor="middle" x="1408" y="-1166.3" font-family="Times,serif" font-size="14.00" fill="#000000">CIVC 101</text>
</g>
<!-- ENGL 103 -->
<g id="node36" class="node">
<title>ENGL 103</title>
<ellipse fill="none" stroke="#00ff00" cx="356" cy="-1098" rx="59.5901" ry="18"/>
<text text-anchor="middle" x="356" y="-1094.3" font-family="Times,serif" font-size="14.00" fill="#000000">ENGL 103</text>
</g>
<!-- ENGL 102&#45;&gt;ENGL 103 -->
<g id="edge19" class="edge">
<title>ENGL 102&#45;&gt;ENGL 103</title>
<path fill="none" stroke="#000000" d="M356,-1151.8314C356,-1144.131 356,-1134.9743 356,-1126.4166"/>
<polygon fill="#000000" stroke="#000000" points="359.5001,-1126.4132 356,-1116.4133 352.5001,-1126.4133 359.5001,-1126.4132"/>
</g>
<!-- ENGR 220 -->
<g id="node43" class="node">
<title>ENGR 220</title>
<ellipse fill="none" stroke="#ffa500" cx="720" cy="-1026" rx="60.3893" ry="18"/>
<text text-anchor="middle" x="720" y="-1022.3" font-family="Times,serif" font-size="14.00" fill="#000000">ENGR 220</text>
</g>
<!-- CHEM 102&#45;&gt;ENGR 220 -->
<g id="edge36" class="edge">
<title>CHEM 102&#45;&gt;ENGR 220</title>
<path fill="none" stroke="#000000" d="M750.8525,-1153.6074C732.2574,-1141.7348 710.074,-1126.0648 705,-1116 695.1474,-1096.4565 700.2995,-1071.7924 707.1297,-1053.2279"/>
<polygon fill="#000000" stroke="#000000" points="710.4074,-1054.4582 710.8976,-1043.8747 703.9144,-1051.8425 710.4074,-1054.4582"/>
</g>
<!-- ENGR 103 -->
<g id="node37" class="node">
<title>ENGR 103</title>
<ellipse fill="none" stroke="#00ff00" cx="1273" cy="-1098" rx="60.3893" ry="18"/>
<text text-anchor="middle" x="1273" y="-1094.3" font-family="Times,serif" font-size="14.00" fill="#000000">ENGR 103</text>
</g>
<!-- ENGR 102&#45;&gt;ENGR 103 -->
<g id="edge29" class="edge">
<title>ENGR 102&#45;&gt;ENGR 103</title>
<path fill="none" stroke="#000000" d="M1273,-1151.8314C1273,-1144.131 1273,-1134.9743 1273,-1126.4166"/>
<polygon fill="#000000" stroke="#000000" points="1276.5001,-1126.4132 1273,-1116.4133 1269.5001,-1126.4133 1276.5001,-1126.4132"/>
</g>
<!-- ENGR 122 -->
<g id="node33" class="node">
<title>ENGR 122</title>
<ellipse fill="none" stroke="#00ff00" cx="1543" cy="-1170" rx="60.3893" ry="18"/>
<text text-anchor="middle" x="1543" y="-1166.3" font-family="Times,serif" font-size="14.00" fill="#000000">ENGR 122</text>
</g>
<!-- MATH 200 -->
<g id="node41" class="node">
<title>MATH 200</title>
<ellipse fill="none" stroke="#00ff00" cx="885" cy="-1098" rx="61.99" ry="18"/>
<text text-anchor="middle" x="885" y="-1094.3" font-family="Times,serif" font-size="14.00" fill="#000000">MATH 200</text>
</g>
<!-- MATH 122&#45;&gt;MATH 200 -->
<g id="edge26" class="edge">
<title>MATH 122&#45;&gt;MATH 200</title>
<path fill="none" stroke="#000000" d="M911.9157,-1151.8314C907.8344,-1143.6688 902.935,-1133.87 898.4414,-1124.8827"/>
<polygon fill="#000000" stroke="#000000" points="901.5594,-1123.2924 893.9567,-1115.9134 895.2984,-1126.423 901.5594,-1123.2924"/>
</g>
<!-- ENGR 201 -->
<g id="node42" class="node">
<title>ENGR 201</title>
<ellipse fill="none" stroke="#ffa500" cx="1185" cy="-1026" rx="60.3893" ry="18"/>
<text text-anchor="middle" x="1185" y="-1022.3" font-family="Times,serif" font-size="14.00" fill="#000000">ENGR 201</text>
</g>
<!-- MATH 122&#45;&gt;ENGR 201 -->
<g id="edge32" class="edge">
<title>MATH 122&#45;&gt;ENGR 201</title>
<path fill="none" stroke="#000000" d="M967.7879,-1158.2459C1027.8234,-1143.0992 1124.6959,-1118.4127 1128,-1116 1149.5651,-1100.2533 1164.9355,-1073.6427 1174.2395,-1053.4302"/>
<polygon fill="#000000" stroke="#000000" points="1177.5208,-1054.662 1178.3201,-1044.0974 1171.107,-1051.8577 1177.5208,-1054.662"/>
</g>
<!-- MATH 122&#45;&gt;ENGR 220 -->
<g id="edge37" class="edge">
<title>MATH 122&#45;&gt;ENGR 220</title>
<path fill="none" stroke="#000000" d="M882.0317,-1155.9093C858.7947,-1146.5122 829.3671,-1132.808 806,-1116 780.5168,-1097.6699 756.2657,-1071.1671 740.0521,-1051.6665"/>
<polygon fill="#000000" stroke="#000000" points="742.6507,-1049.3151 733.6154,-1043.7821 737.2282,-1053.7419 742.6507,-1049.3151"/>
</g>
<!-- MATH 122&#45;&gt;ENGR 231 -->
<g id="edge40" class="edge">
<title>MATH 122&#45;&gt;ENGR 231</title>
<path fill="none" stroke="#000000" d="M873.2949,-1158.3761C851.2138,-1150.3491 827.0331,-1137.1763 814,-1116 800.9407,-1094.7812 816.4005,-1069.2702 832.6553,-1050.8359"/>
<polygon fill="#000000" stroke="#000000" points="835.3279,-1053.1019 839.5894,-1043.4019 830.209,-1048.3272 835.3279,-1053.1019"/>
</g>
<!-- PHYS 101 -->
<g id="node35" class="node">
<title>PHYS 101</title>
<ellipse fill="none" stroke="#00ff00" cx="1061" cy="-1170" rx="58.4896" ry="18"/>
<text text-anchor="middle" x="1061" y="-1166.3" font-family="Times,serif" font-size="14.00" fill="#000000">PHYS 101</text>
</g>
<!-- PHYS 102 -->
<g id="node40" class="node">
<title>PHYS 102</title>
<ellipse fill="none" stroke="#00ff00" cx="1061" cy="-1098" rx="58.4896" ry="18"/>
<text text-anchor="middle" x="1061" y="-1094.3" font-family="Times,serif" font-size="14.00" fill="#000000">PHYS 102</text>
</g>
<!-- PHYS 101&#45;&gt;PHYS 102 -->
<g id="edge22" class="edge">
<title>PHYS 101&#45;&gt;PHYS 102</title>
<path fill="none" stroke="#000000" d="M1061,-1151.8314C1061,-1144.131 1061,-1134.9743 1061,-1126.4166"/>
<polygon fill="#000000" stroke="#000000" points="1064.5001,-1126.4132 1061,-1116.4133 1057.5001,-1126.4133 1064.5001,-1126.4132"/>
</g>
<!-- PHYS 101&#45;&gt;ENGR 201 -->
<g id="edge33" class="edge">
<title>PHYS 101&#45;&gt;ENGR 201</title>
<path fill="none" stroke="#000000" d="M1101.5035,-1156.9491C1122.1001,-1148.3678 1145.9039,-1135.1279 1161,-1116 1174.9473,-1098.3277 1180.8228,-1073.2597 1183.2808,-1054.0663"/>
<polygon fill="#000000" stroke="#000000" points="1186.7647,-1054.402 1184.3244,-1044.092 1179.8027,-1053.6735 1186.7647,-1054.402"/>
</g>
<!-- PHYS 101&#45;&gt;ENGR 220 -->
<g id="edge38" class="edge">
<title>PHYS 101&#45;&gt;ENGR 220</title>
<path fill="none" stroke="#000000" d="M1039.2165,-1153.1621C1025.9335,-1142.7192 1008.7345,-1128.8808 994,-1116 976.4847,-1100.6882 976.571,-1090.866 956,-1080 889.2476,-1044.7399 863.4594,-1061.4036 790,-1044 785.2876,-1042.8836 780.4052,-1041.6947 775.511,-1040.4805"/>
<polygon fill="#000000" stroke="#000000" points="776.0506,-1037.0075 765.4994,-1037.968 774.3467,-1043.7969 776.0506,-1037.0075"/>
</g>
<!-- ENGR 103&#45;&gt;ENGR 201 -->
<g id="edge34" class="edge">
<title>ENGR 103&#45;&gt;ENGR 201</title>
<path fill="none" stroke="#000000" d="M1252.1452,-1080.937C1240.638,-1071.522 1226.1781,-1059.6912 1213.627,-1049.4221"/>
<polygon fill="#000000" stroke="#000000" points="1215.661,-1046.5641 1205.7051,-1042.9405 1211.2283,-1051.9818 1215.661,-1046.5641"/>
</g>
<!-- ECE 200 -->
<g id="node46" class="node">
<title>ECE 200</title>
<ellipse fill="none" stroke="#ffa500" cx="1446" cy="-1026" rx="51.9908" ry="18"/>
<text text-anchor="middle" x="1446" y="-1022.3" font-family="Times,serif" font-size="14.00" fill="#000000">ECE 200</text>
</g>
<!-- ENGR 103&#45;&gt;ECE 200 -->
<g id="edge30" class="edge">
<title>ENGR 103&#45;&gt;ECE 200</title>
<path fill="none" stroke="#000000" d="M1308.4266,-1083.256C1335.8703,-1071.8343 1373.9999,-1055.9653 1403.1587,-1043.8299"/>
<polygon fill="#000000" stroke="#000000" points="1404.7876,-1046.9431 1412.6751,-1039.8693 1402.0979,-1040.4804 1404.7876,-1046.9431"/>
</g>
<!-- ECEL 301 -->
<g id="node56" class="node">
<title>ECEL 301</title>
<ellipse fill="none" stroke="#000000" cx="1273" cy="-738" rx="58.4896" ry="18"/>
<text text-anchor="middle" x="1273" y="-734.3" font-family="Times,serif" font-size="14.00" fill="#000000">ECEL 301</text>
</g>
<!-- ENGR 103&#45;&gt;ECEL 301 -->
<g id="edge64" class="edge">
<title>ENGR 103&#45;&gt;ECEL 301</title>
<path fill="none" stroke="#000000" d="M1273,-1079.8146C1273,-1052.4983 1273,-999.25 1273,-954 1273,-954 1273,-954 1273,-882 1273,-841.876 1273,-795.4631 1273,-766.4177"/>
<polygon fill="#000000" stroke="#000000" points="1276.5001,-766.1853 1273,-756.1854 1269.5001,-766.1854 1276.5001,-766.1853"/>
</g>
<!-- BIO 141 -->
<g id="node38" class="node">
<title>BIO 141</title>
<ellipse fill="none" stroke="#00ff00" cx="1401" cy="-1098" rx="50.0912" ry="18"/>
<text text-anchor="middle" x="1401" y="-1094.3" font-family="Times,serif" font-size="14.00" fill="#000000">BIO 141</text>
</g>
<!-- COOP 101 -->
<g id="node39" class="node">
<title>COOP 101</title>
<ellipse fill="none" stroke="#00ff00" cx="1529" cy="-1098" rx="60.3893" ry="18"/>
<text text-anchor="middle" x="1529" y="-1094.3" font-family="Times,serif" font-size="14.00" fill="#000000">COOP 101</text>
</g>
<!-- ECE 201 -->
<g id="node48" class="node">
<title>ECE 201</title>
<ellipse fill="none" stroke="#000000" cx="1055" cy="-954" rx="51.9908" ry="18"/>
<text text-anchor="middle" x="1055" y="-950.3" font-family="Times,serif" font-size="14.00" fill="#000000">ECE 201</text>
</g>
<!-- PHYS 102&#45;&gt;ECE 201 -->
<g id="edge24" class="edge">
<title>PHYS 102&#45;&gt;ECE 201</title>
<path fill="none" stroke="#000000" d="M1060.2401,-1079.7623C1059.2167,-1055.201 1057.3853,-1011.2474 1056.1814,-982.3541"/>
<polygon fill="#000000" stroke="#000000" points="1059.6671,-981.9352 1055.7537,-972.0896 1052.6732,-982.2267 1059.6671,-981.9352"/>
</g>
<!-- PHYS 201 -->
<g id="node59" class="node">
<title>PHYS 201</title>
<ellipse fill="none" stroke="#000000" cx="969" cy="-738" rx="58.4896" ry="18"/>
<text text-anchor="middle" x="969" y="-734.3" font-family="Times,serif" font-size="14.00" fill="#000000">PHYS 201</text>
</g>
<!-- PHYS 102&#45;&gt;PHYS 201 -->
<g id="edge23" class="edge">
<title>PHYS 102&#45;&gt;PHYS 201</title>
<path fill="none" stroke="#000000" d="M1048.6717,-1080.1847C1033.0497,-1056.6119 1006.6398,-1013.2144 994,-972 971.9772,-900.1904 968.6921,-810.8414 968.5899,-766.1773"/>
<polygon fill="#000000" stroke="#000000" points="972.0901,-766.0863 968.6208,-756.0756 965.0901,-766.0648 972.0901,-766.0863"/>
</g>
<!-- MATH 200&#45;&gt;ENGR 231 -->
<g id="edge27" class="edge">
<title>MATH 200&#45;&gt;ENGR 231</title>
<path fill="none" stroke="#000000" d="M878.4391,-1079.8314C875.5536,-1071.8406 872.1018,-1062.2819 868.913,-1053.4514"/>
<polygon fill="#000000" stroke="#000000" points="872.1572,-1052.1302 865.4687,-1043.9134 865.5733,-1054.5077 872.1572,-1052.1302"/>
</g>
<!-- ENGR 202 -->
<g id="node50" class="node">
<title>ENGR 202</title>
<ellipse fill="none" stroke="#000000" cx="1185" cy="-954" rx="60.3893" ry="18"/>
<text text-anchor="middle" x="1185" y="-950.3" font-family="Times,serif" font-size="14.00" fill="#000000">ENGR 202</text>
</g>
<!-- ENGR 201&#45;&gt;ENGR 202 -->
<g id="edge35" class="edge">
<title>ENGR 201&#45;&gt;ENGR 202</title>
<path fill="none" stroke="#000000" d="M1185,-1007.8314C1185,-1000.131 1185,-990.9743 1185,-982.4166"/>
<polygon fill="#000000" stroke="#000000" points="1188.5001,-982.4132 1185,-972.4133 1181.5001,-982.4133 1188.5001,-982.4132"/>
</g>
<!-- ENGR 231&#45;&gt;ENGR 232 -->
<g id="edge42" class="edge">
<title>ENGR 231&#45;&gt;ENGR 232</title>
<path fill="none" stroke="#000000" d="M856.4766,-1007.8314C855.4071,-1000.131 854.1353,-990.9743 852.9468,-982.4166"/>
<polygon fill="#000000" stroke="#000000" points="856.3999,-981.8367 851.5574,-972.4133 849.4664,-982.7997 856.3999,-981.8367"/>
</g>
<!-- ECE 361 -->
<g id="node57" class="node">
<title>ECE 361</title>
<ellipse fill="none" stroke="#000000" cx="1140" cy="-738" rx="51.9908" ry="18"/>
<text text-anchor="middle" x="1140" y="-734.3" font-family="Times,serif" font-size="14.00" fill="#000000">ECE 361</text>
</g>
<!-- ENGR 231&#45;&gt;ECE 361 -->
<g id="edge47" class="edge">
<title>ENGR 231&#45;&gt;ECE 361</title>
<path fill="none" stroke="#000000" d="M878.4496,-1008.8257C890.1087,-998.3769 905.122,-984.6494 918,-972 993.2184,-898.1168 1077.8791,-806.3363 1117.4057,-762.9494"/>
<polygon fill="#000000" stroke="#000000" points="1120.1088,-765.1792 1124.2485,-755.4266 1114.9305,-760.469 1120.1088,-765.1792"/>
</g>
<!-- ECE 203 -->
<g id="node45" class="node">
<title>ECE 203</title>
<ellipse fill="none" stroke="#ffa500" cx="1837" cy="-1026" rx="51.9908" ry="18"/>
<text text-anchor="middle" x="1837" y="-1022.3" font-family="Times,serif" font-size="14.00" fill="#000000">ECE 203</text>
</g>
<!-- ECEC 301 -->
<g id="node49" class="node">
<title>ECEC 301</title>
<ellipse fill="none" stroke="#000000" cx="1969" cy="-954" rx="59.5901" ry="18"/>
<text text-anchor="middle" x="1969" y="-950.3" font-family="Times,serif" font-size="14.00" fill="#000000">ECEC 301</text>
</g>
<!-- ECE 203&#45;&gt;ECEC 301 -->
<g id="edge43" class="edge">
<title>ECE 203&#45;&gt;ECEC 301</title>
<path fill="none" stroke="#000000" d="M1864.9938,-1010.7307C1884.1115,-1000.3028 1909.683,-986.3547 1930.6859,-974.8986"/>
<polygon fill="#000000" stroke="#000000" points="1932.5712,-977.8571 1939.6742,-969.9959 1929.2192,-971.7118 1932.5712,-977.8571"/>
</g>
<!-- ECEC 357 -->
<g id="node53" class="node">
<title>ECEC 357</title>
<ellipse fill="none" stroke="#000000" cx="1793" cy="-954" rx="59.5901" ry="18"/>
<text text-anchor="middle" x="1793" y="-950.3" font-family="Times,serif" font-size="14.00" fill="#000000">ECEC 357</text>
</g>
<!-- ECE 203&#45;&gt;ECEC 357 -->
<g id="edge63" class="edge">
<title>ECE 203&#45;&gt;ECEC 357</title>
<path fill="none" stroke="#000000" d="M1826.1236,-1008.2022C1821.0466,-999.8944 1814.8971,-989.8316 1809.2817,-980.6427"/>
<polygon fill="#000000" stroke="#000000" points="1812.1048,-978.5503 1803.9038,-971.8425 1806.1318,-982.2005 1812.1048,-978.5503"/>
</g>
<!-- ECEC 302 -->
<g id="node55" class="node">
<title>ECEC 302</title>
<ellipse fill="none" stroke="#000000" cx="1579" cy="-738" rx="59.5901" ry="18"/>
<text text-anchor="middle" x="1579" y="-734.3" font-family="Times,serif" font-size="14.00" fill="#000000">ECEC 302</text>
</g>
<!-- ECE 203&#45;&gt;ECEC 302 -->
<g id="edge53" class="edge">
<title>ECE 203&#45;&gt;ECEC 302</title>
<path fill="none" stroke="#000000" d="M1798.4548,-1013.8508C1774.9675,-1005.0217 1745.4504,-991.2319 1724,-972 1656.727,-911.6847 1609.7368,-812.8385 1589.7605,-765.2643"/>
<polygon fill="#000000" stroke="#000000" points="1592.9569,-763.8347 1585.9102,-755.9231 1586.4851,-766.5023 1592.9569,-763.8347"/>
</g>
<!-- ECEC 304 -->
<g id="node60" class="node">
<title>ECEC 304</title>
<ellipse fill="none" stroke="#000000" cx="1759" cy="-666" rx="59.5901" ry="18"/>
<text text-anchor="middle" x="1759" y="-662.3" font-family="Times,serif" font-size="14.00" fill="#000000">ECEC 304</text>
</g>
<!-- ECE 203&#45;&gt;ECEC 304 -->
<g id="edge55" class="edge">
<title>ECE 203&#45;&gt;ECEC 304</title>
<path fill="none" stroke="#000000" d="M1846.6174,-1007.9237C1851.7748,-997.6273 1857.8952,-984.3528 1862,-972 1874.8918,-933.2042 1881,-922.8816 1881,-882 1881,-882 1881,-882 1881,-810 1881,-756.3084 1831.0146,-712.3527 1795.0342,-687.6674"/>
<polygon fill="#000000" stroke="#000000" points="1796.9471,-684.7363 1786.6837,-682.1069 1793.0673,-690.5627 1796.9471,-684.7363"/>
</g>
<!-- MATH 221 -->
<g id="node52" class="node">
<title>MATH 221</title>
<ellipse fill="none" stroke="#000000" cx="1401" cy="-954" rx="61.99" ry="18"/>
<text text-anchor="middle" x="1401" y="-950.3" font-family="Times,serif" font-size="14.00" fill="#000000">MATH 221</text>
</g>
<!-- ECE 200&#45;&gt;MATH 221 -->
<g id="edge31" class="edge">
<title>ECE 200&#45;&gt;MATH 221</title>
<path fill="none" stroke="#000000" d="M1434.8764,-1008.2022C1429.6299,-999.8079 1423.2636,-989.6218 1417.4724,-980.3558"/>
<polygon fill="#000000" stroke="#000000" points="1420.4196,-978.4675 1412.1516,-971.8425 1414.4836,-982.1776 1420.4196,-978.4675"/>
</g>
<!-- ECE 200&#45;&gt;ECEC 302 -->
<g id="edge54" class="edge">
<title>ECE 200&#45;&gt;ECEC 302</title>
<path fill="none" stroke="#000000" d="M1468.9107,-1009.7775C1481.1491,-1000.061 1495.5888,-986.7491 1505,-972 1547.5423,-905.328 1567.2962,-812.3187 1574.9423,-766.2169"/>
<polygon fill="#000000" stroke="#000000" points="1578.4417,-766.4965 1576.5534,-756.0713 1571.5283,-765.3986 1578.4417,-766.4965"/>
</g>
<!-- ECE 200&#45;&gt;ECEL 301 -->
<g id="edge65" class="edge">
<title>ECE 200&#45;&gt;ECEL 301</title>
<path fill="none" stroke="#000000" d="M1402.6341,-1015.8882C1377.8941,-1007.9432 1348.2661,-994.3675 1330,-972 1277.9745,-908.293 1306.8774,-871.813 1287,-792 1284.8701,-783.4479 1282.4854,-774.1525 1280.2962,-765.7228"/>
<polygon fill="#000000" stroke="#000000" points="1283.6649,-764.7701 1277.7531,-755.978 1276.8917,-766.5378 1283.6649,-764.7701"/>
</g>
<!-- ECE 200&#45;&gt;ECEC 304 -->
<g id="edge56" class="edge">
<title>ECE 200&#45;&gt;ECEC 304</title>
<path fill="none" stroke="#000000" d="M1492.0598,-1017.4439C1556.8286,-1002.4474 1667,-964.773 1667,-882 1667,-882 1667,-882 1667,-810 1667,-761.7314 1704.1621,-716.6512 1731.2488,-690.204"/>
<polygon fill="#000000" stroke="#000000" points="1733.7332,-692.6715 1738.5822,-683.2514 1728.9171,-687.5916 1733.7332,-692.6715"/>
</g>
<!-- ECEC 355 -->
<g id="node61" class="node">
<title>ECEC 355</title>
<ellipse fill="none" stroke="#000000" cx="1535" cy="-666" rx="59.5901" ry="18"/>
<text text-anchor="middle" x="1535" y="-662.3" font-family="Times,serif" font-size="14.00" fill="#000000">ECEC 355</text>
</g>
<!-- ECE 200&#45;&gt;ECEC 355 -->
<g id="edge58" class="edge">
<title>ECE 200&#45;&gt;ECEC 355</title>
<path fill="none" stroke="#000000" d="M1456.0335,-1007.9677C1461.4071,-997.6852 1467.7716,-984.4098 1472,-972 1485.1851,-933.303 1491,-922.8816 1491,-882 1491,-882 1491,-882 1491,-810 1491,-769.1184 1497.1082,-758.7958 1510,-720 1512.9824,-711.0249 1517.0288,-701.5633 1520.9968,-693.1109"/>
<polygon fill="#000000" stroke="#000000" points="1524.1641,-694.6009 1525.3826,-684.0763 1517.8668,-691.5439 1524.1641,-694.6009"/>
</g>
<!-- PHIL 111 -->
<g id="node47" class="node">
<title>PHIL 111</title>
<polygon fill="none" stroke="#ffa500" points="2126.5841,-1026 2094.292,-1044 2029.708,-1044 1997.4159,-1026 2029.708,-1008 2094.292,-1008 2126.5841,-1026"/>
<text text-anchor="middle" x="2062" y="-1022.3" font-family="Times,serif" font-size="14.00" fill="#000000">PHIL 111</text>
</g>
<!-- PHIL 207 -->
<g id="node54" class="node">
<title>PHIL 207</title>
<polygon fill="none" stroke="#000000" points="2126.5841,-882 2094.292,-900 2029.708,-900 1997.4159,-882 2029.708,-864 2094.292,-864 2126.5841,-882"/>
<text text-anchor="middle" x="2062" y="-878.3" font-family="Times,serif" font-size="14.00" fill="#000000">PHIL 207</text>
</g>
<!-- PHIL 111&#45;&gt;PHIL 207 -->
<g id="edge20" class="edge">
<title>PHIL 111&#45;&gt;PHIL 207</title>
<path fill="none" stroke="#000000" d="M2062,-1007.7623C2062,-983.201 2062,-939.2474 2062,-910.3541"/>
<polygon fill="#000000" stroke="#000000" points="2065.5001,-910.0896 2062,-900.0896 2058.5001,-910.0897 2065.5001,-910.0896"/>
</g>
<!-- ECE 201&#45;&gt;ECEL 301 -->
<g id="edge66" class="edge">
<title>ECE 201&#45;&gt;ECEL 301</title>
<path fill="none" stroke="#000000" d="M1072.4713,-936.6889C1111.0577,-898.4566 1203.6508,-806.713 1248.2134,-762.5592"/>
<polygon fill="#000000" stroke="#000000" points="1250.8053,-764.9182 1255.4454,-755.3935 1245.8784,-759.9457 1250.8053,-764.9182"/>
</g>
<!-- ECES 301 -->
<g id="node63" class="node">
<title>ECES 301</title>
<ellipse fill="none" stroke="#000000" cx="963" cy="-666" rx="58.4896" ry="18"/>
<text text-anchor="middle" x="963" y="-662.3" font-family="Times,serif" font-size="14.00" fill="#000000">ECES 301</text>
</g>
<!-- ECE 201&#45;&gt;ECES 301 -->
<g id="edge69" class="edge">
<title>ECE 201&#45;&gt;ECES 301</title>
<path fill="none" stroke="#000000" d="M1058.3078,-935.8449C1064.8741,-894.5057 1075.7132,-791.4228 1036,-720 1028.4685,-706.4549 1015.9555,-695.3493 1003.398,-686.8072"/>
<polygon fill="#000000" stroke="#000000" points="1005.0726,-683.7242 994.7578,-681.3045 1001.3123,-689.6285 1005.0726,-683.7242"/>
</g>
<!-- CS 265 -->
<g id="node58" class="node">
<title>CS 265</title>
<ellipse fill="none" stroke="#000000" cx="1969" cy="-738" rx="44.6926" ry="18"/>
<text text-anchor="middle" x="1969" y="-734.3" font-family="Times,serif" font-size="14.00" fill="#000000">CS 265</text>
</g>
<!-- ECEC 301&#45;&gt;CS 265 -->
<g id="edge44" class="edge">
<title>ECEC 301&#45;&gt;CS 265</title>
<path fill="none" stroke="#000000" d="M1969,-935.9555C1969,-898.3938 1969,-811.5541 1969,-766.4103"/>
<polygon fill="#000000" stroke="#000000" points="1972.5001,-766.145 1969,-756.1451 1965.5001,-766.1451 1972.5001,-766.145"/>
</g>
<!-- ENGR 202&#45;&gt;ECE 361 -->
<g id="edge48" class="edge">
<title>ENGR 202&#45;&gt;ECE 361</title>
<path fill="none" stroke="#000000" d="M1181.2407,-935.9555C1173.3988,-898.3144 1155.2472,-811.1867 1145.8593,-766.1246"/>
<polygon fill="#000000" stroke="#000000" points="1149.2463,-765.221 1143.7802,-756.1451 1142.3934,-766.6487 1149.2463,-765.221"/>
</g>
<!-- ENGR 232&#45;&gt;ECES 301 -->
<g id="edge70" class="edge">
<title>ENGR 232&#45;&gt;ECES 301</title>
<path fill="none" stroke="#000000" d="M849.3946,-935.9079C851.0437,-894.6993 859.4584,-791.8692 902,-720 909.0616,-708.0703 919.6579,-697.3597 930.0471,-688.6836"/>
<polygon fill="#000000" stroke="#000000" points="932.2327,-691.4173 937.8894,-682.4589 927.8808,-685.9345 932.2327,-691.4173"/>
</g>
<!-- ECEC 302&#45;&gt;ECEC 355 -->
<g id="edge59" class="edge">
<title>ECEC 302&#45;&gt;ECEC 355</title>
<path fill="none" stroke="#000000" d="M1568.1236,-720.2022C1563.0466,-711.8944 1556.8971,-701.8316 1551.2817,-692.6427"/>
<polygon fill="#000000" stroke="#000000" points="1554.1048,-690.5503 1545.9038,-683.8425 1548.1318,-694.2005 1554.1048,-690.5503"/>
</g>
<!-- ECEL 302 -->
<g id="node62" class="node">
<title>ECEL 302</title>
<ellipse fill="none" stroke="#000000" cx="1273" cy="-666" rx="58.4896" ry="18"/>
<text text-anchor="middle" x="1273" y="-662.3" font-family="Times,serif" font-size="14.00" fill="#000000">ECEL 302</text>
</g>
<!-- ECEL 301&#45;&gt;ECEL 302 -->
<g id="edge67" class="edge">
<title>ECEL 301&#45;&gt;ECEL 302</title>
<path fill="none" stroke="#000000" d="M1273,-719.8314C1273,-712.131 1273,-702.9743 1273,-694.4166"/>
<polygon fill="#000000" stroke="#000000" points="1276.5001,-694.4132 1273,-684.4133 1269.5001,-694.4133 1276.5001,-694.4132"/>
</g>
<!-- ECE 491 -->
<g id="node72" class="node">
<title>ECE 491</title>
<ellipse fill="none" stroke="#000000" cx="1180" cy="-162" rx="51.9908" ry="18"/>
<text text-anchor="middle" x="1180" y="-158.3" font-family="Times,serif" font-size="14.00" fill="#000000">ECE 491</text>
</g>
<!-- ECE 361&#45;&gt;ECE 491 -->
<g id="edge49" class="edge">
<title>ECE 361&#45;&gt;ECE 491</title>
<path fill="none" stroke="#000000" d="M1140,-719.8146C1140,-692.4983 1140,-639.25 1140,-594 1140,-594 1140,-594 1140,-306 1140,-264.2219 1155.824,-218.0316 1167.5664,-189.5067"/>
<polygon fill="#000000" stroke="#000000" points="1170.8354,-190.7629 1171.517,-180.19 1164.3908,-188.0301 1170.8354,-190.7629"/>
</g>
<!-- CS 260 -->
<g id="node64" class="node">
<title>CS 260</title>
<ellipse fill="none" stroke="#000000" cx="1907" cy="-666" rx="44.6926" ry="18"/>
<text text-anchor="middle" x="1907" y="-662.3" font-family="Times,serif" font-size="14.00" fill="#000000">CS 260</text>
</g>
<!-- CS 265&#45;&gt;CS 260 -->
<g id="edge45" class="edge">
<title>CS 265&#45;&gt;CS 260</title>
<path fill="none" stroke="#000000" d="M1954.3069,-720.937C1946.6213,-712.0119 1937.0665,-700.9159 1928.5599,-691.0373"/>
<polygon fill="#000000" stroke="#000000" points="1931.1958,-688.7345 1922.0184,-683.4407 1925.8914,-693.3022 1931.1958,-688.7345"/>
</g>
<!-- ECEC 353 -->
<g id="node65" class="node">
<title>ECEC 353</title>
<ellipse fill="none" stroke="#000000" cx="2030" cy="-666" rx="59.5901" ry="18"/>
<text text-anchor="middle" x="2030" y="-662.3" font-family="Times,serif" font-size="14.00" fill="#000000">ECEC 353</text>
</g>
<!-- CS 265&#45;&gt;ECEC 353 -->
<g id="edge57" class="edge">
<title>CS 265&#45;&gt;ECEC 353</title>
<path fill="none" stroke="#000000" d="M1983.4561,-720.937C1990.8878,-712.1652 2000.096,-701.2965 2008.3555,-691.5476"/>
<polygon fill="#000000" stroke="#000000" points="2011.2168,-693.5848 2015.0106,-683.6924 2005.8759,-689.0598 2011.2168,-693.5848"/>
</g>
<!-- ECEC 413 -->
<g id="node68" class="node">
<title>ECEC 413</title>
<polygon fill="none" stroke="#000000" points="1581,-468 1489,-468 1489,-432 1581,-432 1581,-468"/>
<text text-anchor="middle" x="1535" y="-446.3" font-family="Times,serif" font-size="14.00" fill="#000000">ECEC 413</text>
</g>
<!-- ECEC 355&#45;&gt;ECEC 413 -->
<g id="edge60" class="edge">
<title>ECEC 355&#45;&gt;ECEC 413</title>
<path fill="none" stroke="#000000" d="M1535,-647.9555C1535,-610.3938 1535,-523.5541 1535,-478.4103"/>
<polygon fill="#000000" stroke="#000000" points="1538.5001,-478.145 1535,-468.1451 1531.5001,-478.1451 1538.5001,-478.145"/>
</g>
<!-- ECEC 457 -->
<g id="node71" class="node">
<title>ECEC 457</title>
<polygon fill="none" stroke="#000000" points="1655,-396 1563,-396 1563,-360 1655,-360 1655,-396"/>
<text text-anchor="middle" x="1609" y="-374.3" font-family="Times,serif" font-size="14.00" fill="#000000">ECEC 457</text>
</g>
<!-- ECEC 355&#45;&gt;ECEC 457 -->
<g id="edge61" class="edge">
<title>ECEC 355&#45;&gt;ECEC 457</title>
<path fill="none" stroke="#000000" d="M1540.4661,-647.8112C1550.819,-613.0538 1573.7085,-534.7171 1590,-468 1595.0431,-447.3476 1599.9792,-423.8366 1603.5557,-406.025"/>
<polygon fill="#000000" stroke="#000000" points="1607.0307,-406.4951 1605.5453,-396.0049 1600.1647,-405.1317 1607.0307,-406.4951"/>
</g>
<!-- ECEC 432 -->
<g id="node73" class="node">
<title>ECEC 432</title>
<polygon fill="none" stroke="#000000" points="1507,-180 1415,-180 1415,-144 1507,-144 1507,-180"/>
<text text-anchor="middle" x="1461" y="-158.3" font-family="Times,serif" font-size="14.00" fill="#000000">ECEC 432</text>
</g>
<!-- ECEC 355&#45;&gt;ECEC 432 -->
<g id="edge62" class="edge">
<title>ECEC 355&#45;&gt;ECEC 432</title>
<path fill="none" stroke="#000000" d="M1518.9431,-648.4095C1497.1791,-622.669 1461,-572.313 1461,-522 1461,-522 1461,-522 1461,-306 1461,-265.876 1461,-219.4631 1461,-190.4177"/>
<polygon fill="#000000" stroke="#000000" points="1464.5001,-190.1853 1461,-180.1854 1457.5001,-190.1854 1464.5001,-190.1853"/>
</g>
<!-- ECEL 303 -->
<g id="node66" class="node">
<title>ECEL 303</title>
<ellipse fill="none" stroke="#000000" cx="1273" cy="-450" rx="58.4896" ry="18"/>
<text text-anchor="middle" x="1273" y="-446.3" font-family="Times,serif" font-size="14.00" fill="#000000">ECEL 303</text>
</g>
<!-- ECEL 302&#45;&gt;ECEL 303 -->
<g id="edge68" class="edge">
<title>ECEL 302&#45;&gt;ECEL 303</title>
<path fill="none" stroke="#000000" d="M1273,-647.9555C1273,-610.3938 1273,-523.5541 1273,-478.4103"/>
<polygon fill="#000000" stroke="#000000" points="1276.5001,-478.145 1273,-468.1451 1269.5001,-478.1451 1276.5001,-478.145"/>
</g>
<!-- CS 361 -->
<g id="node70" class="node">
<title>CS 361</title>
<polygon fill="none" stroke="#000000" points="1941.5,-396 1872.5,-396 1872.5,-360 1941.5,-360 1941.5,-396"/>
<text text-anchor="middle" x="1907" y="-374.3" font-family="Times,serif" font-size="14.00" fill="#000000">CS 361</text>
</g>
<!-- CS 260&#45;&gt;CS 361 -->
<g id="edge46" class="edge">
<title>CS 260&#45;&gt;CS 361</title>
<path fill="none" stroke="#000000" d="M1907,-647.9843C1907,-599.2939 1907,-464.7961 1907,-406.0573"/>
<polygon fill="#000000" stroke="#000000" points="1910.5001,-406.0088 1907,-396.0089 1903.5001,-406.0089 1910.5001,-406.0088"/>
</g>
<!-- PHIL 315 -->
<g id="node67" class="node">
<title>PHIL 315</title>
<ellipse fill="none" stroke="#000000" cx="1991" cy="-450" rx="55.7903" ry="18"/>
<text text-anchor="middle" x="1991" y="-446.3" font-family="Times,serif" font-size="14.00" fill="#000000">PHIL 315</text>
</g>
<!-- ECE 391 -->
<g id="node69" class="node">
<title>ECE 391</title>
<ellipse fill="none" stroke="#000000" cx="1220" cy="-378" rx="51.9908" ry="18"/>
<text text-anchor="middle" x="1220" y="-374.3" font-family="Times,serif" font-size="14.00" fill="#000000">ECE 391</text>
</g>
<!-- ECE 391&#45;&gt;ECE 491 -->
<g id="edge50" class="edge">
<title>ECE 391&#45;&gt;ECE 491</title>
<path fill="none" stroke="#000000" d="M1216.6584,-359.9555C1209.6878,-322.3144 1193.5531,-235.1867 1185.2083,-190.1246"/>
<polygon fill="#000000" stroke="#000000" points="1188.6227,-189.3405 1183.3602,-180.1451 1181.7397,-190.6152 1188.6227,-189.3405"/>
</g>
<!-- ECE 492 -->
<g id="node74" class="node">
<title>ECE 492</title>
<ellipse fill="none" stroke="#000000" cx="1180" cy="-90" rx="51.9908" ry="18"/>
<text text-anchor="middle" x="1180" y="-86.3" font-family="Times,serif" font-size="14.00" fill="#000000">ECE 492</text>
</g>
<!-- ECE 491&#45;&gt;ECE 492 -->
<g id="edge51" class="edge">
<title>ECE 491&#45;&gt;ECE 492</title>
<path fill="none" stroke="#000000" d="M1180,-143.8314C1180,-136.131 1180,-126.9743 1180,-118.4166"/>
<polygon fill="#000000" stroke="#000000" points="1183.5001,-118.4132 1180,-108.4133 1176.5001,-118.4133 1183.5001,-118.4132"/>
</g>
<!-- ECE 493 -->
<g id="node75" class="node">
<title>ECE 493</title>
<ellipse fill="none" stroke="#000000" cx="1180" cy="-18" rx="51.9908" ry="18"/>
<text text-anchor="middle" x="1180" y="-14.3" font-family="Times,serif" font-size="14.00" fill="#000000">ECE 493</text>
</g>
<!-- ECE 492&#45;&gt;ECE 493 -->
<g id="edge52" class="edge">
<title>ECE 492&#45;&gt;ECE 493</title>
<path fill="none" stroke="#000000" d="M1180,-71.8314C1180,-64.131 1180,-54.9743 1180,-46.4166"/>
<polygon fill="#000000" stroke="#000000" points="1183.5001,-46.4132 1180,-36.4133 1176.5001,-46.4133 1183.5001,-46.4132"/>
</g>
</g>
</svg>
