<?xml version="1.0" encoding="UTF-8" standalone="no"?>
<!DOCTYPE svg PUBLIC "-//W3C//DTD SVG 1.1//EN"
 "http://www.w3.org/Graphics/SVG/1.1/DTD/svg11.dtd">
<!-- Generated by graphviz version 2.43.20190912.0211 (20190912.0211)
 -->
<!-- Title: Classes Pages: 1 -->
<svg width="3547pt" height="1110pt"
 viewBox="0.00 0.00 3547.39 1109.57" xmlns="http://www.w3.org/2000/svg" xmlns:xlink="http://www.w3.org/1999/xlink">
<g id="graph0" class="graph" transform="scale(1 1) rotate(0) translate(4 1105.57)">
<title>Classes</title>
<polygon fill="white" stroke="transparent" points="-4,4 -4,-1105.57 3543.39,-1105.57 3543.39,4 -4,4"/>
<!-- 0.0 -->
<g id="node1" class="node">
<title>0.0</title>
<text text-anchor="middle" x="43" y="-1075.24" font-family="Times,serif" font-size="14.00">0.0 (11.0)</text>
</g>
<!-- 1.1 -->
<g id="node5" class="node">
<title>1.1</title>
<text text-anchor="middle" x="43" y="-993.99" font-family="Times,serif" font-size="14.00">1.1 (16.5)</text>
</g>
<!-- 0.0&#45;&gt;1.1 -->
<!-- CS 190 -->
<g id="node2" class="node">
<title>CS 190</title>
<ellipse fill="none" stroke="darkgreen" cx="224" cy="-1078.94" rx="119.5" ry="22.76"/>
<text text-anchor="start" x="179" y="-1080.74" font-family="Times,serif" font-size="14.00">CS 190 (3.0)</text>
<text text-anchor="start" x="147.5" y="-1069.94" font-family="Times,serif" font-size="10.00">Selected Computer Language</text>
</g>
<!-- SPAN 101 -->
<g id="node3" class="node">
<title>SPAN 101</title>
<ellipse fill="none" stroke="darkgreen" cx="451" cy="-1078.94" rx="89.19" ry="22.76"/>
<text text-anchor="start" x="396" y="-1080.74" font-family="Times,serif" font-size="14.00">SPAN 101 (4.0)</text>
<text text-anchor="start" x="426.5" y="-1069.94" font-family="Times,serif" font-size="10.00">Spanish I</text>
</g>
<!-- TGFE 099 -->
<g id="node4" class="node">
<title>TGFE 099</title>
<ellipse fill="none" stroke="darkgreen" cx="680" cy="-1078.94" rx="122.16" ry="22.76"/>
<text text-anchor="start" x="625" y="-1080.74" font-family="Times,serif" font-size="14.00">TGFE 099 (4.0)</text>
<text text-anchor="start" x="601.5" y="-1069.94" font-family="Times,serif" font-size="10.00">Transfer General Free Elective</text>
</g>
<!-- 1.2 -->
<g id="node13" class="node">
<title>1.2</title>
<text text-anchor="middle" x="43" y="-912.73" font-family="Times,serif" font-size="14.00">1.2 (19.5)</text>
</g>
<!-- 1.1&#45;&gt;1.2 -->
<!-- CHEM 101 -->
<g id="node6" class="node">
<title>CHEM 101</title>
<ellipse fill="none" stroke="darkgreen" cx="306" cy="-997.69" rx="94.09" ry="22.76"/>
<text text-anchor="start" x="247.5" y="-999.49" font-family="Times,serif" font-size="14.00">CHEM 101 (3.5)</text>
<text text-anchor="start" x="254.5" y="-988.69" font-family="Times,serif" font-size="10.00">General Chemistry I</text>
</g>
<!-- CHEM 102 -->
<g id="node14" class="node">
<title>CHEM 102</title>
<ellipse fill="none" stroke="darkgreen" cx="306" cy="-916.43" rx="94.09" ry="22.76"/>
<text text-anchor="start" x="247.5" y="-918.23" font-family="Times,serif" font-size="14.00">CHEM 102 (4.5)</text>
<text text-anchor="start" x="252.5" y="-907.43" font-family="Times,serif" font-size="10.00">General Chemistry II</text>
</g>
<!-- CHEM 101&#45;&gt;CHEM 102 -->
<g id="edge3" class="edge">
<title>CHEM 101&#45;&gt;CHEM 102</title>
<path fill="none" stroke="black" d="M306,-975.03C306,-967.08 306,-957.9 306,-949.25"/>
<polygon fill="black" stroke="black" points="309.5,-949.06 306,-939.06 302.5,-949.06 309.5,-949.06"/>
</g>
<!-- BIO 141 -->
<g id="node22" class="node">
<title>BIO 141</title>
<ellipse fill="none" stroke="darkgreen" cx="184" cy="-835.18" rx="79.81" ry="22.76"/>
<text text-anchor="start" x="135.5" y="-836.98" font-family="Times,serif" font-size="14.00">BIO 141 (4.5)</text>
<text text-anchor="start" x="140" y="-826.18" font-family="Times,serif" font-size="10.00">Essential Biology</text>
</g>
<!-- CHEM 101&#45;&gt;BIO 141 -->
<g id="edge8" class="edge">
<title>CHEM 101&#45;&gt;BIO 141</title>
<path fill="none" stroke="black" d="M254.38,-978.7C235.48,-969.63 215.65,-956.71 203,-939.06 188.27,-918.5 183.94,-889.88 183.06,-868.04"/>
<polygon fill="black" stroke="black" points="186.56,-867.86 182.87,-857.93 179.56,-867.99 186.56,-867.86"/>
</g>
<!-- ENGR 220 -->
<g id="node32" class="node">
<title>ENGR 220</title>
<ellipse fill="none" stroke="darkgreen" cx="625" cy="-753.92" rx="108.79" ry="22.76"/>
<text text-anchor="start" x="568" y="-755.72" font-family="Times,serif" font-size="14.00">ENGR 220 (4.0)</text>
<text text-anchor="start" x="556" y="-744.92" font-family="Times,serif" font-size="10.00">Fundamentals of Materials</text>
</g>
<!-- CHEM 101&#45;&gt;ENGR 220 -->
<g id="edge14" class="edge">
<title>CHEM 101&#45;&gt;ENGR 220</title>
<path fill="none" stroke="black" d="M348.29,-977.43C367.82,-967.46 390.69,-954.21 409,-939.06 429.24,-922.32 428.98,-912.91 447,-893.8 483.08,-855.55 491.4,-844.72 533,-812.55 547.58,-801.27 564.45,-790.2 579.73,-780.82"/>
<polygon fill="black" stroke="black" points="581.77,-783.68 588.51,-775.51 578.14,-777.69 581.77,-783.68"/>
</g>
<!-- ENGL 101 -->
<g id="node7" class="node">
<title>ENGL 101</title>
<ellipse fill="none" stroke="darkgreen" cx="1672" cy="-997.69" rx="109.7" ry="22.76"/>
<text text-anchor="start" x="1616" y="-999.49" font-family="Times,serif" font-size="14.00">ENGL 101 (3.0)</text>
<text text-anchor="start" x="1602.5" y="-988.69" font-family="Times,serif" font-size="10.00">Composition and Rhetoric I</text>
</g>
<!-- ENGL 102 -->
<g id="node16" class="node">
<title>ENGL 102</title>
<ellipse fill="none" stroke="darkgreen" cx="1672" cy="-916.43" rx="112.36" ry="22.76"/>
<text text-anchor="start" x="1616" y="-918.23" font-family="Times,serif" font-size="14.00">ENGL 102 (3.0)</text>
<text text-anchor="start" x="1600.5" y="-907.43" font-family="Times,serif" font-size="10.00">Composition and Rhetoric II</text>
</g>
<!-- ENGL 101&#45;&gt;ENGL 102 -->
<g id="edge4" class="edge">
<title>ENGL 101&#45;&gt;ENGL 102</title>
<path fill="none" stroke="black" d="M1672,-975.03C1672,-967.08 1672,-957.9 1672,-949.25"/>
<polygon fill="black" stroke="black" points="1675.5,-949.06 1672,-939.06 1668.5,-949.06 1675.5,-949.06"/>
</g>
<!-- ENGR 100 -->
<g id="node8" class="node">
<title>ENGR 100</title>
<ellipse fill="none" stroke="darkgreen" cx="1907" cy="-997.69" rx="107.46" ry="22.76"/>
<text text-anchor="start" x="1850" y="-999.49" font-family="Times,serif" font-size="14.00">ENGR 100 (1.0)</text>
<text text-anchor="start" x="1839" y="-988.69" font-family="Times,serif" font-size="10.00">Beginning CAD for Design</text>
</g>
<!-- ENGR 101 -->
<g id="node9" class="node">
<title>ENGR 101</title>
<ellipse fill="none" stroke="darkgreen" cx="1192" cy="-997.69" rx="105.22" ry="22.76"/>
<text text-anchor="start" x="1135" y="-999.49" font-family="Times,serif" font-size="14.00">ENGR 101 (2.0)</text>
<text text-anchor="start" x="1125.5" y="-988.69" font-family="Times,serif" font-size="10.00">Engineering Design Lab I</text>
</g>
<!-- ENGR 102 -->
<g id="node17" class="node">
<title>ENGR 102</title>
<ellipse fill="none" stroke="darkgreen" cx="1192" cy="-916.43" rx="107.46" ry="22.76"/>
<text text-anchor="start" x="1135" y="-918.23" font-family="Times,serif" font-size="14.00">ENGR 102 (2.0)</text>
<text text-anchor="start" x="1124" y="-907.43" font-family="Times,serif" font-size="10.00">Engineering Design Lab II</text>
</g>
<!-- ENGR 101&#45;&gt;ENGR 102 -->
<g id="edge5" class="edge">
<title>ENGR 101&#45;&gt;ENGR 102</title>
<path fill="none" stroke="black" d="M1192,-975.03C1192,-967.08 1192,-957.9 1192,-949.25"/>
<polygon fill="black" stroke="black" points="1195.5,-949.06 1192,-939.06 1188.5,-949.06 1195.5,-949.06"/>
</g>
<!-- ENGR 121 -->
<g id="node10" class="node">
<title>ENGR 121</title>
<ellipse fill="none" stroke="darkgreen" cx="1452" cy="-997.69" rx="91.85" ry="22.76"/>
<text text-anchor="start" x="1395" y="-999.49" font-family="Times,serif" font-size="14.00">ENGR 121 (2.0)</text>
<text text-anchor="start" x="1404" y="-988.69" font-family="Times,serif" font-size="10.00">Computation Lab I</text>
</g>
<!-- ENGR 231 -->
<g id="node33" class="node">
<title>ENGR 231</title>
<ellipse fill="none" stroke="darkgreen" cx="1452" cy="-753.92" rx="114.6" ry="22.76"/>
<text text-anchor="start" x="1395" y="-755.72" font-family="Times,serif" font-size="14.00">ENGR 231 (3.0)</text>
<text text-anchor="start" x="1379" y="-744.92" font-family="Times,serif" font-size="10.00">Linear Engineering Systems</text>
</g>
<!-- ENGR 121&#45;&gt;ENGR 231 -->
<g id="edge17" class="edge">
<title>ENGR 121&#45;&gt;ENGR 231</title>
<path fill="none" stroke="black" d="M1452,-974.8C1452,-931.92 1452,-836.67 1452,-786.79"/>
<polygon fill="black" stroke="black" points="1455.5,-786.58 1452,-776.58 1448.5,-786.58 1455.5,-786.58"/>
</g>
<!-- MATH 121 -->
<g id="node11" class="node">
<title>MATH 121</title>
<ellipse fill="none" stroke="darkgreen" cx="549" cy="-997.69" rx="92.76" ry="22.76"/>
<text text-anchor="start" x="491.5" y="-999.49" font-family="Times,serif" font-size="14.00">MATH 121 (4.0)</text>
<text text-anchor="start" x="523.5" y="-988.69" font-family="Times,serif" font-size="10.00">Calculus I</text>
</g>
<!-- MATH 122 -->
<g id="node19" class="node">
<title>MATH 122</title>
<ellipse fill="none" stroke="darkgreen" cx="549" cy="-916.43" rx="92.76" ry="22.76"/>
<text text-anchor="start" x="491.5" y="-918.23" font-family="Times,serif" font-size="14.00">MATH 122 (4.0)</text>
<text text-anchor="start" x="521.5" y="-907.43" font-family="Times,serif" font-size="10.00">Calculus II</text>
</g>
<!-- MATH 121&#45;&gt;MATH 122 -->
<g id="edge6" class="edge">
<title>MATH 121&#45;&gt;MATH 122</title>
<path fill="none" stroke="black" d="M549,-975.03C549,-967.08 549,-957.9 549,-949.25"/>
<polygon fill="black" stroke="black" points="552.5,-949.06 549,-939.06 545.5,-949.06 552.5,-949.06"/>
</g>
<!-- UNIV 101 -->
<g id="node12" class="node">
<title>UNIV 101</title>
<ellipse fill="none" stroke="darkgreen" cx="2127" cy="-997.69" rx="94.51" ry="22.76"/>
<text text-anchor="start" x="2072.5" y="-999.49" font-family="Times,serif" font-size="14.00">UNIV 101 (1.0)</text>
<text text-anchor="start" x="2068" y="-988.69" font-family="Times,serif" font-size="10.00">The Drexel Experience</text>
</g>
<!-- 1.3 -->
<g id="node21" class="node">
<title>1.3</title>
<text text-anchor="middle" x="43" y="-831.48" font-family="Times,serif" font-size="14.00">1.3 (17.5)</text>
</g>
<!-- 1.2&#45;&gt;1.3 -->
<!-- CIVC 101 -->
<g id="node15" class="node">
<title>CIVC 101</title>
<ellipse fill="none" stroke="darkgreen" cx="1909" cy="-916.43" rx="106.55" ry="22.76"/>
<text text-anchor="start" x="1856" y="-918.23" font-family="Times,serif" font-size="14.00">CIVC 101 (1.0)</text>
<text text-anchor="start" x="1841.5" y="-907.43" font-family="Times,serif" font-size="10.00">Intro to Civic Engagement</text>
</g>
<!-- ENGL 103 -->
<g id="node24" class="node">
<title>ENGL 103</title>
<ellipse fill="none" stroke="darkgreen" cx="1672" cy="-835.18" rx="115.02" ry="22.76"/>
<text text-anchor="start" x="1616" y="-836.98" font-family="Times,serif" font-size="14.00">ENGL 103 (3.0)</text>
<text text-anchor="start" x="1598.5" y="-826.18" font-family="Times,serif" font-size="10.00">Composition and Rhetoric III</text>
</g>
<!-- ENGL 102&#45;&gt;ENGL 103 -->
<g id="edge9" class="edge">
<title>ENGL 102&#45;&gt;ENGL 103</title>
<path fill="none" stroke="black" d="M1672,-893.77C1672,-885.82 1672,-876.65 1672,-867.99"/>
<polygon fill="black" stroke="black" points="1675.5,-867.81 1672,-857.81 1668.5,-867.81 1675.5,-867.81"/>
</g>
<!-- ENGR 103 -->
<g id="node25" class="node">
<title>ENGR 103</title>
<ellipse fill="none" stroke="darkgreen" cx="1192" cy="-835.18" rx="110.12" ry="22.76"/>
<text text-anchor="start" x="1135" y="-836.98" font-family="Times,serif" font-size="14.00">ENGR 103 (2.0)</text>
<text text-anchor="start" x="1122" y="-826.18" font-family="Times,serif" font-size="10.00">Engineering Design Lab III</text>
</g>
<!-- ENGR 102&#45;&gt;ENGR 103 -->
<g id="edge10" class="edge">
<title>ENGR 102&#45;&gt;ENGR 103</title>
<path fill="none" stroke="black" d="M1192,-893.77C1192,-885.82 1192,-876.65 1192,-867.99"/>
<polygon fill="black" stroke="black" points="1195.5,-867.81 1192,-857.81 1188.5,-867.81 1195.5,-867.81"/>
</g>
<!-- ENGR 122 -->
<g id="node18" class="node">
<title>ENGR 122</title>
<ellipse fill="none" stroke="darkgreen" cx="2126" cy="-916.43" rx="91.85" ry="22.76"/>
<text text-anchor="start" x="2069" y="-918.23" font-family="Times,serif" font-size="14.00">ENGR 122 (1.0)</text>
<text text-anchor="start" x="2076" y="-907.43" font-family="Times,serif" font-size="10.00">Computation Lab II</text>
</g>
<!-- MATH 200 -->
<g id="node26" class="node">
<title>MATH 200</title>
<ellipse fill="none" stroke="darkgreen" cx="647" cy="-835.18" rx="92.76" ry="22.76"/>
<text text-anchor="start" x="589.5" y="-836.98" font-family="Times,serif" font-size="14.00">MATH 200 (4.0)</text>
<text text-anchor="start" x="592.5" y="-826.18" font-family="Times,serif" font-size="10.00">Multivariate Calculus</text>
</g>
<!-- MATH 122&#45;&gt;MATH 200 -->
<g id="edge11" class="edge">
<title>MATH 122&#45;&gt;MATH 200</title>
<path fill="none" stroke="black" d="M574.75,-894.61C586.47,-885.13 600.51,-873.78 613.07,-863.61"/>
<polygon fill="black" stroke="black" points="615.51,-866.14 621.08,-857.14 611.11,-860.7 615.51,-866.14"/>
</g>
<!-- MATH 122&#45;&gt;ENGR 220 -->
<g id="edge15" class="edge">
<title>MATH 122&#45;&gt;ENGR 220</title>
<path fill="none" stroke="black" d="M542.23,-893.62C536.79,-871.83 531.96,-838 545,-812.55 551.53,-799.8 562.34,-789.23 573.93,-780.77"/>
<polygon fill="black" stroke="black" points="576.15,-783.49 582.46,-774.99 572.22,-777.7 576.15,-783.49"/>
</g>
<!-- PHYS 201 -->
<g id="node58" class="node">
<title>PHYS 201</title>
<ellipse fill="none" stroke="blue" cx="758" cy="-428.9" rx="111.95" ry="22.76"/>
<text text-anchor="start" x="703" y="-430.7" font-family="Times,serif" font-size="14.00">PHYS 201 (4.0)</text>
<text text-anchor="start" x="687" y="-419.9" font-family="Times,serif" font-size="10.00">Fundamentals of Physics III</text>
</g>
<!-- MATH 122&#45;&gt;PHYS 201 -->
<g id="edge44" class="edge">
<title>MATH 122&#45;&gt;PHYS 201</title>
<path fill="none" stroke="black" d="M535.01,-893.83C517,-863.9 488,-807.54 488,-754.92 488,-754.92 488,-754.92 488,-590.41 488,-506.48 585.6,-465.45 663.44,-446.08"/>
<polygon fill="black" stroke="black" points="664.4,-449.44 673.31,-443.71 662.77,-442.64 664.4,-449.44"/>
</g>
<!-- PHYS 101 -->
<g id="node20" class="node">
<title>PHYS 101</title>
<ellipse fill="none" stroke="darkgreen" cx="847" cy="-916.43" rx="106.55" ry="22.76"/>
<text text-anchor="start" x="792" y="-918.23" font-family="Times,serif" font-size="14.00">PHYS 101 (4.0)</text>
<text text-anchor="start" x="779.5" y="-907.43" font-family="Times,serif" font-size="10.00">Fundamentals of Physics I</text>
</g>
<!-- PHYS 102 -->
<g id="node27" class="node">
<title>PHYS 102</title>
<ellipse fill="none" stroke="darkgreen" cx="906" cy="-835.18" rx="109.7" ry="22.76"/>
<text text-anchor="start" x="851" y="-836.98" font-family="Times,serif" font-size="14.00">PHYS 102 (4.0)</text>
<text text-anchor="start" x="836.5" y="-826.18" font-family="Times,serif" font-size="10.00">Fundamentals of Physics II</text>
</g>
<!-- PHYS 101&#45;&gt;PHYS 102 -->
<g id="edge12" class="edge">
<title>PHYS 101&#45;&gt;PHYS 102</title>
<path fill="none" stroke="black" d="M863.12,-893.77C869.5,-885.21 876.93,-875.23 883.79,-866"/>
<polygon fill="black" stroke="black" points="886.73,-867.92 889.9,-857.81 881.12,-863.74 886.73,-867.92"/>
</g>
<!-- PHYS 101&#45;&gt;ENGR 220 -->
<g id="edge16" class="edge">
<title>PHYS 101&#45;&gt;ENGR 220</title>
<path fill="none" stroke="black" d="M823.64,-894.1C812.3,-883.47 798.64,-870.25 787,-857.8 769.06,-838.62 769.85,-828.52 749,-812.55 730.7,-798.53 708.43,-786.85 687.85,-777.76"/>
<polygon fill="black" stroke="black" points="689.1,-774.49 678.53,-773.76 686.34,-780.92 689.1,-774.49"/>
</g>
<!-- 2.1 -->
<g id="node28" class="node">
<title>2.1</title>
<text text-anchor="middle" x="43" y="-750.22" font-family="Times,serif" font-size="14.00">2.1 (20.0)</text>
</g>
<!-- 1.3&#45;&gt;2.1 -->
<!-- COOP 101 -->
<g id="node23" class="node">
<title>COOP 101</title>
<ellipse fill="none" stroke="darkgreen" cx="1911" cy="-835.18" rx="105.22" ry="22.76"/>
<text text-anchor="start" x="1861.5" y="-836.98" font-family="Times,serif" font-size="14.00">COOP 101 (0)</text>
<text text-anchor="start" x="1844.5" y="-826.18" font-family="Times,serif" font-size="10.00">Career Mgmt/Profess Dev</text>
</g>
<!-- ECES 301 -->
<g id="node46" class="node">
<title>ECES 301</title>
<ellipse fill="none" stroke="darkgreen" cx="1247" cy="-591.41" rx="91.43" ry="22.76"/>
<text text-anchor="start" x="1191.5" y="-593.21" font-family="Times,serif" font-size="14.00">ECES 301 (4.0)</text>
<text text-anchor="start" x="1190.5" y="-582.41" font-family="Times,serif" font-size="10.00">Signals and Systems I</text>
</g>
<!-- ENGR 103&#45;&gt;ECES 301 -->
<g id="edge32" class="edge">
<title>ENGR 103&#45;&gt;ECES 301</title>
<path fill="none" stroke="black" d="M1198.49,-812.19C1206.4,-784.93 1219.82,-736.96 1229,-695.29 1234.21,-671.62 1238.89,-644.61 1242.17,-624.21"/>
<polygon fill="black" stroke="black" points="1245.65,-624.62 1243.75,-614.2 1238.74,-623.53 1245.65,-624.62"/>
</g>
<!-- ECE 303 -->
<g id="node55" class="node">
<title>ECE 303</title>
<ellipse fill="none" stroke="blue" cx="998" cy="-428.9" rx="82.96" ry="22.76"/>
<text text-anchor="start" x="947.5" y="-430.7" font-family="Times,serif" font-size="14.00">ECE 303 (3.0)</text>
<text text-anchor="start" x="957" y="-419.9" font-family="Times,serif" font-size="10.00">ECE Laboratory</text>
</g>
<!-- ENGR 103&#45;&gt;ECE 303 -->
<g id="edge41" class="edge">
<title>ENGR 103&#45;&gt;ECE 303</title>
<path fill="none" stroke="black" d="M1115.91,-818.66C1043.01,-798.83 944,-756.62 944,-673.67 944,-673.67 944,-673.67 944,-590.41 944,-543.25 965.2,-492.17 981.03,-460.6"/>
<polygon fill="black" stroke="black" points="984.28,-461.95 985.75,-451.46 978.06,-458.74 984.28,-461.95"/>
</g>
<!-- ECE 201 -->
<g id="node36" class="node">
<title>ECE 201</title>
<ellipse fill="none" stroke="darkgreen" cx="1096" cy="-672.67" rx="124.4" ry="22.76"/>
<text text-anchor="start" x="1045.5" y="-674.47" font-family="Times,serif" font-size="14.00">ECE 201 (4.0)</text>
<text text-anchor="start" x="1016" y="-663.67" font-family="Times,serif" font-size="10.00">Foundations of Electric Circuits</text>
</g>
<!-- PHYS 102&#45;&gt;ECE 201 -->
<g id="edge19" class="edge">
<title>PHYS 102&#45;&gt;ECE 201</title>
<path fill="none" stroke="black" d="M931.23,-812.86C965.02,-784.32 1025.04,-733.61 1062.56,-701.92"/>
<polygon fill="black" stroke="black" points="1065.28,-704.2 1070.67,-695.07 1060.77,-698.85 1065.28,-704.2"/>
</g>
<!-- PHYS 102&#45;&gt;PHYS 201 -->
<g id="edge43" class="edge">
<title>PHYS 102&#45;&gt;PHYS 201</title>
<path fill="none" stroke="black" d="M879.09,-813.17C846.53,-785.17 796,-732.28 796,-673.67 796,-673.67 796,-673.67 796,-590.41 796,-544.55 781.13,-493.24 769.99,-461.26"/>
<polygon fill="black" stroke="black" points="773.19,-459.82 766.53,-451.58 766.6,-462.18 773.19,-459.82"/>
</g>
<!-- 2.2 -->
<g id="node35" class="node">
<title>2.2</title>
<text text-anchor="middle" x="43" y="-668.97" font-family="Times,serif" font-size="14.00">2.2 (16.0)</text>
</g>
<!-- 2.1&#45;&gt;2.2 -->
<!-- ECE 200 -->
<g id="node29" class="node">
<title>ECE 200</title>
<ellipse fill="none" stroke="darkgreen" cx="1832" cy="-753.92" rx="84.71" ry="22.76"/>
<text text-anchor="start" x="1781.5" y="-755.72" font-family="Times,serif" font-size="14.00">ECE 200 (4.0)</text>
<text text-anchor="start" x="1780" y="-744.92" font-family="Times,serif" font-size="10.00">Digital Logic Design</text>
</g>
<!-- MATH 221 -->
<g id="node40" class="node">
<title>MATH 221</title>
<ellipse fill="none" stroke="darkgreen" cx="1711" cy="-672.67" rx="92.76" ry="22.76"/>
<text text-anchor="start" x="1653.5" y="-674.47" font-family="Times,serif" font-size="14.00">MATH 221 (3.0)</text>
<text text-anchor="start" x="1655" y="-663.67" font-family="Times,serif" font-size="10.00">Discrete Mathematics</text>
</g>
<!-- ECE 200&#45;&gt;MATH 221 -->
<g id="edge23" class="edge">
<title>ECE 200&#45;&gt;MATH 221</title>
<path fill="none" stroke="black" d="M1801.15,-732.72C1785.91,-722.73 1767.33,-710.56 1751.01,-699.87"/>
<polygon fill="black" stroke="black" points="1752.49,-696.66 1742.21,-694.11 1748.66,-702.52 1752.49,-696.66"/>
</g>
<!-- ECEC 302 -->
<g id="node44" class="node">
<title>ECEC 302</title>
<ellipse fill="none" stroke="darkgreen" cx="2431" cy="-591.41" rx="98.99" ry="22.76"/>
<text text-anchor="start" x="2375" y="-593.21" font-family="Times,serif" font-size="14.00">ECEC 302 (3.0)</text>
<text text-anchor="start" x="2369" y="-582.41" font-family="Times,serif" font-size="10.00">Digital Systems Projects</text>
</g>
<!-- ECE 200&#45;&gt;ECEC 302 -->
<g id="edge28" class="edge">
<title>ECE 200&#45;&gt;ECEC 302</title>
<path fill="none" stroke="black" d="M1914.92,-748.94C2033.42,-742.24 2244.56,-726.32 2314,-695.29 2351.28,-678.64 2385.27,-645.86 2406.89,-621.76"/>
<polygon fill="black" stroke="black" points="2409.77,-623.78 2413.74,-613.95 2404.51,-619.16 2409.77,-623.78"/>
</g>
<!-- ECE 200&#45;&gt;ECES 301 -->
<g id="edge30" class="edge">
<title>ECE 200&#45;&gt;ECES 301</title>
<path fill="none" stroke="black" d="M1752.32,-746.07C1610.05,-733.57 1325.41,-707.25 1307,-695.29 1281.66,-678.83 1265.7,-647.64 1256.67,-623.9"/>
<polygon fill="black" stroke="black" points="1259.88,-622.49 1253.21,-614.25 1253.29,-624.84 1259.88,-622.49"/>
</g>
<!-- ECEC 204 -->
<g id="node49" class="node">
<title>ECEC 204</title>
<ellipse fill="none" stroke="darkgreen" cx="1832" cy="-510.16" rx="115.93" ry="22.76"/>
<text text-anchor="start" x="1776" y="-511.96" font-family="Times,serif" font-size="14.00">ECEC 204 (3.0)</text>
<text text-anchor="start" x="1758" y="-501.16" font-family="Times,serif" font-size="10.00">Design with Microcontrollers</text>
</g>
<!-- ECE 200&#45;&gt;ECEC 204 -->
<g id="edge35" class="edge">
<title>ECE 200&#45;&gt;ECEC 204</title>
<path fill="none" stroke="black" d="M1832,-731.04C1832,-688.16 1832,-592.91 1832,-543.02"/>
<polygon fill="black" stroke="black" points="1835.5,-542.81 1832,-532.81 1828.5,-542.81 1835.5,-542.81"/>
</g>
<!-- ECEC 474 -->
<g id="node63" class="node">
<title>ECEC 474</title>
<ellipse fill="none" stroke="blue" cx="2628" cy="-347.65" rx="90.52" ry="22.76"/>
<text text-anchor="start" x="2572" y="-349.45" font-family="Times,serif" font-size="14.00">ECEC 474 (3.0)</text>
<text text-anchor="start" x="2592" y="-338.65" font-family="Times,serif" font-size="10.00">ASIC Design I</text>
</g>
<!-- ECE 200&#45;&gt;ECEC 474 -->
<g id="edge47" class="edge">
<title>ECE 200&#45;&gt;ECEC 474</title>
<path fill="none" stroke="black" d="M1916.7,-751.88C2108.21,-747.23 2558,-722.46 2558,-592.41 2558,-592.41 2558,-592.41 2558,-509.16 2558,-460.46 2585.41,-409.86 2605.92,-378.8"/>
<polygon fill="black" stroke="black" points="2609.04,-380.44 2611.76,-370.2 2603.25,-376.51 2609.04,-380.44"/>
</g>
<!-- ECE 203 -->
<g id="node30" class="node">
<title>ECE 203</title>
<ellipse fill="none" stroke="darkgreen" cx="2596" cy="-753.92" rx="113.27" ry="22.76"/>
<text text-anchor="start" x="2545.5" y="-755.72" font-family="Times,serif" font-size="14.00">ECE 203 (3.0)</text>
<text text-anchor="start" x="2524" y="-744.92" font-family="Times,serif" font-size="10.00">Programming for Engineers</text>
</g>
<!-- ECEC 201 -->
<g id="node37" class="node">
<title>ECEC 201</title>
<ellipse fill="none" stroke="darkgreen" cx="2176" cy="-672.67" rx="129.3" ry="22.76"/>
<text text-anchor="start" x="2120" y="-674.47" font-family="Times,serif" font-size="14.00">ECEC 201 (3.0)</text>
<text text-anchor="start" x="2092.5" y="-663.67" font-family="Times,serif" font-size="10.00">Adv Programming for Engineers</text>
</g>
<!-- ECE 203&#45;&gt;ECEC 201 -->
<g id="edge20" class="edge">
<title>ECE 203&#45;&gt;ECEC 201</title>
<path fill="none" stroke="black" d="M2516.01,-737.83C2446.34,-724.68 2345.19,-705.59 2271.33,-691.66"/>
<polygon fill="black" stroke="black" points="2271.57,-688.14 2261.1,-689.72 2270.28,-695.02 2271.57,-688.14"/>
</g>
<!-- ECE 203&#45;&gt;ECEC 302 -->
<g id="edge27" class="edge">
<title>ECE 203&#45;&gt;ECEC 302</title>
<path fill="none" stroke="black" d="M2574.09,-731.61C2544.79,-703.11 2492.77,-652.5 2460.18,-620.8"/>
<polygon fill="black" stroke="black" points="2462.35,-618.02 2452.74,-613.56 2457.47,-623.04 2462.35,-618.02"/>
</g>
<!-- ECEC 357 -->
<g id="node45" class="node">
<title>ECEC 357</title>
<ellipse fill="none" stroke="darkgreen" cx="2726" cy="-591.41" rx="140.01" ry="22.76"/>
<text text-anchor="start" x="2670" y="-593.21" font-family="Times,serif" font-size="14.00">ECEC 357 (3.0)</text>
<text text-anchor="start" x="2635" y="-582.41" font-family="Times,serif" font-size="10.00">Introduction to Computer Networks</text>
</g>
<!-- ECE 203&#45;&gt;ECEC 357 -->
<g id="edge29" class="edge">
<title>ECE 203&#45;&gt;ECEC 357</title>
<path fill="none" stroke="black" d="M2613.53,-731.27C2636.37,-703.07 2676.4,-653.65 2702.03,-622"/>
<polygon fill="black" stroke="black" points="2704.96,-623.94 2708.54,-613.97 2699.52,-619.54 2704.96,-623.94"/>
</g>
<!-- ENGR 201 -->
<g id="node31" class="node">
<title>ENGR 201</title>
<ellipse fill="none" stroke="darkgreen" cx="2868" cy="-753.92" rx="111.03" ry="22.76"/>
<text text-anchor="start" x="2811" y="-755.72" font-family="Times,serif" font-size="14.00">ENGR 201 (3.0)</text>
<text text-anchor="start" x="2797.5" y="-744.92" font-family="Times,serif" font-size="10.00">Eval &amp; Pres of Exper Data I</text>
</g>
<!-- ENGR 202 -->
<g id="node38" class="node">
<title>ENGR 202</title>
<ellipse fill="none" stroke="darkgreen" cx="2868" cy="-672.67" rx="113.69" ry="22.76"/>
<text text-anchor="start" x="2811" y="-674.47" font-family="Times,serif" font-size="14.00">ENGR 202 (3.0)</text>
<text text-anchor="start" x="2795.5" y="-663.67" font-family="Times,serif" font-size="10.00">Eval &amp; Pres of Exper Data II</text>
</g>
<!-- ENGR 201&#45;&gt;ENGR 202 -->
<g id="edge21" class="edge">
<title>ENGR 201&#45;&gt;ENGR 202</title>
<path fill="none" stroke="black" d="M2868,-731.26C2868,-723.31 2868,-714.14 2868,-705.48"/>
<polygon fill="black" stroke="black" points="2871.5,-705.3 2868,-695.3 2864.5,-705.3 2871.5,-705.3"/>
</g>
<!-- ENGR 232 -->
<g id="node39" class="node">
<title>ENGR 232</title>
<ellipse fill="none" stroke="darkgreen" cx="1439" cy="-672.67" rx="123.07" ry="22.76"/>
<text text-anchor="start" x="1382" y="-674.47" font-family="Times,serif" font-size="14.00">ENGR 232 (3.0)</text>
<text text-anchor="start" x="1360" y="-663.67" font-family="Times,serif" font-size="10.00">Dynamic Engineering Systems</text>
</g>
<!-- ENGR 231&#45;&gt;ENGR 232 -->
<g id="edge22" class="edge">
<title>ENGR 231&#45;&gt;ENGR 232</title>
<path fill="none" stroke="black" d="M1448.45,-731.26C1447.13,-723.23 1445.61,-713.94 1444.17,-705.2"/>
<polygon fill="black" stroke="black" points="1447.62,-704.6 1442.55,-695.3 1440.71,-705.73 1447.62,-704.6"/>
</g>
<!-- CS 383 -->
<g id="node64" class="node">
<title>CS 383</title>
<ellipse fill="none" stroke="blue" cx="1590" cy="-347.65" rx="77.56" ry="22.76"/>
<text text-anchor="start" x="1545" y="-349.45" font-family="Times,serif" font-size="14.00">CS 383 (3.0)</text>
<text text-anchor="start" x="1543" y="-338.65" font-family="Times,serif" font-size="10.00">Machine Learning</text>
</g>
<!-- ENGR 231&#45;&gt;CS 383 -->
<g id="edge50" class="edge">
<title>ENGR 231&#45;&gt;CS 383</title>
<path fill="none" stroke="black" d="M1515.52,-735.01C1536.1,-726.21 1557.16,-713.46 1571,-695.29 1599.19,-658.31 1590,-638.91 1590,-592.41 1590,-592.41 1590,-592.41 1590,-509.16 1590,-464.59 1590,-413.07 1590,-380.67"/>
<polygon fill="black" stroke="black" points="1593.5,-380.45 1590,-370.45 1586.5,-380.45 1593.5,-380.45"/>
</g>
<!-- PHIL 111 -->
<g id="node34" class="node">
<title>PHIL 111</title>
<ellipse fill="none" stroke="darkgreen" cx="3083" cy="-753.92" rx="86.03" ry="22.76"/>
<text text-anchor="start" x="3030" y="-755.72" font-family="Times,serif" font-size="14.00">PHIL 111 (3.0)</text>
<text text-anchor="start" x="3040.5" y="-744.92" font-family="Times,serif" font-size="10.00">Symbolic Logic I</text>
</g>
<!-- PHIL 207 -->
<g id="node71" class="node">
<title>PHIL 207</title>
<ellipse fill="none" stroke="orange" cx="3083" cy="-103.88" rx="86.03" ry="22.76"/>
<text text-anchor="start" x="3030" y="-105.68" font-family="Times,serif" font-size="14.00">PHIL 207 (3.0)</text>
<text text-anchor="start" x="3039" y="-94.88" font-family="Times,serif" font-size="10.00">Symbolic Logic II</text>
</g>
<!-- PHIL 111&#45;&gt;PHIL 207 -->
<g id="edge60" class="edge">
<title>PHIL 111&#45;&gt;PHIL 207</title>
<path fill="none" stroke="black" d="M3083,-731.11C3083,-700.24 3083,-642.01 3083,-592.41 3083,-592.41 3083,-592.41 3083,-265.39 3083,-220.83 3083,-169.3 3083,-136.91"/>
<polygon fill="black" stroke="black" points="3086.5,-136.69 3083,-126.69 3079.5,-136.69 3086.5,-136.69"/>
</g>
<!-- 3.1 -->
<g id="node41" class="node">
<title>3.1</title>
<text text-anchor="middle" x="43" y="-587.71" font-family="Times,serif" font-size="14.00">3.1 (17.0)</text>
</g>
<!-- 2.2&#45;&gt;3.1 -->
<!-- ECE 201&#45;&gt;ECES 301 -->
<g id="edge31" class="edge">
<title>ECE 201&#45;&gt;ECES 301</title>
<path fill="none" stroke="black" d="M1135.28,-651.05C1155.22,-640.58 1179.58,-627.8 1200.46,-616.84"/>
<polygon fill="black" stroke="black" points="1202.25,-619.85 1209.48,-612.1 1199,-613.65 1202.25,-619.85"/>
</g>
<!-- ECE 201&#45;&gt;ECE 303 -->
<g id="edge40" class="edge">
<title>ECE 201&#45;&gt;ECE 303</title>
<path fill="none" stroke="black" d="M1087.13,-649.78C1069.64,-606.63 1030.65,-510.45 1010.54,-460.83"/>
<polygon fill="black" stroke="black" points="1013.78,-459.51 1006.78,-451.56 1007.29,-462.14 1013.78,-459.51"/>
</g>
<!-- CS 265 -->
<g id="node42" class="node">
<title>CS 265</title>
<ellipse fill="none" stroke="darkgreen" cx="2078" cy="-591.41" rx="179.71" ry="22.76"/>
<text text-anchor="start" x="2033" y="-593.21" font-family="Times,serif" font-size="14.00">CS 265 (3.0)</text>
<text text-anchor="start" x="1959" y="-582.41" font-family="Times,serif" font-size="10.00">Advanced Programming Tools and Techniques</text>
</g>
<!-- ECEC 201&#45;&gt;CS 265 -->
<g id="edge25" class="edge">
<title>ECEC 201&#45;&gt;CS 265</title>
<path fill="none" stroke="black" d="M2149.74,-650.43C2138.3,-641.17 2124.73,-630.2 2112.49,-620.31"/>
<polygon fill="black" stroke="black" points="2114.65,-617.55 2104.68,-613.98 2110.25,-622.99 2114.65,-617.55"/>
</g>
<!-- ECEC 201&#45;&gt;ECEC 204 -->
<g id="edge36" class="edge">
<title>ECEC 201&#45;&gt;ECEC 204</title>
<path fill="none" stroke="black" d="M2069.56,-659.73C2000.26,-650.2 1917.61,-634.97 1889,-614.04 1865.06,-596.53 1849.94,-565.77 1841.33,-542.43"/>
<polygon fill="black" stroke="black" points="1844.62,-541.24 1838.04,-532.94 1838.01,-543.54 1844.62,-541.24"/>
</g>
<!-- ECEC 353 -->
<g id="node51" class="node">
<title>ECEC 353</title>
<ellipse fill="none" stroke="darkgreen" cx="2228" cy="-510.16" rx="94.09" ry="22.76"/>
<text text-anchor="start" x="2172" y="-511.96" font-family="Times,serif" font-size="14.00">ECEC 353 (3.0)</text>
<text text-anchor="start" x="2169.5" y="-501.16" font-family="Times,serif" font-size="10.00">Systems Programming</text>
</g>
<!-- ECEC 201&#45;&gt;ECEC 353 -->
<g id="edge37" class="edge">
<title>ECEC 201&#45;&gt;ECEC 353</title>
<path fill="none" stroke="black" d="M2226.15,-651.8C2242.13,-642.8 2257.98,-630.42 2267,-614.04 2279.95,-590.51 2266.91,-561.78 2252.52,-540.67"/>
<polygon fill="black" stroke="black" points="2255.25,-538.47 2246.56,-532.41 2249.57,-542.57 2255.25,-538.47"/>
</g>
<!-- ECE 361 -->
<g id="node43" class="node">
<title>ECE 361</title>
<ellipse fill="none" stroke="darkgreen" cx="1459" cy="-591.41" rx="102.56" ry="22.76"/>
<text text-anchor="start" x="1408.5" y="-593.21" font-family="Times,serif" font-size="14.00">ECE 361 (4.0)</text>
<text text-anchor="start" x="1394.5" y="-582.41" font-family="Times,serif" font-size="10.00">Probability for Engineers</text>
</g>
<!-- ENGR 232&#45;&gt;ECE 361 -->
<g id="edge26" class="edge">
<title>ENGR 232&#45;&gt;ECE 361</title>
<path fill="none" stroke="black" d="M1444.47,-650.01C1446.49,-641.97 1448.84,-632.68 1451.04,-623.94"/>
<polygon fill="black" stroke="black" points="1454.49,-624.59 1453.54,-614.04 1447.7,-622.88 1454.49,-624.59"/>
</g>
<!-- MATH 221&#45;&gt;CS 383 -->
<g id="edge51" class="edge">
<title>MATH 221&#45;&gt;CS 383</title>
<path fill="none" stroke="black" d="M1702.87,-649.97C1681.95,-594.11 1626.16,-445.18 1601.73,-379.97"/>
<polygon fill="black" stroke="black" points="1604.88,-378.38 1598.09,-370.25 1598.32,-380.84 1604.88,-378.38"/>
</g>
<!-- 3.2 -->
<g id="node47" class="node">
<title>3.2</title>
<text text-anchor="middle" x="43" y="-506.46" font-family="Times,serif" font-size="14.00">3.2 (18.0)</text>
</g>
<!-- 3.1&#45;&gt;3.2 -->
<!-- CS 260 -->
<g id="node48" class="node">
<title>CS 260</title>
<ellipse fill="none" stroke="darkgreen" cx="2041" cy="-510.16" rx="74.91" ry="22.76"/>
<text text-anchor="start" x="1996" y="-511.96" font-family="Times,serif" font-size="14.00">CS 260 (3.0)</text>
<text text-anchor="start" x="2000.5" y="-501.16" font-family="Times,serif" font-size="10.00">Data Structures</text>
</g>
<!-- CS 265&#45;&gt;CS 260 -->
<g id="edge34" class="edge">
<title>CS 265&#45;&gt;CS 260</title>
<path fill="none" stroke="black" d="M2067.89,-568.75C2064.06,-560.54 2059.61,-551.02 2055.45,-542.12"/>
<polygon fill="black" stroke="black" points="2058.5,-540.37 2051.1,-532.79 2052.16,-543.33 2058.5,-540.37"/>
</g>
<!-- ECE 361&#45;&gt;CS 383 -->
<g id="edge52" class="edge">
<title>ECE 361&#45;&gt;CS 383</title>
<path fill="none" stroke="black" d="M1470.86,-568.53C1494.29,-525.29 1546.57,-428.8 1573.41,-379.27"/>
<polygon fill="black" stroke="black" points="1576.58,-380.76 1578.26,-370.3 1570.42,-377.43 1576.58,-380.76"/>
</g>
<!-- ECE 491 -->
<g id="node66" class="node">
<title>ECE 491</title>
<ellipse fill="none" stroke="orange" cx="1639" cy="-266.39" rx="94.51" ry="22.76"/>
<text text-anchor="start" x="1588.5" y="-268.19" font-family="Times,serif" font-size="14.00">ECE 491 (2.0)</text>
<text text-anchor="start" x="1580" y="-257.39" font-family="Times,serif" font-size="10.00">Senior Design Project I</text>
</g>
<!-- ECE 361&#45;&gt;ECE 491 -->
<g id="edge55" class="edge">
<title>ECE 361&#45;&gt;ECE 491</title>
<path fill="none" stroke="black" d="M1456.14,-568.77C1450.89,-519.71 1445.06,-398.58 1503,-325.02 1517.44,-306.68 1538.81,-294.1 1560.35,-285.5"/>
<polygon fill="black" stroke="black" points="1561.76,-288.71 1569.9,-281.93 1559.31,-282.15 1561.76,-288.71"/>
</g>
<!-- ECEC 355 -->
<g id="node52" class="node">
<title>ECEC 355</title>
<ellipse fill="none" stroke="darkgreen" cx="2435" cy="-510.16" rx="94.51" ry="22.76"/>
<text text-anchor="start" x="2379" y="-511.96" font-family="Times,serif" font-size="14.00">ECEC 355 (3.0)</text>
<text text-anchor="start" x="2376" y="-501.16" font-family="Times,serif" font-size="10.00">Computer Architecture</text>
</g>
<!-- ECEC 302&#45;&gt;ECEC 355 -->
<g id="edge38" class="edge">
<title>ECEC 302&#45;&gt;ECEC 355</title>
<path fill="none" stroke="black" d="M2432.09,-568.75C2432.49,-560.8 2432.96,-551.63 2433.39,-542.97"/>
<polygon fill="black" stroke="black" points="2436.9,-542.95 2433.91,-532.79 2429.91,-542.6 2436.9,-542.95"/>
</g>
<!-- 4.1 -->
<g id="node54" class="node">
<title>4.1</title>
<text text-anchor="middle" x="43" y="-425.2" font-family="Times,serif" font-size="14.00">4.1 (17.0)</text>
</g>
<!-- 3.2&#45;&gt;4.1 -->
<!-- CS 260&#45;&gt;CS 383 -->
<g id="edge49" class="edge">
<title>CS 260&#45;&gt;CS 383</title>
<path fill="none" stroke="black" d="M1994.01,-492.43C1910.64,-462.76 1737.16,-401.02 1647.07,-368.96"/>
<polygon fill="black" stroke="black" points="1648.16,-365.63 1637.56,-365.57 1645.81,-372.22 1648.16,-365.63"/>
</g>
<!-- ECEC I399 -->
<g id="node50" class="node">
<title>ECEC I399</title>
<ellipse fill="none" stroke="darkgreen" cx="3225" cy="-510.16" rx="113.69" ry="22.76"/>
<text text-anchor="start" x="3166.5" y="-511.96" font-family="Times,serif" font-size="14.00">ECEC I399 (3.0)</text>
<text text-anchor="start" x="3152.5" y="-501.16" font-family="Times,serif" font-size="10.00">Vision Processing Hardware</text>
</g>
<!-- ECEC 412 -->
<g id="node56" class="node">
<title>ECEC 412</title>
<ellipse fill="none" stroke="blue" cx="2232" cy="-428.9" rx="105.22" ry="22.76"/>
<text text-anchor="start" x="2176" y="-430.7" font-family="Times,serif" font-size="14.00">ECEC 412 (3.0)</text>
<text text-anchor="start" x="2165.5" y="-419.9" font-family="Times,serif" font-size="10.00">Modern Processor Design</text>
</g>
<!-- ECEC 355&#45;&gt;ECEC 412 -->
<g id="edge42" class="edge">
<title>ECEC 355&#45;&gt;ECEC 412</title>
<path fill="none" stroke="black" d="M2387.41,-490.57C2358.41,-479.26 2321.15,-464.71 2290.38,-452.7"/>
<polygon fill="black" stroke="black" points="2291.65,-449.43 2281.06,-449.06 2289.1,-455.95 2291.65,-449.43"/>
</g>
<!-- ECEC&#45;T 480 -->
<g id="node62" class="node">
<title>ECEC&#45;T 480</title>
<ellipse fill="none" stroke="blue" cx="2353" cy="-347.65" rx="166.75" ry="22.76"/>
<text text-anchor="start" x="2290.5" y="-349.45" font-family="Times,serif" font-size="14.00">ECEC&#45;T 480 (3.0)</text>
<text text-anchor="start" x="2243" y="-338.65" font-family="Times,serif" font-size="10.00">Advanced Topics in Computer Architecture</text>
</g>
<!-- ECEC 355&#45;&gt;ECEC&#45;T 480 -->
<g id="edge46" class="edge">
<title>ECEC 355&#45;&gt;ECEC&#45;T 480</title>
<path fill="none" stroke="black" d="M2423.94,-487.51C2409.76,-459.75 2385.06,-411.41 2368.88,-379.72"/>
<polygon fill="black" stroke="black" points="2371.81,-377.78 2364.15,-370.46 2365.58,-380.96 2371.81,-377.78"/>
</g>
<!-- ECEC 355&#45;&gt;ECEC 474 -->
<g id="edge48" class="edge">
<title>ECEC 355&#45;&gt;ECEC 474</title>
<path fill="none" stroke="black" d="M2455.42,-488.04C2476.69,-466.49 2511.39,-432.58 2544,-406.27 2557.68,-395.24 2573.39,-384.09 2587.51,-374.57"/>
<polygon fill="black" stroke="black" points="2589.67,-377.33 2596.05,-368.87 2585.79,-371.51 2589.67,-377.33"/>
</g>
<!-- PHIL 315 -->
<g id="node53" class="node">
<title>PHIL 315</title>
<ellipse fill="none" stroke="darkgreen" cx="3443" cy="-510.16" rx="86.03" ry="22.76"/>
<text text-anchor="start" x="3390" y="-511.96" font-family="Times,serif" font-size="14.00">PHIL 315 (3.0)</text>
<text text-anchor="start" x="3393.5" y="-501.16" font-family="Times,serif" font-size="10.00">Engineering Ethics</text>
</g>
<!-- 4.2 -->
<g id="node60" class="node">
<title>4.2</title>
<text text-anchor="middle" x="43" y="-343.95" font-family="Times,serif" font-size="14.00">4.2 (10.0)</text>
</g>
<!-- 4.1&#45;&gt;4.2 -->
<!-- ECON 201 -->
<g id="node57" class="node">
<title>ECON 201</title>
<ellipse fill="none" stroke="blue" cx="3228" cy="-428.9" rx="116.85" ry="22.76"/>
<text text-anchor="start" x="3171" y="-430.7" font-family="Times,serif" font-size="14.00">ECON 201 (4.0)</text>
<text text-anchor="start" x="3153.5" y="-419.9" font-family="Times,serif" font-size="10.00">Principles of Microeconomics</text>
</g>
<!-- PSY 101  -->
<g id="node59" class="node">
<title>PSY 101 </title>
<ellipse fill="none" stroke="blue" cx="3451" cy="-428.9" rx="88.28" ry="22.76"/>
<text text-anchor="start" x="3399.5" y="-430.7" font-family="Times,serif" font-size="14.00">PSY 101 &#160;(3.0)</text>
<text text-anchor="start" x="3396.5" y="-419.9" font-family="Times,serif" font-size="10.00">General Psychology I</text>
</g>
<!-- 5.1 -->
<g id="node65" class="node">
<title>5.1</title>
<text text-anchor="middle" x="43" y="-262.69" font-family="Times,serif" font-size="14.00">5.1 (2.0)</text>
</g>
<!-- 4.2&#45;&gt;5.1 -->
<!-- ECE 391 -->
<g id="node61" class="node">
<title>ECE 391</title>
<ellipse fill="none" stroke="blue" cx="1806" cy="-347.65" rx="120.42" ry="22.76"/>
<text text-anchor="start" x="1755.5" y="-349.45" font-family="Times,serif" font-size="14.00">ECE 391 (1.0)</text>
<text text-anchor="start" x="1729" y="-338.65" font-family="Times,serif" font-size="10.00">Intro to Engr Design Methods</text>
</g>
<!-- ECE 391&#45;&gt;ECE 491 -->
<g id="edge54" class="edge">
<title>ECE 391&#45;&gt;ECE 491</title>
<path fill="none" stroke="black" d="M1763.43,-326.44C1740.82,-315.71 1712.89,-302.46 1689.23,-291.23"/>
<polygon fill="black" stroke="black" points="1690.59,-288 1680.05,-286.88 1687.59,-294.32 1690.59,-288"/>
</g>
<!-- 5.2 -->
<g id="node67" class="node">
<title>5.2</title>
<text text-anchor="middle" x="43" y="-181.44" font-family="Times,serif" font-size="14.00">5.2 (2.0)</text>
</g>
<!-- 5.1&#45;&gt;5.2 -->
<!-- ECE 492 -->
<g id="node68" class="node">
<title>ECE 492</title>
<ellipse fill="none" stroke="orange" cx="1639" cy="-185.14" rx="96.75" ry="22.76"/>
<text text-anchor="start" x="1588.5" y="-186.94" font-family="Times,serif" font-size="14.00">ECE 492 (2.0)</text>
<text text-anchor="start" x="1578.5" y="-176.14" font-family="Times,serif" font-size="10.00">Senior Design Project II</text>
</g>
<!-- ECE 491&#45;&gt;ECE 492 -->
<g id="edge57" class="edge">
<title>ECE 491&#45;&gt;ECE 492</title>
<path fill="none" stroke="black" d="M1639,-243.74C1639,-235.78 1639,-226.61 1639,-217.95"/>
<polygon fill="black" stroke="black" points="1642.5,-217.77 1639,-207.77 1635.5,-217.77 1642.5,-217.77"/>
</g>
<!-- 5.3 -->
<g id="node69" class="node">
<title>5.3</title>
<text text-anchor="middle" x="43" y="-100.18" font-family="Times,serif" font-size="14.00">5.3 (7.0)</text>
</g>
<!-- 5.2&#45;&gt;5.3 -->
<!-- ECE 493 -->
<g id="node70" class="node">
<title>ECE 493</title>
<ellipse fill="none" stroke="orange" cx="1639" cy="-103.88" rx="99.9" ry="22.76"/>
<text text-anchor="start" x="1588.5" y="-105.68" font-family="Times,serif" font-size="14.00">ECE 493 (4.0)</text>
<text text-anchor="start" x="1576.5" y="-94.88" font-family="Times,serif" font-size="10.00">Senior Design Project III</text>
</g>
<!-- ECE 492&#45;&gt;ECE 493 -->
<g id="edge59" class="edge">
<title>ECE 492&#45;&gt;ECE 493</title>
<path fill="none" stroke="black" d="M1639,-162.48C1639,-154.53 1639,-145.36 1639,-136.7"/>
<polygon fill="black" stroke="black" points="1642.5,-136.51 1639,-126.51 1635.5,-136.51 1642.5,-136.51"/>
</g>
<!-- &#45;1.0 -->
<g id="node72" class="node">
<title>&#45;1.0</title>
<text text-anchor="middle" x="43" y="-18.93" font-family="Times,serif" font-size="14.00">&#45;1.0 (9.0)</text>
</g>
<!-- 5.3&#45;&gt;&#45;1.0 -->
<!-- TEMP COE -->
<g id="node73" class="node">
<title>TEMP COE</title>
<ellipse fill="none" stroke="red" cx="207" cy="-22.63" rx="105.22" ry="22.76"/>
<text text-anchor="start" x="148" y="-24.43" font-family="Times,serif" font-size="14.00">TEMP COE (9.0)</text>
<text text-anchor="start" x="140.5" y="-13.63" font-family="Times,serif" font-size="10.00">ECE/COE/BMES Electives</text>
</g>
</g>
</svg>
