<?xml version="1.0" encoding="UTF-8" standalone="no"?>
<!DOCTYPE svg PUBLIC "-//W3C//DTD SVG 1.1//EN"
 "http://www.w3.org/Graphics/SVG/1.1/DTD/svg11.dtd">
<!-- Generated by graphviz version 2.40.1 (20161225.0304)
 -->
<!-- Title: Classes Pages: 1 -->
<svg width="2178pt" height="1268pt"
 viewBox="0.00 0.00 2177.90 1268.00" xmlns="http://www.w3.org/2000/svg" xmlns:xlink="http://www.w3.org/1999/xlink">
<g id="graph0" class="graph" transform="scale(1 1) rotate(0) translate(4 1264)">
<title>Classes</title>
<polygon fill="#ffffff" stroke="transparent" points="-4,4 -4,-1264 2173.895,-1264 2173.895,4 -4,4"/>
<!-- freshman 1 (16.5) -->
<g id="node1" class="node">
<title>freshman 1 (16.5)</title>
<text text-anchor="middle" x="72" y="-1238.3" font-family="Times,serif" font-size="14.00" fill="#000000">freshman 1 (16.5)</text>
</g>
<!-- freshman 2 (19.5) -->
<g id="node2" class="node">
<title>freshman 2 (19.5)</title>
<text text-anchor="middle" x="72" y="-1166.3" font-family="Times,serif" font-size="14.00" fill="#000000">freshman 2 (19.5)</text>
</g>
<!-- freshman 1 (16.5)&#45;&gt;freshman 2 (19.5) -->
<g id="edge1" class="edge">
<title>freshman 1 (16.5)&#45;&gt;freshman 2 (19.5)</title>
<path fill="none" stroke="#000000" d="M72,-1223.8314C72,-1216.131 72,-1206.9743 72,-1198.4166"/>
<polygon fill="#000000" stroke="#000000" points="75.5001,-1198.4132 72,-1188.4133 68.5001,-1198.4133 75.5001,-1198.4132"/>
</g>
<!-- freshman 3 (17.5) -->
<g id="node3" class="node">
<title>freshman 3 (17.5)</title>
<text text-anchor="middle" x="72" y="-1094.3" font-family="Times,serif" font-size="14.00" fill="#000000">freshman 3 (17.5)</text>
</g>
<!-- freshman 2 (19.5)&#45;&gt;freshman 3 (17.5) -->
<g id="edge2" class="edge">
<title>freshman 2 (19.5)&#45;&gt;freshman 3 (17.5)</title>
<path fill="none" stroke="#000000" d="M72,-1151.8314C72,-1144.131 72,-1134.9743 72,-1126.4166"/>
<polygon fill="#000000" stroke="#000000" points="75.5001,-1126.4132 72,-1116.4133 68.5001,-1126.4133 75.5001,-1126.4132"/>
</g>
<!-- sophomore 1 (20) -->
<g id="node4" class="node">
<title>sophomore 1 (20)</title>
<text text-anchor="middle" x="72" y="-1022.3" font-family="Times,serif" font-size="14.00" fill="#000000">sophomore 1 (20)</text>
</g>
<!-- freshman 3 (17.5)&#45;&gt;sophomore 1 (20) -->
<g id="edge3" class="edge">
<title>freshman 3 (17.5)&#45;&gt;sophomore 1 (20)</title>
<path fill="none" stroke="#000000" d="M72,-1079.8314C72,-1072.131 72,-1062.9743 72,-1054.4166"/>
<polygon fill="#000000" stroke="#000000" points="75.5001,-1054.4132 72,-1044.4133 68.5001,-1054.4133 75.5001,-1054.4132"/>
</g>
<!-- sophomore 2 (17) -->
<g id="node5" class="node">
<title>sophomore 2 (17)</title>
<text text-anchor="middle" x="72" y="-950.3" font-family="Times,serif" font-size="14.00" fill="#000000">sophomore 2 (17)</text>
</g>
<!-- sophomore 1 (20)&#45;&gt;sophomore 2 (17) -->
<g id="edge4" class="edge">
<title>sophomore 1 (20)&#45;&gt;sophomore 2 (17)</title>
<path fill="none" stroke="#000000" d="M72,-1007.8314C72,-1000.131 72,-990.9743 72,-982.4166"/>
<polygon fill="#000000" stroke="#000000" points="75.5001,-982.4132 72,-972.4133 68.5001,-982.4133 75.5001,-982.4132"/>
</g>
<!-- COOP 1 -->
<g id="node6" class="node">
<title>COOP 1</title>
<text text-anchor="middle" x="72" y="-878.3" font-family="Times,serif" font-size="14.00" fill="#000000">COOP 1</text>
</g>
<!-- sophomore 2 (17)&#45;&gt;COOP 1 -->
<g id="edge5" class="edge">
<title>sophomore 2 (17)&#45;&gt;COOP 1</title>
<path fill="none" stroke="#000000" d="M72,-935.8314C72,-928.131 72,-918.9743 72,-910.4166"/>
<polygon fill="#000000" stroke="#000000" points="75.5001,-910.4132 72,-900.4133 68.5001,-910.4133 75.5001,-910.4132"/>
</g>
<!-- COOP 2 -->
<g id="node7" class="node">
<title>COOP 2</title>
<text text-anchor="middle" x="72" y="-806.3" font-family="Times,serif" font-size="14.00" fill="#000000">COOP 2</text>
</g>
<!-- COOP 1&#45;&gt;COOP 2 -->
<g id="edge6" class="edge">
<title>COOP 1&#45;&gt;COOP 2</title>
<path fill="none" stroke="#000000" d="M72,-863.8314C72,-856.131 72,-846.9743 72,-838.4166"/>
<polygon fill="#000000" stroke="#000000" points="75.5001,-838.4132 72,-828.4133 68.5001,-838.4133 75.5001,-838.4132"/>
</g>
<!-- pre&#45;junior 1 -->
<g id="node8" class="node">
<title>pre&#45;junior 1</title>
<text text-anchor="middle" x="72" y="-734.3" font-family="Times,serif" font-size="14.00" fill="#000000">pre&#45;junior 1</text>
</g>
<!-- COOP 2&#45;&gt;pre&#45;junior 1 -->
<g id="edge7" class="edge">
<title>COOP 2&#45;&gt;pre&#45;junior 1</title>
<path fill="none" stroke="#000000" d="M72,-791.8314C72,-784.131 72,-774.9743 72,-766.4166"/>
<polygon fill="#000000" stroke="#000000" points="75.5001,-766.4132 72,-756.4133 68.5001,-766.4133 75.5001,-766.4132"/>
</g>
<!-- pre&#45;junior 2 -->
<g id="node9" class="node">
<title>pre&#45;junior 2</title>
<text text-anchor="middle" x="72" y="-662.3" font-family="Times,serif" font-size="14.00" fill="#000000">pre&#45;junior 2</text>
</g>
<!-- pre&#45;junior 1&#45;&gt;pre&#45;junior 2 -->
<g id="edge8" class="edge">
<title>pre&#45;junior 1&#45;&gt;pre&#45;junior 2</title>
<path fill="none" stroke="#000000" d="M72,-719.8314C72,-712.131 72,-702.9743 72,-694.4166"/>
<polygon fill="#000000" stroke="#000000" points="75.5001,-694.4132 72,-684.4133 68.5001,-694.4133 75.5001,-694.4132"/>
</g>
<!-- COOP 3 -->
<g id="node10" class="node">
<title>COOP 3</title>
<text text-anchor="middle" x="72" y="-590.3" font-family="Times,serif" font-size="14.00" fill="#000000">COOP 3</text>
</g>
<!-- pre&#45;junior 2&#45;&gt;COOP 3 -->
<g id="edge9" class="edge">
<title>pre&#45;junior 2&#45;&gt;COOP 3</title>
<path fill="none" stroke="#000000" d="M72,-647.8314C72,-640.131 72,-630.9743 72,-622.4166"/>
<polygon fill="#000000" stroke="#000000" points="75.5001,-622.4132 72,-612.4133 68.5001,-622.4133 75.5001,-622.4132"/>
</g>
<!-- COOP 4 -->
<g id="node11" class="node">
<title>COOP 4</title>
<text text-anchor="middle" x="72" y="-518.3" font-family="Times,serif" font-size="14.00" fill="#000000">COOP 4</text>
</g>
<!-- COOP 3&#45;&gt;COOP 4 -->
<g id="edge10" class="edge">
<title>COOP 3&#45;&gt;COOP 4</title>
<path fill="none" stroke="#000000" d="M72,-575.8314C72,-568.131 72,-558.9743 72,-550.4166"/>
<polygon fill="#000000" stroke="#000000" points="75.5001,-550.4132 72,-540.4133 68.5001,-550.4133 75.5001,-550.4132"/>
</g>
<!-- junior 1 -->
<g id="node12" class="node">
<title>junior 1</title>
<text text-anchor="middle" x="72" y="-446.3" font-family="Times,serif" font-size="14.00" fill="#000000">junior 1</text>
</g>
<!-- COOP 4&#45;&gt;junior 1 -->
<g id="edge11" class="edge">
<title>COOP 4&#45;&gt;junior 1</title>
<path fill="none" stroke="#000000" d="M72,-503.8314C72,-496.131 72,-486.9743 72,-478.4166"/>
<polygon fill="#000000" stroke="#000000" points="75.5001,-478.4132 72,-468.4133 68.5001,-478.4133 75.5001,-478.4132"/>
</g>
<!-- junior 2 -->
<g id="node13" class="node">
<title>junior 2</title>
<text text-anchor="middle" x="72" y="-374.3" font-family="Times,serif" font-size="14.00" fill="#000000">junior 2</text>
</g>
<!-- junior 1&#45;&gt;junior 2 -->
<g id="edge12" class="edge">
<title>junior 1&#45;&gt;junior 2</title>
<path fill="none" stroke="#000000" d="M72,-431.8314C72,-424.131 72,-414.9743 72,-406.4166"/>
<polygon fill="#000000" stroke="#000000" points="75.5001,-406.4132 72,-396.4133 68.5001,-406.4133 75.5001,-406.4132"/>
</g>
<!-- COOP 5 -->
<g id="node14" class="node">
<title>COOP 5</title>
<text text-anchor="middle" x="72" y="-302.3" font-family="Times,serif" font-size="14.00" fill="#000000">COOP 5</text>
</g>
<!-- junior 2&#45;&gt;COOP 5 -->
<g id="edge13" class="edge">
<title>junior 2&#45;&gt;COOP 5</title>
<path fill="none" stroke="#000000" d="M72,-359.8314C72,-352.131 72,-342.9743 72,-334.4166"/>
<polygon fill="#000000" stroke="#000000" points="75.5001,-334.4132 72,-324.4133 68.5001,-334.4133 75.5001,-334.4132"/>
</g>
<!-- COOP 6 -->
<g id="node15" class="node">
<title>COOP 6</title>
<text text-anchor="middle" x="72" y="-230.3" font-family="Times,serif" font-size="14.00" fill="#000000">COOP 6</text>
</g>
<!-- COOP 5&#45;&gt;COOP 6 -->
<g id="edge14" class="edge">
<title>COOP 5&#45;&gt;COOP 6</title>
<path fill="none" stroke="#000000" d="M72,-287.8314C72,-280.131 72,-270.9743 72,-262.4166"/>
<polygon fill="#000000" stroke="#000000" points="75.5001,-262.4132 72,-252.4133 68.5001,-262.4133 75.5001,-262.4132"/>
</g>
<!-- senior 1 -->
<g id="node16" class="node">
<title>senior 1</title>
<text text-anchor="middle" x="72" y="-158.3" font-family="Times,serif" font-size="14.00" fill="#000000">senior 1</text>
</g>
<!-- COOP 6&#45;&gt;senior 1 -->
<g id="edge15" class="edge">
<title>COOP 6&#45;&gt;senior 1</title>
<path fill="none" stroke="#000000" d="M72,-215.8314C72,-208.131 72,-198.9743 72,-190.4166"/>
<polygon fill="#000000" stroke="#000000" points="75.5001,-190.4132 72,-180.4133 68.5001,-190.4133 75.5001,-190.4132"/>
</g>
<!-- senior 2 -->
<g id="node17" class="node">
<title>senior 2</title>
<text text-anchor="middle" x="72" y="-86.3" font-family="Times,serif" font-size="14.00" fill="#000000">senior 2</text>
</g>
<!-- senior 1&#45;&gt;senior 2 -->
<g id="edge16" class="edge">
<title>senior 1&#45;&gt;senior 2</title>
<path fill="none" stroke="#000000" d="M72,-143.8314C72,-136.131 72,-126.9743 72,-118.4166"/>
<polygon fill="#000000" stroke="#000000" points="75.5001,-118.4132 72,-108.4133 68.5001,-118.4133 75.5001,-118.4132"/>
</g>
<!-- senior 3 -->
<g id="node18" class="node">
<title>senior 3</title>
<text text-anchor="middle" x="72" y="-14.3" font-family="Times,serif" font-size="14.00" fill="#000000">senior 3</text>
</g>
<!-- senior 2&#45;&gt;senior 3 -->
<g id="edge17" class="edge">
<title>senior 2&#45;&gt;senior 3</title>
<path fill="none" stroke="#000000" d="M72,-71.8314C72,-64.131 72,-54.9743 72,-46.4166"/>
<polygon fill="#000000" stroke="#000000" points="75.5001,-46.4132 72,-36.4133 68.5001,-46.4133 75.5001,-46.4132"/>
</g>
<!-- UNIV 101 -->
<g id="node19" class="node">
<title>UNIV 101</title>
<ellipse fill="none" stroke="#00ff00" cx="220" cy="-1242" rx="57.6901" ry="18"/>
<text text-anchor="middle" x="220" y="-1238.3" font-family="Times,serif" font-size="14.00" fill="#000000">UNIV 101</text>
</g>
<!-- ENGL 101 -->
<g id="node20" class="node">
<title>ENGL 101</title>
<ellipse fill="none" stroke="#00ff00" cx="356" cy="-1242" rx="59.5901" ry="18"/>
<text text-anchor="middle" x="356" y="-1238.3" font-family="Times,serif" font-size="14.00" fill="#000000">ENGL 101</text>
</g>
<!-- ENGL 102 -->
<g id="node30" class="node">
<title>ENGL 102</title>
<ellipse fill="none" stroke="#00ff00" cx="356" cy="-1170" rx="59.5901" ry="18"/>
<text text-anchor="middle" x="356" y="-1166.3" font-family="Times,serif" font-size="14.00" fill="#000000">ENGL 102</text>
</g>
<!-- ENGL 101&#45;&gt;ENGL 102 -->
<g id="edge18" class="edge">
<title>ENGL 101&#45;&gt;ENGL 102</title>
<path fill="none" stroke="#000000" d="M356,-1223.8314C356,-1216.131 356,-1206.9743 356,-1198.4166"/>
<polygon fill="#000000" stroke="#000000" points="359.5001,-1198.4132 356,-1188.4133 352.5001,-1198.4133 359.5001,-1198.4132"/>
</g>
<!-- ENGR 100 -->
<g id="node21" class="node">
<title>ENGR 100</title>
<ellipse fill="none" stroke="#00ff00" cx="494" cy="-1242" rx="60.3893" ry="18"/>
<text text-anchor="middle" x="494" y="-1238.3" font-family="Times,serif" font-size="14.00" fill="#000000">ENGR 100</text>
</g>
<!-- CHEM 101 -->
<g id="node22" class="node">
<title>CHEM 101</title>
<ellipse fill="none" stroke="#00ff00" cx="962" cy="-1242" rx="63.0888" ry="18"/>
<text text-anchor="middle" x="962" y="-1238.3" font-family="Times,serif" font-size="14.00" fill="#000000">CHEM 101</text>
</g>
<!-- CHEM 102 -->
<g id="node31" class="node">
<title>CHEM 102</title>
<ellipse fill="none" stroke="#00ff00" cx="962" cy="-1170" rx="63.0888" ry="18"/>
<text text-anchor="middle" x="962" y="-1166.3" font-family="Times,serif" font-size="14.00" fill="#000000">CHEM 102</text>
</g>
<!-- CHEM 101&#45;&gt;CHEM 102 -->
<g id="edge21" class="edge">
<title>CHEM 101&#45;&gt;CHEM 102</title>
<path fill="none" stroke="#000000" d="M962,-1223.8314C962,-1216.131 962,-1206.9743 962,-1198.4166"/>
<polygon fill="#000000" stroke="#000000" points="965.5001,-1198.4132 962,-1188.4133 958.5001,-1198.4133 965.5001,-1198.4132"/>
</g>
<!-- ENGR 101 -->
<g id="node23" class="node">
<title>ENGR 101</title>
<ellipse fill="none" stroke="#00ff00" cx="1255" cy="-1242" rx="60.3893" ry="18"/>
<text text-anchor="middle" x="1255" y="-1238.3" font-family="Times,serif" font-size="14.00" fill="#000000">ENGR 101</text>
</g>
<!-- ENGR 102 -->
<g id="node32" class="node">
<title>ENGR 102</title>
<ellipse fill="none" stroke="#00ff00" cx="1255" cy="-1170" rx="60.3893" ry="18"/>
<text text-anchor="middle" x="1255" y="-1166.3" font-family="Times,serif" font-size="14.00" fill="#000000">ENGR 102</text>
</g>
<!-- ENGR 101&#45;&gt;ENGR 102 -->
<g id="edge28" class="edge">
<title>ENGR 101&#45;&gt;ENGR 102</title>
<path fill="none" stroke="#000000" d="M1255,-1223.8314C1255,-1216.131 1255,-1206.9743 1255,-1198.4166"/>
<polygon fill="#000000" stroke="#000000" points="1258.5001,-1198.4132 1255,-1188.4133 1251.5001,-1198.4133 1258.5001,-1198.4132"/>
</g>
<!-- ENGR 121 -->
<g id="node24" class="node">
<title>ENGR 121</title>
<ellipse fill="none" stroke="#00ff00" cx="633" cy="-1242" rx="60.3893" ry="18"/>
<text text-anchor="middle" x="633" y="-1238.3" font-family="Times,serif" font-size="14.00" fill="#000000">ENGR 121</text>
</g>
<!-- ENGR 231 -->
<g id="node44" class="node">
<title>ENGR 231</title>
<ellipse fill="none" stroke="#ffa500" cx="742" cy="-1026" rx="60.3893" ry="18"/>
<text text-anchor="middle" x="742" y="-1022.3" font-family="Times,serif" font-size="14.00" fill="#000000">ENGR 231</text>
</g>
<!-- ENGR 121&#45;&gt;ENGR 231 -->
<g id="edge39" class="edge">
<title>ENGR 121&#45;&gt;ENGR 231</title>
<path fill="none" stroke="#000000" d="M633.34,-1223.9313C634.7337,-1192.2755 641.2849,-1125.8047 671,-1080 679.3546,-1067.1217 691.8843,-1056.1203 704.1032,-1047.4732"/>
<polygon fill="#000000" stroke="#000000" points="706.103,-1050.3463 712.4577,-1041.8687 702.2033,-1044.5332 706.103,-1050.3463"/>
</g>
<!-- ENGR 232 -->
<g id="node50" class="node">
<title>ENGR 232</title>
<ellipse fill="none" stroke="#000000" cx="734" cy="-954" rx="60.3893" ry="18"/>
<text text-anchor="middle" x="734" y="-950.3" font-family="Times,serif" font-size="14.00" fill="#000000">ENGR 232</text>
</g>
<!-- ENGR 121&#45;&gt;ENGR 232 -->
<g id="edge41" class="edge">
<title>ENGR 121&#45;&gt;ENGR 232</title>
<path fill="none" stroke="#000000" d="M631.4812,-1223.8479C628.9026,-1182.0733 627.7611,-1077.3976 673,-1008 680.6321,-996.2922 691.4605,-985.5773 701.8808,-976.8331"/>
<polygon fill="#000000" stroke="#000000" points="704.1038,-979.5368 709.7099,-970.5466 699.7211,-974.0785 704.1038,-979.5368"/>
</g>
<!-- MATH 121 -->
<g id="node25" class="node">
<title>MATH 121</title>
<ellipse fill="none" stroke="#00ff00" cx="819" cy="-1242" rx="61.99" ry="18"/>
<text text-anchor="middle" x="819" y="-1238.3" font-family="Times,serif" font-size="14.00" fill="#000000">MATH 121</text>
</g>
<!-- MATH 122 -->
<g id="node34" class="node">
<title>MATH 122</title>
<ellipse fill="none" stroke="#00ff00" cx="819" cy="-1170" rx="61.99" ry="18"/>
<text text-anchor="middle" x="819" y="-1166.3" font-family="Times,serif" font-size="14.00" fill="#000000">MATH 122</text>
</g>
<!-- MATH 121&#45;&gt;MATH 122 -->
<g id="edge25" class="edge">
<title>MATH 121&#45;&gt;MATH 122</title>
<path fill="none" stroke="#000000" d="M819,-1223.8314C819,-1216.131 819,-1206.9743 819,-1198.4166"/>
<polygon fill="#000000" stroke="#000000" points="822.5001,-1198.4132 819,-1188.4133 815.5001,-1198.4133 822.5001,-1198.4132"/>
</g>
<!-- CS 190 -->
<g id="node26" class="node">
<title>CS 190</title>
<polygon fill="none" stroke="#00ff00" points="1397,-1260 1333.6562,-1242 1397,-1224 1460.3438,-1242 1397,-1260"/>
<text text-anchor="middle" x="1397" y="-1238.3" font-family="Times,serif" font-size="14.00" fill="#000000">CS 190</text>
</g>
<!-- TGFE 099 -->
<g id="node27" class="node">
<title>TGFE 099</title>
<polygon fill="none" stroke="#00ff00" points="1560,-1260 1478.3895,-1242 1560,-1224 1641.6105,-1242 1560,-1260"/>
<text text-anchor="middle" x="1560" y="-1238.3" font-family="Times,serif" font-size="14.00" fill="#000000">TGFE 099</text>
</g>
<!-- SPAN 101 -->
<g id="node28" class="node">
<title>SPAN 101</title>
<polygon fill="none" stroke="#00ff00" points="1793.5876,-1242 1760.2938,-1260 1693.7062,-1260 1660.4124,-1242 1693.7062,-1224 1760.2938,-1224 1793.5876,-1242"/>
<text text-anchor="middle" x="1727" y="-1238.3" font-family="Times,serif" font-size="14.00" fill="#000000">SPAN 101</text>
</g>
<!-- CIVC 101 -->
<g id="node29" class="node">
<title>CIVC 101</title>
<ellipse fill="none" stroke="#00ff00" cx="1390" cy="-1170" rx="56.59" ry="18"/>
<text text-anchor="middle" x="1390" y="-1166.3" font-family="Times,serif" font-size="14.00" fill="#000000">CIVC 101</text>
</g>
<!-- ENGL 103 -->
<g id="node36" class="node">
<title>ENGL 103</title>
<ellipse fill="none" stroke="#00ff00" cx="356" cy="-1098" rx="59.5901" ry="18"/>
<text text-anchor="middle" x="356" y="-1094.3" font-family="Times,serif" font-size="14.00" fill="#000000">ENGL 103</text>
</g>
<!-- ENGL 102&#45;&gt;ENGL 103 -->
<g id="edge19" class="edge">
<title>ENGL 102&#45;&gt;ENGL 103</title>
<path fill="none" stroke="#000000" d="M356,-1151.8314C356,-1144.131 356,-1134.9743 356,-1126.4166"/>
<polygon fill="#000000" stroke="#000000" points="359.5001,-1126.4132 356,-1116.4133 352.5001,-1126.4133 359.5001,-1126.4132"/>
</g>
<!-- ENGR 220 -->
<g id="node43" class="node">
<title>ENGR 220</title>
<ellipse fill="none" stroke="#ffa500" cx="905" cy="-1026" rx="60.3893" ry="18"/>
<text text-anchor="middle" x="905" y="-1022.3" font-family="Times,serif" font-size="14.00" fill="#000000">ENGR 220</text>
</g>
<!-- CHEM 102&#45;&gt;ENGR 220 -->
<g id="edge36" class="edge">
<title>CHEM 102&#45;&gt;ENGR 220</title>
<path fill="none" stroke="#000000" d="M950.7125,-1151.9989C944.6028,-1141.7261 937.2532,-1128.4501 932,-1116 923.4649,-1095.772 916.4416,-1071.9378 911.6995,-1053.88"/>
<polygon fill="#000000" stroke="#000000" points="915.0391,-1052.8114 909.1768,-1043.9862 908.2561,-1054.541 915.0391,-1052.8114"/>
</g>
<!-- ENGR 103 -->
<g id="node37" class="node">
<title>ENGR 103</title>
<ellipse fill="none" stroke="#00ff00" cx="1255" cy="-1098" rx="60.3893" ry="18"/>
<text text-anchor="middle" x="1255" y="-1094.3" font-family="Times,serif" font-size="14.00" fill="#000000">ENGR 103</text>
</g>
<!-- ENGR 102&#45;&gt;ENGR 103 -->
<g id="edge29" class="edge">
<title>ENGR 102&#45;&gt;ENGR 103</title>
<path fill="none" stroke="#000000" d="M1255,-1151.8314C1255,-1144.131 1255,-1134.9743 1255,-1126.4166"/>
<polygon fill="#000000" stroke="#000000" points="1258.5001,-1126.4132 1255,-1116.4133 1251.5001,-1126.4133 1258.5001,-1126.4132"/>
</g>
<!-- ENGR 122 -->
<g id="node33" class="node">
<title>ENGR 122</title>
<ellipse fill="none" stroke="#00ff00" cx="1525" cy="-1170" rx="60.3893" ry="18"/>
<text text-anchor="middle" x="1525" y="-1166.3" font-family="Times,serif" font-size="14.00" fill="#000000">ENGR 122</text>
</g>
<!-- MATH 200 -->
<g id="node41" class="node">
<title>MATH 200</title>
<ellipse fill="none" stroke="#00ff00" cx="742" cy="-1098" rx="61.99" ry="18"/>
<text text-anchor="middle" x="742" y="-1094.3" font-family="Times,serif" font-size="14.00" fill="#000000">MATH 200</text>
</g>
<!-- MATH 122&#45;&gt;MATH 200 -->
<g id="edge26" class="edge">
<title>MATH 122&#45;&gt;MATH 200</title>
<path fill="none" stroke="#000000" d="M800.3604,-1152.5708C790.6186,-1143.4616 778.5406,-1132.1679 767.9041,-1122.2221"/>
<polygon fill="#000000" stroke="#000000" points="770.1627,-1119.5422 760.4679,-1115.2687 765.3817,-1124.6551 770.1627,-1119.5422"/>
</g>
<!-- ENGR 201 -->
<g id="node42" class="node">
<title>ENGR 201</title>
<ellipse fill="none" stroke="#ffa500" cx="1166" cy="-1026" rx="60.3893" ry="18"/>
<text text-anchor="middle" x="1166" y="-1022.3" font-family="Times,serif" font-size="14.00" fill="#000000">ENGR 201</text>
</g>
<!-- MATH 122&#45;&gt;ENGR 201 -->
<g id="edge32" class="edge">
<title>MATH 122&#45;&gt;ENGR 201</title>
<path fill="none" stroke="#000000" d="M864.7095,-1157.8558C873.095,-1155.7865 881.7906,-1153.7449 890,-1152 982.1972,-1132.4036 1018.6791,-1165.3245 1099,-1116 1123.327,-1101.061 1141.7587,-1073.7306 1153.0722,-1053.0924"/>
<polygon fill="#000000" stroke="#000000" points="1156.2175,-1054.6307 1157.765,-1044.1495 1150.0191,-1051.3781 1156.2175,-1054.6307"/>
</g>
<!-- MATH 122&#45;&gt;ENGR 220 -->
<g id="edge37" class="edge">
<title>MATH 122&#45;&gt;ENGR 220</title>
<path fill="none" stroke="#000000" d="M829.7181,-1152.0535C844.5886,-1127.154 871.5976,-1081.9295 888.8985,-1052.9606"/>
<polygon fill="#000000" stroke="#000000" points="892.0243,-1054.5528 894.1469,-1044.1727 886.0145,-1050.9635 892.0243,-1054.5528"/>
</g>
<!-- MATH 122&#45;&gt;ENGR 231 -->
<g id="edge40" class="edge">
<title>MATH 122&#45;&gt;ENGR 231</title>
<path fill="none" stroke="#000000" d="M821.9877,-1151.8968C824.2189,-1132.8192 825.0932,-1102.4788 813,-1080 805.8464,-1066.7028 793.843,-1055.7015 781.7216,-1047.1759"/>
<polygon fill="#000000" stroke="#000000" points="783.6451,-1044.2518 773.3692,-1041.6714 779.7931,-1050.0967 783.6451,-1044.2518"/>
</g>
<!-- PHYS 101 -->
<g id="node35" class="node">
<title>PHYS 101</title>
<ellipse fill="none" stroke="#00ff00" cx="1102" cy="-1170" rx="58.4896" ry="18"/>
<text text-anchor="middle" x="1102" y="-1166.3" font-family="Times,serif" font-size="14.00" fill="#000000">PHYS 101</text>
</g>
<!-- PHYS 102 -->
<g id="node40" class="node">
<title>PHYS 102</title>
<ellipse fill="none" stroke="#00ff00" cx="1032" cy="-1098" rx="58.4896" ry="18"/>
<text text-anchor="middle" x="1032" y="-1094.3" font-family="Times,serif" font-size="14.00" fill="#000000">PHYS 102</text>
</g>
<!-- PHYS 101&#45;&gt;PHYS 102 -->
<g id="edge22" class="edge">
<title>PHYS 101&#45;&gt;PHYS 102</title>
<path fill="none" stroke="#000000" d="M1085.055,-1152.5708C1076.2847,-1143.55 1065.4318,-1132.387 1055.8312,-1122.5121"/>
<polygon fill="#000000" stroke="#000000" points="1058.2693,-1119.9989 1048.789,-1115.2687 1053.2503,-1124.8784 1058.2693,-1119.9989"/>
</g>
<!-- PHYS 101&#45;&gt;ENGR 201 -->
<g id="edge33" class="edge">
<title>PHYS 101&#45;&gt;ENGR 201</title>
<path fill="none" stroke="#000000" d="M1115.696,-1152.2815C1123.0749,-1142.0971 1131.8913,-1128.8154 1138,-1116 1147.5206,-1096.0269 1154.7953,-1072.0447 1159.5406,-1053.8606"/>
<polygon fill="#000000" stroke="#000000" points="1162.936,-1054.7095 1161.9774,-1044.1581 1156.1469,-1053.0043 1162.936,-1054.7095"/>
</g>
<!-- PHYS 101&#45;&gt;ENGR 220 -->
<g id="edge38" class="edge">
<title>PHYS 101&#45;&gt;ENGR 220</title>
<path fill="none" stroke="#000000" d="M1061.3792,-1157.0022C1026.7835,-1145.3946 980.3177,-1128.3648 965,-1116 944.0291,-1099.0719 927.7143,-1072.8385 917.4258,-1053.0533"/>
<polygon fill="#000000" stroke="#000000" points="920.4664,-1051.3081 912.8651,-1043.9276 914.2048,-1054.4374 920.4664,-1051.3081"/>
</g>
<!-- ENGR 103&#45;&gt;ENGR 201 -->
<g id="edge34" class="edge">
<title>ENGR 103&#45;&gt;ENGR 201</title>
<path fill="none" stroke="#000000" d="M1233.9082,-1080.937C1222.2702,-1071.522 1207.646,-1059.6912 1194.9524,-1049.4221"/>
<polygon fill="#000000" stroke="#000000" points="1196.9162,-1046.5089 1186.9404,-1042.9405 1192.5135,-1051.9511 1196.9162,-1046.5089"/>
</g>
<!-- ECE 200 -->
<g id="node46" class="node">
<title>ECE 200</title>
<ellipse fill="none" stroke="#ffa500" cx="1454" cy="-1026" rx="51.9908" ry="18"/>
<text text-anchor="middle" x="1454" y="-1022.3" font-family="Times,serif" font-size="14.00" fill="#000000">ECE 200</text>
</g>
<!-- ENGR 103&#45;&gt;ECE 200 -->
<g id="edge30" class="edge">
<title>ENGR 103&#45;&gt;ECE 200</title>
<path fill="none" stroke="#000000" d="M1293.8416,-1083.9468C1326.7197,-1072.0512 1373.8865,-1054.9858 1408.5214,-1042.4546"/>
<polygon fill="#000000" stroke="#000000" points="1409.7229,-1045.742 1417.9356,-1039.0484 1407.3413,-1039.1595 1409.7229,-1045.742"/>
</g>
<!-- ECEL 301 -->
<g id="node56" class="node">
<title>ECEL 301</title>
<ellipse fill="none" stroke="#000000" cx="1255" cy="-738" rx="58.4896" ry="18"/>
<text text-anchor="middle" x="1255" y="-734.3" font-family="Times,serif" font-size="14.00" fill="#000000">ECEL 301</text>
</g>
<!-- ENGR 103&#45;&gt;ECEL 301 -->
<g id="edge64" class="edge">
<title>ENGR 103&#45;&gt;ECEL 301</title>
<path fill="none" stroke="#000000" d="M1255,-1079.8146C1255,-1052.4983 1255,-999.25 1255,-954 1255,-954 1255,-954 1255,-882 1255,-841.876 1255,-795.4631 1255,-766.4177"/>
<polygon fill="#000000" stroke="#000000" points="1258.5001,-766.1853 1255,-756.1854 1251.5001,-766.1854 1258.5001,-766.1853"/>
</g>
<!-- BIO 141 -->
<g id="node38" class="node">
<title>BIO 141</title>
<ellipse fill="none" stroke="#00ff00" cx="1383" cy="-1098" rx="50.0912" ry="18"/>
<text text-anchor="middle" x="1383" y="-1094.3" font-family="Times,serif" font-size="14.00" fill="#000000">BIO 141</text>
</g>
<!-- COOP 101 -->
<g id="node39" class="node">
<title>COOP 101</title>
<ellipse fill="none" stroke="#00ff00" cx="1511" cy="-1098" rx="60.3893" ry="18"/>
<text text-anchor="middle" x="1511" y="-1094.3" font-family="Times,serif" font-size="14.00" fill="#000000">COOP 101</text>
</g>
<!-- ECE 201 -->
<g id="node48" class="node">
<title>ECE 201</title>
<ellipse fill="none" stroke="#000000" cx="902" cy="-954" rx="51.9908" ry="18"/>
<text text-anchor="middle" x="902" y="-950.3" font-family="Times,serif" font-size="14.00" fill="#000000">ECE 201</text>
</g>
<!-- PHYS 102&#45;&gt;ECE 201 -->
<g id="edge24" class="edge">
<title>PHYS 102&#45;&gt;ECE 201</title>
<path fill="none" stroke="#000000" d="M1022.9619,-1080.1272C1012.7368,-1060.9701 994.7772,-1030.3082 974,-1008 962.8383,-996.0158 948.7471,-984.7929 935.9963,-975.7169"/>
<polygon fill="#000000" stroke="#000000" points="937.6503,-972.6052 927.4354,-969.7934 933.6673,-978.3616 937.6503,-972.6052"/>
</g>
<!-- PHYS 201 -->
<g id="node52" class="node">
<title>PHYS 201</title>
<ellipse fill="none" stroke="#000000" cx="1030" cy="-954" rx="58.4896" ry="18"/>
<text text-anchor="middle" x="1030" y="-950.3" font-family="Times,serif" font-size="14.00" fill="#000000">PHYS 201</text>
</g>
<!-- PHYS 102&#45;&gt;PHYS 201 -->
<g id="edge23" class="edge">
<title>PHYS 102&#45;&gt;PHYS 201</title>
<path fill="none" stroke="#000000" d="M1031.7467,-1079.7623C1031.4056,-1055.201 1030.7951,-1011.2474 1030.3938,-982.3541"/>
<polygon fill="#000000" stroke="#000000" points="1033.8899,-982.04 1030.2512,-972.0896 1026.8906,-982.1373 1033.8899,-982.04"/>
</g>
<!-- MATH 200&#45;&gt;ENGR 231 -->
<g id="edge27" class="edge">
<title>MATH 200&#45;&gt;ENGR 231</title>
<path fill="none" stroke="#000000" d="M742,-1079.8314C742,-1072.131 742,-1062.9743 742,-1054.4166"/>
<polygon fill="#000000" stroke="#000000" points="745.5001,-1054.4132 742,-1044.4133 738.5001,-1054.4133 745.5001,-1054.4132"/>
</g>
<!-- ENGR 202 -->
<g id="node49" class="node">
<title>ENGR 202</title>
<ellipse fill="none" stroke="#000000" cx="1167" cy="-954" rx="60.3893" ry="18"/>
<text text-anchor="middle" x="1167" y="-950.3" font-family="Times,serif" font-size="14.00" fill="#000000">ENGR 202</text>
</g>
<!-- ENGR 201&#45;&gt;ENGR 202 -->
<g id="edge35" class="edge">
<title>ENGR 201&#45;&gt;ENGR 202</title>
<path fill="none" stroke="#000000" d="M1166.2523,-1007.8314C1166.3593,-1000.131 1166.4865,-990.9743 1166.6053,-982.4166"/>
<polygon fill="#000000" stroke="#000000" points="1170.1049,-982.4609 1166.7443,-972.4133 1163.1056,-982.3637 1170.1049,-982.4609"/>
</g>
<!-- ENGR 231&#45;&gt;ENGR 232 -->
<g id="edge42" class="edge">
<title>ENGR 231&#45;&gt;ENGR 232</title>
<path fill="none" stroke="#000000" d="M739.9813,-1007.8314C739.1257,-1000.131 738.1083,-990.9743 737.1574,-982.4166"/>
<polygon fill="#000000" stroke="#000000" points="740.6289,-981.9656 736.0459,-972.4133 733.6717,-982.7386 740.6289,-981.9656"/>
</g>
<!-- ECE 361 -->
<g id="node57" class="node">
<title>ECE 361</title>
<ellipse fill="none" stroke="#000000" cx="932" cy="-738" rx="51.9908" ry="18"/>
<text text-anchor="middle" x="932" y="-734.3" font-family="Times,serif" font-size="14.00" fill="#000000">ECE 361</text>
</g>
<!-- ENGR 231&#45;&gt;ECE 361 -->
<g id="edge47" class="edge">
<title>ENGR 231&#45;&gt;ECE 361</title>
<path fill="none" stroke="#000000" d="M764.5994,-1009.1306C776.9124,-999.2117 791.8635,-985.9129 803,-972 857.1495,-904.3504 900.9579,-810.84 920.6866,-765.2254"/>
<polygon fill="#000000" stroke="#000000" points="923.9232,-766.5581 924.635,-755.9872 917.4865,-763.807 923.9232,-766.5581"/>
</g>
<!-- ECE 203 -->
<g id="node45" class="node">
<title>ECE 203</title>
<ellipse fill="none" stroke="#ffa500" cx="1813" cy="-1026" rx="51.9908" ry="18"/>
<text text-anchor="middle" x="1813" y="-1022.3" font-family="Times,serif" font-size="14.00" fill="#000000">ECE 203</text>
</g>
<!-- ECEC 301 -->
<g id="node54" class="node">
<title>ECEC 301</title>
<ellipse fill="none" stroke="#000000" cx="1913" cy="-738" rx="59.5901" ry="18"/>
<text text-anchor="middle" x="1913" y="-734.3" font-family="Times,serif" font-size="14.00" fill="#000000">ECEC 301</text>
</g>
<!-- ECE 203&#45;&gt;ECEC 301 -->
<g id="edge43" class="edge">
<title>ECE 203&#45;&gt;ECEC 301</title>
<path fill="none" stroke="#000000" d="M1822.3181,-1008.2855C1827.5908,-997.8807 1834.0908,-984.3807 1839,-972 1867.8615,-899.2136 1893.419,-810.3459 1905.5437,-765.9912"/>
<polygon fill="#000000" stroke="#000000" points="1908.956,-766.7806 1908.1956,-756.2131 1902.2001,-764.9484 1908.956,-766.7806"/>
</g>
<!-- ECEC 302 -->
<g id="node55" class="node">
<title>ECEC 302</title>
<ellipse fill="none" stroke="#000000" cx="1561" cy="-738" rx="59.5901" ry="18"/>
<text text-anchor="middle" x="1561" y="-734.3" font-family="Times,serif" font-size="14.00" fill="#000000">ECEC 302</text>
</g>
<!-- ECE 203&#45;&gt;ECEC 302 -->
<g id="edge53" class="edge">
<title>ECE 203&#45;&gt;ECEC 302</title>
<path fill="none" stroke="#000000" d="M1797.6156,-1008.4178C1754.648,-959.312 1633.2374,-820.5571 1583.0906,-763.2464"/>
<polygon fill="#000000" stroke="#000000" points="1585.7223,-760.939 1576.5032,-755.718 1580.4543,-765.5486 1585.7223,-760.939"/>
</g>
<!-- ECEC 357 -->
<g id="node58" class="node">
<title>ECEC 357</title>
<ellipse fill="none" stroke="#000000" cx="1737" cy="-738" rx="59.5901" ry="18"/>
<text text-anchor="middle" x="1737" y="-734.3" font-family="Times,serif" font-size="14.00" fill="#000000">ECEC 357</text>
</g>
<!-- ECE 203&#45;&gt;ECEC 357 -->
<g id="edge63" class="edge">
<title>ECE 203&#45;&gt;ECEC 357</title>
<path fill="none" stroke="#000000" d="M1808.2459,-1007.9843C1795.3704,-959.1929 1759.7572,-824.2377 1744.3078,-765.6927"/>
<polygon fill="#000000" stroke="#000000" points="1747.6881,-764.7848 1741.7523,-756.0089 1740.9198,-766.571 1747.6881,-764.7848"/>
</g>
<!-- ECEC 304 -->
<g id="node60" class="node">
<title>ECEC 304</title>
<ellipse fill="none" stroke="#000000" cx="1745" cy="-666" rx="59.5901" ry="18"/>
<text text-anchor="middle" x="1745" y="-662.3" font-family="Times,serif" font-size="14.00" fill="#000000">ECEC 304</text>
</g>
<!-- ECE 203&#45;&gt;ECEC 304 -->
<g id="edge55" class="edge">
<title>ECE 203&#45;&gt;ECEC 304</title>
<path fill="none" stroke="#000000" d="M1815.4864,-1007.855C1819.0013,-980.5902 1825,-927.4068 1825,-882 1825,-882 1825,-882 1825,-810 1825,-769.1184 1826.5655,-755.3323 1806,-720 1799.0262,-708.0188 1788.4504,-697.2961 1778.0532,-688.6247"/>
<polygon fill="#000000" stroke="#000000" points="1780.2125,-685.8702 1770.1998,-682.4066 1775.8672,-691.3582 1780.2125,-685.8702"/>
</g>
<!-- MATH 221 -->
<g id="node51" class="node">
<title>MATH 221</title>
<ellipse fill="none" stroke="#000000" cx="1345" cy="-954" rx="61.99" ry="18"/>
<text text-anchor="middle" x="1345" y="-950.3" font-family="Times,serif" font-size="14.00" fill="#000000">MATH 221</text>
</g>
<!-- ECE 200&#45;&gt;MATH 221 -->
<g id="edge31" class="edge">
<title>ECE 200&#45;&gt;MATH 221</title>
<path fill="none" stroke="#000000" d="M1429.8094,-1010.0209C1414.8861,-1000.1633 1395.5172,-987.3692 1379.0576,-976.4967"/>
<polygon fill="#000000" stroke="#000000" points="1380.5324,-973.2763 1370.2593,-970.6851 1376.6742,-979.1171 1380.5324,-973.2763"/>
</g>
<!-- ECE 200&#45;&gt;ECEC 302 -->
<g id="edge54" class="edge">
<title>ECE 200&#45;&gt;ECEC 302</title>
<path fill="none" stroke="#000000" d="M1466.4473,-1008.1135C1473.1776,-997.8765 1481.2615,-984.5982 1487,-972 1519.5388,-900.5648 1543.5688,-810.7585 1554.485,-766.0187"/>
<polygon fill="#000000" stroke="#000000" points="1557.9206,-766.7013 1556.8552,-756.1601 1551.1145,-765.0649 1557.9206,-766.7013"/>
</g>
<!-- ECE 200&#45;&gt;ECEL 301 -->
<g id="edge65" class="edge">
<title>ECE 200&#45;&gt;ECEL 301</title>
<path fill="none" stroke="#000000" d="M1448.1167,-1008.0339C1441.6105,-989.3359 1430.1526,-959.551 1416,-936 1375.265,-868.2138 1313.0613,-798.6941 1279.1323,-762.8145"/>
<polygon fill="#000000" stroke="#000000" points="1281.3728,-760.0921 1271.9408,-755.2663 1276.3047,-764.9207 1281.3728,-760.0921"/>
</g>
<!-- ECE 200&#45;&gt;ECEC 304 -->
<g id="edge56" class="edge">
<title>ECE 200&#45;&gt;ECEC 304</title>
<path fill="none" stroke="#000000" d="M1473.1764,-1009.2369C1484.2818,-999.0433 1498.1628,-985.4365 1509,-972 1592.1394,-868.9193 1576.6668,-815.8959 1668,-720 1679.6391,-707.7795 1694.4316,-696.6243 1707.9338,-687.6664"/>
<polygon fill="#000000" stroke="#000000" points="1710.0578,-690.4617 1716.5743,-682.1078 1706.2706,-684.5746 1710.0578,-690.4617"/>
</g>
<!-- ECEC 355 -->
<g id="node61" class="node">
<title>ECEC 355</title>
<ellipse fill="none" stroke="#000000" cx="1517" cy="-666" rx="59.5901" ry="18"/>
<text text-anchor="middle" x="1517" y="-662.3" font-family="Times,serif" font-size="14.00" fill="#000000">ECEC 355</text>
</g>
<!-- ECE 200&#45;&gt;ECEC 355 -->
<g id="edge58" class="edge">
<title>ECE 200&#45;&gt;ECEC 355</title>
<path fill="none" stroke="#000000" d="M1457.9368,-1007.9156C1463.502,-980.7281 1473,-927.6422 1473,-882 1473,-882 1473,-882 1473,-810 1473,-769.1184 1479.1082,-758.7958 1492,-720 1494.9824,-711.0249 1499.0288,-701.5633 1502.9968,-693.1109"/>
<polygon fill="#000000" stroke="#000000" points="1506.1641,-694.6009 1507.3826,-684.0763 1499.8668,-691.5439 1506.1641,-694.6009"/>
</g>
<!-- PHIL 111 -->
<g id="node47" class="node">
<title>PHIL 111</title>
<polygon fill="none" stroke="#ffa500" points="2054.5841,-1026 2022.292,-1044 1957.708,-1044 1925.4159,-1026 1957.708,-1008 2022.292,-1008 2054.5841,-1026"/>
<text text-anchor="middle" x="1990" y="-1022.3" font-family="Times,serif" font-size="14.00" fill="#000000">PHIL 111</text>
</g>
<!-- PHIL 207 -->
<g id="node53" class="node">
<title>PHIL 207</title>
<polygon fill="none" stroke="#000000" points="2054.5841,-882 2022.292,-900 1957.708,-900 1925.4159,-882 1957.708,-864 2022.292,-864 2054.5841,-882"/>
<text text-anchor="middle" x="1990" y="-878.3" font-family="Times,serif" font-size="14.00" fill="#000000">PHIL 207</text>
</g>
<!-- PHIL 111&#45;&gt;PHIL 207 -->
<g id="edge20" class="edge">
<title>PHIL 111&#45;&gt;PHIL 207</title>
<path fill="none" stroke="#000000" d="M1990,-1007.7623C1990,-983.201 1990,-939.2474 1990,-910.3541"/>
<polygon fill="#000000" stroke="#000000" points="1993.5001,-910.0896 1990,-900.0896 1986.5001,-910.0897 1993.5001,-910.0896"/>
</g>
<!-- ECE 201&#45;&gt;ECEL 301 -->
<g id="edge66" class="edge">
<title>ECE 201&#45;&gt;ECEL 301</title>
<path fill="none" stroke="#000000" d="M927.6712,-938.2918C989.8996,-900.2144 1148.8803,-802.9345 1219.8574,-759.5037"/>
<polygon fill="#000000" stroke="#000000" points="1221.764,-762.4403 1228.4671,-754.2355 1218.1104,-756.4694 1221.764,-762.4403"/>
</g>
<!-- ECES 301 -->
<g id="node63" class="node">
<title>ECES 301</title>
<ellipse fill="none" stroke="#000000" cx="792" cy="-666" rx="58.4896" ry="18"/>
<text text-anchor="middle" x="792" y="-662.3" font-family="Times,serif" font-size="14.00" fill="#000000">ECES 301</text>
</g>
<!-- ECE 201&#45;&gt;ECES 301 -->
<g id="edge69" class="edge">
<title>ECE 201&#45;&gt;ECES 301</title>
<path fill="none" stroke="#000000" d="M895.119,-935.9843C876.4834,-887.1929 824.938,-752.2377 802.5771,-693.6927"/>
<polygon fill="#000000" stroke="#000000" points="805.7161,-692.1018 798.8784,-684.0089 799.1769,-694.5995 805.7161,-692.1018"/>
</g>
<!-- ENGR 202&#45;&gt;ECE 361 -->
<g id="edge48" class="edge">
<title>ENGR 202&#45;&gt;ECE 361</title>
<path fill="none" stroke="#000000" d="M1148.1662,-936.6889C1106.3817,-898.2827 1005.8484,-805.8776 958.0675,-761.9599"/>
<polygon fill="#000000" stroke="#000000" points="960.3283,-759.284 950.5973,-755.0937 955.5912,-764.4377 960.3283,-759.284"/>
</g>
<!-- ENGR 232&#45;&gt;ECES 301 -->
<g id="edge70" class="edge">
<title>ENGR 232&#45;&gt;ECES 301</title>
<path fill="none" stroke="#000000" d="M737.6282,-935.9843C747.4339,-887.2939 774.5202,-752.7961 786.3496,-694.0573"/>
<polygon fill="#000000" stroke="#000000" points="789.83,-694.5031 788.3732,-684.0089 782.9678,-693.121 789.83,-694.5031"/>
</g>
<!-- CS 265 -->
<g id="node59" class="node">
<title>CS 265</title>
<ellipse fill="none" stroke="#000000" cx="1913" cy="-666" rx="44.6926" ry="18"/>
<text text-anchor="middle" x="1913" y="-662.3" font-family="Times,serif" font-size="14.00" fill="#000000">CS 265</text>
</g>
<!-- ECEC 301&#45;&gt;CS 265 -->
<g id="edge44" class="edge">
<title>ECEC 301&#45;&gt;CS 265</title>
<path fill="none" stroke="#000000" d="M1913,-719.8314C1913,-712.131 1913,-702.9743 1913,-694.4166"/>
<polygon fill="#000000" stroke="#000000" points="1916.5001,-694.4132 1913,-684.4133 1909.5001,-694.4133 1916.5001,-694.4132"/>
</g>
<!-- ECEC 302&#45;&gt;ECEC 355 -->
<g id="edge59" class="edge">
<title>ECEC 302&#45;&gt;ECEC 355</title>
<path fill="none" stroke="#000000" d="M1550.1236,-720.2022C1545.0466,-711.8944 1538.8971,-701.8316 1533.2817,-692.6427"/>
<polygon fill="#000000" stroke="#000000" points="1536.1048,-690.5503 1527.9038,-683.8425 1530.1318,-694.2005 1536.1048,-690.5503"/>
</g>
<!-- ECEL 302 -->
<g id="node62" class="node">
<title>ECEL 302</title>
<ellipse fill="none" stroke="#000000" cx="1255" cy="-666" rx="58.4896" ry="18"/>
<text text-anchor="middle" x="1255" y="-662.3" font-family="Times,serif" font-size="14.00" fill="#000000">ECEL 302</text>
</g>
<!-- ECEL 301&#45;&gt;ECEL 302 -->
<g id="edge67" class="edge">
<title>ECEL 301&#45;&gt;ECEL 302</title>
<path fill="none" stroke="#000000" d="M1255,-719.8314C1255,-712.131 1255,-702.9743 1255,-694.4166"/>
<polygon fill="#000000" stroke="#000000" points="1258.5001,-694.4132 1255,-684.4133 1251.5001,-694.4133 1258.5001,-694.4132"/>
</g>
<!-- ECE 491 -->
<g id="node72" class="node">
<title>ECE 491</title>
<ellipse fill="none" stroke="#000000" cx="892" cy="-162" rx="51.9908" ry="18"/>
<text text-anchor="middle" x="892" y="-158.3" font-family="Times,serif" font-size="14.00" fill="#000000">ECE 491</text>
</g>
<!-- ECE 361&#45;&gt;ECE 491 -->
<g id="edge49" class="edge">
<title>ECE 361&#45;&gt;ECE 491</title>
<path fill="none" stroke="#000000" d="M932,-719.8146C932,-692.4983 932,-639.25 932,-594 932,-594 932,-594 932,-306 932,-264.2219 916.176,-218.0316 904.4336,-189.5067"/>
<polygon fill="#000000" stroke="#000000" points="907.6092,-188.0301 900.483,-180.19 901.1646,-190.7629 907.6092,-188.0301"/>
</g>
<!-- CS 260 -->
<g id="node64" class="node">
<title>CS 260</title>
<ellipse fill="none" stroke="#000000" cx="1995" cy="-450" rx="44.6926" ry="18"/>
<text text-anchor="middle" x="1995" y="-446.3" font-family="Times,serif" font-size="14.00" fill="#000000">CS 260</text>
</g>
<!-- CS 265&#45;&gt;CS 260 -->
<g id="edge45" class="edge">
<title>CS 265&#45;&gt;CS 260</title>
<path fill="none" stroke="#000000" d="M1919.8502,-647.9555C1934.236,-610.0613 1967.6618,-522.0128 1984.666,-477.2213"/>
<polygon fill="#000000" stroke="#000000" points="1987.9499,-478.4325 1988.2269,-467.8413 1981.4056,-475.948 1987.9499,-478.4325"/>
</g>
<!-- ECEC 353 -->
<g id="node65" class="node">
<title>ECEC 353</title>
<ellipse fill="none" stroke="#000000" cx="1872" cy="-450" rx="59.5901" ry="18"/>
<text text-anchor="middle" x="1872" y="-446.3" font-family="Times,serif" font-size="14.00" fill="#000000">ECEC 353</text>
</g>
<!-- CS 265&#45;&gt;ECEC 353 -->
<g id="edge57" class="edge">
<title>CS 265&#45;&gt;ECEC 353</title>
<path fill="none" stroke="#000000" d="M1909.5749,-647.9555C1902.43,-610.3144 1885.8919,-523.1867 1877.3385,-478.1246"/>
<polygon fill="#000000" stroke="#000000" points="1880.7477,-477.3169 1875.4442,-468.1451 1873.8705,-478.6224 1880.7477,-477.3169"/>
</g>
<!-- ECEC 413 -->
<g id="node68" class="node">
<title>ECEC 413</title>
<polygon fill="none" stroke="#000000" points="1563,-468 1471,-468 1471,-432 1563,-432 1563,-468"/>
<text text-anchor="middle" x="1517" y="-446.3" font-family="Times,serif" font-size="14.00" fill="#000000">ECEC 413</text>
</g>
<!-- ECEC 355&#45;&gt;ECEC 413 -->
<g id="edge60" class="edge">
<title>ECEC 355&#45;&gt;ECEC 413</title>
<path fill="none" stroke="#000000" d="M1517,-647.9555C1517,-610.3938 1517,-523.5541 1517,-478.4103"/>
<polygon fill="#000000" stroke="#000000" points="1520.5001,-478.145 1517,-468.1451 1513.5001,-478.1451 1520.5001,-478.145"/>
</g>
<!-- ECEC 457 -->
<g id="node71" class="node">
<title>ECEC 457</title>
<polygon fill="none" stroke="#000000" points="1637,-396 1545,-396 1545,-360 1637,-360 1637,-396"/>
<text text-anchor="middle" x="1591" y="-374.3" font-family="Times,serif" font-size="14.00" fill="#000000">ECEC 457</text>
</g>
<!-- ECEC 355&#45;&gt;ECEC 457 -->
<g id="edge61" class="edge">
<title>ECEC 355&#45;&gt;ECEC 457</title>
<path fill="none" stroke="#000000" d="M1522.4661,-647.8112C1532.819,-613.0538 1555.7085,-534.7171 1572,-468 1577.0431,-447.3476 1581.9792,-423.8366 1585.5557,-406.025"/>
<polygon fill="#000000" stroke="#000000" points="1589.0307,-406.4951 1587.5453,-396.0049 1582.1647,-405.1317 1589.0307,-406.4951"/>
</g>
<!-- ECEC 432 -->
<g id="node73" class="node">
<title>ECEC 432</title>
<polygon fill="none" stroke="#000000" points="1489,-180 1397,-180 1397,-144 1489,-144 1489,-180"/>
<text text-anchor="middle" x="1443" y="-158.3" font-family="Times,serif" font-size="14.00" fill="#000000">ECEC 432</text>
</g>
<!-- ECEC 355&#45;&gt;ECEC 432 -->
<g id="edge62" class="edge">
<title>ECEC 355&#45;&gt;ECEC 432</title>
<path fill="none" stroke="#000000" d="M1500.9431,-648.4095C1479.1791,-622.669 1443,-572.313 1443,-522 1443,-522 1443,-522 1443,-306 1443,-265.876 1443,-219.4631 1443,-190.4177"/>
<polygon fill="#000000" stroke="#000000" points="1446.5001,-190.1853 1443,-180.1854 1439.5001,-190.1854 1446.5001,-190.1853"/>
</g>
<!-- ECEL 303 -->
<g id="node66" class="node">
<title>ECEL 303</title>
<ellipse fill="none" stroke="#000000" cx="1255" cy="-450" rx="58.4896" ry="18"/>
<text text-anchor="middle" x="1255" y="-446.3" font-family="Times,serif" font-size="14.00" fill="#000000">ECEL 303</text>
</g>
<!-- ECEL 302&#45;&gt;ECEL 303 -->
<g id="edge68" class="edge">
<title>ECEL 302&#45;&gt;ECEL 303</title>
<path fill="none" stroke="#000000" d="M1255,-647.9555C1255,-610.3938 1255,-523.5541 1255,-478.4103"/>
<polygon fill="#000000" stroke="#000000" points="1258.5001,-478.145 1255,-468.1451 1251.5001,-478.1451 1258.5001,-478.145"/>
</g>
<!-- CS 361 -->
<g id="node70" class="node">
<title>CS 361</title>
<polygon fill="none" stroke="#000000" points="2029.5,-396 1960.5,-396 1960.5,-360 2029.5,-360 2029.5,-396"/>
<text text-anchor="middle" x="1995" y="-374.3" font-family="Times,serif" font-size="14.00" fill="#000000">CS 361</text>
</g>
<!-- CS 260&#45;&gt;CS 361 -->
<g id="edge46" class="edge">
<title>CS 260&#45;&gt;CS 361</title>
<path fill="none" stroke="#000000" d="M1995,-431.8314C1995,-424.131 1995,-414.9743 1995,-406.4166"/>
<polygon fill="#000000" stroke="#000000" points="1998.5001,-406.4132 1995,-396.4133 1991.5001,-406.4133 1998.5001,-406.4132"/>
</g>
<!-- PHIL 315 -->
<g id="node67" class="node">
<title>PHIL 315</title>
<ellipse fill="none" stroke="#000000" cx="2114" cy="-450" rx="55.7903" ry="18"/>
<text text-anchor="middle" x="2114" y="-446.3" font-family="Times,serif" font-size="14.00" fill="#000000">PHIL 315</text>
</g>
<!-- ECE 391 -->
<g id="node69" class="node">
<title>ECE 391</title>
<ellipse fill="none" stroke="#000000" cx="852" cy="-378" rx="51.9908" ry="18"/>
<text text-anchor="middle" x="852" y="-374.3" font-family="Times,serif" font-size="14.00" fill="#000000">ECE 391</text>
</g>
<!-- ECE 391&#45;&gt;ECE 491 -->
<g id="edge50" class="edge">
<title>ECE 391&#45;&gt;ECE 491</title>
<path fill="none" stroke="#000000" d="M855.3416,-359.9555C862.3122,-322.3144 878.4469,-235.1867 886.7917,-190.1246"/>
<polygon fill="#000000" stroke="#000000" points="890.2603,-190.6152 888.6398,-180.1451 883.3773,-189.3405 890.2603,-190.6152"/>
</g>
<!-- ECE 492 -->
<g id="node74" class="node">
<title>ECE 492</title>
<ellipse fill="none" stroke="#000000" cx="892" cy="-90" rx="51.9908" ry="18"/>
<text text-anchor="middle" x="892" y="-86.3" font-family="Times,serif" font-size="14.00" fill="#000000">ECE 492</text>
</g>
<!-- ECE 491&#45;&gt;ECE 492 -->
<g id="edge51" class="edge">
<title>ECE 491&#45;&gt;ECE 492</title>
<path fill="none" stroke="#000000" d="M892,-143.8314C892,-136.131 892,-126.9743 892,-118.4166"/>
<polygon fill="#000000" stroke="#000000" points="895.5001,-118.4132 892,-108.4133 888.5001,-118.4133 895.5001,-118.4132"/>
</g>
<!-- ECE 493 -->
<g id="node75" class="node">
<title>ECE 493</title>
<ellipse fill="none" stroke="#000000" cx="892" cy="-18" rx="51.9908" ry="18"/>
<text text-anchor="middle" x="892" y="-14.3" font-family="Times,serif" font-size="14.00" fill="#000000">ECE 493</text>
</g>
<!-- ECE 492&#45;&gt;ECE 493 -->
<g id="edge52" class="edge">
<title>ECE 492&#45;&gt;ECE 493</title>
<path fill="none" stroke="#000000" d="M892,-71.8314C892,-64.131 892,-54.9743 892,-46.4166"/>
<polygon fill="#000000" stroke="#000000" points="895.5001,-46.4132 892,-36.4133 888.5001,-46.4133 895.5001,-46.4132"/>
</g>
</g>
</svg>
