<?xml version="1.0" encoding="UTF-8" standalone="no"?>
<!DOCTYPE svg PUBLIC "-//W3C//DTD SVG 1.1//EN"
 "http://www.w3.org/Graphics/SVG/1.1/DTD/svg11.dtd">
<!-- Generated by graphviz version 2.40.1 (0)
 -->
<!-- Title: Classes Pages: 1 -->
<svg width="3395pt" height="1110pt"
 viewBox="0.00 0.00 3394.68 1109.57" xmlns="http://www.w3.org/2000/svg" xmlns:xlink="http://www.w3.org/1999/xlink">
<g id="graph0" class="graph" transform="scale(1 1) rotate(0) translate(4 1105.5677)">
<title>Classes</title>
<polygon fill="#ffffff" stroke="transparent" points="-4,4 -4,-1105.5677 3390.6812,-1105.5677 3390.6812,4 -4,4"/>
<!-- 0.0 -->
<g id="node1" class="node">
<title>0.0</title>
<text text-anchor="middle" x="45" y="-1075.2403" font-family="Times,serif" font-size="14.00" fill="#000000">0.0 (11.0)</text>
</g>
<!-- 1.1 -->
<g id="node5" class="node">
<title>1.1</title>
<text text-anchor="middle" x="45" y="-993.9854" font-family="Times,serif" font-size="14.00" fill="#000000">1.1 (16.5)</text>
</g>
<!-- 0.0&#45;&gt;1.1 -->
<!-- CS 190 -->
<g id="node2" class="node">
<title>CS 190</title>
<ellipse fill="none" stroke="#006400" cx="221" cy="-1078.9403" rx="115.0173" ry="22.7556"/>
<text text-anchor="start" x="175.5" y="-1080.7403" font-family="Times,serif" font-size="14.00" fill="#000000">CS 190 (3.0)</text>
<text text-anchor="start" x="147.5" y="-1069.9403" font-family="Times,serif" font-size="10.00" fill="#000000">Selected Computer Language</text>
</g>
<!-- SPAN 101 -->
<g id="node3" class="node">
<title>SPAN 101</title>
<ellipse fill="none" stroke="#006400" cx="444" cy="-1078.9403" rx="89.6056" ry="22.7556"/>
<text text-anchor="start" x="388.5" y="-1080.7403" font-family="Times,serif" font-size="14.00" fill="#000000">SPAN 101 (4.0)</text>
<text text-anchor="start" x="421" y="-1069.9403" font-family="Times,serif" font-size="10.00" fill="#000000">Spanish I</text>
</g>
<!-- TGFE 099 -->
<g id="node4" class="node">
<title>TGFE 099</title>
<ellipse fill="none" stroke="#006400" cx="672" cy="-1078.9403" rx="120.4167" ry="22.7556"/>
<text text-anchor="start" x="616.5" y="-1080.7403" font-family="Times,serif" font-size="14.00" fill="#000000">TGFE 099 (4.0)</text>
<text text-anchor="start" x="595" y="-1069.9403" font-family="Times,serif" font-size="10.00" fill="#000000">Transfer General Free Elective</text>
</g>
<!-- 1.2 -->
<g id="node13" class="node">
<title>1.2</title>
<text text-anchor="middle" x="45" y="-912.7306" font-family="Times,serif" font-size="14.00" fill="#000000">1.2 (19.5)</text>
</g>
<!-- 1.1&#45;&gt;1.2 -->
<!-- CHEM 101 -->
<g id="node6" class="node">
<title>CHEM 101</title>
<ellipse fill="none" stroke="#006400" cx="324" cy="-997.6854" rx="94.5053" ry="22.7556"/>
<text text-anchor="start" x="265" y="-999.4854" font-family="Times,serif" font-size="14.00" fill="#000000">CHEM 101 (3.5)</text>
<text text-anchor="start" x="274" y="-988.6854" font-family="Times,serif" font-size="10.00" fill="#000000">General Chemistry I</text>
</g>
<!-- CHEM 102 -->
<g id="node14" class="node">
<title>CHEM 102</title>
<ellipse fill="none" stroke="#006400" cx="201" cy="-916.4306" rx="94.5053" ry="22.7556"/>
<text text-anchor="start" x="142" y="-918.2306" font-family="Times,serif" font-size="14.00" fill="#000000">CHEM 102 (4.5)</text>
<text text-anchor="start" x="149.5" y="-907.4306" font-family="Times,serif" font-size="10.00" fill="#000000">General Chemistry II</text>
</g>
<!-- CHEM 101&#45;&gt;CHEM 102 -->
<g id="edge3" class="edge">
<title>CHEM 101&#45;&gt;CHEM 102</title>
<path fill="none" stroke="#000000" d="M291.6832,-976.3367C276.5491,-966.339 258.3457,-954.3136 242.2322,-943.6689"/>
<polygon fill="#000000" stroke="#000000" points="243.801,-940.5106 233.528,-937.9189 239.9426,-946.3512 243.801,-940.5106"/>
</g>
<!-- BIO 141 -->
<g id="node22" class="node">
<title>BIO 141</title>
<ellipse fill="none" stroke="#006400" cx="324" cy="-835.1758" rx="80.7205" ry="22.7556"/>
<text text-anchor="start" x="275" y="-836.9758" font-family="Times,serif" font-size="14.00" fill="#000000">BIO 141 (4.5)</text>
<text text-anchor="start" x="281.5" y="-826.1758" font-family="Times,serif" font-size="10.00" fill="#000000">Essential Biology</text>
</g>
<!-- CHEM 101&#45;&gt;BIO 141 -->
<g id="edge8" class="edge">
<title>CHEM 101&#45;&gt;BIO 141</title>
<path fill="none" stroke="#000000" d="M324,-974.7464C324,-946.9199 324,-899.8079 324,-868.1076"/>
<polygon fill="#000000" stroke="#000000" points="327.5001,-867.998 324,-857.9981 320.5001,-867.9981 327.5001,-867.998"/>
</g>
<!-- ENGR 220 -->
<g id="node32" class="node">
<title>ENGR 220</title>
<ellipse fill="none" stroke="#006400" cx="626" cy="-753.9209" rx="105.218" ry="22.7556"/>
<text text-anchor="start" x="568.5" y="-755.7209" font-family="Times,serif" font-size="14.00" fill="#000000">ENGR 220 (4.0)</text>
<text text-anchor="start" x="559.5" y="-744.9209" font-family="Times,serif" font-size="10.00" fill="#000000">Fundamentals of Materials</text>
</g>
<!-- CHEM 101&#45;&gt;ENGR 220 -->
<g id="edge14" class="edge">
<title>CHEM 101&#45;&gt;ENGR 220</title>
<path fill="none" stroke="#000000" d="M347.7242,-975.6212C386.5397,-939.9014 466.5621,-867.8382 539,-812.5483 553.0279,-801.8412 568.8998,-790.8407 583.2103,-781.3028"/>
<polygon fill="#000000" stroke="#000000" points="585.4746,-784.0017 591.8884,-775.5687 581.6156,-778.1614 585.4746,-784.0017"/>
</g>
<!-- ENGL 101 -->
<g id="node7" class="node">
<title>ENGL 101</title>
<ellipse fill="none" stroke="#006400" cx="1543" cy="-997.6854" rx="106.5467" ry="22.7556"/>
<text text-anchor="start" x="1486" y="-999.4854" font-family="Times,serif" font-size="14.00" fill="#000000">ENGL 101 (3.0)</text>
<text text-anchor="start" x="1475.5" y="-988.6854" font-family="Times,serif" font-size="10.00" fill="#000000">Composition and Rhetoric I</text>
</g>
<!-- ENGL 102 -->
<g id="node16" class="node">
<title>ENGL 102</title>
<ellipse fill="none" stroke="#006400" cx="1543" cy="-916.4306" rx="109.7032" ry="22.7556"/>
<text text-anchor="start" x="1486" y="-918.2306" font-family="Times,serif" font-size="14.00" fill="#000000">ENGL 102 (3.0)</text>
<text text-anchor="start" x="1473.5" y="-907.4306" font-family="Times,serif" font-size="10.00" fill="#000000">Composition and Rhetoric II</text>
</g>
<!-- ENGL 101&#45;&gt;ENGL 102 -->
<g id="edge4" class="edge">
<title>ENGL 101&#45;&gt;ENGL 102</title>
<path fill="none" stroke="#000000" d="M1543,-975.0514C1543,-967.1059 1543,-958.0098 1543,-949.3913"/>
<polygon fill="#000000" stroke="#000000" points="1546.5001,-949.225 1543,-939.225 1539.5001,-949.2251 1546.5001,-949.225"/>
</g>
<!-- ENGR 100 -->
<g id="node8" class="node">
<title>ENGR 100</title>
<ellipse fill="none" stroke="#006400" cx="1940" cy="-997.6854" rx="102.561" ry="22.7556"/>
<text text-anchor="start" x="1882.5" y="-999.4854" font-family="Times,serif" font-size="14.00" fill="#000000">ENGR 100 (1.0)</text>
<text text-anchor="start" x="1875.5" y="-988.6854" font-family="Times,serif" font-size="10.00" fill="#000000">Beginning CAD for Design</text>
</g>
<!-- ENGR 101 -->
<g id="node9" class="node">
<title>ENGR 101</title>
<ellipse fill="none" stroke="#006400" cx="1141" cy="-997.6854" rx="99.9045" ry="22.7556"/>
<text text-anchor="start" x="1083.5" y="-999.4854" font-family="Times,serif" font-size="14.00" fill="#000000">ENGR 101 (2.0)</text>
<text text-anchor="start" x="1078.5" y="-988.6854" font-family="Times,serif" font-size="10.00" fill="#000000">Engineering Design Lab I</text>
</g>
<!-- ENGR 102 -->
<g id="node17" class="node">
<title>ENGR 102</title>
<ellipse fill="none" stroke="#006400" cx="1141" cy="-916.4306" rx="102.561" ry="22.7556"/>
<text text-anchor="start" x="1083.5" y="-918.2306" font-family="Times,serif" font-size="14.00" fill="#000000">ENGR 102 (2.0)</text>
<text text-anchor="start" x="1076.5" y="-907.4306" font-family="Times,serif" font-size="10.00" fill="#000000">Engineering Design Lab II</text>
</g>
<!-- ENGR 101&#45;&gt;ENGR 102 -->
<g id="edge5" class="edge">
<title>ENGR 101&#45;&gt;ENGR 102</title>
<path fill="none" stroke="#000000" d="M1141,-975.0514C1141,-967.1059 1141,-958.0098 1141,-949.3913"/>
<polygon fill="#000000" stroke="#000000" points="1144.5001,-949.225 1141,-939.225 1137.5001,-949.2251 1144.5001,-949.225"/>
</g>
<!-- ENGR 121 -->
<g id="node10" class="node">
<title>ENGR 121</title>
<ellipse fill="none" stroke="#006400" cx="2487" cy="-997.6854" rx="92.7622" ry="22.7556"/>
<text text-anchor="start" x="2429.5" y="-999.4854" font-family="Times,serif" font-size="14.00" fill="#000000">ENGR 121 (2.0)</text>
<text text-anchor="start" x="2441" y="-988.6854" font-family="Times,serif" font-size="10.00" fill="#000000">Computation Lab I</text>
</g>
<!-- ENGR 231 -->
<g id="node33" class="node">
<title>ENGR 231</title>
<ellipse fill="none" stroke="#006400" cx="2487" cy="-753.9209" rx="109.7032" ry="22.7556"/>
<text text-anchor="start" x="2429.5" y="-755.7209" font-family="Times,serif" font-size="14.00" fill="#000000">ENGR 231 (3.0)</text>
<text text-anchor="start" x="2417.5" y="-744.9209" font-family="Times,serif" font-size="10.00" fill="#000000">Linear Engineering Systems</text>
</g>
<!-- ENGR 121&#45;&gt;ENGR 231 -->
<g id="edge17" class="edge">
<title>ENGR 121&#45;&gt;ENGR 231</title>
<path fill="none" stroke="#000000" d="M2487,-974.7527C2487,-931.3587 2487,-837.0989 2487,-786.913"/>
<polygon fill="#000000" stroke="#000000" points="2490.5001,-786.6151 2487,-776.6152 2483.5001,-786.6152 2490.5001,-786.6151"/>
</g>
<!-- MATH 121 -->
<g id="node11" class="node">
<title>MATH 121</title>
<ellipse fill="none" stroke="#006400" cx="554" cy="-997.6854" rx="92.7622" ry="22.7556"/>
<text text-anchor="start" x="496.5" y="-999.4854" font-family="Times,serif" font-size="14.00" fill="#000000">MATH 121 (4.0)</text>
<text text-anchor="start" x="529.5" y="-988.6854" font-family="Times,serif" font-size="10.00" fill="#000000">Calculus I</text>
</g>
<!-- MATH 122 -->
<g id="node19" class="node">
<title>MATH 122</title>
<ellipse fill="none" stroke="#006400" cx="554" cy="-916.4306" rx="92.7622" ry="22.7556"/>
<text text-anchor="start" x="496.5" y="-918.2306" font-family="Times,serif" font-size="14.00" fill="#000000">MATH 122 (4.0)</text>
<text text-anchor="start" x="527.5" y="-907.4306" font-family="Times,serif" font-size="10.00" fill="#000000">Calculus II</text>
</g>
<!-- MATH 121&#45;&gt;MATH 122 -->
<g id="edge6" class="edge">
<title>MATH 121&#45;&gt;MATH 122</title>
<path fill="none" stroke="#000000" d="M554,-975.0514C554,-967.1059 554,-958.0098 554,-949.3913"/>
<polygon fill="#000000" stroke="#000000" points="557.5001,-949.225 554,-939.225 550.5001,-949.2251 557.5001,-949.225"/>
</g>
<!-- UNIV 101 -->
<g id="node12" class="node">
<title>UNIV 101</title>
<ellipse fill="none" stroke="#006400" cx="2688" cy="-997.6854" rx="90.5193" ry="22.7556"/>
<text text-anchor="start" x="2632.5" y="-999.4854" font-family="Times,serif" font-size="14.00" fill="#000000">UNIV 101 (1.0)</text>
<text text-anchor="start" x="2632" y="-988.6854" font-family="Times,serif" font-size="10.00" fill="#000000">The Drexel Experience</text>
</g>
<!-- 1.3 -->
<g id="node21" class="node">
<title>1.3</title>
<text text-anchor="middle" x="45" y="-831.4758" font-family="Times,serif" font-size="14.00" fill="#000000">1.3 (17.5)</text>
</g>
<!-- 1.2&#45;&gt;1.3 -->
<!-- CIVC 101 -->
<g id="node15" class="node">
<title>CIVC 101</title>
<ellipse fill="none" stroke="#006400" cx="2618" cy="-916.4306" rx="102.561" ry="22.7556"/>
<text text-anchor="start" x="2563.5" y="-918.2306" font-family="Times,serif" font-size="14.00" fill="#000000">CIVC 101 (1.0)</text>
<text text-anchor="start" x="2553.5" y="-907.4306" font-family="Times,serif" font-size="10.00" fill="#000000">Intro to Civic Engagement</text>
</g>
<!-- ENGL 103 -->
<g id="node24" class="node">
<title>ENGL 103</title>
<ellipse fill="none" stroke="#006400" cx="1543" cy="-835.1758" rx="111.9462" ry="22.7556"/>
<text text-anchor="start" x="1486" y="-836.9758" font-family="Times,serif" font-size="14.00" fill="#000000">ENGL 103 (3.0)</text>
<text text-anchor="start" x="1472" y="-826.1758" font-family="Times,serif" font-size="10.00" fill="#000000">Composition and Rhetoric III</text>
</g>
<!-- ENGL 102&#45;&gt;ENGL 103 -->
<g id="edge9" class="edge">
<title>ENGL 102&#45;&gt;ENGL 103</title>
<path fill="none" stroke="#000000" d="M1543,-893.7966C1543,-885.8511 1543,-876.755 1543,-868.1365"/>
<polygon fill="#000000" stroke="#000000" points="1546.5001,-867.9702 1543,-857.9702 1539.5001,-867.9702 1546.5001,-867.9702"/>
</g>
<!-- ENGR 103 -->
<g id="node25" class="node">
<title>ENGR 103</title>
<ellipse fill="none" stroke="#006400" cx="1141" cy="-835.1758" rx="105.218" ry="22.7556"/>
<text text-anchor="start" x="1083.5" y="-836.9758" font-family="Times,serif" font-size="14.00" fill="#000000">ENGR 103 (2.0)</text>
<text text-anchor="start" x="1074.5" y="-826.1758" font-family="Times,serif" font-size="10.00" fill="#000000">Engineering Design Lab III</text>
</g>
<!-- ENGR 102&#45;&gt;ENGR 103 -->
<g id="edge10" class="edge">
<title>ENGR 102&#45;&gt;ENGR 103</title>
<path fill="none" stroke="#000000" d="M1141,-893.7966C1141,-885.8511 1141,-876.755 1141,-868.1365"/>
<polygon fill="#000000" stroke="#000000" points="1144.5001,-867.9702 1141,-857.9702 1137.5001,-867.9702 1144.5001,-867.9702"/>
</g>
<!-- ENGR 122 -->
<g id="node18" class="node">
<title>ENGR 122</title>
<ellipse fill="none" stroke="#006400" cx="2831" cy="-916.4306" rx="92.7622" ry="22.7556"/>
<text text-anchor="start" x="2773.5" y="-918.2306" font-family="Times,serif" font-size="14.00" fill="#000000">ENGR 122 (1.0)</text>
<text text-anchor="start" x="2783" y="-907.4306" font-family="Times,serif" font-size="10.00" fill="#000000">Computation Lab II</text>
</g>
<!-- MATH 200 -->
<g id="node26" class="node">
<title>MATH 200</title>
<ellipse fill="none" stroke="#006400" cx="653" cy="-835.1758" rx="92.7622" ry="22.7556"/>
<text text-anchor="start" x="595.5" y="-836.9758" font-family="Times,serif" font-size="14.00" fill="#000000">MATH 200 (4.0)</text>
<text text-anchor="start" x="600" y="-826.1758" font-family="Times,serif" font-size="10.00" fill="#000000">Multivariate Calculus</text>
</g>
<!-- MATH 122&#45;&gt;MATH 200 -->
<g id="edge11" class="edge">
<title>MATH 122&#45;&gt;MATH 200</title>
<path fill="none" stroke="#000000" d="M580.5302,-894.6558C592.1821,-885.0924 606.016,-873.7382 618.4582,-863.5262"/>
<polygon fill="#000000" stroke="#000000" points="620.8873,-866.0604 626.3966,-857.0107 616.4462,-860.6496 620.8873,-866.0604"/>
</g>
<!-- MATH 122&#45;&gt;ENGR 220 -->
<g id="edge15" class="edge">
<title>MATH 122&#45;&gt;ENGR 220</title>
<path fill="none" stroke="#000000" d="M547.5251,-893.6808C542.5774,-871.7375 538.5065,-838.1722 551,-812.5483 557.0027,-800.237 566.979,-789.7526 577.727,-781.2024"/>
<polygon fill="#000000" stroke="#000000" points="580.0907,-783.8072 586.0435,-775.0428 575.9244,-778.1821 580.0907,-783.8072"/>
</g>
<!-- PHYS 201 -->
<g id="node60" class="node">
<title>PHYS 201</title>
<ellipse fill="none" stroke="#ffa500" cx="626" cy="-428.9016" rx="108.375" ry="22.7556"/>
<text text-anchor="start" x="570" y="-430.7016" font-family="Times,serif" font-size="14.00" fill="#000000">PHYS 201 (4.0)</text>
<text text-anchor="start" x="557.5" y="-419.9016" font-family="Times,serif" font-size="10.00" fill="#000000">Fundamentals of Physics III</text>
</g>
<!-- MATH 122&#45;&gt;PHYS 201 -->
<g id="edge48" class="edge">
<title>MATH 122&#45;&gt;PHYS 201</title>
<path fill="none" stroke="#000000" d="M539.6982,-894.0181C521.6684,-863.5579 493,-806.8089 493,-753.9209 493,-753.9209 493,-753.9209 493,-591.4113 493,-533.6216 543.9911,-485.0922 582.8273,-456.5115"/>
<polygon fill="#000000" stroke="#000000" points="585.3082,-459.04 591.403,-450.3737 581.2341,-453.3477 585.3082,-459.04"/>
</g>
<!-- PHYS 101 -->
<g id="node20" class="node">
<title>PHYS 101</title>
<ellipse fill="none" stroke="#006400" cx="849" cy="-916.4306" rx="103.4757" ry="22.7556"/>
<text text-anchor="start" x="793" y="-918.2306" font-family="Times,serif" font-size="14.00" fill="#000000">PHYS 101 (4.0)</text>
<text text-anchor="start" x="784" y="-907.4306" font-family="Times,serif" font-size="10.00" fill="#000000">Fundamentals of Physics I</text>
</g>
<!-- PHYS 102 -->
<g id="node27" class="node">
<title>PHYS 102</title>
<ellipse fill="none" stroke="#006400" cx="907" cy="-835.1758" rx="105.218" ry="22.7556"/>
<text text-anchor="start" x="851" y="-836.9758" font-family="Times,serif" font-size="14.00" fill="#000000">PHYS 102 (4.0)</text>
<text text-anchor="start" x="840.5" y="-826.1758" font-family="Times,serif" font-size="10.00" fill="#000000">Fundamentals of Physics II</text>
</g>
<!-- PHYS 101&#45;&gt;PHYS 102 -->
<g id="edge12" class="edge">
<title>PHYS 101&#45;&gt;PHYS 102</title>
<path fill="none" stroke="#000000" d="M865.1562,-893.7966C871.3154,-885.168 878.4431,-875.1824 885.0509,-865.9253"/>
<polygon fill="#000000" stroke="#000000" points="887.9693,-867.861 890.9304,-857.6884 882.2719,-863.7941 887.9693,-867.861"/>
</g>
<!-- PHYS 101&#45;&gt;ENGR 220 -->
<g id="edge16" class="edge">
<title>PHYS 101&#45;&gt;ENGR 220</title>
<path fill="none" stroke="#000000" d="M827.1179,-894.1966C816.6296,-883.3698 803.9881,-870.0697 793,-857.8032 775.4762,-838.2406 775.9169,-828.4311 755,-812.5483 736.0561,-798.1637 713.0196,-786.2816 691.6845,-777.0636"/>
<polygon fill="#000000" stroke="#000000" points="692.919,-773.7861 682.3434,-773.1469 690.2122,-780.2416 692.919,-773.7861"/>
</g>
<!-- 2.1 -->
<g id="node28" class="node">
<title>2.1</title>
<text text-anchor="middle" x="45" y="-750.2209" font-family="Times,serif" font-size="14.00" fill="#000000">2.1 (20.0)</text>
</g>
<!-- 1.3&#45;&gt;2.1 -->
<!-- COOP 101 -->
<g id="node23" class="node">
<title>COOP 101</title>
<ellipse fill="none" stroke="#006400" cx="2618" cy="-835.1758" rx="102.561" ry="22.7556"/>
<text text-anchor="start" x="2567.5" y="-836.9758" font-family="Times,serif" font-size="14.00" fill="#000000">COOP 101 (0)</text>
<text text-anchor="start" x="2553.5" y="-826.1758" font-family="Times,serif" font-size="10.00" fill="#000000">Career Mgmt/Profess Dev</text>
</g>
<!-- ECES 301 -->
<g id="node46" class="node">
<title>ECES 301</title>
<ellipse fill="none" stroke="#006400" cx="1025" cy="-591.4113" rx="90.5193" ry="22.7556"/>
<text text-anchor="start" x="969" y="-593.2113" font-family="Times,serif" font-size="14.00" fill="#000000">ECES 301 (4.0)</text>
<text text-anchor="start" x="970.5" y="-582.4113" font-family="Times,serif" font-size="10.00" fill="#000000">Signals and Systems I</text>
</g>
<!-- ENGR 103&#45;&gt;ECES 301 -->
<g id="edge32" class="edge">
<title>ENGR 103&#45;&gt;ECES 301</title>
<path fill="none" stroke="#000000" d="M1130.087,-812.243C1109.264,-768.4851 1063.8278,-673.0048 1040.1036,-623.1501"/>
<polygon fill="#000000" stroke="#000000" points="1043.2569,-621.6313 1035.7995,-614.1055 1036.9361,-624.6392 1043.2569,-621.6313"/>
</g>
<!-- ECE 303 -->
<g id="node58" class="node">
<title>ECE 303</title>
<ellipse fill="none" stroke="#ffa500" cx="1023" cy="-428.9016" rx="83.3772" ry="22.7556"/>
<text text-anchor="start" x="972" y="-430.7016" font-family="Times,serif" font-size="14.00" fill="#000000">ECE 303 (3.0)</text>
<text text-anchor="start" x="983.5" y="-419.9016" font-family="Times,serif" font-size="10.00" fill="#000000">ECE Laboratory</text>
</g>
<!-- ENGR 103&#45;&gt;ECE 303 -->
<g id="edge45" class="edge">
<title>ENGR 103&#45;&gt;ECE 303</title>
<path fill="none" stroke="#000000" d="M1141.6883,-812.3023C1142.574,-780.8481 1144,-722.4714 1144,-672.6661 1144,-672.6661 1144,-672.6661 1144,-591.4113 1144,-535.0005 1096.5149,-485.4916 1061.0387,-456.375"/>
<polygon fill="#000000" stroke="#000000" points="1063.2174,-453.6357 1053.2213,-450.1245 1058.8459,-459.103 1063.2174,-453.6357"/>
</g>
<!-- ECE 201 -->
<g id="node36" class="node">
<title>ECE 201</title>
<ellipse fill="none" stroke="#006400" cx="909" cy="-672.6661" rx="121.7449" ry="22.7556"/>
<text text-anchor="start" x="858" y="-674.4661" font-family="Times,serif" font-size="14.00" fill="#000000">ECE 201 (4.0)</text>
<text text-anchor="start" x="831" y="-663.6661" font-family="Times,serif" font-size="10.00" fill="#000000">Foundations of Electric Circuits</text>
</g>
<!-- PHYS 102&#45;&gt;ECE 201 -->
<g id="edge19" class="edge">
<title>PHYS 102&#45;&gt;ECE 201</title>
<path fill="none" stroke="#000000" d="M907.2823,-812.2368C907.6248,-784.4102 908.2046,-737.2983 908.5947,-705.598"/>
<polygon fill="#000000" stroke="#000000" points="912.0957,-705.5307 908.7191,-695.4884 905.0962,-705.4445 912.0957,-705.5307"/>
</g>
<!-- PHYS 102&#45;&gt;PHYS 201 -->
<g id="edge47" class="edge">
<title>PHYS 102&#45;&gt;PHYS 201</title>
<path fill="none" stroke="#000000" d="M867.3387,-813.971C823.4993,-787.3224 759,-737.1569 759,-672.6661 759,-672.6661 759,-672.6661 759,-591.4113 759,-533.6216 708.0089,-485.0922 669.1727,-456.5115"/>
<polygon fill="#000000" stroke="#000000" points="670.7659,-453.3477 660.597,-450.3737 666.6918,-459.04 670.7659,-453.3477"/>
</g>
<!-- 2.2 -->
<g id="node35" class="node">
<title>2.2</title>
<text text-anchor="middle" x="45" y="-668.9661" font-family="Times,serif" font-size="14.00" fill="#000000">2.2 (16.0)</text>
</g>
<!-- 2.1&#45;&gt;2.2 -->
<!-- ECE 200 -->
<g id="node29" class="node">
<title>ECE 200</title>
<ellipse fill="none" stroke="#006400" cx="1363" cy="-753.9209" rx="83.3772" ry="22.7556"/>
<text text-anchor="start" x="1312" y="-755.7209" font-family="Times,serif" font-size="14.00" fill="#000000">ECE 200 (4.0)</text>
<text text-anchor="start" x="1313" y="-744.9209" font-family="Times,serif" font-size="10.00" fill="#000000">Digital Logic Design</text>
</g>
<!-- MATH 221 -->
<g id="node40" class="node">
<title>MATH 221</title>
<ellipse fill="none" stroke="#006400" cx="1303" cy="-672.6661" rx="92.7622" ry="22.7556"/>
<text text-anchor="start" x="1245.5" y="-674.4661" font-family="Times,serif" font-size="14.00" fill="#000000">MATH 221 (3.0)</text>
<text text-anchor="start" x="1248.5" y="-663.6661" font-family="Times,serif" font-size="10.00" fill="#000000">Discrete Mathematics</text>
</g>
<!-- ECE 200&#45;&gt;MATH 221 -->
<g id="edge23" class="edge">
<title>ECE 200&#45;&gt;MATH 221</title>
<path fill="none" stroke="#000000" d="M1346.6047,-731.7177C1340.1104,-722.9228 1332.537,-712.6664 1325.5413,-703.1925"/>
<polygon fill="#000000" stroke="#000000" points="1328.3397,-701.0903 1319.5839,-695.1248 1322.7086,-705.2484 1328.3397,-701.0903"/>
</g>
<!-- ECEC 302 -->
<g id="node44" class="node">
<title>ECEC 302</title>
<ellipse fill="none" stroke="#006400" cx="1549" cy="-591.4113" rx="96.7474" ry="22.7556"/>
<text text-anchor="start" x="1492.5" y="-593.2113" font-family="Times,serif" font-size="14.00" fill="#000000">ECEC 302 (3.0)</text>
<text text-anchor="start" x="1488.5" y="-582.4113" font-family="Times,serif" font-size="10.00" fill="#000000">Digital Systems Projects</text>
</g>
<!-- ECE 200&#45;&gt;ECEC 302 -->
<g id="edge28" class="edge">
<title>ECE 200&#45;&gt;ECEC 302</title>
<path fill="none" stroke="#000000" d="M1391.6108,-732.5079C1405.8015,-721.649 1423.0581,-708.0816 1438,-695.2935 1466.3412,-671.0375 1497.222,-641.9006 1519.1996,-620.6656"/>
<polygon fill="#000000" stroke="#000000" points="1521.8412,-622.9794 1526.5833,-613.5051 1516.968,-617.9543 1521.8412,-622.9794"/>
</g>
<!-- ECE 200&#45;&gt;ECES 301 -->
<g id="edge30" class="edge">
<title>ECE 200&#45;&gt;ECES 301</title>
<path fill="none" stroke="#000000" d="M1307.976,-736.8433C1276.1347,-726.2652 1235.6347,-711.6083 1201,-695.2935 1152.6195,-672.5037 1100.1979,-640.5386 1065.2653,-618.1028"/>
<polygon fill="#000000" stroke="#000000" points="1067.0726,-615.1035 1056.774,-612.6155 1063.2732,-620.9827 1067.0726,-615.1035"/>
</g>
<!-- ECEC 204 -->
<g id="node49" class="node">
<title>ECEC 204</title>
<ellipse fill="none" stroke="#006400" cx="1977" cy="-510.1564" rx="112.36" ry="22.7556"/>
<text text-anchor="start" x="1920.5" y="-511.9564" font-family="Times,serif" font-size="14.00" fill="#000000">ECEC 204 (3.0)</text>
<text text-anchor="start" x="1905.5" y="-501.1564" font-family="Times,serif" font-size="10.00" fill="#000000">Design with Microcontrollers</text>
</g>
<!-- ECE 200&#45;&gt;ECEC 204 -->
<g id="edge35" class="edge">
<title>ECE 200&#45;&gt;ECEC 204</title>
<path fill="none" stroke="#000000" d="M1381.6213,-731.6417C1389.688,-721.1313 1398.7053,-708.1041 1405,-695.2935 1430.8907,-642.6026 1397.46,-605.8347 1443,-568.7838 1514.462,-510.6431 1764.7237,-545.2659 1856,-532.7838 1866.1892,-531.3905 1876.8232,-529.7214 1887.3747,-527.9295"/>
<polygon fill="#000000" stroke="#000000" points="1888.1956,-531.3394 1897.4487,-526.1789 1886.9971,-524.4428 1888.1956,-531.3394"/>
</g>
<!-- ECE 203 -->
<g id="node30" class="node">
<title>ECE 203</title>
<ellipse fill="none" stroke="#006400" cx="2032" cy="-753.9209" rx="108.375" ry="22.7556"/>
<text text-anchor="start" x="1981" y="-755.7209" font-family="Times,serif" font-size="14.00" fill="#000000">ECE 203 (3.0)</text>
<text text-anchor="start" x="1963.5" y="-744.9209" font-family="Times,serif" font-size="10.00" fill="#000000">Programming for Engineers</text>
</g>
<!-- ECEC 201 -->
<g id="node37" class="node">
<title>ECEC 201</title>
<ellipse fill="none" stroke="#006400" cx="2032" cy="-672.6661" rx="123.0732" ry="22.7556"/>
<text text-anchor="start" x="1975.5" y="-674.4661" font-family="Times,serif" font-size="14.00" fill="#000000">ECEC 201 (3.0)</text>
<text text-anchor="start" x="1953" y="-663.6661" font-family="Times,serif" font-size="10.00" fill="#000000">Adv Programming for Engineers</text>
</g>
<!-- ECE 203&#45;&gt;ECEC 201 -->
<g id="edge20" class="edge">
<title>ECE 203&#45;&gt;ECEC 201</title>
<path fill="none" stroke="#000000" d="M2032,-731.2869C2032,-723.3414 2032,-714.2453 2032,-705.6268"/>
<polygon fill="#000000" stroke="#000000" points="2035.5001,-705.4605 2032,-695.4605 2028.5001,-705.4606 2035.5001,-705.4605"/>
</g>
<!-- ECE 203&#45;&gt;ECEC 302 -->
<g id="edge27" class="edge">
<title>ECE 203&#45;&gt;ECEC 302</title>
<path fill="none" stroke="#000000" d="M1974.6968,-734.6408C1884.2217,-704.1996 1708.8273,-645.1866 1613.8608,-613.2342"/>
<polygon fill="#000000" stroke="#000000" points="1614.9617,-609.9119 1604.3676,-610.0402 1612.7294,-616.5464 1614.9617,-609.9119"/>
</g>
<!-- ECEC 357 -->
<g id="node45" class="node">
<title>ECEC 357</title>
<ellipse fill="none" stroke="#006400" cx="2234" cy="-591.4113" rx="135.5294" ry="22.7556"/>
<text text-anchor="start" x="2177.5" y="-593.2113" font-family="Times,serif" font-size="14.00" fill="#000000">ECEC 357 (3.0)</text>
<text text-anchor="start" x="2146" y="-582.4113" font-family="Times,serif" font-size="10.00" fill="#000000">Introduction to Computer Networks</text>
</g>
<!-- ECE 203&#45;&gt;ECEC 357 -->
<g id="edge29" class="edge">
<title>ECE 203&#45;&gt;ECEC 357</title>
<path fill="none" stroke="#000000" d="M2092.8709,-735.1117C2116.7628,-725.7282 2143.3467,-712.6159 2164,-695.2935 2187.7248,-675.395 2206.7127,-645.496 2218.8938,-622.8762"/>
<polygon fill="#000000" stroke="#000000" points="2222.0096,-624.4707 2223.5357,-613.9864 2215.8046,-621.2307 2222.0096,-624.4707"/>
</g>
<!-- ENGR 201 -->
<g id="node31" class="node">
<title>ENGR 201</title>
<ellipse fill="none" stroke="#006400" cx="2732" cy="-753.9209" rx="107.4605" ry="22.7556"/>
<text text-anchor="start" x="2674.5" y="-755.7209" font-family="Times,serif" font-size="14.00" fill="#000000">ENGR 201 (3.0)</text>
<text text-anchor="start" x="2664" y="-744.9209" font-family="Times,serif" font-size="10.00" fill="#000000">Eval &amp; Pres of Exper Data I</text>
</g>
<!-- ENGR 202 -->
<g id="node38" class="node">
<title>ENGR 202</title>
<ellipse fill="none" stroke="#006400" cx="2732" cy="-672.6661" rx="110.1176" ry="22.7556"/>
<text text-anchor="start" x="2674.5" y="-674.4661" font-family="Times,serif" font-size="14.00" fill="#000000">ENGR 202 (3.0)</text>
<text text-anchor="start" x="2662" y="-663.6661" font-family="Times,serif" font-size="10.00" fill="#000000">Eval &amp; Pres of Exper Data II</text>
</g>
<!-- ENGR 201&#45;&gt;ENGR 202 -->
<g id="edge21" class="edge">
<title>ENGR 201&#45;&gt;ENGR 202</title>
<path fill="none" stroke="#000000" d="M2732,-731.2869C2732,-723.3414 2732,-714.2453 2732,-705.6268"/>
<polygon fill="#000000" stroke="#000000" points="2735.5001,-705.4605 2732,-695.4605 2728.5001,-705.4606 2735.5001,-705.4605"/>
</g>
<!-- ENGR 232 -->
<g id="node39" class="node">
<title>ENGR 232</title>
<ellipse fill="none" stroke="#006400" cx="2487" cy="-672.6661" rx="116.8455" ry="22.7556"/>
<text text-anchor="start" x="2429.5" y="-674.4661" font-family="Times,serif" font-size="14.00" fill="#000000">ENGR 232 (3.0)</text>
<text text-anchor="start" x="2412.5" y="-663.6661" font-family="Times,serif" font-size="10.00" fill="#000000">Dynamic Engineering Systems</text>
</g>
<!-- ENGR 231&#45;&gt;ENGR 232 -->
<g id="edge22" class="edge">
<title>ENGR 231&#45;&gt;ENGR 232</title>
<path fill="none" stroke="#000000" d="M2487,-731.2869C2487,-723.3414 2487,-714.2453 2487,-705.6268"/>
<polygon fill="#000000" stroke="#000000" points="2490.5001,-705.4605 2487,-695.4605 2483.5001,-705.4606 2490.5001,-705.4605"/>
</g>
<!-- PHIL 111 -->
<g id="node34" class="node">
<title>PHIL 111</title>
<ellipse fill="none" stroke="#006400" cx="2945" cy="-753.9209" rx="87.8629" ry="22.7556"/>
<text text-anchor="start" x="2891" y="-755.7209" font-family="Times,serif" font-size="14.00" fill="#000000">PHIL 111 (3.0)</text>
<text text-anchor="start" x="2904" y="-744.9209" font-family="Times,serif" font-size="10.00" fill="#000000">Symbolic Logic I</text>
</g>
<!-- PHIL 207 -->
<g id="node71" class="node">
<title>PHIL 207</title>
<ellipse fill="none" stroke="#ffa500" cx="2945" cy="-103.8823" rx="87.8629" ry="22.7556"/>
<text text-anchor="start" x="2891" y="-105.6823" font-family="Times,serif" font-size="14.00" fill="#000000">PHIL 207 (3.0)</text>
<text text-anchor="start" x="2902.5" y="-94.8823" font-family="Times,serif" font-size="10.00" fill="#000000">Symbolic Logic II</text>
</g>
<!-- PHIL 111&#45;&gt;PHIL 207 -->
<g id="edge58" class="edge">
<title>PHIL 111&#45;&gt;PHIL 207</title>
<path fill="none" stroke="#000000" d="M2945,-731.045C2945,-699.588 2945,-641.2081 2945,-591.4113 2945,-591.4113 2945,-591.4113 2945,-266.3919 2945,-221.6526 2945,-169.9851 2945,-137.1386"/>
<polygon fill="#000000" stroke="#000000" points="2948.5001,-136.7581 2945,-126.7581 2941.5001,-136.7582 2948.5001,-136.7581"/>
</g>
<!-- 3.1 -->
<g id="node41" class="node">
<title>3.1</title>
<text text-anchor="middle" x="45" y="-587.7113" font-family="Times,serif" font-size="14.00" fill="#000000">3.1 (17.0)</text>
</g>
<!-- 2.2&#45;&gt;3.1 -->
<!-- ECE 201&#45;&gt;ECES 301 -->
<g id="edge31" class="edge">
<title>ECE 201&#45;&gt;ECES 301</title>
<path fill="none" stroke="#000000" d="M940.3913,-650.6774C954.4136,-640.8551 971.0851,-629.1772 985.9069,-618.7949"/>
<polygon fill="#000000" stroke="#000000" points="988.2036,-621.4594 994.3861,-612.8555 984.1875,-615.7261 988.2036,-621.4594"/>
</g>
<!-- ECE 201&#45;&gt;ECE 303 -->
<g id="edge44" class="edge">
<title>ECE 201&#45;&gt;ECE 303</title>
<path fill="none" stroke="#000000" d="M909.5366,-650.002C910.7227,-628.4167 914.3211,-595.3682 925,-568.7838 941.7277,-527.1416 972.9281,-485.847 995.6428,-459.043"/>
<polygon fill="#000000" stroke="#000000" points="998.5195,-461.0662 1002.3943,-451.2053 993.2159,-456.4975 998.5195,-461.0662"/>
</g>
<!-- CS 265 -->
<g id="node42" class="node">
<title>CS 265</title>
<ellipse fill="none" stroke="#006400" cx="1834" cy="-591.4113" rx="170.3255" ry="22.7556"/>
<text text-anchor="start" x="1788.5" y="-593.2113" font-family="Times,serif" font-size="14.00" fill="#000000">CS 265 (3.0)</text>
<text text-anchor="start" x="1721.5" y="-582.4113" font-family="Times,serif" font-size="10.00" fill="#000000">Advanced Programming Tools and Techniques</text>
</g>
<!-- ECEC 201&#45;&gt;CS 265 -->
<g id="edge25" class="edge">
<title>ECEC 201&#45;&gt;CS 265</title>
<path fill="none" stroke="#000000" d="M1981.5239,-651.9518C1955.5937,-641.3106 1923.763,-628.248 1896.3146,-616.9838"/>
<polygon fill="#000000" stroke="#000000" points="1897.3854,-613.64 1886.8053,-613.0814 1894.7278,-620.1159 1897.3854,-613.64"/>
</g>
<!-- ECEC 201&#45;&gt;ECEC 204 -->
<g id="edge36" class="edge">
<title>ECEC 201&#45;&gt;ECEC 204</title>
<path fill="none" stroke="#000000" d="M2030.2506,-649.7228C2028.048,-628.2258 2023.2304,-595.4931 2013,-568.7838 2009.417,-559.4294 2004.3178,-549.9118 1999.0806,-541.3421"/>
<polygon fill="#000000" stroke="#000000" points="2001.9602,-539.3483 1993.6305,-532.8011 1996.0593,-543.1138 2001.9602,-539.3483"/>
</g>
<!-- ECEC 353 -->
<g id="node51" class="node">
<title>ECEC 353</title>
<ellipse fill="none" stroke="#006400" cx="2199" cy="-510.1564" rx="91.4341" ry="22.7556"/>
<text text-anchor="start" x="2142.5" y="-511.9564" font-family="Times,serif" font-size="14.00" fill="#000000">ECEC 353 (3.0)</text>
<text text-anchor="start" x="2143" y="-501.1564" font-family="Times,serif" font-size="10.00" fill="#000000">Systems Programming</text>
</g>
<!-- ECEC 201&#45;&gt;ECEC 353 -->
<g id="edge37" class="edge">
<title>ECEC 201&#45;&gt;ECEC 353</title>
<path fill="none" stroke="#000000" d="M2039.9886,-649.9829C2048.968,-627.1474 2065.4384,-592.0606 2089,-568.7838 2103.4861,-554.4728 2122.1847,-542.7614 2140.0419,-533.6721"/>
<polygon fill="#000000" stroke="#000000" points="2141.8295,-536.6941 2149.2765,-529.158 2138.7553,-530.4052 2141.8295,-536.6941"/>
</g>
<!-- ECE 361 -->
<g id="node43" class="node">
<title>ECE 361</title>
<ellipse fill="none" stroke="#006400" cx="2487" cy="-591.4113" rx="98.9899" ry="22.7556"/>
<text text-anchor="start" x="2436" y="-593.2113" font-family="Times,serif" font-size="14.00" fill="#000000">ECE 361 (4.0)</text>
<text text-anchor="start" x="2425" y="-582.4113" font-family="Times,serif" font-size="10.00" fill="#000000">Probability for Engineers</text>
</g>
<!-- ENGR 232&#45;&gt;ECE 361 -->
<g id="edge26" class="edge">
<title>ENGR 232&#45;&gt;ECE 361</title>
<path fill="none" stroke="#000000" d="M2487,-650.0321C2487,-642.0866 2487,-632.9905 2487,-624.372"/>
<polygon fill="#000000" stroke="#000000" points="2490.5001,-624.2057 2487,-614.2057 2483.5001,-624.2057 2490.5001,-624.2057"/>
</g>
<!-- 3.2 -->
<g id="node47" class="node">
<title>3.2</title>
<text text-anchor="middle" x="45" y="-506.4564" font-family="Times,serif" font-size="14.00" fill="#000000">3.2 (18.0)</text>
</g>
<!-- 3.1&#45;&gt;3.2 -->
<!-- CS 260 -->
<g id="node48" class="node">
<title>CS 260</title>
<ellipse fill="none" stroke="#006400" cx="1771" cy="-510.1564" rx="75.8212" ry="22.7556"/>
<text text-anchor="start" x="1725.5" y="-511.9564" font-family="Times,serif" font-size="14.00" fill="#000000">CS 260 (3.0)</text>
<text text-anchor="start" x="1731.5" y="-501.1564" font-family="Times,serif" font-size="10.00" fill="#000000">Data Structures</text>
</g>
<!-- CS 265&#45;&gt;CS 260 -->
<g id="edge34" class="edge">
<title>CS 265&#45;&gt;CS 260</title>
<path fill="none" stroke="#000000" d="M1816.451,-568.7773C1809.6363,-559.988 1801.73,-549.7907 1794.4409,-540.3895"/>
<polygon fill="#000000" stroke="#000000" points="1797.1306,-538.1465 1788.2372,-532.3882 1791.5986,-542.4357 1797.1306,-538.1465"/>
</g>
<!-- ECE 491 -->
<g id="node66" class="node">
<title>ECE 491</title>
<ellipse fill="none" stroke="#ffa500" cx="2558" cy="-266.3919" rx="92.7622" ry="22.7556"/>
<text text-anchor="start" x="2507" y="-268.1919" font-family="Times,serif" font-size="14.00" fill="#000000">ECE 491 (2.0)</text>
<text text-anchor="start" x="2500.5" y="-257.3919" font-family="Times,serif" font-size="10.00" fill="#000000">Senior Design Project I</text>
</g>
<!-- ECE 361&#45;&gt;ECE 491 -->
<g id="edge53" class="edge">
<title>ECE 361&#45;&gt;ECE 491</title>
<path fill="none" stroke="#000000" d="M2483.8742,-568.5381C2478.3763,-521.0062 2470.6561,-408.9939 2506,-325.0193 2510.4449,-314.4585 2517.5931,-304.5012 2525.1848,-295.8933"/>
<polygon fill="#000000" stroke="#000000" points="2527.9331,-298.0791 2532.2167,-288.3888 2522.8251,-293.2928 2527.9331,-298.0791"/>
</g>
<!-- ECEC 355 -->
<g id="node52" class="node">
<title>ECEC 355</title>
<ellipse fill="none" stroke="#006400" cx="1549" cy="-510.1564" rx="91.4341" ry="22.7556"/>
<text text-anchor="start" x="1492.5" y="-511.9564" font-family="Times,serif" font-size="14.00" fill="#000000">ECEC 355 (3.0)</text>
<text text-anchor="start" x="1492.5" y="-501.1564" font-family="Times,serif" font-size="10.00" fill="#000000">Computer Architecture</text>
</g>
<!-- ECEC 302&#45;&gt;ECEC 355 -->
<g id="edge38" class="edge">
<title>ECEC 302&#45;&gt;ECEC 355</title>
<path fill="none" stroke="#000000" d="M1549,-568.7773C1549,-560.8318 1549,-551.7356 1549,-543.1172"/>
<polygon fill="#000000" stroke="#000000" points="1552.5001,-542.9508 1549,-532.9509 1545.5001,-542.9509 1552.5001,-542.9508"/>
</g>
<!-- 4.1 -->
<g id="node54" class="node">
<title>4.1</title>
<text text-anchor="middle" x="45" y="-425.2016" font-family="Times,serif" font-size="14.00" fill="#000000">4.1 (19.0)</text>
</g>
<!-- 3.2&#45;&gt;4.1 -->
<!-- CS 361 -->
<g id="node55" class="node">
<title>CS 361</title>
<ellipse fill="none" stroke="#ffa500" cx="1771" cy="-428.9016" rx="100.3184" ry="22.7556"/>
<text text-anchor="start" x="1725.5" y="-430.7016" font-family="Times,serif" font-size="14.00" fill="#000000">CS 361 (3.0)</text>
<text text-anchor="start" x="1708" y="-419.9016" font-family="Times,serif" font-size="10.00" fill="#000000">Concurrent Programming</text>
</g>
<!-- CS 260&#45;&gt;CS 361 -->
<g id="edge40" class="edge">
<title>CS 260&#45;&gt;CS 361</title>
<path fill="none" stroke="#000000" d="M1771,-487.5224C1771,-479.5769 1771,-470.4808 1771,-461.8623"/>
<polygon fill="#000000" stroke="#000000" points="1774.5001,-461.696 1771,-451.696 1767.5001,-461.6961 1774.5001,-461.696"/>
</g>
<!-- ECEC I399 -->
<g id="node50" class="node">
<title>ECEC I399</title>
<ellipse fill="none" stroke="#006400" cx="3083" cy="-510.1564" rx="110.1176" ry="22.7556"/>
<text text-anchor="start" x="3023.5" y="-511.9564" font-family="Times,serif" font-size="14.00" fill="#000000">ECEC I399 (3.0)</text>
<text text-anchor="start" x="3013" y="-501.1564" font-family="Times,serif" font-size="10.00" fill="#000000">Vision Processing Hardware</text>
</g>
<!-- CS 370 -->
<g id="node56" class="node">
<title>CS 370</title>
<ellipse fill="none" stroke="#ffa500" cx="2114" cy="-428.9016" rx="77.5641" ry="22.7556"/>
<text text-anchor="start" x="2068.5" y="-430.7016" font-family="Times,serif" font-size="14.00" fill="#000000">CS 370 (3.0)</text>
<text text-anchor="start" x="2067" y="-419.9016" font-family="Times,serif" font-size="10.00" fill="#000000">Operating Systems</text>
</g>
<!-- ECEC 353&#45;&gt;CS 370 -->
<g id="edge42" class="edge">
<title>ECEC 353&#45;&gt;CS 370</title>
<path fill="none" stroke="#000000" d="M2175.7734,-487.9532C2166.0432,-478.6517 2154.603,-467.7155 2144.2295,-457.7991"/>
<polygon fill="#000000" stroke="#000000" points="2146.5513,-455.1767 2136.9042,-450.7967 2141.7143,-460.2367 2146.5513,-455.1767"/>
</g>
<!-- CS 377 -->
<g id="node57" class="node">
<title>CS 377</title>
<ellipse fill="none" stroke="#ffa500" cx="2285" cy="-428.9016" rx="75.8212" ry="22.7556"/>
<text text-anchor="start" x="2239.5" y="-430.7016" font-family="Times,serif" font-size="14.00" fill="#000000">CS 377 (3.0)</text>
<text text-anchor="start" x="2240.5" y="-419.9016" font-family="Times,serif" font-size="10.00" fill="#000000">Software Security</text>
</g>
<!-- ECEC 353&#45;&gt;CS 377 -->
<g id="edge43" class="edge">
<title>ECEC 353&#45;&gt;CS 377</title>
<path fill="none" stroke="#000000" d="M2222.4999,-487.9532C2232.4246,-478.5761 2244.1077,-467.5376 2254.6706,-457.5575"/>
<polygon fill="#000000" stroke="#000000" points="2257.2579,-459.9281 2262.123,-450.5163 2252.4505,-454.84 2257.2579,-459.9281"/>
</g>
<!-- ECEC 355&#45;&gt;CS 361 -->
<g id="edge41" class="edge">
<title>ECEC 355&#45;&gt;CS 361</title>
<path fill="none" stroke="#000000" d="M1600.21,-491.4129C1632.5148,-479.5889 1674.4501,-464.2401 1708.682,-451.7108"/>
<polygon fill="#000000" stroke="#000000" points="1709.9308,-454.9808 1718.1185,-448.2569 1707.5248,-448.4073 1709.9308,-454.9808"/>
</g>
<!-- ECEC 412 -->
<g id="node59" class="node">
<title>ECEC 412</title>
<ellipse fill="none" stroke="#ffa500" cx="1383" cy="-428.9016" rx="101.6471" ry="22.7556"/>
<text text-anchor="start" x="1326.5" y="-430.7016" font-family="Times,serif" font-size="14.00" fill="#000000">ECEC 412 (3.0)</text>
<text text-anchor="start" x="1319" y="-419.9016" font-family="Times,serif" font-size="10.00" fill="#000000">Modern Processor Design</text>
</g>
<!-- ECEC 355&#45;&gt;ECEC 412 -->
<g id="edge46" class="edge">
<title>ECEC 355&#45;&gt;ECEC 412</title>
<path fill="none" stroke="#000000" d="M1507.5394,-489.862C1485.4124,-479.0311 1457.9786,-465.6027 1434.4957,-454.1081"/>
<polygon fill="#000000" stroke="#000000" points="1435.8951,-450.8963 1425.3746,-449.6434 1432.8176,-457.1835 1435.8951,-450.8963"/>
</g>
<!-- ECEC&#45;T 480 -->
<g id="node63" class="node">
<title>ECEC&#45;T 480</title>
<ellipse fill="none" stroke="#ffa500" cx="1386" cy="-347.6468" rx="173.4827" ry="22.7556"/>
<text text-anchor="start" x="1322.5" y="-349.4468" font-family="Times,serif" font-size="14.00" fill="#000000">ECEC&#45;T 480 (3.0)</text>
<text text-anchor="start" x="1271.5" y="-338.6468" font-family="Times,serif" font-size="10.00" fill="#000000">ST: Advanced Topics in Computer Architecture</text>
</g>
<!-- ECEC 355&#45;&gt;ECEC&#45;T 480 -->
<g id="edge50" class="edge">
<title>ECEC 355&#45;&gt;ECEC&#45;T 480</title>
<path fill="none" stroke="#000000" d="M1541.447,-487.5046C1532.9063,-464.694 1517.1108,-429.6268 1494,-406.2742 1481.3296,-393.4712 1465.2695,-382.7362 1449.4337,-374.0978"/>
<polygon fill="#000000" stroke="#000000" points="1450.647,-370.7828 1440.1631,-369.254 1447.4054,-376.987 1450.647,-370.7828"/>
</g>
<!-- ECEC 402 -->
<g id="node75" class="node">
<title>ECEC 402</title>
<ellipse fill="none" stroke="#ff0000" cx="1531" cy="-22.6274" rx="157.8698" ry="22.7556"/>
<text text-anchor="start" x="1474.5" y="-24.4274" font-family="Times,serif" font-size="14.00" fill="#000000">ECEC 402 (3.0)</text>
<text text-anchor="start" x="1427.5" y="-13.6274" font-family="Times,serif" font-size="10.00" fill="#000000">Digital System Projects Embedded Design</text>
</g>
<!-- ECEC 355&#45;&gt;ECEC 402 -->
<g id="edge60" class="edge">
<title>ECEC 355&#45;&gt;ECEC 402</title>
<path fill="none" stroke="#000000" d="M1557.8135,-487.405C1569.0391,-456.33 1587,-398.6419 1587,-347.6468 1587,-347.6468 1587,-347.6468 1587,-185.1371 1587,-137.4703 1565.1981,-86.0192 1548.8011,-54.0638"/>
<polygon fill="#000000" stroke="#000000" points="1551.886,-52.4102 1544.1295,-45.193 1545.6923,-55.6719 1551.886,-52.4102"/>
</g>
<!-- ECEC 413 -->
<g id="node76" class="node">
<title>ECEC 413</title>
<ellipse fill="none" stroke="#ff0000" cx="1855" cy="-22.6274" rx="148.4848" ry="22.7556"/>
<text text-anchor="start" x="1798.5" y="-24.4274" font-family="Times,serif" font-size="14.00" fill="#000000">ECEC 413 (3.0)</text>
<text text-anchor="start" x="1758" y="-13.6274" font-family="Times,serif" font-size="10.00" fill="#000000">Intro to Parallel Computer Architecture</text>
</g>
<!-- ECEC 355&#45;&gt;ECEC 413 -->
<g id="edge61" class="edge">
<title>ECEC 355&#45;&gt;ECEC 413</title>
<path fill="none" stroke="#000000" d="M1571.995,-488.0209C1599.8236,-458.7392 1643,-404.1962 1643,-347.6468 1643,-347.6468 1643,-347.6468 1643,-185.1371 1643,-114.815 1717.3824,-70.7831 1778.0287,-46.5695"/>
<polygon fill="#000000" stroke="#000000" points="1779.5685,-49.7266 1787.6306,-42.8525 1777.0414,-43.1986 1779.5685,-49.7266"/>
</g>
<!-- ECEC 414 -->
<g id="node77" class="node">
<title>ECEC 414</title>
<ellipse fill="none" stroke="#ff0000" cx="1185" cy="-22.6274" rx="115.0173" ry="22.7556"/>
<text text-anchor="start" x="1128.5" y="-24.4274" font-family="Times,serif" font-size="14.00" fill="#000000">ECEC 414 (3.0)</text>
<text text-anchor="start" x="1111.5" y="-13.6274" font-family="Times,serif" font-size="10.00" fill="#000000">High Performance Computing</text>
</g>
<!-- ECEC 355&#45;&gt;ECEC 414 -->
<g id="edge62" class="edge">
<title>ECEC 355&#45;&gt;ECEC 414</title>
<path fill="none" stroke="#000000" d="M1468.9203,-499.143C1399.3118,-488.5044 1304.6535,-471.151 1272,-451.529 1220.3804,-420.5099 1185,-407.8694 1185,-347.6468 1185,-347.6468 1185,-347.6468 1185,-185.1371 1185,-140.3978 1185,-88.7302 1185,-55.8838"/>
<polygon fill="#000000" stroke="#000000" points="1188.5001,-55.5033 1185,-45.5033 1181.5001,-55.5033 1188.5001,-55.5033"/>
</g>
<!-- PHIL 315 -->
<g id="node53" class="node">
<title>PHIL 315</title>
<ellipse fill="none" stroke="#006400" cx="3299" cy="-510.1564" rx="87.8629" ry="22.7556"/>
<text text-anchor="start" x="3245" y="-511.9564" font-family="Times,serif" font-size="14.00" fill="#000000">PHIL 315 (3.0)</text>
<text text-anchor="start" x="3252.5" y="-501.1564" font-family="Times,serif" font-size="10.00" fill="#000000">Engineering Ethics</text>
</g>
<!-- 4.2 -->
<g id="node61" class="node">
<title>4.2</title>
<text text-anchor="middle" x="45" y="-343.9468" font-family="Times,serif" font-size="14.00" fill="#000000">4.2 (8.0)</text>
</g>
<!-- 4.1&#45;&gt;4.2 -->
<!-- 5.1 -->
<g id="node65" class="node">
<title>5.1</title>
<text text-anchor="middle" x="45" y="-262.6919" font-family="Times,serif" font-size="14.00" fill="#000000">5.1 (2.0)</text>
</g>
<!-- 4.2&#45;&gt;5.1 -->
<!-- ECE 391 -->
<g id="node62" class="node">
<title>ECE 391</title>
<ellipse fill="none" stroke="#ffa500" cx="2630" cy="-347.6468" rx="114.6026" ry="22.7556"/>
<text text-anchor="start" x="2579" y="-349.4468" font-family="Times,serif" font-size="14.00" fill="#000000">ECE 391 (1.0)</text>
<text text-anchor="start" x="2557" y="-338.6468" font-family="Times,serif" font-size="10.00" fill="#000000">Intro to Engr Design Methods</text>
</g>
<!-- ECE 391&#45;&gt;ECE 491 -->
<g id="edge52" class="edge">
<title>ECE 391&#45;&gt;ECE 491</title>
<path fill="none" stroke="#000000" d="M2609.944,-325.0128C2602.0771,-316.1347 2592.9373,-305.8201 2584.5374,-296.3404"/>
<polygon fill="#000000" stroke="#000000" points="2586.9512,-293.787 2577.6996,-288.6237 2581.712,-298.4294 2586.9512,-293.787"/>
</g>
<!-- ECON 201 -->
<g id="node64" class="node">
<title>ECON 201</title>
<ellipse fill="none" stroke="#ffa500" cx="3087" cy="-347.6468" rx="113.6886" ry="22.7556"/>
<text text-anchor="start" x="3029" y="-349.4468" font-family="Times,serif" font-size="14.00" fill="#000000">ECON 201 (4.0)</text>
<text text-anchor="start" x="3014.5" y="-338.6468" font-family="Times,serif" font-size="10.00" fill="#000000">Principles of Microeconomics</text>
</g>
<!-- 5.2 -->
<g id="node67" class="node">
<title>5.2</title>
<text text-anchor="middle" x="45" y="-181.4371" font-family="Times,serif" font-size="14.00" fill="#000000">5.2 (2.0)</text>
</g>
<!-- 5.1&#45;&gt;5.2 -->
<!-- ECE 492 -->
<g id="node68" class="node">
<title>ECE 492</title>
<ellipse fill="none" stroke="#ffa500" cx="2558" cy="-185.1371" rx="94.5053" ry="22.7556"/>
<text text-anchor="start" x="2507" y="-186.9371" font-family="Times,serif" font-size="14.00" fill="#000000">ECE 492 (2.0)</text>
<text text-anchor="start" x="2499" y="-176.1371" font-family="Times,serif" font-size="10.00" fill="#000000">Senior Design Project II</text>
</g>
<!-- ECE 491&#45;&gt;ECE 492 -->
<g id="edge55" class="edge">
<title>ECE 491&#45;&gt;ECE 492</title>
<path fill="none" stroke="#000000" d="M2558,-243.7579C2558,-235.8124 2558,-226.7163 2558,-218.0978"/>
<polygon fill="#000000" stroke="#000000" points="2561.5001,-217.9315 2558,-207.9315 2554.5001,-217.9316 2561.5001,-217.9315"/>
</g>
<!-- 5.3 -->
<g id="node69" class="node">
<title>5.3</title>
<text text-anchor="middle" x="45" y="-100.1823" font-family="Times,serif" font-size="14.00" fill="#000000">5.3 (7.0)</text>
</g>
<!-- 5.2&#45;&gt;5.3 -->
<!-- ECE 493 -->
<g id="node70" class="node">
<title>ECE 493</title>
<ellipse fill="none" stroke="#ffa500" cx="2558" cy="-103.8823" rx="97.6615" ry="22.7556"/>
<text text-anchor="start" x="2507" y="-105.6823" font-family="Times,serif" font-size="14.00" fill="#000000">ECE 493 (4.0)</text>
<text text-anchor="start" x="2497" y="-94.8823" font-family="Times,serif" font-size="10.00" fill="#000000">Senior Design Project III</text>
</g>
<!-- ECE 492&#45;&gt;ECE 493 -->
<g id="edge57" class="edge">
<title>ECE 492&#45;&gt;ECE 493</title>
<path fill="none" stroke="#000000" d="M2558,-162.5031C2558,-154.5576 2558,-145.4615 2558,-136.843"/>
<polygon fill="#000000" stroke="#000000" points="2561.5001,-136.6767 2558,-126.6767 2554.5001,-136.6767 2561.5001,-136.6767"/>
</g>
<!-- &#45;1.0 -->
<g id="node72" class="node">
<title>&#45;1.0</title>
<text text-anchor="middle" x="45" y="-18.9274" font-family="Times,serif" font-size="14.00" fill="#000000">&#45;1.0 (16.0)</text>
</g>
<!-- 5.3&#45;&gt;&#45;1.0 -->
<!-- TEMP GenEd -->
<g id="node73" class="node">
<title>TEMP GenEd</title>
<ellipse fill="none" stroke="#ff0000" cx="2131" cy="-22.6274" rx="109.7032" ry="22.7556"/>
<text text-anchor="start" x="2063.5" y="-24.4274" font-family="Times,serif" font-size="14.00" fill="#000000">TEMP GenEd (4.0)</text>
<text text-anchor="start" x="2061.5" y="-13.6274" font-family="Times,serif" font-size="10.00" fill="#000000">General Education Electives</text>
</g>
<!-- TEMP COE -->
<g id="node74" class="node">
<title>TEMP COE</title>
<ellipse fill="none" stroke="#ff0000" cx="2360" cy="-22.6274" rx="101.6471" ry="22.7556"/>
<text text-anchor="start" x="2299.5" y="-24.4274" font-family="Times,serif" font-size="14.00" fill="#000000">TEMP COE (3.0)</text>
<text text-anchor="start" x="2296" y="-13.6274" font-family="Times,serif" font-size="10.00" fill="#000000">ECE/COE/BMES Electives</text>
</g>
</g>
</svg>
