<?xml version="1.0" encoding="UTF-8" standalone="no"?>
<!DOCTYPE svg PUBLIC "-//W3C//DTD SVG 1.1//EN"
 "http://www.w3.org/Graphics/SVG/1.1/DTD/svg11.dtd">
<!-- Generated by graphviz version 2.44.0 (0)
 -->
<!-- Title: Classes Pages: 1 -->
<svg width="3614pt" height="1110pt"
 viewBox="0.00 0.00 3614.39 1109.57" xmlns="http://www.w3.org/2000/svg" xmlns:xlink="http://www.w3.org/1999/xlink">
<g id="graph0" class="graph" transform="scale(1 1) rotate(0) translate(4 1105.57)">
<title>Classes</title>
<polygon fill="white" stroke="transparent" points="-4,4 -4,-1105.57 3610.39,-1105.57 3610.39,4 -4,4"/>
<!-- 0.0 -->
<g id="node1" class="node">
<title>0.0</title>
<text text-anchor="middle" x="43" y="-1075.24" font-family="Times,serif" font-size="14.00">0.0 (11.0)</text>
</g>
<!-- 1.1 -->
<g id="node5" class="node">
<title>1.1</title>
<text text-anchor="middle" x="43" y="-993.99" font-family="Times,serif" font-size="14.00">1.1 (16.5)</text>
</g>
<!-- 0.0&#45;&gt;1.1 -->
<!-- CS 190 -->
<g id="node2" class="node">
<title>CS 190</title>
<ellipse fill="none" stroke="darkgreen" cx="224" cy="-1078.94" rx="119.5" ry="22.76"/>
<text text-anchor="start" x="179" y="-1080.74" font-family="Times,serif" font-size="14.00">CS 190 (3.0)</text>
<text text-anchor="start" x="147.5" y="-1069.94" font-family="Times,serif" font-size="10.00">Selected Computer Language</text>
</g>
<!-- SPAN 101 -->
<g id="node3" class="node">
<title>SPAN 101</title>
<ellipse fill="none" stroke="darkgreen" cx="451" cy="-1078.94" rx="89.19" ry="22.76"/>
<text text-anchor="start" x="396" y="-1080.74" font-family="Times,serif" font-size="14.00">SPAN 101 (4.0)</text>
<text text-anchor="start" x="426.5" y="-1069.94" font-family="Times,serif" font-size="10.00">Spanish I</text>
</g>
<!-- TGFE 099 -->
<g id="node4" class="node">
<title>TGFE 099</title>
<ellipse fill="none" stroke="darkgreen" cx="680" cy="-1078.94" rx="122.16" ry="22.76"/>
<text text-anchor="start" x="625" y="-1080.74" font-family="Times,serif" font-size="14.00">TGFE 099 (4.0)</text>
<text text-anchor="start" x="601.5" y="-1069.94" font-family="Times,serif" font-size="10.00">Transfer General Free Elective</text>
</g>
<!-- 1.2 -->
<g id="node13" class="node">
<title>1.2</title>
<text text-anchor="middle" x="43" y="-912.73" font-family="Times,serif" font-size="14.00">1.2 (19.5)</text>
</g>
<!-- 1.1&#45;&gt;1.2 -->
<!-- CHEM 101 -->
<g id="node6" class="node">
<title>CHEM 101</title>
<ellipse fill="none" stroke="darkgreen" cx="320" cy="-997.69" rx="94.09" ry="22.76"/>
<text text-anchor="start" x="261.5" y="-999.49" font-family="Times,serif" font-size="14.00">CHEM 101 (3.5)</text>
<text text-anchor="start" x="268.5" y="-988.69" font-family="Times,serif" font-size="10.00">General Chemistry I</text>
</g>
<!-- CHEM 102 -->
<g id="node14" class="node">
<title>CHEM 102</title>
<ellipse fill="none" stroke="darkgreen" cx="198" cy="-916.43" rx="94.09" ry="22.76"/>
<text text-anchor="start" x="139.5" y="-918.23" font-family="Times,serif" font-size="14.00">CHEM 102 (4.5)</text>
<text text-anchor="start" x="144.5" y="-907.43" font-family="Times,serif" font-size="10.00">General Chemistry II</text>
</g>
<!-- CHEM 101&#45;&gt;CHEM 102 -->
<g id="edge3" class="edge">
<title>CHEM 101&#45;&gt;CHEM 102</title>
<path fill="none" stroke="black" d="M288.58,-976.28C273.21,-966.29 254.54,-954.16 238.15,-943.51"/>
<polygon fill="black" stroke="black" points="239.6,-940.28 229.31,-937.77 235.79,-946.15 239.6,-940.28"/>
</g>
<!-- BIO 141 -->
<g id="node22" class="node">
<title>BIO 141</title>
<ellipse fill="none" stroke="darkgreen" cx="320" cy="-835.18" rx="79.81" ry="22.76"/>
<text text-anchor="start" x="271.5" y="-836.98" font-family="Times,serif" font-size="14.00">BIO 141 (4.5)</text>
<text text-anchor="start" x="276" y="-826.18" font-family="Times,serif" font-size="10.00">Essential Biology</text>
</g>
<!-- CHEM 101&#45;&gt;BIO 141 -->
<g id="edge8" class="edge">
<title>CHEM 101&#45;&gt;BIO 141</title>
<path fill="none" stroke="black" d="M320,-975.04C320,-947.52 320,-899.77 320,-868.07"/>
<polygon fill="black" stroke="black" points="323.5,-867.99 320,-857.99 316.5,-867.99 323.5,-867.99"/>
</g>
<!-- ENGR 220 -->
<g id="node32" class="node">
<title>ENGR 220</title>
<ellipse fill="none" stroke="darkgreen" cx="625" cy="-753.92" rx="108.79" ry="22.76"/>
<text text-anchor="start" x="568" y="-755.72" font-family="Times,serif" font-size="14.00">ENGR 220 (4.0)</text>
<text text-anchor="start" x="556" y="-744.92" font-family="Times,serif" font-size="10.00">Fundamentals of Materials</text>
</g>
<!-- CHEM 101&#45;&gt;ENGR 220 -->
<g id="edge14" class="edge">
<title>CHEM 101&#45;&gt;ENGR 220</title>
<path fill="none" stroke="black" d="M342.82,-975.48C381.35,-940.09 462.3,-867.45 536,-812.55 550.68,-801.61 567.4,-790.47 582.34,-780.94"/>
<polygon fill="black" stroke="black" points="584.32,-783.83 590.91,-775.52 580.58,-777.91 584.32,-783.83"/>
</g>
<!-- ENGL 101 -->
<g id="node7" class="node">
<title>ENGL 101</title>
<ellipse fill="none" stroke="darkgreen" cx="1672" cy="-997.69" rx="109.7" ry="22.76"/>
<text text-anchor="start" x="1616" y="-999.49" font-family="Times,serif" font-size="14.00">ENGL 101 (3.0)</text>
<text text-anchor="start" x="1602.5" y="-988.69" font-family="Times,serif" font-size="10.00">Composition and Rhetoric I</text>
</g>
<!-- ENGL 102 -->
<g id="node16" class="node">
<title>ENGL 102</title>
<ellipse fill="none" stroke="darkgreen" cx="1672" cy="-916.43" rx="112.36" ry="22.76"/>
<text text-anchor="start" x="1616" y="-918.23" font-family="Times,serif" font-size="14.00">ENGL 102 (3.0)</text>
<text text-anchor="start" x="1600.5" y="-907.43" font-family="Times,serif" font-size="10.00">Composition and Rhetoric II</text>
</g>
<!-- ENGL 101&#45;&gt;ENGL 102 -->
<g id="edge4" class="edge">
<title>ENGL 101&#45;&gt;ENGL 102</title>
<path fill="none" stroke="black" d="M1672,-975.03C1672,-967.08 1672,-957.9 1672,-949.25"/>
<polygon fill="black" stroke="black" points="1675.5,-949.06 1672,-939.06 1668.5,-949.06 1675.5,-949.06"/>
</g>
<!-- ENGR 100 -->
<g id="node8" class="node">
<title>ENGR 100</title>
<ellipse fill="none" stroke="darkgreen" cx="1907" cy="-997.69" rx="107.46" ry="22.76"/>
<text text-anchor="start" x="1850" y="-999.49" font-family="Times,serif" font-size="14.00">ENGR 100 (1.0)</text>
<text text-anchor="start" x="1839" y="-988.69" font-family="Times,serif" font-size="10.00">Beginning CAD for Design</text>
</g>
<!-- ENGR 101 -->
<g id="node9" class="node">
<title>ENGR 101</title>
<ellipse fill="none" stroke="darkgreen" cx="1155" cy="-997.69" rx="105.22" ry="22.76"/>
<text text-anchor="start" x="1098" y="-999.49" font-family="Times,serif" font-size="14.00">ENGR 101 (2.0)</text>
<text text-anchor="start" x="1088.5" y="-988.69" font-family="Times,serif" font-size="10.00">Engineering Design Lab I</text>
</g>
<!-- ENGR 102 -->
<g id="node17" class="node">
<title>ENGR 102</title>
<ellipse fill="none" stroke="darkgreen" cx="1155" cy="-916.43" rx="107.46" ry="22.76"/>
<text text-anchor="start" x="1098" y="-918.23" font-family="Times,serif" font-size="14.00">ENGR 102 (2.0)</text>
<text text-anchor="start" x="1087" y="-907.43" font-family="Times,serif" font-size="10.00">Engineering Design Lab II</text>
</g>
<!-- ENGR 101&#45;&gt;ENGR 102 -->
<g id="edge5" class="edge">
<title>ENGR 101&#45;&gt;ENGR 102</title>
<path fill="none" stroke="black" d="M1155,-975.03C1155,-967.08 1155,-957.9 1155,-949.25"/>
<polygon fill="black" stroke="black" points="1158.5,-949.06 1155,-939.06 1151.5,-949.06 1158.5,-949.06"/>
</g>
<!-- ENGR 121 -->
<g id="node10" class="node">
<title>ENGR 121</title>
<ellipse fill="none" stroke="darkgreen" cx="1452" cy="-997.69" rx="91.85" ry="22.76"/>
<text text-anchor="start" x="1395" y="-999.49" font-family="Times,serif" font-size="14.00">ENGR 121 (2.0)</text>
<text text-anchor="start" x="1404" y="-988.69" font-family="Times,serif" font-size="10.00">Computation Lab I</text>
</g>
<!-- ENGR 231 -->
<g id="node33" class="node">
<title>ENGR 231</title>
<ellipse fill="none" stroke="darkgreen" cx="1452" cy="-753.92" rx="114.6" ry="22.76"/>
<text text-anchor="start" x="1395" y="-755.72" font-family="Times,serif" font-size="14.00">ENGR 231 (3.0)</text>
<text text-anchor="start" x="1379" y="-744.92" font-family="Times,serif" font-size="10.00">Linear Engineering Systems</text>
</g>
<!-- ENGR 121&#45;&gt;ENGR 231 -->
<g id="edge17" class="edge">
<title>ENGR 121&#45;&gt;ENGR 231</title>
<path fill="none" stroke="black" d="M1452,-974.8C1452,-931.92 1452,-836.67 1452,-786.79"/>
<polygon fill="black" stroke="black" points="1455.5,-786.58 1452,-776.58 1448.5,-786.58 1455.5,-786.58"/>
</g>
<!-- MATH 121 -->
<g id="node11" class="node">
<title>MATH 121</title>
<ellipse fill="none" stroke="darkgreen" cx="549" cy="-997.69" rx="92.76" ry="22.76"/>
<text text-anchor="start" x="491.5" y="-999.49" font-family="Times,serif" font-size="14.00">MATH 121 (4.0)</text>
<text text-anchor="start" x="523.5" y="-988.69" font-family="Times,serif" font-size="10.00">Calculus I</text>
</g>
<!-- MATH 122 -->
<g id="node19" class="node">
<title>MATH 122</title>
<ellipse fill="none" stroke="darkgreen" cx="549" cy="-916.43" rx="92.76" ry="22.76"/>
<text text-anchor="start" x="491.5" y="-918.23" font-family="Times,serif" font-size="14.00">MATH 122 (4.0)</text>
<text text-anchor="start" x="521.5" y="-907.43" font-family="Times,serif" font-size="10.00">Calculus II</text>
</g>
<!-- MATH 121&#45;&gt;MATH 122 -->
<g id="edge6" class="edge">
<title>MATH 121&#45;&gt;MATH 122</title>
<path fill="none" stroke="black" d="M549,-975.03C549,-967.08 549,-957.9 549,-949.25"/>
<polygon fill="black" stroke="black" points="552.5,-949.06 549,-939.06 545.5,-949.06 552.5,-949.06"/>
</g>
<!-- UNIV 101 -->
<g id="node12" class="node">
<title>UNIV 101</title>
<ellipse fill="none" stroke="darkgreen" cx="2127" cy="-997.69" rx="94.51" ry="22.76"/>
<text text-anchor="start" x="2072.5" y="-999.49" font-family="Times,serif" font-size="14.00">UNIV 101 (1.0)</text>
<text text-anchor="start" x="2068" y="-988.69" font-family="Times,serif" font-size="10.00">The Drexel Experience</text>
</g>
<!-- 1.3 -->
<g id="node21" class="node">
<title>1.3</title>
<text text-anchor="middle" x="43" y="-831.48" font-family="Times,serif" font-size="14.00">1.3 (17.5)</text>
</g>
<!-- 1.2&#45;&gt;1.3 -->
<!-- CIVC 101 -->
<g id="node15" class="node">
<title>CIVC 101</title>
<ellipse fill="none" stroke="darkgreen" cx="1909" cy="-916.43" rx="106.55" ry="22.76"/>
<text text-anchor="start" x="1856" y="-918.23" font-family="Times,serif" font-size="14.00">CIVC 101 (1.0)</text>
<text text-anchor="start" x="1841.5" y="-907.43" font-family="Times,serif" font-size="10.00">Intro to Civic Engagement</text>
</g>
<!-- ENGL 103 -->
<g id="node24" class="node">
<title>ENGL 103</title>
<ellipse fill="none" stroke="darkgreen" cx="1672" cy="-835.18" rx="115.02" ry="22.76"/>
<text text-anchor="start" x="1616" y="-836.98" font-family="Times,serif" font-size="14.00">ENGL 103 (3.0)</text>
<text text-anchor="start" x="1598.5" y="-826.18" font-family="Times,serif" font-size="10.00">Composition and Rhetoric III</text>
</g>
<!-- ENGL 102&#45;&gt;ENGL 103 -->
<g id="edge9" class="edge">
<title>ENGL 102&#45;&gt;ENGL 103</title>
<path fill="none" stroke="black" d="M1672,-893.77C1672,-885.82 1672,-876.65 1672,-867.99"/>
<polygon fill="black" stroke="black" points="1675.5,-867.81 1672,-857.81 1668.5,-867.81 1675.5,-867.81"/>
</g>
<!-- ENGR 103 -->
<g id="node25" class="node">
<title>ENGR 103</title>
<ellipse fill="none" stroke="darkgreen" cx="1155" cy="-835.18" rx="110.12" ry="22.76"/>
<text text-anchor="start" x="1098" y="-836.98" font-family="Times,serif" font-size="14.00">ENGR 103 (2.0)</text>
<text text-anchor="start" x="1085" y="-826.18" font-family="Times,serif" font-size="10.00">Engineering Design Lab III</text>
</g>
<!-- ENGR 102&#45;&gt;ENGR 103 -->
<g id="edge10" class="edge">
<title>ENGR 102&#45;&gt;ENGR 103</title>
<path fill="none" stroke="black" d="M1155,-893.77C1155,-885.82 1155,-876.65 1155,-867.99"/>
<polygon fill="black" stroke="black" points="1158.5,-867.81 1155,-857.81 1151.5,-867.81 1158.5,-867.81"/>
</g>
<!-- ENGR 122 -->
<g id="node18" class="node">
<title>ENGR 122</title>
<ellipse fill="none" stroke="darkgreen" cx="2126" cy="-916.43" rx="91.85" ry="22.76"/>
<text text-anchor="start" x="2069" y="-918.23" font-family="Times,serif" font-size="14.00">ENGR 122 (1.0)</text>
<text text-anchor="start" x="2076" y="-907.43" font-family="Times,serif" font-size="10.00">Computation Lab II</text>
</g>
<!-- MATH 200 -->
<g id="node26" class="node">
<title>MATH 200</title>
<ellipse fill="none" stroke="darkgreen" cx="651" cy="-835.18" rx="92.76" ry="22.76"/>
<text text-anchor="start" x="593.5" y="-836.98" font-family="Times,serif" font-size="14.00">MATH 200 (4.0)</text>
<text text-anchor="start" x="596.5" y="-826.18" font-family="Times,serif" font-size="10.00">Multivariate Calculus</text>
</g>
<!-- MATH 122&#45;&gt;MATH 200 -->
<g id="edge11" class="edge">
<title>MATH 122&#45;&gt;MATH 200</title>
<path fill="none" stroke="black" d="M575.8,-894.61C588.21,-884.96 603.12,-873.38 616.38,-863.08"/>
<polygon fill="black" stroke="black" points="618.63,-865.76 624.38,-856.86 614.34,-860.23 618.63,-865.76"/>
</g>
<!-- MATH 122&#45;&gt;ENGR 220 -->
<g id="edge15" class="edge">
<title>MATH 122&#45;&gt;ENGR 220</title>
<path fill="none" stroke="black" d="M543.64,-893.68C539.46,-871.93 536.29,-838.14 549,-812.55 555.22,-800.02 565.62,-789.48 576.75,-780.99"/>
<polygon fill="black" stroke="black" points="578.82,-783.81 584.94,-775.16 574.76,-778.11 578.82,-783.81"/>
</g>
<!-- PHYS 201 -->
<g id="node58" class="node">
<title>PHYS 201</title>
<ellipse fill="none" stroke="darkgreen" cx="625" cy="-428.9" rx="111.95" ry="22.76"/>
<text text-anchor="start" x="570" y="-430.7" font-family="Times,serif" font-size="14.00">PHYS 201 (4.0)</text>
<text text-anchor="start" x="554" y="-419.9" font-family="Times,serif" font-size="10.00">Fundamentals of Physics III</text>
</g>
<!-- MATH 122&#45;&gt;PHYS 201 -->
<g id="edge44" class="edge">
<title>MATH 122&#45;&gt;PHYS 201</title>
<path fill="none" stroke="black" d="M535.01,-893.83C517,-863.9 488,-807.54 488,-754.92 488,-754.92 488,-754.92 488,-590.41 488,-531.92 541.28,-483.96 581.38,-456.14"/>
<polygon fill="black" stroke="black" points="583.39,-459.01 589.72,-450.52 579.47,-453.21 583.39,-459.01"/>
</g>
<!-- PHYS 101 -->
<g id="node20" class="node">
<title>PHYS 101</title>
<ellipse fill="none" stroke="darkgreen" cx="851" cy="-916.43" rx="106.55" ry="22.76"/>
<text text-anchor="start" x="796" y="-918.23" font-family="Times,serif" font-size="14.00">PHYS 101 (4.0)</text>
<text text-anchor="start" x="783.5" y="-907.43" font-family="Times,serif" font-size="10.00">Fundamentals of Physics I</text>
</g>
<!-- PHYS 102 -->
<g id="node27" class="node">
<title>PHYS 102</title>
<ellipse fill="none" stroke="darkgreen" cx="910" cy="-835.18" rx="109.7" ry="22.76"/>
<text text-anchor="start" x="855" y="-836.98" font-family="Times,serif" font-size="14.00">PHYS 102 (4.0)</text>
<text text-anchor="start" x="840.5" y="-826.18" font-family="Times,serif" font-size="10.00">Fundamentals of Physics II</text>
</g>
<!-- PHYS 101&#45;&gt;PHYS 102 -->
<g id="edge12" class="edge">
<title>PHYS 101&#45;&gt;PHYS 102</title>
<path fill="none" stroke="black" d="M867.12,-893.77C873.5,-885.21 880.93,-875.23 887.79,-866"/>
<polygon fill="black" stroke="black" points="890.73,-867.92 893.9,-857.81 885.12,-863.74 890.73,-867.92"/>
</g>
<!-- PHYS 101&#45;&gt;ENGR 220 -->
<g id="edge16" class="edge">
<title>PHYS 101&#45;&gt;ENGR 220</title>
<path fill="none" stroke="black" d="M827.64,-894.1C816.3,-883.47 802.64,-870.25 791,-857.8 773.06,-838.62 773.94,-828.39 753,-812.55 734.04,-798.2 710.94,-786.42 689.61,-777.33"/>
<polygon fill="black" stroke="black" points="690.85,-774.06 680.28,-773.48 688.18,-780.53 690.85,-774.06"/>
</g>
<!-- 2.1 -->
<g id="node28" class="node">
<title>2.1</title>
<text text-anchor="middle" x="43" y="-750.22" font-family="Times,serif" font-size="14.00">2.1 (20.0)</text>
</g>
<!-- 1.3&#45;&gt;2.1 -->
<!-- COOP 101 -->
<g id="node23" class="node">
<title>COOP 101</title>
<ellipse fill="none" stroke="darkgreen" cx="1911" cy="-835.18" rx="105.22" ry="22.76"/>
<text text-anchor="start" x="1861.5" y="-836.98" font-family="Times,serif" font-size="14.00">COOP 101 (0)</text>
<text text-anchor="start" x="1844.5" y="-826.18" font-family="Times,serif" font-size="10.00">Career Mgmt/Profess Dev</text>
</g>
<!-- ECES 301 -->
<g id="node46" class="node">
<title>ECES 301</title>
<ellipse fill="none" stroke="darkgreen" cx="1185" cy="-591.41" rx="91.43" ry="22.76"/>
<text text-anchor="start" x="1129.5" y="-593.21" font-family="Times,serif" font-size="14.00">ECES 301 (4.0)</text>
<text text-anchor="start" x="1128.5" y="-582.41" font-family="Times,serif" font-size="10.00">Signals and Systems I</text>
</g>
<!-- ENGR 103&#45;&gt;ECES 301 -->
<g id="edge32" class="edge">
<title>ENGR 103&#45;&gt;ECES 301</title>
<path fill="none" stroke="black" d="M1157.72,-812.29C1163.04,-769.41 1174.86,-674.16 1181.05,-624.28"/>
<polygon fill="black" stroke="black" points="1184.55,-624.42 1182.31,-614.07 1177.61,-623.56 1184.55,-624.42"/>
</g>
<!-- ECE 303 -->
<g id="node55" class="node">
<title>ECE 303</title>
<ellipse fill="none" stroke="darkgreen" cx="1019" cy="-428.9" rx="82.96" ry="22.76"/>
<text text-anchor="start" x="968.5" y="-430.7" font-family="Times,serif" font-size="14.00">ECE 303 (3.0)</text>
<text text-anchor="start" x="978" y="-419.9" font-family="Times,serif" font-size="10.00">ECE Laboratory</text>
</g>
<!-- ENGR 103&#45;&gt;ECE 303 -->
<g id="edge41" class="edge">
<title>ENGR 103&#45;&gt;ECE 303</title>
<path fill="none" stroke="black" d="M1133.91,-812.88C1107.59,-783.96 1066,-729.43 1066,-673.67 1066,-673.67 1066,-673.67 1066,-590.41 1066,-543.7 1047.44,-492.32 1033.65,-460.58"/>
<polygon fill="black" stroke="black" points="1036.82,-459.09 1029.55,-451.38 1030.43,-461.94 1036.82,-459.09"/>
</g>
<!-- ECE 201 -->
<g id="node36" class="node">
<title>ECE 201</title>
<ellipse fill="none" stroke="darkgreen" cx="914" cy="-672.67" rx="124.4" ry="22.76"/>
<text text-anchor="start" x="863.5" y="-674.47" font-family="Times,serif" font-size="14.00">ECE 201 (4.0)</text>
<text text-anchor="start" x="834" y="-663.67" font-family="Times,serif" font-size="10.00">Foundations of Electric Circuits</text>
</g>
<!-- PHYS 102&#45;&gt;ECE 201 -->
<g id="edge19" class="edge">
<title>PHYS 102&#45;&gt;ECE 201</title>
<path fill="none" stroke="black" d="M910.54,-812.53C911.23,-785.01 912.42,-737.26 913.21,-705.56"/>
<polygon fill="black" stroke="black" points="916.71,-705.57 913.46,-695.48 909.71,-705.39 916.71,-705.57"/>
</g>
<!-- PHYS 102&#45;&gt;PHYS 201 -->
<g id="edge43" class="edge">
<title>PHYS 102&#45;&gt;PHYS 201</title>
<path fill="none" stroke="black" d="M871.11,-813.82C827.26,-787.74 762,-738.1 762,-673.67 762,-673.67 762,-673.67 762,-590.41 762,-531.92 708.72,-483.96 668.62,-456.14"/>
<polygon fill="black" stroke="black" points="670.53,-453.21 660.28,-450.52 666.61,-459.01 670.53,-453.21"/>
</g>
<!-- 2.2 -->
<g id="node35" class="node">
<title>2.2</title>
<text text-anchor="middle" x="43" y="-668.97" font-family="Times,serif" font-size="14.00">2.2 (16.0)</text>
</g>
<!-- 2.1&#45;&gt;2.2 -->
<!-- ECE 200 -->
<g id="node29" class="node">
<title>ECE 200</title>
<ellipse fill="none" stroke="darkgreen" cx="1806" cy="-753.92" rx="84.71" ry="22.76"/>
<text text-anchor="start" x="1755.5" y="-755.72" font-family="Times,serif" font-size="14.00">ECE 200 (4.0)</text>
<text text-anchor="start" x="1754" y="-744.92" font-family="Times,serif" font-size="10.00">Digital Logic Design</text>
</g>
<!-- MATH 221 -->
<g id="node40" class="node">
<title>MATH 221</title>
<ellipse fill="none" stroke="darkgreen" cx="1649" cy="-672.67" rx="92.76" ry="22.76"/>
<text text-anchor="start" x="1591.5" y="-674.47" font-family="Times,serif" font-size="14.00">MATH 221 (3.0)</text>
<text text-anchor="start" x="1593" y="-663.67" font-family="Times,serif" font-size="10.00">Discrete Mathematics</text>
</g>
<!-- ECE 200&#45;&gt;MATH 221 -->
<g id="edge23" class="edge">
<title>ECE 200&#45;&gt;MATH 221</title>
<path fill="none" stroke="black" d="M1767.59,-733.53C1746.29,-722.78 1719.6,-709.31 1696.94,-697.87"/>
<polygon fill="black" stroke="black" points="1698.33,-694.65 1687.83,-693.27 1695.18,-700.9 1698.33,-694.65"/>
</g>
<!-- ECEC 302 -->
<g id="node44" class="node">
<title>ECEC 302</title>
<ellipse fill="none" stroke="darkgreen" cx="2498" cy="-591.41" rx="98.99" ry="22.76"/>
<text text-anchor="start" x="2442" y="-593.21" font-family="Times,serif" font-size="14.00">ECEC 302 (3.0)</text>
<text text-anchor="start" x="2436" y="-582.41" font-family="Times,serif" font-size="10.00">Digital Systems Projects</text>
</g>
<!-- ECE 200&#45;&gt;ECEC 302 -->
<g id="edge28" class="edge">
<title>ECE 200&#45;&gt;ECEC 302</title>
<path fill="none" stroke="black" d="M1889.1,-749.02C2019.31,-742.08 2265.04,-725.41 2347,-695.29 2393,-678.39 2438.46,-644.43 2467.29,-620.15"/>
<polygon fill="black" stroke="black" points="2469.65,-622.74 2474.97,-613.58 2465.1,-617.42 2469.65,-622.74"/>
</g>
<!-- ECE 200&#45;&gt;ECES 301 -->
<g id="edge30" class="edge">
<title>ECE 200&#45;&gt;ECES 301</title>
<path fill="none" stroke="black" d="M1727.36,-745.3C1574.13,-730.39 1250.02,-698.53 1245,-695.29 1219.6,-678.92 1203.65,-647.72 1194.64,-623.95"/>
<polygon fill="black" stroke="black" points="1197.84,-622.53 1191.19,-614.29 1191.25,-624.88 1197.84,-622.53"/>
</g>
<!-- ECEC 204 -->
<g id="node49" class="node">
<title>ECEC 204</title>
<ellipse fill="none" stroke="darkgreen" cx="1897" cy="-510.16" rx="115.93" ry="22.76"/>
<text text-anchor="start" x="1841" y="-511.96" font-family="Times,serif" font-size="14.00">ECEC 204 (3.0)</text>
<text text-anchor="start" x="1823" y="-501.16" font-family="Times,serif" font-size="10.00">Design with Microcontrollers</text>
</g>
<!-- ECE 200&#45;&gt;ECEC 204 -->
<g id="edge35" class="edge">
<title>ECE 200&#45;&gt;ECEC 204</title>
<path fill="none" stroke="black" d="M1814.24,-731.04C1830.44,-687.98 1866.53,-592.11 1885.24,-542.4"/>
<polygon fill="black" stroke="black" points="1888.6,-543.41 1888.85,-532.81 1882.05,-540.94 1888.6,-543.41"/>
</g>
<!-- ECEC 474 -->
<g id="node63" class="node">
<title>ECEC 474</title>
<ellipse fill="none" stroke="darkgreen" cx="2064" cy="-347.65" rx="90.52" ry="22.76"/>
<text text-anchor="start" x="2008" y="-349.45" font-family="Times,serif" font-size="14.00">ECEC 474 (3.0)</text>
<text text-anchor="start" x="2028" y="-338.65" font-family="Times,serif" font-size="10.00">ASIC Design I</text>
</g>
<!-- ECE 200&#45;&gt;ECEC 474 -->
<g id="edge47" class="edge">
<title>ECE 200&#45;&gt;ECEC 474</title>
<path fill="none" stroke="black" d="M1794.53,-731.29C1770.8,-683.29 1722.51,-565.88 1772,-487.53 1817.36,-415.72 1911.11,-380.28 1980.2,-363.3"/>
<polygon fill="black" stroke="black" points="1981.28,-366.64 1990.2,-360.93 1979.67,-359.83 1981.28,-366.64"/>
</g>
<!-- ECE 370 -->
<g id="node67" class="node">
<title>ECE 370</title>
<ellipse fill="none" stroke="blue" cx="2625" cy="-266.39" rx="82.96" ry="22.76"/>
<text text-anchor="start" x="2574.5" y="-268.19" font-family="Times,serif" font-size="14.00">ECE 370 (3.0)</text>
<text text-anchor="start" x="2578" y="-257.39" font-family="Times,serif" font-size="10.00">Electronic Devices</text>
</g>
<!-- ECE 200&#45;&gt;ECE 370 -->
<g id="edge56" class="edge">
<title>ECE 200&#45;&gt;ECE 370</title>
<path fill="none" stroke="black" d="M1890.99,-752.14C2007.58,-749.39 2222.94,-738.29 2401,-695.29 2507.49,-669.58 2625,-701.97 2625,-592.41 2625,-592.41 2625,-592.41 2625,-427.9 2625,-383.34 2625,-331.81 2625,-299.42"/>
<polygon fill="black" stroke="black" points="2628.5,-299.2 2625,-289.2 2621.5,-299.2 2628.5,-299.2"/>
</g>
<!-- ECE 203 -->
<g id="node30" class="node">
<title>ECE 203</title>
<ellipse fill="none" stroke="darkgreen" cx="2663" cy="-753.92" rx="113.27" ry="22.76"/>
<text text-anchor="start" x="2612.5" y="-755.72" font-family="Times,serif" font-size="14.00">ECE 203 (3.0)</text>
<text text-anchor="start" x="2591" y="-744.92" font-family="Times,serif" font-size="10.00">Programming for Engineers</text>
</g>
<!-- ECEC 201 -->
<g id="node37" class="node">
<title>ECEC 201</title>
<ellipse fill="none" stroke="darkgreen" cx="2209" cy="-672.67" rx="129.3" ry="22.76"/>
<text text-anchor="start" x="2153" y="-674.47" font-family="Times,serif" font-size="14.00">ECEC 201 (3.0)</text>
<text text-anchor="start" x="2125.5" y="-663.67" font-family="Times,serif" font-size="10.00">Adv Programming for Engineers</text>
</g>
<!-- ECE 203&#45;&gt;ECEC 201 -->
<g id="edge20" class="edge">
<title>ECE 203&#45;&gt;ECEC 201</title>
<path fill="none" stroke="black" d="M2580.26,-738.48C2503.61,-725.1 2389.5,-705.18 2308.04,-690.95"/>
<polygon fill="black" stroke="black" points="2308.22,-687.43 2297.77,-689.16 2307.02,-694.33 2308.22,-687.43"/>
</g>
<!-- ECE 203&#45;&gt;ECEC 302 -->
<g id="edge27" class="edge">
<title>ECE 203&#45;&gt;ECEC 302</title>
<path fill="none" stroke="black" d="M2641.09,-731.61C2611.79,-703.11 2559.77,-652.5 2527.18,-620.8"/>
<polygon fill="black" stroke="black" points="2529.35,-618.02 2519.74,-613.56 2524.47,-623.04 2529.35,-618.02"/>
</g>
<!-- ECEC 357 -->
<g id="node45" class="node">
<title>ECEC 357</title>
<ellipse fill="none" stroke="darkgreen" cx="2793" cy="-591.41" rx="140.01" ry="22.76"/>
<text text-anchor="start" x="2737" y="-593.21" font-family="Times,serif" font-size="14.00">ECEC 357 (3.0)</text>
<text text-anchor="start" x="2702" y="-582.41" font-family="Times,serif" font-size="10.00">Introduction to Computer Networks</text>
</g>
<!-- ECE 203&#45;&gt;ECEC 357 -->
<g id="edge29" class="edge">
<title>ECE 203&#45;&gt;ECEC 357</title>
<path fill="none" stroke="black" d="M2680.53,-731.27C2703.37,-703.07 2743.4,-653.65 2769.03,-622"/>
<polygon fill="black" stroke="black" points="2771.96,-623.94 2775.54,-613.97 2766.52,-619.54 2771.96,-623.94"/>
</g>
<!-- ENGR 201 -->
<g id="node31" class="node">
<title>ENGR 201</title>
<ellipse fill="none" stroke="darkgreen" cx="2935" cy="-753.92" rx="111.03" ry="22.76"/>
<text text-anchor="start" x="2878" y="-755.72" font-family="Times,serif" font-size="14.00">ENGR 201 (3.0)</text>
<text text-anchor="start" x="2864.5" y="-744.92" font-family="Times,serif" font-size="10.00">Eval &amp; Pres of Exper Data I</text>
</g>
<!-- ENGR 202 -->
<g id="node38" class="node">
<title>ENGR 202</title>
<ellipse fill="none" stroke="darkgreen" cx="2935" cy="-672.67" rx="113.69" ry="22.76"/>
<text text-anchor="start" x="2878" y="-674.47" font-family="Times,serif" font-size="14.00">ENGR 202 (3.0)</text>
<text text-anchor="start" x="2862.5" y="-663.67" font-family="Times,serif" font-size="10.00">Eval &amp; Pres of Exper Data II</text>
</g>
<!-- ENGR 201&#45;&gt;ENGR 202 -->
<g id="edge21" class="edge">
<title>ENGR 201&#45;&gt;ENGR 202</title>
<path fill="none" stroke="black" d="M2935,-731.26C2935,-723.31 2935,-714.14 2935,-705.48"/>
<polygon fill="black" stroke="black" points="2938.5,-705.3 2935,-695.3 2931.5,-705.3 2938.5,-705.3"/>
</g>
<!-- ENGR 232 -->
<g id="node39" class="node">
<title>ENGR 232</title>
<ellipse fill="none" stroke="darkgreen" cx="1377" cy="-672.67" rx="123.07" ry="22.76"/>
<text text-anchor="start" x="1320" y="-674.47" font-family="Times,serif" font-size="14.00">ENGR 232 (3.0)</text>
<text text-anchor="start" x="1298" y="-663.67" font-family="Times,serif" font-size="10.00">Dynamic Engineering Systems</text>
</g>
<!-- ENGR 231&#45;&gt;ENGR 232 -->
<g id="edge22" class="edge">
<title>ENGR 231&#45;&gt;ENGR 232</title>
<path fill="none" stroke="black" d="M1431.51,-731.26C1423.09,-722.37 1413.22,-711.94 1404.21,-702.42"/>
<polygon fill="black" stroke="black" points="1406.63,-699.88 1397.21,-695.02 1401.54,-704.69 1406.63,-699.88"/>
</g>
<!-- CS 383 -->
<g id="node64" class="node">
<title>CS 383</title>
<ellipse fill="none" stroke="darkgreen" cx="1528" cy="-347.65" rx="77.56" ry="22.76"/>
<text text-anchor="start" x="1483" y="-349.45" font-family="Times,serif" font-size="14.00">CS 383 (3.0)</text>
<text text-anchor="start" x="1481" y="-338.65" font-family="Times,serif" font-size="10.00">Machine Learning</text>
</g>
<!-- ENGR 231&#45;&gt;CS 383 -->
<g id="edge50" class="edge">
<title>ENGR 231&#45;&gt;CS 383</title>
<path fill="none" stroke="black" d="M1479.19,-731.73C1490.09,-721.81 1501.77,-709.14 1509,-695.29 1530.52,-654.08 1528,-638.91 1528,-592.41 1528,-592.41 1528,-592.41 1528,-509.16 1528,-464.59 1528,-413.07 1528,-380.67"/>
<polygon fill="black" stroke="black" points="1531.5,-380.45 1528,-370.45 1524.5,-380.45 1531.5,-380.45"/>
</g>
<!-- PHIL 111 -->
<g id="node34" class="node">
<title>PHIL 111</title>
<ellipse fill="none" stroke="darkgreen" cx="3150" cy="-753.92" rx="86.03" ry="22.76"/>
<text text-anchor="start" x="3097" y="-755.72" font-family="Times,serif" font-size="14.00">PHIL 111 (3.0)</text>
<text text-anchor="start" x="3107.5" y="-744.92" font-family="Times,serif" font-size="10.00">Symbolic Logic I</text>
</g>
<!-- PHIL 207 -->
<g id="node72" class="node">
<title>PHIL 207</title>
<ellipse fill="none" stroke="orange" cx="3150" cy="-103.88" rx="86.03" ry="22.76"/>
<text text-anchor="start" x="3097" y="-105.68" font-family="Times,serif" font-size="14.00">PHIL 207 (3.0)</text>
<text text-anchor="start" x="3106" y="-94.88" font-family="Times,serif" font-size="10.00">Symbolic Logic II</text>
</g>
<!-- PHIL 111&#45;&gt;PHIL 207 -->
<g id="edge61" class="edge">
<title>PHIL 111&#45;&gt;PHIL 207</title>
<path fill="none" stroke="black" d="M3150,-731.11C3150,-700.24 3150,-642.01 3150,-592.41 3150,-592.41 3150,-592.41 3150,-265.39 3150,-220.83 3150,-169.3 3150,-136.91"/>
<polygon fill="black" stroke="black" points="3153.5,-136.69 3150,-126.69 3146.5,-136.69 3153.5,-136.69"/>
</g>
<!-- 3.1 -->
<g id="node41" class="node">
<title>3.1</title>
<text text-anchor="middle" x="43" y="-587.71" font-family="Times,serif" font-size="14.00">3.1 (17.0)</text>
</g>
<!-- 2.2&#45;&gt;3.1 -->
<!-- ECE 201&#45;&gt;ECES 301 -->
<g id="edge31" class="edge">
<title>ECE 201&#45;&gt;ECES 301</title>
<path fill="none" stroke="black" d="M977.54,-653.08C1019.77,-640.73 1075.15,-624.54 1118.07,-611.99"/>
<polygon fill="black" stroke="black" points="1119.24,-615.29 1127.86,-609.12 1117.27,-608.57 1119.24,-615.29"/>
</g>
<!-- ECE 201&#45;&gt;ECE 303 -->
<g id="edge40" class="edge">
<title>ECE 201&#45;&gt;ECE 303</title>
<path fill="none" stroke="black" d="M923.5,-649.78C942.24,-606.63 984.02,-510.45 1005.57,-460.83"/>
<polygon fill="black" stroke="black" points="1008.82,-462.13 1009.59,-451.56 1002.4,-459.34 1008.82,-462.13"/>
</g>
<!-- CS 265 -->
<g id="node42" class="node">
<title>CS 265</title>
<ellipse fill="none" stroke="darkgreen" cx="2105" cy="-591.41" rx="179.71" ry="22.76"/>
<text text-anchor="start" x="2060" y="-593.21" font-family="Times,serif" font-size="14.00">CS 265 (3.0)</text>
<text text-anchor="start" x="1986" y="-582.41" font-family="Times,serif" font-size="10.00">Advanced Programming Tools and Techniques</text>
</g>
<!-- ECEC 201&#45;&gt;CS 265 -->
<g id="edge25" class="edge">
<title>ECEC 201&#45;&gt;CS 265</title>
<path fill="none" stroke="black" d="M2181.13,-650.43C2168.99,-641.17 2154.59,-630.2 2141.6,-620.31"/>
<polygon fill="black" stroke="black" points="2143.38,-617.26 2133.31,-613.98 2139.14,-622.83 2143.38,-617.26"/>
</g>
<!-- ECEC 201&#45;&gt;ECEC 204 -->
<g id="edge36" class="edge">
<title>ECEC 201&#45;&gt;ECEC 204</title>
<path fill="none" stroke="black" d="M2093.72,-662.21C2022.82,-653.97 1940.92,-639.25 1916,-614.04 1897.81,-595.64 1893.98,-565.86 1894.16,-543.07"/>
<polygon fill="black" stroke="black" points="1897.67,-542.95 1894.51,-532.83 1890.67,-542.71 1897.67,-542.95"/>
</g>
<!-- ECEC 353 -->
<g id="node51" class="node">
<title>ECEC 353</title>
<ellipse fill="none" stroke="darkgreen" cx="2293" cy="-510.16" rx="94.09" ry="22.76"/>
<text text-anchor="start" x="2237" y="-511.96" font-family="Times,serif" font-size="14.00">ECEC 353 (3.0)</text>
<text text-anchor="start" x="2234.5" y="-501.16" font-family="Times,serif" font-size="10.00">Systems Programming</text>
</g>
<!-- ECEC 201&#45;&gt;ECEC 353 -->
<g id="edge37" class="edge">
<title>ECEC 201&#45;&gt;ECEC 353</title>
<path fill="none" stroke="black" d="M2255.47,-651.37C2270.56,-642.27 2285.57,-629.95 2294,-614.04 2305.5,-592.34 2304.36,-564.27 2300.84,-542.93"/>
<polygon fill="black" stroke="black" points="2304.27,-542.23 2298.96,-533.06 2297.39,-543.53 2304.27,-542.23"/>
</g>
<!-- ECE 361 -->
<g id="node43" class="node">
<title>ECE 361</title>
<ellipse fill="none" stroke="darkgreen" cx="1397" cy="-591.41" rx="102.56" ry="22.76"/>
<text text-anchor="start" x="1346.5" y="-593.21" font-family="Times,serif" font-size="14.00">ECE 361 (4.0)</text>
<text text-anchor="start" x="1332.5" y="-582.41" font-family="Times,serif" font-size="10.00">Probability for Engineers</text>
</g>
<!-- ENGR 232&#45;&gt;ECE 361 -->
<g id="edge26" class="edge">
<title>ENGR 232&#45;&gt;ECE 361</title>
<path fill="none" stroke="black" d="M1382.47,-650.01C1384.49,-641.97 1386.84,-632.68 1389.04,-623.94"/>
<polygon fill="black" stroke="black" points="1392.49,-624.59 1391.54,-614.04 1385.7,-622.88 1392.49,-624.59"/>
</g>
<!-- MATH 221&#45;&gt;CS 383 -->
<g id="edge51" class="edge">
<title>MATH 221&#45;&gt;CS 383</title>
<path fill="none" stroke="black" d="M1640.87,-649.97C1619.95,-594.11 1564.16,-445.18 1539.73,-379.97"/>
<polygon fill="black" stroke="black" points="1542.88,-378.38 1536.09,-370.25 1536.32,-380.84 1542.88,-378.38"/>
</g>
<!-- 3.2 -->
<g id="node47" class="node">
<title>3.2</title>
<text text-anchor="middle" x="43" y="-506.46" font-family="Times,serif" font-size="14.00">3.2 (18.0)</text>
</g>
<!-- 3.1&#45;&gt;3.2 -->
<!-- CS 260 -->
<g id="node48" class="node">
<title>CS 260</title>
<ellipse fill="none" stroke="darkgreen" cx="2106" cy="-510.16" rx="74.91" ry="22.76"/>
<text text-anchor="start" x="2061" y="-511.96" font-family="Times,serif" font-size="14.00">CS 260 (3.0)</text>
<text text-anchor="start" x="2065.5" y="-501.16" font-family="Times,serif" font-size="10.00">Data Structures</text>
</g>
<!-- CS 265&#45;&gt;CS 260 -->
<g id="edge34" class="edge">
<title>CS 265&#45;&gt;CS 260</title>
<path fill="none" stroke="black" d="M2105.27,-568.75C2105.37,-560.8 2105.49,-551.63 2105.6,-542.97"/>
<polygon fill="black" stroke="black" points="2109.1,-542.83 2105.73,-532.79 2102.1,-542.74 2109.1,-542.83"/>
</g>
<!-- ECE 361&#45;&gt;CS 383 -->
<g id="edge52" class="edge">
<title>ECE 361&#45;&gt;CS 383</title>
<path fill="none" stroke="black" d="M1408.86,-568.53C1432.29,-525.29 1484.57,-428.8 1511.41,-379.27"/>
<polygon fill="black" stroke="black" points="1514.58,-380.76 1516.26,-370.3 1508.42,-377.43 1514.58,-380.76"/>
</g>
<!-- ECE 491 -->
<g id="node66" class="node">
<title>ECE 491</title>
<ellipse fill="none" stroke="blue" cx="1583" cy="-266.39" rx="94.51" ry="22.76"/>
<text text-anchor="start" x="1532.5" y="-268.19" font-family="Times,serif" font-size="14.00">ECE 491 (3.0)</text>
<text text-anchor="start" x="1524" y="-257.39" font-family="Times,serif" font-size="10.00">Senior Design Project I</text>
</g>
<!-- ECE 361&#45;&gt;ECE 491 -->
<g id="edge55" class="edge">
<title>ECE 361&#45;&gt;ECE 491</title>
<path fill="none" stroke="black" d="M1394.06,-568.71C1388.64,-519.52 1382.5,-398.14 1441,-325.02 1456.2,-306.02 1478.66,-293.25 1501.25,-284.67"/>
<polygon fill="black" stroke="black" points="1502.66,-287.88 1510.92,-281.24 1500.32,-281.28 1502.66,-287.88"/>
</g>
<!-- ECEC 355 -->
<g id="node52" class="node">
<title>ECEC 355</title>
<ellipse fill="none" stroke="darkgreen" cx="2500" cy="-510.16" rx="94.51" ry="22.76"/>
<text text-anchor="start" x="2444" y="-511.96" font-family="Times,serif" font-size="14.00">ECEC 355 (3.0)</text>
<text text-anchor="start" x="2441" y="-501.16" font-family="Times,serif" font-size="10.00">Computer Architecture</text>
</g>
<!-- ECEC 302&#45;&gt;ECEC 355 -->
<g id="edge38" class="edge">
<title>ECEC 302&#45;&gt;ECEC 355</title>
<path fill="none" stroke="black" d="M2498.55,-568.75C2498.75,-560.8 2498.98,-551.63 2499.2,-542.97"/>
<polygon fill="black" stroke="black" points="2502.7,-542.87 2499.45,-532.79 2495.7,-542.7 2502.7,-542.87"/>
</g>
<!-- 4.1 -->
<g id="node54" class="node">
<title>4.1</title>
<text text-anchor="middle" x="43" y="-425.2" font-family="Times,serif" font-size="14.00">4.1 (17.0)</text>
</g>
<!-- 3.2&#45;&gt;4.1 -->
<!-- CS 260&#45;&gt;CS 383 -->
<g id="edge49" class="edge">
<title>CS 260&#45;&gt;CS 383</title>
<path fill="none" stroke="black" d="M2052.4,-494.27C1945.8,-464.67 1707.58,-398.52 1592.57,-366.58"/>
<polygon fill="black" stroke="black" points="1593.41,-363.18 1582.84,-363.87 1591.54,-369.92 1593.41,-363.18"/>
</g>
<!-- ECEC I399 -->
<g id="node50" class="node">
<title>ECEC I399</title>
<ellipse fill="none" stroke="darkgreen" cx="3292" cy="-510.16" rx="113.69" ry="22.76"/>
<text text-anchor="start" x="3233.5" y="-511.96" font-family="Times,serif" font-size="14.00">ECEC I399 (3.0)</text>
<text text-anchor="start" x="3219.5" y="-501.16" font-family="Times,serif" font-size="10.00">Vision Processing Hardware</text>
</g>
<!-- ECEC 412 -->
<g id="node56" class="node">
<title>ECEC 412</title>
<ellipse fill="none" stroke="darkgreen" cx="2294" cy="-428.9" rx="105.22" ry="22.76"/>
<text text-anchor="start" x="2238" y="-430.7" font-family="Times,serif" font-size="14.00">ECEC 412 (3.0)</text>
<text text-anchor="start" x="2227.5" y="-419.9" font-family="Times,serif" font-size="10.00">Modern Processor Design</text>
</g>
<!-- ECEC 355&#45;&gt;ECEC 412 -->
<g id="edge42" class="edge">
<title>ECEC 355&#45;&gt;ECEC 412</title>
<path fill="none" stroke="black" d="M2451.7,-490.57C2422.17,-479.21 2384.19,-464.6 2352.9,-452.56"/>
<polygon fill="black" stroke="black" points="2354.02,-449.24 2343.43,-448.92 2351.5,-455.77 2354.02,-449.24"/>
</g>
<!-- ECEC&#45;T 480 -->
<g id="node62" class="node">
<title>ECEC&#45;T 480</title>
<ellipse fill="none" stroke="darkgreen" cx="2430" cy="-347.65" rx="166.75" ry="22.76"/>
<text text-anchor="start" x="2367.5" y="-349.45" font-family="Times,serif" font-size="14.00">ECEC&#45;T 480 (3.0)</text>
<text text-anchor="start" x="2320" y="-338.65" font-family="Times,serif" font-size="10.00">Advanced Topics in Computer Architecture</text>
</g>
<!-- ECEC 355&#45;&gt;ECEC&#45;T 480 -->
<g id="edge46" class="edge">
<title>ECEC 355&#45;&gt;ECEC&#45;T 480</title>
<path fill="none" stroke="black" d="M2490.56,-487.51C2478.45,-459.75 2457.37,-411.41 2443.55,-379.72"/>
<polygon fill="black" stroke="black" points="2446.72,-378.23 2439.51,-370.46 2440.3,-381.03 2446.72,-378.23"/>
</g>
<!-- ECEC 355&#45;&gt;ECEC 474 -->
<g id="edge48" class="edge">
<title>ECEC 355&#45;&gt;ECEC 474</title>
<path fill="none" stroke="black" d="M2482.18,-487.76C2458.17,-459.15 2417.34,-411.42 2408,-406.27 2385.93,-394.12 2247.16,-373.41 2152.75,-360.41"/>
<polygon fill="black" stroke="black" points="2153,-356.91 2142.62,-359.02 2152.05,-363.84 2153,-356.91"/>
</g>
<!-- PHIL 315 -->
<g id="node53" class="node">
<title>PHIL 315</title>
<ellipse fill="none" stroke="darkgreen" cx="3510" cy="-510.16" rx="86.03" ry="22.76"/>
<text text-anchor="start" x="3457" y="-511.96" font-family="Times,serif" font-size="14.00">PHIL 315 (3.0)</text>
<text text-anchor="start" x="3460.5" y="-501.16" font-family="Times,serif" font-size="10.00">Engineering Ethics</text>
</g>
<!-- 4.2 -->
<g id="node60" class="node">
<title>4.2</title>
<text text-anchor="middle" x="43" y="-343.95" font-family="Times,serif" font-size="14.00">4.2 (10.0)</text>
</g>
<!-- 4.1&#45;&gt;4.2 -->
<!-- ECON 201 -->
<g id="node57" class="node">
<title>ECON 201</title>
<ellipse fill="none" stroke="darkgreen" cx="3295" cy="-428.9" rx="116.85" ry="22.76"/>
<text text-anchor="start" x="3238" y="-430.7" font-family="Times,serif" font-size="14.00">ECON 201 (4.0)</text>
<text text-anchor="start" x="3220.5" y="-419.9" font-family="Times,serif" font-size="10.00">Principles of Microeconomics</text>
</g>
<!-- PSY 101  -->
<g id="node59" class="node">
<title>PSY 101 </title>
<ellipse fill="none" stroke="darkgreen" cx="3518" cy="-428.9" rx="88.28" ry="22.76"/>
<text text-anchor="start" x="3466.5" y="-430.7" font-family="Times,serif" font-size="14.00">PSY 101 &#160;(3.0)</text>
<text text-anchor="start" x="3463.5" y="-419.9" font-family="Times,serif" font-size="10.00">General Psychology I</text>
</g>
<!-- 5.1 -->
<g id="node65" class="node">
<title>5.1</title>
<text text-anchor="middle" x="43" y="-262.69" font-family="Times,serif" font-size="14.00">5.1 (6.0)</text>
</g>
<!-- 4.2&#45;&gt;5.1 -->
<!-- ECE 391 -->
<g id="node61" class="node">
<title>ECE 391</title>
<ellipse fill="none" stroke="darkgreen" cx="1744" cy="-347.65" rx="120.42" ry="22.76"/>
<text text-anchor="start" x="1693.5" y="-349.45" font-family="Times,serif" font-size="14.00">ECE 391 (1.0)</text>
<text text-anchor="start" x="1667" y="-338.65" font-family="Times,serif" font-size="10.00">Intro to Engr Design Methods</text>
</g>
<!-- ECE 391&#45;&gt;ECE 491 -->
<g id="edge54" class="edge">
<title>ECE 391&#45;&gt;ECE 491</title>
<path fill="none" stroke="black" d="M1702.54,-326.24C1681,-315.63 1654.55,-302.61 1632,-291.51"/>
<polygon fill="black" stroke="black" points="1633.45,-288.33 1622.93,-287.05 1630.36,-294.61 1633.45,-288.33"/>
</g>
<!-- 5.2 -->
<g id="node68" class="node">
<title>5.2</title>
<text text-anchor="middle" x="43" y="-181.44" font-family="Times,serif" font-size="14.00">5.2 (3.0)</text>
</g>
<!-- 5.1&#45;&gt;5.2 -->
<!-- ECE 492 -->
<g id="node69" class="node">
<title>ECE 492</title>
<ellipse fill="none" stroke="orange" cx="1583" cy="-185.14" rx="96.75" ry="22.76"/>
<text text-anchor="start" x="1532.5" y="-186.94" font-family="Times,serif" font-size="14.00">ECE 492 (3.0)</text>
<text text-anchor="start" x="1522.5" y="-176.14" font-family="Times,serif" font-size="10.00">Senior Design Project II</text>
</g>
<!-- ECE 491&#45;&gt;ECE 492 -->
<g id="edge58" class="edge">
<title>ECE 491&#45;&gt;ECE 492</title>
<path fill="none" stroke="black" d="M1583,-243.74C1583,-235.78 1583,-226.61 1583,-217.95"/>
<polygon fill="black" stroke="black" points="1586.5,-217.77 1583,-207.77 1579.5,-217.77 1586.5,-217.77"/>
</g>
<!-- 5.3 -->
<g id="node70" class="node">
<title>5.3</title>
<text text-anchor="middle" x="43" y="-100.18" font-family="Times,serif" font-size="14.00">5.3 (7.0)</text>
</g>
<!-- 5.2&#45;&gt;5.3 -->
<!-- ECE 493 -->
<g id="node71" class="node">
<title>ECE 493</title>
<ellipse fill="none" stroke="orange" cx="1583" cy="-103.88" rx="99.9" ry="22.76"/>
<text text-anchor="start" x="1532.5" y="-105.68" font-family="Times,serif" font-size="14.00">ECE 493 (4.0)</text>
<text text-anchor="start" x="1520.5" y="-94.88" font-family="Times,serif" font-size="10.00">Senior Design Project III</text>
</g>
<!-- ECE 492&#45;&gt;ECE 493 -->
<g id="edge60" class="edge">
<title>ECE 492&#45;&gt;ECE 493</title>
<path fill="none" stroke="black" d="M1583,-162.48C1583,-154.53 1583,-145.36 1583,-136.7"/>
<polygon fill="black" stroke="black" points="1586.5,-136.51 1583,-126.51 1579.5,-136.51 1586.5,-136.51"/>
</g>
<!-- &#45;1.0 -->
<g id="node73" class="node">
<title>&#45;1.0</title>
<text text-anchor="middle" x="43" y="-18.93" font-family="Times,serif" font-size="14.00">&#45;1.0 (6.0)</text>
</g>
<!-- 5.3&#45;&gt;&#45;1.0 -->
<!-- TEMP COE -->
<g id="node74" class="node">
<title>TEMP COE</title>
<ellipse fill="none" stroke="red" cx="207" cy="-22.63" rx="105.22" ry="22.76"/>
<text text-anchor="start" x="148" y="-24.43" font-family="Times,serif" font-size="14.00">TEMP COE (6.0)</text>
<text text-anchor="start" x="140.5" y="-13.63" font-family="Times,serif" font-size="10.00">ECE/COE/BMES Electives</text>
</g>
</g>
</svg>
