<?xml version="1.0" encoding="UTF-8" standalone="no"?>
<!DOCTYPE svg PUBLIC "-//W3C//DTD SVG 1.1//EN"
 "http://www.w3.org/Graphics/SVG/1.1/DTD/svg11.dtd">
<!-- Generated by graphviz version 2.40.1 (20161225.0304)
 -->
<!-- Title: Classes Pages: 1 -->
<svg width="2461pt" height="908pt"
 viewBox="0.00 0.00 2460.59 908.00" xmlns="http://www.w3.org/2000/svg" xmlns:xlink="http://www.w3.org/1999/xlink">
<g id="graph0" class="graph" transform="scale(1 1) rotate(0) translate(4 904)">
<title>Classes</title>
<polygon fill="#ffffff" stroke="transparent" points="-4,4 -4,-904 2456.5928,-904 2456.5928,4 -4,4"/>
<!-- 0.0 -->
<g id="node1" class="node">
<title>0.0</title>
<text text-anchor="middle" x="43" y="-878.3" font-family="Times,serif" font-size="14.00" fill="#000000">0.0 (11.0)</text>
</g>
<!-- 1.1 -->
<g id="node5" class="node">
<title>1.1</title>
<text text-anchor="middle" x="43" y="-806.3" font-family="Times,serif" font-size="14.00" fill="#000000">1.1 (16.5)</text>
</g>
<!-- 0.0&#45;&gt;1.1 -->
<!-- CS 190 -->
<g id="node2" class="node">
<title>CS 190</title>
<ellipse fill="none" stroke="#006400" cx="174" cy="-882" rx="69.5877" ry="18"/>
<text text-anchor="middle" x="174" y="-878.3" font-family="Times,serif" font-size="14.00" fill="#000000">CS 190 (3.0)</text>
</g>
<!-- SPAN 101 -->
<g id="node3" class="node">
<title>SPAN 101</title>
<ellipse fill="none" stroke="#006400" cx="344" cy="-882" rx="82.5854" ry="18"/>
<text text-anchor="middle" x="344" y="-878.3" font-family="Times,serif" font-size="14.00" fill="#000000">SPAN 101 (4.0)</text>
</g>
<!-- TGFE 099 -->
<g id="node4" class="node">
<title>TGFE 099</title>
<ellipse fill="none" stroke="#006400" cx="527" cy="-882" rx="82.5854" ry="18"/>
<text text-anchor="middle" x="527" y="-878.3" font-family="Times,serif" font-size="14.00" fill="#000000">TGFE 099 (4.0)</text>
</g>
<!-- 1.2 -->
<g id="node13" class="node">
<title>1.2</title>
<text text-anchor="middle" x="43" y="-734.3" font-family="Times,serif" font-size="14.00" fill="#000000">1.2 (19.5)</text>
</g>
<!-- 1.1&#45;&gt;1.2 -->
<!-- CHEM 101 -->
<g id="node6" class="node">
<title>CHEM 101</title>
<ellipse fill="none" stroke="#006400" cx="293" cy="-810" rx="87.1846" ry="18"/>
<text text-anchor="middle" x="293" y="-806.3" font-family="Times,serif" font-size="14.00" fill="#000000">CHEM 101 (3.5)</text>
</g>
<!-- CHEM 102 -->
<g id="node14" class="node">
<title>CHEM 102</title>
<ellipse fill="none" stroke="#006400" cx="293" cy="-738" rx="87.1846" ry="18"/>
<text text-anchor="middle" x="293" y="-734.3" font-family="Times,serif" font-size="14.00" fill="#000000">CHEM 102 (4.5)</text>
</g>
<!-- CHEM 101&#45;&gt;CHEM 102 -->
<g id="edge3" class="edge">
<title>CHEM 101&#45;&gt;CHEM 102</title>
<path fill="none" stroke="#000000" d="M293,-791.8314C293,-784.131 293,-774.9743 293,-766.4166"/>
<polygon fill="#000000" stroke="#000000" points="296.5001,-766.4132 293,-756.4133 289.5001,-766.4133 296.5001,-766.4132"/>
</g>
<!-- BIO 141 -->
<g id="node22" class="node">
<title>BIO 141</title>
<ellipse fill="none" stroke="#006400" cx="178" cy="-666" rx="74.187" ry="18"/>
<text text-anchor="middle" x="178" y="-662.3" font-family="Times,serif" font-size="14.00" fill="#000000">BIO 141 (4.5)</text>
</g>
<!-- CHEM 101&#45;&gt;BIO 141 -->
<g id="edge8" class="edge">
<title>CHEM 101&#45;&gt;BIO 141</title>
<path fill="none" stroke="#000000" d="M248.077,-794.3519C229.6329,-785.7588 209.6737,-773.2648 197,-756 183.9842,-738.2691 179.4741,-713.5652 178.0848,-694.5241"/>
<polygon fill="#000000" stroke="#000000" points="181.5712,-694.1559 177.5932,-684.3363 174.5794,-694.4934 181.5712,-694.1559"/>
</g>
<!-- ENGR 220 -->
<g id="node32" class="node">
<title>ENGR 220</title>
<ellipse fill="none" stroke="#006400" cx="615" cy="-594" rx="85.2851" ry="18"/>
<text text-anchor="middle" x="615" y="-590.3" font-family="Times,serif" font-size="14.00" fill="#000000">ENGR 220 (4.0)</text>
</g>
<!-- CHEM 101&#45;&gt;ENGR 220 -->
<g id="edge14" class="edge">
<title>CHEM 101&#45;&gt;ENGR 220</title>
<path fill="none" stroke="#000000" d="M357.4654,-797.8789C441.7303,-782.0278 578.735,-756.2285 579,-756 617.3273,-722.9494 620.0063,-658.9807 617.913,-622.0855"/>
<polygon fill="#000000" stroke="#000000" points="621.3964,-621.7278 617.1833,-612.0067 614.4147,-622.2334 621.3964,-621.7278"/>
</g>
<!-- ENGL 101 -->
<g id="node7" class="node">
<title>ENGL 101</title>
<ellipse fill="none" stroke="#006400" cx="1380" cy="-810" rx="84.485" ry="18"/>
<text text-anchor="middle" x="1380" y="-806.3" font-family="Times,serif" font-size="14.00" fill="#000000">ENGL 101 (3.0)</text>
</g>
<!-- ENGL 102 -->
<g id="node16" class="node">
<title>ENGL 102</title>
<ellipse fill="none" stroke="#006400" cx="1380" cy="-738" rx="84.485" ry="18"/>
<text text-anchor="middle" x="1380" y="-734.3" font-family="Times,serif" font-size="14.00" fill="#000000">ENGL 102 (3.0)</text>
</g>
<!-- ENGL 101&#45;&gt;ENGL 102 -->
<g id="edge4" class="edge">
<title>ENGL 101&#45;&gt;ENGL 102</title>
<path fill="none" stroke="#000000" d="M1380,-791.8314C1380,-784.131 1380,-774.9743 1380,-766.4166"/>
<polygon fill="#000000" stroke="#000000" points="1383.5001,-766.4132 1380,-756.4133 1376.5001,-766.4133 1383.5001,-766.4132"/>
</g>
<!-- ENGR 100 -->
<g id="node8" class="node">
<title>ENGR 100</title>
<ellipse fill="none" stroke="#006400" cx="1568" cy="-810" rx="85.2851" ry="18"/>
<text text-anchor="middle" x="1568" y="-806.3" font-family="Times,serif" font-size="14.00" fill="#000000">ENGR 100 (1.0)</text>
</g>
<!-- ENGR 101 -->
<g id="node9" class="node">
<title>ENGR 101</title>
<ellipse fill="none" stroke="#006400" cx="1192" cy="-810" rx="85.2851" ry="18"/>
<text text-anchor="middle" x="1192" y="-806.3" font-family="Times,serif" font-size="14.00" fill="#000000">ENGR 101 (2.0)</text>
</g>
<!-- ENGR 102 -->
<g id="node17" class="node">
<title>ENGR 102</title>
<ellipse fill="none" stroke="#006400" cx="1192" cy="-738" rx="85.2851" ry="18"/>
<text text-anchor="middle" x="1192" y="-734.3" font-family="Times,serif" font-size="14.00" fill="#000000">ENGR 102 (2.0)</text>
</g>
<!-- ENGR 101&#45;&gt;ENGR 102 -->
<g id="edge5" class="edge">
<title>ENGR 101&#45;&gt;ENGR 102</title>
<path fill="none" stroke="#000000" d="M1192,-791.8314C1192,-784.131 1192,-774.9743 1192,-766.4166"/>
<polygon fill="#000000" stroke="#000000" points="1195.5001,-766.4132 1192,-756.4133 1188.5001,-766.4133 1195.5001,-766.4132"/>
</g>
<!-- ENGR 121 -->
<g id="node10" class="node">
<title>ENGR 121</title>
<ellipse fill="none" stroke="#006400" cx="896" cy="-810" rx="85.2851" ry="18"/>
<text text-anchor="middle" x="896" y="-806.3" font-family="Times,serif" font-size="14.00" fill="#000000">ENGR 121 (2.0)</text>
</g>
<!-- ENGR 231 -->
<g id="node33" class="node">
<title>ENGR 231</title>
<ellipse fill="none" stroke="#006400" cx="879" cy="-594" rx="85.2851" ry="18"/>
<text text-anchor="middle" x="879" y="-590.3" font-family="Times,serif" font-size="14.00" fill="#000000">ENGR 231 (3.0)</text>
</g>
<!-- ENGR 121&#45;&gt;ENGR 231 -->
<g id="edge17" class="edge">
<title>ENGR 121&#45;&gt;ENGR 231</title>
<path fill="none" stroke="#000000" d="M894.5798,-791.9555C891.6173,-754.3144 884.7601,-667.1867 881.2135,-622.1246"/>
<polygon fill="#000000" stroke="#000000" points="884.702,-621.8396 880.4281,-612.1451 877.7236,-622.3889 884.702,-621.8396"/>
</g>
<!-- MATH 121 -->
<g id="node11" class="node">
<title>MATH 121</title>
<ellipse fill="none" stroke="#006400" cx="484" cy="-810" rx="85.5853" ry="18"/>
<text text-anchor="middle" x="484" y="-806.3" font-family="Times,serif" font-size="14.00" fill="#000000">MATH 121 (4.0)</text>
</g>
<!-- MATH 122 -->
<g id="node19" class="node">
<title>MATH 122</title>
<ellipse fill="none" stroke="#006400" cx="484" cy="-738" rx="85.5853" ry="18"/>
<text text-anchor="middle" x="484" y="-734.3" font-family="Times,serif" font-size="14.00" fill="#000000">MATH 122 (4.0)</text>
</g>
<!-- MATH 121&#45;&gt;MATH 122 -->
<g id="edge6" class="edge">
<title>MATH 121&#45;&gt;MATH 122</title>
<path fill="none" stroke="#000000" d="M484,-791.8314C484,-784.131 484,-774.9743 484,-766.4166"/>
<polygon fill="#000000" stroke="#000000" points="487.5001,-766.4132 484,-756.4133 480.5001,-766.4133 487.5001,-766.4132"/>
</g>
<!-- UNIV 101 -->
<g id="node12" class="node">
<title>UNIV 101</title>
<ellipse fill="none" stroke="#006400" cx="1754" cy="-810" rx="82.5854" ry="18"/>
<text text-anchor="middle" x="1754" y="-806.3" font-family="Times,serif" font-size="14.00" fill="#000000">UNIV 101 (1.0)</text>
</g>
<!-- 1.3 -->
<g id="node21" class="node">
<title>1.3</title>
<text text-anchor="middle" x="43" y="-662.3" font-family="Times,serif" font-size="14.00" fill="#000000">1.3 (17.5)</text>
</g>
<!-- 1.2&#45;&gt;1.3 -->
<!-- CIVC 101 -->
<g id="node15" class="node">
<title>CIVC 101</title>
<ellipse fill="none" stroke="#006400" cx="1564" cy="-738" rx="81.4863" ry="18"/>
<text text-anchor="middle" x="1564" y="-734.3" font-family="Times,serif" font-size="14.00" fill="#000000">CIVC 101 (1.0)</text>
</g>
<!-- ENGL 103 -->
<g id="node24" class="node">
<title>ENGL 103</title>
<ellipse fill="none" stroke="#006400" cx="1380" cy="-666" rx="84.485" ry="18"/>
<text text-anchor="middle" x="1380" y="-662.3" font-family="Times,serif" font-size="14.00" fill="#000000">ENGL 103 (3.0)</text>
</g>
<!-- ENGL 102&#45;&gt;ENGL 103 -->
<g id="edge9" class="edge">
<title>ENGL 102&#45;&gt;ENGL 103</title>
<path fill="none" stroke="#000000" d="M1380,-719.8314C1380,-712.131 1380,-702.9743 1380,-694.4166"/>
<polygon fill="#000000" stroke="#000000" points="1383.5001,-694.4132 1380,-684.4133 1376.5001,-694.4133 1383.5001,-694.4132"/>
</g>
<!-- ENGR 103 -->
<g id="node25" class="node">
<title>ENGR 103</title>
<ellipse fill="none" stroke="#006400" cx="1192" cy="-666" rx="85.2851" ry="18"/>
<text text-anchor="middle" x="1192" y="-662.3" font-family="Times,serif" font-size="14.00" fill="#000000">ENGR 103 (2.0)</text>
</g>
<!-- ENGR 102&#45;&gt;ENGR 103 -->
<g id="edge10" class="edge">
<title>ENGR 102&#45;&gt;ENGR 103</title>
<path fill="none" stroke="#000000" d="M1192,-719.8314C1192,-712.131 1192,-702.9743 1192,-694.4166"/>
<polygon fill="#000000" stroke="#000000" points="1195.5001,-694.4132 1192,-684.4133 1188.5001,-694.4133 1195.5001,-694.4132"/>
</g>
<!-- ENGR 122 -->
<g id="node18" class="node">
<title>ENGR 122</title>
<ellipse fill="none" stroke="#006400" cx="1748" cy="-738" rx="85.2851" ry="18"/>
<text text-anchor="middle" x="1748" y="-734.3" font-family="Times,serif" font-size="14.00" fill="#000000">ENGR 122 (1.0)</text>
</g>
<!-- MATH 200 -->
<g id="node26" class="node">
<title>MATH 200</title>
<ellipse fill="none" stroke="#006400" cx="484" cy="-666" rx="85.5853" ry="18"/>
<text text-anchor="middle" x="484" y="-662.3" font-family="Times,serif" font-size="14.00" fill="#000000">MATH 200 (4.0)</text>
</g>
<!-- MATH 122&#45;&gt;MATH 200 -->
<g id="edge11" class="edge">
<title>MATH 122&#45;&gt;MATH 200</title>
<path fill="none" stroke="#000000" d="M484,-719.8314C484,-712.131 484,-702.9743 484,-694.4166"/>
<polygon fill="#000000" stroke="#000000" points="487.5001,-694.4132 484,-684.4133 480.5001,-694.4133 487.5001,-694.4132"/>
</g>
<!-- MATH 122&#45;&gt;ENGR 220 -->
<g id="edge15" class="edge">
<title>MATH 122&#45;&gt;ENGR 220</title>
<path fill="none" stroke="#000000" d="M525.1821,-722.0947C543.6736,-713.2274 564.5352,-700.5852 579,-684 594.4706,-666.2615 603.7824,-641.0416 609.0471,-621.8098"/>
<polygon fill="#000000" stroke="#000000" points="612.4442,-622.6522 611.5058,-612.099 605.6583,-620.934 612.4442,-622.6522"/>
</g>
<!-- PHYS 201 -->
<g id="node52" class="node">
<title>PHYS 201</title>
<ellipse fill="none" stroke="#ffa500" cx="558" cy="-378" rx="83.3857" ry="18"/>
<text text-anchor="middle" x="558" y="-374.3" font-family="Times,serif" font-size="14.00" fill="#000000">PHYS 201 (4.0)</text>
</g>
<!-- MATH 122&#45;&gt;PHYS 201 -->
<g id="edge40" class="edge">
<title>MATH 122&#45;&gt;PHYS 201</title>
<path fill="none" stroke="#000000" d="M440.0272,-722.4789C421.6388,-713.8595 401.647,-701.3097 389,-684 364.8822,-650.9903 370,-634.8816 370,-594 370,-594 370,-594 370,-522 370,-456.4541 442.9131,-416.6992 497.9239,-396.0329"/>
<polygon fill="#000000" stroke="#000000" points="499.4127,-399.2161 507.6195,-392.5154 497.0253,-392.6357 499.4127,-399.2161"/>
</g>
<!-- MATH 281 -->
<g id="node56" class="node">
<title>MATH 281</title>
<ellipse fill="none" stroke="#ffa500" cx="558" cy="-306" rx="85.5853" ry="18"/>
<text text-anchor="middle" x="558" y="-302.3" font-family="Times,serif" font-size="14.00" fill="#000000">MATH 281 (3.0)</text>
</g>
<!-- MATH 122&#45;&gt;MATH 281 -->
<g id="edge44" class="edge">
<title>MATH 122&#45;&gt;MATH 281</title>
<path fill="none" stroke="#000000" d="M432.5887,-723.5662C410.313,-715.1142 385.406,-702.394 368,-684 338.3888,-652.7082 332,-637.0813 332,-594 332,-594 332,-594 332,-450 332,-376.3201 418.4918,-338.692 484.462,-320.7079"/>
<polygon fill="#000000" stroke="#000000" points="485.6591,-324.0124 494.445,-318.0914 483.8843,-317.2412 485.6591,-324.0124"/>
</g>
<!-- PHYS 101 -->
<g id="node20" class="node">
<title>PHYS 101</title>
<ellipse fill="none" stroke="#006400" cx="766" cy="-738" rx="83.3857" ry="18"/>
<text text-anchor="middle" x="766" y="-734.3" font-family="Times,serif" font-size="14.00" fill="#000000">PHYS 101 (4.0)</text>
</g>
<!-- PHYS 102 -->
<g id="node27" class="node">
<title>PHYS 102</title>
<ellipse fill="none" stroke="#006400" cx="785" cy="-666" rx="83.3857" ry="18"/>
<text text-anchor="middle" x="785" y="-662.3" font-family="Times,serif" font-size="14.00" fill="#000000">PHYS 102 (4.0)</text>
</g>
<!-- PHYS 101&#45;&gt;PHYS 102 -->
<g id="edge12" class="edge">
<title>PHYS 101&#45;&gt;PHYS 102</title>
<path fill="none" stroke="#000000" d="M770.7945,-719.8314C772.8489,-712.0463 775.296,-702.7729 777.5756,-694.1347"/>
<polygon fill="#000000" stroke="#000000" points="780.9735,-694.9753 780.1409,-684.4133 774.2052,-693.1892 780.9735,-694.9753"/>
</g>
<!-- PHYS 101&#45;&gt;ENGR 220 -->
<g id="edge16" class="edge">
<title>PHYS 101&#45;&gt;ENGR 220</title>
<path fill="none" stroke="#000000" d="M739.9215,-720.8055C725.4887,-710.785 707.5767,-697.4928 693,-684 671.455,-664.0572 649.8146,-638.5501 634.8124,-619.7861"/>
<polygon fill="#000000" stroke="#000000" points="637.5569,-617.614 628.6102,-611.9388 632.065,-621.9545 637.5569,-617.614"/>
</g>
<!-- 2.1 -->
<g id="node28" class="node">
<title>2.1</title>
<text text-anchor="middle" x="43" y="-590.3" font-family="Times,serif" font-size="14.00" fill="#000000">2.1 (20.0)</text>
</g>
<!-- 1.3&#45;&gt;2.1 -->
<!-- COOP 101 -->
<g id="node23" class="node">
<title>COOP 101</title>
<ellipse fill="none" stroke="#006400" cx="1559" cy="-666" rx="76.0865" ry="18"/>
<text text-anchor="middle" x="1559" y="-662.3" font-family="Times,serif" font-size="14.00" fill="#000000">COOP 101 (0)</text>
</g>
<!-- ECES 301 -->
<g id="node46" class="node">
<title>ECES 301</title>
<ellipse fill="none" stroke="#0000ff" cx="1275" cy="-450" rx="83.3857" ry="18"/>
<text text-anchor="middle" x="1275" y="-446.3" font-family="Times,serif" font-size="14.00" fill="#000000">ECES 301 (4.0)</text>
</g>
<!-- ENGR 103&#45;&gt;ECES 301 -->
<g id="edge31" class="edge">
<title>ENGR 103&#45;&gt;ECES 301</title>
<path fill="none" stroke="#000000" d="M1198.9338,-647.9555C1213.4587,-610.1556 1247.1602,-522.4506 1264.4112,-477.5564"/>
<polygon fill="#000000" stroke="#000000" points="1267.7077,-478.7351 1268.0276,-468.1451 1261.1735,-476.2242 1267.7077,-478.7351"/>
</g>
<!-- ECE 303 -->
<g id="node55" class="node">
<title>ECE 303</title>
<ellipse fill="none" stroke="#ffa500" cx="1128" cy="-306" rx="76.8869" ry="18"/>
<text text-anchor="middle" x="1128" y="-302.3" font-family="Times,serif" font-size="14.00" fill="#000000">ECE 303 (3.0)</text>
</g>
<!-- ENGR 103&#45;&gt;ECE 303 -->
<g id="edge43" class="edge">
<title>ENGR 103&#45;&gt;ECE 303</title>
<path fill="none" stroke="#000000" d="M1186.1984,-648.0328C1177.997,-620.9949 1164,-568.0975 1164,-522 1164,-522 1164,-522 1164,-450 1164,-408.5072 1149.7584,-362.2433 1139.1902,-333.6245"/>
<polygon fill="#000000" stroke="#000000" points="1142.4605,-332.3773 1135.6347,-324.2743 1135.9176,-334.8654 1142.4605,-332.3773"/>
</g>
<!-- ECE 201 -->
<g id="node36" class="node">
<title>ECE 201</title>
<ellipse fill="none" stroke="#006400" cx="1059" cy="-522" rx="76.8869" ry="18"/>
<text text-anchor="middle" x="1059" y="-518.3" font-family="Times,serif" font-size="14.00" fill="#000000">ECE 201 (4.0)</text>
</g>
<!-- PHYS 102&#45;&gt;ECE 201 -->
<g id="edge19" class="edge">
<title>PHYS 102&#45;&gt;ECE 201</title>
<path fill="none" stroke="#000000" d="M852.8783,-655.4969C890.272,-647.5696 936.3868,-634.1422 973,-612 1000.1845,-595.5599 1024.5058,-568.3248 1040.2887,-548.1128"/>
<polygon fill="#000000" stroke="#000000" points="1043.2432,-550.0099 1046.5135,-539.9324 1037.6725,-545.771 1043.2432,-550.0099"/>
</g>
<!-- PHYS 102&#45;&gt;PHYS 201 -->
<g id="edge39" class="edge">
<title>PHYS 102&#45;&gt;PHYS 201</title>
<path fill="none" stroke="#000000" d="M770.8001,-647.9843C731.9449,-598.6878 623.7625,-461.4344 578.4137,-403.8993"/>
<polygon fill="#000000" stroke="#000000" points="581.1336,-401.696 572.1945,-396.0089 575.636,-406.0292 581.1336,-401.696"/>
</g>
<!-- 2.2 -->
<g id="node35" class="node">
<title>2.2</title>
<text text-anchor="middle" x="43" y="-518.3" font-family="Times,serif" font-size="14.00" fill="#000000">2.2 (16.0)</text>
</g>
<!-- 2.1&#45;&gt;2.2 -->
<!-- ECE 200 -->
<g id="node29" class="node">
<title>ECE 200</title>
<ellipse fill="none" stroke="#006400" cx="1446" cy="-594" rx="76.8869" ry="18"/>
<text text-anchor="middle" x="1446" y="-590.3" font-family="Times,serif" font-size="14.00" fill="#000000">ECE 200 (4.0)</text>
</g>
<!-- MATH 221 -->
<g id="node40" class="node">
<title>MATH 221</title>
<ellipse fill="none" stroke="#006400" cx="1389" cy="-522" rx="85.5853" ry="18"/>
<text text-anchor="middle" x="1389" y="-518.3" font-family="Times,serif" font-size="14.00" fill="#000000">MATH 221 (3.0)</text>
</g>
<!-- ECE 200&#45;&gt;MATH 221 -->
<g id="edge23" class="edge">
<title>ECE 200&#45;&gt;MATH 221</title>
<path fill="none" stroke="#000000" d="M1431.9101,-576.2022C1425.1276,-567.6348 1416.8674,-557.2009 1409.4123,-547.7839"/>
<polygon fill="#000000" stroke="#000000" points="1412.0766,-545.5106 1403.1253,-539.8425 1406.5882,-549.8555 1412.0766,-545.5106"/>
</g>
<!-- ECEC 302 -->
<g id="node44" class="node">
<title>ECEC 302</title>
<ellipse fill="none" stroke="#0000ff" cx="1494" cy="-450" rx="83.6854" ry="18"/>
<text text-anchor="middle" x="1494" y="-446.3" font-family="Times,serif" font-size="14.00" fill="#000000">ECEC 302 (3.0)</text>
</g>
<!-- ECE 200&#45;&gt;ECEC 302 -->
<g id="edge27" class="edge">
<title>ECE 200&#45;&gt;ECEC 302</title>
<path fill="none" stroke="#000000" d="M1461.8758,-576.3381C1469.894,-566.3788 1478.9668,-553.2939 1484,-540 1491.4568,-520.3048 1493.8479,-496.5784 1494.433,-478.4323"/>
<polygon fill="#000000" stroke="#000000" points="1497.936,-478.2575 1494.5933,-468.2039 1490.9369,-478.1477 1497.936,-478.2575"/>
</g>
<!-- ECE 200&#45;&gt;ECES 301 -->
<g id="edge29" class="edge">
<title>ECE 200&#45;&gt;ECES 301</title>
<path fill="none" stroke="#000000" d="M1378.922,-585.2451C1348.8907,-577.9442 1315.482,-564.5549 1294,-540 1279.2725,-523.1658 1274.973,-497.8117 1274.0992,-478.2996"/>
<polygon fill="#000000" stroke="#000000" points="1277.5962,-478.0891 1273.9218,-468.1518 1270.5972,-478.2115 1277.5962,-478.0891"/>
</g>
<!-- ECEC 204 -->
<g id="node50" class="node">
<title>ECEC 204</title>
<ellipse fill="none" stroke="#ffa500" cx="1719" cy="-378" rx="83.6854" ry="18"/>
<text text-anchor="middle" x="1719" y="-374.3" font-family="Times,serif" font-size="14.00" fill="#000000">ECEC 204 (3.0)</text>
</g>
<!-- ECE 200&#45;&gt;ECEC 204 -->
<g id="edge36" class="edge">
<title>ECE 200&#45;&gt;ECEC 204</title>
<path fill="none" stroke="#000000" d="M1466.246,-576.2381C1493.7813,-552.0064 1544.4814,-507.1228 1587,-468 1604.1199,-452.2474 1606.3384,-445.8917 1625,-432 1641.05,-420.0524 1659.9806,-408.7153 1676.6314,-399.542"/>
<polygon fill="#000000" stroke="#000000" points="1678.4872,-402.5174 1685.6145,-394.6782 1675.1542,-396.3617 1678.4872,-402.5174"/>
</g>
<!-- ECE 203 -->
<g id="node30" class="node">
<title>ECE 203</title>
<ellipse fill="none" stroke="#006400" cx="1718" cy="-594" rx="76.8869" ry="18"/>
<text text-anchor="middle" x="1718" y="-590.3" font-family="Times,serif" font-size="14.00" fill="#000000">ECE 203 (3.0)</text>
</g>
<!-- ECEC 301 -->
<g id="node37" class="node">
<title>ECEC 301</title>
<ellipse fill="none" stroke="#006400" cx="1830" cy="-522" rx="83.6854" ry="18"/>
<text text-anchor="middle" x="1830" y="-518.3" font-family="Times,serif" font-size="14.00" fill="#000000">ECEC 301 (3.0)</text>
</g>
<!-- ECE 203&#45;&gt;ECEC 301 -->
<g id="edge20" class="edge">
<title>ECE 203&#45;&gt;ECEC 301</title>
<path fill="none" stroke="#000000" d="M1744.5424,-576.937C1759.4973,-567.3231 1778.3705,-555.1904 1794.5743,-544.7737"/>
<polygon fill="#000000" stroke="#000000" points="1796.7408,-547.5418 1803.2599,-539.19 1792.9555,-541.6535 1796.7408,-547.5418"/>
</g>
<!-- ECE 203&#45;&gt;ECEC 302 -->
<g id="edge26" class="edge">
<title>ECE 203&#45;&gt;ECEC 302</title>
<path fill="none" stroke="#000000" d="M1691.4246,-576.9158C1651.1169,-551.0037 1574.466,-501.7281 1529.4504,-472.7895"/>
<polygon fill="#000000" stroke="#000000" points="1531.1936,-469.7494 1520.8892,-467.2859 1527.4083,-475.6377 1531.1936,-469.7494"/>
</g>
<!-- ECEC 357 -->
<g id="node45" class="node">
<title>ECEC 357</title>
<ellipse fill="none" stroke="#0000ff" cx="1718" cy="-450" rx="83.6854" ry="18"/>
<text text-anchor="middle" x="1718" y="-446.3" font-family="Times,serif" font-size="14.00" fill="#000000">ECEC 357 (3.0)</text>
</g>
<!-- ECE 203&#45;&gt;ECEC 357 -->
<g id="edge28" class="edge">
<title>ECE 203&#45;&gt;ECEC 357</title>
<path fill="none" stroke="#000000" d="M1718,-575.7623C1718,-551.201 1718,-507.2474 1718,-478.3541"/>
<polygon fill="#000000" stroke="#000000" points="1721.5001,-478.0896 1718,-468.0896 1714.5001,-478.0897 1721.5001,-478.0896"/>
</g>
<!-- ENGR 201 -->
<g id="node31" class="node">
<title>ENGR 201</title>
<ellipse fill="none" stroke="#006400" cx="2017" cy="-594" rx="85.2851" ry="18"/>
<text text-anchor="middle" x="2017" y="-590.3" font-family="Times,serif" font-size="14.00" fill="#000000">ENGR 201 (3.0)</text>
</g>
<!-- ENGR 202 -->
<g id="node38" class="node">
<title>ENGR 202</title>
<ellipse fill="none" stroke="#006400" cx="2017" cy="-522" rx="85.2851" ry="18"/>
<text text-anchor="middle" x="2017" y="-518.3" font-family="Times,serif" font-size="14.00" fill="#000000">ENGR 202 (3.0)</text>
</g>
<!-- ENGR 201&#45;&gt;ENGR 202 -->
<g id="edge21" class="edge">
<title>ENGR 201&#45;&gt;ENGR 202</title>
<path fill="none" stroke="#000000" d="M2017,-575.8314C2017,-568.131 2017,-558.9743 2017,-550.4166"/>
<polygon fill="#000000" stroke="#000000" points="2020.5001,-550.4132 2017,-540.4133 2013.5001,-550.4133 2020.5001,-550.4132"/>
</g>
<!-- ENGR 232 -->
<g id="node39" class="node">
<title>ENGR 232</title>
<ellipse fill="none" stroke="#006400" cx="879" cy="-522" rx="85.2851" ry="18"/>
<text text-anchor="middle" x="879" y="-518.3" font-family="Times,serif" font-size="14.00" fill="#000000">ENGR 232 (3.0)</text>
</g>
<!-- ENGR 231&#45;&gt;ENGR 232 -->
<g id="edge22" class="edge">
<title>ENGR 231&#45;&gt;ENGR 232</title>
<path fill="none" stroke="#000000" d="M879,-575.8314C879,-568.131 879,-558.9743 879,-550.4166"/>
<polygon fill="#000000" stroke="#000000" points="882.5001,-550.4132 879,-540.4133 875.5001,-550.4133 882.5001,-550.4132"/>
</g>
<!-- ENGR 231&#45;&gt;MATH 281 -->
<g id="edge45" class="edge">
<title>ENGR 231&#45;&gt;MATH 281</title>
<path fill="none" stroke="#000000" d="M842.8322,-577.6094C824.3506,-568.1927 802.1961,-555.2154 785,-540 710.108,-473.734 724.5818,-426.615 650,-360 635.9131,-347.4179 618.4492,-336.2906 602.5347,-327.4558"/>
<polygon fill="#000000" stroke="#000000" points="603.8445,-324.186 593.3807,-322.5253 600.525,-330.3489 603.8445,-324.186"/>
</g>
<!-- PHIL 111 -->
<g id="node34" class="node">
<title>PHIL 111</title>
<ellipse fill="none" stroke="#006400" cx="2201" cy="-594" rx="80.6858" ry="18"/>
<text text-anchor="middle" x="2201" y="-590.3" font-family="Times,serif" font-size="14.00" fill="#000000">PHIL 111 (3.0)</text>
</g>
<!-- 3.1 -->
<g id="node41" class="node">
<title>3.1</title>
<text text-anchor="middle" x="43" y="-446.3" font-family="Times,serif" font-size="14.00" fill="#000000">3.1 (17.0)</text>
</g>
<!-- 2.2&#45;&gt;3.1 -->
<!-- ECE 201&#45;&gt;ECES 301 -->
<g id="edge30" class="edge">
<title>ECE 201&#45;&gt;ECES 301</title>
<path fill="none" stroke="#000000" d="M1103.232,-507.256C1136.8519,-496.0494 1183.3162,-480.5613 1219.4424,-468.5192"/>
<polygon fill="#000000" stroke="#000000" points="1220.9584,-471.7033 1229.3384,-465.2205 1218.7448,-465.0625 1220.9584,-471.7033"/>
</g>
<!-- ECE 301 -->
<g id="node49" class="node">
<title>ECE 301</title>
<ellipse fill="none" stroke="#ffa500" cx="968" cy="-378" rx="76.8869" ry="18"/>
<text text-anchor="middle" x="968" y="-374.3" font-family="Times,serif" font-size="14.00" fill="#000000">ECE 301 (4.0)</text>
</g>
<!-- ECE 201&#45;&gt;ECE 301 -->
<g id="edge34" class="edge">
<title>ECE 201&#45;&gt;ECE 301</title>
<path fill="none" stroke="#000000" d="M1047.6588,-504.0535C1031.9237,-479.154 1003.3444,-433.9295 985.0376,-404.9606"/>
<polygon fill="#000000" stroke="#000000" points="987.7851,-402.7565 979.4841,-396.1727 981.8676,-406.496 987.7851,-402.7565"/>
</g>
<!-- ECE 201&#45;&gt;ECE 303 -->
<g id="edge42" class="edge">
<title>ECE 201&#45;&gt;ECE 303</title>
<path fill="none" stroke="#000000" d="M1064.7642,-503.9555C1076.8138,-466.235 1104.7384,-378.8188 1119.1067,-333.8399"/>
<polygon fill="#000000" stroke="#000000" points="1122.4947,-334.7359 1122.2037,-324.1451 1115.8266,-332.6058 1122.4947,-334.7359"/>
</g>
<!-- CS 265 -->
<g id="node42" class="node">
<title>CS 265</title>
<ellipse fill="none" stroke="#0000ff" cx="1928" cy="-450" rx="69.5877" ry="18"/>
<text text-anchor="middle" x="1928" y="-446.3" font-family="Times,serif" font-size="14.00" fill="#000000">CS 265 (3.0)</text>
</g>
<!-- ECEC 301&#45;&gt;CS 265 -->
<g id="edge25" class="edge">
<title>ECEC 301&#45;&gt;CS 265</title>
<path fill="none" stroke="#000000" d="M1853.7231,-504.5708C1866.5767,-495.1273 1882.6258,-483.3361 1896.5136,-473.1328"/>
<polygon fill="#000000" stroke="#000000" points="1898.847,-475.7616 1904.8336,-467.0202 1894.7024,-470.1204 1898.847,-475.7616"/>
</g>
<!-- ECEC 301&#45;&gt;ECEC 204 -->
<g id="edge37" class="edge">
<title>ECEC 301&#45;&gt;ECEC 204</title>
<path fill="none" stroke="#000000" d="M1830.3314,-503.7186C1829.7968,-484.2121 1826.3032,-453.2537 1811,-432 1800.6872,-417.6772 1785.3037,-406.5349 1770.0537,-398.1899"/>
<polygon fill="#000000" stroke="#000000" points="1771.6227,-395.0611 1761.1295,-393.5969 1768.4193,-401.2851 1771.6227,-395.0611"/>
</g>
<!-- ENGR 232&#45;&gt;ECE 301 -->
<g id="edge35" class="edge">
<title>ENGR 232&#45;&gt;ECE 301</title>
<path fill="none" stroke="#000000" d="M890.092,-504.0535C905.4812,-479.154 933.4324,-433.9295 951.3368,-404.9606"/>
<polygon fill="#000000" stroke="#000000" points="954.488,-406.5193 956.7683,-396.1727 948.5335,-402.839 954.488,-406.5193"/>
</g>
<!-- 3.2 -->
<g id="node47" class="node">
<title>3.2</title>
<text text-anchor="middle" x="43" y="-374.3" font-family="Times,serif" font-size="14.00" fill="#000000">3.2 (17.0)</text>
</g>
<!-- 3.1&#45;&gt;3.2 -->
<!-- CS 260 -->
<g id="node48" class="node">
<title>CS 260</title>
<ellipse fill="none" stroke="#ffa500" cx="1928" cy="-378" rx="69.5877" ry="18"/>
<text text-anchor="middle" x="1928" y="-374.3" font-family="Times,serif" font-size="14.00" fill="#000000">CS 260 (3.0)</text>
</g>
<!-- CS 265&#45;&gt;CS 260 -->
<g id="edge33" class="edge">
<title>CS 265&#45;&gt;CS 260</title>
<path fill="none" stroke="#000000" d="M1928,-431.8314C1928,-424.131 1928,-414.9743 1928,-406.4166"/>
<polygon fill="#000000" stroke="#000000" points="1931.5001,-406.4132 1928,-396.4133 1924.5001,-406.4133 1931.5001,-406.4132"/>
</g>
<!-- ECE 361 -->
<g id="node43" class="node">
<title>ECE 361</title>
<ellipse fill="none" stroke="#0000ff" cx="2092" cy="-450" rx="76.8869" ry="18"/>
<text text-anchor="middle" x="2092" y="-446.3" font-family="Times,serif" font-size="14.00" fill="#000000">ECE 361 (4.0)</text>
</g>
<!-- ECE 491 -->
<g id="node60" class="node">
<title>ECE 491</title>
<ellipse fill="none" stroke="#ffa500" cx="2144" cy="-162" rx="76.8869" ry="18"/>
<text text-anchor="middle" x="2144" y="-158.3" font-family="Times,serif" font-size="14.00" fill="#000000">ECE 491 (2.0)</text>
</g>
<!-- ECE 361&#45;&gt;ECE 491 -->
<g id="edge49" class="edge">
<title>ECE 361&#45;&gt;ECE 491</title>
<path fill="none" stroke="#000000" d="M2093.2948,-431.8963C2095.6305,-401.8239 2101.2362,-339.7582 2111,-288 2117.4473,-253.8224 2128.0597,-215.2303 2135.5048,-189.8657"/>
<polygon fill="#000000" stroke="#000000" points="2138.8892,-190.7638 2138.3826,-180.1811 2132.1791,-188.7699 2138.8892,-190.7638"/>
</g>
<!-- ECEC 355 -->
<g id="node51" class="node">
<title>ECEC 355</title>
<ellipse fill="none" stroke="#ffa500" cx="1494" cy="-378" rx="83.6854" ry="18"/>
<text text-anchor="middle" x="1494" y="-374.3" font-family="Times,serif" font-size="14.00" fill="#000000">ECEC 355 (3.0)</text>
</g>
<!-- ECEC 302&#45;&gt;ECEC 355 -->
<g id="edge38" class="edge">
<title>ECEC 302&#45;&gt;ECEC 355</title>
<path fill="none" stroke="#000000" d="M1494,-431.8314C1494,-424.131 1494,-414.9743 1494,-406.4166"/>
<polygon fill="#000000" stroke="#000000" points="1497.5001,-406.4132 1494,-396.4133 1490.5001,-406.4133 1497.5001,-406.4132"/>
</g>
<!-- 4.1 -->
<g id="node53" class="node">
<title>4.1</title>
<text text-anchor="middle" x="43" y="-302.3" font-family="Times,serif" font-size="14.00" fill="#000000">4.1 (10.0)</text>
</g>
<!-- 3.2&#45;&gt;4.1 -->
<!-- 4.2 -->
<g id="node58" class="node">
<title>4.2</title>
<text text-anchor="middle" x="43" y="-230.3" font-family="Times,serif" font-size="14.00" fill="#000000">4.2 (0.0)</text>
</g>
<!-- 4.1&#45;&gt;4.2 -->
<!-- ECE 391 -->
<g id="node54" class="node">
<title>ECE 391</title>
<ellipse fill="none" stroke="#ffa500" cx="2197" cy="-306" rx="76.8869" ry="18"/>
<text text-anchor="middle" x="2197" y="-302.3" font-family="Times,serif" font-size="14.00" fill="#000000">ECE 391 (1.0)</text>
</g>
<!-- ECE 391&#45;&gt;ECE 491 -->
<g id="edge48" class="edge">
<title>ECE 391&#45;&gt;ECE 491</title>
<path fill="none" stroke="#000000" d="M2190.3947,-288.0535C2181.3096,-263.3696 2164.8728,-218.7111 2154.2013,-189.7167"/>
<polygon fill="#000000" stroke="#000000" points="2157.4273,-188.3483 2150.6886,-180.1727 2150.8581,-190.7662 2157.4273,-188.3483"/>
</g>
<!-- PHIL 315 -->
<g id="node57" class="node">
<title>PHIL 315</title>
<ellipse fill="none" stroke="#ffa500" cx="2372" cy="-306" rx="80.6858" ry="18"/>
<text text-anchor="middle" x="2372" y="-302.3" font-family="Times,serif" font-size="14.00" fill="#000000">PHIL 315 (3.0)</text>
</g>
<!-- 5.1 -->
<g id="node59" class="node">
<title>5.1</title>
<text text-anchor="middle" x="43" y="-158.3" font-family="Times,serif" font-size="14.00" fill="#000000">5.1 (2.0)</text>
</g>
<!-- 4.2&#45;&gt;5.1 -->
<!-- 5.2 -->
<g id="node61" class="node">
<title>5.2</title>
<text text-anchor="middle" x="43" y="-86.3" font-family="Times,serif" font-size="14.00" fill="#000000">5.2 (2.0)</text>
</g>
<!-- 5.1&#45;&gt;5.2 -->
<!-- ECE 492 -->
<g id="node62" class="node">
<title>ECE 492</title>
<ellipse fill="none" stroke="#ffa500" cx="2144" cy="-90" rx="76.8869" ry="18"/>
<text text-anchor="middle" x="2144" y="-86.3" font-family="Times,serif" font-size="14.00" fill="#000000">ECE 492 (2.0)</text>
</g>
<!-- ECE 491&#45;&gt;ECE 492 -->
<g id="edge51" class="edge">
<title>ECE 491&#45;&gt;ECE 492</title>
<path fill="none" stroke="#000000" d="M2144,-143.8314C2144,-136.131 2144,-126.9743 2144,-118.4166"/>
<polygon fill="#000000" stroke="#000000" points="2147.5001,-118.4132 2144,-108.4133 2140.5001,-118.4133 2147.5001,-118.4132"/>
</g>
<!-- 5.3 -->
<g id="node63" class="node">
<title>5.3</title>
<text text-anchor="middle" x="43" y="-14.3" font-family="Times,serif" font-size="14.00" fill="#000000">5.3 (4.0)</text>
</g>
<!-- 5.2&#45;&gt;5.3 -->
<!-- ECE 493 -->
<g id="node64" class="node">
<title>ECE 493</title>
<ellipse fill="none" stroke="#ffa500" cx="2144" cy="-18" rx="76.8869" ry="18"/>
<text text-anchor="middle" x="2144" y="-14.3" font-family="Times,serif" font-size="14.00" fill="#000000">ECE 493 (4.0)</text>
</g>
<!-- ECE 492&#45;&gt;ECE 493 -->
<g id="edge53" class="edge">
<title>ECE 492&#45;&gt;ECE 493</title>
<path fill="none" stroke="#000000" d="M2144,-71.8314C2144,-64.131 2144,-54.9743 2144,-46.4166"/>
<polygon fill="#000000" stroke="#000000" points="2147.5001,-46.4132 2144,-36.4133 2140.5001,-46.4133 2147.5001,-46.4132"/>
</g>
<!-- TEMP COM -->
<g id="node65" class="node">
<title>TEMP COM</title>
<ellipse fill="none" stroke="#ff0000" cx="719" cy="-882" rx="90.9839" ry="18"/>
<text text-anchor="middle" x="719" y="-878.3" font-family="Times,serif" font-size="14.00" fill="#000000">TEMP COM (3.0)</text>
</g>
<!-- TEMP GenEd -->
<g id="node66" class="node">
<title>TEMP GenEd</title>
<ellipse fill="none" stroke="#ff0000" cx="926" cy="-882" rx="98.2828" ry="18"/>
<text text-anchor="middle" x="926" y="-878.3" font-family="Times,serif" font-size="14.00" fill="#000000">TEMP GenEd (8.0)</text>
</g>
<!-- TEMP ECEC 400 -->
<g id="node67" class="node">
<title>TEMP ECEC 400</title>
<ellipse fill="none" stroke="#ff0000" cx="1158" cy="-882" rx="115.8798" ry="18"/>
<text text-anchor="middle" x="1158" y="-878.3" font-family="Times,serif" font-size="14.00" fill="#000000">TEMP ECEC 400 (9.0)</text>
</g>
<!-- TEMP COE -->
<g id="node68" class="node">
<title>TEMP COE</title>
<ellipse fill="none" stroke="#ff0000" cx="1387" cy="-882" rx="94.7833" ry="18"/>
<text text-anchor="middle" x="1387" y="-878.3" font-family="Times,serif" font-size="14.00" fill="#000000">TEMP COE (18.0)</text>
</g>
</g>
</svg>
