<?xml version="1.0" encoding="UTF-8" standalone="no"?>
<!DOCTYPE svg PUBLIC "-//W3C//DTD SVG 1.1//EN"
 "http://www.w3.org/Graphics/SVG/1.1/DTD/svg11.dtd">
<!-- Generated by graphviz version 2.40.1 (20161225.0304)
 -->
<!-- Title: Classes Pages: 1 -->
<svg width="2561pt" height="980pt"
 viewBox="0.00 0.00 2560.59 980.00" xmlns="http://www.w3.org/2000/svg" xmlns:xlink="http://www.w3.org/1999/xlink">
<g id="graph0" class="graph" transform="scale(1 1) rotate(0) translate(4 976)">
<title>Classes</title>
<polygon fill="#ffffff" stroke="transparent" points="-4,4 -4,-976 2556.5928,-976 2556.5928,4 -4,4"/>
<!-- 0.0 -->
<g id="node1" class="node">
<title>0.0</title>
<text text-anchor="middle" x="45" y="-950.3" font-family="Times,serif" font-size="14.00" fill="#000000">0.0 (11.0)</text>
</g>
<!-- 1.1 -->
<g id="node5" class="node">
<title>1.1</title>
<text text-anchor="middle" x="45" y="-878.3" font-family="Times,serif" font-size="14.00" fill="#000000">1.1 (16.5)</text>
</g>
<!-- 0.0&#45;&gt;1.1 -->
<!-- CS 190 -->
<g id="node2" class="node">
<title>CS 190</title>
<ellipse fill="none" stroke="#006400" cx="176" cy="-954" rx="69.5877" ry="18"/>
<text text-anchor="middle" x="176" y="-950.3" font-family="Times,serif" font-size="14.00" fill="#000000">CS 190 (3.0)</text>
</g>
<!-- SPAN 101 -->
<g id="node3" class="node">
<title>SPAN 101</title>
<ellipse fill="none" stroke="#006400" cx="346" cy="-954" rx="82.5854" ry="18"/>
<text text-anchor="middle" x="346" y="-950.3" font-family="Times,serif" font-size="14.00" fill="#000000">SPAN 101 (4.0)</text>
</g>
<!-- TGFE 099 -->
<g id="node4" class="node">
<title>TGFE 099</title>
<ellipse fill="none" stroke="#006400" cx="529" cy="-954" rx="82.5854" ry="18"/>
<text text-anchor="middle" x="529" y="-950.3" font-family="Times,serif" font-size="14.00" fill="#000000">TGFE 099 (4.0)</text>
</g>
<!-- 1.2 -->
<g id="node13" class="node">
<title>1.2</title>
<text text-anchor="middle" x="45" y="-806.3" font-family="Times,serif" font-size="14.00" fill="#000000">1.2 (19.5)</text>
</g>
<!-- 1.1&#45;&gt;1.2 -->
<!-- CHEM 101 -->
<g id="node6" class="node">
<title>CHEM 101</title>
<ellipse fill="none" stroke="#006400" cx="308" cy="-882" rx="87.1846" ry="18"/>
<text text-anchor="middle" x="308" y="-878.3" font-family="Times,serif" font-size="14.00" fill="#000000">CHEM 101 (3.5)</text>
</g>
<!-- CHEM 102 -->
<g id="node14" class="node">
<title>CHEM 102</title>
<ellipse fill="none" stroke="#006400" cx="193" cy="-810" rx="87.1846" ry="18"/>
<text text-anchor="middle" x="193" y="-806.3" font-family="Times,serif" font-size="14.00" fill="#000000">CHEM 102 (4.5)</text>
</g>
<!-- CHEM 101&#45;&gt;CHEM 102 -->
<g id="edge3" class="edge">
<title>CHEM 101&#45;&gt;CHEM 102</title>
<path fill="none" stroke="#000000" d="M280.4546,-864.7542C265.0925,-855.1362 245.7727,-843.0403 229.2015,-832.6653"/>
<polygon fill="#000000" stroke="#000000" points="230.6538,-829.4452 220.3206,-827.1051 226.9391,-835.3783 230.6538,-829.4452"/>
</g>
<!-- BIO 141 -->
<g id="node22" class="node">
<title>BIO 141</title>
<ellipse fill="none" stroke="#006400" cx="308" cy="-738" rx="74.187" ry="18"/>
<text text-anchor="middle" x="308" y="-734.3" font-family="Times,serif" font-size="14.00" fill="#000000">BIO 141 (4.5)</text>
</g>
<!-- CHEM 101&#45;&gt;BIO 141 -->
<g id="edge8" class="edge">
<title>CHEM 101&#45;&gt;BIO 141</title>
<path fill="none" stroke="#000000" d="M308,-863.7623C308,-839.201 308,-795.2474 308,-766.3541"/>
<polygon fill="#000000" stroke="#000000" points="311.5001,-766.0896 308,-756.0896 304.5001,-766.0897 311.5001,-766.0896"/>
</g>
<!-- ENGR 220 -->
<g id="node32" class="node">
<title>ENGR 220</title>
<ellipse fill="none" stroke="#006400" cx="448" cy="-666" rx="85.2851" ry="18"/>
<text text-anchor="middle" x="448" y="-662.3" font-family="Times,serif" font-size="14.00" fill="#000000">ENGR 220 (4.0)</text>
</g>
<!-- CHEM 101&#45;&gt;ENGR 220 -->
<g id="edge14" class="edge">
<title>CHEM 101&#45;&gt;ENGR 220</title>
<path fill="none" stroke="#000000" d="M319.9218,-864.1218C336.1351,-839.7582 365.9848,-794.7257 391,-756 404.6733,-734.8326 419.9381,-710.703 431.2272,-692.7604"/>
<polygon fill="#000000" stroke="#000000" points="434.3813,-694.3192 436.7388,-683.99 428.4544,-690.5946 434.3813,-694.3192"/>
</g>
<!-- ENGL 101 -->
<g id="node7" class="node">
<title>ENGL 101</title>
<ellipse fill="none" stroke="#006400" cx="1263" cy="-882" rx="84.485" ry="18"/>
<text text-anchor="middle" x="1263" y="-878.3" font-family="Times,serif" font-size="14.00" fill="#000000">ENGL 101 (3.0)</text>
</g>
<!-- ENGL 102 -->
<g id="node16" class="node">
<title>ENGL 102</title>
<ellipse fill="none" stroke="#006400" cx="1263" cy="-810" rx="84.485" ry="18"/>
<text text-anchor="middle" x="1263" y="-806.3" font-family="Times,serif" font-size="14.00" fill="#000000">ENGL 102 (3.0)</text>
</g>
<!-- ENGL 101&#45;&gt;ENGL 102 -->
<g id="edge4" class="edge">
<title>ENGL 101&#45;&gt;ENGL 102</title>
<path fill="none" stroke="#000000" d="M1263,-863.8314C1263,-856.131 1263,-846.9743 1263,-838.4166"/>
<polygon fill="#000000" stroke="#000000" points="1266.5001,-838.4132 1263,-828.4133 1259.5001,-838.4133 1266.5001,-838.4132"/>
</g>
<!-- ENGR 100 -->
<g id="node8" class="node">
<title>ENGR 100</title>
<ellipse fill="none" stroke="#006400" cx="1566" cy="-882" rx="85.2851" ry="18"/>
<text text-anchor="middle" x="1566" y="-878.3" font-family="Times,serif" font-size="14.00" fill="#000000">ENGR 100 (1.0)</text>
</g>
<!-- ENGR 101 -->
<g id="node9" class="node">
<title>ENGR 101</title>
<ellipse fill="none" stroke="#006400" cx="1011" cy="-882" rx="85.2851" ry="18"/>
<text text-anchor="middle" x="1011" y="-878.3" font-family="Times,serif" font-size="14.00" fill="#000000">ENGR 101 (2.0)</text>
</g>
<!-- ENGR 102 -->
<g id="node17" class="node">
<title>ENGR 102</title>
<ellipse fill="none" stroke="#006400" cx="1011" cy="-810" rx="85.2851" ry="18"/>
<text text-anchor="middle" x="1011" y="-806.3" font-family="Times,serif" font-size="14.00" fill="#000000">ENGR 102 (2.0)</text>
</g>
<!-- ENGR 101&#45;&gt;ENGR 102 -->
<g id="edge5" class="edge">
<title>ENGR 101&#45;&gt;ENGR 102</title>
<path fill="none" stroke="#000000" d="M1011,-863.8314C1011,-856.131 1011,-846.9743 1011,-838.4166"/>
<polygon fill="#000000" stroke="#000000" points="1014.5001,-838.4132 1011,-828.4133 1007.5001,-838.4133 1014.5001,-838.4132"/>
</g>
<!-- ENGR 121 -->
<g id="node10" class="node">
<title>ENGR 121</title>
<ellipse fill="none" stroke="#006400" cx="1882" cy="-882" rx="85.2851" ry="18"/>
<text text-anchor="middle" x="1882" y="-878.3" font-family="Times,serif" font-size="14.00" fill="#000000">ENGR 121 (2.0)</text>
</g>
<!-- ENGR 231 -->
<g id="node33" class="node">
<title>ENGR 231</title>
<ellipse fill="none" stroke="#006400" cx="1882" cy="-666" rx="85.2851" ry="18"/>
<text text-anchor="middle" x="1882" y="-662.3" font-family="Times,serif" font-size="14.00" fill="#000000">ENGR 231 (3.0)</text>
</g>
<!-- ENGR 121&#45;&gt;ENGR 231 -->
<g id="edge17" class="edge">
<title>ENGR 121&#45;&gt;ENGR 231</title>
<path fill="none" stroke="#000000" d="M1882,-863.9555C1882,-826.3938 1882,-739.5541 1882,-694.4103"/>
<polygon fill="#000000" stroke="#000000" points="1885.5001,-694.145 1882,-684.1451 1878.5001,-694.1451 1885.5001,-694.145"/>
</g>
<!-- MATH 121 -->
<g id="node11" class="node">
<title>MATH 121</title>
<ellipse fill="none" stroke="#006400" cx="562" cy="-882" rx="85.5853" ry="18"/>
<text text-anchor="middle" x="562" y="-878.3" font-family="Times,serif" font-size="14.00" fill="#000000">MATH 121 (4.0)</text>
</g>
<!-- MATH 122 -->
<g id="node19" class="node">
<title>MATH 122</title>
<ellipse fill="none" stroke="#006400" cx="562" cy="-810" rx="85.5853" ry="18"/>
<text text-anchor="middle" x="562" y="-806.3" font-family="Times,serif" font-size="14.00" fill="#000000">MATH 122 (4.0)</text>
</g>
<!-- MATH 121&#45;&gt;MATH 122 -->
<g id="edge6" class="edge">
<title>MATH 121&#45;&gt;MATH 122</title>
<path fill="none" stroke="#000000" d="M562,-863.8314C562,-856.131 562,-846.9743 562,-838.4166"/>
<polygon fill="#000000" stroke="#000000" points="565.5001,-838.4132 562,-828.4133 558.5001,-838.4133 565.5001,-838.4132"/>
</g>
<!-- UNIV 101 -->
<g id="node12" class="node">
<title>UNIV 101</title>
<ellipse fill="none" stroke="#006400" cx="2068" cy="-882" rx="82.5854" ry="18"/>
<text text-anchor="middle" x="2068" y="-878.3" font-family="Times,serif" font-size="14.00" fill="#000000">UNIV 101 (1.0)</text>
</g>
<!-- 1.3 -->
<g id="node21" class="node">
<title>1.3</title>
<text text-anchor="middle" x="45" y="-734.3" font-family="Times,serif" font-size="14.00" fill="#000000">1.3 (17.5)</text>
</g>
<!-- 1.2&#45;&gt;1.3 -->
<!-- CIVC 101 -->
<g id="node15" class="node">
<title>CIVC 101</title>
<ellipse fill="none" stroke="#006400" cx="1991" cy="-810" rx="81.4863" ry="18"/>
<text text-anchor="middle" x="1991" y="-806.3" font-family="Times,serif" font-size="14.00" fill="#000000">CIVC 101 (1.0)</text>
</g>
<!-- ENGL 103 -->
<g id="node24" class="node">
<title>ENGL 103</title>
<ellipse fill="none" stroke="#006400" cx="1263" cy="-738" rx="84.485" ry="18"/>
<text text-anchor="middle" x="1263" y="-734.3" font-family="Times,serif" font-size="14.00" fill="#000000">ENGL 103 (3.0)</text>
</g>
<!-- ENGL 102&#45;&gt;ENGL 103 -->
<g id="edge9" class="edge">
<title>ENGL 102&#45;&gt;ENGL 103</title>
<path fill="none" stroke="#000000" d="M1263,-791.8314C1263,-784.131 1263,-774.9743 1263,-766.4166"/>
<polygon fill="#000000" stroke="#000000" points="1266.5001,-766.4132 1263,-756.4133 1259.5001,-766.4133 1266.5001,-766.4132"/>
</g>
<!-- ENGR 103 -->
<g id="node25" class="node">
<title>ENGR 103</title>
<ellipse fill="none" stroke="#006400" cx="1011" cy="-738" rx="85.2851" ry="18"/>
<text text-anchor="middle" x="1011" y="-734.3" font-family="Times,serif" font-size="14.00" fill="#000000">ENGR 103 (2.0)</text>
</g>
<!-- ENGR 102&#45;&gt;ENGR 103 -->
<g id="edge10" class="edge">
<title>ENGR 102&#45;&gt;ENGR 103</title>
<path fill="none" stroke="#000000" d="M1011,-791.8314C1011,-784.131 1011,-774.9743 1011,-766.4166"/>
<polygon fill="#000000" stroke="#000000" points="1014.5001,-766.4132 1011,-756.4133 1007.5001,-766.4133 1014.5001,-766.4132"/>
</g>
<!-- ENGR 122 -->
<g id="node18" class="node">
<title>ENGR 122</title>
<ellipse fill="none" stroke="#006400" cx="2175" cy="-810" rx="85.2851" ry="18"/>
<text text-anchor="middle" x="2175" y="-806.3" font-family="Times,serif" font-size="14.00" fill="#000000">ENGR 122 (1.0)</text>
</g>
<!-- MATH 200 -->
<g id="node26" class="node">
<title>MATH 200</title>
<ellipse fill="none" stroke="#006400" cx="562" cy="-738" rx="85.5853" ry="18"/>
<text text-anchor="middle" x="562" y="-734.3" font-family="Times,serif" font-size="14.00" fill="#000000">MATH 200 (4.0)</text>
</g>
<!-- MATH 122&#45;&gt;MATH 200 -->
<g id="edge11" class="edge">
<title>MATH 122&#45;&gt;MATH 200</title>
<path fill="none" stroke="#000000" d="M562,-791.8314C562,-784.131 562,-774.9743 562,-766.4166"/>
<polygon fill="#000000" stroke="#000000" points="565.5001,-766.4132 562,-756.4133 558.5001,-766.4133 565.5001,-766.4132"/>
</g>
<!-- MATH 122&#45;&gt;ENGR 220 -->
<g id="edge15" class="edge">
<title>MATH 122&#45;&gt;ENGR 220</title>
<path fill="none" stroke="#000000" d="M518.0272,-794.4789C499.6388,-785.8595 479.647,-773.3097 467,-756 454.024,-738.24 449.5109,-713.5382 448.1103,-694.5054"/>
<polygon fill="#000000" stroke="#000000" points="451.5967,-694.1396 447.6116,-684.3228 444.6051,-694.4821 451.5967,-694.1396"/>
</g>
<!-- PHYS 201 -->
<g id="node53" class="node">
<title>PHYS 201</title>
<ellipse fill="none" stroke="#ffa500" cx="697" cy="-450" rx="83.3857" ry="18"/>
<text text-anchor="middle" x="697" y="-446.3" font-family="Times,serif" font-size="14.00" fill="#000000">PHYS 201 (4.0)</text>
</g>
<!-- MATH 122&#45;&gt;PHYS 201 -->
<g id="edge40" class="edge">
<title>MATH 122&#45;&gt;PHYS 201</title>
<path fill="none" stroke="#000000" d="M605.9728,-794.4789C624.3612,-785.8595 644.353,-773.3097 657,-756 681.1178,-722.9903 676,-706.8816 676,-666 676,-666 676,-666 676,-594 676,-553.2729 684.327,-506.7384 690.4939,-477.8595"/>
<polygon fill="#000000" stroke="#000000" points="693.9189,-478.5806 692.6488,-468.0621 687.0823,-477.0768 693.9189,-478.5806"/>
</g>
<!-- PHYS 101 -->
<g id="node20" class="node">
<title>PHYS 101</title>
<ellipse fill="none" stroke="#006400" cx="787" cy="-810" rx="83.3857" ry="18"/>
<text text-anchor="middle" x="787" y="-806.3" font-family="Times,serif" font-size="14.00" fill="#000000">PHYS 101 (4.0)</text>
</g>
<!-- PHYS 102 -->
<g id="node27" class="node">
<title>PHYS 102</title>
<ellipse fill="none" stroke="#006400" cx="825" cy="-738" rx="83.3857" ry="18"/>
<text text-anchor="middle" x="825" y="-734.3" font-family="Times,serif" font-size="14.00" fill="#000000">PHYS 102 (4.0)</text>
</g>
<!-- PHYS 101&#45;&gt;PHYS 102 -->
<g id="edge12" class="edge">
<title>PHYS 101&#45;&gt;PHYS 102</title>
<path fill="none" stroke="#000000" d="M796.589,-791.8314C800.897,-783.6688 806.0686,-773.87 810.8119,-764.8827"/>
<polygon fill="#000000" stroke="#000000" points="813.9734,-766.3909 815.5457,-755.9134 807.7827,-763.1236 813.9734,-766.3909"/>
</g>
<!-- PHYS 101&#45;&gt;ENGR 220 -->
<g id="edge16" class="edge">
<title>PHYS 101&#45;&gt;ENGR 220</title>
<path fill="none" stroke="#000000" d="M766.3421,-792.2101C741.8158,-771.9535 698.9338,-739.1909 657,-720 615.287,-700.9102 565.6806,-687.7301 525.2662,-679.1726"/>
<polygon fill="#000000" stroke="#000000" points="525.9677,-675.7437 515.4665,-677.1495 524.5523,-682.5991 525.9677,-675.7437"/>
</g>
<!-- 2.1 -->
<g id="node28" class="node">
<title>2.1</title>
<text text-anchor="middle" x="45" y="-662.3" font-family="Times,serif" font-size="14.00" fill="#000000">2.1 (20.0)</text>
</g>
<!-- 1.3&#45;&gt;2.1 -->
<!-- COOP 101 -->
<g id="node23" class="node">
<title>COOP 101</title>
<ellipse fill="none" stroke="#006400" cx="1986" cy="-738" rx="76.0865" ry="18"/>
<text text-anchor="middle" x="1986" y="-734.3" font-family="Times,serif" font-size="14.00" fill="#000000">COOP 101 (0)</text>
</g>
<!-- ECES 301 -->
<g id="node46" class="node">
<title>ECES 301</title>
<ellipse fill="none" stroke="#0000ff" cx="1047" cy="-522" rx="83.3857" ry="18"/>
<text text-anchor="middle" x="1047" y="-518.3" font-family="Times,serif" font-size="14.00" fill="#000000">ECES 301 (4.0)</text>
</g>
<!-- ENGR 103&#45;&gt;ECES 301 -->
<g id="edge31" class="edge">
<title>ENGR 103&#45;&gt;ECES 301</title>
<path fill="none" stroke="#000000" d="M1014.0074,-719.9555C1020.2809,-682.3144 1034.8022,-595.1867 1042.3126,-550.1246"/>
<polygon fill="#000000" stroke="#000000" points="1045.7841,-550.5844 1043.9758,-540.1451 1038.8794,-549.4336 1045.7841,-550.5844"/>
</g>
<!-- ECE 303 -->
<g id="node49" class="node">
<title>ECE 303</title>
<ellipse fill="none" stroke="#ffa500" cx="906" cy="-450" rx="76.8869" ry="18"/>
<text text-anchor="middle" x="906" y="-446.3" font-family="Times,serif" font-size="14.00" fill="#000000">ECE 303 (3.0)</text>
</g>
<!-- ENGR 103&#45;&gt;ECE 303 -->
<g id="edge35" class="edge">
<title>ENGR 103&#45;&gt;ECE 303</title>
<path fill="none" stroke="#000000" d="M1004.4318,-719.9843C986.6433,-671.1929 937.4408,-536.2377 916.0963,-477.6927"/>
<polygon fill="#000000" stroke="#000000" points="919.2794,-476.2051 912.5657,-468.0089 912.7028,-478.6028 919.2794,-476.2051"/>
</g>
<!-- ECE 201 -->
<g id="node36" class="node">
<title>ECE 201</title>
<ellipse fill="none" stroke="#006400" cx="831" cy="-594" rx="76.8869" ry="18"/>
<text text-anchor="middle" x="831" y="-590.3" font-family="Times,serif" font-size="14.00" fill="#000000">ECE 201 (4.0)</text>
</g>
<!-- PHYS 102&#45;&gt;ECE 201 -->
<g id="edge19" class="edge">
<title>PHYS 102&#45;&gt;ECE 201</title>
<path fill="none" stroke="#000000" d="M825.7599,-719.7623C826.7833,-695.201 828.6147,-651.2474 829.8186,-622.3541"/>
<polygon fill="#000000" stroke="#000000" points="833.3268,-622.2267 830.2463,-612.0896 826.3329,-621.9352 833.3268,-622.2267"/>
</g>
<!-- PHYS 102&#45;&gt;PHYS 201 -->
<g id="edge39" class="edge">
<title>PHYS 102&#45;&gt;PHYS 201</title>
<path fill="none" stroke="#000000" d="M811.38,-720.1312C793.9167,-696.5004 763.6672,-653.0404 745,-612 724.5067,-566.9447 710.1751,-510.9022 702.7859,-477.9313"/>
<polygon fill="#000000" stroke="#000000" points="706.1873,-477.1017 700.6317,-468.0802 699.3489,-478.5971 706.1873,-477.1017"/>
</g>
<!-- 2.2 -->
<g id="node35" class="node">
<title>2.2</title>
<text text-anchor="middle" x="45" y="-590.3" font-family="Times,serif" font-size="14.00" fill="#000000">2.2 (16.0)</text>
</g>
<!-- 2.1&#45;&gt;2.2 -->
<!-- ECE 200 -->
<g id="node29" class="node">
<title>ECE 200</title>
<ellipse fill="none" stroke="#006400" cx="1220" cy="-666" rx="76.8869" ry="18"/>
<text text-anchor="middle" x="1220" y="-662.3" font-family="Times,serif" font-size="14.00" fill="#000000">ECE 200 (4.0)</text>
</g>
<!-- MATH 221 -->
<g id="node40" class="node">
<title>MATH 221</title>
<ellipse fill="none" stroke="#006400" cx="1163" cy="-594" rx="85.5853" ry="18"/>
<text text-anchor="middle" x="1163" y="-590.3" font-family="Times,serif" font-size="14.00" fill="#000000">MATH 221 (3.0)</text>
</g>
<!-- ECE 200&#45;&gt;MATH 221 -->
<g id="edge23" class="edge">
<title>ECE 200&#45;&gt;MATH 221</title>
<path fill="none" stroke="#000000" d="M1205.9101,-648.2022C1199.1276,-639.6348 1190.8674,-629.2009 1183.4123,-619.7839"/>
<polygon fill="#000000" stroke="#000000" points="1186.0766,-617.5106 1177.1253,-611.8425 1180.5882,-621.8555 1186.0766,-617.5106"/>
</g>
<!-- ECEC 302 -->
<g id="node44" class="node">
<title>ECEC 302</title>
<ellipse fill="none" stroke="#0000ff" cx="1257" cy="-522" rx="83.6854" ry="18"/>
<text text-anchor="middle" x="1257" y="-518.3" font-family="Times,serif" font-size="14.00" fill="#000000">ECEC 302 (3.0)</text>
</g>
<!-- ECE 200&#45;&gt;ECEC 302 -->
<g id="edge27" class="edge">
<title>ECE 200&#45;&gt;ECEC 302</title>
<path fill="none" stroke="#000000" d="M1236.8653,-648.0624C1244.9507,-638.2224 1253.7788,-625.3334 1258,-612 1264.3474,-591.9504 1263.7445,-568.1071 1261.7447,-550.0004"/>
<polygon fill="#000000" stroke="#000000" points="1265.214,-549.5367 1260.4479,-540.0744 1258.273,-550.4436 1265.214,-549.5367"/>
</g>
<!-- ECE 200&#45;&gt;ECES 301 -->
<g id="edge29" class="edge">
<title>ECE 200&#45;&gt;ECES 301</title>
<path fill="none" stroke="#000000" d="M1153.1525,-657.0413C1123.1727,-649.6949 1089.7408,-636.3261 1068,-612 1053.0248,-595.244 1048.1499,-569.8825 1046.8059,-550.3477"/>
<polygon fill="#000000" stroke="#000000" points="1050.2958,-550.0311 1046.3807,-540.1862 1043.3019,-550.3238 1050.2958,-550.0311"/>
</g>
<!-- ECEC 204 -->
<g id="node50" class="node">
<title>ECEC 204</title>
<ellipse fill="none" stroke="#ffa500" cx="1388" cy="-450" rx="83.6854" ry="18"/>
<text text-anchor="middle" x="1388" y="-446.3" font-family="Times,serif" font-size="14.00" fill="#000000">ECEC 204 (3.0)</text>
</g>
<!-- ECE 200&#45;&gt;ECEC 204 -->
<g id="edge36" class="edge">
<title>ECE 200&#45;&gt;ECEC 204</title>
<path fill="none" stroke="#000000" d="M1242.9411,-648.6139C1271.2759,-626.1539 1319.4629,-584.6103 1350,-540 1363.1761,-520.7516 1373.1625,-496.2093 1379.5835,-477.6166"/>
<polygon fill="#000000" stroke="#000000" points="1382.9566,-478.5643 1382.7815,-467.9709 1376.3122,-476.3613 1382.9566,-478.5643"/>
</g>
<!-- ECE 203 -->
<g id="node30" class="node">
<title>ECE 203</title>
<ellipse fill="none" stroke="#006400" cx="1519" cy="-666" rx="76.8869" ry="18"/>
<text text-anchor="middle" x="1519" y="-662.3" font-family="Times,serif" font-size="14.00" fill="#000000">ECE 203 (3.0)</text>
</g>
<!-- ECEC 201 -->
<g id="node37" class="node">
<title>ECEC 201</title>
<ellipse fill="none" stroke="#006400" cx="1519" cy="-594" rx="83.6854" ry="18"/>
<text text-anchor="middle" x="1519" y="-590.3" font-family="Times,serif" font-size="14.00" fill="#000000">ECEC 201 (3.0)</text>
</g>
<!-- ECE 203&#45;&gt;ECEC 201 -->
<g id="edge20" class="edge">
<title>ECE 203&#45;&gt;ECEC 201</title>
<path fill="none" stroke="#000000" d="M1519,-647.8314C1519,-640.131 1519,-630.9743 1519,-622.4166"/>
<polygon fill="#000000" stroke="#000000" points="1522.5001,-622.4132 1519,-612.4133 1515.5001,-622.4133 1522.5001,-622.4132"/>
</g>
<!-- ECE 203&#45;&gt;ECEC 302 -->
<g id="edge26" class="edge">
<title>ECE 203&#45;&gt;ECEC 302</title>
<path fill="none" stroke="#000000" d="M1488.6893,-649.3407C1441.2919,-623.2902 1349.612,-572.9013 1296.9026,-543.9312"/>
<polygon fill="#000000" stroke="#000000" points="1298.2973,-540.704 1287.8479,-538.9545 1294.9256,-546.8385 1298.2973,-540.704"/>
</g>
<!-- ECEC 357 -->
<g id="node45" class="node">
<title>ECEC 357</title>
<ellipse fill="none" stroke="#0000ff" cx="1769" cy="-522" rx="83.6854" ry="18"/>
<text text-anchor="middle" x="1769" y="-518.3" font-family="Times,serif" font-size="14.00" fill="#000000">ECEC 357 (3.0)</text>
</g>
<!-- ECE 203&#45;&gt;ECEC 357 -->
<g id="edge28" class="edge">
<title>ECE 203&#45;&gt;ECEC 357</title>
<path fill="none" stroke="#000000" d="M1548.1675,-649.1995C1593.396,-623.1479 1680.4576,-573.0004 1730.6978,-544.0621"/>
<polygon fill="#000000" stroke="#000000" points="1732.7135,-546.9402 1739.6319,-538.916 1729.2196,-540.8744 1732.7135,-546.9402"/>
</g>
<!-- ENGR 201 -->
<g id="node31" class="node">
<title>ENGR 201</title>
<ellipse fill="none" stroke="#006400" cx="2070" cy="-666" rx="85.2851" ry="18"/>
<text text-anchor="middle" x="2070" y="-662.3" font-family="Times,serif" font-size="14.00" fill="#000000">ENGR 201 (3.0)</text>
</g>
<!-- ENGR 202 -->
<g id="node38" class="node">
<title>ENGR 202</title>
<ellipse fill="none" stroke="#006400" cx="2070" cy="-594" rx="85.2851" ry="18"/>
<text text-anchor="middle" x="2070" y="-590.3" font-family="Times,serif" font-size="14.00" fill="#000000">ENGR 202 (3.0)</text>
</g>
<!-- ENGR 201&#45;&gt;ENGR 202 -->
<g id="edge21" class="edge">
<title>ENGR 201&#45;&gt;ENGR 202</title>
<path fill="none" stroke="#000000" d="M2070,-647.8314C2070,-640.131 2070,-630.9743 2070,-622.4166"/>
<polygon fill="#000000" stroke="#000000" points="2073.5001,-622.4132 2070,-612.4133 2066.5001,-622.4133 2073.5001,-622.4132"/>
</g>
<!-- ENGR 232 -->
<g id="node39" class="node">
<title>ENGR 232</title>
<ellipse fill="none" stroke="#006400" cx="1882" cy="-594" rx="85.2851" ry="18"/>
<text text-anchor="middle" x="1882" y="-590.3" font-family="Times,serif" font-size="14.00" fill="#000000">ENGR 232 (3.0)</text>
</g>
<!-- ENGR 231&#45;&gt;ENGR 232 -->
<g id="edge22" class="edge">
<title>ENGR 231&#45;&gt;ENGR 232</title>
<path fill="none" stroke="#000000" d="M1882,-647.8314C1882,-640.131 1882,-630.9743 1882,-622.4166"/>
<polygon fill="#000000" stroke="#000000" points="1885.5001,-622.4132 1882,-612.4133 1878.5001,-622.4133 1885.5001,-622.4132"/>
</g>
<!-- PHIL 111 -->
<g id="node34" class="node">
<title>PHIL 111</title>
<ellipse fill="none" stroke="#006400" cx="2254" cy="-666" rx="80.6858" ry="18"/>
<text text-anchor="middle" x="2254" y="-662.3" font-family="Times,serif" font-size="14.00" fill="#000000">PHIL 111 (3.0)</text>
</g>
<!-- PHIL 207 -->
<g id="node56" class="node">
<title>PHIL 207</title>
<ellipse fill="none" stroke="#ffa500" cx="2254" cy="-378" rx="80.6858" ry="18"/>
<text text-anchor="middle" x="2254" y="-374.3" font-family="Times,serif" font-size="14.00" fill="#000000">PHIL 207 (3.0)</text>
</g>
<!-- PHIL 111&#45;&gt;PHIL 207 -->
<g id="edge42" class="edge">
<title>PHIL 111&#45;&gt;PHIL 207</title>
<path fill="none" stroke="#000000" d="M2254,-647.9843C2254,-599.2939 2254,-464.7961 2254,-406.0573"/>
<polygon fill="#000000" stroke="#000000" points="2257.5001,-406.0088 2254,-396.0089 2250.5001,-406.0089 2257.5001,-406.0088"/>
</g>
<!-- 3.1 -->
<g id="node41" class="node">
<title>3.1</title>
<text text-anchor="middle" x="45" y="-518.3" font-family="Times,serif" font-size="14.00" fill="#000000">3.1 (17.0)</text>
</g>
<!-- 2.2&#45;&gt;3.1 -->
<!-- ECE 201&#45;&gt;ECES 301 -->
<g id="edge30" class="edge">
<title>ECE 201&#45;&gt;ECES 301</title>
<path fill="none" stroke="#000000" d="M875.232,-579.256C908.8519,-568.0494 955.3162,-552.5613 991.4424,-540.5192"/>
<polygon fill="#000000" stroke="#000000" points="992.9584,-543.7033 1001.3384,-537.2205 990.7448,-537.0625 992.9584,-543.7033"/>
</g>
<!-- ECE 201&#45;&gt;ECE 303 -->
<g id="edge34" class="edge">
<title>ECE 201&#45;&gt;ECE 303</title>
<path fill="none" stroke="#000000" d="M840.3472,-576.0535C853.2595,-551.2618 876.6663,-506.3207 891.7616,-477.3378"/>
<polygon fill="#000000" stroke="#000000" points="895.0199,-478.6587 896.535,-468.1727 888.8114,-475.4251 895.0199,-478.6587"/>
</g>
<!-- CS 265 -->
<g id="node42" class="node">
<title>CS 265</title>
<ellipse fill="none" stroke="#0000ff" cx="1598" cy="-522" rx="69.5877" ry="18"/>
<text text-anchor="middle" x="1598" y="-518.3" font-family="Times,serif" font-size="14.00" fill="#000000">CS 265 (3.0)</text>
</g>
<!-- ECEC 201&#45;&gt;CS 265 -->
<g id="edge25" class="edge">
<title>ECEC 201&#45;&gt;CS 265</title>
<path fill="none" stroke="#000000" d="M1538.5281,-576.2022C1548.4553,-567.1546 1560.6665,-556.0255 1571.4357,-546.2105"/>
<polygon fill="#000000" stroke="#000000" points="1573.9358,-548.6675 1578.9691,-539.3446 1569.2206,-543.4938 1573.9358,-548.6675"/>
</g>
<!-- ECEC 201&#45;&gt;ECEC 204 -->
<g id="edge37" class="edge">
<title>ECEC 201&#45;&gt;ECEC 204</title>
<path fill="none" stroke="#000000" d="M1502.6736,-576.0535C1479.6025,-550.6928 1437.3499,-504.2472 1411.0777,-475.3679"/>
<polygon fill="#000000" stroke="#000000" points="1413.4389,-472.7622 1404.1206,-467.7204 1408.2609,-477.4727 1413.4389,-472.7622"/>
</g>
<!-- ECEC 353 -->
<g id="node68" class="node">
<title>ECEC 353</title>
<ellipse fill="none" stroke="#ff0000" cx="1500" cy="-18" rx="83.6854" ry="18"/>
<text text-anchor="middle" x="1500" y="-14.3" font-family="Times,serif" font-size="14.00" fill="#000000">ECEC 353 (3.0)</text>
</g>
<!-- ECEC 201&#45;&gt;ECEC 353 -->
<g id="edge52" class="edge">
<title>ECEC 201&#45;&gt;ECEC 353</title>
<path fill="none" stroke="#000000" d="M1515.0632,-575.9156C1509.498,-548.7281 1500,-495.6422 1500,-450 1500,-450 1500,-450 1500,-162 1500,-121.876 1500,-75.4631 1500,-46.4177"/>
<polygon fill="#000000" stroke="#000000" points="1503.5001,-46.1853 1500,-36.1854 1496.5001,-46.1854 1503.5001,-46.1853"/>
</g>
<!-- 3.2 -->
<g id="node47" class="node">
<title>3.2</title>
<text text-anchor="middle" x="45" y="-446.3" font-family="Times,serif" font-size="14.00" fill="#000000">3.2 (19.0)</text>
</g>
<!-- 3.1&#45;&gt;3.2 -->
<!-- CS 260 -->
<g id="node48" class="node">
<title>CS 260</title>
<ellipse fill="none" stroke="#ffa500" cx="1598" cy="-450" rx="69.5877" ry="18"/>
<text text-anchor="middle" x="1598" y="-446.3" font-family="Times,serif" font-size="14.00" fill="#000000">CS 260 (3.0)</text>
</g>
<!-- CS 265&#45;&gt;CS 260 -->
<g id="edge33" class="edge">
<title>CS 265&#45;&gt;CS 260</title>
<path fill="none" stroke="#000000" d="M1598,-503.8314C1598,-496.131 1598,-486.9743 1598,-478.4166"/>
<polygon fill="#000000" stroke="#000000" points="1601.5001,-478.4132 1598,-468.4133 1594.5001,-478.4133 1601.5001,-478.4132"/>
</g>
<!-- ECE 361 -->
<g id="node43" class="node">
<title>ECE 361</title>
<ellipse fill="none" stroke="#0000ff" cx="2363" cy="-522" rx="76.8869" ry="18"/>
<text text-anchor="middle" x="2363" y="-518.3" font-family="Times,serif" font-size="14.00" fill="#000000">ECE 361 (4.0)</text>
</g>
<!-- ECE 491 -->
<g id="node59" class="node">
<title>ECE 491</title>
<ellipse fill="none" stroke="#ffa500" cx="2415" cy="-234" rx="76.8869" ry="18"/>
<text text-anchor="middle" x="2415" y="-230.3" font-family="Times,serif" font-size="14.00" fill="#000000">ECE 491 (2.0)</text>
</g>
<!-- ECE 361&#45;&gt;ECE 491 -->
<g id="edge46" class="edge">
<title>ECE 361&#45;&gt;ECE 491</title>
<path fill="none" stroke="#000000" d="M2364.2948,-503.8963C2366.6305,-473.8239 2372.2362,-411.7582 2382,-360 2388.4473,-325.8224 2399.0597,-287.2303 2406.5048,-261.8657"/>
<polygon fill="#000000" stroke="#000000" points="2409.8892,-262.7638 2409.3826,-252.1811 2403.1791,-260.7699 2409.8892,-262.7638"/>
</g>
<!-- ECEC 355 -->
<g id="node51" class="node">
<title>ECEC 355</title>
<ellipse fill="none" stroke="#ffa500" cx="1202" cy="-450" rx="83.6854" ry="18"/>
<text text-anchor="middle" x="1202" y="-446.3" font-family="Times,serif" font-size="14.00" fill="#000000">ECEC 355 (3.0)</text>
</g>
<!-- ECEC 302&#45;&gt;ECEC 355 -->
<g id="edge38" class="edge">
<title>ECEC 302&#45;&gt;ECEC 355</title>
<path fill="none" stroke="#000000" d="M1243.4045,-504.2022C1236.926,-495.7214 1229.0505,-485.4115 1221.9143,-476.0696"/>
<polygon fill="#000000" stroke="#000000" points="1224.4815,-473.6646 1215.6297,-467.8425 1218.9188,-477.9139 1224.4815,-473.6646"/>
</g>
<!-- 4.1 -->
<g id="node54" class="node">
<title>4.1</title>
<text text-anchor="middle" x="45" y="-374.3" font-family="Times,serif" font-size="14.00" fill="#000000">4.1 (4.0)</text>
</g>
<!-- 3.2&#45;&gt;4.1 -->
<!-- PHIL 315 -->
<g id="node52" class="node">
<title>PHIL 315</title>
<ellipse fill="none" stroke="#ffa500" cx="2472" cy="-450" rx="80.6858" ry="18"/>
<text text-anchor="middle" x="2472" y="-446.3" font-family="Times,serif" font-size="14.00" fill="#000000">PHIL 315 (3.0)</text>
</g>
<!-- 4.2 -->
<g id="node57" class="node">
<title>4.2</title>
<text text-anchor="middle" x="45" y="-302.3" font-family="Times,serif" font-size="14.00" fill="#000000">4.2 (0.0)</text>
</g>
<!-- 4.1&#45;&gt;4.2 -->
<!-- ECE 391 -->
<g id="node55" class="node">
<title>ECE 391</title>
<ellipse fill="none" stroke="#ffa500" cx="2468" cy="-378" rx="76.8869" ry="18"/>
<text text-anchor="middle" x="2468" y="-374.3" font-family="Times,serif" font-size="14.00" fill="#000000">ECE 391 (1.0)</text>
</g>
<!-- ECE 391&#45;&gt;ECE 491 -->
<g id="edge45" class="edge">
<title>ECE 391&#45;&gt;ECE 491</title>
<path fill="none" stroke="#000000" d="M2461.3947,-360.0535C2452.3096,-335.3696 2435.8728,-290.7111 2425.2013,-261.7167"/>
<polygon fill="#000000" stroke="#000000" points="2428.4273,-260.3483 2421.6886,-252.1727 2421.8581,-262.7662 2428.4273,-260.3483"/>
</g>
<!-- 5.1 -->
<g id="node58" class="node">
<title>5.1</title>
<text text-anchor="middle" x="45" y="-230.3" font-family="Times,serif" font-size="14.00" fill="#000000">5.1 (2.0)</text>
</g>
<!-- 4.2&#45;&gt;5.1 -->
<!-- 5.2 -->
<g id="node60" class="node">
<title>5.2</title>
<text text-anchor="middle" x="45" y="-158.3" font-family="Times,serif" font-size="14.00" fill="#000000">5.2 (2.0)</text>
</g>
<!-- 5.1&#45;&gt;5.2 -->
<!-- ECE 492 -->
<g id="node61" class="node">
<title>ECE 492</title>
<ellipse fill="none" stroke="#ffa500" cx="2415" cy="-162" rx="76.8869" ry="18"/>
<text text-anchor="middle" x="2415" y="-158.3" font-family="Times,serif" font-size="14.00" fill="#000000">ECE 492 (2.0)</text>
</g>
<!-- ECE 491&#45;&gt;ECE 492 -->
<g id="edge48" class="edge">
<title>ECE 491&#45;&gt;ECE 492</title>
<path fill="none" stroke="#000000" d="M2415,-215.8314C2415,-208.131 2415,-198.9743 2415,-190.4166"/>
<polygon fill="#000000" stroke="#000000" points="2418.5001,-190.4132 2415,-180.4133 2411.5001,-190.4133 2418.5001,-190.4132"/>
</g>
<!-- 5.3 -->
<g id="node62" class="node">
<title>5.3</title>
<text text-anchor="middle" x="45" y="-86.3" font-family="Times,serif" font-size="14.00" fill="#000000">5.3 (4.0)</text>
</g>
<!-- 5.2&#45;&gt;5.3 -->
<!-- ECE 493 -->
<g id="node63" class="node">
<title>ECE 493</title>
<ellipse fill="none" stroke="#ffa500" cx="2415" cy="-90" rx="76.8869" ry="18"/>
<text text-anchor="middle" x="2415" y="-86.3" font-family="Times,serif" font-size="14.00" fill="#000000">ECE 493 (4.0)</text>
</g>
<!-- ECE 492&#45;&gt;ECE 493 -->
<g id="edge50" class="edge">
<title>ECE 492&#45;&gt;ECE 493</title>
<path fill="none" stroke="#000000" d="M2415,-143.8314C2415,-136.131 2415,-126.9743 2415,-118.4166"/>
<polygon fill="#000000" stroke="#000000" points="2418.5001,-118.4132 2415,-108.4133 2411.5001,-118.4133 2418.5001,-118.4132"/>
</g>
<!-- &#45;1.0 -->
<g id="node64" class="node">
<title>&#45;1.0</title>
<text text-anchor="middle" x="45" y="-14.3" font-family="Times,serif" font-size="14.00" fill="#000000">&#45;1.0 (35.0)</text>
</g>
<!-- 5.3&#45;&gt;&#45;1.0 -->
<!-- TEMP GenEd -->
<g id="node65" class="node">
<title>TEMP GenEd</title>
<ellipse fill="none" stroke="#ff0000" cx="1857" cy="-18" rx="98.2828" ry="18"/>
<text text-anchor="middle" x="1857" y="-14.3" font-family="Times,serif" font-size="14.00" fill="#000000">TEMP GenEd (8.0)</text>
</g>
<!-- TEMP ECEC 400 -->
<g id="node66" class="node">
<title>TEMP ECEC 400</title>
<ellipse fill="none" stroke="#ff0000" cx="2089" cy="-18" rx="115.8798" ry="18"/>
<text text-anchor="middle" x="2089" y="-14.3" font-family="Times,serif" font-size="14.00" fill="#000000">TEMP ECEC 400 (9.0)</text>
</g>
<!-- TEMP COE -->
<g id="node67" class="node">
<title>TEMP COE</title>
<ellipse fill="none" stroke="#ff0000" cx="2318" cy="-18" rx="94.7833" ry="18"/>
<text text-anchor="middle" x="2318" y="-14.3" font-family="Times,serif" font-size="14.00" fill="#000000">TEMP COE (12.0)</text>
</g>
<!-- CS 377 -->
<g id="node69" class="node">
<title>CS 377</title>
<ellipse fill="none" stroke="#ff0000" cx="1671" cy="-18" rx="69.5877" ry="18"/>
<text text-anchor="middle" x="1671" y="-14.3" font-family="Times,serif" font-size="14.00" fill="#000000">CS 377 (3.0)</text>
</g>
<!-- ECEC 353&#45;&gt;CS 377 -->
<g id="edge53" class="edge">
<title>ECEC 353&#45;&gt;CS 377</title>
<path fill="none" stroke="#000000" d="M1584.1641,-18C1586.4607,-18 1588.7574,-18 1591.0541,-18"/>
<polygon fill="#000000" stroke="#000000" points="1591.1242,-21.5001 1601.1242,-18 1591.1242,-14.5001 1591.1242,-21.5001"/>
</g>
</g>
</svg>
