<?xml version="1.0" encoding="UTF-8" standalone="no"?>
<!DOCTYPE svg PUBLIC "-//W3C//DTD SVG 1.1//EN"
 "http://www.w3.org/Graphics/SVG/1.1/DTD/svg11.dtd">
<!-- Generated by graphviz version 2.40.1 (0)
 -->
<!-- Title: Classes Pages: 1 -->
<svg width="3469pt" height="1110pt"
 viewBox="0.00 0.00 3468.68 1109.57" xmlns="http://www.w3.org/2000/svg" xmlns:xlink="http://www.w3.org/1999/xlink">
<g id="graph0" class="graph" transform="scale(1 1) rotate(0) translate(4 1105.5677)">
<title>Classes</title>
<polygon fill="#ffffff" stroke="transparent" points="-4,4 -4,-1105.5677 3464.6812,-1105.5677 3464.6812,4 -4,4"/>
<!-- 0.0 -->
<g id="node1" class="node">
<title>0.0</title>
<text text-anchor="middle" x="45" y="-1075.2403" font-family="Times,serif" font-size="14.00" fill="#000000">0.0 (11.0)</text>
</g>
<!-- 1.1 -->
<g id="node5" class="node">
<title>1.1</title>
<text text-anchor="middle" x="45" y="-993.9854" font-family="Times,serif" font-size="14.00" fill="#000000">1.1 (16.5)</text>
</g>
<!-- 0.0&#45;&gt;1.1 -->
<!-- CS 190 -->
<g id="node2" class="node">
<title>CS 190</title>
<ellipse fill="none" stroke="#006400" cx="221" cy="-1078.9403" rx="115.0173" ry="22.7556"/>
<text text-anchor="start" x="175.5" y="-1080.7403" font-family="Times,serif" font-size="14.00" fill="#000000">CS 190 (3.0)</text>
<text text-anchor="start" x="147.5" y="-1069.9403" font-family="Times,serif" font-size="10.00" fill="#000000">Selected Computer Language</text>
</g>
<!-- SPAN 101 -->
<g id="node3" class="node">
<title>SPAN 101</title>
<ellipse fill="none" stroke="#006400" cx="444" cy="-1078.9403" rx="89.6056" ry="22.7556"/>
<text text-anchor="start" x="388.5" y="-1080.7403" font-family="Times,serif" font-size="14.00" fill="#000000">SPAN 101 (4.0)</text>
<text text-anchor="start" x="421" y="-1069.9403" font-family="Times,serif" font-size="10.00" fill="#000000">Spanish I</text>
</g>
<!-- TGFE 099 -->
<g id="node4" class="node">
<title>TGFE 099</title>
<ellipse fill="none" stroke="#006400" cx="672" cy="-1078.9403" rx="120.4167" ry="22.7556"/>
<text text-anchor="start" x="616.5" y="-1080.7403" font-family="Times,serif" font-size="14.00" fill="#000000">TGFE 099 (4.0)</text>
<text text-anchor="start" x="595" y="-1069.9403" font-family="Times,serif" font-size="10.00" fill="#000000">Transfer General Free Elective</text>
</g>
<!-- 1.2 -->
<g id="node13" class="node">
<title>1.2</title>
<text text-anchor="middle" x="45" y="-912.7306" font-family="Times,serif" font-size="14.00" fill="#000000">1.2 (19.5)</text>
</g>
<!-- 1.1&#45;&gt;1.2 -->
<!-- CHEM 101 -->
<g id="node6" class="node">
<title>CHEM 101</title>
<ellipse fill="none" stroke="#006400" cx="324" cy="-997.6854" rx="94.5053" ry="22.7556"/>
<text text-anchor="start" x="265" y="-999.4854" font-family="Times,serif" font-size="14.00" fill="#000000">CHEM 101 (3.5)</text>
<text text-anchor="start" x="274" y="-988.6854" font-family="Times,serif" font-size="10.00" fill="#000000">General Chemistry I</text>
</g>
<!-- CHEM 102 -->
<g id="node14" class="node">
<title>CHEM 102</title>
<ellipse fill="none" stroke="#006400" cx="201" cy="-916.4306" rx="94.5053" ry="22.7556"/>
<text text-anchor="start" x="142" y="-918.2306" font-family="Times,serif" font-size="14.00" fill="#000000">CHEM 102 (4.5)</text>
<text text-anchor="start" x="149.5" y="-907.4306" font-family="Times,serif" font-size="10.00" fill="#000000">General Chemistry II</text>
</g>
<!-- CHEM 101&#45;&gt;CHEM 102 -->
<g id="edge3" class="edge">
<title>CHEM 101&#45;&gt;CHEM 102</title>
<path fill="none" stroke="#000000" d="M291.6832,-976.3367C276.5491,-966.339 258.3457,-954.3136 242.2322,-943.6689"/>
<polygon fill="#000000" stroke="#000000" points="243.801,-940.5106 233.528,-937.9189 239.9426,-946.3512 243.801,-940.5106"/>
</g>
<!-- BIO 141 -->
<g id="node22" class="node">
<title>BIO 141</title>
<ellipse fill="none" stroke="#006400" cx="324" cy="-835.1758" rx="80.7205" ry="22.7556"/>
<text text-anchor="start" x="275" y="-836.9758" font-family="Times,serif" font-size="14.00" fill="#000000">BIO 141 (4.5)</text>
<text text-anchor="start" x="281.5" y="-826.1758" font-family="Times,serif" font-size="10.00" fill="#000000">Essential Biology</text>
</g>
<!-- CHEM 101&#45;&gt;BIO 141 -->
<g id="edge8" class="edge">
<title>CHEM 101&#45;&gt;BIO 141</title>
<path fill="none" stroke="#000000" d="M324,-974.7464C324,-946.9199 324,-899.8079 324,-868.1076"/>
<polygon fill="#000000" stroke="#000000" points="327.5001,-867.998 324,-857.9981 320.5001,-867.9981 327.5001,-867.998"/>
</g>
<!-- ENGR 220 -->
<g id="node32" class="node">
<title>ENGR 220</title>
<ellipse fill="none" stroke="#006400" cx="661" cy="-753.9209" rx="105.218" ry="22.7556"/>
<text text-anchor="start" x="603.5" y="-755.7209" font-family="Times,serif" font-size="14.00" fill="#000000">ENGR 220 (4.0)</text>
<text text-anchor="start" x="594.5" y="-744.9209" font-family="Times,serif" font-size="10.00" fill="#000000">Fundamentals of Materials</text>
</g>
<!-- CHEM 101&#45;&gt;ENGR 220 -->
<g id="edge14" class="edge">
<title>CHEM 101&#45;&gt;ENGR 220</title>
<path fill="none" stroke="#000000" d="M338.387,-975.2323C364.2228,-936.6247 422.1592,-857.4885 490,-812.5483 516.3275,-795.1081 548.3777,-782.3202 577.5843,-773.2218"/>
<polygon fill="#000000" stroke="#000000" points="578.8014,-776.5107 587.3678,-770.2763 576.7833,-769.8078 578.8014,-776.5107"/>
</g>
<!-- ENGL 101 -->
<g id="node7" class="node">
<title>ENGL 101</title>
<ellipse fill="none" stroke="#006400" cx="1600" cy="-997.6854" rx="106.5467" ry="22.7556"/>
<text text-anchor="start" x="1543" y="-999.4854" font-family="Times,serif" font-size="14.00" fill="#000000">ENGL 101 (3.0)</text>
<text text-anchor="start" x="1532.5" y="-988.6854" font-family="Times,serif" font-size="10.00" fill="#000000">Composition and Rhetoric I</text>
</g>
<!-- ENGL 102 -->
<g id="node16" class="node">
<title>ENGL 102</title>
<ellipse fill="none" stroke="#006400" cx="1600" cy="-916.4306" rx="109.7032" ry="22.7556"/>
<text text-anchor="start" x="1543" y="-918.2306" font-family="Times,serif" font-size="14.00" fill="#000000">ENGL 102 (3.0)</text>
<text text-anchor="start" x="1530.5" y="-907.4306" font-family="Times,serif" font-size="10.00" fill="#000000">Composition and Rhetoric II</text>
</g>
<!-- ENGL 101&#45;&gt;ENGL 102 -->
<g id="edge4" class="edge">
<title>ENGL 101&#45;&gt;ENGL 102</title>
<path fill="none" stroke="#000000" d="M1600,-975.0514C1600,-967.1059 1600,-958.0098 1600,-949.3913"/>
<polygon fill="#000000" stroke="#000000" points="1603.5001,-949.225 1600,-939.225 1596.5001,-949.2251 1603.5001,-949.225"/>
</g>
<!-- ENGR 100 -->
<g id="node8" class="node">
<title>ENGR 100</title>
<ellipse fill="none" stroke="#006400" cx="2064" cy="-997.6854" rx="102.561" ry="22.7556"/>
<text text-anchor="start" x="2006.5" y="-999.4854" font-family="Times,serif" font-size="14.00" fill="#000000">ENGR 100 (1.0)</text>
<text text-anchor="start" x="1999.5" y="-988.6854" font-family="Times,serif" font-size="10.00" fill="#000000">Beginning CAD for Design</text>
</g>
<!-- ENGR 101 -->
<g id="node9" class="node">
<title>ENGR 101</title>
<ellipse fill="none" stroke="#006400" cx="1114" cy="-997.6854" rx="99.9045" ry="22.7556"/>
<text text-anchor="start" x="1056.5" y="-999.4854" font-family="Times,serif" font-size="14.00" fill="#000000">ENGR 101 (2.0)</text>
<text text-anchor="start" x="1051.5" y="-988.6854" font-family="Times,serif" font-size="10.00" fill="#000000">Engineering Design Lab I</text>
</g>
<!-- ENGR 102 -->
<g id="node17" class="node">
<title>ENGR 102</title>
<ellipse fill="none" stroke="#006400" cx="1114" cy="-916.4306" rx="102.561" ry="22.7556"/>
<text text-anchor="start" x="1056.5" y="-918.2306" font-family="Times,serif" font-size="14.00" fill="#000000">ENGR 102 (2.0)</text>
<text text-anchor="start" x="1049.5" y="-907.4306" font-family="Times,serif" font-size="10.00" fill="#000000">Engineering Design Lab II</text>
</g>
<!-- ENGR 101&#45;&gt;ENGR 102 -->
<g id="edge5" class="edge">
<title>ENGR 101&#45;&gt;ENGR 102</title>
<path fill="none" stroke="#000000" d="M1114,-975.0514C1114,-967.1059 1114,-958.0098 1114,-949.3913"/>
<polygon fill="#000000" stroke="#000000" points="1117.5001,-949.225 1114,-939.225 1110.5001,-949.2251 1117.5001,-949.225"/>
</g>
<!-- ENGR 121 -->
<g id="node10" class="node">
<title>ENGR 121</title>
<ellipse fill="none" stroke="#006400" cx="2396" cy="-997.6854" rx="92.7622" ry="22.7556"/>
<text text-anchor="start" x="2338.5" y="-999.4854" font-family="Times,serif" font-size="14.00" fill="#000000">ENGR 121 (2.0)</text>
<text text-anchor="start" x="2350" y="-988.6854" font-family="Times,serif" font-size="10.00" fill="#000000">Computation Lab I</text>
</g>
<!-- ENGR 231 -->
<g id="node33" class="node">
<title>ENGR 231</title>
<ellipse fill="none" stroke="#006400" cx="2396" cy="-753.9209" rx="109.7032" ry="22.7556"/>
<text text-anchor="start" x="2338.5" y="-755.7209" font-family="Times,serif" font-size="14.00" fill="#000000">ENGR 231 (3.0)</text>
<text text-anchor="start" x="2326.5" y="-744.9209" font-family="Times,serif" font-size="10.00" fill="#000000">Linear Engineering Systems</text>
</g>
<!-- ENGR 121&#45;&gt;ENGR 231 -->
<g id="edge17" class="edge">
<title>ENGR 121&#45;&gt;ENGR 231</title>
<path fill="none" stroke="#000000" d="M2396,-974.7527C2396,-931.3587 2396,-837.0989 2396,-786.913"/>
<polygon fill="#000000" stroke="#000000" points="2399.5001,-786.6151 2396,-776.6152 2392.5001,-786.6152 2399.5001,-786.6151"/>
</g>
<!-- MATH 121 -->
<g id="node11" class="node">
<title>MATH 121</title>
<ellipse fill="none" stroke="#006400" cx="592" cy="-997.6854" rx="92.7622" ry="22.7556"/>
<text text-anchor="start" x="534.5" y="-999.4854" font-family="Times,serif" font-size="14.00" fill="#000000">MATH 121 (4.0)</text>
<text text-anchor="start" x="567.5" y="-988.6854" font-family="Times,serif" font-size="10.00" fill="#000000">Calculus I</text>
</g>
<!-- MATH 122 -->
<g id="node19" class="node">
<title>MATH 122</title>
<ellipse fill="none" stroke="#006400" cx="592" cy="-916.4306" rx="92.7622" ry="22.7556"/>
<text text-anchor="start" x="534.5" y="-918.2306" font-family="Times,serif" font-size="14.00" fill="#000000">MATH 122 (4.0)</text>
<text text-anchor="start" x="565.5" y="-907.4306" font-family="Times,serif" font-size="10.00" fill="#000000">Calculus II</text>
</g>
<!-- MATH 121&#45;&gt;MATH 122 -->
<g id="edge6" class="edge">
<title>MATH 121&#45;&gt;MATH 122</title>
<path fill="none" stroke="#000000" d="M592,-975.0514C592,-967.1059 592,-958.0098 592,-949.3913"/>
<polygon fill="#000000" stroke="#000000" points="595.5001,-949.225 592,-939.225 588.5001,-949.2251 595.5001,-949.225"/>
</g>
<!-- UNIV 101 -->
<g id="node12" class="node">
<title>UNIV 101</title>
<ellipse fill="none" stroke="#006400" cx="2597" cy="-997.6854" rx="90.5193" ry="22.7556"/>
<text text-anchor="start" x="2541.5" y="-999.4854" font-family="Times,serif" font-size="14.00" fill="#000000">UNIV 101 (1.0)</text>
<text text-anchor="start" x="2541" y="-988.6854" font-family="Times,serif" font-size="10.00" fill="#000000">The Drexel Experience</text>
</g>
<!-- 1.3 -->
<g id="node21" class="node">
<title>1.3</title>
<text text-anchor="middle" x="45" y="-831.4758" font-family="Times,serif" font-size="14.00" fill="#000000">1.3 (17.5)</text>
</g>
<!-- 1.2&#45;&gt;1.3 -->
<!-- CIVC 101 -->
<g id="node15" class="node">
<title>CIVC 101</title>
<ellipse fill="none" stroke="#006400" cx="2527" cy="-916.4306" rx="102.561" ry="22.7556"/>
<text text-anchor="start" x="2472.5" y="-918.2306" font-family="Times,serif" font-size="14.00" fill="#000000">CIVC 101 (1.0)</text>
<text text-anchor="start" x="2462.5" y="-907.4306" font-family="Times,serif" font-size="10.00" fill="#000000">Intro to Civic Engagement</text>
</g>
<!-- ENGL 103 -->
<g id="node24" class="node">
<title>ENGL 103</title>
<ellipse fill="none" stroke="#006400" cx="1600" cy="-835.1758" rx="111.9462" ry="22.7556"/>
<text text-anchor="start" x="1543" y="-836.9758" font-family="Times,serif" font-size="14.00" fill="#000000">ENGL 103 (3.0)</text>
<text text-anchor="start" x="1529" y="-826.1758" font-family="Times,serif" font-size="10.00" fill="#000000">Composition and Rhetoric III</text>
</g>
<!-- ENGL 102&#45;&gt;ENGL 103 -->
<g id="edge9" class="edge">
<title>ENGL 102&#45;&gt;ENGL 103</title>
<path fill="none" stroke="#000000" d="M1600,-893.7966C1600,-885.8511 1600,-876.755 1600,-868.1365"/>
<polygon fill="#000000" stroke="#000000" points="1603.5001,-867.9702 1600,-857.9702 1596.5001,-867.9702 1603.5001,-867.9702"/>
</g>
<!-- ENGR 103 -->
<g id="node25" class="node">
<title>ENGR 103</title>
<ellipse fill="none" stroke="#006400" cx="1114" cy="-835.1758" rx="105.218" ry="22.7556"/>
<text text-anchor="start" x="1056.5" y="-836.9758" font-family="Times,serif" font-size="14.00" fill="#000000">ENGR 103 (2.0)</text>
<text text-anchor="start" x="1047.5" y="-826.1758" font-family="Times,serif" font-size="10.00" fill="#000000">Engineering Design Lab III</text>
</g>
<!-- ENGR 102&#45;&gt;ENGR 103 -->
<g id="edge10" class="edge">
<title>ENGR 102&#45;&gt;ENGR 103</title>
<path fill="none" stroke="#000000" d="M1114,-893.7966C1114,-885.8511 1114,-876.755 1114,-868.1365"/>
<polygon fill="#000000" stroke="#000000" points="1117.5001,-867.9702 1114,-857.9702 1110.5001,-867.9702 1117.5001,-867.9702"/>
</g>
<!-- ENGR 122 -->
<g id="node18" class="node">
<title>ENGR 122</title>
<ellipse fill="none" stroke="#006400" cx="2740" cy="-916.4306" rx="92.7622" ry="22.7556"/>
<text text-anchor="start" x="2682.5" y="-918.2306" font-family="Times,serif" font-size="14.00" fill="#000000">ENGR 122 (1.0)</text>
<text text-anchor="start" x="2692" y="-907.4306" font-family="Times,serif" font-size="10.00" fill="#000000">Computation Lab II</text>
</g>
<!-- MATH 200 -->
<g id="node26" class="node">
<title>MATH 200</title>
<ellipse fill="none" stroke="#006400" cx="592" cy="-835.1758" rx="92.7622" ry="22.7556"/>
<text text-anchor="start" x="534.5" y="-836.9758" font-family="Times,serif" font-size="14.00" fill="#000000">MATH 200 (4.0)</text>
<text text-anchor="start" x="539" y="-826.1758" font-family="Times,serif" font-size="10.00" fill="#000000">Multivariate Calculus</text>
</g>
<!-- MATH 122&#45;&gt;MATH 200 -->
<g id="edge11" class="edge">
<title>MATH 122&#45;&gt;MATH 200</title>
<path fill="none" stroke="#000000" d="M592,-893.7966C592,-885.8511 592,-876.755 592,-868.1365"/>
<polygon fill="#000000" stroke="#000000" points="595.5001,-867.9702 592,-857.9702 588.5001,-867.9702 595.5001,-867.9702"/>
</g>
<!-- MATH 122&#45;&gt;ENGR 220 -->
<g id="edge15" class="edge">
<title>MATH 122&#45;&gt;ENGR 220</title>
<path fill="none" stroke="#000000" d="M646.7292,-898.0179C665.0739,-888.9326 683.5146,-875.9239 694,-857.8032 707.1026,-835.1594 696.4291,-806.6762 683.8384,-785.2645"/>
<polygon fill="#000000" stroke="#000000" points="686.6614,-783.1778 678.3887,-776.5587 680.728,-786.8921 686.6614,-783.1778"/>
</g>
<!-- PHYS 201 -->
<g id="node66" class="node">
<title>PHYS 201</title>
<ellipse fill="none" stroke="#ffa500" cx="637" cy="-347.6468" rx="108.375" ry="22.7556"/>
<text text-anchor="start" x="581" y="-349.4468" font-family="Times,serif" font-size="14.00" fill="#000000">PHYS 201 (4.0)</text>
<text text-anchor="start" x="568.5" y="-338.6468" font-family="Times,serif" font-size="10.00" fill="#000000">Fundamentals of Physics III</text>
</g>
<!-- MATH 122&#45;&gt;PHYS 201 -->
<g id="edge52" class="edge">
<title>MATH 122&#45;&gt;PHYS 201</title>
<path fill="none" stroke="#000000" d="M545.9181,-896.7613C526.9644,-887.0463 505.8002,-873.9198 490,-857.8032 453.1323,-820.1972 433,-806.5843 433,-753.9209 433,-753.9209 433,-753.9209 433,-510.1564 433,-439.4522 508.8953,-394.5403 568.1016,-370.2613"/>
<polygon fill="#000000" stroke="#000000" points="569.4501,-373.4916 577.4464,-366.541 566.861,-366.9881 569.4501,-373.4916"/>
</g>
<!-- PHYS 101 -->
<g id="node20" class="node">
<title>PHYS 101</title>
<ellipse fill="none" stroke="#006400" cx="845" cy="-916.4306" rx="103.4757" ry="22.7556"/>
<text text-anchor="start" x="789" y="-918.2306" font-family="Times,serif" font-size="14.00" fill="#000000">PHYS 101 (4.0)</text>
<text text-anchor="start" x="780" y="-907.4306" font-family="Times,serif" font-size="10.00" fill="#000000">Fundamentals of Physics I</text>
</g>
<!-- PHYS 102 -->
<g id="node27" class="node">
<title>PHYS 102</title>
<ellipse fill="none" stroke="#006400" cx="884" cy="-835.1758" rx="105.218" ry="22.7556"/>
<text text-anchor="start" x="828" y="-836.9758" font-family="Times,serif" font-size="14.00" fill="#000000">PHYS 102 (4.0)</text>
<text text-anchor="start" x="817.5" y="-826.1758" font-family="Times,serif" font-size="10.00" fill="#000000">Fundamentals of Physics II</text>
</g>
<!-- PHYS 101&#45;&gt;PHYS 102 -->
<g id="edge12" class="edge">
<title>PHYS 101&#45;&gt;PHYS 102</title>
<path fill="none" stroke="#000000" d="M855.8637,-893.7966C859.8784,-885.4321 864.5051,-875.7925 868.8321,-866.7774"/>
<polygon fill="#000000" stroke="#000000" points="872.0228,-868.2182 873.1946,-857.6884 865.7121,-865.1892 872.0228,-868.2182"/>
</g>
<!-- PHYS 101&#45;&gt;ENGR 220 -->
<g id="edge16" class="edge">
<title>PHYS 101&#45;&gt;ENGR 220</title>
<path fill="none" stroke="#000000" d="M815.6205,-894.5266C801.5569,-883.7751 784.6336,-870.4429 770,-857.8032 742.0392,-833.652 711.7283,-804.5042 690.185,-783.2384"/>
<polygon fill="#000000" stroke="#000000" points="692.5151,-780.62 682.9487,-776.0663 687.5874,-785.5917 692.5151,-780.62"/>
</g>
<!-- 2.1 -->
<g id="node28" class="node">
<title>2.1</title>
<text text-anchor="middle" x="45" y="-750.2209" font-family="Times,serif" font-size="14.00" fill="#000000">2.1 (20.0)</text>
</g>
<!-- 1.3&#45;&gt;2.1 -->
<!-- COOP 101 -->
<g id="node23" class="node">
<title>COOP 101</title>
<ellipse fill="none" stroke="#006400" cx="2527" cy="-835.1758" rx="102.561" ry="22.7556"/>
<text text-anchor="start" x="2476.5" y="-836.9758" font-family="Times,serif" font-size="14.00" fill="#000000">COOP 101 (0)</text>
<text text-anchor="start" x="2462.5" y="-826.1758" font-family="Times,serif" font-size="10.00" fill="#000000">Career Mgmt/Profess Dev</text>
</g>
<!-- ECES 301 -->
<g id="node46" class="node">
<title>ECES 301</title>
<ellipse fill="none" stroke="#006400" cx="1213" cy="-591.4113" rx="90.5193" ry="22.7556"/>
<text text-anchor="start" x="1157" y="-593.2113" font-family="Times,serif" font-size="14.00" fill="#000000">ECES 301 (4.0)</text>
<text text-anchor="start" x="1158.5" y="-582.4113" font-family="Times,serif" font-size="10.00" fill="#000000">Signals and Systems I</text>
</g>
<!-- ENGR 103&#45;&gt;ECES 301 -->
<g id="edge31" class="edge">
<title>ENGR 103&#45;&gt;ECES 301</title>
<path fill="none" stroke="#000000" d="M1123.3137,-812.243C1141.0481,-768.5761 1179.7013,-673.4015 1199.9834,-623.4617"/>
<polygon fill="#000000" stroke="#000000" points="1203.2631,-624.6876 1203.7832,-614.1055 1196.7775,-622.0536 1203.2631,-624.6876"/>
</g>
<!-- ECE 303 -->
<g id="node58" class="node">
<title>ECE 303</title>
<ellipse fill="none" stroke="#ffa500" cx="944" cy="-428.9016" rx="83.3772" ry="22.7556"/>
<text text-anchor="start" x="893" y="-430.7016" font-family="Times,serif" font-size="14.00" fill="#000000">ECE 303 (3.0)</text>
<text text-anchor="start" x="904.5" y="-419.9016" font-family="Times,serif" font-size="10.00" fill="#000000">ECE Laboratory</text>
</g>
<!-- ENGR 103&#45;&gt;ECE 303 -->
<g id="edge44" class="edge">
<title>ENGR 103&#45;&gt;ECE 303</title>
<path fill="none" stroke="#000000" d="M1109.4116,-812.4086C1103.5069,-781.0762 1094,-722.8386 1094,-672.6661 1094,-672.6661 1094,-672.6661 1094,-591.4113 1094,-529.8594 1035.1771,-481.6691 991.2036,-454.2435"/>
<polygon fill="#000000" stroke="#000000" points="992.9931,-451.2354 982.6287,-449.0374 989.3603,-457.2189 992.9931,-451.2354"/>
</g>
<!-- ECE 201 -->
<g id="node36" class="node">
<title>ECE 201</title>
<ellipse fill="none" stroke="#006400" cx="944" cy="-672.6661" rx="121.7449" ry="22.7556"/>
<text text-anchor="start" x="893" y="-674.4661" font-family="Times,serif" font-size="14.00" fill="#000000">ECE 201 (4.0)</text>
<text text-anchor="start" x="866" y="-663.6661" font-family="Times,serif" font-size="10.00" fill="#000000">Foundations of Electric Circuits</text>
</g>
<!-- PHYS 102&#45;&gt;ECE 201 -->
<g id="edge19" class="edge">
<title>PHYS 102&#45;&gt;ECE 201</title>
<path fill="none" stroke="#000000" d="M892.3427,-812.5795C902.6574,-784.6423 920.2859,-736.8957 932.0389,-705.0627"/>
<polygon fill="#000000" stroke="#000000" points="935.4514,-705.9251 935.6316,-695.3318 928.8846,-703.5006 935.4514,-705.9251"/>
</g>
<!-- PHYS 102&#45;&gt;PHYS 201 -->
<g id="edge51" class="edge">
<title>PHYS 102&#45;&gt;PHYS 201</title>
<path fill="none" stroke="#000000" d="M861.9835,-812.8553C835.3391,-783.376 794,-728.622 794,-672.6661 794,-672.6661 794,-672.6661 794,-510.1564 794,-448.0572 733.9698,-400.6194 688.1489,-373.4553"/>
<polygon fill="#000000" stroke="#000000" points="689.8973,-370.4233 679.4865,-368.4573 686.399,-376.4865 689.8973,-370.4233"/>
</g>
<!-- 2.2 -->
<g id="node35" class="node">
<title>2.2</title>
<text text-anchor="middle" x="45" y="-668.9661" font-family="Times,serif" font-size="14.00" fill="#000000">2.2 (16.0)</text>
</g>
<!-- 2.1&#45;&gt;2.2 -->
<!-- ECE 200 -->
<g id="node29" class="node">
<title>ECE 200</title>
<ellipse fill="none" stroke="#006400" cx="1435" cy="-753.9209" rx="83.3772" ry="22.7556"/>
<text text-anchor="start" x="1384" y="-755.7209" font-family="Times,serif" font-size="14.00" fill="#000000">ECE 200 (4.0)</text>
<text text-anchor="start" x="1385" y="-744.9209" font-family="Times,serif" font-size="10.00" fill="#000000">Digital Logic Design</text>
</g>
<!-- MATH 221 -->
<g id="node40" class="node">
<title>MATH 221</title>
<ellipse fill="none" stroke="#006400" cx="1375" cy="-672.6661" rx="92.7622" ry="22.7556"/>
<text text-anchor="start" x="1317.5" y="-674.4661" font-family="Times,serif" font-size="14.00" fill="#000000">MATH 221 (3.0)</text>
<text text-anchor="start" x="1320.5" y="-663.6661" font-family="Times,serif" font-size="10.00" fill="#000000">Discrete Mathematics</text>
</g>
<!-- ECE 200&#45;&gt;MATH 221 -->
<g id="edge23" class="edge">
<title>ECE 200&#45;&gt;MATH 221</title>
<path fill="none" stroke="#000000" d="M1418.6047,-731.7177C1412.1104,-722.9228 1404.537,-712.6664 1397.5413,-703.1925"/>
<polygon fill="#000000" stroke="#000000" points="1400.3397,-701.0903 1391.5839,-695.1248 1394.7086,-705.2484 1400.3397,-701.0903"/>
</g>
<!-- ECEC 302 -->
<g id="node44" class="node">
<title>ECEC 302</title>
<ellipse fill="none" stroke="#006400" cx="1496" cy="-591.4113" rx="96.7474" ry="22.7556"/>
<text text-anchor="start" x="1439.5" y="-593.2113" font-family="Times,serif" font-size="14.00" fill="#000000">ECEC 302 (3.0)</text>
<text text-anchor="start" x="1435.5" y="-582.4113" font-family="Times,serif" font-size="10.00" fill="#000000">Digital Systems Projects</text>
</g>
<!-- ECE 200&#45;&gt;ECEC 302 -->
<g id="edge27" class="edge">
<title>ECE 200&#45;&gt;ECEC 302</title>
<path fill="none" stroke="#000000" d="M1454.5016,-731.67C1462.643,-721.2673 1471.4738,-708.318 1477,-695.2935 1486.618,-672.625 1491.3738,-645.1486 1493.7218,-624.1487"/>
<polygon fill="#000000" stroke="#000000" points="1497.2129,-624.4107 1494.7175,-614.114 1490.2471,-623.7194 1497.2129,-624.4107"/>
</g>
<!-- ECE 200&#45;&gt;ECES 301 -->
<g id="edge29" class="edge">
<title>ECE 200&#45;&gt;ECES 301</title>
<path fill="none" stroke="#000000" d="M1366.912,-740.5962C1335.6652,-731.8163 1299.7154,-717.6649 1273,-695.2935 1250.3654,-676.3394 1234.4011,-646.5256 1224.66,-623.6897"/>
<polygon fill="#000000" stroke="#000000" points="1227.8815,-622.3204 1220.8649,-614.382 1221.3996,-624.9634 1227.8815,-622.3204"/>
</g>
<!-- ECEC 204 -->
<g id="node49" class="node">
<title>ECEC 204</title>
<ellipse fill="none" stroke="#006400" cx="1683" cy="-510.1564" rx="112.36" ry="22.7556"/>
<text text-anchor="start" x="1626.5" y="-511.9564" font-family="Times,serif" font-size="14.00" fill="#000000">ECEC 204 (3.0)</text>
<text text-anchor="start" x="1611.5" y="-501.1564" font-family="Times,serif" font-size="10.00" fill="#000000">Design with Microcontrollers</text>
</g>
<!-- ECE 200&#45;&gt;ECEC 204 -->
<g id="edge34" class="edge">
<title>ECE 200&#45;&gt;ECEC 204</title>
<path fill="none" stroke="#000000" d="M1464.0629,-732.5973C1498.6972,-706.5255 1557.4711,-660.1542 1602,-614.0387 1624.0601,-591.1925 1646.0216,-562.5646 1661.5003,-541.1501"/>
<polygon fill="#000000" stroke="#000000" points="1664.5421,-542.9135 1667.5122,-532.7435 1658.8482,-538.8416 1664.5421,-542.9135"/>
</g>
<!-- ECE 203 -->
<g id="node30" class="node">
<title>ECE 203</title>
<ellipse fill="none" stroke="#006400" cx="1889" cy="-753.9209" rx="108.375" ry="22.7556"/>
<text text-anchor="start" x="1838" y="-755.7209" font-family="Times,serif" font-size="14.00" fill="#000000">ECE 203 (3.0)</text>
<text text-anchor="start" x="1820.5" y="-744.9209" font-family="Times,serif" font-size="10.00" fill="#000000">Programming for Engineers</text>
</g>
<!-- ECEC 201 -->
<g id="node37" class="node">
<title>ECEC 201</title>
<ellipse fill="none" stroke="#006400" cx="1889" cy="-672.6661" rx="123.0732" ry="22.7556"/>
<text text-anchor="start" x="1832.5" y="-674.4661" font-family="Times,serif" font-size="14.00" fill="#000000">ECEC 201 (3.0)</text>
<text text-anchor="start" x="1810" y="-663.6661" font-family="Times,serif" font-size="10.00" fill="#000000">Adv Programming for Engineers</text>
</g>
<!-- ECE 203&#45;&gt;ECEC 201 -->
<g id="edge20" class="edge">
<title>ECE 203&#45;&gt;ECEC 201</title>
<path fill="none" stroke="#000000" d="M1889,-731.2869C1889,-723.3414 1889,-714.2453 1889,-705.6268"/>
<polygon fill="#000000" stroke="#000000" points="1892.5001,-705.4605 1889,-695.4605 1885.5001,-705.4606 1892.5001,-705.4605"/>
</g>
<!-- ECE 203&#45;&gt;ECEC 302 -->
<g id="edge26" class="edge">
<title>ECE 203&#45;&gt;ECEC 302</title>
<path fill="none" stroke="#000000" d="M1840.0209,-733.6675C1767.2086,-703.5589 1630.7123,-647.1162 1553.3423,-615.1229"/>
<polygon fill="#000000" stroke="#000000" points="1554.3277,-611.743 1543.7491,-611.156 1551.6527,-618.2118 1554.3277,-611.743"/>
</g>
<!-- ECEC 357 -->
<g id="node45" class="node">
<title>ECEC 357</title>
<ellipse fill="none" stroke="#006400" cx="2251" cy="-591.4113" rx="135.5294" ry="22.7556"/>
<text text-anchor="start" x="2194.5" y="-593.2113" font-family="Times,serif" font-size="14.00" fill="#000000">ECEC 357 (3.0)</text>
<text text-anchor="start" x="2163" y="-582.4113" font-family="Times,serif" font-size="10.00" fill="#000000">Introduction to Computer Networks</text>
</g>
<!-- ECE 203&#45;&gt;ECEC 357 -->
<g id="edge28" class="edge">
<title>ECE 203&#45;&gt;ECEC 357</title>
<path fill="none" stroke="#000000" d="M1935.459,-733.3712C1960.7665,-722.1559 1992.623,-708.0036 2021,-695.2935 2080.2941,-668.7357 2148.0658,-638.0905 2194.6001,-617.0034"/>
<polygon fill="#000000" stroke="#000000" points="2196.2425,-620.1018 2203.9057,-612.7857 2193.3527,-613.7261 2196.2425,-620.1018"/>
</g>
<!-- ENGR 201 -->
<g id="node31" class="node">
<title>ENGR 201</title>
<ellipse fill="none" stroke="#006400" cx="2641" cy="-753.9209" rx="107.4605" ry="22.7556"/>
<text text-anchor="start" x="2583.5" y="-755.7209" font-family="Times,serif" font-size="14.00" fill="#000000">ENGR 201 (3.0)</text>
<text text-anchor="start" x="2573" y="-744.9209" font-family="Times,serif" font-size="10.00" fill="#000000">Eval &amp; Pres of Exper Data I</text>
</g>
<!-- ENGR 202 -->
<g id="node38" class="node">
<title>ENGR 202</title>
<ellipse fill="none" stroke="#006400" cx="2641" cy="-672.6661" rx="110.1176" ry="22.7556"/>
<text text-anchor="start" x="2583.5" y="-674.4661" font-family="Times,serif" font-size="14.00" fill="#000000">ENGR 202 (3.0)</text>
<text text-anchor="start" x="2571" y="-663.6661" font-family="Times,serif" font-size="10.00" fill="#000000">Eval &amp; Pres of Exper Data II</text>
</g>
<!-- ENGR 201&#45;&gt;ENGR 202 -->
<g id="edge21" class="edge">
<title>ENGR 201&#45;&gt;ENGR 202</title>
<path fill="none" stroke="#000000" d="M2641,-731.2869C2641,-723.3414 2641,-714.2453 2641,-705.6268"/>
<polygon fill="#000000" stroke="#000000" points="2644.5001,-705.4605 2641,-695.4605 2637.5001,-705.4606 2644.5001,-705.4605"/>
</g>
<!-- ENGR 232 -->
<g id="node39" class="node">
<title>ENGR 232</title>
<ellipse fill="none" stroke="#006400" cx="2396" cy="-672.6661" rx="116.8455" ry="22.7556"/>
<text text-anchor="start" x="2338.5" y="-674.4661" font-family="Times,serif" font-size="14.00" fill="#000000">ENGR 232 (3.0)</text>
<text text-anchor="start" x="2321.5" y="-663.6661" font-family="Times,serif" font-size="10.00" fill="#000000">Dynamic Engineering Systems</text>
</g>
<!-- ENGR 231&#45;&gt;ENGR 232 -->
<g id="edge22" class="edge">
<title>ENGR 231&#45;&gt;ENGR 232</title>
<path fill="none" stroke="#000000" d="M2396,-731.2869C2396,-723.3414 2396,-714.2453 2396,-705.6268"/>
<polygon fill="#000000" stroke="#000000" points="2399.5001,-705.4605 2396,-695.4605 2392.5001,-705.4606 2399.5001,-705.4605"/>
</g>
<!-- PHIL 111 -->
<g id="node34" class="node">
<title>PHIL 111</title>
<ellipse fill="none" stroke="#006400" cx="2854" cy="-753.9209" rx="87.8629" ry="22.7556"/>
<text text-anchor="start" x="2800" y="-755.7209" font-family="Times,serif" font-size="14.00" fill="#000000">PHIL 111 (3.0)</text>
<text text-anchor="start" x="2813" y="-744.9209" font-family="Times,serif" font-size="10.00" fill="#000000">Symbolic Logic I</text>
</g>
<!-- PHIL 207 -->
<g id="node73" class="node">
<title>PHIL 207</title>
<ellipse fill="none" stroke="#ffa500" cx="2854" cy="-103.8823" rx="87.8629" ry="22.7556"/>
<text text-anchor="start" x="2800" y="-105.6823" font-family="Times,serif" font-size="14.00" fill="#000000">PHIL 207 (3.0)</text>
<text text-anchor="start" x="2811.5" y="-94.8823" font-family="Times,serif" font-size="10.00" fill="#000000">Symbolic Logic II</text>
</g>
<!-- PHIL 111&#45;&gt;PHIL 207 -->
<g id="edge60" class="edge">
<title>PHIL 111&#45;&gt;PHIL 207</title>
<path fill="none" stroke="#000000" d="M2854,-731.045C2854,-699.588 2854,-641.2081 2854,-591.4113 2854,-591.4113 2854,-591.4113 2854,-266.3919 2854,-221.6526 2854,-169.9851 2854,-137.1386"/>
<polygon fill="#000000" stroke="#000000" points="2857.5001,-136.7581 2854,-126.7581 2850.5001,-136.7582 2857.5001,-136.7581"/>
</g>
<!-- 3.1 -->
<g id="node41" class="node">
<title>3.1</title>
<text text-anchor="middle" x="45" y="-587.7113" font-family="Times,serif" font-size="14.00" fill="#000000">3.1 (17.0)</text>
</g>
<!-- 2.2&#45;&gt;3.1 -->
<!-- ECE 201&#45;&gt;ECES 301 -->
<g id="edge30" class="edge">
<title>ECE 201&#45;&gt;ECES 301</title>
<path fill="none" stroke="#000000" d="M1008.0904,-653.3068C1049.4671,-640.8084 1103.2246,-624.5703 1145.296,-611.8621"/>
<polygon fill="#000000" stroke="#000000" points="1146.3426,-615.2022 1154.9034,-608.9601 1144.3185,-608.5012 1146.3426,-615.2022"/>
</g>
<!-- ECE 201&#45;&gt;ECE 303 -->
<g id="edge43" class="edge">
<title>ECE 201&#45;&gt;ECE 303</title>
<path fill="none" stroke="#000000" d="M944,-649.7333C944,-606.3393 944,-512.0795 944,-461.8937"/>
<polygon fill="#000000" stroke="#000000" points="947.5001,-461.5958 944,-451.5958 940.5001,-461.5959 947.5001,-461.5958"/>
</g>
<!-- CS 265 -->
<g id="node42" class="node">
<title>CS 265</title>
<ellipse fill="none" stroke="#006400" cx="1889" cy="-591.4113" rx="170.3255" ry="22.7556"/>
<text text-anchor="start" x="1843.5" y="-593.2113" font-family="Times,serif" font-size="14.00" fill="#000000">CS 265 (3.0)</text>
<text text-anchor="start" x="1776.5" y="-582.4113" font-family="Times,serif" font-size="10.00" fill="#000000">Advanced Programming Tools and Techniques</text>
</g>
<!-- ECEC 201&#45;&gt;CS 265 -->
<g id="edge25" class="edge">
<title>ECEC 201&#45;&gt;CS 265</title>
<path fill="none" stroke="#000000" d="M1889,-650.0321C1889,-642.0866 1889,-632.9905 1889,-624.372"/>
<polygon fill="#000000" stroke="#000000" points="1892.5001,-624.2057 1889,-614.2057 1885.5001,-624.2057 1892.5001,-624.2057"/>
</g>
<!-- ECEC 201&#45;&gt;ECEC 204 -->
<g id="edge35" class="edge">
<title>ECEC 201&#45;&gt;ECEC 204</title>
<path fill="none" stroke="#000000" d="M1811.2125,-655.0448C1769.7822,-644.1764 1724.4431,-629.4098 1710,-614.0387 1692.1547,-595.0468 1685.7492,-565.8028 1683.6102,-543.176"/>
<polygon fill="#000000" stroke="#000000" points="1687.0865,-542.7173 1682.8864,-532.9906 1680.1041,-543.2135 1687.0865,-542.7173"/>
</g>
<!-- ECEC 353 -->
<g id="node51" class="node">
<title>ECEC 353</title>
<ellipse fill="none" stroke="#006400" cx="2112" cy="-510.1564" rx="91.4341" ry="22.7556"/>
<text text-anchor="start" x="2055.5" y="-511.9564" font-family="Times,serif" font-size="14.00" fill="#000000">ECEC 353 (3.0)</text>
<text text-anchor="start" x="2056" y="-501.1564" font-family="Times,serif" font-size="10.00" fill="#000000">Systems Programming</text>
</g>
<!-- ECEC 201&#45;&gt;ECEC 353 -->
<g id="edge36" class="edge">
<title>ECEC 201&#45;&gt;ECEC 353</title>
<path fill="none" stroke="#000000" d="M1982.8897,-657.8868C2012.9692,-649.261 2044.527,-635.6155 2068,-614.0387 2088.3824,-595.3027 2099.6708,-565.586 2105.6938,-542.7268"/>
<polygon fill="#000000" stroke="#000000" points="2109.1528,-543.3133 2108.1043,-532.7705 2102.3494,-541.6661 2109.1528,-543.3133"/>
</g>
<!-- 3.2 -->
<g id="node47" class="node">
<title>3.2</title>
<text text-anchor="middle" x="45" y="-506.4564" font-family="Times,serif" font-size="14.00" fill="#000000">3.2 (18.0)</text>
</g>
<!-- 3.1&#45;&gt;3.2 -->
<!-- CS 260 -->
<g id="node48" class="node">
<title>CS 260</title>
<ellipse fill="none" stroke="#006400" cx="1889" cy="-510.1564" rx="75.8212" ry="22.7556"/>
<text text-anchor="start" x="1843.5" y="-511.9564" font-family="Times,serif" font-size="14.00" fill="#000000">CS 260 (3.0)</text>
<text text-anchor="start" x="1849.5" y="-501.1564" font-family="Times,serif" font-size="10.00" fill="#000000">Data Structures</text>
</g>
<!-- CS 265&#45;&gt;CS 260 -->
<g id="edge33" class="edge">
<title>CS 265&#45;&gt;CS 260</title>
<path fill="none" stroke="#000000" d="M1889,-568.7773C1889,-560.8318 1889,-551.7356 1889,-543.1172"/>
<polygon fill="#000000" stroke="#000000" points="1892.5001,-542.9508 1889,-532.9509 1885.5001,-542.9509 1892.5001,-542.9508"/>
</g>
<!-- CS 350 [WI] -->
<g id="node62" class="node">
<title>CS 350 [WI]</title>
<ellipse fill="none" stroke="#ffa500" cx="1974" cy="-347.6468" rx="101.2327" ry="22.7556"/>
<text text-anchor="start" x="1910.5" y="-349.4468" font-family="Times,serif" font-size="14.00" fill="#000000">CS 350 [WI] (3.0)</text>
<text text-anchor="start" x="1933" y="-338.6468" font-family="Times,serif" font-size="10.00" fill="#000000">Software Design</text>
</g>
<!-- CS 265&#45;&gt;CS 350 [WI] -->
<g id="edge48" class="edge">
<title>CS 265&#45;&gt;CS 350 [WI]</title>
<path fill="none" stroke="#000000" d="M1937.2825,-569.4736C1951.7551,-560.3253 1965.9163,-548.1795 1974,-532.7838 1999.2672,-484.6616 1991.1538,-419.333 1982.7342,-380.5267"/>
<polygon fill="#000000" stroke="#000000" points="1986.038,-379.2777 1980.3788,-370.321 1979.2173,-380.8519 1986.038,-379.2777"/>
</g>
<!-- ECE 361 -->
<g id="node43" class="node">
<title>ECE 361</title>
<ellipse fill="none" stroke="#006400" cx="3019" cy="-591.4113" rx="98.9899" ry="22.7556"/>
<text text-anchor="start" x="2968" y="-593.2113" font-family="Times,serif" font-size="14.00" fill="#000000">ECE 361 (4.0)</text>
<text text-anchor="start" x="2957" y="-582.4113" font-family="Times,serif" font-size="10.00" fill="#000000">Probability for Engineers</text>
</g>
<!-- ECE 491 -->
<g id="node68" class="node">
<title>ECE 491</title>
<ellipse fill="none" stroke="#ffa500" cx="3057" cy="-266.3919" rx="92.7622" ry="22.7556"/>
<text text-anchor="start" x="3006" y="-268.1919" font-family="Times,serif" font-size="14.00" fill="#000000">ECE 491 (2.0)</text>
<text text-anchor="start" x="2999.5" y="-257.3919" font-family="Times,serif" font-size="10.00" fill="#000000">Senior Design Project I</text>
</g>
<!-- ECE 361&#45;&gt;ECE 491 -->
<g id="edge55" class="edge">
<title>ECE 361&#45;&gt;ECE 491</title>
<path fill="none" stroke="#000000" d="M3021.1002,-568.5832C3024.373,-533.6063 3031.0399,-464.6663 3038,-406.2742 3042.3726,-369.5898 3048.1836,-327.6064 3052.2228,-299.2841"/>
<polygon fill="#000000" stroke="#000000" points="3055.7228,-299.5332 3053.6775,-289.1377 3048.7937,-298.5398 3055.7228,-299.5332"/>
</g>
<!-- ECEC 355 -->
<g id="node52" class="node">
<title>ECEC 355</title>
<ellipse fill="none" stroke="#006400" cx="1461" cy="-510.1564" rx="91.4341" ry="22.7556"/>
<text text-anchor="start" x="1404.5" y="-511.9564" font-family="Times,serif" font-size="14.00" fill="#000000">ECEC 355 (3.0)</text>
<text text-anchor="start" x="1404.5" y="-501.1564" font-family="Times,serif" font-size="10.00" fill="#000000">Computer Architecture</text>
</g>
<!-- ECEC 302&#45;&gt;ECEC 355 -->
<g id="edge37" class="edge">
<title>ECEC 302&#45;&gt;ECEC 355</title>
<path fill="none" stroke="#000000" d="M1486.2505,-568.7773C1482.6855,-560.5009 1478.5828,-550.976 1474.7349,-542.043"/>
<polygon fill="#000000" stroke="#000000" points="1477.8677,-540.4686 1470.6972,-532.669 1471.4388,-543.2379 1477.8677,-540.4686"/>
</g>
<!-- 4.1 -->
<g id="node54" class="node">
<title>4.1</title>
<text text-anchor="middle" x="45" y="-425.2016" font-family="Times,serif" font-size="14.00" fill="#000000">4.1 (16.0)</text>
</g>
<!-- 3.2&#45;&gt;4.1 -->
<!-- CS 361 -->
<g id="node55" class="node">
<title>CS 361</title>
<ellipse fill="none" stroke="#ffa500" cx="1827" cy="-428.9016" rx="100.3184" ry="22.7556"/>
<text text-anchor="start" x="1781.5" y="-430.7016" font-family="Times,serif" font-size="14.00" fill="#000000">CS 361 (3.0)</text>
<text text-anchor="start" x="1764" y="-419.9016" font-family="Times,serif" font-size="10.00" fill="#000000">Concurrent Programming</text>
</g>
<!-- CS 260&#45;&gt;CS 361 -->
<g id="edge39" class="edge">
<title>CS 260&#45;&gt;CS 361</title>
<path fill="none" stroke="#000000" d="M1872.0582,-487.9532C1865.3474,-479.1583 1857.5215,-468.9019 1850.2926,-459.428"/>
<polygon fill="#000000" stroke="#000000" points="1852.9854,-457.1872 1844.1367,-451.3603 1847.4203,-461.4335 1852.9854,-457.1872"/>
</g>
<!-- CS 260&#45;&gt;CS 350 [WI] -->
<g id="edge47" class="edge">
<title>CS 260&#45;&gt;CS 350 [WI]</title>
<path fill="none" stroke="#000000" d="M1909.3643,-488.2865C1918.4016,-477.7566 1928.6342,-464.5984 1936,-451.529 1948.7215,-428.9568 1958.5888,-401.3221 1965.0768,-380.2311"/>
<polygon fill="#000000" stroke="#000000" points="1968.4887,-381.0368 1967.9881,-370.4538 1961.7798,-379.0391 1968.4887,-381.0368"/>
</g>
<!-- ECEC I399 -->
<g id="node50" class="node">
<title>ECEC I399</title>
<ellipse fill="none" stroke="#006400" cx="3157" cy="-510.1564" rx="110.1176" ry="22.7556"/>
<text text-anchor="start" x="3097.5" y="-511.9564" font-family="Times,serif" font-size="14.00" fill="#000000">ECEC I399 (3.0)</text>
<text text-anchor="start" x="3087" y="-501.1564" font-family="Times,serif" font-size="10.00" fill="#000000">Vision Processing Hardware</text>
</g>
<!-- CS 370 -->
<g id="node56" class="node">
<title>CS 370</title>
<ellipse fill="none" stroke="#ffa500" cx="2276" cy="-428.9016" rx="77.5641" ry="22.7556"/>
<text text-anchor="start" x="2230.5" y="-430.7016" font-family="Times,serif" font-size="14.00" fill="#000000">CS 370 (3.0)</text>
<text text-anchor="start" x="2229" y="-419.9016" font-family="Times,serif" font-size="10.00" fill="#000000">Operating Systems</text>
</g>
<!-- ECEC 353&#45;&gt;CS 370 -->
<g id="edge41" class="edge">
<title>ECEC 353&#45;&gt;CS 370</title>
<path fill="none" stroke="#000000" d="M2152.9611,-489.862C2175.4915,-478.6992 2203.5911,-464.777 2227.2468,-453.0567"/>
<polygon fill="#000000" stroke="#000000" points="2229.0022,-456.0931 2236.4088,-448.5173 2225.8945,-449.8207 2229.0022,-456.0931"/>
</g>
<!-- CS 377 -->
<g id="node57" class="node">
<title>CS 377</title>
<ellipse fill="none" stroke="#ffa500" cx="2105" cy="-428.9016" rx="75.8212" ry="22.7556"/>
<text text-anchor="start" x="2059.5" y="-430.7016" font-family="Times,serif" font-size="14.00" fill="#000000">CS 377 (3.0)</text>
<text text-anchor="start" x="2060.5" y="-419.9016" font-family="Times,serif" font-size="10.00" fill="#000000">Software Security</text>
</g>
<!-- ECEC 353&#45;&gt;CS 377 -->
<g id="edge42" class="edge">
<title>ECEC 353&#45;&gt;CS 377</title>
<path fill="none" stroke="#000000" d="M2110.0501,-487.5224C2109.3656,-479.5769 2108.582,-470.4808 2107.8395,-461.8623"/>
<polygon fill="#000000" stroke="#000000" points="2111.3092,-461.3587 2106.9637,-451.696 2104.335,-461.9596 2111.3092,-461.3587"/>
</g>
<!-- ECEC 355&#45;&gt;CS 361 -->
<g id="edge40" class="edge">
<title>ECEC 355&#45;&gt;CS 361</title>
<path fill="none" stroke="#000000" d="M1528.9054,-494.9173C1539.9656,-492.4426 1551.3006,-489.911 1562,-487.529 1623.3562,-473.869 1692.7269,-458.5254 1745.0982,-446.9621"/>
<polygon fill="#000000" stroke="#000000" points="1745.9951,-450.3485 1755.0055,-444.775 1744.4861,-443.5131 1745.9951,-450.3485"/>
</g>
<!-- ECEC 412 -->
<g id="node60" class="node">
<title>ECEC 412</title>
<ellipse fill="none" stroke="#ffa500" cx="1607" cy="-428.9016" rx="101.6471" ry="22.7556"/>
<text text-anchor="start" x="1550.5" y="-430.7016" font-family="Times,serif" font-size="14.00" fill="#000000">ECEC 412 (3.0)</text>
<text text-anchor="start" x="1543" y="-419.9016" font-family="Times,serif" font-size="10.00" fill="#000000">Modern Processor Design</text>
</g>
<!-- ECEC 355&#45;&gt;ECEC 412 -->
<g id="edge45" class="edge">
<title>ECEC 355&#45;&gt;ECEC 412</title>
<path fill="none" stroke="#000000" d="M1498.2197,-489.4422C1517.0486,-478.9631 1540.0967,-466.136 1560.1232,-454.9904"/>
<polygon fill="#000000" stroke="#000000" points="1562.0501,-457.9236 1569.086,-450.0022 1558.646,-451.807 1562.0501,-457.9236"/>
</g>
<!-- ECEC 413 -->
<g id="node63" class="node">
<title>ECEC 413</title>
<ellipse fill="none" stroke="#ffa500" cx="1052" cy="-347.6468" rx="148.4848" ry="22.7556"/>
<text text-anchor="start" x="995.5" y="-349.4468" font-family="Times,serif" font-size="14.00" fill="#000000">ECEC 413 (3.0)</text>
<text text-anchor="start" x="955" y="-338.6468" font-family="Times,serif" font-size="10.00" fill="#000000">Intro to Parallel Computer Architecture</text>
</g>
<!-- ECEC 355&#45;&gt;ECEC 413 -->
<g id="edge49" class="edge">
<title>ECEC 355&#45;&gt;ECEC 413</title>
<path fill="none" stroke="#000000" d="M1412.4762,-490.8763C1338.3604,-461.4275 1196.9479,-405.2395 1115.0008,-372.6791"/>
<polygon fill="#000000" stroke="#000000" points="1115.8963,-369.2688 1105.3106,-368.8289 1113.3115,-375.7741 1115.8963,-369.2688"/>
</g>
<!-- ECEC 414 -->
<g id="node64" class="node">
<title>ECEC 414</title>
<ellipse fill="none" stroke="#ffa500" cx="1334" cy="-347.6468" rx="115.0173" ry="22.7556"/>
<text text-anchor="start" x="1277.5" y="-349.4468" font-family="Times,serif" font-size="14.00" fill="#000000">ECEC 414 (3.0)</text>
<text text-anchor="start" x="1260.5" y="-338.6468" font-family="Times,serif" font-size="10.00" fill="#000000">High Performance Computing</text>
</g>
<!-- ECEC 355&#45;&gt;ECEC 414 -->
<g id="edge50" class="edge">
<title>ECEC 355&#45;&gt;ECEC 414</title>
<path fill="none" stroke="#000000" d="M1443.6075,-487.9009C1421.4069,-459.493 1382.8929,-410.2103 1357.9348,-378.2739"/>
<polygon fill="#000000" stroke="#000000" points="1360.5054,-375.8791 1351.59,-370.155 1354.9899,-380.1895 1360.5054,-375.8791"/>
</g>
<!-- ECEC&#45;T 480 -->
<g id="node77" class="node">
<title>ECEC&#45;T 480</title>
<ellipse fill="none" stroke="#ff0000" cx="1477" cy="-22.6274" rx="173.4827" ry="22.7556"/>
<text text-anchor="start" x="1413.5" y="-24.4274" font-family="Times,serif" font-size="14.00" fill="#000000">ECEC&#45;T 480 (3.0)</text>
<text text-anchor="start" x="1362.5" y="-13.6274" font-family="Times,serif" font-size="10.00" fill="#000000">ST: Advanced Topics in Computer Architecture</text>
</g>
<!-- ECEC 355&#45;&gt;ECEC&#45;T 480 -->
<g id="edge62" class="edge">
<title>ECEC 355&#45;&gt;ECEC&#45;T 480</title>
<path fill="none" stroke="#000000" d="M1464.6707,-487.3502C1469.3945,-455.973 1477,-397.6843 1477,-347.6468 1477,-347.6468 1477,-347.6468 1477,-185.1371 1477,-140.3978 1477,-88.7302 1477,-55.8838"/>
<polygon fill="#000000" stroke="#000000" points="1480.5001,-55.5033 1477,-45.5033 1473.5001,-55.5033 1480.5001,-55.5033"/>
</g>
<!-- PHIL 315 -->
<g id="node53" class="node">
<title>PHIL 315</title>
<ellipse fill="none" stroke="#006400" cx="3373" cy="-510.1564" rx="87.8629" ry="22.7556"/>
<text text-anchor="start" x="3319" y="-511.9564" font-family="Times,serif" font-size="14.00" fill="#000000">PHIL 315 (3.0)</text>
<text text-anchor="start" x="3326.5" y="-501.1564" font-family="Times,serif" font-size="10.00" fill="#000000">Engineering Ethics</text>
</g>
<!-- 4.2 -->
<g id="node61" class="node">
<title>4.2</title>
<text text-anchor="middle" x="45" y="-343.9468" font-family="Times,serif" font-size="14.00" fill="#000000">4.2 (17.0)</text>
</g>
<!-- 4.1&#45;&gt;4.2 -->
<!-- ECE 391 -->
<g id="node59" class="node">
<title>ECE 391</title>
<ellipse fill="none" stroke="#ffa500" cx="3162" cy="-428.9016" rx="114.6026" ry="22.7556"/>
<text text-anchor="start" x="3111" y="-430.7016" font-family="Times,serif" font-size="14.00" fill="#000000">ECE 391 (1.0)</text>
<text text-anchor="start" x="3089" y="-419.9016" font-family="Times,serif" font-size="10.00" fill="#000000">Intro to Engr Design Methods</text>
</g>
<!-- ECE 391&#45;&gt;ECE 491 -->
<g id="edge54" class="edge">
<title>ECE 391&#45;&gt;ECE 491</title>
<path fill="none" stroke="#000000" d="M3147.4002,-406.3053C3129.0636,-377.9256 3097.5192,-329.1039 3076.9624,-297.2879"/>
<polygon fill="#000000" stroke="#000000" points="3079.8425,-295.2962 3071.4758,-288.7963 3073.963,-299.095 3079.8425,-295.2962"/>
</g>
<!-- 5.1 -->
<g id="node67" class="node">
<title>5.1</title>
<text text-anchor="middle" x="45" y="-262.6919" font-family="Times,serif" font-size="14.00" fill="#000000">5.1 (2.0)</text>
</g>
<!-- 4.2&#45;&gt;5.1 -->
<!-- ECON 201 -->
<g id="node65" class="node">
<title>ECON 201</title>
<ellipse fill="none" stroke="#ffa500" cx="3304" cy="-347.6468" rx="113.6886" ry="22.7556"/>
<text text-anchor="start" x="3246" y="-349.4468" font-family="Times,serif" font-size="14.00" fill="#000000">ECON 201 (4.0)</text>
<text text-anchor="start" x="3231.5" y="-338.6468" font-family="Times,serif" font-size="10.00" fill="#000000">Principles of Microeconomics</text>
</g>
<!-- 5.2 -->
<g id="node69" class="node">
<title>5.2</title>
<text text-anchor="middle" x="45" y="-181.4371" font-family="Times,serif" font-size="14.00" fill="#000000">5.2 (2.0)</text>
</g>
<!-- 5.1&#45;&gt;5.2 -->
<!-- ECE 492 -->
<g id="node70" class="node">
<title>ECE 492</title>
<ellipse fill="none" stroke="#ffa500" cx="3057" cy="-185.1371" rx="94.5053" ry="22.7556"/>
<text text-anchor="start" x="3006" y="-186.9371" font-family="Times,serif" font-size="14.00" fill="#000000">ECE 492 (2.0)</text>
<text text-anchor="start" x="2998" y="-176.1371" font-family="Times,serif" font-size="10.00" fill="#000000">Senior Design Project II</text>
</g>
<!-- ECE 491&#45;&gt;ECE 492 -->
<g id="edge57" class="edge">
<title>ECE 491&#45;&gt;ECE 492</title>
<path fill="none" stroke="#000000" d="M3057,-243.7579C3057,-235.8124 3057,-226.7163 3057,-218.0978"/>
<polygon fill="#000000" stroke="#000000" points="3060.5001,-217.9315 3057,-207.9315 3053.5001,-217.9316 3060.5001,-217.9315"/>
</g>
<!-- 5.3 -->
<g id="node71" class="node">
<title>5.3</title>
<text text-anchor="middle" x="45" y="-100.1823" font-family="Times,serif" font-size="14.00" fill="#000000">5.3 (7.0)</text>
</g>
<!-- 5.2&#45;&gt;5.3 -->
<!-- ECE 493 -->
<g id="node72" class="node">
<title>ECE 493</title>
<ellipse fill="none" stroke="#ffa500" cx="3057" cy="-103.8823" rx="97.6615" ry="22.7556"/>
<text text-anchor="start" x="3006" y="-105.6823" font-family="Times,serif" font-size="14.00" fill="#000000">ECE 493 (4.0)</text>
<text text-anchor="start" x="2996" y="-94.8823" font-family="Times,serif" font-size="10.00" fill="#000000">Senior Design Project III</text>
</g>
<!-- ECE 492&#45;&gt;ECE 493 -->
<g id="edge59" class="edge">
<title>ECE 492&#45;&gt;ECE 493</title>
<path fill="none" stroke="#000000" d="M3057,-162.5031C3057,-154.5576 3057,-145.4615 3057,-136.843"/>
<polygon fill="#000000" stroke="#000000" points="3060.5001,-136.6767 3057,-126.6767 3053.5001,-136.6767 3060.5001,-136.6767"/>
</g>
<!-- &#45;1.0 -->
<g id="node74" class="node">
<title>&#45;1.0</title>
<text text-anchor="middle" x="45" y="-18.9274" font-family="Times,serif" font-size="14.00" fill="#000000">&#45;1.0 (10.0)</text>
</g>
<!-- 5.3&#45;&gt;&#45;1.0 -->
<!-- TEMP GenEd -->
<g id="node75" class="node">
<title>TEMP GenEd</title>
<ellipse fill="none" stroke="#ff0000" cx="1778" cy="-22.6274" rx="109.7032" ry="22.7556"/>
<text text-anchor="start" x="1710.5" y="-24.4274" font-family="Times,serif" font-size="14.00" fill="#000000">TEMP GenEd (4.0)</text>
<text text-anchor="start" x="1708.5" y="-13.6274" font-family="Times,serif" font-size="10.00" fill="#000000">General Education Electives</text>
</g>
<!-- TEMP COE -->
<g id="node76" class="node">
<title>TEMP COE</title>
<ellipse fill="none" stroke="#ff0000" cx="2007" cy="-22.6274" rx="101.6471" ry="22.7556"/>
<text text-anchor="start" x="1946.5" y="-24.4274" font-family="Times,serif" font-size="14.00" fill="#000000">TEMP COE (3.0)</text>
<text text-anchor="start" x="1943" y="-13.6274" font-family="Times,serif" font-size="10.00" fill="#000000">ECE/COE/BMES Electives</text>
</g>
</g>
</svg>
