<?xml version="1.0" encoding="UTF-8" standalone="no"?>
<!DOCTYPE svg PUBLIC "-//W3C//DTD SVG 1.1//EN"
 "http://www.w3.org/Graphics/SVG/1.1/DTD/svg11.dtd">
<!-- Generated by graphviz version 2.40.1 (20161225.0304)
 -->
<!-- Title: Classes Pages: 1 -->
<svg width="2106pt" height="1268pt"
 viewBox="0.00 0.00 2105.90 1268.00" xmlns="http://www.w3.org/2000/svg" xmlns:xlink="http://www.w3.org/1999/xlink">
<g id="graph0" class="graph" transform="scale(1 1) rotate(0) translate(4 1264)">
<title>Classes</title>
<polygon fill="#ffffff" stroke="transparent" points="-4,4 -4,-1264 2101.895,-1264 2101.895,4 -4,4"/>
<!-- freshman 1 (16.5) -->
<g id="node1" class="node">
<title>freshman 1 (16.5)</title>
<text text-anchor="middle" x="72" y="-1238.3" font-family="Times,serif" font-size="14.00" fill="#000000">freshman 1 (16.5)</text>
</g>
<!-- freshman 2 (19.5) -->
<g id="node2" class="node">
<title>freshman 2 (19.5)</title>
<text text-anchor="middle" x="72" y="-1166.3" font-family="Times,serif" font-size="14.00" fill="#000000">freshman 2 (19.5)</text>
</g>
<!-- freshman 1 (16.5)&#45;&gt;freshman 2 (19.5) -->
<g id="edge1" class="edge">
<title>freshman 1 (16.5)&#45;&gt;freshman 2 (19.5)</title>
<path fill="none" stroke="#000000" d="M72,-1223.8314C72,-1216.131 72,-1206.9743 72,-1198.4166"/>
<polygon fill="#000000" stroke="#000000" points="75.5001,-1198.4132 72,-1188.4133 68.5001,-1198.4133 75.5001,-1198.4132"/>
</g>
<!-- freshman 3 (17.5) -->
<g id="node3" class="node">
<title>freshman 3 (17.5)</title>
<text text-anchor="middle" x="72" y="-1094.3" font-family="Times,serif" font-size="14.00" fill="#000000">freshman 3 (17.5)</text>
</g>
<!-- freshman 2 (19.5)&#45;&gt;freshman 3 (17.5) -->
<g id="edge2" class="edge">
<title>freshman 2 (19.5)&#45;&gt;freshman 3 (17.5)</title>
<path fill="none" stroke="#000000" d="M72,-1151.8314C72,-1144.131 72,-1134.9743 72,-1126.4166"/>
<polygon fill="#000000" stroke="#000000" points="75.5001,-1126.4132 72,-1116.4133 68.5001,-1126.4133 75.5001,-1126.4132"/>
</g>
<!-- sophomore 1 (20) -->
<g id="node4" class="node">
<title>sophomore 1 (20)</title>
<text text-anchor="middle" x="72" y="-1022.3" font-family="Times,serif" font-size="14.00" fill="#000000">sophomore 1 (20)</text>
</g>
<!-- freshman 3 (17.5)&#45;&gt;sophomore 1 (20) -->
<g id="edge3" class="edge">
<title>freshman 3 (17.5)&#45;&gt;sophomore 1 (20)</title>
<path fill="none" stroke="#000000" d="M72,-1079.8314C72,-1072.131 72,-1062.9743 72,-1054.4166"/>
<polygon fill="#000000" stroke="#000000" points="75.5001,-1054.4132 72,-1044.4133 68.5001,-1054.4133 75.5001,-1054.4132"/>
</g>
<!-- sophomore 2 (20) -->
<g id="node5" class="node">
<title>sophomore 2 (20)</title>
<text text-anchor="middle" x="72" y="-950.3" font-family="Times,serif" font-size="14.00" fill="#000000">sophomore 2 (20)</text>
</g>
<!-- sophomore 1 (20)&#45;&gt;sophomore 2 (20) -->
<g id="edge4" class="edge">
<title>sophomore 1 (20)&#45;&gt;sophomore 2 (20)</title>
<path fill="none" stroke="#000000" d="M72,-1007.8314C72,-1000.131 72,-990.9743 72,-982.4166"/>
<polygon fill="#000000" stroke="#000000" points="75.5001,-982.4132 72,-972.4133 68.5001,-982.4133 75.5001,-982.4132"/>
</g>
<!-- COOP 1 -->
<g id="node6" class="node">
<title>COOP 1</title>
<text text-anchor="middle" x="72" y="-878.3" font-family="Times,serif" font-size="14.00" fill="#000000">COOP 1</text>
</g>
<!-- sophomore 2 (20)&#45;&gt;COOP 1 -->
<g id="edge5" class="edge">
<title>sophomore 2 (20)&#45;&gt;COOP 1</title>
<path fill="none" stroke="#000000" d="M72,-935.8314C72,-928.131 72,-918.9743 72,-910.4166"/>
<polygon fill="#000000" stroke="#000000" points="75.5001,-910.4132 72,-900.4133 68.5001,-910.4133 75.5001,-910.4132"/>
</g>
<!-- COOP 2 -->
<g id="node7" class="node">
<title>COOP 2</title>
<text text-anchor="middle" x="72" y="-806.3" font-family="Times,serif" font-size="14.00" fill="#000000">COOP 2</text>
</g>
<!-- COOP 1&#45;&gt;COOP 2 -->
<g id="edge6" class="edge">
<title>COOP 1&#45;&gt;COOP 2</title>
<path fill="none" stroke="#000000" d="M72,-863.8314C72,-856.131 72,-846.9743 72,-838.4166"/>
<polygon fill="#000000" stroke="#000000" points="75.5001,-838.4132 72,-828.4133 68.5001,-838.4133 75.5001,-838.4132"/>
</g>
<!-- pre&#45;junior 1 (17) -->
<g id="node8" class="node">
<title>pre&#45;junior 1 (17)</title>
<text text-anchor="middle" x="72" y="-734.3" font-family="Times,serif" font-size="14.00" fill="#000000">pre&#45;junior 1 (17)</text>
</g>
<!-- COOP 2&#45;&gt;pre&#45;junior 1 (17) -->
<g id="edge7" class="edge">
<title>COOP 2&#45;&gt;pre&#45;junior 1 (17)</title>
<path fill="none" stroke="#000000" d="M72,-791.8314C72,-784.131 72,-774.9743 72,-766.4166"/>
<polygon fill="#000000" stroke="#000000" points="75.5001,-766.4132 72,-756.4133 68.5001,-766.4133 75.5001,-766.4132"/>
</g>
<!-- pre&#45;junior 2 (20) -->
<g id="node9" class="node">
<title>pre&#45;junior 2 (20)</title>
<text text-anchor="middle" x="72" y="-662.3" font-family="Times,serif" font-size="14.00" fill="#000000">pre&#45;junior 2 (20)</text>
</g>
<!-- pre&#45;junior 1 (17)&#45;&gt;pre&#45;junior 2 (20) -->
<g id="edge8" class="edge">
<title>pre&#45;junior 1 (17)&#45;&gt;pre&#45;junior 2 (20)</title>
<path fill="none" stroke="#000000" d="M72,-719.8314C72,-712.131 72,-702.9743 72,-694.4166"/>
<polygon fill="#000000" stroke="#000000" points="75.5001,-694.4132 72,-684.4133 68.5001,-694.4133 75.5001,-694.4132"/>
</g>
<!-- COOP 3 -->
<g id="node10" class="node">
<title>COOP 3</title>
<text text-anchor="middle" x="72" y="-590.3" font-family="Times,serif" font-size="14.00" fill="#000000">COOP 3</text>
</g>
<!-- pre&#45;junior 2 (20)&#45;&gt;COOP 3 -->
<g id="edge9" class="edge">
<title>pre&#45;junior 2 (20)&#45;&gt;COOP 3</title>
<path fill="none" stroke="#000000" d="M72,-647.8314C72,-640.131 72,-630.9743 72,-622.4166"/>
<polygon fill="#000000" stroke="#000000" points="75.5001,-622.4132 72,-612.4133 68.5001,-622.4133 75.5001,-622.4132"/>
</g>
<!-- COOP 4 -->
<g id="node11" class="node">
<title>COOP 4</title>
<text text-anchor="middle" x="72" y="-518.3" font-family="Times,serif" font-size="14.00" fill="#000000">COOP 4</text>
</g>
<!-- COOP 3&#45;&gt;COOP 4 -->
<g id="edge10" class="edge">
<title>COOP 3&#45;&gt;COOP 4</title>
<path fill="none" stroke="#000000" d="M72,-575.8314C72,-568.131 72,-558.9743 72,-550.4166"/>
<polygon fill="#000000" stroke="#000000" points="75.5001,-550.4132 72,-540.4133 68.5001,-550.4133 75.5001,-550.4132"/>
</g>
<!-- junior 1 -->
<g id="node12" class="node">
<title>junior 1</title>
<text text-anchor="middle" x="72" y="-446.3" font-family="Times,serif" font-size="14.00" fill="#000000">junior 1</text>
</g>
<!-- COOP 4&#45;&gt;junior 1 -->
<g id="edge11" class="edge">
<title>COOP 4&#45;&gt;junior 1</title>
<path fill="none" stroke="#000000" d="M72,-503.8314C72,-496.131 72,-486.9743 72,-478.4166"/>
<polygon fill="#000000" stroke="#000000" points="75.5001,-478.4132 72,-468.4133 68.5001,-478.4133 75.5001,-478.4132"/>
</g>
<!-- junior 2 -->
<g id="node13" class="node">
<title>junior 2</title>
<text text-anchor="middle" x="72" y="-374.3" font-family="Times,serif" font-size="14.00" fill="#000000">junior 2</text>
</g>
<!-- junior 1&#45;&gt;junior 2 -->
<g id="edge12" class="edge">
<title>junior 1&#45;&gt;junior 2</title>
<path fill="none" stroke="#000000" d="M72,-431.8314C72,-424.131 72,-414.9743 72,-406.4166"/>
<polygon fill="#000000" stroke="#000000" points="75.5001,-406.4132 72,-396.4133 68.5001,-406.4133 75.5001,-406.4132"/>
</g>
<!-- COOP 5 -->
<g id="node14" class="node">
<title>COOP 5</title>
<text text-anchor="middle" x="72" y="-302.3" font-family="Times,serif" font-size="14.00" fill="#000000">COOP 5</text>
</g>
<!-- junior 2&#45;&gt;COOP 5 -->
<g id="edge13" class="edge">
<title>junior 2&#45;&gt;COOP 5</title>
<path fill="none" stroke="#000000" d="M72,-359.8314C72,-352.131 72,-342.9743 72,-334.4166"/>
<polygon fill="#000000" stroke="#000000" points="75.5001,-334.4132 72,-324.4133 68.5001,-334.4133 75.5001,-334.4132"/>
</g>
<!-- COOP 6 -->
<g id="node15" class="node">
<title>COOP 6</title>
<text text-anchor="middle" x="72" y="-230.3" font-family="Times,serif" font-size="14.00" fill="#000000">COOP 6</text>
</g>
<!-- COOP 5&#45;&gt;COOP 6 -->
<g id="edge14" class="edge">
<title>COOP 5&#45;&gt;COOP 6</title>
<path fill="none" stroke="#000000" d="M72,-287.8314C72,-280.131 72,-270.9743 72,-262.4166"/>
<polygon fill="#000000" stroke="#000000" points="75.5001,-262.4132 72,-252.4133 68.5001,-262.4133 75.5001,-262.4132"/>
</g>
<!-- senior 1 -->
<g id="node16" class="node">
<title>senior 1</title>
<text text-anchor="middle" x="72" y="-158.3" font-family="Times,serif" font-size="14.00" fill="#000000">senior 1</text>
</g>
<!-- COOP 6&#45;&gt;senior 1 -->
<g id="edge15" class="edge">
<title>COOP 6&#45;&gt;senior 1</title>
<path fill="none" stroke="#000000" d="M72,-215.8314C72,-208.131 72,-198.9743 72,-190.4166"/>
<polygon fill="#000000" stroke="#000000" points="75.5001,-190.4132 72,-180.4133 68.5001,-190.4133 75.5001,-190.4132"/>
</g>
<!-- senior 2 -->
<g id="node17" class="node">
<title>senior 2</title>
<text text-anchor="middle" x="72" y="-86.3" font-family="Times,serif" font-size="14.00" fill="#000000">senior 2</text>
</g>
<!-- senior 1&#45;&gt;senior 2 -->
<g id="edge16" class="edge">
<title>senior 1&#45;&gt;senior 2</title>
<path fill="none" stroke="#000000" d="M72,-143.8314C72,-136.131 72,-126.9743 72,-118.4166"/>
<polygon fill="#000000" stroke="#000000" points="75.5001,-118.4132 72,-108.4133 68.5001,-118.4133 75.5001,-118.4132"/>
</g>
<!-- senior 3 -->
<g id="node18" class="node">
<title>senior 3</title>
<text text-anchor="middle" x="72" y="-14.3" font-family="Times,serif" font-size="14.00" fill="#000000">senior 3</text>
</g>
<!-- senior 2&#45;&gt;senior 3 -->
<g id="edge17" class="edge">
<title>senior 2&#45;&gt;senior 3</title>
<path fill="none" stroke="#000000" d="M72,-71.8314C72,-64.131 72,-54.9743 72,-46.4166"/>
<polygon fill="#000000" stroke="#000000" points="75.5001,-46.4132 72,-36.4133 68.5001,-46.4133 75.5001,-46.4132"/>
</g>
<!-- UNIV 101 -->
<g id="node19" class="node">
<title>UNIV 101</title>
<ellipse fill="none" stroke="#00ff00" cx="220" cy="-1242" rx="57.6901" ry="18"/>
<text text-anchor="middle" x="220" y="-1238.3" font-family="Times,serif" font-size="14.00" fill="#000000">UNIV 101</text>
</g>
<!-- ENGL 101 -->
<g id="node20" class="node">
<title>ENGL 101</title>
<ellipse fill="none" stroke="#00ff00" cx="356" cy="-1242" rx="59.5901" ry="18"/>
<text text-anchor="middle" x="356" y="-1238.3" font-family="Times,serif" font-size="14.00" fill="#000000">ENGL 101</text>
</g>
<!-- ENGL 102 -->
<g id="node30" class="node">
<title>ENGL 102</title>
<ellipse fill="none" stroke="#00ff00" cx="356" cy="-1170" rx="59.5901" ry="18"/>
<text text-anchor="middle" x="356" y="-1166.3" font-family="Times,serif" font-size="14.00" fill="#000000">ENGL 102</text>
</g>
<!-- ENGL 101&#45;&gt;ENGL 102 -->
<g id="edge18" class="edge">
<title>ENGL 101&#45;&gt;ENGL 102</title>
<path fill="none" stroke="#000000" d="M356,-1223.8314C356,-1216.131 356,-1206.9743 356,-1198.4166"/>
<polygon fill="#000000" stroke="#000000" points="359.5001,-1198.4132 356,-1188.4133 352.5001,-1198.4133 359.5001,-1198.4132"/>
</g>
<!-- ENGR 100 -->
<g id="node21" class="node">
<title>ENGR 100</title>
<ellipse fill="none" stroke="#00ff00" cx="494" cy="-1242" rx="60.3893" ry="18"/>
<text text-anchor="middle" x="494" y="-1238.3" font-family="Times,serif" font-size="14.00" fill="#000000">ENGR 100</text>
</g>
<!-- CHEM 101 -->
<g id="node22" class="node">
<title>CHEM 101</title>
<ellipse fill="none" stroke="#00ff00" cx="929" cy="-1242" rx="63.0888" ry="18"/>
<text text-anchor="middle" x="929" y="-1238.3" font-family="Times,serif" font-size="14.00" fill="#000000">CHEM 101</text>
</g>
<!-- CHEM 102 -->
<g id="node31" class="node">
<title>CHEM 102</title>
<ellipse fill="none" stroke="#00ff00" cx="929" cy="-1170" rx="63.0888" ry="18"/>
<text text-anchor="middle" x="929" y="-1166.3" font-family="Times,serif" font-size="14.00" fill="#000000">CHEM 102</text>
</g>
<!-- CHEM 101&#45;&gt;CHEM 102 -->
<g id="edge21" class="edge">
<title>CHEM 101&#45;&gt;CHEM 102</title>
<path fill="none" stroke="#000000" d="M929,-1223.8314C929,-1216.131 929,-1206.9743 929,-1198.4166"/>
<polygon fill="#000000" stroke="#000000" points="932.5001,-1198.4132 929,-1188.4133 925.5001,-1198.4133 932.5001,-1198.4132"/>
</g>
<!-- ENGR 101 -->
<g id="node23" class="node">
<title>ENGR 101</title>
<ellipse fill="none" stroke="#00ff00" cx="1256" cy="-1242" rx="60.3893" ry="18"/>
<text text-anchor="middle" x="1256" y="-1238.3" font-family="Times,serif" font-size="14.00" fill="#000000">ENGR 101</text>
</g>
<!-- ENGR 102 -->
<g id="node32" class="node">
<title>ENGR 102</title>
<ellipse fill="none" stroke="#00ff00" cx="1256" cy="-1170" rx="60.3893" ry="18"/>
<text text-anchor="middle" x="1256" y="-1166.3" font-family="Times,serif" font-size="14.00" fill="#000000">ENGR 102</text>
</g>
<!-- ENGR 101&#45;&gt;ENGR 102 -->
<g id="edge28" class="edge">
<title>ENGR 101&#45;&gt;ENGR 102</title>
<path fill="none" stroke="#000000" d="M1256,-1223.8314C1256,-1216.131 1256,-1206.9743 1256,-1198.4166"/>
<polygon fill="#000000" stroke="#000000" points="1259.5001,-1198.4132 1256,-1188.4133 1252.5001,-1198.4133 1259.5001,-1198.4132"/>
</g>
<!-- ENGR 121 -->
<g id="node24" class="node">
<title>ENGR 121</title>
<ellipse fill="none" stroke="#00ff00" cx="633" cy="-1242" rx="60.3893" ry="18"/>
<text text-anchor="middle" x="633" y="-1238.3" font-family="Times,serif" font-size="14.00" fill="#000000">ENGR 121</text>
</g>
<!-- ENGR 231 -->
<g id="node44" class="node">
<title>ENGR 231</title>
<ellipse fill="none" stroke="#ffa500" cx="724" cy="-1026" rx="60.3893" ry="18"/>
<text text-anchor="middle" x="724" y="-1022.3" font-family="Times,serif" font-size="14.00" fill="#000000">ENGR 231</text>
</g>
<!-- ENGR 121&#45;&gt;ENGR 231 -->
<g id="edge39" class="edge">
<title>ENGR 121&#45;&gt;ENGR 231</title>
<path fill="none" stroke="#000000" d="M640.6021,-1223.9555C656.5271,-1186.1556 693.4768,-1098.4506 712.3906,-1053.5564"/>
<polygon fill="#000000" stroke="#000000" points="715.6985,-1054.7195 716.3556,-1044.1451 709.2476,-1052.0017 715.6985,-1054.7195"/>
</g>
<!-- ENGR 232 -->
<g id="node50" class="node">
<title>ENGR 232</title>
<ellipse fill="none" stroke="#000000" cx="724" cy="-954" rx="60.3893" ry="18"/>
<text text-anchor="middle" x="724" y="-950.3" font-family="Times,serif" font-size="14.00" fill="#000000">ENGR 232</text>
</g>
<!-- ENGR 121&#45;&gt;ENGR 232 -->
<g id="edge41" class="edge">
<title>ENGR 121&#45;&gt;ENGR 232</title>
<path fill="none" stroke="#000000" d="M630.1207,-1223.8963C624.4906,-1182.6638 615.7594,-1079.7874 655,-1008 662.104,-995.0038 673.7856,-984.082 685.535,-975.5366"/>
<polygon fill="#000000" stroke="#000000" points="687.7477,-978.2641 694.0379,-969.7386 683.8041,-972.4807 687.7477,-978.2641"/>
</g>
<!-- MATH 121 -->
<g id="node25" class="node">
<title>MATH 121</title>
<ellipse fill="none" stroke="#00ff00" cx="786" cy="-1242" rx="61.99" ry="18"/>
<text text-anchor="middle" x="786" y="-1238.3" font-family="Times,serif" font-size="14.00" fill="#000000">MATH 121</text>
</g>
<!-- MATH 122 -->
<g id="node34" class="node">
<title>MATH 122</title>
<ellipse fill="none" stroke="#00ff00" cx="786" cy="-1170" rx="61.99" ry="18"/>
<text text-anchor="middle" x="786" y="-1166.3" font-family="Times,serif" font-size="14.00" fill="#000000">MATH 122</text>
</g>
<!-- MATH 121&#45;&gt;MATH 122 -->
<g id="edge25" class="edge">
<title>MATH 121&#45;&gt;MATH 122</title>
<path fill="none" stroke="#000000" d="M786,-1223.8314C786,-1216.131 786,-1206.9743 786,-1198.4166"/>
<polygon fill="#000000" stroke="#000000" points="789.5001,-1198.4132 786,-1188.4133 782.5001,-1198.4133 789.5001,-1198.4132"/>
</g>
<!-- CS 190 -->
<g id="node26" class="node">
<title>CS 190</title>
<polygon fill="none" stroke="#00ff00" points="1398,-1260 1334.6562,-1242 1398,-1224 1461.3438,-1242 1398,-1260"/>
<text text-anchor="middle" x="1398" y="-1238.3" font-family="Times,serif" font-size="14.00" fill="#000000">CS 190</text>
</g>
<!-- TGFE 099 -->
<g id="node27" class="node">
<title>TGFE 099</title>
<polygon fill="none" stroke="#00ff00" points="1561,-1260 1479.3895,-1242 1561,-1224 1642.6105,-1242 1561,-1260"/>
<text text-anchor="middle" x="1561" y="-1238.3" font-family="Times,serif" font-size="14.00" fill="#000000">TGFE 099</text>
</g>
<!-- SPAN 101 -->
<g id="node28" class="node">
<title>SPAN 101</title>
<polygon fill="none" stroke="#00ff00" points="1794.5876,-1242 1761.2938,-1260 1694.7062,-1260 1661.4124,-1242 1694.7062,-1224 1761.2938,-1224 1794.5876,-1242"/>
<text text-anchor="middle" x="1728" y="-1238.3" font-family="Times,serif" font-size="14.00" fill="#000000">SPAN 101</text>
</g>
<!-- CIVC 101 -->
<g id="node29" class="node">
<title>CIVC 101</title>
<ellipse fill="none" stroke="#00ff00" cx="1391" cy="-1170" rx="56.59" ry="18"/>
<text text-anchor="middle" x="1391" y="-1166.3" font-family="Times,serif" font-size="14.00" fill="#000000">CIVC 101</text>
</g>
<!-- ENGL 103 -->
<g id="node36" class="node">
<title>ENGL 103</title>
<ellipse fill="none" stroke="#00ff00" cx="356" cy="-1098" rx="59.5901" ry="18"/>
<text text-anchor="middle" x="356" y="-1094.3" font-family="Times,serif" font-size="14.00" fill="#000000">ENGL 103</text>
</g>
<!-- ENGL 102&#45;&gt;ENGL 103 -->
<g id="edge19" class="edge">
<title>ENGL 102&#45;&gt;ENGL 103</title>
<path fill="none" stroke="#000000" d="M356,-1151.8314C356,-1144.131 356,-1134.9743 356,-1126.4166"/>
<polygon fill="#000000" stroke="#000000" points="359.5001,-1126.4132 356,-1116.4133 352.5001,-1126.4133 359.5001,-1126.4132"/>
</g>
<!-- ENGR 220 -->
<g id="node43" class="node">
<title>ENGR 220</title>
<ellipse fill="none" stroke="#ffa500" cx="911" cy="-1026" rx="60.3893" ry="18"/>
<text text-anchor="middle" x="911" y="-1022.3" font-family="Times,serif" font-size="14.00" fill="#000000">ENGR 220</text>
</g>
<!-- CHEM 102&#45;&gt;ENGR 220 -->
<g id="edge36" class="edge">
<title>CHEM 102&#45;&gt;ENGR 220</title>
<path fill="none" stroke="#000000" d="M926.7203,-1151.7623C923.6501,-1127.201 918.1559,-1083.2474 914.5443,-1054.3541"/>
<polygon fill="#000000" stroke="#000000" points="917.9746,-1053.5782 913.2612,-1044.0896 911.0287,-1054.4465 917.9746,-1053.5782"/>
</g>
<!-- ENGR 103 -->
<g id="node37" class="node">
<title>ENGR 103</title>
<ellipse fill="none" stroke="#00ff00" cx="1256" cy="-1098" rx="60.3893" ry="18"/>
<text text-anchor="middle" x="1256" y="-1094.3" font-family="Times,serif" font-size="14.00" fill="#000000">ENGR 103</text>
</g>
<!-- ENGR 102&#45;&gt;ENGR 103 -->
<g id="edge29" class="edge">
<title>ENGR 102&#45;&gt;ENGR 103</title>
<path fill="none" stroke="#000000" d="M1256,-1151.8314C1256,-1144.131 1256,-1134.9743 1256,-1126.4166"/>
<polygon fill="#000000" stroke="#000000" points="1259.5001,-1126.4132 1256,-1116.4133 1252.5001,-1126.4133 1259.5001,-1126.4132"/>
</g>
<!-- ENGR 122 -->
<g id="node33" class="node">
<title>ENGR 122</title>
<ellipse fill="none" stroke="#00ff00" cx="1526" cy="-1170" rx="60.3893" ry="18"/>
<text text-anchor="middle" x="1526" y="-1166.3" font-family="Times,serif" font-size="14.00" fill="#000000">ENGR 122</text>
</g>
<!-- MATH 200 -->
<g id="node41" class="node">
<title>MATH 200</title>
<ellipse fill="none" stroke="#00ff00" cx="792" cy="-1098" rx="61.99" ry="18"/>
<text text-anchor="middle" x="792" y="-1094.3" font-family="Times,serif" font-size="14.00" fill="#000000">MATH 200</text>
</g>
<!-- MATH 122&#45;&gt;MATH 200 -->
<g id="edge26" class="edge">
<title>MATH 122&#45;&gt;MATH 200</title>
<path fill="none" stroke="#000000" d="M787.5141,-1151.8314C788.1558,-1144.131 788.9188,-1134.9743 789.6319,-1126.4166"/>
<polygon fill="#000000" stroke="#000000" points="793.1229,-1126.6694 790.4656,-1116.4133 786.1471,-1126.088 793.1229,-1126.6694"/>
</g>
<!-- ENGR 201 -->
<g id="node42" class="node">
<title>ENGR 201</title>
<ellipse fill="none" stroke="#ffa500" cx="1168" cy="-1026" rx="60.3893" ry="18"/>
<text text-anchor="middle" x="1168" y="-1022.3" font-family="Times,serif" font-size="14.00" fill="#000000">ENGR 201</text>
</g>
<!-- MATH 122&#45;&gt;ENGR 201 -->
<g id="edge32" class="edge">
<title>MATH 122&#45;&gt;ENGR 201</title>
<path fill="none" stroke="#000000" d="M831.287,-1157.7467C839.7938,-1155.6649 848.6408,-1153.6471 857,-1152 968.8663,-1129.9585 1015.2255,-1177.8639 1111,-1116 1123.138,-1108.1597 1141.6947,-1076.3596 1154.3121,-1052.77"/>
<polygon fill="#000000" stroke="#000000" points="1157.4284,-1054.3637 1158.9938,-1043.8851 1151.2356,-1051.1004 1157.4284,-1054.3637"/>
</g>
<!-- MATH 122&#45;&gt;ENGR 220 -->
<g id="edge37" class="edge">
<title>MATH 122&#45;&gt;ENGR 220</title>
<path fill="none" stroke="#000000" d="M815.2261,-1154.0563C830.7968,-1144.5151 849.4721,-1131.2823 863,-1116 879.3921,-1097.4821 892.1844,-1072.3839 900.4262,-1053.396"/>
<polygon fill="#000000" stroke="#000000" points="903.6883,-1054.667 904.3162,-1044.0908 897.23,-1051.967 903.6883,-1054.667"/>
</g>
<!-- MATH 122&#45;&gt;ENGR 231 -->
<g id="edge40" class="edge">
<title>MATH 122&#45;&gt;ENGR 231</title>
<path fill="none" stroke="#000000" d="M756.7897,-1153.9659C743.2291,-1144.7986 728.4794,-1131.9373 721,-1116 711.9635,-1096.7446 713.3795,-1072.5355 716.6901,-1054.0768"/>
<polygon fill="#000000" stroke="#000000" points="720.1311,-1054.7203 718.7315,-1044.2184 713.2765,-1053.3009 720.1311,-1054.7203"/>
</g>
<!-- PHYS 101 -->
<g id="node35" class="node">
<title>PHYS 101</title>
<ellipse fill="none" stroke="#00ff00" cx="1069" cy="-1170" rx="58.4896" ry="18"/>
<text text-anchor="middle" x="1069" y="-1166.3" font-family="Times,serif" font-size="14.00" fill="#000000">PHYS 101</text>
</g>
<!-- PHYS 102 -->
<g id="node40" class="node">
<title>PHYS 102</title>
<ellipse fill="none" stroke="#00ff00" cx="1044" cy="-1098" rx="58.4896" ry="18"/>
<text text-anchor="middle" x="1044" y="-1094.3" font-family="Times,serif" font-size="14.00" fill="#000000">PHYS 102</text>
</g>
<!-- PHYS 101&#45;&gt;PHYS 102 -->
<g id="edge22" class="edge">
<title>PHYS 101&#45;&gt;PHYS 102</title>
<path fill="none" stroke="#000000" d="M1062.6914,-1151.8314C1059.9169,-1143.8406 1056.5979,-1134.2819 1053.5317,-1125.4514"/>
<polygon fill="#000000" stroke="#000000" points="1056.8065,-1124.2121 1050.2199,-1115.9134 1050.1938,-1126.5082 1056.8065,-1124.2121"/>
</g>
<!-- PHYS 101&#45;&gt;ENGR 201 -->
<g id="edge33" class="edge">
<title>PHYS 101&#45;&gt;ENGR 201</title>
<path fill="none" stroke="#000000" d="M1099.6245,-1154.5744C1115.0454,-1145.3473 1132.7968,-1132.2468 1144,-1116 1156.644,-1097.6638 1162.6297,-1073.0059 1165.4618,-1054.1365"/>
<polygon fill="#000000" stroke="#000000" points="1168.9538,-1054.4227 1166.7622,-1044.057 1162.0113,-1053.5269 1168.9538,-1054.4227"/>
</g>
<!-- PHYS 101&#45;&gt;ENGR 220 -->
<g id="edge38" class="edge">
<title>PHYS 101&#45;&gt;ENGR 220</title>
<path fill="none" stroke="#000000" d="M1036.1964,-1154.9149C1017.5952,-1145.3866 994.5952,-1131.8866 977,-1116 956.5148,-1097.5041 938.3928,-1071.7274 926.3463,-1052.4984"/>
<polygon fill="#000000" stroke="#000000" points="929.2976,-1050.6156 921.0947,-1043.91 923.3255,-1054.2674 929.2976,-1050.6156"/>
</g>
<!-- ENGR 103&#45;&gt;ENGR 201 -->
<g id="edge34" class="edge">
<title>ENGR 103&#45;&gt;ENGR 201</title>
<path fill="none" stroke="#000000" d="M1235.1452,-1080.937C1223.638,-1071.522 1209.1781,-1059.6912 1196.627,-1049.4221"/>
<polygon fill="#000000" stroke="#000000" points="1198.661,-1046.5641 1188.7051,-1042.9405 1194.2283,-1051.9818 1198.661,-1046.5641"/>
</g>
<!-- ECE 200 -->
<g id="node46" class="node">
<title>ECE 200</title>
<ellipse fill="none" stroke="#ffa500" cx="1455" cy="-1026" rx="51.9908" ry="18"/>
<text text-anchor="middle" x="1455" y="-1022.3" font-family="Times,serif" font-size="14.00" fill="#000000">ECE 200</text>
</g>
<!-- ENGR 103&#45;&gt;ECE 200 -->
<g id="edge30" class="edge">
<title>ENGR 103&#45;&gt;ECE 200</title>
<path fill="none" stroke="#000000" d="M1294.8416,-1083.9468C1327.7197,-1072.0512 1374.8865,-1054.9858 1409.5214,-1042.4546"/>
<polygon fill="#000000" stroke="#000000" points="1410.7229,-1045.742 1418.9356,-1039.0484 1408.3413,-1039.1595 1410.7229,-1045.742"/>
</g>
<!-- ECEL 301 -->
<g id="node57" class="node">
<title>ECEL 301</title>
<ellipse fill="none" stroke="#000000" cx="1256" cy="-738" rx="58.4896" ry="18"/>
<text text-anchor="middle" x="1256" y="-734.3" font-family="Times,serif" font-size="14.00" fill="#000000">ECEL 301</text>
</g>
<!-- ENGR 103&#45;&gt;ECEL 301 -->
<g id="edge64" class="edge">
<title>ENGR 103&#45;&gt;ECEL 301</title>
<path fill="none" stroke="#000000" d="M1256,-1079.8146C1256,-1052.4983 1256,-999.25 1256,-954 1256,-954 1256,-954 1256,-882 1256,-841.876 1256,-795.4631 1256,-766.4177"/>
<polygon fill="#000000" stroke="#000000" points="1259.5001,-766.1853 1256,-756.1854 1252.5001,-766.1854 1259.5001,-766.1853"/>
</g>
<!-- BIO 141 -->
<g id="node38" class="node">
<title>BIO 141</title>
<ellipse fill="none" stroke="#00ff00" cx="1384" cy="-1098" rx="50.0912" ry="18"/>
<text text-anchor="middle" x="1384" y="-1094.3" font-family="Times,serif" font-size="14.00" fill="#000000">BIO 141</text>
</g>
<!-- COOP 101 -->
<g id="node39" class="node">
<title>COOP 101</title>
<ellipse fill="none" stroke="#00ff00" cx="1512" cy="-1098" rx="60.3893" ry="18"/>
<text text-anchor="middle" x="1512" y="-1094.3" font-family="Times,serif" font-size="14.00" fill="#000000">COOP 101</text>
</g>
<!-- ECE 201 -->
<g id="node48" class="node">
<title>ECE 201</title>
<ellipse fill="none" stroke="#000000" cx="903" cy="-954" rx="51.9908" ry="18"/>
<text text-anchor="middle" x="903" y="-950.3" font-family="Times,serif" font-size="14.00" fill="#000000">ECE 201</text>
</g>
<!-- PHYS 102&#45;&gt;ECE 201 -->
<g id="edge24" class="edge">
<title>PHYS 102&#45;&gt;ECE 201</title>
<path fill="none" stroke="#000000" d="M1033.7867,-1080.0701C1022.2984,-1060.8642 1002.3065,-1030.161 980,-1008 967.6476,-995.7282 952.2248,-984.31 938.4332,-975.1637"/>
<polygon fill="#000000" stroke="#000000" points="939.9538,-971.9794 929.6543,-969.4952 936.1566,-977.86 939.9538,-971.9794"/>
</g>
<!-- PHYS 201 -->
<g id="node52" class="node">
<title>PHYS 201</title>
<ellipse fill="none" stroke="#000000" cx="1031" cy="-954" rx="58.4896" ry="18"/>
<text text-anchor="middle" x="1031" y="-950.3" font-family="Times,serif" font-size="14.00" fill="#000000">PHYS 201</text>
</g>
<!-- PHYS 102&#45;&gt;PHYS 201 -->
<g id="edge23" class="edge">
<title>PHYS 102&#45;&gt;PHYS 201</title>
<path fill="none" stroke="#000000" d="M1042.3535,-1079.7623C1040.1362,-1055.201 1036.1682,-1011.2474 1033.5597,-982.3541"/>
<polygon fill="#000000" stroke="#000000" points="1037.0181,-981.7344 1032.6331,-972.0896 1030.0465,-982.3638 1037.0181,-981.7344"/>
</g>
<!-- MATH 200&#45;&gt;ENGR 231 -->
<g id="edge27" class="edge">
<title>MATH 200&#45;&gt;ENGR 231</title>
<path fill="none" stroke="#000000" d="M775.5391,-1080.5708C767.165,-1071.7041 756.8362,-1060.7678 747.6294,-1051.0194"/>
<polygon fill="#000000" stroke="#000000" points="749.9558,-1048.3852 740.545,-1043.5182 744.8667,-1053.1916 749.9558,-1048.3852"/>
</g>
<!-- ENGR 202 -->
<g id="node49" class="node">
<title>ENGR 202</title>
<ellipse fill="none" stroke="#000000" cx="1168" cy="-954" rx="60.3893" ry="18"/>
<text text-anchor="middle" x="1168" y="-950.3" font-family="Times,serif" font-size="14.00" fill="#000000">ENGR 202</text>
</g>
<!-- ENGR 201&#45;&gt;ENGR 202 -->
<g id="edge35" class="edge">
<title>ENGR 201&#45;&gt;ENGR 202</title>
<path fill="none" stroke="#000000" d="M1168,-1007.8314C1168,-1000.131 1168,-990.9743 1168,-982.4166"/>
<polygon fill="#000000" stroke="#000000" points="1171.5001,-982.4132 1168,-972.4133 1164.5001,-982.4133 1171.5001,-982.4132"/>
</g>
<!-- ENGR 231&#45;&gt;ENGR 232 -->
<g id="edge42" class="edge">
<title>ENGR 231&#45;&gt;ENGR 232</title>
<path fill="none" stroke="#000000" d="M724,-1007.8314C724,-1000.131 724,-990.9743 724,-982.4166"/>
<polygon fill="#000000" stroke="#000000" points="727.5001,-982.4132 724,-972.4133 720.5001,-982.4133 727.5001,-982.4132"/>
</g>
<!-- ECE 361 -->
<g id="node58" class="node">
<title>ECE 361</title>
<ellipse fill="none" stroke="#000000" cx="921" cy="-738" rx="51.9908" ry="18"/>
<text text-anchor="middle" x="921" y="-734.3" font-family="Times,serif" font-size="14.00" fill="#000000">ECE 361</text>
</g>
<!-- ENGR 231&#45;&gt;ECE 361 -->
<g id="edge46" class="edge">
<title>ENGR 231&#45;&gt;ECE 361</title>
<path fill="none" stroke="#000000" d="M749.715,-1009.6731C763.6903,-999.924 780.5992,-986.6143 793,-972 849.1029,-905.8832 891.6178,-811.2872 910.4047,-765.2531"/>
<polygon fill="#000000" stroke="#000000" points="913.6682,-766.5183 914.1529,-755.9346 907.1739,-763.906 913.6682,-766.5183"/>
</g>
<!-- ECE 203 -->
<g id="node45" class="node">
<title>ECE 203</title>
<ellipse fill="none" stroke="#ffa500" cx="1718" cy="-1026" rx="51.9908" ry="18"/>
<text text-anchor="middle" x="1718" y="-1022.3" font-family="Times,serif" font-size="14.00" fill="#000000">ECE 203</text>
</g>
<!-- ECEC 301 -->
<g id="node53" class="node">
<title>ECEC 301</title>
<ellipse fill="none" stroke="#000000" cx="1877" cy="-954" rx="59.5901" ry="18"/>
<text text-anchor="middle" x="1877" y="-950.3" font-family="Times,serif" font-size="14.00" fill="#000000">ECEC 301</text>
</g>
<!-- ECE 203&#45;&gt;ECEC 301 -->
<g id="edge43" class="edge">
<title>ECE 203&#45;&gt;ECEC 301</title>
<path fill="none" stroke="#000000" d="M1749.7939,-1011.6028C1774.0886,-1000.6014 1807.8155,-985.3288 1834.4371,-973.2738"/>
<polygon fill="#000000" stroke="#000000" points="1836.2271,-976.3054 1843.8929,-968.9919 1833.3395,-969.9287 1836.2271,-976.3054"/>
</g>
<!-- ECEC 302 -->
<g id="node56" class="node">
<title>ECEC 302</title>
<ellipse fill="none" stroke="#000000" cx="1562" cy="-738" rx="59.5901" ry="18"/>
<text text-anchor="middle" x="1562" y="-734.3" font-family="Times,serif" font-size="14.00" fill="#000000">ECEC 302</text>
</g>
<!-- ECE 203&#45;&gt;ECEC 302 -->
<g id="edge52" class="edge">
<title>ECE 203&#45;&gt;ECEC 302</title>
<path fill="none" stroke="#000000" d="M1702.2164,-1008.8048C1693.2886,-998.5731 1682.2886,-985.0731 1674,-972 1629.2703,-901.4505 1590.5649,-810.3001 1572.6334,-765.4313"/>
<polygon fill="#000000" stroke="#000000" points="1575.8639,-764.0828 1568.9277,-756.0741 1569.3557,-766.6603 1575.8639,-764.0828"/>
</g>
<!-- ECEC 357 -->
<g id="node59" class="node">
<title>ECEC 357</title>
<ellipse fill="none" stroke="#000000" cx="1776" cy="-738" rx="59.5901" ry="18"/>
<text text-anchor="middle" x="1776" y="-734.3" font-family="Times,serif" font-size="14.00" fill="#000000">ECEC 357</text>
</g>
<!-- ECE 203&#45;&gt;ECEC 357 -->
<g id="edge62" class="edge">
<title>ECE 203&#45;&gt;ECEC 357</title>
<path fill="none" stroke="#000000" d="M1721.6282,-1007.9843C1731.4339,-959.2939 1758.5202,-824.7961 1770.3496,-766.0573"/>
<polygon fill="#000000" stroke="#000000" points="1773.83,-766.5031 1772.3732,-756.0089 1766.9678,-765.121 1773.83,-766.5031"/>
</g>
<!-- ECEC 304 -->
<g id="node61" class="node">
<title>ECEC 304</title>
<ellipse fill="none" stroke="#000000" cx="1652" cy="-666" rx="59.5901" ry="18"/>
<text text-anchor="middle" x="1652" y="-662.3" font-family="Times,serif" font-size="14.00" fill="#000000">ECEC 304</text>
</g>
<!-- ECE 203&#45;&gt;ECEC 304 -->
<g id="edge54" class="edge">
<title>ECE 203&#45;&gt;ECEC 304</title>
<path fill="none" stroke="#000000" d="M1711.784,-1008.0648C1702.9968,-981.0676 1688,-928.2216 1688,-882 1688,-882 1688,-882 1688,-810 1688,-768.5072 1673.7584,-722.2433 1663.1902,-693.6245"/>
<polygon fill="#000000" stroke="#000000" points="1666.4605,-692.3773 1659.6347,-684.2743 1659.9176,-694.8654 1666.4605,-692.3773"/>
</g>
<!-- MATH 221 -->
<g id="node51" class="node">
<title>MATH 221</title>
<ellipse fill="none" stroke="#000000" cx="1346" cy="-954" rx="61.99" ry="18"/>
<text text-anchor="middle" x="1346" y="-950.3" font-family="Times,serif" font-size="14.00" fill="#000000">MATH 221</text>
</g>
<!-- ECE 200&#45;&gt;MATH 221 -->
<g id="edge31" class="edge">
<title>ECE 200&#45;&gt;MATH 221</title>
<path fill="none" stroke="#000000" d="M1430.8094,-1010.0209C1415.8861,-1000.1633 1396.5172,-987.3692 1380.0576,-976.4967"/>
<polygon fill="#000000" stroke="#000000" points="1381.5324,-973.2763 1371.2593,-970.6851 1377.6742,-979.1171 1381.5324,-973.2763"/>
</g>
<!-- ECE 200&#45;&gt;ECEC 302 -->
<g id="edge53" class="edge">
<title>ECE 200&#45;&gt;ECEC 302</title>
<path fill="none" stroke="#000000" d="M1467.4473,-1008.1135C1474.1776,-997.8765 1482.2615,-984.5982 1488,-972 1520.5388,-900.5648 1544.5688,-810.7585 1555.485,-766.0187"/>
<polygon fill="#000000" stroke="#000000" points="1558.9206,-766.7013 1557.8552,-756.1601 1552.1145,-765.0649 1558.9206,-766.7013"/>
</g>
<!-- ECE 200&#45;&gt;ECEL 301 -->
<g id="edge65" class="edge">
<title>ECE 200&#45;&gt;ECEL 301</title>
<path fill="none" stroke="#000000" d="M1449.1167,-1008.0339C1442.6105,-989.3359 1431.1526,-959.551 1417,-936 1376.265,-868.2138 1314.0613,-798.6941 1280.1323,-762.8145"/>
<polygon fill="#000000" stroke="#000000" points="1282.3728,-760.0921 1272.9408,-755.2663 1277.3047,-764.9207 1282.3728,-760.0921"/>
</g>
<!-- ECE 200&#45;&gt;ECEC 304 -->
<g id="edge55" class="edge">
<title>ECE 200&#45;&gt;ECEC 304</title>
<path fill="none" stroke="#000000" d="M1474.699,-1009.2065C1485.8487,-999.1087 1499.5987,-985.6087 1510,-972 1576.8202,-884.5751 1591.2162,-858.5929 1631,-756 1638.8073,-735.8669 1644.2097,-712.0278 1647.5781,-693.944"/>
<polygon fill="#000000" stroke="#000000" points="1651.0358,-694.4896 1649.3291,-684.0331 1644.1426,-693.2717 1651.0358,-694.4896"/>
</g>
<!-- ECEC 355 -->
<g id="node62" class="node">
<title>ECEC 355</title>
<ellipse fill="none" stroke="#000000" cx="1514" cy="-666" rx="59.5901" ry="18"/>
<text text-anchor="middle" x="1514" y="-662.3" font-family="Times,serif" font-size="14.00" fill="#000000">ECEC 355</text>
</g>
<!-- ECE 200&#45;&gt;ECEC 355 -->
<g id="edge57" class="edge">
<title>ECE 200&#45;&gt;ECEC 355</title>
<path fill="none" stroke="#000000" d="M1458.9368,-1007.9156C1464.502,-980.7281 1474,-927.6422 1474,-882 1474,-882 1474,-882 1474,-810 1474,-768.2219 1489.824,-722.0316 1501.5664,-693.5067"/>
<polygon fill="#000000" stroke="#000000" points="1504.8354,-694.7629 1505.517,-684.19 1498.3908,-692.0301 1504.8354,-694.7629"/>
</g>
<!-- PHIL 111 -->
<g id="node47" class="node">
<title>PHIL 111</title>
<polygon fill="none" stroke="#ffa500" points="2045.5841,-1026 2013.292,-1044 1948.708,-1044 1916.4159,-1026 1948.708,-1008 2013.292,-1008 2045.5841,-1026"/>
<text text-anchor="middle" x="1981" y="-1022.3" font-family="Times,serif" font-size="14.00" fill="#000000">PHIL 111</text>
</g>
<!-- PHIL 207 -->
<g id="node54" class="node">
<title>PHIL 207</title>
<polygon fill="none" stroke="#000000" points="2045.5841,-882 2013.292,-900 1948.708,-900 1916.4159,-882 1948.708,-864 2013.292,-864 2045.5841,-882"/>
<text text-anchor="middle" x="1981" y="-878.3" font-family="Times,serif" font-size="14.00" fill="#000000">PHIL 207</text>
</g>
<!-- PHIL 111&#45;&gt;PHIL 207 -->
<g id="edge20" class="edge">
<title>PHIL 111&#45;&gt;PHIL 207</title>
<path fill="none" stroke="#000000" d="M1981,-1007.7623C1981,-983.201 1981,-939.2474 1981,-910.3541"/>
<polygon fill="#000000" stroke="#000000" points="1984.5001,-910.0896 1981,-900.0896 1977.5001,-910.0897 1984.5001,-910.0896"/>
</g>
<!-- ECE 201&#45;&gt;ECEL 301 -->
<g id="edge66" class="edge">
<title>ECE 201&#45;&gt;ECEL 301</title>
<path fill="none" stroke="#000000" d="M928.6712,-938.2918C990.8996,-900.2144 1149.8803,-802.9345 1220.8574,-759.5037"/>
<polygon fill="#000000" stroke="#000000" points="1222.764,-762.4403 1229.4671,-754.2355 1219.1104,-756.4694 1222.764,-762.4403"/>
</g>
<!-- ECES 301 -->
<g id="node64" class="node">
<title>ECES 301</title>
<ellipse fill="none" stroke="#000000" cx="792" cy="-666" rx="58.4896" ry="18"/>
<text text-anchor="middle" x="792" y="-662.3" font-family="Times,serif" font-size="14.00" fill="#000000">ECES 301</text>
</g>
<!-- ECE 201&#45;&gt;ECES 301 -->
<g id="edge69" class="edge">
<title>ECE 201&#45;&gt;ECES 301</title>
<path fill="none" stroke="#000000" d="M896.0565,-935.9843C877.2514,-887.1929 825.2374,-752.2377 802.6732,-693.6927"/>
<polygon fill="#000000" stroke="#000000" points="805.8031,-692.0811 798.9409,-684.0089 799.2715,-694.5986 805.8031,-692.0811"/>
</g>
<!-- ENGR 202&#45;&gt;ECE 361 -->
<g id="edge47" class="edge">
<title>ENGR 202&#45;&gt;ECE 361</title>
<path fill="none" stroke="#000000" d="M1148.2045,-936.6889C1104.1778,-898.1879 998.0972,-805.421 948.0276,-761.6355"/>
<polygon fill="#000000" stroke="#000000" points="950.0383,-758.7443 940.2066,-754.7961 945.4303,-764.0137 950.0383,-758.7443"/>
</g>
<!-- ENGR 232&#45;&gt;ECES 301 -->
<g id="edge70" class="edge">
<title>ENGR 232&#45;&gt;ECES 301</title>
<path fill="none" stroke="#000000" d="M728.2537,-935.9843C739.75,-887.2939 771.5065,-752.7961 785.3754,-694.0573"/>
<polygon fill="#000000" stroke="#000000" points="788.8562,-694.5456 787.7479,-684.0089 782.0436,-692.937 788.8562,-694.5456"/>
</g>
<!-- CS 265 -->
<g id="node55" class="node">
<title>CS 265</title>
<ellipse fill="none" stroke="#000000" cx="1899" cy="-738" rx="44.6926" ry="18"/>
<text text-anchor="middle" x="1899" y="-734.3" font-family="Times,serif" font-size="14.00" fill="#000000">CS 265</text>
</g>
<!-- ECEC 301&#45;&gt;CS 265 -->
<g id="edge44" class="edge">
<title>ECEC 301&#45;&gt;CS 265</title>
<path fill="none" stroke="#000000" d="M1878.8379,-935.9555C1882.6717,-898.3144 1891.5458,-811.1867 1896.1355,-766.1246"/>
<polygon fill="#000000" stroke="#000000" points="1899.6205,-766.4483 1897.1519,-756.1451 1892.6565,-765.7389 1899.6205,-766.4483"/>
</g>
<!-- CS 260 -->
<g id="node60" class="node">
<title>CS 260</title>
<ellipse fill="none" stroke="#000000" cx="1885" cy="-666" rx="44.6926" ry="18"/>
<text text-anchor="middle" x="1885" y="-662.3" font-family="Times,serif" font-size="14.00" fill="#000000">CS 260</text>
</g>
<!-- CS 265&#45;&gt;CS 260 -->
<g id="edge45" class="edge">
<title>CS 265&#45;&gt;CS 260</title>
<path fill="none" stroke="#000000" d="M1895.4672,-719.8314C1893.9699,-712.131 1892.1895,-702.9743 1890.5255,-694.4166"/>
<polygon fill="#000000" stroke="#000000" points="1893.9248,-693.5614 1888.5804,-684.4133 1887.0535,-694.8975 1893.9248,-693.5614"/>
</g>
<!-- ECEC 353 -->
<g id="node67" class="node">
<title>ECEC 353</title>
<ellipse fill="none" stroke="#000000" cx="1958" cy="-450" rx="59.5901" ry="18"/>
<text text-anchor="middle" x="1958" y="-446.3" font-family="Times,serif" font-size="14.00" fill="#000000">ECEC 353</text>
</g>
<!-- CS 265&#45;&gt;ECEC 353 -->
<g id="edge56" class="edge">
<title>CS 265&#45;&gt;ECEC 353</title>
<path fill="none" stroke="#000000" d="M1915.4701,-721.0135C1924.0606,-711.0581 1933.8313,-697.7616 1939,-684 1965.4124,-613.6767 1963.6422,-523.3258 1960.5789,-478.2337"/>
<polygon fill="#000000" stroke="#000000" points="1964.0523,-477.7479 1959.8099,-468.0395 1957.0722,-478.2745 1964.0523,-477.7479"/>
</g>
<!-- ECEC 302&#45;&gt;ECEC 355 -->
<g id="edge58" class="edge">
<title>ECEC 302&#45;&gt;ECEC 355</title>
<path fill="none" stroke="#000000" d="M1550.1348,-720.2022C1544.5386,-711.8079 1537.7478,-701.6218 1531.5706,-692.3558"/>
<polygon fill="#000000" stroke="#000000" points="1534.3543,-690.2216 1525.895,-683.8425 1528.5299,-694.1045 1534.3543,-690.2216"/>
</g>
<!-- ECEL 302 -->
<g id="node63" class="node">
<title>ECEL 302</title>
<ellipse fill="none" stroke="#000000" cx="1256" cy="-666" rx="58.4896" ry="18"/>
<text text-anchor="middle" x="1256" y="-662.3" font-family="Times,serif" font-size="14.00" fill="#000000">ECEL 302</text>
</g>
<!-- ECEL 301&#45;&gt;ECEL 302 -->
<g id="edge67" class="edge">
<title>ECEL 301&#45;&gt;ECEL 302</title>
<path fill="none" stroke="#000000" d="M1256,-719.8314C1256,-712.131 1256,-702.9743 1256,-694.4166"/>
<polygon fill="#000000" stroke="#000000" points="1259.5001,-694.4132 1256,-684.4133 1252.5001,-694.4133 1259.5001,-694.4132"/>
</g>
<!-- ECE 491 -->
<g id="node74" class="node">
<title>ECE 491</title>
<ellipse fill="none" stroke="#000000" cx="961" cy="-162" rx="51.9908" ry="18"/>
<text text-anchor="middle" x="961" y="-158.3" font-family="Times,serif" font-size="14.00" fill="#000000">ECE 491</text>
</g>
<!-- ECE 361&#45;&gt;ECE 491 -->
<g id="edge48" class="edge">
<title>ECE 361&#45;&gt;ECE 491</title>
<path fill="none" stroke="#000000" d="M921,-719.8146C921,-692.4983 921,-639.25 921,-594 921,-594 921,-594 921,-306 921,-264.2219 936.824,-218.0316 948.5664,-189.5067"/>
<polygon fill="#000000" stroke="#000000" points="951.8354,-190.7629 952.517,-180.19 945.3908,-188.0301 951.8354,-190.7629"/>
</g>
<!-- ECEC 432 -->
<g id="node65" class="node">
<title>ECEC 432</title>
<polygon fill="none" stroke="#000000" points="1822,-684 1730,-684 1730,-648 1822,-648 1822,-684"/>
<text text-anchor="middle" x="1776" y="-662.3" font-family="Times,serif" font-size="14.00" fill="#000000">ECEC 432</text>
</g>
<!-- ECEC 357&#45;&gt;ECEC 432 -->
<g id="edge63" class="edge">
<title>ECEC 357&#45;&gt;ECEC 432</title>
<path fill="none" stroke="#000000" d="M1776,-719.8314C1776,-712.131 1776,-702.9743 1776,-694.4166"/>
<polygon fill="#000000" stroke="#000000" points="1779.5001,-694.4132 1776,-684.4133 1772.5001,-694.4133 1779.5001,-694.4132"/>
</g>
<!-- CS 361 -->
<g id="node70" class="node">
<title>CS 361</title>
<polygon fill="none" stroke="#000000" points="1801.5,-468 1732.5,-468 1732.5,-432 1801.5,-432 1801.5,-468"/>
<text text-anchor="middle" x="1767" y="-446.3" font-family="Times,serif" font-size="14.00" fill="#000000">CS 361</text>
</g>
<!-- CS 260&#45;&gt;CS 361 -->
<g id="edge72" class="edge">
<title>CS 260&#45;&gt;CS 361</title>
<path fill="none" stroke="#000000" d="M1875.3436,-648.3238C1854.7372,-610.6036 1806.3401,-522.0123 1781.8101,-477.11"/>
<polygon fill="#000000" stroke="#000000" points="1784.8224,-475.3234 1776.9565,-468.2255 1778.6793,-478.6794 1784.8224,-475.3234"/>
</g>
<!-- ECEC 413 -->
<g id="node69" class="node">
<title>ECEC 413</title>
<polygon fill="none" stroke="#000000" points="1634,-468 1542,-468 1542,-432 1634,-432 1634,-468"/>
<text text-anchor="middle" x="1588" y="-446.3" font-family="Times,serif" font-size="14.00" fill="#000000">ECEC 413</text>
</g>
<!-- ECEC 355&#45;&gt;ECEC 413 -->
<g id="edge59" class="edge">
<title>ECEC 355&#45;&gt;ECEC 413</title>
<path fill="none" stroke="#000000" d="M1520.1819,-647.9555C1533.1047,-610.235 1563.0528,-522.8188 1578.4623,-477.8399"/>
<polygon fill="#000000" stroke="#000000" points="1581.8536,-478.7397 1581.7836,-468.1451 1575.2315,-476.4709 1581.8536,-478.7397"/>
</g>
<!-- ECEC 355&#45;&gt;CS 361 -->
<g id="edge73" class="edge">
<title>ECEC 355&#45;&gt;CS 361</title>
<path fill="none" stroke="#000000" d="M1534.2764,-648.6889C1578.909,-610.5836 1685.803,-519.3223 1737.7163,-475.0011"/>
<polygon fill="#000000" stroke="#000000" points="1740.2254,-477.4611 1745.5581,-468.3061 1735.6802,-472.1374 1740.2254,-477.4611"/>
</g>
<!-- ECEC 414 -->
<g id="node73" class="node">
<title>ECEC 414</title>
<polygon fill="none" stroke="#000000" points="1486,-396 1394,-396 1394,-360 1486,-360 1486,-396"/>
<text text-anchor="middle" x="1440" y="-374.3" font-family="Times,serif" font-size="14.00" fill="#000000">ECEC 414</text>
</g>
<!-- ECEC 355&#45;&gt;ECEC 414 -->
<g id="edge60" class="edge">
<title>ECEC 355&#45;&gt;ECEC 414</title>
<path fill="none" stroke="#000000" d="M1509.3213,-648.0031C1506.5951,-637.5041 1503.0951,-624.0041 1500,-612 1480.8468,-537.7151 1458.4318,-450.1196 1447.1948,-406.1606"/>
<polygon fill="#000000" stroke="#000000" points="1450.5186,-405.0308 1444.6513,-396.209 1443.7366,-406.7642 1450.5186,-405.0308"/>
</g>
<!-- ECEC 457 -->
<g id="node75" class="node">
<title>ECEC 457</title>
<polygon fill="none" stroke="#000000" points="1560,-180 1468,-180 1468,-144 1560,-144 1560,-180"/>
<text text-anchor="middle" x="1514" y="-158.3" font-family="Times,serif" font-size="14.00" fill="#000000">ECEC 457</text>
</g>
<!-- ECEC 355&#45;&gt;ECEC 457 -->
<g id="edge61" class="edge">
<title>ECEC 355&#45;&gt;ECEC 457</title>
<path fill="none" stroke="#000000" d="M1514,-647.8146C1514,-620.4983 1514,-567.25 1514,-522 1514,-522 1514,-522 1514,-306 1514,-265.876 1514,-219.4631 1514,-190.4177"/>
<polygon fill="#000000" stroke="#000000" points="1517.5001,-190.1853 1514,-180.1854 1510.5001,-190.1854 1517.5001,-190.1853"/>
</g>
<!-- ECEL 303 -->
<g id="node68" class="node">
<title>ECEL 303</title>
<ellipse fill="none" stroke="#000000" cx="1256" cy="-450" rx="58.4896" ry="18"/>
<text text-anchor="middle" x="1256" y="-446.3" font-family="Times,serif" font-size="14.00" fill="#000000">ECEL 303</text>
</g>
<!-- ECEL 302&#45;&gt;ECEL 303 -->
<g id="edge68" class="edge">
<title>ECEL 302&#45;&gt;ECEL 303</title>
<path fill="none" stroke="#000000" d="M1256,-647.9555C1256,-610.3938 1256,-523.5541 1256,-478.4103"/>
<polygon fill="#000000" stroke="#000000" points="1259.5001,-478.145 1256,-468.1451 1252.5001,-478.1451 1259.5001,-478.145"/>
</g>
<!-- PHIL 315 -->
<g id="node66" class="node">
<title>PHIL 315</title>
<ellipse fill="none" stroke="#000000" cx="2042" cy="-594" rx="55.7903" ry="18"/>
<text text-anchor="middle" x="2042" y="-590.3" font-family="Times,serif" font-size="14.00" fill="#000000">PHIL 315</text>
</g>
<!-- CS 377 -->
<g id="node71" class="node">
<title>CS 377</title>
<polygon fill="none" stroke="#000000" points="1992.5,-396 1923.5,-396 1923.5,-360 1992.5,-360 1992.5,-396"/>
<text text-anchor="middle" x="1958" y="-374.3" font-family="Times,serif" font-size="14.00" fill="#000000">CS 377</text>
</g>
<!-- ECEC 353&#45;&gt;CS 377 -->
<g id="edge71" class="edge">
<title>ECEC 353&#45;&gt;CS 377</title>
<path fill="none" stroke="#000000" d="M1958,-431.8314C1958,-424.131 1958,-414.9743 1958,-406.4166"/>
<polygon fill="#000000" stroke="#000000" points="1961.5001,-406.4132 1958,-396.4133 1954.5001,-406.4133 1961.5001,-406.4132"/>
</g>
<!-- ECE 391 -->
<g id="node72" class="node">
<title>ECE 391</title>
<ellipse fill="none" stroke="#000000" cx="1001" cy="-378" rx="51.9908" ry="18"/>
<text text-anchor="middle" x="1001" y="-374.3" font-family="Times,serif" font-size="14.00" fill="#000000">ECE 391</text>
</g>
<!-- ECE 391&#45;&gt;ECE 491 -->
<g id="edge49" class="edge">
<title>ECE 391&#45;&gt;ECE 491</title>
<path fill="none" stroke="#000000" d="M997.6584,-359.9555C990.6878,-322.3144 974.5531,-235.1867 966.2083,-190.1246"/>
<polygon fill="#000000" stroke="#000000" points="969.6227,-189.3405 964.3602,-180.1451 962.7397,-190.6152 969.6227,-189.3405"/>
</g>
<!-- ECE 492 -->
<g id="node76" class="node">
<title>ECE 492</title>
<ellipse fill="none" stroke="#000000" cx="961" cy="-90" rx="51.9908" ry="18"/>
<text text-anchor="middle" x="961" y="-86.3" font-family="Times,serif" font-size="14.00" fill="#000000">ECE 492</text>
</g>
<!-- ECE 491&#45;&gt;ECE 492 -->
<g id="edge50" class="edge">
<title>ECE 491&#45;&gt;ECE 492</title>
<path fill="none" stroke="#000000" d="M961,-143.8314C961,-136.131 961,-126.9743 961,-118.4166"/>
<polygon fill="#000000" stroke="#000000" points="964.5001,-118.4132 961,-108.4133 957.5001,-118.4133 964.5001,-118.4132"/>
</g>
<!-- ECE 493 -->
<g id="node77" class="node">
<title>ECE 493</title>
<ellipse fill="none" stroke="#000000" cx="961" cy="-18" rx="51.9908" ry="18"/>
<text text-anchor="middle" x="961" y="-14.3" font-family="Times,serif" font-size="14.00" fill="#000000">ECE 493</text>
</g>
<!-- ECE 492&#45;&gt;ECE 493 -->
<g id="edge51" class="edge">
<title>ECE 492&#45;&gt;ECE 493</title>
<path fill="none" stroke="#000000" d="M961,-71.8314C961,-64.131 961,-54.9743 961,-46.4166"/>
<polygon fill="#000000" stroke="#000000" points="964.5001,-46.4132 961,-36.4133 957.5001,-46.4133 964.5001,-46.4132"/>
</g>
</g>
</svg>
