<?xml version="1.0" encoding="UTF-8" standalone="no"?>
<!DOCTYPE svg PUBLIC "-//W3C//DTD SVG 1.1//EN"
 "http://www.w3.org/Graphics/SVG/1.1/DTD/svg11.dtd">
<!-- Generated by graphviz version 2.40.1 (20161225.0304)
 -->
<!-- Title: Classes Pages: 1 -->
<svg width="2905pt" height="1110pt"
 viewBox="0.00 0.00 2905.19 1109.57" xmlns="http://www.w3.org/2000/svg" xmlns:xlink="http://www.w3.org/1999/xlink">
<g id="graph0" class="graph" transform="scale(1 1) rotate(0) translate(4 1105.5677)">
<title>Classes</title>
<polygon fill="#ffffff" stroke="transparent" points="-4,4 -4,-1105.5677 2901.1934,-1105.5677 2901.1934,4 -4,4"/>
<!-- 0.0 -->
<g id="node1" class="node">
<title>0.0</title>
<text text-anchor="middle" x="37.5" y="-1075.2403" font-family="Times,serif" font-size="14.00" fill="#000000">0.0 (11.0)</text>
</g>
<!-- 1.1 -->
<g id="node5" class="node">
<title>1.1</title>
<text text-anchor="middle" x="37.5" y="-993.9854" font-family="Times,serif" font-size="14.00" fill="#000000">1.1 (16.5)</text>
</g>
<!-- 0.0&#45;&gt;1.1 -->
<!-- CS 190 -->
<g id="node2" class="node">
<title>CS 190</title>
<ellipse fill="none" stroke="#006400" cx="187.5" cy="-1078.9403" rx="96.7474" ry="22.7556"/>
<text text-anchor="start" x="152" y="-1080.7403" font-family="Times,serif" font-size="14.00" fill="#000000">CS 190 (3.0)</text>
<text text-anchor="start" x="127" y="-1069.9403" font-family="Times,serif" font-size="10.00" fill="#000000">Selected Computer Language</text>
</g>
<!-- SPAN 101 -->
<g id="node3" class="node">
<title>SPAN 101</title>
<ellipse fill="none" stroke="#006400" cx="376.5" cy="-1078.9403" rx="74.4932" ry="22.7556"/>
<text text-anchor="start" x="332" y="-1080.7403" font-family="Times,serif" font-size="14.00" fill="#000000">SPAN 101 (4.0)</text>
<text text-anchor="start" x="357.5" y="-1069.9403" font-family="Times,serif" font-size="10.00" fill="#000000">Spanish I</text>
</g>
<!-- TGFE 099 -->
<g id="node4" class="node">
<title>TGFE 099</title>
<ellipse fill="none" stroke="#006400" cx="567.5" cy="-1078.9403" rx="98.9899" ry="22.7556"/>
<text text-anchor="start" x="523.5" y="-1080.7403" font-family="Times,serif" font-size="14.00" fill="#000000">TGFE 099 (4.0)</text>
<text text-anchor="start" x="505.5" y="-1069.9403" font-family="Times,serif" font-size="10.00" fill="#000000">Transfer General Free Elective</text>
</g>
<!-- 1.2 -->
<g id="node13" class="node">
<title>1.2</title>
<text text-anchor="middle" x="37.5" y="-912.7306" font-family="Times,serif" font-size="14.00" fill="#000000">1.2 (19.5)</text>
</g>
<!-- 1.1&#45;&gt;1.2 -->
<!-- CHEM 101 -->
<g id="node6" class="node">
<title>CHEM 101</title>
<ellipse fill="none" stroke="#006400" cx="274.5" cy="-997.6854" rx="77.5641" ry="22.7556"/>
<text text-anchor="start" x="227.5" y="-999.4854" font-family="Times,serif" font-size="14.00" fill="#000000">CHEM 101 (3.5)</text>
<text text-anchor="start" x="233.5" y="-988.6854" font-family="Times,serif" font-size="10.00" fill="#000000">General Chemistry I</text>
</g>
<!-- CHEM 102 -->
<g id="node14" class="node">
<title>CHEM 102</title>
<ellipse fill="none" stroke="#006400" cx="168.5" cy="-916.4306" rx="77.5641" ry="22.7556"/>
<text text-anchor="start" x="121.5" y="-918.2306" font-family="Times,serif" font-size="14.00" fill="#000000">CHEM 102 (4.5)</text>
<text text-anchor="start" x="126" y="-907.4306" font-family="Times,serif" font-size="10.00" fill="#000000">General Chemistry II</text>
</g>
<!-- CHEM 101&#45;&gt;CHEM 102 -->
<g id="edge3" class="edge">
<title>CHEM 101&#45;&gt;CHEM 102</title>
<path fill="none" stroke="#000000" d="M246.6497,-976.3367C233.7473,-966.4462 218.2562,-954.5714 204.481,-944.012"/>
<polygon fill="#000000" stroke="#000000" points="206.2301,-940.9428 196.1642,-937.6368 201.9714,-946.4983 206.2301,-940.9428"/>
</g>
<!-- BIO 141 -->
<g id="node22" class="node">
<title>BIO 141</title>
<ellipse fill="none" stroke="#006400" cx="274.5" cy="-835.1758" rx="66.4361" ry="22.7556"/>
<text text-anchor="start" x="235.5" y="-836.9758" font-family="Times,serif" font-size="14.00" fill="#000000">BIO 141 (4.5)</text>
<text text-anchor="start" x="238" y="-826.1758" font-family="Times,serif" font-size="10.00" fill="#000000">Essential Biology</text>
</g>
<!-- CHEM 101&#45;&gt;BIO 141 -->
<g id="edge8" class="edge">
<title>CHEM 101&#45;&gt;BIO 141</title>
<path fill="none" stroke="#000000" d="M274.5,-974.7464C274.5,-946.9199 274.5,-899.8079 274.5,-868.1076"/>
<polygon fill="#000000" stroke="#000000" points="278.0001,-867.998 274.5,-857.9981 271.0001,-867.9981 278.0001,-867.998"/>
</g>
<!-- ENGR 220 -->
<g id="node32" class="node">
<title>ENGR 220</title>
<ellipse fill="none" stroke="#006400" cx="406.5" cy="-753.9209" rx="88.2768" ry="22.7556"/>
<text text-anchor="start" x="361" y="-755.7209" font-family="Times,serif" font-size="14.00" fill="#000000">ENGR 220 (4.0)</text>
<text text-anchor="start" x="352" y="-744.9209" font-family="Times,serif" font-size="10.00" fill="#000000">Fundamentals of Materials</text>
</g>
<!-- CHEM 101&#45;&gt;ENGR 220 -->
<g id="edge14" class="edge">
<title>CHEM 101&#45;&gt;ENGR 220</title>
<path fill="none" stroke="#000000" d="M286.6816,-975.1896C310.3056,-931.5631 362.3941,-835.3713 389.4441,-785.4181"/>
<polygon fill="#000000" stroke="#000000" points="392.6637,-786.8225 394.3478,-776.3624 386.5083,-783.4893 392.6637,-786.8225"/>
</g>
<!-- ENGL 101 -->
<g id="node7" class="node">
<title>ENGL 101</title>
<ellipse fill="none" stroke="#006400" cx="1278.5" cy="-997.6854" rx="91.8478" ry="22.7556"/>
<text text-anchor="start" x="1233" y="-999.4854" font-family="Times,serif" font-size="14.00" fill="#000000">ENGL 101 (3.0)</text>
<text text-anchor="start" x="1221.5" y="-988.6854" font-family="Times,serif" font-size="10.00" fill="#000000">Composition and Rhetoric I</text>
</g>
<!-- ENGL 102 -->
<g id="node16" class="node">
<title>ENGL 102</title>
<ellipse fill="none" stroke="#006400" cx="1278.5" cy="-916.4306" rx="94.0904" ry="22.7556"/>
<text text-anchor="start" x="1233" y="-918.2306" font-family="Times,serif" font-size="14.00" fill="#000000">ENGL 102 (3.0)</text>
<text text-anchor="start" x="1220" y="-907.4306" font-family="Times,serif" font-size="10.00" fill="#000000">Composition and Rhetoric II</text>
</g>
<!-- ENGL 101&#45;&gt;ENGL 102 -->
<g id="edge4" class="edge">
<title>ENGL 101&#45;&gt;ENGL 102</title>
<path fill="none" stroke="#000000" d="M1278.5,-975.0514C1278.5,-967.1059 1278.5,-958.0098 1278.5,-949.3913"/>
<polygon fill="#000000" stroke="#000000" points="1282.0001,-949.225 1278.5,-939.225 1275.0001,-949.2251 1282.0001,-949.225"/>
</g>
<!-- ENGR 100 -->
<g id="node8" class="node">
<title>ENGR 100</title>
<ellipse fill="none" stroke="#006400" cx="1596.5" cy="-997.6854" rx="91.4341" ry="22.7556"/>
<text text-anchor="start" x="1551" y="-999.4854" font-family="Times,serif" font-size="14.00" fill="#000000">ENGR 100 (1.0)</text>
<text text-anchor="start" x="1540" y="-988.6854" font-family="Times,serif" font-size="10.00" fill="#000000">Beginning CAD for Design</text>
</g>
<!-- ENGR 101 -->
<g id="node9" class="node">
<title>ENGR 101</title>
<ellipse fill="none" stroke="#006400" cx="975.5" cy="-997.6854" rx="86.0347" ry="22.7556"/>
<text text-anchor="start" x="930" y="-999.4854" font-family="Times,serif" font-size="14.00" fill="#000000">ENGR 101 (2.0)</text>
<text text-anchor="start" x="922.5" y="-988.6854" font-family="Times,serif" font-size="10.00" fill="#000000">Engineering Design Lab I</text>
</g>
<!-- ENGR 102 -->
<g id="node17" class="node">
<title>ENGR 102</title>
<ellipse fill="none" stroke="#006400" cx="975.5" cy="-916.4306" rx="88.2768" ry="22.7556"/>
<text text-anchor="start" x="930" y="-918.2306" font-family="Times,serif" font-size="14.00" fill="#000000">ENGR 102 (2.0)</text>
<text text-anchor="start" x="921" y="-907.4306" font-family="Times,serif" font-size="10.00" fill="#000000">Engineering Design Lab II</text>
</g>
<!-- ENGR 101&#45;&gt;ENGR 102 -->
<g id="edge5" class="edge">
<title>ENGR 101&#45;&gt;ENGR 102</title>
<path fill="none" stroke="#000000" d="M975.5,-975.0514C975.5,-967.1059 975.5,-958.0098 975.5,-949.3913"/>
<polygon fill="#000000" stroke="#000000" points="979.0001,-949.225 975.5,-939.225 972.0001,-949.2251 979.0001,-949.225"/>
</g>
<!-- ENGR 121 -->
<g id="node10" class="node">
<title>ENGR 121</title>
<ellipse fill="none" stroke="#006400" cx="1982.5" cy="-997.6854" rx="75.8212" ry="22.7556"/>
<text text-anchor="start" x="1937" y="-999.4854" font-family="Times,serif" font-size="14.00" fill="#000000">ENGR 121 (2.0)</text>
<text text-anchor="start" x="1943.5" y="-988.6854" font-family="Times,serif" font-size="10.00" fill="#000000">Computation Lab I</text>
</g>
<!-- ENGR 231 -->
<g id="node33" class="node">
<title>ENGR 231</title>
<ellipse fill="none" stroke="#006400" cx="1982.5" cy="-753.9209" rx="92.7622" ry="22.7556"/>
<text text-anchor="start" x="1937" y="-755.7209" font-family="Times,serif" font-size="14.00" fill="#000000">ENGR 231 (3.0)</text>
<text text-anchor="start" x="1925" y="-744.9209" font-family="Times,serif" font-size="10.00" fill="#000000">Linear Engineering Systems</text>
</g>
<!-- ENGR 121&#45;&gt;ENGR 231 -->
<g id="edge17" class="edge">
<title>ENGR 121&#45;&gt;ENGR 231</title>
<path fill="none" stroke="#000000" d="M1982.5,-974.7527C1982.5,-931.3587 1982.5,-837.0989 1982.5,-786.913"/>
<polygon fill="#000000" stroke="#000000" points="1986.0001,-786.6151 1982.5,-776.6152 1979.0001,-786.6152 1986.0001,-786.6151"/>
</g>
<!-- MATH 121 -->
<g id="node11" class="node">
<title>MATH 121</title>
<ellipse fill="none" stroke="#006400" cx="512.5" cy="-997.6854" rx="78.4777" ry="22.7556"/>
<text text-anchor="start" x="465" y="-999.4854" font-family="Times,serif" font-size="14.00" fill="#000000">MATH 121 (4.0)</text>
<text text-anchor="start" x="491.5" y="-988.6854" font-family="Times,serif" font-size="10.00" fill="#000000">Calculus I</text>
</g>
<!-- MATH 122 -->
<g id="node19" class="node">
<title>MATH 122</title>
<ellipse fill="none" stroke="#006400" cx="512.5" cy="-916.4306" rx="78.4777" ry="22.7556"/>
<text text-anchor="start" x="465" y="-918.2306" font-family="Times,serif" font-size="14.00" fill="#000000">MATH 122 (4.0)</text>
<text text-anchor="start" x="490" y="-907.4306" font-family="Times,serif" font-size="10.00" fill="#000000">Calculus II</text>
</g>
<!-- MATH 121&#45;&gt;MATH 122 -->
<g id="edge6" class="edge">
<title>MATH 121&#45;&gt;MATH 122</title>
<path fill="none" stroke="#000000" d="M512.5,-975.0514C512.5,-967.1059 512.5,-958.0098 512.5,-949.3913"/>
<polygon fill="#000000" stroke="#000000" points="516.0001,-949.225 512.5,-939.225 509.0001,-949.2251 516.0001,-949.225"/>
</g>
<!-- UNIV 101 -->
<g id="node12" class="node">
<title>UNIV 101</title>
<ellipse fill="none" stroke="#006400" cx="2153.5" cy="-997.6854" rx="77.5641" ry="22.7556"/>
<text text-anchor="start" x="2109.5" y="-999.4854" font-family="Times,serif" font-size="14.00" fill="#000000">UNIV 101 (1.0)</text>
<text text-anchor="start" x="2106.5" y="-988.6854" font-family="Times,serif" font-size="10.00" fill="#000000">The Drexel Experience</text>
</g>
<!-- 1.3 -->
<g id="node21" class="node">
<title>1.3</title>
<text text-anchor="middle" x="37.5" y="-831.4758" font-family="Times,serif" font-size="14.00" fill="#000000">1.3 (17.5)</text>
</g>
<!-- 1.2&#45;&gt;1.3 -->
<!-- CIVC 101 -->
<g id="node15" class="node">
<title>CIVC 101</title>
<ellipse fill="none" stroke="#006400" cx="2098.5" cy="-916.4306" rx="88.2768" ry="22.7556"/>
<text text-anchor="start" x="2055" y="-918.2306" font-family="Times,serif" font-size="14.00" fill="#000000">CIVC 101 (1.0)</text>
<text text-anchor="start" x="2044" y="-907.4306" font-family="Times,serif" font-size="10.00" fill="#000000">Intro to Civic Engagement</text>
</g>
<!-- ENGL 103 -->
<g id="node24" class="node">
<title>ENGL 103</title>
<ellipse fill="none" stroke="#006400" cx="1278.5" cy="-835.1758" rx="96.3333" ry="22.7556"/>
<text text-anchor="start" x="1233" y="-836.9758" font-family="Times,serif" font-size="14.00" fill="#000000">ENGL 103 (3.0)</text>
<text text-anchor="start" x="1218.5" y="-826.1758" font-family="Times,serif" font-size="10.00" fill="#000000">Composition and Rhetoric III</text>
</g>
<!-- ENGL 102&#45;&gt;ENGL 103 -->
<g id="edge9" class="edge">
<title>ENGL 102&#45;&gt;ENGL 103</title>
<path fill="none" stroke="#000000" d="M1278.5,-893.7966C1278.5,-885.8511 1278.5,-876.755 1278.5,-868.1365"/>
<polygon fill="#000000" stroke="#000000" points="1282.0001,-867.9702 1278.5,-857.9702 1275.0001,-867.9702 1282.0001,-867.9702"/>
</g>
<!-- ENGR 103 -->
<g id="node25" class="node">
<title>ENGR 103</title>
<ellipse fill="none" stroke="#006400" cx="975.5" cy="-835.1758" rx="90.5193" ry="22.7556"/>
<text text-anchor="start" x="930" y="-836.9758" font-family="Times,serif" font-size="14.00" fill="#000000">ENGR 103 (2.0)</text>
<text text-anchor="start" x="919.5" y="-826.1758" font-family="Times,serif" font-size="10.00" fill="#000000">Engineering Design Lab III</text>
</g>
<!-- ENGR 102&#45;&gt;ENGR 103 -->
<g id="edge10" class="edge">
<title>ENGR 102&#45;&gt;ENGR 103</title>
<path fill="none" stroke="#000000" d="M975.5,-893.7966C975.5,-885.8511 975.5,-876.755 975.5,-868.1365"/>
<polygon fill="#000000" stroke="#000000" points="979.0001,-867.9702 975.5,-857.9702 972.0001,-867.9702 979.0001,-867.9702"/>
</g>
<!-- ENGR 122 -->
<g id="node18" class="node">
<title>ENGR 122</title>
<ellipse fill="none" stroke="#006400" cx="2280.5" cy="-916.4306" rx="75.8212" ry="22.7556"/>
<text text-anchor="start" x="2235" y="-918.2306" font-family="Times,serif" font-size="14.00" fill="#000000">ENGR 122 (1.0)</text>
<text text-anchor="start" x="2240" y="-907.4306" font-family="Times,serif" font-size="10.00" fill="#000000">Computation Lab II</text>
</g>
<!-- MATH 200 -->
<g id="node26" class="node">
<title>MATH 200</title>
<ellipse fill="none" stroke="#006400" cx="512.5" cy="-835.1758" rx="78.4777" ry="22.7556"/>
<text text-anchor="start" x="465" y="-836.9758" font-family="Times,serif" font-size="14.00" fill="#000000">MATH 200 (4.0)</text>
<text text-anchor="start" x="467.5" y="-826.1758" font-family="Times,serif" font-size="10.00" fill="#000000">Multivariate Calculus</text>
</g>
<!-- MATH 122&#45;&gt;MATH 200 -->
<g id="edge11" class="edge">
<title>MATH 122&#45;&gt;MATH 200</title>
<path fill="none" stroke="#000000" d="M512.5,-893.7966C512.5,-885.8511 512.5,-876.755 512.5,-868.1365"/>
<polygon fill="#000000" stroke="#000000" points="516.0001,-867.9702 512.5,-857.9702 509.0001,-867.9702 516.0001,-867.9702"/>
</g>
<!-- MATH 122&#45;&gt;ENGR 220 -->
<g id="edge15" class="edge">
<title>MATH 122&#45;&gt;ENGR 220</title>
<path fill="none" stroke="#000000" d="M470.1372,-897.0713C453.7548,-887.5108 436.3692,-874.4163 425.5,-857.8032 411.7843,-836.8392 407.2972,-808.6592 406.0947,-786.9388"/>
<polygon fill="#000000" stroke="#000000" points="409.5895,-786.7264 405.7421,-776.8548 402.5938,-786.971 409.5895,-786.7264"/>
</g>
<!-- PHYS 201 -->
<g id="node64" class="node">
<title>PHYS 201</title>
<ellipse fill="none" stroke="#ffa500" cx="637.5" cy="-347.6468" rx="90.5193" ry="22.7556"/>
<text text-anchor="start" x="593" y="-349.4468" font-family="Times,serif" font-size="14.00" fill="#000000">PHYS 201 (4.0)</text>
<text text-anchor="start" x="581.5" y="-338.6468" font-family="Times,serif" font-size="10.00" fill="#000000">Fundamentals of Physics III</text>
</g>
<!-- MATH 122&#45;&gt;PHYS 201 -->
<g id="edge50" class="edge">
<title>MATH 122&#45;&gt;PHYS 201</title>
<path fill="none" stroke="#000000" d="M554.8628,-897.0713C571.2452,-887.5108 588.6308,-874.4163 599.5,-857.8032 625.1967,-818.5267 618.5,-800.8567 618.5,-753.9209 618.5,-753.9209 618.5,-753.9209 618.5,-510.1564 618.5,-464.9165 625.8537,-413.0688 631.4113,-380.3447"/>
<polygon fill="#000000" stroke="#000000" points="634.8712,-380.8771 633.141,-370.4245 627.9752,-379.6746 634.8712,-380.8771"/>
</g>
<!-- PHYS 101 -->
<g id="node20" class="node">
<title>PHYS 101</title>
<ellipse fill="none" stroke="#006400" cx="734.5" cy="-916.4306" rx="86.0347" ry="22.7556"/>
<text text-anchor="start" x="690" y="-918.2306" font-family="Times,serif" font-size="14.00" fill="#000000">PHYS 101 (4.0)</text>
<text text-anchor="start" x="681.5" y="-907.4306" font-family="Times,serif" font-size="10.00" fill="#000000">Fundamentals of Physics I</text>
</g>
<!-- PHYS 102 -->
<g id="node27" class="node">
<title>PHYS 102</title>
<ellipse fill="none" stroke="#006400" cx="772.5" cy="-835.1758" rx="88.2768" ry="22.7556"/>
<text text-anchor="start" x="728" y="-836.9758" font-family="Times,serif" font-size="14.00" fill="#000000">PHYS 102 (4.0)</text>
<text text-anchor="start" x="718" y="-826.1758" font-family="Times,serif" font-size="10.00" fill="#000000">Fundamentals of Physics II</text>
</g>
<!-- PHYS 101&#45;&gt;PHYS 102 -->
<g id="edge12" class="edge">
<title>PHYS 101&#45;&gt;PHYS 102</title>
<path fill="none" stroke="#000000" d="M745.0851,-893.7966C748.9969,-885.4321 753.505,-875.7925 757.721,-866.7774"/>
<polygon fill="#000000" stroke="#000000" points="760.9057,-868.2295 761.9716,-857.6884 754.5649,-865.264 760.9057,-868.2295"/>
</g>
<!-- PHYS 101&#45;&gt;ENGR 220 -->
<g id="edge16" class="edge">
<title>PHYS 101&#45;&gt;ENGR 220</title>
<path fill="none" stroke="#000000" d="M711.4335,-894.4249C685.8982,-871.1363 642.6223,-834.7461 599.5,-812.5483 563.6404,-794.0892 520.9831,-780.3729 484.9026,-770.8682"/>
<polygon fill="#000000" stroke="#000000" points="485.4682,-767.3998 474.9116,-768.2986 483.7246,-774.1792 485.4682,-767.3998"/>
</g>
<!-- 2.1 -->
<g id="node28" class="node">
<title>2.1</title>
<text text-anchor="middle" x="37.5" y="-750.2209" font-family="Times,serif" font-size="14.00" fill="#000000">2.1 (20.0)</text>
</g>
<!-- 1.3&#45;&gt;2.1 -->
<!-- COOP 101 -->
<g id="node23" class="node">
<title>COOP 101</title>
<ellipse fill="none" stroke="#006400" cx="2096.5" cy="-835.1758" rx="85.6199" ry="22.7556"/>
<text text-anchor="start" x="2056.5" y="-836.9758" font-family="Times,serif" font-size="14.00" fill="#000000">COOP 101 (0)</text>
<text text-anchor="start" x="2044" y="-826.1758" font-family="Times,serif" font-size="10.00" fill="#000000">Career Mgmt/Profess Dev</text>
</g>
<!-- ECES 301 -->
<g id="node46" class="node">
<title>ECES 301</title>
<ellipse fill="none" stroke="#0000ff" cx="1020.5" cy="-591.4113" rx="73.5782" ry="22.7556"/>
<text text-anchor="start" x="976.5" y="-593.2113" font-family="Times,serif" font-size="14.00" fill="#000000">ECES 301 (4.0)</text>
<text text-anchor="start" x="976.5" y="-582.4113" font-family="Times,serif" font-size="10.00" fill="#000000">Signals and Systems I</text>
</g>
<!-- ENGR 103&#45;&gt;ECES 301 -->
<g id="edge31" class="edge">
<title>ENGR 103&#45;&gt;ECES 301</title>
<path fill="none" stroke="#000000" d="M979.7335,-812.243C987.761,-768.758 1005.218,-674.1938 1014.4677,-624.0883"/>
<polygon fill="#000000" stroke="#000000" points="1017.9369,-624.5748 1016.3105,-614.1055 1011.0532,-623.3039 1017.9369,-624.5748"/>
</g>
<!-- ECE 303 -->
<g id="node49" class="node">
<title>ECE 303</title>
<ellipse fill="none" stroke="#ffa500" cx="876.5" cy="-510.1564" rx="67.7647" ry="22.7556"/>
<text text-anchor="start" x="836.5" y="-511.9564" font-family="Times,serif" font-size="14.00" fill="#000000">ECE 303 (3.0)</text>
<text text-anchor="start" x="843" y="-501.1564" font-family="Times,serif" font-size="10.00" fill="#000000">ECE Laboratory</text>
</g>
<!-- ENGR 103&#45;&gt;ECE 303 -->
<g id="edge35" class="edge">
<title>ENGR 103&#45;&gt;ECE 303</title>
<path fill="none" stroke="#000000" d="M968.6171,-812.5791C951.4269,-756.1431 906.5561,-608.8314 886.4716,-542.8935"/>
<polygon fill="#000000" stroke="#000000" points="889.731,-541.5821 883.469,-533.0359 883.0348,-543.6218 889.731,-541.5821"/>
</g>
<!-- ECE 201 -->
<g id="node36" class="node">
<title>ECE 201</title>
<ellipse fill="none" stroke="#006400" cx="787.5" cy="-672.6661" rx="103.4757" ry="22.7556"/>
<text text-anchor="start" x="747.5" y="-674.4661" font-family="Times,serif" font-size="14.00" fill="#000000">ECE 201 (4.0)</text>
<text text-anchor="start" x="722.5" y="-663.6661" font-family="Times,serif" font-size="10.00" fill="#000000">Foundations of Electric Circuits</text>
</g>
<!-- PHYS 102&#45;&gt;ECE 201 -->
<g id="edge19" class="edge">
<title>PHYS 102&#45;&gt;ECE 201</title>
<path fill="none" stroke="#000000" d="M774.6173,-812.2368C777.1858,-784.4102 781.5343,-737.2983 784.4603,-705.598"/>
<polygon fill="#000000" stroke="#000000" points="787.9594,-705.7678 785.3935,-695.4884 780.9891,-705.1243 787.9594,-705.7678"/>
</g>
<!-- PHYS 102&#45;&gt;PHYS 201 -->
<g id="edge49" class="edge">
<title>PHYS 102&#45;&gt;PHYS 201</title>
<path fill="none" stroke="#000000" d="M743.5275,-813.6713C709.1691,-785.4596 656.5,-732.4611 656.5,-672.6661 656.5,-672.6661 656.5,-672.6661 656.5,-510.1564 656.5,-464.9165 649.1463,-413.0688 643.5887,-380.3447"/>
<polygon fill="#000000" stroke="#000000" points="647.0248,-379.6746 641.859,-370.4245 640.1288,-380.8771 647.0248,-379.6746"/>
</g>
<!-- 2.2 -->
<g id="node35" class="node">
<title>2.2</title>
<text text-anchor="middle" x="37.5" y="-668.9661" font-family="Times,serif" font-size="14.00" fill="#000000">2.2 (16.0)</text>
</g>
<!-- 2.1&#45;&gt;2.2 -->
<!-- ECE 200 -->
<g id="node29" class="node">
<title>ECE 200</title>
<ellipse fill="none" stroke="#006400" cx="1179.5" cy="-753.9209" rx="73.5782" ry="22.7556"/>
<text text-anchor="start" x="1139.5" y="-755.7209" font-family="Times,serif" font-size="14.00" fill="#000000">ECE 200 (4.0)</text>
<text text-anchor="start" x="1135.5" y="-744.9209" font-family="Times,serif" font-size="10.00" fill="#000000">Digital Logic Design</text>
</g>
<!-- MATH 221 -->
<g id="node40" class="node">
<title>MATH 221</title>
<ellipse fill="none" stroke="#006400" cx="1126.5" cy="-672.6661" rx="78.4777" ry="22.7556"/>
<text text-anchor="start" x="1079" y="-674.4661" font-family="Times,serif" font-size="14.00" fill="#000000">MATH 221 (3.0)</text>
<text text-anchor="start" x="1082" y="-663.6661" font-family="Times,serif" font-size="10.00" fill="#000000">Discrete Mathematics</text>
</g>
<!-- ECE 200&#45;&gt;MATH 221 -->
<g id="edge23" class="edge">
<title>ECE 200&#45;&gt;MATH 221</title>
<path fill="none" stroke="#000000" d="M1165.0175,-731.7177C1159.3968,-723.1005 1152.8609,-713.0802 1146.7866,-703.7677"/>
<polygon fill="#000000" stroke="#000000" points="1149.5439,-701.5884 1141.1491,-695.1248 1143.6809,-705.4127 1149.5439,-701.5884"/>
</g>
<!-- ECEC 302 -->
<g id="node44" class="node">
<title>ECEC 302</title>
<ellipse fill="none" stroke="#0000ff" cx="1213.5" cy="-591.4113" rx="82.0488" ry="22.7556"/>
<text text-anchor="start" x="1169" y="-593.2113" font-family="Times,serif" font-size="14.00" fill="#000000">ECEC 302 (3.0)</text>
<text text-anchor="start" x="1163.5" y="-582.4113" font-family="Times,serif" font-size="10.00" fill="#000000">Digital Systems Projects</text>
</g>
<!-- ECE 200&#45;&gt;ECEC 302 -->
<g id="edge27" class="edge">
<title>ECE 200&#45;&gt;ECEC 302</title>
<path fill="none" stroke="#000000" d="M1196.0619,-731.7732C1202.8924,-721.2892 1210.0158,-708.2465 1213.5,-695.2935 1219.7233,-672.1574 1219.4878,-645.0596 1217.8209,-624.3418"/>
<polygon fill="#000000" stroke="#000000" points="1221.2818,-623.7653 1216.8454,-614.144 1214.3136,-624.4319 1221.2818,-623.7653"/>
</g>
<!-- ECE 200&#45;&gt;ECES 301 -->
<g id="edge29" class="edge">
<title>ECE 200&#45;&gt;ECES 301</title>
<path fill="none" stroke="#000000" d="M1116.8777,-741.8641C1089.2037,-733.3784 1058.6621,-719.1083 1039.5,-695.2935 1023.5252,-675.4399 1019.296,-646.5234 1018.7674,-624.237"/>
<polygon fill="#000000" stroke="#000000" points="1022.2675,-624.208 1018.7627,-614.2097 1015.2675,-624.2114 1022.2675,-624.208"/>
</g>
<!-- ECEC 204 -->
<g id="node50" class="node">
<title>ECEC 204</title>
<ellipse fill="none" stroke="#ffa500" cx="1360.5" cy="-510.1564" rx="96.7474" ry="22.7556"/>
<text text-anchor="start" x="1316" y="-511.9564" font-family="Times,serif" font-size="14.00" fill="#000000">ECEC 204 (3.0)</text>
<text text-anchor="start" x="1300" y="-501.1564" font-family="Times,serif" font-size="10.00" fill="#000000">Design with Microcontrollers</text>
</g>
<!-- ECE 200&#45;&gt;ECEC 204 -->
<g id="edge36" class="edge">
<title>ECE 200&#45;&gt;ECEC 204</title>
<path fill="none" stroke="#000000" d="M1202.0439,-732.0461C1228.5364,-705.6243 1272.8857,-659.0947 1304.5,-614.0387 1320.5223,-591.2041 1335.3415,-563.2753 1345.7055,-542.1295"/>
<polygon fill="#000000" stroke="#000000" points="1348.949,-543.4613 1350.1422,-532.9338 1342.6445,-540.4195 1348.949,-543.4613"/>
</g>
<!-- ECE 203 -->
<g id="node30" class="node">
<title>ECE 203</title>
<ellipse fill="none" stroke="#006400" cx="1536.5" cy="-753.9209" rx="90.5193" ry="22.7556"/>
<text text-anchor="start" x="1496.5" y="-755.7209" font-family="Times,serif" font-size="14.00" fill="#000000">ECE 203 (3.0)</text>
<text text-anchor="start" x="1480.5" y="-744.9209" font-family="Times,serif" font-size="10.00" fill="#000000">Programming for Engineers</text>
</g>
<!-- ECEC 201 -->
<g id="node37" class="node">
<title>ECEC 201</title>
<ellipse fill="none" stroke="#006400" cx="1536.5" cy="-672.6661" rx="104.8038" ry="22.7556"/>
<text text-anchor="start" x="1492" y="-674.4661" font-family="Times,serif" font-size="14.00" fill="#000000">ECEC 201 (3.0)</text>
<text text-anchor="start" x="1470.5" y="-663.6661" font-family="Times,serif" font-size="10.00" fill="#000000">Adv Programming for Engineers</text>
</g>
<!-- ECE 203&#45;&gt;ECEC 201 -->
<g id="edge20" class="edge">
<title>ECE 203&#45;&gt;ECEC 201</title>
<path fill="none" stroke="#000000" d="M1536.5,-731.2869C1536.5,-723.3414 1536.5,-714.2453 1536.5,-705.6268"/>
<polygon fill="#000000" stroke="#000000" points="1540.0001,-705.4605 1536.5,-695.4605 1533.0001,-705.4606 1540.0001,-705.4605"/>
</g>
<!-- ECE 203&#45;&gt;ECEC 302 -->
<g id="edge26" class="edge">
<title>ECE 203&#45;&gt;ECEC 302</title>
<path fill="none" stroke="#000000" d="M1495.9189,-733.5035C1436.4893,-703.6029 1325.9445,-647.985 1262.209,-615.918"/>
<polygon fill="#000000" stroke="#000000" points="1263.6629,-612.7315 1253.1567,-611.3636 1260.5167,-618.9847 1263.6629,-612.7315"/>
</g>
<!-- ECEC 357 -->
<g id="node45" class="node">
<title>ECEC 357</title>
<ellipse fill="none" stroke="#0000ff" cx="1854.5" cy="-591.4113" rx="115.0173" ry="22.7556"/>
<text text-anchor="start" x="1810" y="-593.2113" font-family="Times,serif" font-size="14.00" fill="#000000">ECEC 357 (3.0)</text>
<text text-anchor="start" x="1781" y="-582.4113" font-family="Times,serif" font-size="10.00" fill="#000000">Introduction to Computer Networks</text>
</g>
<!-- ECE 203&#45;&gt;ECEC 357 -->
<g id="edge28" class="edge">
<title>ECE 203&#45;&gt;ECEC 357</title>
<path fill="none" stroke="#000000" d="M1576.4529,-733.5035C1634.1676,-704.0092 1740.848,-649.4916 1803.962,-617.238"/>
<polygon fill="#000000" stroke="#000000" points="1805.6349,-620.3137 1812.9468,-612.6465 1802.4495,-614.0805 1805.6349,-620.3137"/>
</g>
<!-- ENGR 201 -->
<g id="node31" class="node">
<title>ENGR 201</title>
<ellipse fill="none" stroke="#006400" cx="2193.5" cy="-753.9209" rx="90.5193" ry="22.7556"/>
<text text-anchor="start" x="2148" y="-755.7209" font-family="Times,serif" font-size="14.00" fill="#000000">ENGR 201 (3.0)</text>
<text text-anchor="start" x="2137.5" y="-744.9209" font-family="Times,serif" font-size="10.00" fill="#000000">Eval &amp; Pres of Exper Data I</text>
</g>
<!-- ENGR 202 -->
<g id="node38" class="node">
<title>ENGR 202</title>
<ellipse fill="none" stroke="#006400" cx="2193.5" cy="-672.6661" rx="92.7622" ry="22.7556"/>
<text text-anchor="start" x="2148" y="-674.4661" font-family="Times,serif" font-size="14.00" fill="#000000">ENGR 202 (3.0)</text>
<text text-anchor="start" x="2136" y="-663.6661" font-family="Times,serif" font-size="10.00" fill="#000000">Eval &amp; Pres of Exper Data II</text>
</g>
<!-- ENGR 201&#45;&gt;ENGR 202 -->
<g id="edge21" class="edge">
<title>ENGR 201&#45;&gt;ENGR 202</title>
<path fill="none" stroke="#000000" d="M2193.5,-731.2869C2193.5,-723.3414 2193.5,-714.2453 2193.5,-705.6268"/>
<polygon fill="#000000" stroke="#000000" points="2197.0001,-705.4605 2193.5,-695.4605 2190.0001,-705.4606 2197.0001,-705.4605"/>
</g>
<!-- ENGR 232 -->
<g id="node39" class="node">
<title>ENGR 232</title>
<ellipse fill="none" stroke="#006400" cx="1982.5" cy="-672.6661" rx="100.3184" ry="22.7556"/>
<text text-anchor="start" x="1937" y="-674.4661" font-family="Times,serif" font-size="14.00" fill="#000000">ENGR 232 (3.0)</text>
<text text-anchor="start" x="1919.5" y="-663.6661" font-family="Times,serif" font-size="10.00" fill="#000000">Dynamic Engineering Systems</text>
</g>
<!-- ENGR 231&#45;&gt;ENGR 232 -->
<g id="edge22" class="edge">
<title>ENGR 231&#45;&gt;ENGR 232</title>
<path fill="none" stroke="#000000" d="M1982.5,-731.2869C1982.5,-723.3414 1982.5,-714.2453 1982.5,-705.6268"/>
<polygon fill="#000000" stroke="#000000" points="1986.0001,-705.4605 1982.5,-695.4605 1979.0001,-705.4606 1986.0001,-705.4605"/>
</g>
<!-- PHIL 111 -->
<g id="node34" class="node">
<title>PHIL 111</title>
<ellipse fill="none" stroke="#006400" cx="2373.5" cy="-753.9209" rx="71.3357" ry="22.7556"/>
<text text-anchor="start" x="2331" y="-755.7209" font-family="Times,serif" font-size="14.00" fill="#000000">PHIL 111 (3.0)</text>
<text text-anchor="start" x="2338" y="-744.9209" font-family="Times,serif" font-size="10.00" fill="#000000">Symbolic Logic I</text>
</g>
<!-- PHIL 207 -->
<g id="node60" class="node">
<title>PHIL 207</title>
<ellipse fill="none" stroke="#ffa500" cx="2373.5" cy="-428.9016" rx="71.3357" ry="22.7556"/>
<text text-anchor="start" x="2331" y="-430.7016" font-family="Times,serif" font-size="14.00" fill="#000000">PHIL 207 (3.0)</text>
<text text-anchor="start" x="2336.5" y="-419.9016" font-family="Times,serif" font-size="10.00" fill="#000000">Symbolic Logic II</text>
</g>
<!-- PHIL 111&#45;&gt;PHIL 207 -->
<g id="edge46" class="edge">
<title>PHIL 111&#45;&gt;PHIL 207</title>
<path fill="none" stroke="#000000" d="M2373.5,-731.0662C2373.5,-674.5369 2373.5,-527.9762 2373.5,-461.9754"/>
<polygon fill="#000000" stroke="#000000" points="2377.0001,-461.731 2373.5,-451.7311 2370.0001,-461.7311 2377.0001,-461.731"/>
</g>
<!-- 3.1 -->
<g id="node41" class="node">
<title>3.1</title>
<text text-anchor="middle" x="37.5" y="-587.7113" font-family="Times,serif" font-size="14.00" fill="#000000">3.1 (17.0)</text>
</g>
<!-- 2.2&#45;&gt;3.1 -->
<!-- ECE 201&#45;&gt;ECES 301 -->
<g id="edge30" class="edge">
<title>ECE 201&#45;&gt;ECES 301</title>
<path fill="none" stroke="#000000" d="M842.7177,-653.4098C878.666,-640.8735 925.4971,-624.5419 962.0697,-611.7878"/>
<polygon fill="#000000" stroke="#000000" points="963.3236,-615.0574 971.6134,-608.4596 961.0186,-608.4477 963.3236,-615.0574"/>
</g>
<!-- ECE 201&#45;&gt;ECE 303 -->
<g id="edge34" class="edge">
<title>ECE 201&#45;&gt;ECE 303</title>
<path fill="none" stroke="#000000" d="M799.8751,-650.0698C815.3511,-621.8113 841.9269,-573.2853 859.3556,-541.4613"/>
<polygon fill="#000000" stroke="#000000" points="862.4964,-543.0128 864.23,-532.5608 856.3568,-539.6504 862.4964,-543.0128"/>
</g>
<!-- CS 265 -->
<g id="node42" class="node">
<title>CS 265</title>
<ellipse fill="none" stroke="#0000ff" cx="1536.5" cy="-591.4113" rx="147.1565" ry="22.7556"/>
<text text-anchor="start" x="1501" y="-593.2113" font-family="Times,serif" font-size="14.00" fill="#000000">CS 265 (3.0)</text>
<text text-anchor="start" x="1440.5" y="-582.4113" font-family="Times,serif" font-size="10.00" fill="#000000">Advanced Programming Tools and Techniques</text>
</g>
<!-- ECEC 201&#45;&gt;CS 265 -->
<g id="edge25" class="edge">
<title>ECEC 201&#45;&gt;CS 265</title>
<path fill="none" stroke="#000000" d="M1536.5,-650.0321C1536.5,-642.0866 1536.5,-632.9905 1536.5,-624.372"/>
<polygon fill="#000000" stroke="#000000" points="1540.0001,-624.2057 1536.5,-614.2057 1533.0001,-624.2057 1540.0001,-624.2057"/>
</g>
<!-- ECEC 201&#45;&gt;ECEC 204 -->
<g id="edge37" class="edge">
<title>ECEC 201&#45;&gt;ECEC 204</title>
<path fill="none" stroke="#000000" d="M1454.0972,-658.5236C1427.0403,-649.9371 1399.1557,-636.1536 1380.5,-614.0387 1364.0403,-594.5269 1359.558,-565.581 1358.8992,-543.1964"/>
<polygon fill="#000000" stroke="#000000" points="1362.3988,-543.0982 1358.8416,-533.1184 1355.3989,-543.1383 1362.3988,-543.0982"/>
</g>
<!-- ECEC 353 -->
<g id="node51" class="node">
<title>ECEC 353</title>
<ellipse fill="none" stroke="#ffa500" cx="1711.5" cy="-510.1564" rx="75.8212" ry="22.7556"/>
<text text-anchor="start" x="1667" y="-511.9564" font-family="Times,serif" font-size="14.00" fill="#000000">ECEC 353 (3.0)</text>
<text text-anchor="start" x="1666" y="-501.1564" font-family="Times,serif" font-size="10.00" fill="#000000">Systems Programming</text>
</g>
<!-- ECEC 201&#45;&gt;ECEC 353 -->
<g id="edge38" class="edge">
<title>ECEC 201&#45;&gt;ECEC 353</title>
<path fill="none" stroke="#000000" d="M1619.0176,-658.62C1646.0852,-650.0425 1673.9473,-636.2401 1692.5,-614.0387 1708.8402,-594.4848 1713.038,-565.5425 1713.4617,-543.17"/>
<polygon fill="#000000" stroke="#000000" points="1716.9614,-543.0809 1713.4122,-533.0983 1709.9615,-543.1154 1716.9614,-543.0809"/>
</g>
<!-- 3.2 -->
<g id="node47" class="node">
<title>3.2</title>
<text text-anchor="middle" x="37.5" y="-506.4564" font-family="Times,serif" font-size="14.00" fill="#000000">3.2 (18.0)</text>
</g>
<!-- 3.1&#45;&gt;3.2 -->
<!-- CS 260 -->
<g id="node48" class="node">
<title>CS 260</title>
<ellipse fill="none" stroke="#ffa500" cx="1536.5" cy="-510.1564" rx="61.5366" ry="22.7556"/>
<text text-anchor="start" x="1501" y="-511.9564" font-family="Times,serif" font-size="14.00" fill="#000000">CS 260 (3.0)</text>
<text text-anchor="start" x="1505" y="-501.1564" font-family="Times,serif" font-size="10.00" fill="#000000">Data Structures</text>
</g>
<!-- CS 265&#45;&gt;CS 260 -->
<g id="edge33" class="edge">
<title>CS 265&#45;&gt;CS 260</title>
<path fill="none" stroke="#000000" d="M1536.5,-568.7773C1536.5,-560.8318 1536.5,-551.7356 1536.5,-543.1172"/>
<polygon fill="#000000" stroke="#000000" points="1540.0001,-542.9508 1536.5,-532.9509 1533.0001,-542.9509 1540.0001,-542.9508"/>
</g>
<!-- ECE 361 -->
<g id="node43" class="node">
<title>ECE 361</title>
<ellipse fill="none" stroke="#0000ff" cx="2485.5" cy="-591.4113" rx="84.2917" ry="22.7556"/>
<text text-anchor="start" x="2445.5" y="-593.2113" font-family="Times,serif" font-size="14.00" fill="#000000">ECE 361 (4.0)</text>
<text text-anchor="start" x="2434" y="-582.4113" font-family="Times,serif" font-size="10.00" fill="#000000">Probability for Engineers</text>
</g>
<!-- ECE 491 -->
<g id="node66" class="node">
<title>ECE 491</title>
<ellipse fill="none" stroke="#ffa500" cx="2548.5" cy="-266.3919" rx="77.5641" ry="22.7556"/>
<text text-anchor="start" x="2508.5" y="-268.1919" font-family="Times,serif" font-size="14.00" fill="#000000">ECE 491 (2.0)</text>
<text text-anchor="start" x="2501.5" y="-257.3919" font-family="Times,serif" font-size="10.00" fill="#000000">Senior Design Project I</text>
</g>
<!-- ECE 361&#45;&gt;ECE 491 -->
<g id="edge53" class="edge">
<title>ECE 361&#45;&gt;ECE 491</title>
<path fill="none" stroke="#000000" d="M2486.3521,-568.6723C2488.0006,-533.5244 2492.5823,-464.0243 2504.5,-406.2742 2512.2445,-368.7464 2526.0924,-326.9922 2536.1896,-298.9542"/>
<polygon fill="#000000" stroke="#000000" points="2539.5804,-299.8722 2539.7217,-289.2783 2533.0048,-297.4718 2539.5804,-299.8722"/>
</g>
<!-- ECEC 355 -->
<g id="node52" class="node">
<title>ECEC 355</title>
<ellipse fill="none" stroke="#ffa500" cx="1167.5" cy="-510.1564" rx="77.5641" ry="22.7556"/>
<text text-anchor="start" x="1123" y="-511.9564" font-family="Times,serif" font-size="14.00" fill="#000000">ECEC 355 (3.0)</text>
<text text-anchor="start" x="1120.5" y="-501.1564" font-family="Times,serif" font-size="10.00" fill="#000000">Computer Architecture</text>
</g>
<!-- ECEC 302&#45;&gt;ECEC 355 -->
<g id="edge39" class="edge">
<title>ECEC 302&#45;&gt;ECEC 355</title>
<path fill="none" stroke="#000000" d="M1200.6864,-568.7773C1195.9013,-560.3248 1190.379,-550.5701 1185.2293,-541.4736"/>
<polygon fill="#000000" stroke="#000000" points="1188.2172,-539.647 1180.2448,-532.669 1182.1256,-543.0956 1188.2172,-539.647"/>
</g>
<!-- 4.1 -->
<g id="node54" class="node">
<title>4.1</title>
<text text-anchor="middle" x="37.5" y="-425.2016" font-family="Times,serif" font-size="14.00" fill="#000000">4.1 (16.0)</text>
</g>
<!-- 3.2&#45;&gt;4.1 -->
<!-- CS 361 -->
<g id="node55" class="node">
<title>CS 361</title>
<ellipse fill="none" stroke="#ffa500" cx="1430.5" cy="-428.9016" rx="84.2917" ry="22.7556"/>
<text text-anchor="start" x="1395" y="-430.7016" font-family="Times,serif" font-size="14.00" fill="#000000">CS 361 (3.0)</text>
<text text-anchor="start" x="1379" y="-419.9016" font-family="Times,serif" font-size="10.00" fill="#000000">Concurrent Programming</text>
</g>
<!-- CS 260&#45;&gt;CS 361 -->
<g id="edge41" class="edge">
<title>CS 260&#45;&gt;CS 361</title>
<path fill="none" stroke="#000000" d="M1509.7517,-489.6524C1496.7294,-479.67 1480.8782,-467.5193 1466.7841,-456.7153"/>
<polygon fill="#000000" stroke="#000000" points="1468.7892,-453.8423 1458.7233,-450.5363 1464.5305,-459.3979 1468.7892,-453.8423"/>
</g>
<!-- CS 370 -->
<g id="node56" class="node">
<title>CS 370</title>
<ellipse fill="none" stroke="#ffa500" cx="1772.5" cy="-428.9016" rx="65.5227" ry="22.7556"/>
<text text-anchor="start" x="1737" y="-430.7016" font-family="Times,serif" font-size="14.00" fill="#000000">CS 370 (3.0)</text>
<text text-anchor="start" x="1734" y="-419.9016" font-family="Times,serif" font-size="10.00" fill="#000000">Operating Systems</text>
</g>
<!-- ECEC 353&#45;&gt;CS 370 -->
<g id="edge43" class="edge">
<title>ECEC 353&#45;&gt;CS 370</title>
<path fill="none" stroke="#000000" d="M1728.1685,-487.9532C1734.8256,-479.0856 1742.5981,-468.7323 1749.7593,-459.1933"/>
<polygon fill="#000000" stroke="#000000" points="1752.6469,-461.1765 1755.8516,-451.078 1747.0489,-456.9739 1752.6469,-461.1765"/>
</g>
<!-- CS 377 -->
<g id="node57" class="node">
<title>CS 377</title>
<ellipse fill="none" stroke="#ffa500" cx="1625.5" cy="-428.9016" rx="62.8651" ry="22.7556"/>
<text text-anchor="start" x="1590" y="-430.7016" font-family="Times,serif" font-size="14.00" fill="#000000">CS 377 (3.0)</text>
<text text-anchor="start" x="1589" y="-419.9016" font-family="Times,serif" font-size="10.00" fill="#000000">Software Security</text>
</g>
<!-- ECEC 353&#45;&gt;CS 377 -->
<g id="edge44" class="edge">
<title>ECEC 353&#45;&gt;CS 377</title>
<path fill="none" stroke="#000000" d="M1688.4536,-488.3816C1678.2664,-478.7565 1666.1593,-467.3174 1655.297,-457.0545"/>
<polygon fill="#000000" stroke="#000000" points="1657.6872,-454.4977 1648.0147,-450.174 1652.8798,-459.5858 1657.6872,-454.4977"/>
</g>
<!-- ECEC 355&#45;&gt;CS 361 -->
<g id="edge42" class="edge">
<title>ECEC 355&#45;&gt;CS 361</title>
<path fill="none" stroke="#000000" d="M1221.039,-493.6154C1262.876,-480.6896 1321.1906,-462.6731 1365.669,-448.9314"/>
<polygon fill="#000000" stroke="#000000" points="1366.7032,-452.2752 1375.2244,-445.9792 1364.6369,-445.5871 1366.7032,-452.2752"/>
</g>
<!-- ECEC 413 -->
<g id="node59" class="node">
<title>ECEC 413</title>
<ellipse fill="none" stroke="#ffa500" cx="1106.5" cy="-428.9016" rx="124.4016" ry="22.7556"/>
<text text-anchor="start" x="1062" y="-430.7016" font-family="Times,serif" font-size="14.00" fill="#000000">ECEC 413 (3.0)</text>
<text text-anchor="start" x="1026.5" y="-419.9016" font-family="Times,serif" font-size="10.00" fill="#000000">Intro to Parallel Computer Architecture</text>
</g>
<!-- ECEC 355&#45;&gt;ECEC 413 -->
<g id="edge45" class="edge">
<title>ECEC 355&#45;&gt;ECEC 413</title>
<path fill="none" stroke="#000000" d="M1150.8315,-487.9532C1144.2289,-479.1583 1136.5292,-468.9019 1129.417,-459.428"/>
<polygon fill="#000000" stroke="#000000" points="1132.1631,-457.2562 1123.3603,-451.3603 1126.565,-461.4589 1132.1631,-457.2562"/>
</g>
<!-- ECEC 414 -->
<g id="node62" class="node">
<title>ECEC 414</title>
<ellipse fill="none" stroke="#ffa500" cx="1258.5" cy="-347.6468" rx="98.0761" ry="22.7556"/>
<text text-anchor="start" x="1214" y="-349.4468" font-family="Times,serif" font-size="14.00" fill="#000000">ECEC 414 (3.0)</text>
<text text-anchor="start" x="1197" y="-338.6468" font-family="Times,serif" font-size="10.00" fill="#000000">High Performance Computing</text>
</g>
<!-- ECEC 355&#45;&gt;ECEC 414 -->
<g id="edge48" class="edge">
<title>ECEC 355&#45;&gt;ECEC 414</title>
<path fill="none" stroke="#000000" d="M1202.2349,-489.592C1215.9095,-479.7614 1230.4724,-466.7907 1239.5,-451.529 1252.2544,-429.9667 1256.8064,-401.8271 1258.2784,-380.2744"/>
<polygon fill="#000000" stroke="#000000" points="1261.7743,-380.4425 1258.7761,-370.2808 1254.7829,-380.0943 1261.7743,-380.4425"/>
</g>
<!-- PHIL 315 -->
<g id="node53" class="node">
<title>PHIL 315</title>
<ellipse fill="none" stroke="#ffa500" cx="2584.5" cy="-510.1564" rx="71.3357" ry="22.7556"/>
<text text-anchor="start" x="2542" y="-511.9564" font-family="Times,serif" font-size="14.00" fill="#000000">PHIL 315 (3.0)</text>
<text text-anchor="start" x="2545" y="-501.1564" font-family="Times,serif" font-size="10.00" fill="#000000">Engineering Ethics</text>
</g>
<!-- 4.2 -->
<g id="node61" class="node">
<title>4.2</title>
<text text-anchor="middle" x="37.5" y="-343.9468" font-family="Times,serif" font-size="14.00" fill="#000000">4.2 (10.0)</text>
</g>
<!-- 4.1&#45;&gt;4.2 -->
<!-- ECE 391 -->
<g id="node58" class="node">
<title>ECE 391</title>
<ellipse fill="none" stroke="#ffa500" cx="2611.5" cy="-428.9016" rx="97.6615" ry="22.7556"/>
<text text-anchor="start" x="2571.5" y="-430.7016" font-family="Times,serif" font-size="14.00" fill="#000000">ECE 391 (1.0)</text>
<text text-anchor="start" x="2550.5" y="-419.9016" font-family="Times,serif" font-size="10.00" fill="#000000">Intro to Engr Design Methods</text>
</g>
<!-- ECE 391&#45;&gt;ECE 491 -->
<g id="edge52" class="edge">
<title>ECE 391&#45;&gt;ECE 491</title>
<path fill="none" stroke="#000000" d="M2602.7401,-406.3053C2591.9097,-378.3681 2573.3998,-330.6215 2561.0592,-298.7886"/>
<polygon fill="#000000" stroke="#000000" points="2564.1648,-297.1164 2557.2868,-289.0576 2557.6381,-299.6467 2564.1648,-297.1164"/>
</g>
<!-- 5.1 -->
<g id="node65" class="node">
<title>5.1</title>
<text text-anchor="middle" x="37.5" y="-262.6919" font-family="Times,serif" font-size="14.00" fill="#000000">5.1 (2.0)</text>
</g>
<!-- 4.2&#45;&gt;5.1 -->
<!-- MATH 220 -->
<g id="node63" class="node">
<title>MATH 220</title>
<ellipse fill="none" stroke="#ffa500" cx="2768.5" cy="-347.6468" rx="128.8872" ry="22.7556"/>
<text text-anchor="start" x="2721" y="-349.4468" font-family="Times,serif" font-size="14.00" fill="#000000">MATH 220 (3.0)</text>
<text text-anchor="start" x="2685.5" y="-338.6468" font-family="Times,serif" font-size="10.00" fill="#000000">Introduction to Mathematical Reasoning</text>
</g>
<!-- 5.2 -->
<g id="node67" class="node">
<title>5.2</title>
<text text-anchor="middle" x="37.5" y="-181.4371" font-family="Times,serif" font-size="14.00" fill="#000000">5.2 (2.0)</text>
</g>
<!-- 5.1&#45;&gt;5.2 -->
<!-- ECE 492 -->
<g id="node68" class="node">
<title>ECE 492</title>
<ellipse fill="none" stroke="#ffa500" cx="2548.5" cy="-185.1371" rx="79.8063" ry="22.7556"/>
<text text-anchor="start" x="2508.5" y="-186.9371" font-family="Times,serif" font-size="14.00" fill="#000000">ECE 492 (2.0)</text>
<text text-anchor="start" x="2500" y="-176.1371" font-family="Times,serif" font-size="10.00" fill="#000000">Senior Design Project II</text>
</g>
<!-- ECE 491&#45;&gt;ECE 492 -->
<g id="edge55" class="edge">
<title>ECE 491&#45;&gt;ECE 492</title>
<path fill="none" stroke="#000000" d="M2548.5,-243.7579C2548.5,-235.8124 2548.5,-226.7163 2548.5,-218.0978"/>
<polygon fill="#000000" stroke="#000000" points="2552.0001,-217.9315 2548.5,-207.9315 2545.0001,-217.9316 2552.0001,-217.9315"/>
</g>
<!-- 5.3 -->
<g id="node69" class="node">
<title>5.3</title>
<text text-anchor="middle" x="37.5" y="-100.1823" font-family="Times,serif" font-size="14.00" fill="#000000">5.3 (4.0)</text>
</g>
<!-- 5.2&#45;&gt;5.3 -->
<!-- ECE 493 -->
<g id="node70" class="node">
<title>ECE 493</title>
<ellipse fill="none" stroke="#ffa500" cx="2548.5" cy="-103.8823" rx="82.0488" ry="22.7556"/>
<text text-anchor="start" x="2508.5" y="-105.6823" font-family="Times,serif" font-size="14.00" fill="#000000">ECE 493 (4.0)</text>
<text text-anchor="start" x="2498.5" y="-94.8823" font-family="Times,serif" font-size="10.00" fill="#000000">Senior Design Project III</text>
</g>
<!-- ECE 492&#45;&gt;ECE 493 -->
<g id="edge57" class="edge">
<title>ECE 492&#45;&gt;ECE 493</title>
<path fill="none" stroke="#000000" d="M2548.5,-162.5031C2548.5,-154.5576 2548.5,-145.4615 2548.5,-136.843"/>
<polygon fill="#000000" stroke="#000000" points="2552.0001,-136.6767 2548.5,-126.6767 2545.0001,-136.6767 2552.0001,-136.6767"/>
</g>
<!-- &#45;1.0 -->
<g id="node71" class="node">
<title>&#45;1.0</title>
<text text-anchor="middle" x="37.5" y="-18.9274" font-family="Times,serif" font-size="14.00" fill="#000000">&#45;1.0 (17.0)</text>
</g>
<!-- 5.3&#45;&gt;&#45;1.0 -->
<!-- TEMP GenEd -->
<g id="node72" class="node">
<title>TEMP GenEd</title>
<ellipse fill="none" stroke="#ff0000" cx="187.5" cy="-22.6274" rx="94.0904" ry="22.7556"/>
<text text-anchor="start" x="133" y="-24.4274" font-family="Times,serif" font-size="14.00" fill="#000000">TEMP GenEd (8.0)</text>
<text text-anchor="start" x="129" y="-13.6274" font-family="Times,serif" font-size="10.00" fill="#000000">General Education Electives</text>
</g>
<!-- TEMP ECEC 400 -->
<g id="node73" class="node">
<title>TEMP ECEC 400</title>
<ellipse fill="none" stroke="#ff0000" cx="402.5" cy="-22.6274" rx="103.4757" ry="22.7556"/>
<text text-anchor="start" x="337.5" y="-24.4274" font-family="Times,serif" font-size="14.00" fill="#000000">TEMP ECEC 400 (3.0)</text>
<text text-anchor="start" x="348" y="-13.6274" font-family="Times,serif" font-size="10.00" fill="#000000">ECEC 400 Level Electives</text>
</g>
<!-- TEMP COE -->
<g id="node74" class="node">
<title>TEMP COE</title>
<ellipse fill="none" stroke="#ff0000" cx="614.5" cy="-22.6274" rx="90.5193" ry="22.7556"/>
<text text-anchor="start" x="565.5" y="-24.4274" font-family="Times,serif" font-size="14.00" fill="#000000">TEMP COE (6.0)</text>
<text text-anchor="start" x="558.5" y="-13.6274" font-family="Times,serif" font-size="10.00" fill="#000000">ECE/COE/BMES Electives</text>
</g>
</g>
</svg>
